<svg width="54" height="30" viewBox="0 0 54 30" fill="none" xmlns="http://www.w3.org/2000/svg">
<path d="M45.3748 4.21319e-06C47.1848 0.190304 47.7112 1.85281 46.7199 3.10075L29.8227 27.6974C28.3052 30 25.6634 29.8469 23.8221 30L22.9184 30H32.4106L33.3292 29.9824C34.3353 29.9805 35.6516 29.5714 36.4565 28.3597L53.606 3.6202C54.655 2.10686 53.4758 -0.00344107 51.6409 4.21319e-06H50.5605H45.3748Z" fill="#F31010"/>
<path d="M14.2607 1.71429H26.5767C28.4162 1.74924 29.3698 3.92587 28.2796 5.41585L13.6995 25.5816C10.3262 30 1.84129 29.8469 0 30L19.8184 30L20.737 29.9824C21.7431 29.9805 23.281 29.0438 24.243 27.6974L40.953 3.72814C42.0021 2.2148 40.9131 -0.003437 39.0781 8.22152e-06H15.9892L14.2607 1.71429Z" fill="#001060"/>
</svg>
