<svg width="54" height="30" viewBox="0 0 54 30" fill="none" xmlns="http://www.w3.org/2000/svg">
<path d="M45.0657 0.105961C46.8485 0.294917 47.367 1.94568 46.3906 3.18481L29.7466 27.6077C28.2519 29.8941 25.6496 29.742 23.8359 29.894L22.9458 29.8941H32.2957L33.2005 29.8766C34.1916 29.8747 35.4882 29.4685 36.281 28.2653L53.1735 3.70058C54.2068 2.19793 53.0452 0.10254 51.2378 0.105961H50.1737H45.0657Z" fill="white"/>
<path d="M14.4177 1.80814H26.5492C28.3612 1.84284 29.3005 4.0041 28.2266 5.48356L13.865 25.5069C10.5422 29.894 2.18442 29.742 0.370728 29.894L19.8921 29.8941L20.797 29.8766C21.788 29.8747 23.3029 28.9446 24.2505 27.6077L40.7101 3.80776C41.7434 2.30511 40.6707 0.102544 38.8633 0.105965H16.1204L14.4177 1.80814Z" fill="white"/>
</svg>
