<?xml version="1.0" encoding="UTF-8"?> <svg xmlns="http://www.w3.org/2000/svg" id="Layer_1" data-name="Layer 1" version="1.1" viewBox="0 0 108 108"><polyline points="72.4 44 72.4 18 18 18 18 90 72.4 90 72.4 84.9" fill="none" stroke="#ff5000" stroke-linecap="round" stroke-linejoin="round" stroke-width="4"></polyline><line x1="44" y1="33" x2="64.5" y2="33" fill="none" stroke="#ff5000" stroke-linecap="round" stroke-linejoin="round" stroke-width="3"></line><path d="M93.4,57.1c-1.9,0-3.6.8-4.8,2.1v-11.3h-11.8c1.4,1.2,2.3,3,2.3,5,0,3.6-2.9,6.6-6.6,6.6s-6.6-2.9-6.6-6.6.9-3.8,2.3-5h-11.8v11.8c-1.2-1.6-3.1-2.6-5.2-2.6-3.6,0-6.6,2.9-6.6,6.6s2.9,6.6,6.6,6.6,4-1,5.2-2.6v11.8h31.9v-11.3c1.2,1.3,2.9,2.1,4.8,2.1,3.6,0,6.6-2.9,6.6-6.6s-2.9-6.6-6.6-6.6Z" fill="none" stroke="#ff5000" stroke-linecap="round" stroke-linejoin="round" stroke-width="3"></path><g><polyline points="26.1 37.8 29.7 41.5 39.1 29.7" fill="none" stroke="#ff5000" stroke-linecap="round" stroke-linejoin="round" stroke-width="4"></polyline><polyline points="26.1 56.2 29.7 59.9 39.1 48.1" fill="none" stroke="#ff5000" stroke-linecap="round" stroke-linejoin="round" stroke-width="4"></polyline><polyline points="26.1 74.6 29.7 78.3 39.1 66.5" fill="none" stroke="#ff5000" stroke-linecap="round" stroke-linejoin="round" stroke-width="4"></polyline></g></svg> 