<?xml version="1.0" encoding="UTF-8"?> <svg xmlns="http://www.w3.org/2000/svg" id="Layer_1" data-name="Layer 1" version="1.1" viewBox="0 0 108 108"><circle cx="54" cy="90" r="5.3" fill="none" stroke="#ff5000" stroke-linecap="round" stroke-linejoin="round" stroke-width="4"></circle><circle cx="27" cy="81" r="5.3" fill="none" stroke="#ff5000" stroke-linecap="round" stroke-linejoin="round" stroke-width="4"></circle><circle cx="81" cy="81" r="5.3" fill="none" stroke="#ff5000" stroke-linecap="round" stroke-linejoin="round" stroke-width="4"></circle><g><ellipse cx="54" cy="24.2" rx="23.1" ry="6.2" fill="none" stroke="#ff5000" stroke-linecap="round" stroke-linejoin="round" stroke-width="4"></ellipse><path d="M77.1,51.9c0,3.4-10.3,6.2-23.1,6.2s-23.1-2.8-23.1-6.2" fill="none" stroke="#ff5000" stroke-linecap="round" stroke-linejoin="round" stroke-width="4"></path><path d="M77.1,38.1c0,3.4-10.3,6.2-23.1,6.2s-23.1-2.8-23.1-6.2" fill="none" stroke="#ff5000" stroke-linecap="round" stroke-linejoin="round" stroke-width="4"></path><path d="M77.1,24.2v41.6c0,3.4-10.3,6.2-23.1,6.2s-23.1-2.8-23.1-6.2V24.2" fill="none" stroke="#ff5000" stroke-linecap="round" stroke-linejoin="round" stroke-width="4"></path></g><line x1="54" y1="72" x2="54" y2="84.7" fill="none" stroke="#ff5000" stroke-linecap="round" stroke-linejoin="round" stroke-width="4"></line><polyline points="32.3 81 42.2 81 42.2 72" fill="none" stroke="#ff5000" stroke-linecap="round" stroke-linejoin="round" stroke-width="4"></polyline><polyline points="75.7 81 65.8 81 65.8 72" fill="none" stroke="#ff5000" stroke-linecap="round" stroke-linejoin="round" stroke-width="4"></polyline></svg> 