<?xml version="1.0" encoding="UTF-8"?> <svg xmlns="http://www.w3.org/2000/svg" id="Layer_1" data-name="Layer 1" version="1.1" viewBox="0 0 108 108"><path d="M48.2,79.3h16.6s13.3,10.4,13.3,10.4v-10.4c0,0,4.5,0,4.5,0,4.1,0,7.4-3.3,7.4-7.4v-19c0-4.1-3.3-7.4-7.4-7.4h-34.4c-4.1,0-7.4,3.3-7.4,7.4v19c0,4.1,3.3,7.4,7.4,7.4Z" fill="none" stroke="#ff5000" stroke-linecap="round" stroke-linejoin="round" stroke-width="4"></path><path d="M40.2,61.5l-10.3,8.1v-10.4c0,0-4.5,0-4.5,0-4.1,0-7.4-3.3-7.4-7.4v-19c0-4.1,3.3-7.4,7.4-7.4h34.4c4.1,0,7.4,3.3,7.4,7.4v11.6" fill="none" stroke="#ff5000" stroke-linecap="round" stroke-linejoin="round" stroke-width="4"></path></svg> 