<?xml version="1.0" encoding="UTF-8"?> <svg xmlns="http://www.w3.org/2000/svg" id="Layer_1" data-name="Layer 1" version="1.1" viewBox="0 0 108 108"><rect x="18" y="36.6" width="11.9" height="24.7" transform="translate(22.7 -5.5) rotate(24.8)" fill="none" stroke="#ff5000" stroke-linecap="round" stroke-linejoin="round" stroke-width="4"></rect><rect x="80.8" y="36.5" width="11.9" height="24.7" transform="translate(-11.5 33) rotate(-20.2)" fill="none" stroke="#ff5000" stroke-linecap="round" stroke-linejoin="round" stroke-width="4"></rect><path d="M34.5,40.2l19.9-7.3,22.6,6.4-17.4.8-14.4,13.3c-1,.9-1.6,2.3-1.4,3.7h0c.1,1.8,1.4,3.4,3.1,4l3.2,1c5,1.6,10.4.2,14.1-3.5l2.1-2.1,14.3,11.3" fill="none" stroke="#ff5000" stroke-linecap="round" stroke-linejoin="round" stroke-width="4"></path><path d="M85.4,62.4l-18.2,19.3-19.3-4c-2.8-.6-5.4-1.7-7.7-3.4l-16.1-11.8" fill="none" stroke="#ff5000" stroke-linecap="round" stroke-linejoin="round" stroke-width="4"></path></svg> 