<svg xmlns="http://www.w3.org/2000/svg" fill="none" viewBox="0 0 1200 308" height="308" width="1200">
<path fill="black" d="M610.5 218.6L514.9 1.29961H400V306.4H475.8V88.1996L570.7 306.4H647.4L743 88.9996V306.4H818.8V0.599609H704.6L610.5 218.6Z"></path>
<path fill="black" d="M1199.2 96.8996C1199.2 33.8996 1146.3 0.599609 1102.9 0.599609H870.7V306.3H945.7V206.2H1029.7L1100.7 306.3H1191.2L1120.2 205.5C1171.6 191.7 1199.1 159.9 1199.1 96.8996H1199.2ZM1084.1 136H945.8V70.7996H1084.1C1108.7 70.7996 1124.7 85.2996 1124.7 99.7996C1124.7 114.3 1120.4 136 1084.1 136Z"></path>
<path fill="black" d="M238.1 0.799805H129.2C53.9998 0.799805 0.799805 57.8998 0.799805 120.1V177.4C0.799805 257 58.6998 307.1 127.7 307.1H236.3C295.9 307.1 362.5 259.9 362.5 179.4C362.5 98.8998 362.5 188.6 362.5 131.1C362.5 73.5998 306.7 0.799805 238.1 0.799805ZM286.8 177.3C286.8 215 260.1 236.7 230.7 236.7H131.6C103.1 236.7 75.8998 213.9 75.8998 177.3V125.2C75.8998 96.6998 99.3998 70.8998 128 70.8998H231.7C261.4 70.8998 286.7 95.5998 286.7 125.2V177.3H286.8Z"></path>
</svg>
