<svg width="901" height="304" viewBox="0 0 901 304" fill="none" xmlns="http://www.w3.org/2000/svg">
<path d="M291.199 298.061C304.575 265.329 318.712 232.569 325.835 197.689C331.422 170.326 340.788 105.976 296.107 109.673C293.089 109.918 281.263 112.079 280.447 114.431C285.477 171.889 273.814 261.074 218.286 292.366C175.888 316.263 126.871 294.663 117.764 246.815C104.782 178.645 178.892 120.847 227.135 85.5859C204.978 15.214 156.07 59.0112 128.502 96.8547C86.4723 154.558 62.2628 228.315 49.4988 298.048H0.617676C5.3753 264.024 14.007 229.47 25.0311 196.955C48.2075 128.649 116.078 -15.2756 205.984 1.32171C239.899 7.58818 260.166 35.3183 272.142 65.5088C303.148 56.6596 337.267 62.1513 358.309 87.8968C391.205 128.16 378.4 193.584 364.902 239.407C359.084 259.158 351.716 279.982 342.133 298.061H291.213H291.199ZM168.113 252.823C185.743 268.781 207.941 245.469 216.26 230.653C232.531 201.658 234.421 163.584 238.24 131.218C210.728 152.845 162.173 193.271 160.773 230.911C160.528 237.571 163.138 248.31 168.127 252.823H168.113Z" fill="#335C30"/>
<path d="M763.055 222.089C762.511 222.089 761.804 219.425 759.697 222.755C776.186 266.376 831.905 268.061 863.536 239.746L887.161 275.483C871.801 289.525 848.774 299.108 828.071 301.976C754.953 312.117 695.891 249.982 714.16 177.313C741.496 68.5537 901.325 88.495 900.999 205.138C900.999 207.898 899.15 222.089 897.492 222.089C852.702 221.45 807.845 222.945 763.069 222.089H763.055ZM851.995 186.828C846.232 136.764 765.95 136.139 759.657 186.828H851.995Z" fill="#335C30"/>
<path d="M476.95 105.826C605.65 93.3068 628.324 276.108 511.449 300.372C369.305 329.883 341.018 119.052 476.95 105.826ZM481.001 150.575C421.666 157.453 423.61 249.384 476.896 257.01C560.942 269.04 557.721 141.685 481.001 150.575Z" fill="#335C30"/>
<path d="M642.898 135.269C659.672 115.042 675.209 102.958 703.157 105.595C706.745 105.935 726.7 109.822 726.904 112.867L710.714 154.218C691.208 147.883 670.642 148.414 655.077 163.053C653.501 164.535 645.603 174.268 645.603 175.287V298.061H598.081V111.535L600.12 109.496H640.859L642.898 111.535V135.269Z" fill="#335C30"/>
</svg>
