<svg width="24" height="24" viewBox="0 0 24 24" fill="none" xmlns="http://www.w3.org/2000/svg">
<path d="M21.94 7.88C21.9206 7.0503 21.7652 6.2294 21.48 5.45C21.2283 4.78181 20.8322 4.17742 20.32 3.68C19.8226 3.16776 19.2182 2.77166 18.55 2.52C17.7706 2.23484 16.9497 2.07945 16.12 2.06C15.06 2 14.72 2 12 2C9.28 2 8.94 2 7.88 2.06C7.0503 2.07945 6.2294 2.23484 5.45 2.52C4.78181 2.77166 4.17742 3.16776 3.68 3.68C3.16743 4.17518 2.77418 4.78044 2.53 5.45C2.23616 6.22734 2.07721 7.04915 2.06 7.88C2 8.94 2 9.28 2 12C2 14.72 2 15.06 2.06 16.12C2.07721 16.9508 2.23616 17.7727 2.53 18.55C2.77418 19.2196 3.16743 19.8248 3.68 20.32C4.17742 20.8322 4.78181 21.2283 5.45 21.48C6.2294 21.7652 7.0503 21.9206 7.88 21.94C8.94 22 9.28 22 12 22C14.72 22 15.06 22 16.12 21.94C16.9497 21.9206 17.7706 21.7652 18.55 21.48C19.2134 21.219 19.816 20.8242 20.3201 20.3201C20.8242 19.816 21.219 19.2134 21.48 18.55C21.7652 17.7706 21.9206 16.9497 21.94 16.12C21.94 15.06 22 14.72 22 12C22 9.28 22 8.94 21.94 7.88ZM20.14 16C20.1327 16.6348 20.0178 17.2637 19.8 17.86C19.6327 18.2913 19.3773 18.683 19.0501 19.0101C18.723 19.3373 18.3313 19.5927 17.9 19.76C17.3037 19.9778 16.6748 20.0927 16.04 20.1C15.04 20.15 14.67 20.16 12.04 20.16C9.41 20.16 9.04 20.16 8.04 20.1C7.38073 20.1148 6.72401 20.0132 6.1 19.8C5.66869 19.6327 5.27698 19.3773 4.94985 19.0501C4.62272 18.723 4.36734 18.3313 4.2 17.9C3.97775 17.2911 3.86271 16.6482 3.86 16C3.86 15 3.8 14.63 3.8 12C3.8 9.37 3.8 9 3.86 8C3.86271 7.35178 3.97775 6.70893 4.2 6.1C4.36734 5.66869 4.62272 5.27698 4.94985 4.94985C5.27698 4.62272 5.66869 4.36734 6.1 4.2C6.70893 3.97775 7.35178 3.86271 8 3.86C9 3.86 9.37 3.8 12 3.8C14.63 3.8 15 3.8 16 3.86C16.6348 3.86728 17.2637 3.98225 17.86 4.2C18.2913 4.36734 18.683 4.62272 19.0101 4.94985C19.3373 5.27698 19.5927 5.66869 19.76 6.1C19.9959 6.7065 20.1245 7.34942 20.14 8C20.19 9 20.2 9.37 20.2 12C20.2 14.63 20.19 15 20.14 16Z" fill="#335C30"/>
<path d="M11.9999 6.85999C10.9833 6.85999 9.98951 7.16145 9.14424 7.72624C8.29897 8.29103 7.64016 9.09379 7.25113 10.033C6.86209 10.9722 6.76031 12.0057 6.95863 13.0028C7.15696 13.9998 7.6465 14.9157 8.36534 15.6345C9.08418 16.3534 10.0001 16.8429 10.9971 17.0412C11.9942 17.2396 13.0277 17.1378 13.9669 16.7487C14.9061 16.3597 15.7089 15.7009 16.2737 14.8556C16.8384 14.0104 17.1399 13.0166 17.1399 12C17.1399 10.6368 16.5984 9.3294 15.6344 8.36546C14.6705 7.40152 13.3631 6.85999 11.9999 6.85999ZM11.9999 15.33C11.3413 15.33 10.6975 15.1347 10.1499 14.7688C9.60221 14.4029 9.17539 13.8828 8.92335 13.2743C8.67131 12.6659 8.60537 11.9963 8.73386 11.3503C8.86234 10.7044 9.1795 10.111 9.6452 9.64532C10.1109 9.17962 10.7043 8.86245 11.3502 8.73397C11.9962 8.60548 12.6658 8.67143 13.2742 8.92347C13.8827 9.17551 14.4028 9.60232 14.7687 10.15C15.1346 10.6976 15.3299 11.3414 15.3299 12C15.3299 12.4373 15.2438 12.8703 15.0764 13.2743C14.9091 13.6784 14.6638 14.0454 14.3546 14.3547C14.0453 14.6639 13.6783 14.9092 13.2742 15.0765C12.8702 15.2439 12.4372 15.33 11.9999 15.33Z" fill="#335C30"/>
<path d="M17.3401 5.46002C17.1028 5.46002 16.8708 5.5304 16.6734 5.66225C16.4761 5.79411 16.3223 5.98153 16.2314 6.2008C16.1406 6.42007 16.1169 6.66135 16.1632 6.89412C16.2095 7.1269 16.3237 7.34072 16.4916 7.50854C16.6594 7.67637 16.8732 7.79066 17.106 7.83696C17.3388 7.88326 17.58 7.8595 17.7993 7.76867C18.0186 7.67785 18.206 7.52404 18.3379 7.3267C18.4697 7.12936 18.5401 6.89735 18.5401 6.66002C18.5401 6.34176 18.4137 6.03653 18.1886 5.81149C17.9636 5.58644 17.6584 5.46002 17.3401 5.46002Z" fill="#335C30"/>
</svg>
