<svg width="152" height="42" viewBox="0 0 152 42" fill="none" xmlns="http://www.w3.org/2000/svg">
<g clip-path="url(#clip0_39_3517)">
<path d="M1.54786 20.2182C-1.92153 20.0702 1.45575 19.3434 4.52289 18.8527C13.8919 17.359 30.2297 15.4078 40.2117 14.207C45.5171 13.5683 75.0938 10.2391 76.8573 10.2065C85.995 10.0509 80.4406 18.1346 78.197 20.5419C91.5622 20.3037 106.56 15.2437 119.997 14.9032C133.498 14.5593 124.76 19.7682 127.676 21.8937C133.909 21.8354 141.915 21.1651 147.902 21.1827C150.352 21.1885 153.627 20.8276 149.635 22.0701L124.189 22.429C120.255 21.1605 125.361 18.823 124.565 17.2849C122 12.4438 84.6565 22.7275 77.153 21.1965C72.0566 20.162 83.0695 12.6201 76.4848 11.1122C76.1131 11.0379 72.0291 11.0773 71.673 11.1235L1.54723 20.2134L1.54786 20.2182Z" fill="white"/>
</g>
<defs>
<clipPath id="clip0_39_3517">
<rect width="150" height="22" fill="white" transform="translate(0 19.2822) rotate(-7.38565)"/>
</clipPath>
</defs>
</svg>
