<svg width="89" height="89" viewBox="0 0 89 89" fill="none" xmlns="http://www.w3.org/2000/svg">
<circle cx="44.5" cy="44.5" r="44.5" fill="white"/>
<path d="M80 44.5C80 24.8939 64.1061 9 44.5 9C24.8939 9 9 24.8939 9 44.5C9 64.1061 24.8939 80 44.5 80V82C23.7893 82 7 65.2107 7 44.5C7 23.7893 23.7893 7 44.5 7C65.2107 7 82 23.7893 82 44.5C82 65.2107 65.2107 82 44.5 82V80C64.1061 80 80 64.1061 80 44.5Z" fill="#90B96C"/>
<path d="M68.9531 46.8008C67.9111 50.1004 65.4344 54.9954 61.3574 59.0811C57.2645 63.1826 51.5227 66.5 44 66.5C36.4704 66.5 30.9662 63.1765 27.1758 59.0518C23.4062 54.9496 21.3108 50.0383 20.5273 46.7305L22.4727 46.2695C23.1892 49.2949 25.1433 53.8838 28.6484 57.6982C32.1331 61.4902 37.1296 64.5 44 64.5C50.8772 64.5 56.1353 61.484 59.9424 57.6689C63.7653 53.838 66.0888 49.2329 67.0469 46.1992L68.9531 46.8008Z" fill="#90B96C"/>
<path d="M29.5 28.5C31.8969 28.5 33.5133 29.7233 34.5127 31.1855C35.4867 32.611 35.9021 34.2885 35.9961 35.417L34.0039 35.583C33.9313 34.7116 33.5964 33.389 32.8623 32.3145C32.1533 31.2769 31.1029 30.5 29.5 30.5C27.8971 30.5 26.8467 31.2769 26.1377 32.3145C25.4036 33.389 25.0687 34.7116 24.9961 35.583L23.0039 35.417C23.0979 34.2885 23.5133 32.611 24.4873 31.1855C25.4867 29.7233 27.1031 28.5 29.5 28.5Z" fill="#90B96C"/>
<path d="M59.5 28.5C61.8969 28.5 63.5133 29.7233 64.5127 31.1855C65.4867 32.611 65.9021 34.2885 65.9961 35.417L64.0039 35.583C63.9313 34.7116 63.5964 33.389 62.8623 32.3145C62.1533 31.2769 61.1029 30.5 59.5 30.5C57.8971 30.5 56.8467 31.2769 56.1377 32.3145C55.4036 33.389 55.0687 34.7116 54.9961 35.583L53.0039 35.417C53.0979 34.2885 53.5133 32.611 54.4873 31.1855C55.4867 29.7233 57.1031 28.5 59.5 28.5Z" fill="#90B96C"/>
<path d="M55.5 49C55.5 47.9861 55.826 46.5044 56.8164 45.2539C57.842 43.9592 59.5126 43 62 43C66.6832 43 68.7096 45.1758 68.9863 46.8359L67.0137 47.1641C66.9566 46.8234 66.1155 45 62 45C60.0876 45 59.0083 45.7076 58.3838 46.4961C57.7243 47.3289 57.5 48.3473 57.5 49V61.5H55.5V49Z" fill="#90B96C"/>
</svg>
