<svg width="57" height="70" viewBox="0 0 57 70" fill="none" xmlns="http://www.w3.org/2000/svg">
<g clip-path="url(#clip0_39_5166)">
<path d="M45.1404 10.2371H17.3446C16.246 10.2371 15.3516 9.34264 15.3516 8.24403V6.05653C15.3516 4.95792 16.246 4.06348 17.3446 4.06348H45.1404C46.2391 4.06348 47.1335 4.95792 47.1335 6.05653V8.24403C47.1238 9.34264 46.2391 10.2371 45.1404 10.2371ZM17.3446 4.76348C16.6349 4.76348 16.0516 5.34681 16.0516 6.05653V8.24403C16.0516 8.95375 16.6349 9.53709 17.3446 9.53709H45.1404C45.8502 9.53709 46.4335 8.95375 46.4335 8.24403V6.05653C46.4335 5.34681 45.8502 4.76348 45.1404 4.76348H17.3446Z" fill="#90B96C" stroke="#90B96C" stroke-width="0.65" stroke-miterlimit="10"/>
<path d="M34.0375 44.2068H2.32362C1.22501 44.2068 0.330566 43.3124 0.330566 42.2138V40.0263C0.330566 38.9276 1.22501 38.0332 2.32362 38.0332H34.0375C35.1361 38.0332 36.0306 38.9276 36.0306 40.0263V42.2138C36.0208 43.3124 35.1264 44.2068 34.0375 44.2068ZM2.32362 38.7332C1.6139 38.7332 1.03057 39.3165 1.03057 40.0263V42.2138C1.03057 42.9235 1.6139 43.5068 2.32362 43.5068H34.0375C34.7472 43.5068 35.3306 42.9235 35.3306 42.2138V40.0263C35.3306 39.3165 34.7472 38.7332 34.0375 38.7332H2.32362Z" fill="#90B96C" stroke="#90B96C" stroke-width="0.65" stroke-miterlimit="10"/>
<path d="M53.7345 65.9258H46.0443C44.7707 65.9258 43.7304 64.8856 43.7304 63.6119L43.8373 61.8619C43.954 59.8494 43.9929 57.8175 43.954 55.805L43.6234 45.655C43.5457 43.7689 44.3332 41.7564 45.7332 40.2981C46.9582 39.0147 48.4651 38.3147 49.9818 38.3147C50.2345 38.2953 53.1026 38.1981 55.047 41.0953C55.2804 41.4453 55.0762 41.7369 54.9595 41.9217C54.7943 42.1647 54.5998 42.4661 54.8137 43.2342C54.9012 43.5453 55.0859 44.0119 55.2804 44.4981C55.6207 45.3536 55.9415 46.1508 55.9415 46.6175L55.6109 54.7356C55.4845 57.4772 55.6012 60.2383 55.9609 62.9606L56.0484 63.6119C56.0582 64.8953 55.0179 65.9258 53.7345 65.9258ZM50.147 39.005C50.0693 39.005 50.0304 39.005 50.0109 39.005H49.9818C48.679 39.005 47.3082 39.6467 46.229 40.7744C44.9554 42.1064 44.2359 43.9147 44.304 45.6258L44.6345 55.7856C44.6734 57.8175 44.6345 59.8786 44.5179 61.9008L44.4109 63.6314C44.4109 64.5064 45.1401 65.2258 46.0345 65.2258H53.7248C54.6095 65.2258 55.329 64.5161 55.3484 63.6314L55.2707 63.0481C54.9012 60.2869 54.7845 57.4869 54.9109 54.7064L55.2318 46.5981C55.2318 46.2772 54.8915 45.4314 54.6193 44.7508C54.4151 44.2453 54.2207 43.7592 54.1234 43.4092C53.822 42.33 54.1623 41.8244 54.3665 41.5231C54.3859 41.4939 54.4054 41.4647 54.4248 41.4356C52.8887 39.1508 50.7109 39.005 50.147 39.005Z" fill="#90B96C" stroke="#90B96C" stroke-width="0.65" stroke-miterlimit="10"/>
<path d="M34.0375 65.9263H2.32362C1.22501 65.9263 0.330566 65.0319 0.330566 63.9333V45.5097C0.330566 44.411 1.22501 43.5166 2.32362 43.5166H34.0375C35.1361 43.5166 36.0306 44.411 36.0306 45.5097V63.943C36.0208 65.0416 35.1264 65.9263 34.0375 65.9263ZM2.32362 44.2166C1.6139 44.2166 1.03057 44.7999 1.03057 45.5097V63.943C1.03057 64.6527 1.6139 65.236 2.32362 65.236H34.0375C34.7472 65.236 35.3306 64.6527 35.3306 63.943V45.5097C35.3306 44.7999 34.7472 44.2166 34.0375 44.2166H2.32362Z" fill="#90B96C" stroke="#90B96C" stroke-width="0.65" stroke-miterlimit="10"/>
<path d="M41.1252 31.2767C41.1349 33.435 42.8655 35.1364 45.1016 35.1169C46.8905 35.1072 48.0474 34.0475 48.0474 34.0475L47.1043 32.6572C47.1043 32.6572 46.3752 33.4058 45.0918 33.4156C43.9252 33.4253 43.1668 32.5892 43.021 31.9378L48.5141 31.9086C48.5238 31.6267 48.5238 31.3544 48.5238 31.2086C48.5141 28.9433 46.8127 27.3878 44.7905 27.3975C42.671 27.4072 41.1057 29.1183 41.1252 31.2767ZM44.8002 29.0892C46.0252 29.0795 46.6182 29.935 46.6571 30.567L43.0113 30.5864C43.0696 29.935 43.6043 29.0892 44.8002 29.0892Z" fill="#90B96C"/>
<path d="M36.2833 31.3053C36.2736 29.1372 34.5236 27.4456 32.3361 27.465C30.1486 27.4747 28.4181 29.1761 28.4278 31.3539C28.4375 33.5122 30.1875 35.2136 32.375 35.1942C34.5625 35.1747 36.2931 33.4539 36.2833 31.3053ZM32.3653 33.4442C31.1111 33.4539 30.3236 32.4817 30.3236 31.3247C30.3139 30.1775 31.0917 29.1956 32.3458 29.1858C33.6 29.1761 34.3875 30.1483 34.3875 31.3053C34.3972 32.4622 33.6194 33.4442 32.3653 33.4442Z" fill="#90B96C"/>
<path d="M38.5584 34.9705L38.5292 30.158C38.5292 30.158 39.0348 29.1663 40.1723 29.1566C40.7167 29.1566 41.057 29.3219 41.057 29.3219L41.6987 27.6399C41.6987 27.6399 41.0959 27.4066 40.4251 27.4163C39.0639 27.426 38.432 28.6802 38.432 28.6802L38.4223 27.6108L36.6528 27.6205L36.6917 34.9802L38.5584 34.9705Z" fill="#90B96C"/>
<path d="M24.5972 25.7831C24.3444 25.8123 24.0917 25.8609 23.8292 25.9387C23.5861 25.2192 23.2069 24.5873 22.6625 24.1206C22.468 23.9456 21.6708 23.2748 20.4264 23.3915C19.0944 23.5179 17.7917 24.4804 16.5667 26.279C14.5639 29.2151 13.65 32.5304 13.2319 35.1067L15.1375 35.097C15.5458 32.7734 16.3819 29.8567 18.1028 27.329C18.9583 26.0748 19.8236 25.3456 20.5528 25.2581C21.0097 25.2095 21.3014 25.4234 21.3597 25.4817L21.4083 25.5304C21.7292 25.8026 21.9528 26.2304 22.1083 26.7554C20.7375 27.6304 19.1722 29.0887 18.4236 30.304C17.6069 31.6262 17.5972 33.0262 18.2194 34.0567C18.6861 34.8248 19.6194 35.272 20.4944 35.2234C21.7389 35.1554 22.8569 34.2317 23.4889 32.7831C24.0528 31.4901 24.325 29.779 24.1694 27.8054C24.3833 27.7276 24.5875 27.679 24.7819 27.6595C25.3167 27.6012 25.5694 27.7859 25.7153 27.9415C26.9208 29.1762 25.5111 33.2206 24.6167 35.0581L26.668 35.0484C26.9403 34.4067 27.3 33.4929 27.5819 32.472C28.3403 29.7401 28.1555 27.7762 27.0472 26.6387C26.4347 25.9679 25.5694 25.6762 24.5972 25.7831ZM21.875 32.054C21.35 33.2984 20.5528 33.6776 19.9986 33.4248C19.4542 33.172 19.2597 32.2873 19.9792 31.0915C20.543 30.1581 21.6903 29.1665 22.5361 28.4567C22.4875 29.6429 22.293 31.0817 21.875 32.054Z" fill="#90B96C"/>
<path d="M24.7232 51.6536C24.7329 53.0828 25.8704 54.2008 27.3482 54.1911C28.5246 54.1814 29.2927 53.4814 29.2927 53.4814L28.6704 52.5578C28.6704 52.5578 28.194 53.0536 27.3385 53.0536C26.5704 53.0536 26.0649 52.5092 25.9677 52.0717L29.594 52.0522C29.6038 51.8675 29.6038 51.6828 29.6038 51.5953C29.594 50.098 28.476 49.0675 27.1343 49.0772C25.744 49.0967 24.7135 50.2244 24.7232 51.6536ZM27.1538 50.205C27.9607 50.205 28.3593 50.7592 28.3788 51.1869L25.9677 51.1967C26.0163 50.7592 26.3663 50.205 27.1538 50.205Z" fill="#90B96C"/>
<path d="M21.5247 51.6635C21.515 50.2247 20.358 49.1163 18.9191 49.126C17.4705 49.1358 16.333 50.2538 16.333 51.6927C16.3427 53.1219 17.4997 54.2399 18.9386 54.2302C20.3872 54.2302 21.5344 53.0927 21.5247 51.6635ZM18.9386 53.083C18.1122 53.083 17.5872 52.4413 17.5872 51.683C17.5872 50.9247 18.0927 50.2733 18.9191 50.2733C19.7455 50.2733 20.2705 50.9149 20.2705 51.6733C20.2802 52.4316 19.765 53.083 18.9386 53.083Z" fill="#90B96C"/>
<path d="M23.032 54.0944L23.0125 50.9152C23.0125 50.9152 23.3431 50.2541 24.0917 50.2541C24.4514 50.2541 24.675 50.3611 24.675 50.3611L25.1028 49.2527C25.1028 49.2527 24.7042 49.0972 24.257 49.1069C23.3528 49.1069 22.9347 49.943 22.9347 49.943V49.2333L21.7681 49.243L21.7972 54.1041L23.032 54.0944Z" fill="#90B96C"/>
<path d="M13.7956 48.0274C13.6304 48.0469 13.4651 48.0857 13.2901 48.1344C13.1248 47.658 12.872 47.2399 12.522 46.9288C12.3956 46.8121 11.8609 46.3746 11.0442 46.4427C10.1595 46.5205 9.30397 47.1621 8.49703 48.3482C7.1748 50.283 6.57203 52.4802 6.2998 54.1816L7.56369 54.1719C7.83592 52.6357 8.39008 50.7107 9.52758 49.0385C10.0915 48.2121 10.6651 47.726 11.1415 47.6677C11.4429 47.6288 11.6373 47.7844 11.6762 47.8135L11.7151 47.8427C11.929 48.0274 12.0748 48.3094 12.172 48.6496C11.2679 49.2232 10.2276 50.1955 9.73175 51.0024C9.19703 51.8774 9.1873 52.801 9.59564 53.4816C9.90675 53.9871 10.5192 54.2885 11.0929 54.2496C11.9192 54.201 12.6581 53.5982 13.0762 52.6357C13.4456 51.7802 13.6304 50.6524 13.5234 49.3399C13.6692 49.2913 13.8054 49.2524 13.9317 49.2427C14.2817 49.2038 14.4567 49.3302 14.5442 49.4274C15.3415 50.2441 14.4081 52.9177 13.8248 54.133L15.1762 54.1232C15.3609 53.6955 15.5942 53.0927 15.779 52.4219C16.2748 50.6135 16.1581 49.3205 15.429 48.5621C15.0109 48.1441 14.447 47.9496 13.7956 48.0274ZM12.0067 52.1691C11.6567 52.9857 11.1317 53.2385 10.772 53.0732C10.4123 52.908 10.2859 52.3246 10.7623 51.5274C11.1317 50.9052 11.8901 50.2538 12.454 49.7871C12.4054 50.5746 12.279 51.5177 12.0067 52.1691Z" fill="#90B96C"/>
<path d="M52.5874 51.4601C52.5874 52.0531 53.0638 52.5101 53.6763 52.5101C54.1624 52.5101 54.4832 52.2184 54.4832 52.2184L54.2305 51.8392C54.2305 51.8392 54.036 52.0434 53.686 52.0434C53.3652 52.0434 53.161 51.8198 53.1221 51.6351L54.6193 51.6253C54.6193 51.5476 54.6193 51.4698 54.6193 51.4309C54.6193 50.8087 54.1527 50.3906 53.5985 50.3906C53.0152 50.4003 52.5874 50.867 52.5874 51.4601ZM53.5888 50.8573C53.9193 50.8573 54.0846 51.0906 54.0943 51.2656L53.1027 51.2753C53.1221 51.0906 53.268 50.8573 53.5888 50.8573Z" fill="#90B96C"/>
<path d="M51.2653 51.4592C51.2653 50.8661 50.7889 50.4092 50.1861 50.4092C49.5931 50.4092 49.1167 50.8758 49.1167 51.4689C49.1167 52.062 49.5931 52.5189 50.1959 52.5189C50.7986 52.5189 51.275 52.0522 51.2653 51.4592ZM50.2056 52.0425C49.8653 52.0425 49.6514 51.78 49.6514 51.4689C49.6514 51.1578 49.8556 50.8856 50.2056 50.8856C50.5459 50.8856 50.7598 51.1481 50.7598 51.4592C50.75 51.78 50.5459 52.0425 50.2056 52.0425Z" fill="#90B96C"/>
<path d="M51.8878 52.4606L51.8781 51.1481C51.8781 51.1481 52.0142 50.8758 52.3253 50.8758C52.4711 50.8758 52.5683 50.9245 52.5683 50.9245L52.7433 50.4675C52.7433 50.4675 52.5781 50.4092 52.3933 50.4092C52.0239 50.4092 51.8489 50.7592 51.8489 50.7592V50.4675H51.3628L51.3725 52.4703L51.8878 52.4606Z" fill="#90B96C"/>
<path d="M48.0765 49.9624C48.0085 49.9721 47.9404 49.9818 47.8724 50.0013C47.8043 49.8068 47.6974 49.6318 47.5515 49.5054C47.5029 49.4568 47.2793 49.2721 46.939 49.311C46.5696 49.3402 46.2196 49.6124 45.889 50.0985C45.3446 50.8957 45.0918 51.7999 44.9849 52.5096H45.5001C45.6071 51.8777 45.8404 51.0804 46.3071 50.3902C46.5404 50.0499 46.7738 49.8457 46.9779 49.8263C47.1043 49.8166 47.1821 49.8749 47.2015 49.8846L47.2113 49.8943C47.2988 49.9721 47.3571 50.0888 47.4057 50.2249C47.0362 50.4582 46.6085 50.8568 46.4043 51.1971C46.1807 51.5568 46.1807 51.9457 46.346 52.2179C46.4724 52.4318 46.7251 52.5485 46.9682 52.5388C47.3085 52.5193 47.6099 52.2666 47.7849 51.8679C47.9404 51.5179 48.0085 51.0513 47.9696 50.5068C48.0279 50.4874 48.0862 50.4679 48.1349 50.4679C48.2807 50.4485 48.3488 50.5068 48.3876 50.5457C48.7182 50.886 48.3293 51.9846 48.0863 52.4902H48.6404C48.7182 52.3152 48.8154 52.0624 48.8932 51.7902C49.0974 51.0416 49.0488 50.5068 48.7474 50.1957C48.5821 50.0013 48.3488 49.9235 48.0765 49.9624ZM47.3376 51.6638C47.1918 52.0041 46.9779 52.111 46.8224 52.0429C46.6765 51.9749 46.6182 51.7318 46.8224 51.4013C46.9779 51.1485 47.289 50.8763 47.5224 50.6818C47.5029 51.0124 47.4543 51.4013 47.3376 51.6638Z" fill="#90B96C"/>
<path d="M46.122 12.6095H16.3623V9.58594H46.122V12.6095ZM17.0623 11.9095H45.422V10.2859H17.0623V11.9095Z" fill="#90B96C" stroke="#90B96C" stroke-width="0.65" stroke-miterlimit="10"/>
<path d="M51.1874 21.3301V38.7815C51.411 38.8301 51.654 38.8982 51.9068 38.9954V19.1038C51.9068 15.1468 48.6887 11.9385 44.7415 11.9385H17.7429C13.786 11.9385 10.5776 15.1565 10.5776 19.1038V38.3829H11.2874V21.3301C11.2874 20.8343 11.686 20.4357 12.1818 20.4357H50.3026C50.779 20.4357 51.1874 20.8343 51.1874 21.3301ZM11.2679 20.0274V19.1135C11.2679 15.5454 14.1749 12.6385 17.7429 12.6385H44.7415C48.3096 12.6385 51.2165 15.5454 51.2165 19.1135V20.0468C50.954 19.8621 50.6429 19.7551 50.3026 19.7551H12.1721C11.8415 19.7357 11.5304 19.8426 11.2679 20.0274Z" fill="#90B96C" stroke="#90B96C" stroke-width="0.65" stroke-miterlimit="10"/>
<path d="M35.6709 54.823H44.2653L44.2459 54.123H35.6709V54.823Z" fill="#90B96C" stroke="#90B96C" stroke-width="0.65" stroke-miterlimit="10"/>
<path d="M44.2653 59.9951H35.6709V60.6951H44.2362C44.2459 60.4618 44.2556 60.2285 44.2653 59.9951Z" fill="#90B96C" stroke="#90B96C" stroke-width="0.65" stroke-miterlimit="10"/>
<path d="M54.1821 42.9236H48.6308C48.4363 42.9236 48.2808 42.7681 48.2808 42.5736C48.2808 42.3792 48.4363 42.2236 48.6308 42.2236H54.1821C54.3766 42.2236 54.5322 42.3792 54.5322 42.5736C54.5322 42.7681 54.3669 42.9236 54.1821 42.9236Z" fill="#90B96C"/>
<path d="M55.2514 46.948H44.1C43.9056 46.948 43.75 46.7925 43.75 46.598C43.75 46.4036 43.9056 46.248 44.1 46.248H55.2514C55.4458 46.248 55.6014 46.4036 55.6014 46.598C55.6014 46.7925 55.4458 46.948 55.2514 46.948Z" fill="#90B96C"/>
</g>
<defs>
<clipPath id="clip0_39_5166">
<rect width="56.3889" height="70" fill="white"/>
</clipPath>
</defs>
</svg>
