<svg width="58" height="49" viewBox="0 0 58 49" fill="none" xmlns="http://www.w3.org/2000/svg">
<path d="M57.3402 16.3195L18.9702 2.63949C18.8002 2.57949 18.6002 2.57949 18.4302 2.64949L17.8402 2.88949L17.5402 2.32949C17.4502 2.16949 17.3102 2.03949 17.1302 1.97949L14.4202 1.00949C14.0302 0.869486 13.6002 1.06949 13.4702 1.45949L11.8502 5.99949L9.14016 5.40949C8.74016 5.31949 8.34016 5.57949 8.25016 5.97949L7.44016 9.65949L5.03016 9.37949C4.62016 9.32948 4.25016 9.62949 4.20016 10.0395L3.71016 14.2595H0.910156C0.500156 14.2595 0.160156 14.5895 0.160156 15.0095V47.5595C0.160156 47.9695 0.490156 48.3095 0.910156 48.3095H45.3602L45.7502 48.3495L45.9002 48.3995C46.0302 48.4495 46.1702 48.4495 46.3002 48.4295L46.3502 48.4395C46.7502 48.5295 47.1502 48.2695 47.2402 47.8695L47.8102 45.2595L57.7902 17.2895C57.9302 16.8895 57.7302 16.4595 57.3402 16.3195ZM49.3902 15.9995L47.2302 34.7295V15.7495L49.3902 15.9995ZM48.8902 33.3895L50.8802 16.0995L52.6002 16.4795L48.8902 33.3895ZM14.6202 2.66949L16.3602 3.28949L16.8502 4.18949C17.0302 4.52949 17.4402 4.66949 17.7902 4.52949L18.7402 4.13949L43.3002 12.8995L13.8602 6.43949C13.6802 6.39949 13.4902 6.42949 13.3302 6.51949L13.2202 6.57949L14.6202 2.66949ZM11.3502 7.41949L11.9502 8.24949C12.1702 8.55949 12.5902 8.64949 12.9302 8.45949L13.8202 7.94949L37.1402 13.0695L9.83016 9.92949C9.65016 9.90949 9.46016 9.95949 9.31016 10.0595L8.80016 10.4295L9.55016 7.01949L11.3502 7.41949ZM7.44016 11.1595L8.12016 11.9295C8.37016 12.2195 8.80016 12.2695 9.11016 12.0395L9.95016 11.4395L34.2702 14.2395H5.75016C5.57016 14.2395 5.39016 14.3095 5.25016 14.4295L5.20016 14.4795L5.61016 10.9395L7.44016 11.1595ZM1.66016 46.7895V15.7495H3.51016L4.27016 16.4395C4.55016 16.6995 4.99016 16.6995 5.27016 16.4395L6.03016 15.7495H45.7302V46.8095L1.66016 46.7895ZM50.3502 33.6795L54.0702 16.7395L56.1302 17.4795L50.3502 33.6795Z" fill="#90B96C"/>
<path d="M32.52 24.8096C32.52 26.7896 34.1 28.3596 36.16 28.3596C37.8 28.3596 38.87 27.3896 38.87 27.3896L38.01 26.1096C38.01 26.1096 37.34 26.7996 36.15 26.7996C35.08 26.7996 34.38 26.0296 34.25 25.4296H39.3C39.31 25.1696 39.31 24.9196 39.31 24.7896C39.31 22.7096 37.75 21.2596 35.9 21.2696C33.96 21.2596 32.52 22.8296 32.52 24.8096ZM35.92 22.8096C37.05 22.8096 37.59 23.5896 37.62 24.1796H34.27C34.32 23.5896 34.82 22.8096 35.92 22.8096Z" fill="#90B96C"/>
<path d="M28.0701 24.8088C28.0701 22.8088 26.4701 21.2588 24.4601 21.2588C22.4501 21.2588 20.8501 22.8188 20.8501 24.8088C20.8501 26.7888 22.4501 28.3588 24.4601 28.3588C26.4701 28.3688 28.0701 26.7988 28.0701 24.8088ZM24.4601 26.7688C23.3001 26.7688 22.5901 25.8688 22.5901 24.8088C22.5901 23.7488 23.3001 22.8488 24.4601 22.8488C25.6201 22.8488 26.3301 23.7488 26.3301 24.8088C26.3301 25.8688 25.6101 26.7688 24.4601 26.7688Z" fill="#90B96C"/>
<path d="M30.1399 28.1993V23.7793C30.1399 23.7793 30.6099 22.8693 31.6499 22.8693C32.1499 22.8693 32.4599 23.0293 32.4599 23.0293L33.0599 21.4893C33.0599 21.4893 32.4999 21.2793 31.8899 21.2793C30.6299 21.2793 30.0499 22.4393 30.0499 22.4393V21.4593H28.4199V28.2193L30.1399 28.1993Z" fill="#90B96C"/>
<path d="M17.3401 19.689C17.1101 19.709 16.8701 19.759 16.6401 19.829C16.4201 19.169 16.0701 18.579 15.5801 18.149C15.4001 17.979 14.6701 17.369 13.5301 17.469C12.3001 17.579 11.1001 18.459 9.97012 20.099C8.12012 22.789 7.26012 25.839 6.87012 28.199H8.62012C9.01012 26.059 9.79012 23.389 11.3901 21.069C12.1801 19.919 12.9801 19.249 13.6501 19.179C14.0701 19.129 14.3401 19.339 14.4001 19.389L14.4501 19.429C14.7401 19.679 14.9501 20.079 15.0901 20.559C13.8301 21.359 12.3801 22.689 11.6801 23.809C10.9201 25.019 10.9101 26.309 11.4701 27.259C11.8901 27.969 12.7501 28.379 13.5501 28.339C14.7001 28.279 15.7301 27.439 16.3201 26.109C16.8401 24.919 17.1001 23.349 16.9701 21.529C17.1701 21.459 17.3601 21.409 17.5401 21.389C18.0301 21.339 18.2601 21.509 18.4001 21.649C19.5001 22.789 18.1901 26.499 17.3601 28.189H19.2401C19.4901 27.599 19.8301 26.759 20.1001 25.819C20.8101 23.309 20.6501 21.499 19.6401 20.449C19.0301 19.859 18.2501 19.589 17.3401 19.689ZM14.8201 25.439C14.3301 26.579 13.5901 26.929 13.0901 26.689C12.5901 26.459 12.4201 25.639 13.0901 24.539C13.6101 23.679 14.6701 22.779 15.4501 22.129C15.3901 23.219 15.2101 24.539 14.8201 25.439Z" fill="#90B96C"/>
<path d="M37.7803 32.9892C37.7803 34.1592 38.7303 35.1092 39.9003 35.1092C41.0703 35.1092 42.0203 34.1592 42.0203 32.9892C42.0203 31.8192 41.0703 30.8692 39.9003 30.8692C38.7303 30.8592 37.7803 31.8092 37.7803 32.9892Z" fill="#90B96C"/>
<path d="M39.9003 35.5596C38.7303 35.5596 37.7803 36.5096 37.7803 37.6796C37.7803 38.8496 38.7303 39.7996 39.9003 39.7996C41.0703 39.7996 42.0203 38.8496 42.0203 37.6796C42.0303 36.5096 41.0803 35.5596 39.9003 35.5596Z" fill="#90B96C"/>
<path d="M39.9003 40.2588C38.7303 40.2588 37.7803 41.2088 37.7803 42.3788C37.7803 43.5488 38.7303 44.4988 39.9003 44.4988C41.0703 44.4988 42.0203 43.5488 42.0203 42.3788C42.0303 41.2088 41.0803 40.2588 39.9003 40.2588Z" fill="#90B96C"/>
</svg>
