<svg width="109" height="45" viewBox="0 0 109 45" fill="none" xmlns="http://www.w3.org/2000/svg">
<g clip-path="url(#clip0_39_5582)">
<path d="M19.9268 5.76934C18.6494 7.28086 16.6057 8.47305 14.5619 8.30273C14.3065 6.25898 15.307 4.0875 16.4779 2.74629C17.7553 1.19219 19.9906 0.0851562 21.8002 0C22.0131 2.12891 21.1828 4.21523 19.9268 5.76934ZM21.7789 8.70723C18.8197 8.53691 16.2863 10.3891 14.8813 10.3891C13.4549 10.3891 11.3047 8.79238 8.9629 8.83496C5.91857 8.87754 3.08712 10.602 1.53302 13.3482C-1.66034 18.8408 0.702748 26.9732 3.78966 31.4439C5.30119 33.658 7.11075 36.085 9.49513 35.9998C11.7518 35.9146 12.6459 34.5309 15.3709 34.5309C18.1172 34.5309 18.9049 35.9998 21.2893 35.9572C23.7588 35.9146 25.3129 33.7432 26.8244 31.5291C28.5488 29.017 29.2514 26.5687 29.294 26.441C29.2514 26.3984 24.5252 24.5889 24.4826 19.1389C24.4401 14.583 28.2082 12.4115 28.3785 12.2838C26.2496 9.13301 22.9285 8.79238 21.7789 8.70723ZM38.874 2.5334V35.723H44.026V24.376H51.1578C57.6723 24.376 62.2494 19.9053 62.2494 13.4334C62.2494 6.96152 57.7574 2.5334 51.3281 2.5334H38.874ZM44.026 6.87637H49.9656C54.4363 6.87637 56.991 9.26074 56.991 13.4547C56.991 17.6486 54.4363 20.0543 49.9444 20.0543H44.026V6.87637ZM71.6592 35.9785C74.8951 35.9785 77.8969 34.3393 79.2594 31.742H79.3658V35.723H84.1346V19.2027C84.1346 14.4127 80.3026 11.3258 74.4055 11.3258C68.9342 11.3258 64.8893 14.4553 64.7402 18.7557H69.3813C69.7645 16.7119 71.6592 15.3707 74.2565 15.3707C77.4072 15.3707 79.1742 16.8396 79.1742 19.5434V21.3742L72.7449 21.7574C66.7627 22.1193 63.5268 24.5676 63.5268 28.8254C63.5268 33.1258 66.8692 35.9785 71.6592 35.9785ZM73.043 32.04C70.2967 32.04 68.551 30.7201 68.551 28.6977C68.551 26.6113 70.2328 25.3979 73.4475 25.2062L79.1742 24.8443V26.7178C79.1742 29.826 76.5344 32.04 73.043 32.04ZM90.5 44.7496C95.5242 44.7496 97.8873 42.8336 99.9524 37.0217L109 11.6451H103.763L97.6957 31.2523H97.5893L91.5219 11.6451H86.1358L94.8643 35.8082L94.3959 37.2771C93.6082 39.768 92.3309 40.726 90.0529 40.726C89.6485 40.726 88.8608 40.6834 88.5414 40.6408V44.6219C88.8395 44.707 90.1168 44.7496 90.5 44.7496Z" fill="black"/>
</g>
<defs>
<clipPath id="clip0_39_5582">
<rect width="109" height="44.7496" fill="white"/>
</clipPath>
</defs>
</svg>
