<svg width="393" height="388" viewBox="0 0 393 388" fill="none" xmlns="http://www.w3.org/2000/svg">
<path d="M326.917 382.736C344.129 340.705 362.32 298.638 371.486 253.849C378.675 218.713 390.726 136.082 333.232 140.829C329.349 141.144 314.131 143.919 313.081 146.939C319.553 220.72 304.545 335.241 233.092 375.422C178.536 406.108 115.462 378.372 103.742 316.931C87.0379 229.395 182.402 155.177 244.479 109.9C215.968 19.536 153.034 75.7754 117.561 124.37C63.4767 198.465 32.3242 293.175 15.8997 382.718H-47C-40.878 339.029 -29.7708 294.659 -15.5852 252.907C14.238 165.196 101.573 -19.6151 217.263 1.69719C260.904 9.74386 286.984 45.3517 302.394 84.1188C342.292 72.7557 386.196 79.8075 413.273 112.867C455.603 164.568 439.126 248.578 421.756 307.418C414.27 332.78 404.79 359.521 392.458 382.736H326.935H326.917ZM168.531 324.646C191.218 345.138 219.781 315.203 230.486 296.177C251.424 258.946 253.855 210.055 258.77 168.495C223.367 196.266 160.887 248.177 159.086 296.509C158.771 305.062 162.129 318.851 168.549 324.646H168.531Z" fill="#335C30"/>
</svg>
