<svg width="96" height="90" viewBox="0 0 96 90" fill="none" xmlns="http://www.w3.org/2000/svg">
<g clip-path="url(#clip0_39_5570)">
<path d="M3.79507 63.5781C3.66004 63.5784 3.52953 63.6268 3.42693 63.7146C3.32433 63.8024 3.25635 63.9239 3.23514 64.0572L0.0063956 84.5347C-0.00539149 84.6095 -0.000847449 84.6859 0.0197093 84.7588C0.040266 84.8316 0.076352 84.8991 0.125486 84.9567C0.174619 85.0143 0.235621 85.0606 0.304329 85.0923C0.373036 85.1241 0.447812 85.1406 0.523503 85.1407H4.35339C4.48831 85.1404 4.61873 85.0921 4.72131 85.0045C4.8239 84.9169 4.89197 84.7956 4.91335 84.6624L5.86111 78.6488C5.88249 78.5156 5.95056 78.3943 6.05314 78.3067C6.15573 78.2191 6.28613 78.1708 6.42104 78.1705H9.90194C13.9704 78.1705 17.4233 75.2027 18.054 71.1803C18.6904 67.1247 15.5225 63.5865 11.031 63.5781H3.79507ZM7.5177 68.1497H10.3034C12.5968 68.1497 13.3428 69.5025 13.1067 70.999C12.8705 72.4987 11.7118 73.6034 9.49288 73.6034H6.65758L7.5177 68.1497ZM25.8435 69.5425C24.8765 69.5461 23.7635 69.7438 22.5143 70.2641C19.6494 71.4581 18.273 73.9267 17.689 75.7262C17.689 75.7262 15.8291 81.2163 20.0312 84.2329C20.0312 84.2329 23.928 87.1359 28.3154 84.0532L28.2402 84.5347C28.2284 84.6095 28.2329 84.6859 28.2535 84.7588C28.274 84.8316 28.3101 84.8991 28.3592 84.9567C28.4084 85.0143 28.4694 85.0606 28.5381 85.0923C28.6068 85.1241 28.6816 85.1406 28.7573 85.1407H32.3927C32.6712 85.1407 32.9081 84.9374 32.9518 84.6616L35.1635 70.6384C35.1753 70.5636 35.1707 70.4872 35.1502 70.4143C35.1296 70.3415 35.0936 70.2739 35.0444 70.2164C34.9953 70.1588 34.9343 70.1125 34.8656 70.0808C34.7969 70.049 34.7221 70.0325 34.6464 70.0324H31.011C30.7316 70.0324 30.4947 70.2357 30.4511 70.5107L30.3326 71.2651H30.3318C30.3318 71.2651 28.7445 69.5317 25.8431 69.5425H25.8435ZM25.9624 73.972C26.3798 73.972 26.7617 74.0288 27.1039 74.1393C28.672 74.6432 29.5621 76.1489 29.3044 77.7827C28.987 79.7943 27.3376 81.276 25.2227 81.276C24.8053 81.276 24.4227 81.2187 24.0805 81.1087C22.5123 80.6048 21.617 79.0983 21.8751 77.4645C22.1925 75.4537 23.8475 73.972 25.9624 73.972Z" fill="#003087"/>
<path d="M56.1457 63.5781C55.8671 63.5781 55.6302 63.7814 55.5865 64.0572L52.357 84.5347C52.3452 84.6096 52.3497 84.6861 52.3703 84.759C52.3909 84.8319 52.4271 84.8994 52.4763 84.957C52.5256 85.0146 52.5867 85.0609 52.6555 85.0926C52.7243 85.1243 52.7991 85.1407 52.8749 85.1407H56.7048C56.9834 85.1407 57.2203 84.9378 57.2639 84.6624L58.2125 78.6488C58.2339 78.5156 58.302 78.3943 58.4045 78.3067C58.5071 78.2191 58.6375 78.1708 58.7724 78.1705H62.2533C66.3218 78.1705 69.7746 75.2027 70.4054 71.1803C71.0418 67.1247 67.8731 63.5865 63.3816 63.5781H56.1457ZM59.8683 68.1497H62.654C64.9473 68.1497 65.6942 69.5025 65.4581 70.999C65.2219 72.4987 64.0628 73.6034 61.8435 73.6034H59.0082L59.8683 68.1497ZM78.1949 69.5425C77.2279 69.5461 76.1149 69.7438 74.8657 70.2641C72.0008 71.4581 70.6236 73.9267 70.0396 75.7262C70.0396 75.7262 68.1801 81.2163 72.3826 84.2329C72.3826 84.2329 76.2794 87.1359 80.6668 84.0532L80.5907 84.5347C80.579 84.6096 80.5835 84.6861 80.6041 84.759C80.6247 84.8319 80.6609 84.8994 80.7101 84.957C80.7593 85.0146 80.8204 85.0609 80.8892 85.0926C80.958 85.1243 81.0329 85.1407 81.1087 85.1407H84.7432C84.8783 85.1404 85.0088 85.092 85.1114 85.0042C85.214 84.9164 85.282 84.795 85.3032 84.6616L87.5149 70.6384C87.5267 70.5635 87.5221 70.487 87.5015 70.4141C87.4809 70.3412 87.4448 70.2737 87.3956 70.2161C87.3463 70.1585 87.2852 70.1122 87.2164 70.0805C87.1476 70.0488 87.0728 70.0324 86.997 70.0324H83.3624C83.0831 70.0324 82.8461 70.2357 82.8025 70.5107L82.6836 71.2651C82.6836 71.2651 81.0963 69.5317 78.1949 69.5425ZM78.313 73.972C78.7304 73.972 79.1131 74.0288 79.4553 74.1393C81.0234 74.6432 81.9128 76.1489 81.6554 77.7827C81.338 79.7943 79.6886 81.276 77.5737 81.276C77.1563 81.276 76.7745 81.2187 76.4323 81.1087C74.8641 80.6048 73.9688 79.0983 74.2269 77.4645C74.5439 75.4537 76.1981 73.972 78.313 73.972Z" fill="#0070E0"/>
<path d="M36.8878 70.033C36.8208 70.0329 36.7548 70.0487 36.695 70.079C36.6353 70.1093 36.5836 70.1534 36.5442 70.2075C36.5048 70.2617 36.4787 70.3244 36.4682 70.3906C36.4576 70.4567 36.4629 70.5244 36.4836 70.5882L40.4684 82.9556L36.8646 88.7847C36.6901 89.0677 36.893 89.4323 37.226 89.4323H41.4842C41.6061 89.4324 41.726 89.401 41.8322 89.3412C41.9384 89.2814 42.0274 89.1951 42.0906 89.0909L53.2201 70.677C53.3914 70.394 53.1876 70.0322 52.857 70.0322H48.5989C48.4759 70.0322 48.355 70.0642 48.2481 70.125C48.1412 70.1858 48.052 70.2735 47.9893 70.3792L43.6083 77.7769L41.3841 70.4345C41.3113 70.1955 41.0916 70.0326 40.8414 70.0326L36.8878 70.033Z" fill="#003087"/>
<path d="M91.6457 63.5781C91.3671 63.5781 91.1301 63.7814 91.0865 64.0572L87.857 84.5347C87.8452 84.6096 87.8497 84.6861 87.8703 84.759C87.8909 84.8319 87.9271 84.8994 87.9763 84.957C88.0255 85.0146 88.0867 85.0609 88.1555 85.0926C88.2243 85.1243 88.2991 85.1407 88.3749 85.1407H92.204C92.4826 85.1407 92.7195 84.9378 92.7631 84.6624L95.9935 64.1841C96.0053 64.1092 96.0007 64.0326 95.9801 63.9597C95.9594 63.8867 95.9232 63.8191 95.8739 63.7615C95.8246 63.7039 95.7633 63.6577 95.6944 63.626C95.6255 63.5943 95.5506 63.578 95.4748 63.5781H91.6457Z" fill="#0070E0"/>
<path d="M44.3427 10.7699C43.5794 10.7699 42.929 11.3251 42.8102 12.0795L40.2626 28.2324L37.922 43.0753L37.9204 43.0877L37.9232 43.0753L40.2638 28.2324C40.3827 27.478 41.0323 26.9228 41.796 26.9228H49.2588C56.7694 26.9228 63.1444 21.4431 64.3083 14.0179C64.3953 13.4638 64.4444 12.9044 64.4552 12.3437V12.3429H64.4544C62.5456 11.3415 60.3043 10.7695 57.8484 10.7695L44.3427 10.7699Z" fill="#001C64"/>
<path d="M64.4546 12.3428C64.4442 12.8943 64.3962 13.4534 64.3077 14.0178C63.1434 21.443 56.7688 26.9227 49.2583 26.9227H41.7954C41.0321 26.9227 40.3825 27.4779 40.2633 28.2323L37.9227 43.0752L36.4538 52.3876C36.4255 52.5675 36.4365 52.7514 36.4861 52.9266C36.5357 53.1018 36.6226 53.2642 36.7409 53.4026C36.8593 53.541 37.0062 53.6521 37.1715 53.7284C37.3369 53.8046 37.5168 53.8441 37.6989 53.8441H45.7994C46.5634 53.8441 47.213 53.289 47.3323 52.5345L49.466 39.0012C49.5237 38.6361 49.7097 38.3036 49.9907 38.0634C50.2716 37.8233 50.6289 37.6911 50.9985 37.6908H55.7686C63.2791 37.6908 69.6533 32.2115 70.8172 24.7867C71.6437 19.5155 68.9913 14.7206 64.4546 12.3428Z" fill="#0070E0"/>
<path d="M35.1394 0C34.7698 0.000322329 34.4125 0.132453 34.1316 0.372642C33.8506 0.612831 33.6646 0.945331 33.6069 1.31039L27.2503 41.6178C27.2219 41.7978 27.2328 41.9817 27.2823 42.157C27.3319 42.3323 27.4188 42.4948 27.5371 42.6333C27.6554 42.7718 27.8024 42.883 27.9678 42.9593C28.1332 43.0355 28.3133 43.0751 28.4954 43.0751H37.9219L40.2625 28.2322L42.81 12.0793C42.9289 11.3248 43.5793 10.7697 44.3425 10.7697H57.8479C60.3041 10.7697 62.5455 11.342 64.4546 12.3422C64.5847 5.58216 59.0066 0.000403074 51.3367 0.000403074L35.1394 0Z" fill="#003087"/>
</g>
<defs>
<clipPath id="clip0_39_5570">
<rect width="96" height="89.4323" fill="white"/>
</clipPath>
</defs>
</svg>
