<svg width="102" height="80" viewBox="0 0 102 80" fill="none" xmlns="http://www.w3.org/2000/svg">
<g clip-path="url(#clip0_39_5587)">
<path d="M18.4868 79.0421V73.7849C18.4868 71.7739 17.2618 70.4571 15.159 70.4571C14.1075 70.4571 12.9642 70.8041 12.1782 71.9475C11.5657 70.9879 10.6878 70.4571 9.37093 70.4571C8.49302 70.4571 7.61512 70.7225 6.92097 71.682V70.6306H5.0835V79.0421H6.92097V74.3974C6.92097 72.907 7.707 72.2027 8.93197 72.2027C10.157 72.2027 10.7694 72.9887 10.7694 74.3974V79.0421H12.6069V74.3974C12.6069 72.907 13.4848 72.2027 14.6179 72.2027C15.8429 72.2027 16.4554 72.9887 16.4554 74.3974V79.0421H18.4868ZM45.7426 70.6306H42.7618V68.0888H40.9244V70.6306H39.2604V72.2945H40.9244V76.1532C40.9244 78.0826 41.7104 79.2157 43.8133 79.2157C44.5993 79.2157 45.4772 78.9503 46.0897 78.6032L45.5589 77.0209C45.028 77.368 44.4156 77.4599 43.9766 77.4599C43.0987 77.4599 42.7516 76.929 42.7516 76.0613V72.2945H45.7324V70.6306H45.7426ZM61.3407 70.4468C60.2893 70.4468 59.5849 70.9777 59.146 71.6718V70.6204H57.3085V79.0319H59.146V74.2953C59.146 72.8968 59.7584 72.1006 60.9017 72.1006C61.2488 72.1006 61.6878 72.1924 62.0451 72.2741L62.5759 70.5183C62.2084 70.4468 61.6878 70.4468 61.3407 70.4468ZM37.77 71.3248C36.8921 70.7123 35.6672 70.4468 34.3503 70.4468C32.2474 70.4468 30.8489 71.4983 30.8489 73.1622C30.8489 74.5607 31.9004 75.357 33.7378 75.6122L34.6157 75.7041C35.5753 75.8776 36.1061 76.143 36.1061 76.582C36.1061 77.1945 35.4018 77.6334 34.1768 77.6334C32.9518 77.6334 31.982 77.1945 31.3695 76.7555L30.4916 78.154C31.4512 78.8584 32.768 79.2055 34.0849 79.2055C36.5349 79.2055 37.9436 78.0621 37.9436 76.4901C37.9436 74.9997 36.8003 74.2137 35.0547 73.9483L34.1768 73.8564C33.3907 73.7645 32.7783 73.591 32.7783 73.0703C32.7783 72.4579 33.3907 72.1108 34.3605 72.1108C35.412 72.1108 36.4634 72.5497 36.9942 72.8151L37.77 71.3248ZM86.657 70.4468C85.6055 70.4468 84.9012 70.9777 84.4622 71.6718V70.6204H82.6247V79.0319H84.4622V74.2953C84.4622 72.8968 85.0747 72.1006 86.218 72.1006C86.5651 72.1006 87.004 72.1924 87.3613 72.2741L87.8921 70.5387C87.5349 70.4469 87.0142 70.4468 86.657 70.4468ZM63.1782 74.8364C63.1782 77.3782 64.934 79.2157 67.6493 79.2157C68.8743 79.2157 69.7522 78.9503 70.6301 78.2561L69.7522 76.7657C69.0479 77.2965 68.3537 77.5517 67.5575 77.5517C66.0671 77.5517 65.0156 76.5003 65.0156 74.8364C65.0156 73.2541 66.0671 72.2027 67.5575 72.121C68.3435 72.121 69.0479 72.3864 69.7522 72.907L70.6301 71.4166C69.7522 70.7123 68.8743 70.4571 67.6493 70.4571C64.934 70.4469 63.1782 72.2945 63.1782 74.8364ZM80.1748 74.8364V70.6306H78.3373V71.682C77.7248 70.896 76.8469 70.4571 75.7036 70.4571C73.3353 70.4571 71.4978 72.2945 71.4978 74.8364C71.4978 77.3782 73.3353 79.2157 75.7036 79.2157C76.9286 79.2157 77.8065 78.7767 78.3373 77.9907V79.0421H80.1748V74.8364ZM73.4272 74.8364C73.4272 73.346 74.3867 72.121 75.969 72.121C77.4594 72.121 78.5108 73.2643 78.5108 74.8364C78.5108 76.3268 77.4594 77.5517 75.969 77.5517C74.3969 77.4599 73.4272 76.3165 73.4272 74.8364ZM51.4388 70.4468C48.9888 70.4468 47.233 72.2027 47.233 74.8262C47.233 77.4599 48.9888 79.2055 51.5307 79.2055C52.7556 79.2055 53.9806 78.8584 54.9504 78.0621L54.0725 76.7453C53.3681 77.2761 52.4902 77.6232 51.6225 77.6232C50.4792 77.6232 49.3461 77.0924 49.0807 75.6122H55.2975C55.2975 75.3468 55.2975 75.1732 55.2975 74.9078C55.3791 72.2027 53.7969 70.4468 51.4388 70.4468ZM51.4388 72.0291C52.5821 72.0291 53.3681 72.7335 53.5417 74.0401H49.1624C49.3359 72.907 50.1219 72.0291 51.4388 72.0291ZM97.0897 74.8364V67.3027H95.2522V71.682C94.6397 70.896 93.7618 70.4571 92.6185 70.4571C90.2502 70.4571 88.4128 72.2945 88.4128 74.8364C88.4128 77.3782 90.2502 79.2157 92.6185 79.2157C93.8435 79.2157 94.7214 78.7767 95.2522 77.9907V79.0421H97.0897V74.8364ZM90.3421 74.8364C90.3421 73.346 91.3017 72.121 92.8839 72.121C94.3743 72.121 95.4258 73.2643 95.4258 74.8364C95.4258 76.3268 94.3743 77.5517 92.8839 77.5517C91.3017 77.4599 90.3421 76.3165 90.3421 74.8364ZM28.8277 74.8364V70.6306H26.9902V71.682C26.3777 70.896 25.4998 70.4571 24.3565 70.4571C21.9882 70.4571 20.1507 72.2945 20.1507 74.8364C20.1507 77.3782 21.9882 79.2157 24.3565 79.2157C25.5815 79.2157 26.4594 78.7767 26.9902 77.9907V79.0421H28.8277V74.8364ZM21.9984 74.8364C21.9984 73.346 22.958 72.121 24.5403 72.121C26.0307 72.121 27.0821 73.2643 27.0821 74.8364C27.0821 76.3268 26.0307 77.5517 24.5403 77.5517C22.958 77.4599 21.9984 76.3165 21.9984 74.8364Z" fill="black"/>
<path d="M64.7606 6.74805H37.1577V56.3393H64.7606V6.74805Z" fill="#FF5A00"/>
<path d="M38.9952 31.5432C38.9952 21.4678 43.7318 12.5254 51 6.7476C45.6509 2.54183 38.9033 0 31.5432 0C14.1077 0 0 14.1077 0 31.5432C0 48.9788 14.1077 63.0865 31.5432 63.0865C38.9033 63.0865 45.6509 60.5446 51 56.3389C43.7216 50.6427 38.9952 41.6187 38.9952 31.5432Z" fill="#EB001B"/>
<path d="M102 31.5432C102 48.9788 87.8923 63.0865 70.4568 63.0865C63.0967 63.0865 56.3491 60.5446 51 56.3389C58.3601 50.5508 63.0048 41.6187 63.0048 31.5432C63.0048 21.4678 58.2682 12.5254 51 6.7476C56.3389 2.54183 63.0865 0 70.4466 0C87.8923 0 102 14.1996 102 31.5432Z" fill="#F79E1B"/>
</g>
<defs>
<clipPath id="clip0_39_5587">
<rect width="102" height="79.2154" fill="white"/>
</clipPath>
</defs>
</svg>
