<svg width="110" height="53" viewBox="0 0 110 53" fill="none" xmlns="http://www.w3.org/2000/svg">
<g clip-path="url(#clip0_39_5596)">
<path d="M51.9751 27.0875V39.875H47.8501V8.25H58.5751C61.1876 8.25 63.6626 9.2125 65.5876 11C67.5126 12.65 68.4751 15.125 68.4751 17.7375C68.4751 20.35 67.5126 22.6875 65.5876 24.475C63.6626 26.2625 61.3251 27.225 58.5751 27.225L51.9751 27.0875ZM51.9751 12.1V23.1H58.8501C60.3626 23.1 61.8751 22.55 62.8376 21.45C65.0376 19.3875 65.0376 15.95 62.9751 13.8875L62.8376 13.75C61.7376 12.65 60.3626 11.9625 58.8501 12.1H51.9751Z" fill="#5F6368"/>
<path d="M77.9626 17.5996C80.9876 17.5996 83.3251 18.4246 85.1126 20.0746C86.9001 21.7246 87.7251 23.9246 87.7251 26.6746V39.8746H83.8751V36.8496H83.7376C82.0876 39.3246 79.7501 40.5621 77.0001 40.5621C74.6626 40.5621 72.6001 39.8746 70.9501 38.4996C69.4376 37.1246 68.4751 35.1996 68.4751 33.1371C68.4751 30.9371 69.3001 29.1496 70.9501 27.7746C72.6001 26.3996 74.9376 25.8496 77.6876 25.8496C80.1626 25.8496 82.0876 26.2621 83.6001 27.2246V26.2621C83.6001 24.8871 83.0501 23.5121 81.9501 22.6871C80.8501 21.7246 79.4751 21.1746 77.9626 21.1746C75.6251 21.1746 73.8376 22.1371 72.6001 24.0621L69.0251 21.8621C71.2251 18.9746 74.1126 17.5996 77.9626 17.5996ZM72.7376 33.2746C72.7376 34.3746 73.2876 35.3371 74.1126 35.8871C75.0751 36.5746 76.1751 36.9871 77.2751 36.9871C78.9251 36.9871 80.5751 36.2996 81.8126 35.0621C83.1876 33.8246 83.8751 32.3121 83.8751 30.6621C82.6376 29.6996 80.8501 29.1496 78.5126 29.1496C76.8626 29.1496 75.4876 29.5621 74.3876 30.3871C73.2876 31.0746 72.7376 32.0371 72.7376 33.2746Z" fill="#5F6368"/>
<path d="M110 18.2871L96.3876 49.4996H92.2626L97.3501 38.6371L88.4126 18.4246H92.8126L99.2751 33.9621H99.4126L105.738 18.4246H110V18.2871Z" fill="#5F6368"/>
<path d="M35.6124 24.3375C35.6124 23.1 35.4749 21.8625 35.3374 20.625H18.1499V27.6375H27.9124C27.4999 29.8375 26.2624 31.9 24.3374 33.1375V37.675H30.2499C33.6874 34.5125 35.6124 29.8375 35.6124 24.3375Z" fill="#4285F4"/>
<path d="M18.1498 42.0748C23.0998 42.0748 27.2248 40.4248 30.2498 37.6748L24.3373 33.1373C22.6873 34.2373 20.6248 34.9248 18.1498 34.9248C13.4748 34.9248 9.3498 31.7623 7.9748 27.3623H1.9248V32.0373C5.0873 38.2248 11.2748 42.0748 18.1498 42.0748Z" fill="#34A853"/>
<path d="M7.9752 27.3623C7.1502 25.1623 7.1502 22.6873 7.9752 20.3498V15.6748H1.9252C-0.687305 20.7623 -0.687305 26.8123 1.9252 32.0373L7.9752 27.3623Z" fill="#FBBC04"/>
<path d="M18.15 12.925C20.7625 12.925 23.2375 13.8875 25.1625 15.675L30.3875 10.45C27.0875 7.42498 22.6875 5.63748 18.2875 5.77498C11.4125 5.77498 5.0875 9.62498 2.0625 15.8125L8.1125 20.4875C9.35 16.0875 13.475 12.925 18.15 12.925Z" fill="#EA4335"/>
</g>
<defs>
<clipPath id="clip0_39_5596">
<rect width="110" height="52.3875" fill="white"/>
</clipPath>
</defs>
</svg>
