<svg width="181" height="79" viewBox="0 0 181 79" fill="none" xmlns="http://www.w3.org/2000/svg">
<g clip-path="url(#clip0_39_3376)">
<path d="M136.184 27.3726L135.603 28.2057L119.193 23.9576C87.4417 16.9128 40.6336 8.7613 14.8356 18.5437C7.3432 21.3847 1.33582 27.7452 8.78422 33.7027C5.23489 21.1614 22.0452 16.1233 40.6009 16.1167C74.1838 16.1074 122.149 24.0946 154.785 34.5922C170.814 39.7474 187.597 49.707 170.951 56.6954C142.302 68.7225 55.9153 60.6413 22.6251 45.0603C15.1449 41.5583 4.09549 33.2825 3.931 28.1282C3.56335 16.9735 27.3359 13.8741 43.1088 13.3843C73.2532 12.4527 105.919 19.8535 136.183 27.3772L136.184 27.3726ZM15.4353 39.3663C18.044 42.108 23.5029 44.6476 27.8911 46.4003C61.663 59.8709 140.661 67.3255 169.243 56.3304C186.54 49.6744 168.051 38.3865 151.133 34.6922C152.319 35.9841 154.475 36.6648 156.013 38.0991C165.883 47.3007 154.426 54.7996 142.231 57.1598C114.379 62.5478 68.9996 54.9946 38.6739 46.8274C30.7647 44.6949 22.8945 42.1943 15.4344 39.3709L15.4353 39.3663ZM11.8973 36.6029C12.5476 37.1567 18.0463 39.4971 19.4367 40.0251C50.1544 51.7299 115.083 63.0063 143.898 55.8688C163.763 50.9488 163.183 37.0441 137.682 30.5672C110.906 23.7636 47.7478 13.0574 24.3555 18.5405C15.0219 20.7297 8.21182 25.9135 9.9014 32.6971C10.0851 33.4228 11.2922 36.0823 11.8973 36.6029Z" fill="white"/>
</g>
<defs>
<clipPath id="clip0_39_3376">
<rect width="175.087" height="43.9833" fill="white" transform="translate(172.242 78.3879) rotate(-168.714)"/>
</clipPath>
</defs>
</svg>
