<svg width="110" height="36" viewBox="0 0 110 36" fill="none" xmlns="http://www.w3.org/2000/svg">
<g clip-path="url(#clip0_39_5231)">
<path d="M47.6666 35.0869H38.7559L44.3293 0.625H53.2396L47.6666 35.0869Z" fill="#00579F"/>
<path d="M79.9691 1.46718C78.2115 0.769893 75.4238 0 71.9769 0C63.1772 0 56.9805 4.69244 56.9425 11.4012C56.8694 16.351 61.3792 19.1001 64.7521 20.7505C68.1995 22.437 69.3714 23.5377 69.3714 25.041C69.3363 27.3497 66.5857 28.4139 64.0202 28.4139C60.4626 28.4139 58.5564 27.8652 55.6595 26.5808L54.4862 26.0302L53.2393 33.7661C55.3292 34.7182 59.1796 35.5632 63.1772 35.6002C72.527 35.6002 78.614 30.9804 78.6861 23.8311C78.7217 19.908 76.3404 16.9021 71.2065 14.4457C68.0899 12.8689 66.1812 11.8057 66.1812 10.1923C66.2178 8.72561 67.7956 7.22334 71.3137 7.22334C74.2105 7.14976 76.3389 7.84608 77.9513 8.54288L78.7573 8.90882L79.9691 1.46718Z" fill="#00579F"/>
<path d="M91.8123 22.8783C92.5461 20.8985 95.3699 13.2361 95.3699 13.2361C95.3329 13.3097 96.1023 11.2198 96.5423 9.9368L97.165 12.9062C97.165 12.9062 98.8524 21.1553 99.2189 22.8783C97.8262 22.8783 93.5723 22.8783 91.8123 22.8783ZM102.812 0.625H95.919C93.7936 0.625 92.1787 1.24774 91.2617 3.48432L78.0259 35.0864H87.3757C87.3757 35.0864 88.915 30.833 89.2458 29.917C90.2716 29.917 99.367 29.917 100.687 29.917C100.942 31.1269 101.75 35.0864 101.75 35.0864H110L102.812 0.625Z" fill="#00579F"/>
<path d="M31.3134 0.625L22.5868 24.1247L21.6332 19.3587C20.0198 13.8593 14.96 7.8844 9.31348 4.91349L17.3067 35.0504H26.7296L40.7358 0.625H31.3134Z" fill="#00579F"/>
<path d="M14.4832 0.625H0.146669L0 1.32131C11.1834 4.18112 18.59 11.0746 21.633 19.3602L18.5164 3.52184C18.0033 1.32083 16.4265 0.697604 14.4832 0.625Z" fill="#FAA61A"/>
</g>
<defs>
<clipPath id="clip0_39_5231">
<rect width="110" height="35.6002" fill="white"/>
</clipPath>
</defs>
</svg>
