<svg width="71" height="80" viewBox="0 0 71 80" fill="none" xmlns="http://www.w3.org/2000/svg">
<g clip-path="url(#clip0_39_5241)">
<path d="M71 80V67.3232H61.3488L56.3792 61.8288L51.3856 67.3232H19.5648V41.7152H9.2944L22.0336 12.8848H34.32L38.7056 22.7616V12.8848H53.9136L56.5536 20.328L59.2112 12.8848H71V0H-9V80H71ZM62.9744 64.1168H71L60.384 52.8592L71 41.7296H63.1024L56.5456 48.8944L50.0528 41.7296H42.0256L52.5792 52.9232L42.0256 64.1168H49.8304L56.4192 56.888L62.976 64.1168H62.9744ZM64.8528 52.8688L71 59.4096V46.3824L64.8528 52.8688ZM29.072 58.936V55.4496H41.7056V50.3968H29.072V46.9104H42.0256V41.7296H22.9632V64.1184H42.0256V58.9376H29.072V58.936ZM64.9552 38.48H71V16.0912H61.5968L56.5744 30.0352L51.5856 16.0912H42.0224V38.48H48.0672V22.808L53.824 38.48H59.1968L64.9536 22.776V38.48H64.9552ZM35.1472 38.48H42.024L32.1408 16.0912H24.272L14.3888 38.48H21.1056L22.9616 34.0016H33.2608L35.1472 38.48ZM31.1488 28.9808H25.072L28.1104 21.656L31.1488 28.9808Z" fill="#006FCF"/>
</g>
<defs>
<clipPath id="clip0_39_5241">
<rect width="80" height="80" fill="white" transform="translate(-9)"/>
</clipPath>
</defs>
</svg>
