<svg width="50" height="30" viewBox="0 0 50 30" fill="none" xmlns="http://www.w3.org/2000/svg">
<path d="M4.94252 26.1198C6.83392 26.9717 9.4126 23.0299 11.2958 25.6812L1.47526 30.0013C0.381335 29.7198 0.456197 22.1713 2.82759 22.4717L2.83435 25.9034C7.49461 18.9404 13.602 14.4536 21.5689 11.9487C23.6691 11.2854 29.0695 10.9391 30.1136 10.4057C31.4987 9.69372 33.0893 3.21457 36.5008 2.96524L49.6135 0.337979C44.8188 4.23278 37.2767 1.35724 33.4663 7.48727C30.8695 11.6708 35.6762 10.504 37.9885 11.1693C47.438 13.9081 40.3459 22.0103 32.3581 15.2154C31.4885 14.4793 31.1513 12.7043 30.4843 12.438C30.1557 12.3106 24.45 12.9925 23.5836 13.1991C15.9416 15.0368 9.19588 19.5089 4.94331 26.1093L4.94252 26.1198Z" fill="white"/>
</svg>
