<svg width="57" height="49" viewBox="0 0 57 49" fill="none" xmlns="http://www.w3.org/2000/svg">
<path d="M24.17 0.200376C34.5284 -1.21217 49.3262 5.00112 53.7561 14.9987C54.9039 17.5899 56.8153 26.5233 56.9813 29.4009C57.5314 39.1503 48.5389 45.7597 39.9496 47.5254C35.5576 48.4273 31.6353 47.9596 27.2528 48.58C6.43157 51.5005 -7.45085 39.1026 4.30202 18.8211C5.83871 16.1631 12.3128 7.02449 14.3142 5.06315C16.4533 2.9682 21.2246 0.601233 24.17 0.200376ZM32.1001 1.03072C29.6812 0.715764 26.1525 1.03072 23.5724 1.03072C22.9084 1.03072 17.5631 3.56471 16.7331 4.15645C16.1308 4.58594 12.4076 8.10299 12.9151 8.65178C15.2581 7.07221 17.5536 5.41152 20.1717 4.27576C21.144 3.85581 26.2711 1.98037 26.8924 1.98037L33.7648 1.98037L33.7648 1.50793C33.1388 1.67019 32.5032 1.07844 32.1048 1.02595L32.1001 1.03072ZM17.4114 47.2581C19.8492 47.5492 22.7376 47.0482 25.2324 47.2581L24.7581 45.8313C31.2321 47.5588 39.5606 44.3662 45.0055 40.6917C50.4503 37.0172 56.2935 29.1003 54.2446 22.1282C52.5988 16.5353 44.332 5.96985 38.9251 3.69356C31.2321 0.45807 15.6992 4.74342 11.0132 11.7441C7.71215 16.6737 5.30751 32.9752 6.48849 38.7017C7.55089 43.8604 12.5309 46.6712 17.4161 47.2534L17.4114 47.2581ZM54.1308 19.6133C53.0541 13.8104 49.1887 8.12207 43.7107 5.79806L48.4346 10.8135L54.1308 19.6133ZM18.5923 47.7401C5.04665 47.5731 4.40162 37.5803 5.86243 26.5901L8.88365 13.9011C-1.47007 24.8149 -3.08266 45.0773 15.1632 48.0885C15.8699 48.203 18.3125 48.6945 18.5923 47.7401ZM31.3934 47.2534C40.955 48.2269 54.994 42.6817 56.0279 31.7631C56.1655 30.3171 56.4738 27.3584 55.0936 26.7619C54.6051 34.1682 47.818 40.7299 41.4483 43.784L31.3981 47.2534L31.3934 47.2534Z" fill="white"/>
</svg>
