<svg width="40" height="52" viewBox="0 0 40 52" fill="none" xmlns="http://www.w3.org/2000/svg">
<g clip-path="url(#clip0_39_4844)">
<path d="M31.6251 5.93598L21.5353 18.9285C23.8333 20.3156 33.9703 22.571 33.3286 25.4736C27.0572 33.0329 21.8537 42.095 13.1913 47.2535C11.258 41.3149 15.5665 35.8467 16.408 30.23C16.0193 27.4014 5.94902 29.4438 5.54496 28.354C8.79068 19.5179 12.6291 10.8467 18.3285 3.31392L31.6251 5.93598ZM28.6796 7.19283C26.358 6.07687 21.1281 3.93864 18.9134 5.68444C17.3198 6.94765 9.93626 21.0399 8.4744 24.04C6.47037 28.1768 18.7961 26.5648 19.1916 27.7366L14.361 42.8547C19.093 40.766 27.6637 31.1289 29.5341 26.4137C30.4249 24.1969 30.1585 25.1027 28.5957 24.194C27.0328 23.2853 19.8392 21.1145 19.6298 20.6033L28.6838 7.18232L28.6796 7.19283Z" fill="white"/>
</g>
<defs>
<clipPath id="clip0_39_4844">
<rect width="24.7853" height="45.2" fill="white" transform="translate(16.8535) rotate(21.8927)"/>
</clipPath>
</defs>
</svg>
