<svg xmlns="http://www.w3.org/2000/svg" fill="none" viewBox="0 0 47 47"><g clip-path="url(#a)"><path fill="#fff" d="m45.138 46.076.308-1.842.89-.558c-2.887.25-4.233-4.242-6.975-5.281-.827-.313-.967.654-.707.947.062.073 1.072.352 1.693.943.53.51 3.088 2.804 2.626 3.387-7.465-.746-14.31-2.526-20.808-6.34C8.924 29.569 1.665 15.524.444.435-.5 22.719 18.23 42.041 40.087 44.162c-.505 1.26-4.598-.087-4.324 1.914h9.375Z"/></g><defs><clipPath id="a"><path fill="#fff" d="M.41 46.076h45.925V.436H.41z"/></clipPath></defs></svg>