<svg xmlns="http://www.w3.org/2000/svg" width="20" height="20" fill="none"><g clip-path="url(#a)"><path fill="url(#b)" stroke="#345D31" stroke-linejoin="round" stroke-width="1.5" d="M9.328 2.64a.75.75 0 0 1 1.344 0l1.368 2.771a2.25 2.25 0 0 0 1.694 1.23l3.057.445a.75.75 0 0 1 .415 1.28l-2.211 2.156a2.25 2.25 0 0 0-.648 1.99l.523 3.047a.75.75 0 0 1-1.088.79l-3.433-1.805a.75.75 0 0 0-.698 0L6.218 16.35a.75.75 0 0 1-1.088-.79l.523-3.046a2.25 2.25 0 0 0-.648-1.991L2.793 8.365a.75.75 0 0 1 .415-1.279l3.058-.444a2.25 2.25 0 0 0 1.694-1.23L9.328 2.64Z"/><path fill="#345D31" d="M10.62 3h.005v.01c.472 1.503.617 2.79.264 3.764a3.161 3.161 0 0 0-.083 1.993c.231.82.395 1.646.498 2.47.1.803.152 1.476.151 2.012 0 .287-.034.606-.18.87a.974.974 0 0 1-.86.508l-.073-.001-.074-.02-.415-.097.123-.508h-.601L7.5 12.5c.3-.303.295-.249 1 0 0-.463.597-.221.5-1-.095-.759-.285-1.238-.5-2-.26-.92.88-2.239 1.212-3.15.214-.588.17-1.572-.308-3.057L9.375 3.2V3h.933l.288-.093c.01.03.015.063.024.093Z"/></g><defs><linearGradient id="b" x1="19.907" x2=".093" y1="9.005" y2="9.005" gradientUnits="userSpaceOnUse"><stop stop-color="#E8EFE4"/><stop offset=".5" stop-color="#E8EFE4"/><stop offset=".5" stop-color="#335C30"/></linearGradient><clipPath id="a"><path fill="#fff" d="M0 0h20v20H0z"/></clipPath></defs></svg>