<svg xmlns="http://www.w3.org/2000/svg" width="20" height="20" fill="none"><g clip-path="url(#a)"><path fill="#335C30" d="M8.655 2.309c.55-1.115 2.14-1.115 2.69 0l1.367 2.77a1.5 1.5 0 0 0 1.13.82l3.057.445c1.23.179 1.722 1.69.832 2.559l-2.213 2.156a1.5 1.5 0 0 0-.431 1.328l.522 3.045c.21 1.225-1.076 2.16-2.176 1.58l-2.735-1.437a1.5 1.5 0 0 0-1.396 0l-2.734 1.438c-1.1.578-2.387-.356-2.177-1.581l.522-3.045a1.5 1.5 0 0 0-.431-1.328L2.27 8.903c-.89-.868-.4-2.38.831-2.559L6.158 5.9a1.5 1.5 0 0 0 1.13-.82l1.367-2.771Z"/></g><defs><clipPath id="a"><path fill="#fff" d="M0 0h20v20H0z"/></clipPath></defs></svg>