<svg xmlns="http://www.w3.org/2000/svg" fill="none" viewBox="0 0 104 58"><path fill="#335C30" d="M1.084 26.077C.55 25.863.423 25.469.7 24.893c.064-.128.47-.374 1.216-.736a147.34 147.34 0 0 0 2.72-1.248c1.067-.47 1.867-.875 2.4-1.216 1.173-.726 1.941-1.344 2.304-1.856.107-.128.224-.278.352-.448l.288-.384c.064-.086.117-.171.16-.256a.617.617 0 0 0 .096-.32c0-.214-.128-.512-.384-.896-.341-.491-1.003-1.12-1.984-1.888-.96-.768-1.621-1.366-1.984-1.792a7.25 7.25 0 0 1-.736-.896 4.463 4.463 0 0 1-.288-.608 16.337 16.337 0 0 1-.224-.8c.49-.128.81-.235.96-.32.15-.107.288-.278.416-.512.064-.107.107-.064.128.128.021.064.053.202.096.416.043.469.096.746.16.832.213.341.49.682.832 1.024.363.341.683.618.96.832.277.213.661.49 1.152.832.49.32.832.554 1.024.704.96.746 1.44 1.642 1.44 2.688 0 1.13-.459 2.154-1.376 3.072-.896.896-1.92 1.493-3.072 1.792-.277.064-.661.373-1.152.928-.49.576-.95.885-1.376.928-.15.021-.299.106-.448.256-.15.149-.267.245-.352.288-.15.085-.352.128-.608.128a3.776 3.776 0 0 0-.48.064c-.128.042-.341.117-.64.224-.299.128-.523.202-.672.224-.128.042-.31.042-.544 0ZM3.196 6.589c-.192-.192-.288-.384-.288-.576 0-.192.075-.374.224-.544.17-.171.373-.331.608-.48.235-.15.501-.288.8-.416.32-.15.608-.267.864-.352.256-.107.501-.203.736-.288.256-.086.416-.15.48-.192a8.76 8.76 0 0 1 3.584-.736c1.322 0 1.984.416 1.984 1.248 0 .341-.107.725-.32 1.152.128 0 .181.064.16.192a1.12 1.12 0 0 1-.448.128c-.17 0-.299.042-.384.128-.085.064-.139.224-.16.48-.17-.022-.288-.011-.352.032-.043.021-.128.128-.256.32-.192.277-.512.586-.96.928-.448.341-.757.608-.928.8-.427.469-.864.8-1.312.992-.448.192-.81.277-1.088.256-.256-.043-.47-.022-.64.064-.17.085-.245.277-.224.576.021.277-.032.48-.16.608s-.384.277-.768.448c0-.171-.021-.288-.064-.352-.043-.086-.021-.224.064-.416.107-.192.17-.32.192-.384.043-.086.128-.214.256-.384.15-.171.245-.288.288-.352.043-.064.128-.171.256-.32l.256-.256c.341-.384.96-.96 1.856-1.728A39.956 39.956 0 0 0 9.66 5.149c-.15-.15-.373-.224-.672-.224-.427 0-1.216.192-2.368.576-1.13.384-1.888.682-2.272.896a9.517 9.517 0 0 0-.352.256 5.18 5.18 0 0 1-.416.288 2.328 2.328 0 0 1-.448.192c-.17.042-.288.01-.352-.096-.064-.043-.053-.086.032-.128.107-.064.203-.118.288-.16.107-.064.139-.118.096-.16Zm-.352.992c.107 0 .256-.032.448-.096a.96.96 0 0 1 .544-.032c0 .064.01.192.032.384.043.17.053.298.032.384-.021.085-.085.128-.192.128-.15 0-.32-.075-.512-.224a1.4 1.4 0 0 1-.352-.544Zm14.038 7.584c-.107-.214.032-.363.416-.448a2.927 2.927 0 0 1 1.056 0c.747.106 1.419.16 2.016.16.64 0 1.536-.064 2.688-.192.064 0 .224-.064.48-.192.277-.15.501-.224.672-.224h.512a8.94 8.94 0 0 1 .576-.032c.128 0 .256.032.384.096.15.064.256.16.32.288a.57.57 0 0 0 .16.16c.085.042.192.074.32.096.128.021.235.032.32.032h.384c.15-.022.256-.032.32-.032.15 0 .256.01.32.032.085.021.117.074.096.16-.17.64-1.75 1.013-4.736 1.12-.064 0-.715.074-1.952.224-1.238.128-2.048.192-2.432.192-.064 0-.17.01-.32.032h-.384c-.085 0-.181-.011-.288-.032a.487.487 0 0 1-.256-.128.713.713 0 0 1-.064-.32c0-.299.043-.448.128-.448.043 0 .128.053.256.16.128.106.224.16.288.16.128 0 .203-.118.224-.352.021-.107.01-.192-.032-.256-.021-.064-.075-.107-.16-.128a.655.655 0 0 0-.288 0c-.085 0-.192.01-.32.032h-.32c-.192 0-.32-.054-.384-.16Zm13.581 8.928-.096-.256a1.53 1.53 0 0 1-.032-.544c.021-.171.128-.288.32-.352.235-.064.48-.022.736.128.277.149.501.224.672.224 1.11.042 2.56-.416 4.352-1.376.277-.15.65-.31 1.12-.48.47-.192.81-.342 1.024-.448.213-.128.427-.352.64-.672.213-.342.352-.779.416-1.312.064-.555-.608-1.643-2.016-3.264-1.387-1.643-2.581-2.859-3.584-3.648-.107-.086-.64-.576-1.6-1.472-.939-.896-1.45-1.398-1.536-1.504a2.14 2.14 0 0 1-.16-.704c-.021-.299.096-.619.352-.96.277-.342.672-.598 1.184-.768.107-.043.288-.096.544-.16.277-.086.48-.15.608-.192.15-.064.341-.139.576-.224.235-.107.416-.203.544-.288a5.75 5.75 0 0 0 .384-.352.752.752 0 0 0 .224-.448 1.17 1.17 0 0 0 0-.544c1.28-.832 2.475-1.227 3.584-1.184l4.64-.128c.79 0 1.376.021 1.76.064.299.341.384.618.256.832a.94.94 0 0 1-.448.416c-.192.085-.48.181-.864.288a.246.246 0 0 0-.096.032h-.064c-.427.128-1.035.213-1.824.256-.79.042-1.376.117-1.76.224-.555.106-1.173.17-1.856.192-.661 0-1.27.053-1.824.16-.555.106-1.173.362-1.856.768-.107.085-.416.181-.928.288-.512.106-.928.288-1.248.544-.32.256-.437.64-.352 1.152.064.448.395.917.992 1.408.619.469 1.301.928 2.048 1.376.747.448 1.227.81 1.44 1.088.896 1.109 1.75 2.005 2.56 2.688.448.384.928 1.013 1.44 1.888.512.853.715 1.546.608 2.08-.128.789-.416 1.578-.864 2.368-.427.789-.97 1.333-1.632 1.632-2.048.938-3.35 1.45-3.904 1.536-.192.021-.523.128-.992.32-.448.213-.79.32-1.024.32a.917.917 0 0 1-.416-.096c-.085-.043-.395-.118-.928-.224-.512-.086-.885-.31-1.12-.672Zm4.928-.256c.768 0 1.152-.139 1.152-.416 0-.576-.128-.864-.384-.864-.17 0-.341.128-.512.384a2 2 0 0 0-.256.896Zm22.742 1.376c-.107.128-.384.16-.832.096-.448-.043-.736-.054-.864-.032 0-.192.15-.331.448-.416.299-.086.49-.182.576-.288.064-.043.139-.032.224.032.106.064.181.074.224.032a.511.511 0 0 1 .288-.224c.15-.043.277-.075.384-.096.106 0 .16-.022.16-.064.106-.128.128-.214.064-.256-.043-.043-.139-.043-.288 0-.363.064-.587.17-.672.32-.107-.086-.405-.043-.896.128 0-.086.107-.192.32-.32.235-.128.416-.192.544-.192.256 0 .523-.075.8-.224.298-.128.608-.31.928-.544.32-.235.555-.395.704-.48l.576-.128c.15-.214.459-.427.928-.64.49-.235.8-.416.928-.544.213-.256.576-.534 1.088-.832.533-.299.896-.544 1.088-.736.448-.534.896-.843 1.344-.928a.87.87 0 0 1-.032.192.528.528 0 0 0-.032.16c0 .021.021.053.064.096.085 0 .138-.043.16-.128a.955.955 0 0 0 0-.352l-.032-.224c.043-.128.16-.256.352-.384.213-.128.341-.224.384-.288.448-.555.853-1.099 1.216-1.632.043-.064.213-.288.512-.672.32-.406.533-.683.64-.832.128-.171.266-.416.416-.736.17-.32.267-.619.288-.896l.096-1.44c.15-.896 0-1.771-.448-2.624l-.672-1.568c-.256-.64-.63-1.387-1.12-2.24-.49-.854-.896-1.387-1.216-1.6a7.12 7.12 0 0 1-.416-.256 6.83 6.83 0 0 0-.384-.352l-.352-.352c-.299-.214-.501-.32-.608-.32-.064-.022-.096-.075-.096-.16-.022-.064-.075-.086-.16-.064a4.27 4.27 0 0 1-.416-.032 1.798 1.798 0 0 0-.416-.064.361.361 0 0 0-.256.032l.064.128c0 .042-.043.074-.128.096h-.32a.833.833 0 0 0-.256.032c0-.064.01-.107.032-.128a.375.375 0 0 1 .096-.064.209.209 0 0 0 .096-.096c.042-.064.053-.118.032-.16-.021-.043-.053-.064-.096-.064a.347.347 0 0 0-.128-.064.504.504 0 0 1-.096-.128.5.5 0 0 0 .128-.096c.128-.128.224-.096.288.096.17.341.288.234.352-.32l-.32.064c0-.128.032-.235.096-.32a.403.403 0 0 1 .224-.16c.107-.022.224-.032.352-.032a.974.974 0 0 1 .352 0c.128 0 .234-.011.32-.032.341-.043.928.256 1.76.896.853.64 1.472 1.162 1.856 1.568.554.618 1.024 1.28 1.408 1.984.362.618.778 1.44 1.248 2.464s.661 1.664.576 1.92c-.064.192-.032.512.096.96.15.448.224.757.224.928-.064 1.088-.32 2.24-.768 3.456a.629.629 0 0 1-.224.16c-.064.042-.107.128-.128.256a.523.523 0 0 1-.064.288c-.128.192-.31.458-.544.8-.213.341-.395.629-.544.864a7.92 7.92 0 0 1-.512.736 5.244 5.244 0 0 1-.64.704c-1.686 1.685-2.827 2.698-3.424 3.04-.235 0-.384.021-.448.064-.064.021-.15.128-.256.32-.406.042-.918.298-1.536.768-.598.49-1.078.768-1.44.832-.256.064-.416.17-.48.32-.043.064-.342.17-.896.32-.534.17-.875.256-1.024.256-.17.021-.459.16-.864.416Zm-1.632-2.88c-.32.128-.63.053-.928-.224-.278-.256-.342-.555-.192-.896.234-.235.341-.395.32-.48-.043-.278-.01-.47.096-.576.064-.107.192-.299.384-.576.192-.299.33-.544.416-.736.064-.107.16-.352.288-.736.15-.384.299-.651.448-.8.235-.235.448-.598.64-1.088.192-.512.373-.886.544-1.12l.768-1.088c.576-1.046.981-1.824 1.216-2.336a.77.77 0 0 1 .32-.32c.064-.043.096-.192.096-.448.042-.384.181-.79.416-1.216.256-.448.544-.747.864-.896.49-.192.778-.352.864-.48.085-.107.128-.203.128-.288.021-.086 0-.171-.064-.256a5.03 5.03 0 0 1-.096-.256c-.406 0-.608-.235-.608-.704 0-.235.075-.47.224-.704.17-.235.373-.352.608-.352.064 0 .31.138.736.416.17.17.15.448-.064.832-.192.362-.245.65-.16.864.064.106.032.266-.096.48a2.025 2.025 0 0 1-.32.448c-.043.426-.107.725-.192.896-.128.256-.341.778-.64 1.568-.278.768-.523 1.354-.736 1.76-.064.128-.31.49-.736 1.088-.427.597-.672 1.088-.736 1.472-.32.789-.523 1.205-.608 1.248-.192.128-.427.469-.704 1.024-.256.554-.427.885-.512.992-.47.512-.715.906-.736 1.184-.022.192-.128.405-.32.64-.17.234-.278.416-.32.544a3.13 3.13 0 0 0-.064.224c-.022.085-.043.16-.064.224a.49.49 0 0 1-.064.192.405.405 0 0 1-.096.192.361.361 0 0 1-.128.128.482.482 0 0 1-.192.16Zm6.08-20.128c.213.064.17.256-.128.576-.192.192-.373.298-.544.32-.107 0-.17-.054-.192-.16.021-.022.075-.032.16-.032l.032-.032c-.043-.043-.032-.086.032-.128.064-.064.128-.118.192-.16.064-.064.096-.118.096-.16 0-.086-.021-.096-.064-.032-.043.042-.085.042-.128 0 0-.064.043-.096.128-.096.107-.022.192-.011.256.032 0 .042-.01.085-.032.128l-.032.032h.096c.064-.022.096-.075.096-.16 0-.086.01-.128.032-.128Zm-5.824 22.112c-.085.192-.31.288-.672.288-.128 0-.16-.054-.096-.16a.364.364 0 0 1 .128-.128.192.192 0 0 0 .128-.128c.277.042.448.085.512.128ZM61.14 4.029c.021-.022.053-.022.096 0 .064 0 .096.021.096.064 0 .021-.01.053-.032.096 0 .042-.01.074-.032.096-.064.021-.096-.011-.096-.096a.966.966 0 0 1-.032-.16Zm11.48 17.056c-.15-.107-.225-.374-.225-.8 0-.448.032-.758.096-.928.299-1.003.534-1.675.704-2.016l.928-1.664c.79-1.088 1.408-1.632 1.856-1.632.086-.043.171-.15.256-.32.086-.192.214-.31.384-.352 0 .021.054.01.16-.032l.32-.128a.702.702 0 0 1 .192-.096c.192-.128.63-.022 1.312.32.896.469 1.12 1.013.672 1.632-.192.298-.309.522-.352.672-.042.192-.117.32-.224.384-.106.042-.192-.032-.256-.224.171 0 .267-.022.288-.064.043-.064.054-.171.032-.32 0-.107-.032-.096-.096.032-.085.149-.16.202-.224.16-.128-.086-.224-.246-.288-.48a3.607 3.607 0 0 0-.128-.448c-.106-.171-.341-.171-.704 0-.362.213-.576.33-.64.352-.213-.32-.384-.427-.512-.32-.042.021.075.149.352.384.086.106.118.17.096.192-.384.106-.682.298-.896.576a5.676 5.676 0 0 0-.544 1.024c-.17.384-.352.693-.544.928-.192.234-.362.704-.512 1.408-.128.32-.181.629-.16.928.022.277.224.33.608.16.064-.022.16-.043.288-.064a1.25 1.25 0 0 0 .288-.128c.726-.384 1.558-1.067 2.496-2.048.128-.128.299-.342.512-.64.235-.299.427-.523.576-.672.064-.064.182-.16.352-.288.192-.15.32-.278.384-.384.086-.107.15-.246.192-.416.128-.192.363-.406.704-.64.342-.235.566-.395.672-.48.384-.342.694-.534.928-.576.15-.022.278.074.384.288.128.192.214.394.256.608.022.149.022.288 0 .416a1.768 1.768 0 0 1-.16.416c-.064.149-.106.266-.128.352-.085.234-.298.714-.64 1.44-.32.704-.512 1.301-.576 1.792-.021.128.054.49.224 1.088.192.618.502.917.928.896.064 0 .214-.022.448-.064.256-.043.438-.064.544-.064.214 0 .288.074.224.224-.021.042-.074.042-.16 0-.085-.064-.138-.086-.16-.064-.085.064-.106.17-.064.32.064.128.043.202-.064.224l-.544.32c-.469.362-.896.48-1.28.352-.853-.278-1.376-.907-1.568-1.888-.042-.107-.064-.342-.064-.704.022-.363.032-.598.032-.704 0-.128.011-.224.032-.288a.942.942 0 0 1 .256-.224c.15-.107.235-.171.256-.192a.685.685 0 0 0 .16-.128c.086-.064.15-.118.192-.16.064-.043.128-.096.192-.16a.685.685 0 0 0 .128-.16.805.805 0 0 0 .096-.192c.043-.064.054-.118.032-.16a.805.805 0 0 0-.096-.192l-.096-.096c-.021-.043-.042-.064-.064-.064l-.032-.032c-.021 0-.042.042-.064.128 0 .064-.01.181-.032.352a1.35 1.35 0 0 1-.128.416c-.021.042-.074.032-.16-.032a1.117 1.117 0 0 0-.288-.192c-.106-.064-.234-.054-.384.032a.74.74 0 0 1-.192.128.35.35 0 0 0-.128.064v.128c.022.149-.298.501-.96 1.056-.64.533-1.098.874-1.376 1.024-.128.064-.245.064-.352 0-.106-.064-.202-.075-.288-.032a1.273 1.273 0 0 0-.192.16 1.55 1.55 0 0 1-.16.096h-.16c-.49-.064-.736-.022-.736.128l.096.224c.043.042.086.032.128-.032a1.55 1.55 0 0 0 .096-.16c.043-.064.086-.054.128.032.064.128.075.224.032.288h.128c.043 0 .096-.011.16-.032.086-.022.15-.022.192 0 .064 0 .107.021.128.064.107.192-.288.437-1.184.736a2.294 2.294 0 0 0-.288.096.244.244 0 0 1-.096.032 1.812 1.812 0 0 1-.576.096c-.256 0-.48-.032-.672-.096-.149-.043-.288-.182-.416-.416-.128-.256-.224-.416-.288-.48Zm6.591-4.928c-.106-.256-.042-.491.192-.704.064.021.107.085.128.192a1.04 1.04 0 0 0-.16.288l-.128.256-.032-.032Zm-2.208 4.64c-.021.234-.074.234-.16 0a.284.284 0 0 1-.032-.128c.128-.128.192-.182.192-.16.022 0 .022.096 0 .288Zm5.315 6.496a1.812 1.812 0 0 1-.032-1.056c.043-.128.117-.278.224-.448.085-.15.17-.278.256-.384a5.2 5.2 0 0 1 .288-.416c.128-.15.224-.267.288-.352.235-.342.576-.811 1.024-1.408.47-.598.8-1.024.992-1.28.235-.342.608-.79 1.12-1.344.533-.576.917-1.035 1.152-1.376.064-.086.192-.224.384-.416.213-.192.373-.395.48-.608a.588.588 0 0 0 0-.384c-.021-.171-.096-.374-.224-.608-.107-.256-.16-.395-.16-.416a2.433 2.433 0 0 0-.352-.64 6.646 6.646 0 0 1-.32-.544c-.085-.15-.15-.32-.192-.512a1.068 1.068 0 0 0-.192-.512 1.238 1.238 0 0 1-.128-.352c-.043-.192-.096-.31-.16-.352-.17-.171-.31-.395-.416-.672-.107-.299-.181-.47-.224-.512-.107-.15-.203-.288-.288-.416a2.11 2.11 0 0 0-.192-.32 1.178 1.178 0 0 0-.224-.288.738.738 0 0 0-.192-.096.483.483 0 0 1-.192-.16c-.043-.214-.043-.352 0-.416l.064-.064a.361.361 0 0 0 .128-.128.742.742 0 0 1 .096-.192.371.371 0 0 0 .064-.096c.043-.043.075-.054.096-.032.043.021.107.021.192 0 .235 0 .363.042.384.128.021.064.01.106-.032.128-.043.021-.053.042-.032.064a.968.968 0 0 1 .032.16.369.369 0 0 0 .096.064c.043 0 .085.021.128.064.021.021.117.085.288.192.192.085.32.16.384.224.576.682 1.173 1.77 1.792 3.264.085.213.192.512.32.896s.245.682.352.896c.107.213.224.373.352.48.064.042.544-.459 1.44-1.504.15-.256.405-.502.768-.736.277-.171.715-.47 1.312-.896.043-.022.075-.075.096-.16.043-.107.085-.15.128-.128.085 0 .15-.043.192-.128.043-.107.085-.16.128-.16l.128.32a.439.439 0 0 0 .096-.224 2.04 2.04 0 0 1 .064-.288l.064-.192c.043-.086.085-.139.128-.16l.096-.032a.5.5 0 0 0 .128-.096c.064-.064.107-.096.128-.096a.136.136 0 0 1 .128 0c.021.021.032.053.032.096v.064c-.021.042-.01.053.032.032.021-.022.043-.075.064-.16.043-.086.085-.139.128-.16a1.38 1.38 0 0 0-.032.256c.021.064.064.085.128.064.043-.022.085-.075.128-.16a.742.742 0 0 1 .096-.192c.043-.043.085-.032.128.032.021.042.021.16 0 .352 0 .17.032.266.096.288l.032-.064c.021-.086.043-.107.064-.064.043.064.032.117-.032.16a.693.693 0 0 1-.256.128 2.371 2.371 0 0 0-.256.096 1.55 1.55 0 0 1-.16.096c-.021 0-.053.021-.096.064-.021.021-.032.042-.032.064l-.032.128c0 .064-.01.117-.032.16h.064c-.021.106-.128.192-.32.256s-.288.128-.288.192c0 .17-.021.298-.064.384-.021.085-.085.181-.192.288a1.56 1.56 0 0 0-.192.224l-.768.768c-.15.106-.533.501-1.152 1.184-.597.661-1.003 1.13-1.216 1.408a.468.468 0 0 1-.224.16.41.41 0 0 0-.256.16c-.064.17-.15.32-.256.448-.064.085-.17.17-.32.256a.783.783 0 0 0-.288.352c0 .021-.31.362-.928 1.024-.619.661-.96 1.002-1.024 1.024-.192.064-.395.234-.608.512-.213.277-.437.597-.672.96-.213.384-.363.64-.448.768-.043.064-.267.288-.672.672-.384.384-.608.661-.672.832a1.141 1.141 0 0 0-.096.288.523.523 0 0 1-.064.288c-.064.085-.17.234-.32.448-.17.234-.31.405-.416.512-.064.064-.117.181-.16.352-.043.17-.085.288-.128.352-.128.234-.33.117-.608-.352a2.237 2.237 0 0 1-.16-.32Zm13.408-14.464a.475.475 0 0 0-.128-.224 1.744 1.744 0 0 1-.096-.224c.107 0 .181-.022.224-.064a.371.371 0 0 1-.064-.096l-.032-.032c.043-.043.064-.054.064-.032.021 0 .053.021.096.064a.52.52 0 0 0 .128.032c0-.064-.021-.107-.064-.128-.043-.043-.064-.075-.064-.096a.192.192 0 0 1 .128-.128c.192.234.32.352.384.352l-.032-.288h.128c0 .064.032.117.096.16.064.021.085.064.064.128a.974.974 0 0 1-.224.32c-.107.106-.192.149-.256.128-.021-.022-.043-.086-.064-.192l-.064-.064a.688.688 0 0 0-.128.224l-.032.16c0 .106-.021.106-.064 0Zm-.672 0c-.085.128 0 .234.256.32a.446.446 0 0 0 .032-.192c-.021 0-.053-.022-.096-.064-.043-.043-.085-.064-.128-.064-.021-.022-.043-.022-.064 0Zm-.832.416c-.021.021-.032.053-.032.096 0 .042.01.085.032.128.021.021.043.032.064.032.021-.022.053-.022.096 0 .043.021.064.01.064-.032l-.032-.224c-.043-.043-.107-.043-.192 0Zm2.496-1.216a.666.666 0 0 1-.032-.256c.192 0 .224.096.096.288-.043.085-.064.074-.064-.032Zm-.544-.064a1.245 1.245 0 0 1-.096-.256c.128-.043.192-.022.192.064a.805.805 0 0 1-.096.192Zm-2.048 1.92c0 .106.021.17.064.192.021.021.053.01.096-.032.021-.086.01-.139-.032-.16-.021-.022-.064-.022-.128 0Zm1.44-1.632-.256-.064c.043 0 .075-.022.096-.064.043-.064.096-.086.16-.064v.192Zm1.312-.8c0-.128.01-.235.032-.32l.032.064c.085.17.064.256-.064.256Zm-1.504 1.376c.064-.064.053-.118-.032-.16-.021 0-.043-.011-.064-.032.021.149.053.213.096.192Zm.45 9.664c-.17-.214-.224-.416-.16-.608.043-.128.086-.203.128-.224.064-.043.16-.054.288-.032.128 0 .224-.011.288-.032.555-.086 1.43-.374 2.624-.864l.288-.096a2.1 2.1 0 0 0 .48-.16c.128-.064.192-.128.192-.192 0-.192-.117-.438-.352-.736a37.601 37.601 0 0 0-.896-1.088 6.48 6.48 0 0 1-.832-1.28 7.307 7.307 0 0 0-.48-.768 29.713 29.713 0 0 1-.544-.96 3.542 3.542 0 0 1-.256-.896c-.106-.683-.01-1.152.288-1.408.086 0 .107-.118.064-.352-.021-.235-.021-.384 0-.448.064-.214.427-.448 1.088-.704.662-.278 1.11-.395 1.344-.352.939.213 1.59.458 1.952.736.363.256.64.789.832 1.6.15.789.128 1.141-.064 1.056-.021 0-.042-.011-.064-.032-.021-.022-.032-.075-.032-.16 0-.107-.021-.182-.064-.224a.216.216 0 0 0-.16-.064c-.064 0-.117-.032-.16-.096a13.608 13.608 0 0 0-.448-.96c0-.022-.032-.022-.096 0-.064.021-.117 0-.16-.064.064-.128 0-.256-.192-.384-.064-.022-.106-.022-.128 0-.021 0-.053.021-.096.064-.042.042-.074.064-.096.064-.064.021-.149-.011-.256-.096-.106-.107-.192-.139-.256-.096-.064.064-.074.128-.032.192.043.042.139.106.288.192.128.085.171.138.128.16 0 .042-.064.042-.192 0a3.794 3.794 0 0 0-.992-.16c-.704 0-1.088.416-1.152 1.248 0 .128.064.394.192.8.128.384.224.608.288.672.15.128.32.352.512.672.192.32.299.49.32.512.235.341.491.661.768.96.747.746 1.216 1.493 1.408 2.24 0 .192.011.32.032.384.043.064.022.17-.064.32-.064.149-.106.245-.128.288a3.073 3.073 0 0 0-.192.288c-.106.149-.181.245-.224.288-.256.298-.501.469-.736.512-.064 0-.192-.022-.384-.064-.17-.022-.288 0-.352.064-.64.298-1.12.469-1.44.512-.042-.064-.064-.107-.064-.128a.94.94 0 0 0 .096-.128.503.503 0 0 0 .128-.192c0-.086-.053-.16-.16-.224 0 .277-.213.522-.64.736-.789.106-1.28.01-1.472-.288Zm1.152-9.184c-.106.106-.128.224-.064.352.086.106.182.16.288.16.107 0 .16-.086.16-.256 0-.384-.128-.47-.384-.256ZM5.302 54.213c-.107.128-.384.16-.832.096-.448-.043-.736-.054-.864-.032 0-.192.149-.331.448-.416.298-.086.49-.182.576-.288.064-.043.138-.032.224.032.106.064.18.074.224.032a.511.511 0 0 1 .288-.224c.149-.043.277-.075.384-.096.106 0 .16-.022.16-.064.106-.128.128-.214.064-.256-.043-.043-.14-.043-.288 0-.363.064-.587.17-.672.32-.107-.086-.406-.043-.896.128 0-.086.106-.192.32-.32.234-.128.416-.192.544-.192.256 0 .522-.075.8-.224a4.75 4.75 0 0 0 .928-.544c.32-.235.554-.395.704-.48l.576-.128c.149-.214.458-.427.928-.64.49-.235.8-.416.928-.544.213-.256.576-.534 1.088-.832.533-.299.896-.544 1.088-.736.448-.534.896-.843 1.344-.928 0 .042-.011.106-.032.192a.528.528 0 0 0-.032.16c0 .021.02.053.064.096.085 0 .138-.043.16-.128a.96.96 0 0 0 0-.352l-.032-.224c.042-.128.16-.256.352-.384.213-.128.34-.224.384-.288.448-.555.853-1.099 1.216-1.632.042-.064.213-.288.512-.672.32-.406.533-.683.64-.832.128-.171.266-.416.416-.736.17-.32.266-.619.288-.896l.096-1.44c.149-.896 0-1.771-.448-2.624l-.672-1.568c-.256-.64-.63-1.387-1.12-2.24-.491-.854-.896-1.387-1.216-1.6a7.067 7.067 0 0 1-.416-.256 6.924 6.924 0 0 0-.384-.352l-.352-.352c-.3-.214-.502-.32-.608-.32-.064-.022-.096-.075-.096-.16-.022-.064-.075-.086-.16-.064-.086 0-.224-.011-.416-.032a1.802 1.802 0 0 0-.416-.064.362.362 0 0 0-.256.032l.064.128c0 .042-.043.074-.128.096h-.32a.833.833 0 0 0-.256.032c0-.064.01-.107.032-.128a.374.374 0 0 1 .096-.064.209.209 0 0 0 .096-.096c.042-.064.053-.118.032-.16-.022-.043-.054-.064-.096-.064a.349.349 0 0 0-.128-.064.498.498 0 0 1-.096-.128.5.5 0 0 0 .128-.096c.128-.128.224-.096.288.096.17.341.288.234.352-.32l-.32.064c0-.128.032-.235.096-.32a.403.403 0 0 1 .224-.16 1.8 1.8 0 0 1 .352-.032.976.976 0 0 1 .352 0c.128 0 .234-.011.32-.032.34-.043.928.256 1.76.896.853.64 1.472 1.162 1.856 1.568.554.618 1.024 1.28 1.408 1.984.362.618.778 1.44 1.248 2.464.469 1.024.66 1.664.576 1.92-.064.192-.032.512.096.96.149.448.224.757.224.928-.064 1.088-.32 2.24-.768 3.456a.629.629 0 0 1-.224.16c-.064.042-.107.128-.128.256a.523.523 0 0 1-.064.288c-.128.192-.31.458-.544.8l-.544.864a7.94 7.94 0 0 1-.512.736 5.25 5.25 0 0 1-.64.704c-1.686 1.685-2.827 2.698-3.424 3.04-.235 0-.384.021-.448.064-.064.021-.15.128-.256.32-.406.042-.918.298-1.536.768-.598.49-1.078.768-1.44.832-.256.064-.416.17-.48.32-.043.064-.342.17-.896.32-.534.17-.875.256-1.024.256-.171.021-.46.16-.864.416Zm-1.632-2.88c-.32.128-.63.053-.928-.224-.278-.256-.342-.555-.192-.896.234-.235.34-.395.32-.48-.043-.278-.011-.47.096-.576.064-.107.192-.299.384-.576.192-.299.33-.544.416-.736.064-.107.16-.352.288-.736.149-.384.298-.651.448-.8.234-.235.448-.598.64-1.088.192-.512.373-.886.544-1.12l.768-1.088c.576-1.046.98-1.824 1.216-2.336a.77.77 0 0 1 .32-.32c.064-.043.096-.192.096-.448.042-.384.18-.79.416-1.216.256-.448.544-.747.864-.896.49-.192.778-.352.864-.48.085-.107.128-.203.128-.288.02-.086 0-.171-.064-.256a4.823 4.823 0 0 1-.096-.256c-.406 0-.608-.235-.608-.704 0-.235.074-.47.224-.704.17-.235.373-.352.608-.352.064 0 .309.138.736.416.17.17.149.448-.064.832-.192.362-.246.65-.16.864.064.106.032.266-.096.48a2.027 2.027 0 0 1-.32.448c-.043.426-.107.725-.192.896-.128.256-.342.778-.64 1.568-.278.768-.523 1.354-.736 1.76-.064.128-.31.49-.736 1.088-.427.597-.672 1.088-.736 1.472-.32.789-.523 1.205-.608 1.248-.192.128-.427.469-.704 1.024-.256.554-.427.885-.512.992-.47.512-.715.906-.736 1.184-.022.192-.128.405-.32.64-.171.234-.278.416-.32.544a3.084 3.084 0 0 0-.064.224 3.06 3.06 0 0 1-.064.224.49.49 0 0 1-.064.192.405.405 0 0 1-.096.192.361.361 0 0 1-.128.128.482.482 0 0 1-.192.16Zm6.08-20.128c.213.064.17.256-.128.576-.192.192-.374.298-.544.32-.107 0-.171-.054-.192-.16.02-.022.074-.032.16-.032l.032-.032c-.043-.043-.032-.086.032-.128.064-.064.128-.118.192-.16.064-.064.096-.118.096-.16 0-.086-.022-.096-.064-.032-.043.042-.086.042-.128 0 0-.064.042-.096.128-.096.106-.022.192-.011.256.032 0 .042-.011.085-.032.128l-.032.032h.096c.064-.022.096-.075.096-.16 0-.086.01-.128.032-.128ZM3.926 53.317c-.086.192-.31.288-.672.288-.128 0-.16-.054-.096-.16a.363.363 0 0 1 .128-.128.192.192 0 0 0 .128-.128c.277.042.448.085.512.128ZM8.31 33.029c.02-.022.053-.022.096 0 .064 0 .096.021.096.064 0 .021-.011.053-.032.096 0 .042-.011.074-.032.096-.064.021-.096-.011-.096-.096a.96.96 0 0 1-.032-.16ZM19.82 47.877c-.32-.384-.213-1.12.32-2.208.49-.854.843-1.355 1.056-1.504.32-.214.725-.576 1.216-1.088.49-.534.821-.875.992-1.024a54.21 54.21 0 0 1 1.248-.992c.576-.427.939-.64 1.088-.64.107 0 .352.128.736.384s.576.437.576.544c0 .149-.203.224-.608.224-.427 0-.64-.15-.64-.448-.256.064-.384.181-.384.352 0 .042.021.128.064.256s.064.224.064.288c0 .149-.213.405-.64.768-.405.362-.757.544-1.056.544-.17 0-.448.16-.832.48-.384.32-.576.512-.576.576 0 .042.021.085.064.128.043.042.064.074.064.096l-.256.352c-.15.256-.192.437-.128.544.064.064.267.096.608.096 1.557-.192 2.464-.416 2.72-.672.235-.235.608-.502 1.12-.8.533-.299.907-.534 1.12-.704.021-.043.139-.128.352-.256.235-.15.373-.31.416-.48 0-.043-.01-.15-.032-.32 0-.171.01-.256.032-.256.021-.022.117-.203.288-.544.17-.363.32-.566.448-.608l.128-.192c0-.107-.053-.16-.16-.16-.107 0-.31.149-.608.448-.17.149-.395.224-.672.224-.213 0-.448-.054-.704-.16-.064-.043-.16-.15-.288-.32-.128-.192-.192-.342-.192-.448 0-.278.619-.416 1.856-.416h.512c.064 0 .107.01.128.032l.128.064a.309.309 0 0 1 .16.128.572.572 0 0 1 .16.16c.384.597.576 1.045.576 1.344 0 .32-.224.736-.672 1.248-.448.512-.693.81-.736.896-.085.149-.448.544-1.088 1.184-.64.618-1.035.928-1.184.928-.64 0-1.227.309-1.76.928-.021.042-.267.138-.736.288-.47.149-.704.245-.704.288.213.128.416.234.608.32.213.064.459.117.736.16.277.021.47.042.576.064h.8c.448-.022.725-.032.832-.032.107 0 .363-.128.768-.384.405-.278.64-.459.704-.544.021-.043.085-.043.192 0l.16.032c.32 0 .63-.118.928-.352 1.195-1.046 2.283-1.792 3.264-2.24.085-.043.245-.182.48-.416.256-.235.49-.459.704-.672.213-.235.33-.352.352-.352.427-.214 1.184-.758 2.272-1.632 1.088-.896 1.824-1.536 2.208-1.92.213-.192.576-.491 1.088-.896.512-.406.885-.736 1.12-.992.341-.342.597-.672.768-.992 0-.022.075-.15.224-.384.15-.256.299-.502.448-.736.15-.235.235-.363.256-.384.107-.086.384-.406.832-.96l.8-.992c.128-.256.373-.619.736-1.088.384-.491.64-.683.768-.576.064.021.075.085.032.192a3.803 3.803 0 0 1-.128.288c-.043.064-.096.149-.16.256a1.926 1.926 0 0 1-.128.16c-.341.469-.608.864-.8 1.184-.15.277-.533.725-1.152 1.344-.619.597-.981 1.12-1.088 1.568-.021.085.032.128.16.128.192 0 .427-.15.704-.448.277-.32.587-.683.928-1.088.363-.427.661-.726.896-.896.15-.107.31-.331.48-.672.17-.342.341-.576.512-.704.32-.15.48-.256.48-.32 0-.256-.192-.619-.576-1.088-.256-.299.096-.726 1.056-1.28l.384-.192c.17-.086.32-.15.448-.192.128-.064.277-.118.448-.16.192-.064.384-.096.576-.096a.788.788 0 0 0 .608-.288c.17-.192.299-.288.384-.288.32 0 .555.074.704.224.15.128.235.277.256.448.021.149.032.394.032.736 0 .469-.107.8-.32.992-1.003 1.088-1.675 1.706-2.016 1.856-.256.106-.48.288-.672.544-.15.213-.565.544-1.248.992-.768.426-1.781 1.418-3.04 2.976a71.21 71.21 0 0 0-3.296 4.32c-.085.106-.235.512-.448 1.216-.192.704-.373 1.141-.544 1.312-.192.17-.405.629-.64 1.376-.213.746-.352 1.301-.416 1.664-.085.469-.128 1.258-.128 2.368 0 .384.096.757.288 1.12.192.362.48.544.864.544.256 0 .661-.278 1.216-.832.15-.171.363-.288.64-.352s.49-.171.64-.32c.043-.022.181-.075.416-.16.597-.192.907-.363.928-.512 0-.064-.053-.139-.16-.224-.085-.064-.235 0-.448.192-.213.192-.352.288-.416.288a.394.394 0 0 1-.224-.064c-.064-.043-.064-.096 0-.16.043-.043.203-.235.48-.576.299-.342.459-.534.48-.576.64-1.131 1.141-1.59 1.504-1.376.021.021-.032.106-.16.256-.107.128-.117.234-.032.32.107.106.203.096.288-.032.107-.128.203-.32.288-.576.085-.256.17-.427.256-.512l.224-.224.352-.416c.128-.128.224-.214.288-.256l.448-.896c.277-.555.437-.854.48-.896.213-.214.523-.555.928-1.024.427-.47.81-.875 1.152-1.216.363-.342.736-.64 1.12-.896.043-.043.245-.139.608-.288.363-.171.619-.256.768-.256.192 0 .288.074.288.224 0 .213-.139.512-.416.896-.256.362-.448.597-.576.704-1.43 1.109-2.624 2.88-3.584 5.312l-.192.672c-.085.277-.16.522-.224.736-.043.213-.085.33-.128.352a.96.96 0 0 0-.224.544c0 .213.021.458.064.736.064.277.096.469.096.576 0 .085.053.202.16.352.107.128.203.192.288.192.043 0 .085-.054.128-.16.064-.107.17-.16.32-.16.213 0 .32.064.32.192 0 .17-.17.469-.512.896-.341.448-.672.736-.992.864-.341.17-.672-.032-.992-.608-.256-.427-.384-.832-.384-1.216 0-.15.032-.32.096-.512s.096-.384.096-.576v-.544c.021-.171.043-.32.064-.448.043-.15.064-.256.064-.32a1.09 1.09 0 0 1 .128-.288c.064-.128.107-.203.128-.224.021-.043.075-.128.16-.256.107-.128.17-.214.192-.256.085-.107.299-.48.64-1.12.341-.64.565-1.003.672-1.088.085-.086.17-.224.256-.416.107-.214.203-.352.288-.416.235-.214.544-.619.928-1.216.405-.619.661-.96.768-1.024.81-.619 1.27-1.142 1.376-1.568-.277 0-.597.138-.96.416-.341.277-.512.544-.512.8-1.344 1.258-2.304 2.538-2.88 3.84a8.24 8.24 0 0 1-.928 1.664c-.043.085-.245.256-.608.512s-.597.49-.704.704c-.064.149-.267.384-.608.704-.32.298-.523.554-.608.768-.341.768-.896 1.418-1.664 1.952-.768.554-1.557.832-2.368.832-.277 0-.523-.032-.736-.096-.192-.064-.373-.203-.544-.416a29.68 29.68 0 0 1-.288-.416c-.043-.043-.15-.224-.32-.544-.192-.342-.288-1.088-.288-2.24 0-.15-.032-.342-.096-.576a4.019 4.019 0 0 1-.064-.64c0-.171.053-.31.16-.416.213-.214.501-1.088.864-2.624.384-1.558.683-2.539.896-2.944.021-.064.096-.192.224-.384a4.47 4.47 0 0 0 .352-.512c.085-.15.107-.235.064-.256-.32-.171-.619 0-.896.512s-.533.768-.768.768c-.192 0-.65.341-1.376 1.024-.725.661-1.195 1.034-1.408 1.12-.704.448-1.27.885-1.696 1.312a3.993 3.993 0 0 1-.736.576c-.256.149-.587.32-.992.512-.384.192-.683.352-.896.48-1.557 1.365-3.51 2.048-5.856 2.048-1.621 0-2.475-.054-2.56-.16-.235-.235-.608-.438-1.12-.608-.512-.192-.875-.406-1.088-.64Zm38.272-16.224c-.064 0-.139-.043-.224-.128-.085-.086-.128-.427-.128-1.024 0-.086.17-.363.512-.832.363-.47.544-.982.544-1.536 0-.214-.16-.32-.48-.32 0-.47.203-.704.608-.704.235 0 .437.138.608.416.192.256.288.49.288.704 0 .341-.203.842-.608 1.504-.064.085-.16.298-.288.64-.128.341-.267.64-.416.896-.128.256-.267.384-.416.384Zm-11.136-.512c0 .085.043.128.128.128h.352c.15 0 .256.032.32.096.043.064.032.16-.032.288a.702.702 0 0 0-.096.192c0 .149.043.224.128.224.192 0 .523-.203.992-.608.49-.427.661-.726.512-.896-.021-.022-.096-.011-.224.032a2.842 2.842 0 0 0-.416.128c-.15.042-.267.064-.352.064-.064 0-.16-.064-.288-.192-.107-.128-.203-.182-.288-.16-.107.042-.256.16-.448.352-.192.192-.288.309-.288.352ZM21.933 45.829c-.256.042-.448.138-.576.288-.107.128-.075.309.096.544a.401.401 0 0 1 .096.16.371.371 0 0 0 .064.096.369.369 0 0 0 .096.064.445.445 0 0 0 .192.032c.256 0 .384-.171.384-.512 0-.171-.032-.331-.096-.48-.043-.15-.128-.214-.256-.192Zm25.024-12.736c-.064-.064-.16-.064-.288 0a.845.845 0 0 0-.32.256c-.085.128-.096.224-.032.288a.398.398 0 0 0 .288.128c.15 0 .267-.064.352-.192.085-.128.085-.288 0-.48ZM28.43 47.429c-.299.298-.32.533-.064.704.128.064.245.053.352-.032.17-.107.181-.31.032-.608-.107-.128-.213-.15-.32-.064Zm-.928-7.04c-.064 0-.128.032-.192.096s-.043.128.064.192a.617.617 0 0 0 .32.096c.427 0 .64-.086.64-.256 0-.043-.117-.064-.352-.064-.021 0-.085-.011-.192-.032a1.486 1.486 0 0 0-.288-.032Zm24.975 9.088c-.043-.192-.064-.8-.064-1.824.021-.214.117-.555.288-1.024.17-.491.267-.854.288-1.088 0-.854.203-1.632.608-2.336.15-.278.416-.427.8-.448l.384.256c.17-.043.288-.128.352-.256a.48.48 0 0 0-.032-.448 1.926 1.926 0 0 0-.16-.128.427.427 0 0 1-.16-.192c.192-.064.341-.032.448.096.106.106.139.245.096.416-.043.234-.181.469-.416.704-.043.042-.043.074 0 .096h.16c.043 0 .021.053-.064.16-.043.042-.075.149-.096.32 0 .149.01.266.032.352.021.106-.021.224-.128.352-.107.128-.15.224-.128.288.085.32.053.533-.096.64-.022.021-.043-.011-.064-.096 0-.086-.022-.118-.064-.096-.15.064-.17.277-.064.64.021.021.064-.011.128-.096.042.106.032.288-.032.544-.064.234-.15.49-.256.768a8.905 8.905 0 0 0-.16.512 4.76 4.76 0 0 1-.128.32c-.192.384-.224.576-.096.576.15 0 .555-.192 1.216-.576.683-.406 1.088-.704 1.216-.896.15-.256.427-.544.832-.864.405-.342.64-.544.704-.608l.32-.32c.213-.192.405-.363.576-.512.17-.15.298-.224.384-.224.106 0 .256-.086.448-.256.192-.192.362-.395.512-.608.15-.214.288-.427.416-.64l.224-.288.768-.832c.362-.363.714-.608 1.056-.736.192-.086.362-.096.512-.032.106.021.181.032.224.032.043-.022.117-.064.224-.128l.256-.128c.533-.128.95-.107 1.248.064.17.106.234.288.192.544 0 .106-.01.17-.032.192a.345.345 0 0 1-.128.064.605.605 0 0 0-.192.032c-.192.064-.448.234-.768.512-.128.106-.363.256-.704.448-.32.192-.544.298-.672.32-.064.021-.363.298-.896.832-.512.512-.832.853-.96 1.024-.107.17-.384.448-.832.832-.427.384-.715.661-.864.832l-2.112 1.952c-.064.128-.245.298-.544.512a5.457 5.457 0 0 0-.608.48c-.086.085-.245.16-.48.224-.213.042-.363.117-.448.224-.277.298-.779.448-1.504.448-.086 0-.16-.064-.224-.192-.043-.128-.107-.182-.192-.16-.15.106-.267.128-.352.064l-.16-.16a.666.666 0 0 1-.032-.256v-.224Zm19.866 1.792a10.45 10.45 0 0 1-2.272-.256 11.967 11.967 0 0 1-2.24-.736 4.882 4.882 0 0 1-1.792-1.408 3.51 3.51 0 0 1-.672-2.112c0-.704.214-1.451.64-2.24.427-.79.864-1.44 1.312-1.952a58.02 58.02 0 0 1 1.92-2.048c.576-.512 1.334-.768 2.272-.768.726 0 1.291.202 1.696.608.256.213.384.533.384.96 0 .533-.192 1.077-.576 1.632-.448.576-1.141 1.226-2.08 1.952-.938.704-1.674 1.194-2.208 1.472-.618.256-.981.384-1.088.384-.149.021-.288-.032-.416-.16s-.224-.192-.288-.192c.064 2.026 1.888 3.125 5.472 3.296.299.021.736.021 1.312 0 .576-.022.96-.032 1.152-.032.662 0 1.206.053 1.632.16.022 0 .299.064.832.192.534.106 1.11.234 1.728.384.619.128 1.302.245 2.048.352.747.106 1.355.16 1.824.16.832 0 1.216-.16 1.152-.48-.021-.128-.106-.47-.256-1.024a28.042 28.042 0 0 1-.352-1.504 7.265 7.265 0 0 1-.096-1.024v-1.152c.022-.384.043-.715.064-.992.022-.299.128-.619.32-.96.192-.342.48-.683.864-1.024.534-.534 1.248-1.131 2.144-1.792.918-.683 1.6-1.024 2.048-1.024.128 0 .192.042.192.128.022.277-.042.522-.192.736-.128.192-.256.33-.384.416a.984.984 0 0 1-.384.16c-.256.042-.49.224-.704.544-.192.298-.32.48-.384.544l-.864.864c-.426.448-.629.672-.608.672-.256-.064-.416-.096-.48-.096-.149.021-.16.096-.032.224.086.106.203.149.352.128.064-.022.096.01.096.096.022.149-.032.234-.16.256-.192.17-.266.48-.224.928.064.426.16.97.288 1.632.15.661.214 1.045.192 1.152-.042.448.022.97.192 1.568.192.576.214 1.088.064 1.536-.128.277-.704.533-1.728.768-1.024.256-1.717.373-2.08.352-3.093-.192-5.312-.555-6.656-1.088-.384-.128-1.056-.192-2.016-.192h-.96Zm-2.976-9.216c-.234.256-.533.693-.896 1.312-.362.597-.501.992-.416 1.184.363.106 1.024-.214 1.984-.96.982-.747 1.611-1.355 1.888-1.824-.213-.107-.608-.086-1.184.064a1.54 1.54 0 0 1-.448 0 1.593 1.593 0 0 0-.544-.032.569.569 0 0 0-.384.256Zm-2.144 3.456a.506.506 0 0 0-.192.32c-.021.128.043.234.192.32.086.021.267-.064.544-.256.278-.214.459-.331.544-.352.278-.064.384-.192.32-.384-.042-.192-.192-.278-.448-.256-.17 0-.256.021-.256.064 0 .042.043.085.128.128.107.021.171.053.192.096.022.021-.032.085-.16.192-.106.064-.256.096-.448.096a.85.85 0 0 0-.416.032ZM88.57 56.293a1.812 1.812 0 0 1-.032-1.056c.043-.128.118-.278.224-.448.086-.15.171-.278.256-.384a5.2 5.2 0 0 1 .288-.416c.128-.15.224-.267.288-.352.235-.342.576-.811 1.024-1.408.47-.598.8-1.024.992-1.28.235-.342.608-.79 1.12-1.344.534-.576.918-1.035 1.152-1.376.064-.086.192-.224.384-.416.214-.192.374-.395.48-.608a.588.588 0 0 0 0-.384c-.021-.171-.096-.374-.224-.608-.106-.256-.16-.395-.16-.416a2.433 2.433 0 0 0-.352-.64 6.646 6.646 0 0 1-.32-.544c-.085-.15-.149-.32-.192-.512a1.068 1.068 0 0 0-.192-.512 1.241 1.241 0 0 1-.128-.352c-.042-.192-.096-.31-.16-.352-.17-.171-.309-.395-.416-.672-.106-.299-.181-.47-.224-.512-.106-.15-.202-.288-.288-.416a2.11 2.11 0 0 0-.192-.32 1.176 1.176 0 0 0-.224-.288.738.738 0 0 0-.192-.096.483.483 0 0 1-.192-.16c-.042-.214-.042-.352 0-.416l.064-.064a.361.361 0 0 0 .128-.128.742.742 0 0 1 .096-.192.369.369 0 0 0 .064-.096c.043-.043.075-.054.096-.032.043.021.107.021.192 0 .235 0 .363.042.384.128.022.064.011.106-.032.128-.042.021-.053.042-.032.064a.957.957 0 0 1 .032.16.372.372 0 0 0 .096.064c.043 0 .086.021.128.064.022.021.118.085.288.192.192.085.32.16.384.224.576.682 1.174 1.77 1.792 3.264.086.213.192.512.32.896s.246.682.352.896c.107.213.224.373.352.48.064.042.544-.459 1.44-1.504.15-.256.406-.502.768-.736.278-.171.715-.47 1.312-.896.043-.022.075-.075.096-.16.043-.107.086-.15.128-.128.086 0 .15-.043.192-.128.043-.107.086-.16.128-.16l.128.32a.434.434 0 0 0 .096-.224c.022-.128.043-.224.064-.288l.064-.192c.043-.086.086-.139.128-.16l.096-.032a.483.483 0 0 0 .128-.096c.064-.064.107-.096.128-.096a.136.136 0 0 1 .128 0c.022.021.032.053.032.096v.064c-.021.042-.01.053.032.032.022-.022.043-.075.064-.16.043-.086.086-.139.128-.16a1.406 1.406 0 0 0-.032.256c.022.064.064.085.128.064.043-.022.086-.075.128-.16a.762.762 0 0 1 .096-.192c.043-.043.086-.032.128.032.022.042.022.16 0 .352 0 .17.032.266.096.288l.032-.064c.022-.086.043-.107.064-.064.043.064.032.117-.032.16a.687.687 0 0 1-.256.128 2.398 2.398 0 0 0-.256.096 1.518 1.518 0 0 1-.16.096c-.021 0-.053.021-.096.064-.021.021-.032.042-.032.064l-.032.128c0 .064-.01.117-.032.16h.064c-.021.106-.128.192-.32.256s-.288.128-.288.192c0 .17-.021.298-.064.384-.021.085-.085.181-.192.288-.085.085-.149.16-.192.224l-.768.768c-.149.106-.533.501-1.152 1.184-.597.661-1.002 1.13-1.216 1.408a.467.467 0 0 1-.224.16.41.41 0 0 0-.256.16c-.064.17-.149.32-.256.448-.064.085-.17.17-.32.256a.783.783 0 0 0-.288.352c0 .021-.309.362-.928 1.024-.618.661-.96 1.002-1.024 1.024-.192.064-.394.234-.608.512-.213.277-.437.597-.672.96-.213.384-.362.64-.448.768-.042.064-.266.288-.672.672-.384.384-.608.661-.672.832a1.15 1.15 0 0 0-.096.288.523.523 0 0 1-.064.288c-.064.085-.17.234-.32.448a4.54 4.54 0 0 1-.416.512c-.064.064-.117.181-.16.352-.042.17-.085.288-.128.352-.128.234-.33.117-.608-.352a2.237 2.237 0 0 1-.16-.32Zm13.408-14.464a.472.472 0 0 0-.128-.224 1.969 1.969 0 0 1-.096-.224c.107 0 .182-.022.224-.064a.398.398 0 0 1-.064-.096l-.032-.032c.043-.043.064-.054.064-.032.022 0 .054.021.096.064a.524.524 0 0 0 .128.032c0-.064-.021-.107-.064-.128-.042-.043-.064-.075-.064-.096a.194.194 0 0 1 .128-.128c.192.234.32.352.384.352l-.032-.288h.128c0 .064.032.117.096.16.064.021.086.064.064.128a.96.96 0 0 1-.224.32c-.106.106-.192.149-.256.128-.021-.022-.042-.086-.064-.192a4.855 4.855 0 0 0-.064-.064.707.707 0 0 0-.128.224l-.032.16c0 .106-.021.106-.064 0Zm-.672 0c-.085.128 0 .234.256.32a.435.435 0 0 0 .032-.192c-.021 0-.053-.022-.096-.064-.042-.043-.085-.064-.128-.064-.021-.022-.042-.022-.064 0Zm-.832.416c-.021.021-.032.053-.032.096 0 .042.011.085.032.128.022.021.043.032.064.032.022-.022.054-.022.096 0 .043.021.064.01.064-.032l-.032-.224c-.042-.043-.106-.043-.192 0Zm2.496-1.216a.672.672 0 0 1-.032-.256c.192 0 .224.096.096.288-.042.085-.064.074-.064-.032Zm-.544-.064a1.331 1.331 0 0 1-.096-.256c.128-.043.192-.022.192.064a.783.783 0 0 1-.096.192Zm-2.048 1.92c0 .106.022.17.064.192.022.021.054.01.096-.032.022-.086.011-.139-.032-.16-.021-.022-.064-.022-.128 0Zm1.44-1.632-.256-.064c.043 0 .075-.022.096-.064.043-.064.096-.086.16-.064v.192Zm1.312-.8c0-.128.011-.235.032-.32l.032.064c.086.17.064.256-.064.256Zm-1.504 1.376c.064-.064.054-.118-.032-.16-.021 0-.042-.011-.064-.032.022.149.054.213.096.192Z"/></svg>