<svg xmlns="http://www.w3.org/2000/svg" fill="none" viewBox="0 0 14 14"><g clip-path="url(#a)"><path fill="#90B96C" d="M5.656 2.434c.55-1.115 2.14-1.115 2.69 0l.449.91a1.5 1.5 0 0 0 1.129.82l1.004.146c1.23.178 1.721 1.69.831 2.558l-.726.708a1.5 1.5 0 0 0-.432 1.328l.172 1c.21 1.225-1.076 2.16-2.177 1.58l-.897-.471a1.5 1.5 0 0 0-1.396 0l-.898.472c-1.1.578-2.387-.356-2.177-1.582l.172-1a1.5 1.5 0 0 0-.431-1.327l-.727-.708c-.89-.868-.399-2.38.832-2.558l1.003-.146a1.5 1.5 0 0 0 1.13-.82l.449-.91Z"/></g><defs><clipPath id="a"><path fill="#fff" d="M0 0h14v14H0z"/></clipPath></defs></svg>