<svg xmlns="http://www.w3.org/2000/svg" fill="none" viewBox="0 0 246 22"><path fill="#fff" d="M.238 18.22a.514.514 0 0 1 .026-.364c.035-.121.095-.251.182-.39s.147-.251.182-.338a.56.56 0 0 1 .13-.494c.139-.156.225-.295.26-.416.121-.728.563-1.76 1.326-3.094.763-1.352 1.213-2.236 1.352-2.652a.952.952 0 0 0 .052-.234c.035-.121.06-.208.078-.26.035-.07.07-.165.104-.286.052-.139.095-.234.13-.286.052-.052.113-.121.182-.208.07-.104.139-.147.208-.13.07.017.156.026.26.026.104-.052.095-.095-.026-.13-.139-.035-.225-.078-.26-.13a.596.596 0 0 1-.052-.182l.078-.234c.052-.121.087-.2.104-.234.121-.468.225-.702.312-.702.035 0 .078.06.13.182.052.017.095.017.13 0l.156-.104a.558.558 0 0 1 .13-.104c.139 0 .234-.026.286-.078a.453.453 0 0 1 .234-.13c.035.087.017.173-.052.26a.57.57 0 0 0-.078.156v.286a.779.779 0 0 1 0 .286c-.052.225-.139.399-.26.52-.087.017-.13.113-.13.286.017.173.026.277.026.312-.052.347-.19.789-.416 1.326-.208.537-.33.884-.364 1.04.139 0 .286-.035.442-.104.052-.017.147-.009.286.026.139.035.234.052.286.052.017 0 .165-.017.442-.052.277-.052.494-.104.65-.156.156-.07.26-.156.312-.26.087-.121.234-.234.442-.338.07-.017.165-.035.286-.052.122-.035.217-.07.286-.104.399-.19.832-.52 1.3-.988.485-.485.85-.945 1.092-1.378.156-.295.19-.737.104-1.326-.07-.485-.2-.936-.39-1.352-.19-.433-.46-.936-.806-1.508a36.75 36.75 0 0 1-.754-1.404c-.034-.07-.078-.113-.13-.13a.446.446 0 0 0-.182-.026h-.182a1.367 1.367 0 0 1-.208-.13c-.07-.07-.121-.095-.156-.078h-.234a7.546 7.546 0 0 0-.572-.104c-.173 0-.373.07-.598.208l-.572.312a1.425 1.425 0 0 0-.182.078c-.07.017-.113.035-.13.052a.775.775 0 0 0-.078.104c-.035.035-.026.087.026.156.052.173-.295.347-1.04.52a.426.426 0 0 0-.104.026 9.43 9.43 0 0 1-.286.078.327.327 0 0 0-.182.13.281.281 0 0 0-.052.234c.017.07.035.078.052.026.017-.052.035-.078.052-.078.104.156.173.364.208.624-.035.087-.078.139-.13.156a.11.11 0 0 1-.104 0 .17.17 0 0 1-.078-.078l-.052-.026.052-.26c-.052 0-.121.052-.208.156-.035.035-.052.087-.052.156a.362.362 0 0 1-.156-.026.2.2 0 0 1-.026-.078v-.13a.428.428 0 0 0 .026-.13c.07 0 .113-.009.13-.026a.11.11 0 0 0 0-.104c-.017-.052-.009-.095.026-.13l.416-.624c.433-.052.676-.104.728-.156.017-.017.052-.026.104-.026a.446.446 0 0 0 .13-.13.405.405 0 0 1-.208-.208.442.442 0 0 1 .052-.286l.208-.312.26-.312a1.5 1.5 0 0 0 .156-.208c.416-.59 1.127-.901 2.132-.936 0 .156.026.234.078.234a.823.823 0 0 0 .182-.078.538.538 0 0 1 .312-.052c.243.035.537.173.884.416.208.156.416.355.624.598a9.3 9.3 0 0 1 .494.572c.121.156.269.416.442.78.19.364.304.598.338.702.052.087.174.347.364.78l.286.676c.243.243.364.667.364 1.274 0 .503.009.797.026.884a.561.561 0 0 1-.13.494c-.121.139-.19.269-.208.39-.017.19-.07.381-.156.572a2.177 2.177 0 0 1-.26.416c-.07.104-.19.26-.364.468-.173.19-.295.32-.364.39-.121.156-.364.347-.728.572-.347.208-.563.381-.65.52a4.233 4.233 0 0 0-.546.312c-.243.156-.45.26-.624.312a4.854 4.854 0 0 0-.494.26c-.19.104-.32.173-.39.208a1.17 1.17 0 0 1-.104-.156.176.176 0 0 1 .182-.182c.052-.017.113-.035.182-.052.087-.035.147-.06.182-.078a.282.282 0 0 1 .104-.052c.052-.017.095-.035.13-.052l.104-.052a.78.78 0 0 0 .104-.078l.104-.052.078-.078a.2.2 0 0 0 .026-.078c.018-.035.018-.06 0-.078a.23.23 0 0 0-.026-.104c-.867.243-1.413.373-1.638.39-.208 0-.442.147-.702.442-.017.017-.243.078-.676.182-.173.035-.208.104-.104.208.104 0 .165.06.182.182-.07.017-.251.052-.546.104-.295.052-.52.087-.676.104a.589.589 0 0 0-.156.364 1.16 1.16 0 0 1-.104.39c-.277.45-.59 1.066-.936 1.846-.347.763-.633 1.326-.858 1.69-.035.07-.147.243-.338.52-.173.277-.303.494-.39.65a3.821 3.821 0 0 1-.416.026.466.466 0 0 1-.26-.13c-.07-.087-.13-.225-.182-.416ZM3.462 5.948c-.139 0-.277-.026-.416-.078-.121-.052-.121-.139 0-.26.121.121.208.147.26.078-.208-.173-.243-.442-.104-.806.035.035.121.095.26.182s.225.173.26.26c.087.156.104.251.052.286-.035.035-.095.043-.182.026-.087-.035-.13-.017-.13.052.035 0 .087.017.156.052 0 .035-.017.07-.052.104-.035.035-.052.06-.052.078l.234.104a.415.415 0 0 1-.182.234c0-.035-.026-.078-.078-.13-.035-.07-.043-.13-.026-.182Zm1.586.884c-.052-.035-.035-.165.052-.39-.017-.121.009-.19.078-.208a.694.694 0 0 0 .182-.13c.364.121.485.33.364.624-.07-.035-.121-.113-.156-.234-.017-.087-.07-.087-.156 0-.035.035-.043.078-.026.13.035.035.043.07.026.104-.07.052-.121.043-.156-.026-.017-.07-.087-.026-.208.13Zm.26 6.24c-.017-.139.06-.234.234-.286.19-.052.407-.078.65-.078.243-.017.399-.052.468-.104.052.087.087.156.104.208-.156 0-.425.043-.806.13-.381.087-.598.13-.65.13ZM3.15 6.364c-.104-.087-.121-.173-.052-.26.121-.017.2-.017.234 0 .035.017.043.07.026.156a.253.253 0 0 0-.13.052c-.035.035-.06.052-.078.052Zm2.21.988c-.19-.07-.19-.121 0-.156.087.07.087.121 0 .156Zm-1.95-.936c-.017-.035-.017-.052 0-.052a.11.11 0 0 1 .104 0c.087.035.139.07.156.104-.139 0-.225-.017-.26-.052Zm9.867 11.986a.924.924 0 0 1-.416.104c-.26 0-.451-.104-.572-.312-.104-.208-.078-.477.078-.806.104-.208.294-.494.572-.858a7.38 7.38 0 0 0 .572-.832c.12-.208.294-.381.52-.52.242-.139.398-.251.468-.338.052-.052.086-.156.104-.312.017-.156 0-.234-.052-.234a.2.2 0 0 0-.078.026.29.29 0 0 1-.13.026.293.293 0 0 1-.104-.104c-.122-.19-.035-.442.26-.754.312-.312.589-.407.832-.286.26.156.364.364.312.624-.07.312-.026.468.13.468.138 0 .338-.095.598-.286.069-.052.338-.139.806-.26.485-.139.78-.2.884-.182.086.035.208.104.364.208.173.087.294.139.364.156.26.07.65.2 1.17.39.537.19 1.005.338 1.404.442.398.104.754.156 1.066.156.19 0 .38-.026.572-.078.138-.052.277-.147.416-.286.138-.139.277-.303.416-.494.156-.19.277-.33.364-.416.433-.433 1.083-.65 1.95-.65.416 0 .719.06.91.182.208.121.346.373.416.754a.67.67 0 0 1-.052.364.936.936 0 0 1-.26.338 7.737 7.737 0 0 1-.39.312 3.781 3.781 0 0 1-.494.286c-.191.104-.347.19-.468.26a57.93 57.93 0 0 1-.494.208 3.014 3.014 0 0 0-.39.182l-.416.13a2.783 2.783 0 0 0-.572.208c-.156.07-.26.156-.312.26-.122.225.034.555.468.988.433.433.814.745 1.144.936.242.121.468.225.676.312.225.087.459.165.702.234.26.07.468.121.624.156.173.035.416.078.728.13.329.07.563.121.702.156.086.017.563.017 1.43 0 .866 0 1.326-.009 1.378-.026.017-.017.086 0 .208.052.138.052.225.06.26.026 0-.052-.035-.095-.104-.13.104-.035.225-.052.364-.052.086 0 .043.07-.13.208-.174.156-.27.277-.286.364 0 .104-.113.173-.338.208-.208.052-.494.078-.858.078-.347.017-.555.026-.624.026l-.442.104c-.312.087-.564.121-.754.104l-1.04-.13a28.17 28.17 0 0 1-1.69-.26c-.434-.087-.928-.251-1.482-.494-.555-.225-1.014-.52-1.378-.884-.208-.208-.416-.58-.624-1.118-.191-.555-.27-.988-.234-1.3-.14-.07-.234-.104-.286-.104-.416 0-.876-.07-1.378-.208a18.9 18.9 0 0 1-1.586-.598c-.572-.243-.98-.399-1.222-.468-.364-.104-1.127.2-2.288.91a5.94 5.94 0 0 0-.598.416 3.674 3.674 0 0 0-.52.52 12.6 12.6 0 0 1-.364.468c-.07.104-.208.32-.416.65-.191.33-.321.546-.39.65Zm11.362-4.03c-.382.295-.468.442-.26.442.12 0 .286-.035.494-.104.277-.052.39-.173.338-.364-.018-.104-.087-.156-.208-.156-.122 0-.243.06-.364.182Zm7.696 5.538c-.104-.017-.13-.07-.078-.156h.13a.427.427 0 0 0-.026-.104c-.018-.052-.01-.078.026-.078.017 0 .052-.043.104-.13.069-.07.138-.095.208-.078.277.121.312.269.104.442-.14.104-.295.139-.468.104Zm-1.008-2.678c-.174-.017-.33-.113-.468-.286-.122-.19-.174-.32-.156-.39.087-.728.45-1.395 1.092-2.002.104-.087.164-.286.182-.598.034-.33.138-.529.312-.598.104-.052.216-.043.338.026.121.07.2.078.234.026.052-.07-.026-.147-.234-.234-.19-.104-.234-.208-.13-.312.087-.087.208-.06.364.078.156.139.269.208.338.208.087 0 .165-.052.234-.156.121-.139.078-.286-.13-.442-.19-.156-.26-.251-.208-.286.139-.173.286-.217.442-.13.433.208.598.563.494 1.066-.087.485-.338.832-.754 1.04-.121.07-.174.165-.156.286a1.1 1.1 0 0 1 0 .338c-.052.087-.19.26-.416.52-.208.243-.32.442-.338.598.156 0 .33-.035.52-.104.19-.087.407-.19.65-.312.26-.139.425-.225.494-.26.763-.277 1.274-.494 1.534-.65.294-.19.815-.355 1.56-.494a11.414 11.414 0 0 1 2.08-.208c1.265 0 1.898.373 1.898 1.118 0 .087-.104.546-.312 1.378.26 0 .59-.087.988-.26.398-.173.702-.26.91-.26.312-.017.754-.147 1.326-.39.572-.243 1.031-.355 1.378-.338.225.017.71-.078 1.456-.286.745-.225 1.291-.338 1.638-.338.381 0 .676.104.884.312.26.208.32.563.182 1.066-.139.503-.165.84-.078 1.014.294.624.832.936 1.612.936.26 0 .528-.052.806-.156.139-.035.416-.234.832-.598.433-.364.762-.546.988-.546.139 0 .208.052.208.156 0 .33-.347.789-1.04 1.378-.676.572-1.474.858-2.392.858-.624 0-1.057-.13-1.3-.39-.59-.641-.884-1.309-.884-2.002 0-.121.017-.39.052-.806-.416-.139-1.248-.009-2.496.39-1.248.381-1.993.59-2.236.624-1.474.468-2.487.702-3.042.702-.988 0-1.36-.442-1.118-1.326a1.35 1.35 0 0 1 .182-.286c.104-.139.173-.251.208-.338.035-.104.017-.225-.052-.364a21.265 21.265 0 0 0-1.222-.026c-.416 0-.728.009-.936.026-.19.017-.477.121-.858.312-.381.173-.676.251-.884.234-.26-.017-.806.243-1.638.78-.815.537-1.378.737-1.69.598-.07-.035-.26-.017-.572.052-.312.052-.538.07-.676.052Zm23.48 1.69c-.12-.381-.19-.59-.207-.624 0-.052.052-.26.156-.624.121-.243.286-.615.494-1.118.225-.503.424-.936.598-1.3.19-.381.39-.72.598-1.014.156-.243.26-.485.312-.728.069-.26.086-.45.052-.572a.605.605 0 0 1 .026-.312c.017-.035.034-.121.052-.26.034-.156.086-.269.156-.338a.468.468 0 0 1 .364-.182c.121 0 .251.043.39.13.069.035.121.07.156.104.034.035.052.07.052.104.017.035.026.07.026.104a.427.427 0 0 1-.026.104v.156c0 .052.034.06.104.026.017-.017.034-.026.052-.026h.052c.017.017.017.06 0 .13 0 .07-.026.156-.078.26a.38.38 0 0 1-.13.182c-.035.035-.035.078 0 .13.052.052.069.095.052.13a.294.294 0 0 1-.104.104.406.406 0 0 0-.104.078.406.406 0 0 0-.104.078l-.078.078a.2.2 0 0 0 .026.078c.017.017.043.017.078 0a.2.2 0 0 1 .078-.026c.034-.017.052-.009.052.026 0 .19-.035.399-.104.624-.07.225-.148.407-.234.546-.07.121-.182.312-.338.572-.139.26-.234.433-.286.52a3.961 3.961 0 0 0-.416 1.066l-.494 1.014a1.71 1.71 0 0 0-.13.39c-.035.156-.061.286-.078.39a.662.662 0 0 1-.156.312.716.716 0 0 1-.312.286c-.104.052-.217 0-.338-.156a1.441 1.441 0 0 1-.208-.442Zm6.683-14.43c-.087-.035-.13-.087-.13-.156 0-.07.017-.147.052-.234a.85.85 0 0 0 .052-.208c-.07-.815.095-1.37.494-1.664a.839.839 0 0 1 .468-.156c.104 0 .242.043.416.13.104.07.26.156.468.26.208.087.346.147.416.182.104.052.173.13.208.234.034.104.069.173.104.208.19.121.225.295.104.52-.052.087-.104.13-.156.13-.035 0-.113-.052-.234-.156-.122-.104-.217-.147-.286-.13-.035 0-.061.026-.078.078 0 .035-.026.043-.078.026-.035-.017-.07-.07-.104-.156-.035-.087-.078-.139-.13-.156a.253.253 0 0 0-.13.052.11.11 0 0 1-.104 0 .326.326 0 0 1-.078-.13c-.018-.07-.009-.113.026-.13a.23.23 0 0 1 .104.026c.034 0 .06.009.078.026.017.017.034.017.052 0 .034-.035.043-.104.026-.208 0-.104-.026-.165-.078-.182-.052-.035-.104-.009-.156.078-.052.087-.096.13-.13.13a.23.23 0 0 1-.104-.026l-.052-.104-.052-.104c-.018-.035-.044-.052-.078-.052-.018 0-.044.026-.078.078-.156.156-.2.243-.13.26h.182c.086 0 .138.009.156.026.121.104.156.208.104.312a.405.405 0 0 1-.208.208l-.416.104a.552.552 0 0 0-.312.312.603.603 0 0 1-.13.26c-.018.017-.018.078 0 .182.034.104.026.156-.026.156-.018 0-.035-.009-.052-.026Zm.416.65a.233.233 0 0 1-.156-.13c-.018-.087.017-.147.104-.182.156-.087.234-.052.234.104-.07.139-.13.208-.182.208Zm.182 0a.302.302 0 0 0 .052-.078l.078-.078c.104-.052.156-.017.156.104 0 .087-.096.104-.286.052Zm-1.892 11.492c0-.087.035-.338.104-.754.07-.416.13-.693.182-.832.087-.208.277-.572.572-1.092.295-.537.494-.84.598-.91.035-.017.165-.147.39-.39.243-.243.425-.39.546-.442.07-.017.104-.19.104-.52 0-.347.017-.529.052-.546.087-.035.156-.009.208.078a.66.66 0 0 1 .156.312c.173 1.161-.139 2.097-.936 2.808l-.65 1.3c-.173.399-.251.676-.234.832.07.225.208.338.416.338.052 0 .225-.06.52-.182.295-.139.468-.234.52-.286.035-.035.121-.035.26 0 .156.035.26.026.312-.026.139-.173.416-.381.832-.624s.702-.46.858-.65c.087-.087.416-.243.988-.468.572-.225.867-.347.884-.364.173-.19.477-.45.91-.78.45-.347.754-.52.91-.52.07 0 .234-.078.494-.234.277-.156.494-.234.65-.234.33 0 .529.2.598.598.035.19-.104.485-.416.884-.295.381-.52.615-.676.702-.173.087-.399.347-.676.78-.26.416-.52.65-.78.702 0-.052.043-.121.13-.208a.523.523 0 0 0 .156-.286c-.173-.121-.407-.182-.702-.182-.07 0-.19.06-.364.182-.035.07-.121.07-.26 0a1.304 1.304 0 0 0-.234-.104c-.104 0-.251.043-.442.13-.052.052-.286.225-.702.52-.416.295-.641.468-.676.52-.139.156-.373.277-.702.364-.33.07-.537.13-.624.182-.676.416-1.092.624-1.248.624-.745 0-1.274-.078-1.586-.234-.295-.156-.442-.485-.442-.988Zm6.63.884c-.017-.121.043-.269.182-.442.156-.173.251-.303.286-.39.104-.347.277-.52.52-.52.07.087.104.173.104.26.017.087-.009.19-.078.312a.56.56 0 0 0-.104.312c.225 0 .46-.087.702-.26.26-.19.511-.286.754-.286.364 0 .546.078.546.234 0 .139-.19.303-.572.494-.173.087-.364.26-.572.52-.208.26-.399.39-.572.39-.33 0-.607-.06-.832-.182-.208-.139-.33-.286-.364-.442Zm1.066-3.068c-.087 0-.234.078-.442.234-.19.156-.277.277-.26.364.017.087.147.13.39.13.59 0 1.057-.399 1.404-1.196a.727.727 0 0 0-.182-.104c-.052 0-.13.104-.234.312-.087.19-.251.286-.494.286a.577.577 0 0 1-.182-.026Zm4.79 2.782c-.173-.017-.33-.113-.468-.286-.121-.19-.173-.32-.156-.39.087-.728.45-1.395 1.092-2.002.104-.087.165-.286.182-.598.035-.33.139-.529.312-.598.104-.052.217-.043.338.026.121.07.2.078.234.026.052-.07-.026-.147-.234-.234-.19-.104-.234-.208-.13-.312.087-.087.208-.06.364.078.156.139.269.208.338.208.087 0 .165-.052.234-.156.121-.139.078-.286-.13-.442-.19-.156-.26-.251-.208-.286.139-.173.286-.217.442-.13.433.208.598.563.494 1.066-.087.485-.338.832-.754 1.04-.121.07-.173.165-.156.286.017.104.017.217 0 .338-.052.087-.19.26-.416.52-.208.243-.32.442-.338.598.156 0 .33-.035.52-.104.19-.087.407-.19.65-.312.26-.139.425-.225.494-.26.763-.277 1.274-.494 1.534-.65.295-.19.815-.355 1.56-.494a11.413 11.413 0 0 1 2.08-.208c1.265 0 1.898.373 1.898 1.118 0 .087-.104.546-.312 1.378.26 0 .59-.087.988-.26.399-.173.702-.26.91-.26.312-.017.754-.147 1.326-.39.572-.243 1.031-.355 1.378-.338.225.017.71-.078 1.456-.286.745-.225 1.291-.338 1.638-.338.381 0 .676.104.884.312.26.208.32.563.182 1.066-.139.503-.165.84-.078 1.014.295.624.832.936 1.612.936.26 0 .529-.052.806-.156.139-.035.416-.234.832-.598.433-.364.763-.546.988-.546.139 0 .208.052.208.156 0 .33-.347.789-1.04 1.378-.676.572-1.473.858-2.392.858-.624 0-1.057-.13-1.3-.39-.59-.641-.884-1.309-.884-2.002 0-.121.017-.39.052-.806-.416-.139-1.248-.009-2.496.39-1.248.381-1.993.59-2.236.624-1.473.468-2.487.702-3.042.702-.988 0-1.36-.442-1.118-1.326.017-.052.078-.147.182-.286a1.62 1.62 0 0 0 .208-.338c.035-.104.017-.225-.052-.364a21.267 21.267 0 0 0-1.222-.026c-.416 0-.728.009-.936.026-.19.017-.477.121-.858.312-.381.173-.676.251-.884.234-.26-.017-.806.243-1.638.78-.815.537-1.378.737-1.69.598-.07-.035-.26-.017-.572.052-.312.052-.537.07-.676.052Zm31.593.416c-.052 0-.078-.095-.078-.286 0-.19.069-.347.208-.468.156-.139.303-.225.442-.26.156-.035.364-.078.624-.13.035 0 .052.026.052.078a.414.414 0 0 1-.052.182.414.414 0 0 0-.052.182c.069 0 .147-.043.234-.13a.974.974 0 0 0 .182-.312c.555-.121 1.04-.433 1.456-.936.433-.503.797-.797 1.092-.884.121-.33.459-.676 1.014-1.04.555-.364.867-.702.936-1.014.433-.364.971-.919 1.612-1.664.641-.745 1.066-1.222 1.274-1.43.139-.139.364-.32.676-.546.312-.225.546-.416.702-.572a8.724 8.724 0 0 1 1.04-.988c.069-.052.147-.147.234-.286.087-.156.165-.269.234-.338.52-.45.893-.789 1.118-1.014a51.434 51.434 0 0 1 2.886-2.652c.035-.035.208-.19.52-.468.329-.295.537-.477.624-.546.104-.087.303-.243.598-.468.295-.243.52-.407.676-.494.173-.087.39-.19.65-.312.26-.139.503-.234.728-.286.243-.052.477-.078.702-.078.607 0 .91.33.91.988 0 .867-.199 1.577-.598 2.132a.452.452 0 0 0-.026.182c0 .277-.147.85-.442 1.716-.277.85-.503 1.378-.676 1.586-.641.78-.962 1.283-.962 1.508 0 .295.286.442.858.442.329 0 .581-.078.754-.234.173-.156.399-.295.676-.416.295-.139.511-.26.65-.364.191-.139.477-.33.858-.572.381-.26.711-.494.988-.702.295-.208.555-.416.78-.624a.43.43 0 0 1 .104.026l.052.026c.052 0 .156-.078.312-.234.173-.156.355-.33.546-.52.191-.208.329-.338.416-.39.139-.087.355-.225.65-.416.295-.19.52-.33.676-.416.156-.087.355-.19.598-.312.26-.121.52-.2.78-.234.26-.052.546-.078.858-.078.121.052.243.173.364.364a1 1 0 0 1 .182.832 2.283 2.283 0 0 1-.078.286 1.657 1.657 0 0 1-.052.234 4.686 4.686 0 0 0-.104.676c-.017.33-.052.572-.104.728-.78 2.097-1.699 3.761-2.756 4.992-.832.988-1.43 1.855-1.794 2.6-.347.728-.52 1.664-.52 2.808 0 .381.165.71.494.988.347.277.711.416 1.092.416.243 0 .459-.035.65-.104.017 0 .182-.06.494-.182a8.857 8.857 0 0 0 1.04-.468c.381-.19.607-.355.676-.494v-.572c0-.139-.035-.243-.104-.312.104-.884.494-1.534 1.17-1.95.052-.45.364-.91.936-1.378.589-.485 1.17-.728 1.742-.728.191 0 .364.035.52.104a1.22 1.22 0 0 0 .234-.26 2.19 2.19 0 0 1 .286-.286.64.64 0 0 1 .364-.104c.451 0 .676.234.676.702 0 .035-.061.165-.182.39-.104.225-.243.503-.416.832-.156.312-.269.555-.338.728 0 .208-.069.555-.208 1.04-.139.485-.208.858-.208 1.118 0 .173.043.364.13.572.104.208.156.381.156.52.087.017.225.035.416.052.191 0 .338.009.442.026.104.017.225.043.364.078a.555.555 0 0 1 .312.182c.069.07.121.165.156.286a2.214 2.214 0 0 1-.494.13 1.701 1.701 0 0 0-.442.078c-.069.017-.191.07-.364.156a.983.983 0 0 1-.364.104c-.381 0-.737-.208-1.066-.624-.312-.433-.468-.858-.468-1.274 0-.121.035-.295.104-.52.087-.243.13-.416.13-.52 0-.173-.026-.277-.078-.312-.069-.035-.199.043-.39.234-.173.19-.399.45-.676.78-.26.33-.477.572-.65.728-.035.035-.191.121-.468.26-.26.139-.407.303-.442.494-1.213 1.11-2.375 1.664-3.484 1.664-.468 0-.884-.06-1.248-.182a1.888 1.888 0 0 1-.832-.546 8.033 8.033 0 0 1-.468-.702c-.121-.208-.208-.485-.26-.832a34.472 34.472 0 0 0-.078-.754v-.676l.078-.156c.035-.087.087-.2.156-.338.069-.139.139-.286.208-.442a2.52 2.52 0 0 0 .156-.468c.052-.156.078-.286.078-.39 0-.139.061-.269.182-.39a.694.694 0 0 0 .182-.468c0-.121.277-.477.832-1.066.572-.59.858-1.049.858-1.378l-.026-.052a.438.438 0 0 1-.026-.13c.017-.07.035-.104.052-.104l.052.026a.427.427 0 0 0 .13.026c.069 0 .104-.035.104-.104a.175.175 0 0 0-.052-.13.25.25 0 0 1-.052-.13c.555-1.144 1.092-1.993 1.612-2.548a.423.423 0 0 0-.052-.234c.121-.173.225-.39.312-.65a5 5 0 0 0 .182-.78c.052-.243.095-.399.13-.468 0-.017.035-.07.104-.156.069-.087.104-.165.104-.234a.294.294 0 0 0-.026-.13c-.399.07-.806.217-1.222.442-.399.225-.78.485-1.144.78-.347.295-.537.45-.572.468-.017.017-.338.234-.962.65-.104.07-.338.2-.702.39-.364.19-.615.373-.754.546-.555.277-.962.546-1.222.806-.763.797-1.777 1.196-3.042 1.196-.139 0-.225-.078-.26-.234-.017-.156-.078-.234-.182-.234-.017 0-.026.026-.026.078 0 .052-.017.078-.052.078a.495.495 0 0 1-.416-.208.911.911 0 0 1-.13-.442c0-.225.095-.555.286-.988.191-.45.277-.875.26-1.274l.156-.312c.087-.225.199-.46.338-.702.139-.26.26-.416.364-.468.035-.433.078-.745.13-.936 0-.017.069-.269.208-.754.156-.485.277-.919.364-1.3.087-.381.13-.659.13-.832-.416.173-.962.511-1.638 1.014-.676.503-1.257.962-1.742 1.378-.485.416-1.127.98-1.924 1.69-.78.71-1.231 1.127-1.352 1.248-.035.035-.217.2-.546.494-.329.295-.65.59-.962.884-.295.295-.581.59-.858.884-.26.295-.39.494-.39.598l-.13.13a3.95 3.95 0 0 1-.286.312 2.6 2.6 0 0 0-.234.26c-1.213 1.473-2.106 2.392-2.678 2.756-.035.017-.243.2-.624.546-.364.347-.676.563-.936.65l-.104.156a3.754 3.754 0 0 1-.26.39 1.81 1.81 0 0 1-.364.364.895.895 0 0 1-.442.182 1.582 1.582 0 0 0-.338.468c-.173.052-.399.243-.676.572-.26.312-.537.477-.832.494-.381.607-1.014.91-1.898.91-.225 0-.373-.095-.442-.286-.052-.208-.104-.312-.156-.312a.203.203 0 0 0-.078.026h-.026Zm30.862-3.822c-.035-.035-.095-.052-.182-.052s-.165.043-.234.13a.418.418 0 0 0-.104.26c0 .104.026.156.078.156.017 0 .043-.017.078-.052a.251.251 0 0 1 .13-.052l.078.052c.069.052.13.113.182.182.069.07.104.139.104.208 0 .07-.052.113-.156.13-.104 0-.156.026-.156.078.052.121.113.2.182.234a.254.254 0 0 0 .156-.104.901.901 0 0 0 .078-.234c.035-.104.069-.19.104-.26.052-.087.173-.182.364-.286.191-.104.329-.208.416-.312.104-.121.104-.251 0-.39-.017-.017-.078-.026-.182-.026-.139 0-.303.06-.494.182-.191.104-.338.156-.442.156Zm-.13 1.638c.087-.087.095-.165.026-.234-.069-.07-.139-.104-.208-.104-.208 0-.312.13-.312.39.017 0 .052.017.104.052a.492.492 0 0 0 .156.026c.087 0 .165-.043.234-.13Zm-29.016 1.508c-.26.052-.416.19-.468.416.104 0 .191.07.26.208.087.121.165.182.234.182a.492.492 0 0 0 .156-.026c-.156-.243-.234-.416-.234-.52 0-.07.017-.156.052-.26Zm.546-.26c-.017.07-.061.165-.13.286a.509.509 0 0 0-.104.26c0 .052.035.078.104.078h.182a.676.676 0 0 1 .208-.026c0-.347-.087-.546-.26-.598Zm35.104-6.864c-.104-.399-.017-.71.26-.936.295-.225.65-.338 1.066-.338.226 0 .442.043.65.13a.249.249 0 0 1-.104.13c-.052.035-.112.07-.182.104a.617.617 0 0 0-.156.104c-.034.035-.13.043-.286.026a.806.806 0 0 0-.546.156c-.156.104-.173.225-.052.364.035.035.113.035.234 0 .122-.052.2-.052.234 0 .035.035.052.07.052.104a.3.3 0 0 0 .104.104c.07.052.373.234.91.546.659.45 1.162.676 1.508.676.278 0 .477-.113.598-.338.018-.07.122-.243.312-.52.191-.277.399-.572.624-.884.243-.33.382-.52.416-.572.052-.104.208-.407.468-.91.26-.52.503-.919.728-1.196l.832-1.04c.139-.156 1.136-1.456 2.99-3.9l.39-.52c.07-.104.182-.156.338-.156.191 0 .33.06.416.182.174.277.208.46.104.546-.017.017-.034.017-.052 0a.408.408 0 0 0-.026-.13.742.742 0 0 0-.052-.156c-.017-.035-.112-.052-.286-.052a4.46 4.46 0 0 0-.26.546c-.017.07-.017.121 0 .156a.29.29 0 0 0 .13.026c.052 0 .087.009.104.026.035.017.044.052.026.104-.086.225-.268.555-.546.988a19.9 19.9 0 0 0-.52.806c-.208.364-.632.953-1.274 1.768-.641.815-1.04 1.387-1.196 1.716-.19.399-.398.78-.624 1.144-.208.347-.468.737-.78 1.17-.312.433-.537.754-.676.962-.312.399-.45.624-.416.676.104.121.26.2.468.234.174.052.425.095.754.13.347.017.59.043.728.078.087.035.286.06.598.078.33 0 .546-.035.65-.104.035-.035.104 0 .208.104s.148.182.13.234a.392.392 0 0 1-.078.104c-.034.017-.043.035-.026.052.052.035.13 0 .234-.104 0 .121-.017.2-.052.234-.034.017-.078.017-.13 0a.172.172 0 0 0-.156-.026l-.052.052c-.017.017-.026.052-.026.104 0 .035-.008.052-.026.052l-.078-.052a.367.367 0 0 1-.026-.156c0-.07-.008-.104-.026-.104h-.052c-.104.035-.13.104-.078.208.052.052.078.104.078.156 0 .052-.069.087-.208.104-.121 0-.277-.009-.468-.026a3.657 3.657 0 0 0-.286-.052c-.121 0-.303.017-.546.052a4.28 4.28 0 0 1-.572.052c-.173 0-.364-.026-.572-.078-.502-.121-.927-.07-1.274.156-.121.087-.225.2-.312.338a5.52 5.52 0 0 0-.234.572c-.069.225-.112.364-.13.416-.052.139-.147.373-.286.702-.138.33-.251.59-.338.78-.069.173-.156.399-.26.676-.104.277-.19.537-.26.78l-.156.728a8.622 8.622 0 0 0-.13 1.092c0 .19.13.243.39.156a.433.433 0 0 1 .13-.026c.07-.017.243-.035.52-.052.295 0 .512-.017.65-.052.052-.017.078-.07.078-.156.052.017.052.06 0 .13-.052.087-.069.139-.052.156.035.052.104.052.208 0 .104-.035.165-.078.182-.13.018-.07-.008-.121-.078-.156-.069-.035-.104-.087-.104-.156-.017-.121.044-.217.182-.286.139-.087.243-.07.312.052.035.104.035.182 0 .234a.758.758 0 0 1-.104.078c-.052.035-.052.078 0 .13.035.017.078-.017.13-.104.087.19.061.303-.078.338-.017 0-.043-.017-.078-.052-.017-.035-.043-.043-.078-.026-.034 0-.052.026-.052.078.018.052.018.078 0 .078h-.078a.45.45 0 0 0-.182.026 15.74 15.74 0 0 1-.078.156 1.09 1.09 0 0 1-.104.208c-.138.19-.286.312-.442.364a.288.288 0 0 1-.13.026h-.156c-.034.017-.052.035-.052.052-.017.017-.026.043-.026.078s-.017.052-.052.052l-.182-.052-.572.156c-.329 0-.511-.017-.546-.052a.593.593 0 0 0-.234-.13.42.42 0 0 1-.234-.104c-.294-.295-.442-.763-.442-1.404 0-1.473.633-3.363 1.898-5.668a.682.682 0 0 0 .104-.338.324.324 0 0 0-.052-.26.705.705 0 0 0-.182-.208.62.62 0 0 0-.26-.182 2.387 2.387 0 0 0-.312-.13 3.15 3.15 0 0 0-.312-.104 6.044 6.044 0 0 1-.286-.13 3.658 3.658 0 0 1-1.066-.728c-.329-.33-.546-.676-.65-1.04Zm15.523 7.644c.07 0 .139.06.208.182.087.104.122.208.104.312 0 .035-.043.052-.13.052-.086-.017-.13 0-.13.052-.832.45-1.499.71-2.002.78a.31.31 0 0 0-.208.156c-.034.104-.086.165-.156.182a2.29 2.29 0 0 1-.572.182c-.052-.121-.121-.139-.208-.052l.104.104c-.069 0-.19.026-.364.078a.877.877 0 0 1-.468.026c-.104-.035-.286-.026-.546.026-.242.07-.416.06-.52-.026-.901-.555-1.412-1.083-1.534-1.586a.585.585 0 0 0-.156-.364c-.034-.035-.034-.095 0-.182.052-.104.07-.165.052-.182a.248.248 0 0 0-.13-.104.427.427 0 0 0-.13-.026 10.077 10.077 0 0 0-.104-.052c-.017-.017-.026-.052-.026-.104.018-.052.052-.13.104-.234.035-.052.078-.017.13.104a.19.19 0 0 1 .026.078c.018.035.052.035.104 0 .07-.035.113-.078.13-.13.052-.052.044-.095-.026-.13a.576.576 0 0 0-.208-.078c-.086-.035-.13-.07-.13-.104.07-.19.122-.442.156-.754.018-.19.148-.563.39-1.118.243-.572.451-.953.624-1.144.018-.035.07-.07.156-.104.087-.035.139-.078.156-.13a.261.261 0 0 1 0-.312c.503-.555.954-.936 1.352-1.144.208-.121.59-.269 1.144-.442.555-.173 1.006-.251 1.352-.234.104 0 .217.052.338.156.122.087.243.13.364.13a.52.52 0 0 1 .442.208.352.352 0 0 1 .026.156.5.5 0 0 0 .026.156c.104.035.174.07.208.104.052.07.052.182 0 .338-.052.139-.069.243-.052.312.139.399.009.676-.39.832-.19.104-.26.208-.208.312.035.07.096.113.182.13l.104.052-.078.13a.577.577 0 0 0-.104.182c-.017.07-.034.104-.052.104 0-.017-.052-.035-.156-.052a.806.806 0 0 1-.13-.026.83.83 0 0 1-.104-.078c-.017-.017-.026-.043-.026-.078s.018-.06.052-.078c.035-.035.07-.052.104-.052l.104-.052c.035-.017.052-.035.052-.052.018-.017.018-.043 0-.078-.104-.225-.147-.364-.13-.416.035-.07.122-.156.26-.26a.932.932 0 0 0 .234-.182c.104-.087.148-.147.13-.182-.034-.104-.078-.113-.13-.026a.797.797 0 0 1-.104.13c-.017.017-.052.017-.104 0-.104-.035-.173-.113-.208-.234-.017-.139-.13-.19-.338-.156-.034-.017-.052-.043-.052-.078.018-.052.035-.121.052-.208.018-.087.026-.147.026-.182-.225.035-.606.165-1.144.39-.121.052-.268.165-.442.338-.173.156-.312.26-.416.312-.364.121-.537.095-.52-.078 0-.035.018-.095.052-.182l.104-.208c.018-.052 0-.095-.052-.13-.104-.035-.225.017-.364.156-.034.035-.017.113.052.234.07.104.087.182.052.234a.624.624 0 0 0-.13.26c0 .07-.043.139-.13.208-.034.035-.078.026-.13-.026-.052-.07-.095-.095-.13-.078-.034.017-.043.043-.026.078a.167.167 0 0 1 .078.078c.035.035.052.07.052.104-.034.121-.173.355-.416.702-.242.347-.381.58-.416.702-.294 1.196-.381 1.915-.26 2.158.451.919 1.179 1.274 2.184 1.066a13.49 13.49 0 0 0 1.326-.338l.936-.208a1.1 1.1 0 0 0 .26-.078c.156-.07.269-.087.338-.052l.104.104c.018-.017.026-.052.026-.104a.335.335 0 0 1 .052-.13c.018-.035.044-.052.078-.052Zm1.456-.104c-.173 0-.242-.104-.208-.312h.156c.035 0 .061.017.078.052.018.017.018.043 0 .078 0 .035-.008.095-.026.182Zm-.78-.156c.174 0 .269.009.286.026.018.017.009.113-.026.286-.138 0-.225-.104-.26-.312Zm-.312.364c.018 0 .035-.052.052-.156.035-.104.061-.156.078-.156.052 0 .113.147.182.442-.034.017-.052.043-.052.078s-.017.06-.052.078h-.052a.251.251 0 0 0-.13-.052c-.017 0-.026-.035-.026-.104v-.13Zm5.24-.702c-.798 0-1.465-.13-2.002-.39-.538-.26-.806-.676-.806-1.248 0-.416.13-.84.39-1.274.19-.33.329-.641.416-.936.086-.312.147-.503.182-.572.52-1.075 1.551-2.227 3.094-3.458.225-.19.511-.511.858-.962.364-.468.65-.797.858-.988l.676-.65c.433-.433.762-.72.988-.858.398-.26.641-.477.728-.65.069-.139.225-.26.468-.364.26-.104.433-.2.52-.286.086-.104.182-.225.286-.364l.26-.338a.764.764 0 0 1 .26-.208.772.772 0 0 1 .39-.104c.052 0 .138.017.26.052.138.035.242.052.312.052.104 0 .156-.06.156-.182 0-.07-.026-.19-.078-.364a2.589 2.589 0 0 1-.052-.416c0-.104.026-.156.078-.156.19 0 .338.07.442.208a.603.603 0 0 1 .182.442c0 .104-.052.26-.156.468-.104.19-.156.32-.156.39 0 .017.008.043.026.078l.026.026c0 .173-.139.45-.416.832-.26.364-.477.58-.65.65-.07.017-.113-.035-.13-.156v-.364a.394.394 0 0 0-.156-.312c-.104-.104-.182-.156-.234-.156-.035 0-.087.06-.156.182-.07.104-.104.173-.104.208 0 .052.043.13.13.234.104.104.156.2.156.286 0 .104-.061.208-.182.312a2.465 2.465 0 0 1-.494.312c-.191.087-.304.147-.338.182a4.762 4.762 0 0 0-.572.494c-.174.19-.373.416-.598.676-.208.243-.373.433-.494.572-.226.225-.789.754-1.69 1.586-.902.815-1.56 1.482-1.976 2.002l-.728.858c-.382.45-.642.78-.78.988-.139.19-.295.494-.468.91-.174.399-.26.797-.26 1.196.364.208.814.312 1.352.312.225 0 .546-.035.962-.104.433-.087.754-.13.962-.13.069 0 .182.026.338.078.173.052.286.078.338.078.589 0 1.135-.104 1.638-.312a3.838 3.838 0 0 1 1.534-.338c.693 0 1.412.173 2.158.52.745.347 1.534.797 2.366 1.352.849.555 1.508.936 1.976 1.144.242.121.537.182.884.182 1.213 0 2.097-.251 2.652-.754.069-.07.19-.13.364-.182.173-.07.32-.13.442-.182.138-.07.208-.139.208-.208 0-.07-.122-.113-.364-.13-.243-.017-.364-.104-.364-.26 0-.243.208-.503.624-.78.433-.277.858-.416 1.274-.416.138 0 .355.026.65.078.294.035.52.052.676.052.086 0 .234-.009.442-.026a3.11 3.11 0 0 1 .442-.052c.277 0 .554.078.832.234.294.156.442.303.442.442 0 .017-.044.07-.13.156a.32.32 0 0 0-.13.26c0 .104.078.156.234.156.121 0 .459-.156 1.014-.468.572-.312 1.057-.468 1.456-.468.19 0 .355.07.494.208.156.121.234.312.234.572 0 .26-.217.555-.65.884-.434.33-.65.641-.65.936 0 .277.078.485.234.624.173.121.364.19.572.208.208.017.39.06.546.13.173.087.26.217.26.39 0 .295-.269.442-.806.442-.624 0-1.101-.104-1.43-.312-.312-.208-.503-.59-.572-1.144a3.25 3.25 0 0 0-.052-.39.4.4 0 0 0-.104-.208c-.035-.052-.096-.078-.182-.078-.208 0-.572.104-1.092.312-.503.208-.824.33-.962.364-.208.052-.659.217-1.352.494-.694.277-1.231.416-1.612.416-.191 0-.46-.087-.806-.26-.347-.156-.607-.234-.78-.234-.139 0-.364.052-.676.156-.295.121-.546.182-.754.182-.122 0-.321.009-.598.026a9.88 9.88 0 0 1-.624.026c-.659 0-1.283-.19-1.872-.572a27.262 27.262 0 0 1-1.768-1.248c-.572-.468-1.136-.754-1.69-.858a17.985 17.985 0 0 1-.78-.182 8.417 8.417 0 0 0-.91-.182 3.591 3.591 0 0 0-.754-.078c-.26 0-.512.052-.754.156a1.961 1.961 0 0 1-.78.156c-.416 0-.91.07-1.482.208a7.436 7.436 0 0 1-1.586.182Zm1.924-8.034c-.122.139-.321.33-.598.572-.278.243-.52.46-.728.65-.191.19-.286.338-.286.442 0 .07.034.104.104.104.138 0 .372-.182.702-.546.346-.381.745-.84 1.196-1.378.45-.537.797-.919 1.04-1.144.104-.104.294-.243.572-.416.294-.173.511-.347.65-.52.086-.104.286-.234.598-.39.312-.173.476-.355.494-.546 0-.07-.026-.104-.078-.104-.052 0-.156.035-.312.104-.139.07-.312.19-.52.364-.191.156-.347.32-.468.494-.122.19-.356.407-.702.65-.347.243-.572.416-.676.52-.087.087-.416.468-.988 1.144Zm19.032 8.008c-.26 0-.694.2-1.3.598-.59.399-.884.65-.884.754 0 .052.104.078.312.078.156 0 .286-.017.39-.052.104-.052.242-.156.416-.312.19-.156.303-.251.338-.286.052-.052.164-.104.338-.156.19-.07.346-.13.468-.182.138-.07.208-.139.208-.208 0-.156-.096-.234-.286-.234Zm-2.886-1.092c-.104.121-.304.19-.598.208-.278.017-.416.165-.416.442 0 .07.095.104.286.104.26-.017.52-.087.78-.208.277-.139.407-.295.39-.468-.018-.087-.104-.13-.26-.13a.417.417 0 0 0-.182.052Zm.286 1.742c-.104 0-.278.06-.52.182-.226.121-.338.208-.338.26 0 .104.078.208.234.312.156.104.294.156.416.156.277 0 .416-.173.416-.52 0-.26-.07-.39-.208-.39Zm-9.568-13.78c0-.19.086-.286.26-.286.086 0 .13.043.13.13 0 .052-.044.104-.13.156a.348.348 0 0 1-.208.078c-.035 0-.052-.026-.052-.078Zm29.516 16.718a12.267 12.267 0 0 0-.208-.468 4.64 4.64 0 0 1-.234-.598 1.717 1.717 0 0 1-.026-.52c.052-.433.216-1.005.494-1.716.052-.121.095-.33.13-.624.034-.295.104-.52.208-.676.104-.173.355-.693.754-1.56.416-.884.624-1.352.624-1.404-.018-.19.069-.355.26-.494.086-.07.121-.182.104-.338 0-.156.034-.277.104-.364.104-.087.19-.19.26-.312a2.72 2.72 0 0 0 .182-.494c.069-.208.121-.347.156-.416.034-.052.173-.251.416-.598.242-.347.364-.641.364-.884.572-.901 1.066-1.508 1.482-1.82.034-.035.121-.052.26-.052.138-.017.225-.06.26-.13a4.17 4.17 0 0 1-.078-.078c-.087-.07-.113-.113-.078-.13h.364c.017-.035-.018-.087-.104-.156.19-.052.32-.07.39-.052a.169.169 0 0 0 .026.156c.052.035.078.07.078.104.017.087-.035.277-.156.572l-.728 1.352a4.15 4.15 0 0 1-.286.364c-.174.19-.26.364-.26.52 0 .208-.113.477-.338.806-.208.312-.33.563-.364.754-.018.035-.13.33-.338.884-.208.537-.425.893-.65 1.066-.104.087-.278.399-.52.936-.226.537-.364.85-.416.936-.035.052-.052.156-.052.312a.734.734 0 0 1-.052.312l-.39.78c-.607 1.248-.832 2.41-.676 3.484-.122.087-.139.243-.052.468.086.243.104.416.052.52-.122.104-.208.156-.26.156-.052.017-.148-.017-.286-.104-.156-.07-.252-.121-.286-.156a4.606 4.606 0 0 1-.13-.338Zm.91-15.938c-.191-.104-.208-.277-.052-.52a.469.469 0 0 0 .13-.13.702.702 0 0 0 .13-.182c.052-.07.095-.121.13-.156.104-.104.286-.165.546-.182.26-.017.442-.06.546-.13.485.017.884.104 1.196.26.052.07.303.087.754.052.468-.035.745-.043.832-.026l1.092.078c.502.017.962.052 1.378.104.416.035.78.087 1.092.156.693.208 1.196.303 1.508.286.104-.017.624.052 1.56.208.173.017.39.06.65.13.26-.07.407-.026.442.13.052.139.026.338-.078.598a.761.761 0 0 1-.494.286 9.575 9.575 0 0 1-1.716.156 9.93 9.93 0 0 1-2.418-.286c-.364-.087-.919-.147-1.664-.182-.746-.052-1.222-.104-1.43-.156a3.89 3.89 0 0 0-.65-.078 2.832 2.832 0 0 1-.702-.156.723.723 0 0 1-.156-.13.347.347 0 0 0-.156-.13 4.27 4.27 0 0 0-.468.104c-.278.07-.624.087-1.04.052-.052 0-.182-.139-.39-.416a1.329 1.329 0 0 0-.286.182c-.122.087-.217.113-.286.078Zm5.486 2.184a.71.71 0 0 0-.078-.156.672.672 0 0 1-.026-.156c.017-.052.06-.078.13-.078.069 0 .112-.009.13-.026.225 0 .173.139-.156.416Zm3.854 8.06c0-.347.052-.537.156-.572l.156-.26c.104-.173.243-.381.416-.624s.355-.485.546-.728c.208-.243.433-.45.676-.624.243-.19.468-.303.676-.338.121-.208.329-.373.624-.494.312-.121.607-.182.884-.182a.452.452 0 0 1 .026.182.79.79 0 0 1-.078.286 1.152 1.152 0 0 0-.052.312c0 .07.017.113.052.13 0 .104-.095.208-.286.312-.191.087-.425.2-.702.338-.277.139-.485.303-.624.494a9.625 9.625 0 0 1-.546.624c-.243.26-.451.477-.624.65-.156.173-.234.286-.234.338 0 .087.069.156.208.208.139.052.251.035.338-.052.104-.104.442-.156 1.014-.156 1.127-.26 1.907-.607 2.34-1.04.035-.035.217-.139.546-.312.347-.19.529-.295.546-.312.069-.07.191-.147.364-.234.191-.087.347-.165.468-.234.139-.07.208-.147.208-.234 0-.052-.043-.078-.13-.078a.676.676 0 0 0-.208.026c0-.139.165-.208.494-.208.433 0 .65.2.65.598 0 .19-.199.416-.598.676-.399.26-.607.399-.624.416-.156.19-.39.286-.702.286-.069 0-.217.07-.442.208-.208.139-.425.355-.65.65-.225.277-.338.563-.338.858 0 .277.078.468.234.572.156.087.303.13.442.13.797 0 1.404-.017 1.82-.052l.65-.052c.069 0 .381-.07.936-.208.572-.156.901-.277.988-.364.104-.104.286-.225.546-.364.26-.156.494-.286.702-.39.208-.104.312-.165.312-.182a.466.466 0 0 0-.078-.234.592.592 0 0 1-.052-.208c0-.139.069-.251.208-.338a.746.746 0 0 1 .39-.13c.087 0 .13.026.13.078a6.157 6.157 0 0 0 1.352-.676c1.04-.641 1.56-1.014 1.56-1.118v-.104c0-.017-.043-.035-.13-.052a3.03 3.03 0 0 0-.494-.026c-.191 0-.442.182-.754.546-.312.364-.598.546-.858.546-.104 0-.251.06-.442.182a.903.903 0 0 1-.52.182.473.473 0 0 0-.338.156 3.712 3.712 0 0 0-.234.208c-.035.052-.104.052-.208 0-.208-.208-.208-.45 0-.728.225-.277.425-.46.598-.546.589-.295 1.04-.59 1.352-.884.087-.052.156-.07.208-.052.069 0 .191.017.364.052.173.017.321.026.442.026.451 0 .858-.182 1.222-.546.121-.121.286-.182.494-.182.191 0 .407.104.65.312.26.19.39.39.39.598-.381.399-.65.641-.806.728-1.439.815-2.158 1.326-2.158 1.534 0 .208.225.45.676.728.468.277.719.433.754.468.139.19.347.286.624.286.087 0 .425-.182 1.014-.546.087-.052.269-.208.546-.468.295-.26.537-.416.728-.468.191-.052.425-.2.702-.442.295-.243.494-.433.598-.572a1.3 1.3 0 0 1 .13-.182 2.3 2.3 0 0 1 .156-.182.7.7 0 0 1 .182-.13.379.379 0 0 1 .234-.078c.208 0 .347-.104.416-.312.087-.225.095-.494.026-.806l-.104-.312a1.237 1.237 0 0 1-.078-.338c.052-.659.078-1.005.078-1.04a.902.902 0 0 0-.052-.286.495.495 0 0 1 .104-.364c.087-.121.199-.225.338-.312.156-.104.399-.182.728-.234.329-.07.728-.104 1.196-.104.485 0 .763.139.832.416-.017 0-.191.026-.52.078-.312.052-.503.043-.572-.026-.208-.104-.381-.156-.52-.156-.104 0-.156.07-.156.208a.643.643 0 0 1 0 .26c-.329.537-.433 1.049-.312 1.534.087.295.243.442.468.442.399 0 1.092-.511 2.08-1.534.988-1.04 1.551-1.595 1.69-1.664.069-.035.156-.121.26-.26.104-.156.191-.26.26-.312.069-.035.208-.182.416-.442.208-.277.399-.46.572-.546.26-.121.52-.39.78-.806.26-.433.485-.702.676-.806.087-.035.199-.121.338-.26.156-.156.251-.243.286-.26.156-.087.338-.225.546-.416.225-.208.468-.46.728-.754.277-.295.442-.468.494-.52.017-.035.087-.087.208-.156.121-.07.225-.13.312-.182.104-.07.147-.13.13-.182.225 0 .451.06.676.182.225.104.364.26.416.468.139.555-.459 1.196-1.794 1.924-.035.017-.165.173-.39.468-.225.277-.433.416-.624.416-.26 0-.494.2-.702.598-.191.399-.355.633-.494.702a2.394 2.394 0 0 0-.676.494 7.644 7.644 0 0 0-.754.832c-.277.33-.477.555-.598.676-.035.017-.147.147-.338.39-.191.225-.312.355-.364.39-.485.225-1.083.797-1.794 1.716-.711.901-1.005 1.603-.884 2.106.052.243.217.485.494.728.277.225.607.45.988.676.399.225.65.381.754.468.069.052.407.121 1.014.208s1.031.13 1.274.13c.052 0 .173-.139.364-.416.191-.277.399-.58.624-.91.243-.33.425-.537.546-.624.087-.07.173-.121.26-.156l.208-.104c.035-.017.061-.06.078-.13a2.39 2.39 0 0 0 .026-.416c0-.07-.043-.165-.13-.286a.815.815 0 0 1-.104-.338c0-.243.225-.511.676-.806.468-.295.91-.442 1.326-.442.069 0 .199.06.39.182.191.121.295.2.312.234.017.07.078.19.182.364.121.173.208.338.26.494a.776.776 0 0 1 .026.442c-.139.433-.451.988-.936 1.664-.468.676-.875 1.083-1.222 1.222-.121.052-.329.208-.624.468-.277.243-.416.399-.416.468 0 .173.069.33.208.468.156.121.355.243.598.364s.39.2.442.234c.035.017.095.07.182.156l.234.156c.052.035.121.07.208.104a.98.98 0 0 0 .312.052c.312 0 .607.043.884.13.277.07.52.104.728.104a.25.25 0 0 0 .182-.078c.052-.07.104-.104.156-.104.069.035.104.06.104.078a.176.176 0 0 0 .156.078c-.017.104-.147.234-.39.39-.225.139-.381.208-.468.208-.052 0-.069-.026-.052-.078.035-.052.043-.078.026-.078-.069 0-.147.043-.234.13-.069.07-.13.104-.182.104h-1.378c-.069 0-.347-.035-.832-.104-.485-.087-.78-.156-.884-.208-.399-.208-.754-.555-1.066-1.04-.295-.485-.442-.806-.442-.962-.156 0-.373.043-.65.13a2.84 2.84 0 0 1-.624.104 3.28 3.28 0 0 1-.572-.078c-.26-.07-.442-.104-.546-.104-.381 0-.693-.087-.936-.26-.243-.19-.451-.295-.624-.312-.156 0-.433-.251-.832-.754-.381-.503-.615-.754-.702-.754-.069 0-.199.269-.39.806-.173.537-.234.91-.182 1.118.069.277.511.416 1.326.416.139 0 .243-.009.312-.026.069-.035.095-.095.078-.182.087 0 .13.043.13.13.069.295-.017.555-.26.78a1.252 1.252 0 0 1-.884.338c-.485 0-.867-.095-1.144-.286-.26-.19-.451-.563-.572-1.118-.052-.121-.078-.312-.078-.572.017-.26.061-.433.13-.52.381-.52.477-1.213.286-2.08-.052-.208-.191-.312-.416-.312-.087 0-.373.156-.858.468-.468.312-.78.537-.936.676-.433.433-.737.693-.91.78-.104.052-.303.156-.598.312s-.555.303-.78.442a3.947 3.947 0 0 0-.598.494c0 .156.095.347.286.572.191.225.286.425.286.598 0 .347-.173.676-.52.988-.347.312-.711.468-1.092.468-.052 0-.355.078-.91.234-.555.156-.849.234-.884.234-1.785.052-2.765.052-2.938 0-.104-.035-.139-.087-.104-.156.017-.017.035-.026.052-.026.035 0 .069.009.104.026a.203.203 0 0 0 .078.026c.069 0 .13-.06.182-.182-.017 0-.043-.026-.078-.078a1.746 1.746 0 0 0-.078-.234.632.632 0 0 1-.052-.234c0-.208.199-.312.598-.312.087 0 .208.017.364.052a4.4 4.4 0 0 0 .416.026c.555 0 .832-.113.832-.338a.983.983 0 0 0-.026-.234.324.324 0 0 0-.078-.156l-.026-.052c0-.104.087-.225.26-.364.173-.156.338-.234.494-.234.121 0 .139.017.052.052-.225.121-.347.208-.364.26 0 .121.069.182.208.182.156 0 .234-.078.234-.234a.235.235 0 0 0-.026-.104c.312 0 .555-.173.728-.52.156-.312.052-.555-.312-.728-.763-.399-1.257-.598-1.482-.598-.416 0-.702.095-.858.286-.208.243-.598.425-1.17.546-.572.104-.919.217-1.04.338-.225.225-.451.364-.676.416-.035 0-.191.06-.468.182-.26.121-.633.234-1.118.338-.468.087-1.066.13-1.794.13-.537 0-.945-.182-1.222-.546-.26-.364-.425-.728-.494-1.092-.052-.364-.104-.546-.156-.546-.347 0-.633.078-.858.234-.225.139-.65.208-1.274.208-.52 0-.858-.078-1.014-.234-.156-.156-.234-.39-.234-.702Zm29.146.312a.443.443 0 0 1-.026.104.438.438 0 0 1-.026.13.438.438 0 0 1-.026.13c0 .035.009.06.026.078.017.017.052.026.104.026.641-.243 1.127-.503 1.456-.78.901-.728 1.352-1.144 1.352-1.248 0-.087-.035-.13-.104-.13-.121 0-.407.208-.858.624-.451.399-.771.633-.962.702 0-.139.165-.355.494-.65.329-.312.529-.529.598-.65.312-.503.468-.832.468-.988 0-.017-.017-.035-.052-.052-.035-.035-.052-.07-.052-.104 0-.104.061-.139.182-.104.035.017.043.043.026.078 0 .035.009.052.026.052.104.017.156-.043.156-.182 0-.087-.043-.182-.13-.286-.087-.104-.182-.156-.286-.156-.035 0-.087.07-.156.208-.069.121-.156.277-.26.468a.995.995 0 0 1-.338.364c-.416.26-.789.615-1.118 1.066-.312.45-.477.884-.494 1.3Zm-24.076-3.198c-.173 0-.295-.035-.364-.104-.069-.07-.035-.182.104-.338.139-.173.191-.286.156-.338-.052-.07-.147-.121-.286-.156-.121-.052-.182-.121-.182-.208 1.335 0 2.011.399 2.028 1.196a.893.893 0 0 0-.234.104.395.395 0 0 1-.156.052.732.732 0 0 1-.182-.104c-.104-.07-.399-.104-.884-.104Zm9.048 5.46c-.017-.017-.139.043-.364.182a3.955 3.955 0 0 0-.676.468c-.225.19-.338.347-.338.468 0 .104.087.225.26.364.191.139.321.165.39.078.173-.26.156-.468-.052-.624-.087-.07-.017-.147.208-.234a4.276 4.276 0 0 1 1.456-.234c.26 0 .39-.113.39-.338 0-.104-.043-.2-.13-.286a.32.32 0 0 0-.26-.13 1.24 1.24 0 0 0-.338.078 2.552 2.552 0 0 0-.39.13l-.156.078Zm13.884-2.886c-.087-.277-.087-.494 0-.65.087-.173.191-.303.312-.39.139-.087.208-.156.208-.208 0-.156.052-.303.156-.442.104-.139.208-.156.312-.052.225.19.277.425.156.702-.017.035-.052.026-.104-.026h-.052c0-.017-.009-.026-.026-.026-.243 0-.442.173-.598.52-.139.347-.26.537-.364.572Zm-23.712.052c-.156 0-.26.052-.312.156-.052.104-.087.277-.104.52v.104c.312 0 .468-.156.468-.468 0-.07-.017-.173-.052-.312Zm17.654-2.782c-.191 0-.217.07-.078.208.017.035.087.078.208.13.139.035.217.078.234.13l-.026.052c0 .035.009.052.026.052.087.07.182.104.286.104.139 0 .156-.078.052-.234-.017-.017-.069-.009-.156.026-.069.017-.104.009-.104-.026a.654.654 0 0 0-.156-.286.41.41 0 0 0-.208-.156h-.078Zm-9.308.624c.069 0 .104-.035.104-.104 0-.07-.078-.104-.234-.104 0 .139.043.208.13.208Z"/></svg>