<svg xmlns="http://www.w3.org/2000/svg" fill="none" viewBox="0 0 19 19"><path fill="#90B96C" d="M18.792 9.396a3.487 3.487 0 0 0-2.008-3.062 3.474 3.474 0 0 0-.742-3.584 3.474 3.474 0 0 0-3.584-.742A3.468 3.468 0 0 0 9.396 0a3.463 3.463 0 0 0-3.053 2.008 3.472 3.472 0 0 0-1.902-.14c-.635.13-1.22.436-1.69.882a3.461 3.461 0 0 0-.734 3.584A3.49 3.49 0 0 0 0 9.396a3.496 3.496 0 0 0 2.017 3.062 3.471 3.471 0 0 0 .733 3.584 3.49 3.49 0 0 0 3.584.742 3.487 3.487 0 0 0 3.062 2.008 3.476 3.476 0 0 0 3.062-2.007 3.335 3.335 0 0 0 4.326-4.327 3.487 3.487 0 0 0 2.008-3.062Zm-10.734 3.85L4.629 9.818l1.293-1.302 2.072 2.072 4.4-4.794 1.347 1.246-5.683 6.206Z"/></svg>