<svg xmlns="http://www.w3.org/2000/svg" fill="none" viewBox="0 0 232 74"><path fill="#335C30" d="M49.719 61.128c-.939 0-1.675-.107-2.208-.32-.555-.213-.715-.555-.48-1.024.554-1.088 2.325-1.685 5.312-1.792h.992c.085-.021.224-.043.416-.064a1.56 1.56 0 0 0 .864-.448c.15-.128.277-.277.384-.448l.576-.864c.277-.405.49-.725.64-.96a7.23 7.23 0 0 0 .512-.928c.192-.363.341-.704.448-1.024-1.152.128-1.792.192-1.92.192-.598 0-.939-.117-1.024-.352.277-.085.49-.245.64-.48.17-.256.138-.49-.096-.704a.617.617 0 0 0-.32-.096.568.568 0 0 0-.256.064.27.27 0 0 1-.224-.032c-.043-.043-.064-.128-.064-.256l3.936-.096c.128-.256.277-.672.448-1.248.17-.576.33-1.003.48-1.28.021-.043.106-.203.256-.48.15-.277.245-.49.288-.64.064-.15.064-.277 0-.384-.107-.043-.363-.021-.768.064-.384.064-.662.075-.832.032-.022 0-.128-.01-.32-.032a9.153 9.153 0 0 1-.48-.064 2.37 2.37 0 0 0-.416-.096.742.742 0 0 1-.32-.16.16.16 0 0 1 0-.192c.021-.021.085-.064.192-.128a7.17 7.17 0 0 0 .32-.224c.106-.085.15-.139.128-.16a1.773 1.773 0 0 1-.096-.224c0-.064.01-.107.032-.128.021-.043.053-.064.096-.064a.285.285 0 0 1 .128-.032c.064 0 .128.01.192.032h.192c.106 0 .266-.053.48-.16.213-.128.416-.16.608-.096.277.128.725.139 1.344.032.64-.128 1.034-.373 1.184-.736.682-1.792 1.888-3.552 3.616-5.28.234-.235.48-.448.736-.64.277-.192.586-.384.928-.576a21.868 21.868 0 0 1 1.824-.96c.49-.235.8-.384.928-.448.277-.17.533-.256.768-.256.15 0 .33.043.544.128a.81.81 0 0 0 .32 0 1.93 1.93 0 0 1 .288-.032c.085 0 .16.053.224.16a.414.414 0 0 1 .032.416.622.622 0 0 0 0 .48c.042.085.117.01.224-.224.15-.277.277-.427.384-.448.106 0 .213.117.32.352.064.128.074.224.032.288-.043.064-.032.15.032.256.085.085.266.192.544.32.362.17.47.683.32 1.536-.064.341-.31.864-.736 1.568-.427.683-.694 1.045-.8 1.088-.064.021-.246-.043-.544-.192-.278-.17-.459-.256-.544-.256-.086 0-.139.043-.16.128-.043.107.01.17.16.192l.448.064c.17.021.256.096.256.224 0 .299-.16.448-.48.448-.086 0-.192-.043-.32-.128-.064-.064-.107-.064-.128 0 0 .064-.022.16-.064.288a.802.802 0 0 1-.192.32c-.214.213-.459.32-.736.32-.128 0-.224-.032-.288-.096-.043-.043-.064-.192-.064-.448.021-.043-.022-.01-.128.096a.568.568 0 0 0-.16.544c.042.213-.032.341-.224.384-.15.064-.374.032-.672-.096-.299-.15-.502-.224-.608-.224-.086 0-.182.053-.288.16a.407.407 0 0 0-.096.192c0 .085.01.16.032.224a.602.602 0 0 1 .032.192c0 .043-.01.075-.032.096-.022.021-.064.021-.128 0s-.139-.085-.224-.192a1.16 1.16 0 0 0-.256-.288c-.086-.064-.16-.075-.224-.032s-.043.096.064.16a.371.371 0 0 1 .096.064c.042.021.074.064.096.128.042.043.064.085.064.128 0 .17-.075.256-.224.256-.086 0-.118-.043-.096-.128.234.021.288-.053.16-.224-.214-.213-.374-.277-.48-.192-.064.043-.118.139-.16.288a.478.478 0 0 1-.288.32c-.086.021-.096.043-.032.064.192.043.341.107.448.192.064.064.021.117-.128.16-.299.085-.534.096-.704.032-.256-.043-.534.032-.832.224-.278.192-.512.31-.704.352a1.438 1.438 0 0 1-.512.032.485.485 0 0 0-.384.032c-.128.064-.246.213-.352.448-1.195 2.368-1.686 3.637-1.472 3.808.042.064.138.053.288-.032.384-.235.853-.33 1.408-.288.192-.021.981-.203 2.368-.544 1.408-.363 2.378-.544 2.912-.544.234 0 .416.032.544.096.15.085.384-.01.704-.288.234-.15.928-.117 2.08.096.554.128.81.245.768.352-.043.021-.107.021-.192 0a1.744 1.744 0 0 0-.224-.096c-.043-.043-.075-.043-.096 0-.043.427-.086.64-.128.64-.043 0-.096-.032-.16-.096s-.107-.181-.128-.352c-.022-.107-.064-.117-.128-.032l-.576.64c-.49.192-.939.224-1.344.096 0-.341-.043-.501-.128-.48a.957.957 0 0 0-.096.128c-.064.043-.075.139-.032.288.042.15.064.267.064.352-.043 0-.139.01-.288.032-.427 0-.64-.032-.64-.096.021-.043.053-.064.096-.064h.096c.042 0 .053-.021.032-.064-.107-.128-.203-.192-.288-.192-.15 0-.363.128-.64.384-.256.235-.416.363-.48.384-2.73.939-4.619 1.408-5.664 1.408-.235 0-.48-.043-.736-.128-.214-.085-.384-.043-.512.128-.128.17-.235.405-.32.704-.427 1.408-1.344 3.03-2.752 4.864.256.064.746.203 1.472.416.746.213 1.376.384 1.888.512.533.107 1.045.181 1.536.224.896.064 2.154-.01 3.776-.224 1.621-.213 2.57-.33 2.848-.352.362-.021.885-.117 1.568-.288.682-.192 1.088-.288 1.216-.288h.416c.064 0 .117.01.16.032.042.021.053.043.032.064 0 .021.021.075.064.16.064.064.15.139.256.224.106.085.16.032.16-.16 0-.213.01-.341.032-.384.021-.064.128-.096.32-.096.128 0 .234.032.32.096.106.043.138.117.096.224-.49 1.003-1.483 1.685-2.976 2.048-1.494.363-3.05.512-4.672.448a11.236 11.236 0 0 0-3.264.224c-.299.085-.843.053-1.632-.096a54.402 54.402 0 0 1-2.656-.672 62.306 62.306 0 0 0-1.888-.544c-.363-.085-.672-.075-.928.032-.256.085-.523.245-.8.48a2.953 2.953 0 0 1-.768.448c-.64.256-1.675.384-3.104.384Zm15.264-19.552c-1.088 1.088-1.824 2.347-2.208 3.776.128 0 .394-.128.8-.384.426-.277.746-.352.96-.224.106.064.16.181.16.352v.352c0 .064.117.064.352 0 .106-.043.17-.139.192-.288a1.8 1.8 0 0 0 0-.48v-.224c.17-.107.277-.16.32-.16.042 0 .106.032.192.096.085.064.15.096.192.096.106 0 .31-.021.608-.064.32-.043.48-.096.48-.16s-.118-.096-.352-.096c-.192-.021-.182-.096.032-.224.256-.15.565-.224.928-.224.106 0 .202-.064.288-.192.042-.064.096-.075.16-.032.085.043.181.096.288.16.106.064.192.085.256.064.064-.021.096-.064.096-.128.021-.085.01-.15-.032-.192-.022-.043-.064-.064-.128-.064-.043-.021-.096-.021-.16 0a.605.605 0 0 1-.192-.032c.042-.128.181-.245.416-.352 0 .085.128.181.384.288.277.085.458.107.544.064.15-.107.17-.16.064-.16a2.507 2.507 0 0 1-.352-.128c-.128-.085-.16-.213-.096-.384.042-.128.106-.139.192-.032.085.107.16.15.224.128.32-.085.768-.501 1.344-1.248.576-.747.842-1.237.8-1.472a2.507 2.507 0 0 0-.128-.352c-.064-.15-.096-.245-.096-.288 0-.043.042-.107.128-.192h.224c0-.085-.064-.139-.192-.16-.128-.043-.182-.128-.16-.256.021-.085.064-.235.128-.448.106-.277.15-.416.128-.416-.022-.021-.054 0-.096.064-.278.363-.512.533-.704.512-.192-.021-.566-.01-1.12.032-1.494.32-3.115 1.344-4.864 3.072Zm-8.896 4.608c-.235-.107-.33-.267-.288-.48.064-.235.245-.437.544-.608.277-.128.405-.075.384.16-.022.192-.096.33-.224.416.213.085.234.277.064.576-.128.213-.246.267-.352.16-.043-.021-.032-.064.032-.128l.16-.16c.042-.043.032-.075-.032-.096-.022 0-.064.032-.128.096s-.118.085-.16.064Zm-6.464 13.28c-.064.192-.022.288.128.288.128 0 .426-.107.896-.32.213-.384.15-.533-.192-.448-.384.128-.662.288-.832.48Zm4.096-7.584c-.128.085-.224.075-.288-.032-.043-.043-.032-.096.032-.16.106-.107.202-.096.288.032.042.064.032.117-.032.16Zm21.768-.608c0-.064-.096-.17-.288-.32 0-.32.128-.768.384-1.344.256-.576.384-.992.384-1.248 0-.17.053-.31.16-.416l.192-.192c.107-.192.192-.448.256-.768l.16-.64c.107-.15.235-.352.384-.608.17-.256.288-.416.352-.48s.213-.224.448-.48c.256-.256.565-.533.928-.832.384-.32.928-.768 1.632-1.344.021 0 .064.01.128.032.085.021.16.032.224.032.021 0 .043-.053.064-.16.021-.128.085-.192.192-.192.15 0 .181.075.096.224-.043.064-.053.096-.032.096.085 0 .17-.021.256-.064a.426.426 0 0 1 .256-.096c.15-.021.224.043.224.192 0 .085-.043.17-.128.256-.085.064-.16.096-.224.096a2.461 2.461 0 0 1-.288-.128c-.107-.064-.181-.096-.224-.096-.192 0-.299.043-.32.128-.021.064.01.117.096.16.085.043.16.064.224.064.085 0 .181-.043.288-.128 0 .064.01.139.032.224a.49.49 0 0 1 .064.192c0 .064-.053.096-.16.096-.021 0-.075-.032-.16-.096-.064-.085-.128-.128-.192-.128a8.737 8.737 0 0 1-.416.384c-.15.128-.267.235-.352.32.043.17.064.277.064.32 0 .384-.523 1.141-1.568 2.272-.085.299-.32.757-.704 1.376-.363.597-.565 1.152-.608 1.664-.17.043-.299.16-.384.352a.794.794 0 0 0 0 .544.427.427 0 0 1-.16.192c-.085.064-.128.107-.128.128-.043.107-.021.224.064.352a.551.551 0 0 1 .128.352c0 1.11 1.664 1.664 4.992 1.664.725 0 1.259-.128 1.6-.384.299 0 .533-.053.704-.16.17-.128.363-.363.576-.704.235-.363.384-.587.448-.672.128-.17.299-.341.512-.512a4.89 4.89 0 0 1 .512-.416c.128-.107.192-.181.192-.224 0-.043-.021-.064-.064-.064-.021-.021-.064-.021-.128 0a.247.247 0 0 1-.096.032c.064-.256.277-.384.64-.384.192 0 .384-.139.576-.416.213-.277.448-.416.704-.416.021 0 .139.021.352.064-.085.15-.17.224-.256.224h-.128a.605.605 0 0 0-.192-.032c-.085.043-.16.139-.224.288-.043.128-.117.192-.224.192 0 .064.032.117.096.16s.096.096.096.16h-.096c-.021-.021-.043-.032-.064-.032-.256 0-.384.117-.384.352 0 .064.032.15.096.256a.31.31 0 0 0 .16-.064c.064-.064.128-.096.192-.096a.49.49 0 0 1 .192.064c-.021.192-.16.395-.416.608a5.465 5.465 0 0 0-.608.576c-.15.15-.15.299 0 .448a.476.476 0 0 0 .352.128c.192 0 .512-.107.96-.32.47-.235.821-.363 1.056-.384a.55.55 0 0 1-.032.224.966.966 0 0 0 .16.032l.032-.16c.021-.085.075-.128.16-.128.064 0 .117.01.16.032a.209.209 0 0 1 .096.096.284.284 0 0 1 .032.128.446.446 0 0 1 .032.192.527.527 0 0 1 .032.16c-1.323.576-2.272 1.077-2.848 1.504h-.16a.247.247 0 0 0-.096-.032c-.213 0-.363.107-.448.32-.619.235-1.12.63-1.504 1.184-.384.555-.576 1.141-.576 1.76 0 .085.01.16.032.224a.344.344 0 0 1 .064.192c0 .17-.107.267-.32.288.064.299.032.768-.096 1.408-.107.619-.117 1.077-.032 1.376a.31.31 0 0 1-.064.16.344.344 0 0 0-.064.192c.107.213.16.49.16.832 0 .213-.053.448-.16.704-.277 0-.597-.427-.96-1.28a7.088 7.088 0 0 1-.512-2.656c0-.235.064-.395.192-.48 0-.341.096-.821.288-1.44.213-.619.33-1.088.352-1.408-.192 0-.49.01-.896.032a19.36 19.36 0 0 1-.96.032c-.128 0-.288-.021-.48-.064a1.523 1.523 0 0 0-.416-.096c-.064 0-.17.021-.32.064s-.267.064-.352.064c-.213 0-.533-.064-.96-.192-.427-.128-.757-.192-.992-.192-.213 0-.416-.064-.608-.192-.17-.15-.256-.288-.256-.416-.555 0-.96-.576-1.216-1.728 0-.064.01-.192.032-.384.021-.213.032-.405.032-.576Zm14.464.512c-.064-.085-.085-.203-.064-.352a.742.742 0 0 1 .16-.32c.213 0 .512.096.896.288.128.085.107.128-.064.128-.085 0-.203.064-.352.192-.128.128-.235.192-.32.192-.085 0-.17-.043-.256-.128Zm-8.512-7.392c-.021-.15.032-.363.16-.64.15-.277.235-.459.256-.544.043 0 .085.021.128.064s.075.064.096.064c0 .192-.053.384-.16.576a1.52 1.52 0 0 1-.32.384c-.107.085-.16.117-.16.096Zm11.41 12.224c-.021-.15-.117-.544-.288-1.184-.17-.64-.245-1.184-.224-1.632.022-.917.267-1.92.736-3.008.49-1.088.95-1.941 1.376-2.56.448-.619 1.11-1.515 1.984-2.688 1.195-1.536 2.176-2.304 2.944-2.304.192 0 .363.075.512.224.192.256.235.48.128.672-.085.17-.096.267-.032.288.192.064.352-.032.48-.288s.31-.395.544-.416c.619-.043 1.067-.032 1.344.032 1.75.47 2.624 1.952 2.624 4.448 0 1.493-.629 3.19-1.888 5.088a2.265 2.265 0 0 1-.288.352c-.085.085-.17.16-.256.224a1.118 1.118 0 0 1-.32.16 4.633 4.633 0 0 1-.256.096 2.04 2.04 0 0 1-.288.064h-.64c-.128 0-.213.021-.256.064-.042.021-.053.075-.032.16.256.768.192 1.397-.192 1.888-.362.47-1.056.885-2.08 1.248a31.88 31.88 0 0 0-1.536.704c-.128.064-.341.128-.64.192a1.64 1.64 0 0 1-.8-.064c-1.621-.277-2.506-.864-2.656-1.76Zm1.088-2.048c0 .49.086.896.256 1.216.534.661 1.024 1.035 1.472 1.12.17.021.363 0 .576-.064.235-.085.502-.192.8-.32.32-.128.576-.224.768-.288.726-.235 1.483-.843 2.272-1.824a50.589 50.589 0 0 0 1.44-1.824c.32-.427.683-1.035 1.088-1.824.427-.79.694-1.536.8-2.24.086-.555 0-1.248-.256-2.08-.234-.853-.49-1.323-.768-1.408-.213-.064-.416 0-.608.192-.17.17-.33.395-.48.672a3.39 3.39 0 0 1-.544.768 1.5 1.5 0 0 1-.8.48c0-.043.022-.085.064-.128.064-.043.086-.085.064-.128-.042-.043-.128-.032-.256.032-.128.043-.213.053-.256.032-.085-.085-.021-.15.192-.192.384-.107.576-.192.576-.256-.021-.064-.106-.096-.256-.096-.15 0-.234-.021-.256-.064-.042-.085-.032-.15.032-.192a.517.517 0 0 1 .32-.096c.128-.021.246-.043.352-.064a.689.689 0 0 0 .256-.128c.043-.043.032-.117-.032-.224a3.844 3.844 0 0 0-.256-.32 3.67 3.67 0 0 0-.288-.352 1.388 1.388 0 0 0-.256-.256c-.128-.128-.234-.181-.32-.16-.064.021-.17.032-.32.032a2.543 2.543 0 0 0-.64.384c-.213.15-.426.363-.64.64-.213.277-.405.533-.576.768-.15.213-.341.523-.576.928-.213.405-.373.693-.48.864l-.448.896c-.192.427-.298.661-.32.704-1.13 1.984-1.696 3.584-1.696 4.8Zm4.384-5.664c-.106-.17-.117-.373-.032-.608.107-.235.288-.33.544-.288.064.021.15.053.256.096.128.043.203.064.224.064a.49.49 0 0 0 .192-.064c.064-.085.043-.203-.064-.352a.49.49 0 0 0-.416-.224c0-.277.096-.363.288-.256.214.128.32.416.32.864 0 .064-.053.17-.16.32-.085.15-.181.277-.288.384-.085.085-.138.107-.16.064a.589.589 0 0 0-.512-.288c-.15 0-.15.075 0 .224.064.064.128.117.192.16a.746.746 0 0 1 .16.096c.043.021.064.053.064.096 0 .043-.032.096-.096.16l-.288.32c-.021 0-.032-.032-.032-.096s-.021-.16-.064-.288a1.358 1.358 0 0 0-.128-.384Zm.064.992c-.042.256-.106.405-.192.448-.085.021-.138-.021-.16-.128a.825.825 0 0 1 .032-.384c.15-.107.256-.085.32.064Zm10.504 10.88c-.363-.17-.32-.47.128-.896.448-.427.81-.555 1.088-.384.128.085.33.064.608-.064.298-.128.469-.192.512-.192.256-.043.586.01.992.16.405.15.661.235.768.256.085.021.16.107.224.256.064.15.117.33.16.544.042.192.085.32.128.384.192.363.213.672.064.928-.128.256-.331.384-.608.384-.32 0-.555-.192-.704-.576-.043-.128-.288-.224-.736-.288-.448-.043-.822-.021-1.12.064-.107.021-.246.117-.416.288-.15.192-.267.288-.352.288-.15 0-.288-.107-.416-.32-.064-.107-.086-.203-.064-.288a.664.664 0 0 0 0-.288c-.022-.107-.107-.192-.256-.256Zm8.953-2.176c0-.533.171-1.227.512-2.08a.796.796 0 0 1-.096-.352c0-.15.032-.33.096-.544.085-.213.128-.405.128-.576 0-.619.352-1.739 1.056-3.36.725-1.643 1.248-2.528 1.568-2.656l.192-.32c.107-.235.256-.512.448-.832.192-.32.363-.565.512-.736l.128-.16c2.816-3.008 4.597-4.512 5.344-4.512.128 0 .224.064.288.192.043.064.096.192.16.384.085.17.16.31.224.416.021.064.021.107 0 .128 0 .021-.021.064-.064.128a.36.36 0 0 0-.032.16c.043.043.128.096.256.16a.772.772 0 0 1 .32.224.4.4 0 0 1 .128.288c-.107.128-.405.192-.896.192-.235-.277-.437-.416-.608-.416-.597.043-.896.256-.896.64-.021 0-.16.117-.416.352-.256.213-.523.48-.8.8-.256.299-.384.523-.384.672a3.31 3.31 0 0 0-.672.576 2.706 2.706 0 0 0-.416.576c-.085.17-.213.437-.384.8-.341.128-.661.555-.96 1.28-.277.725-.459 1.099-.544 1.12-.256.064-.459.224-.608.48a1.57 1.57 0 0 0-.224.8c0 .064-.117.32-.352.768-.213.448-.32.725-.32.832 0 .299-.117.747-.352 1.344-.235.576-.352.896-.352.96 0 .15.032.341.096.576.064.213.096.384.096.512-.277.576-.341 1.141-.192 1.696.171.576.555.864 1.152.864.235 0 .587-.053 1.056-.16.469-.128.789-.192.96-.192a.25.25 0 0 1 .096.032h.16c.256-.17.725-.352 1.408-.544.683-.213 1.216-.427 1.6-.64.384-.235.501-.523.352-.864a.436.436 0 0 1 .032-.48c.128-.15.299-.288.512-.416.213-.128.341-.224.384-.288.064-.085.245-.192.544-.32.32-.15.501-.267.544-.352 0-.192.075-.373.224-.544.171-.17.384-.341.64-.512.256-.17.437-.32.544-.448.128-.15.395-.47.8-.96.427-.49.736-.853.928-1.088.192-.235.427-.565.704-.992.277-.448.491-.875.64-1.28.021-.043.117-.213.288-.512.192-.32.309-.565.352-.736.064-.17.053-.373-.032-.608.085-.363.277-.672.576-.928 0-.96-.181-1.44-.544-1.44-.192 0-.448.075-.768.224-.32.128-.544.203-.672.224-1.067 1.067-1.696 1.6-1.888 1.6 0 .043.011.096.032.16a.537.537 0 0 1 .032.16c-.107.341-.32.8-.64 1.376-.32.576-.523.864-.608.864-.213 0-.341-.085-.384-.256v-.704c0-.107.043-.235.128-.384.085-.17.128-.31.128-.416a.308.308 0 0 0-.064-.16.541.541 0 0 1-.032-.128c0-.085.053-.181.16-.288.128-.107.192-.203.192-.288a.537.537 0 0 0-.032-.16 1.001 1.001 0 0 1-.032-.16.468.468 0 0 1 .224-.16.698.698 0 0 0 .256-.128c.043-.043.043-.139 0-.288.107-.107.235-.288.384-.544.149-.277.299-.48.448-.608l.224-.288c.128-.192.267-.363.416-.512.149-.17.384-.341.704-.512.32-.192.672-.32 1.056-.384 1.301 0 2.155.544 2.56 1.632a1.069 1.069 0 0 0-.096.48c0 .192.011.416.032.672.043.235.064.416.064.544 0 .15-.053.363-.16.64-.107.277-.16.48-.16.608s-.117.47-.352 1.024c-.128.277-.373.64-.736 1.088-.341.427-.565.736-.672.928-.043.085-.181.224-.416.416-.213.17-.32.341-.32.512l.064.032c.043.021.064.053.064.096-.704 1.088-2.155 2.73-4.352 4.928-.043.021-.085.085-.128.192a.758.758 0 0 1-.096.192 7.284 7.284 0 0 1-.48.416 5.087 5.087 0 0 0-.48.48c-.683.832-1.621 1.504-2.816 2.016-.384.213-.949.416-1.696.608s-1.355.288-1.824.288c-.427 0-.885-.117-1.376-.352-.491-.235-.885-.523-1.184-.864 0-.384-.171-.619-.512-.704 0-.107.021-.245.064-.416.043-.192.064-.31.064-.352-.149-.256-.224-.405-.224-.448Zm17.728 2.432c.085-.021.096-.299.032-.832a20.72 20.72 0 0 1-.064-.992c0-.32.117-.821.352-1.504.256-.704.384-1.163.384-1.376 0-.15.075-.33.224-.544.171-.213.267-.363.288-.448.085-.299.181-.555.288-.768.128-.235.267-.448.416-.64.149-.213.256-.384.32-.512.96-1.813 1.952-3.232 2.976-4.256.085-.085.32-.395.704-.928.405-.533.8-.939 1.184-1.216a2.38 2.38 0 0 1 1.376-.416c.832 0 1.397.288 1.696.864 0 .405.181.608.544.608 0-.021.064-.064.192-.128.149-.085.32-.17.512-.256.192-.107.352-.181.48-.224a.59.59 0 0 0 .32-.288c.107-.15.267-.267.48-.352.235-.107.608-.16 1.12-.16.405 0 .757.107 1.056.32.299.192.448.48.448.864 0 .064-.011.16-.032.288a1.386 1.386 0 0 0-.032.224c0 .043.011.128.032.256.021.107.032.203.032.288 0 .235-.075.501-.224.8a7.78 7.78 0 0 1-.608.992c-.256.363-.416.608-.48.736-.811 1.45-1.483 2.453-2.016 3.008-.128.128-.448.47-.96 1.024a50.91 50.91 0 0 1-1.376 1.44c-.405.405-.683.64-.832.704-.171.085-.384.341-.64.768-.256.405-.501.608-.736.608a.764.764 0 0 1-.512-.192c-.149-.15-.245-.224-.288-.224a.25.25 0 0 0-.096.032c-.085.043-.139.043-.16 0-.171-.256-.107-.48.192-.672.32-.213.683-.437 1.088-.672.427-.235.64-.48.64-.736 0-.085.117-.256.352-.512.235-.277.416-.459.544-.544.192-.064.331-.15.416-.256.107-.128.213-.288.32-.48.107-.192.181-.32.224-.384.107-.15.288-.299.544-.448.256-.17.427-.33.512-.48l.384-.64c.213-.341.384-.619.512-.832.149-.235.224-.363.224-.384a.252.252 0 0 0-.032-.096.541.541 0 0 1-.032-.128c.277-.213.576-.608.896-1.184.341-.597.512-1.067.512-1.408 0-.17-.064-.31-.192-.416a3.415 3.415 0 0 0-1.856.864c-.491.448-1.003 1.067-1.536 1.856.021.064.064.096.128.096.085 0 .139.032.16.096a4.563 4.563 0 0 0-.192.512c-.064.256-.16.448-.288.576-.149.128-.277.096-.384-.096a1.48 1.48 0 0 1-.16-.672c0-.235.117-.736.352-1.504-.363-1.152-.757-1.728-1.184-1.728-.363 0-.736.213-1.12.64-.043.021-.053.064-.032.128.043.064.064.107.064.128 0 .085-.224.245-.672.48-.427.235-.683.459-.768.672a4.3 4.3 0 0 1-.288.544 4.38 4.38 0 0 1-.384.544 8.475 8.475 0 0 0-.352.48l-.384.544c-.235.363-.363.555-.384.576-.128.405-.523 1.11-1.184 2.112-.64 1.003-1.077 2.027-1.312 3.072-.043.17-.085.48-.128.928a7.017 7.017 0 0 0 0 1.344c.043.448.16.672.352.672.384 0 1.003-.203 1.856-.608.875-.427 1.344-.65 1.408-.672.064-.021.139-.096.224-.224.085-.15.181-.224.288-.224.043 0 .117.021.224.064.107.021.192.032.256.032.171.064.256.16.256.288 0 .341-.363.832-1.088 1.472-.725.64-1.248.96-1.568.96-.149 0-.384.107-.704.32-.32.235-.597.352-.832.352-.363 0-.811-.224-1.344-.672-.512-.448-.821-.864-.928-1.248Zm11.008-12.768c-.363 0-.544.16-.544.48 0 .192.117.288.352.288a.476.476 0 0 0 .352-.128c-.064 0-.096-.107-.096-.32 0-.213-.021-.32-.064-.32ZM1.842 19.164c-.149-.064-.138-.182.032-.352l.992-2.624c.064-.17.288-.8.672-1.888.384-1.11.694-1.92.928-2.432.022-.064.096-.182.224-.352.15-.192.203-.342.16-.448-.064-.15-.042-.278.064-.384.107-.107.171-.203.192-.288.128-.832.566-2.07 1.312-3.712.086-.15.214-.512.384-1.088a9.927 9.927 0 0 1 .608-1.472c.214-.427.438-.64.672-.64.128 0 .256.064.384.192.022.021.064.074.128.16.086.064.128.106.128.128 0 .021.011.074.032.16.043.085.032.15-.032.192-.106.17-.138.405-.096.704.022.192-.021.416-.128.672a5.316 5.316 0 0 0-.16.544c0 .341-.074.533-.224.576-.042.064-.064.181-.064.352 0 .15-.01.245-.032.288-.042.32-.202.81-.48 1.472-.277.64-.448 1.12-.512 1.44.768.042 1.312.064 1.632.064.32 0 .694-.032 1.12-.096.107-.022.32-.075.64-.16.342-.086.608-.139.8-.16.128 0 .47-.064 1.024-.192.576-.128.95-.17 1.12-.128.256.106.448.138.576.096.064-.17.192-.256.384-.256.022 0 .171.01.448.032.299.021.448-.01.448-.096a.31.31 0 0 1 .192.128c.043.042.086.064.128.064l.256-.192c.086.213.139.32.16.32.022 0 .043-.075.064-.224.022-.17.054-.267.096-.288.043.021.15.042.32.064.171 0 .288.053.352.16a.212.212 0 0 1 .032.192c0 .042-.042.096-.128.16l-.192.128a1.75 1.75 0 0 0-.384.192V9.98c-.128.021-.32.15-.576.384-.256.213-.501.288-.736.224-.213-.064-.533-.01-.96.16-.426.17-.64.352-.64.544-.085.042-.17.032-.256-.032-.085-.086-.17-.118-.256-.096 0 .021.022.053.064.096.064.085.064.138 0 .16-.192 0-.544.085-1.056.256-.512.17-.906.213-1.184.128-.021 0-.064.032-.128.096-.042.042-.16.106-.352.192-.192.085-.448.138-.768.16-.597.064-1.205.096-1.824.096-.789 0-1.28.096-1.472.288-.128.128-.192.234-.192.32a.584.584 0 0 1-.032.32l-.896 2.24a263.89 263.89 0 0 1-.992 2.336c-.042.085-.085.245-.128.48-.021.234-.064.405-.128.512-.085.042-.16.17-.224.384a5.12 5.12 0 0 0-.096.704 3.943 3.943 0 0 1-.064.512c-.17.405-.448.608-.832.608-.128 0-.266-.054-.416-.16-.106-.64-.149-1.056-.128-1.248 0-.064.011-.128.032-.192a.311.311 0 0 0 .064-.16c0-.043-.032-.086-.096-.128Zm7.232-16.16c0-.32.278-.448.832-.384-.021-.128 0-.214.064-.256a.524.524 0 0 1 .288-.064c.15-.022.256-.043.32-.064.278-.107.928-.235 1.952-.384 1.046-.15 1.718-.214 2.016-.192.214.021.555.01 1.024-.032.47-.064.8-.075.992-.032.086.192.224.256.416.192.384-.043.832 0 1.344.128.171.042.416.128.736.256.32.106.502.17.544.192.171.47.139.757-.096.864a2.731 2.731 0 0 1-2.016 0c-.106-.022-.181-.022-.224 0-.042.021-.181.053-.416.096a7.48 7.48 0 0 1-.736.032c-.106 0-.33.021-.672.064-.341.021-.586.032-.736.032-.17 0-.288-.01-.352-.032-.064-.043-.064-.107 0-.192.704.064 1.12.053 1.248-.032 0-.107-.373-.16-1.12-.16-1.45 0-2.25.096-2.4.288 0 .021.011.042.032.064.192 0 .747-.054 1.664-.16.107.085.022.17-.256.256-.448.128-.97.181-1.568.16-.128-.022-.288.01-.48.096a1.534 1.534 0 0 1-.448.096c-.874 0-1.312-.064-1.312-.192 0-.043.022-.086.064-.128.15-.192.192-.31.128-.352-.042-.064-.17-.075-.384-.032-.042 0-.064-.022-.064-.064l.064-.128a.136.136 0 0 0 0-.128c-.042 0-.106.032-.192.096a1.049 1.049 0 0 0-.16.128c-.021.021-.053.01-.096-.032Zm8.658 17.28c-.171.085-.342.128-.512.128-.32 0-.555-.128-.704-.384-.128-.256-.096-.587.096-.992.128-.256.362-.608.704-1.056.34-.448.576-.79.704-1.024.149-.256.362-.47.64-.64.298-.17.49-.31.575-.416.064-.064.107-.192.128-.384.022-.192 0-.288-.064-.288a.245.245 0 0 0-.096.032.356.356 0 0 1-.16.032.364.364 0 0 1-.127-.128c-.15-.235-.043-.544.32-.928.383-.384.725-.502 1.023-.352.32.192.448.448.384.768-.085.384-.032.576.16.576.171 0 .416-.118.736-.352.086-.064.416-.17.992-.32.598-.17.96-.246 1.088-.224.107.042.256.128.448.256.214.106.363.17.448.192.32.085.8.245 1.44.48.662.234 1.238.416 1.729.544.49.128.927.192 1.311.192.235 0 .47-.032.704-.096.171-.064.342-.182.512-.352.171-.17.342-.374.513-.608.192-.235.34-.406.448-.512.533-.534 1.333-.8 2.4-.8.511 0 .885.074 1.12.224.255.15.426.458.511.928.022.15 0 .298-.064.448a1.15 1.15 0 0 1-.32.416 9.42 9.42 0 0 1-.48.384c-.149.106-.352.224-.608.352-.234.128-.426.234-.575.32-.15.064-.352.15-.608.256a3.696 3.696 0 0 0-.48.224l-.512.16c-.257.064-.491.15-.704.256-.192.085-.32.192-.384.32-.15.277.042.682.576 1.216.533.533 1.002.917 1.408 1.152.298.15.576.277.831.384.278.106.566.202.864.288.32.085.577.15.769.192.213.042.512.096.896.16.405.085.693.15.864.192.106.021.693.021 1.76 0 1.066 0 1.632-.01 1.696-.032.02-.022.106 0 .256.064.17.064.277.074.32.032 0-.064-.043-.118-.128-.16.128-.043.277-.064.448-.064.106 0 .053.085-.16.256-.214.192-.331.341-.352.448 0 .128-.14.213-.416.256-.257.064-.608.096-1.056.096-.427.021-.683.032-.768.032l-.545.128c-.384.106-.693.15-.928.128l-1.28-.16a34.767 34.767 0 0 1-2.08-.32c-.533-.107-1.14-.31-1.823-.608-.683-.278-1.248-.64-1.697-1.088-.255-.256-.511-.715-.767-1.376-.235-.683-.331-1.216-.288-1.6-.171-.086-.288-.128-.352-.128-.512 0-1.078-.086-1.696-.256a23.314 23.314 0 0 1-1.953-.736c-.704-.299-1.205-.49-1.504-.576-.447-.128-1.386.245-2.816 1.12a7.32 7.32 0 0 0-.736.512c-.213.17-.426.384-.64.64-.191.256-.34.448-.447.576-.086.128-.256.394-.512.8-.235.405-.395.672-.48.8Zm13.983-4.96c-.469.362-.575.544-.32.544.15 0 .352-.043.609-.128.34-.064.48-.214.416-.448-.022-.128-.107-.192-.257-.192-.149 0-.298.074-.447.224Zm9.473 6.816c-.129-.022-.16-.086-.096-.192h.16a.52.52 0 0 0-.033-.128c-.02-.064-.01-.096.032-.096.022 0 .065-.054.129-.16.085-.086.17-.118.255-.096.342.15.385.33.129.544-.171.128-.363.17-.577.128Zm-3.705-4.896c0-.107.022-.246.064-.416a1.75 1.75 0 0 0 .064-.384.732.732 0 0 0-.064-.224 1.052 1.052 0 0 1-.064-.32c0-.299.342-.8 1.024-1.504.683-.704 1.248-1.227 1.696-1.568.171-.128.502-.299.992-.512.491-.214.832-.438 1.024-.672.256-.32 1.014-.48 2.272-.48.256 0 .512.064.768.192.278.128.416.33.416.608 0 .128-.149.266-.448.416-.277.15-.426.32-.448.512 0 .064.064.096.192.096.235 0 .352.096.352.288-.021.256-.288.554-.8.896-.512.32-.981.565-1.408.736-.149.064-.362.16-.64.288a5.71 5.71 0 0 1-.736.288 2.565 2.565 0 0 1-.736.096c-.17 0-.266-.128-.288-.384-.021-.278-.096-.416-.224-.416-.341 0-.672.224-.992.672-.32.426-.48.821-.48 1.184 0 .512.214.896.64 1.152.448.234.982.352 1.6.352.171 0 .427.021.768.064.342.042.63.064.864.064.662 0 1.846-.427 3.552-1.28 1.728-.854 2.624-1.28 2.688-1.28.171 0 .256.064.256.192 0 .15-.16.405-.48.768-.32.341-.608.576-.864.704-.234.106-.618.341-1.152.704-.512.341-.992.63-1.44.864-.448.234-.842.352-1.184.352-.277 0-.736.085-1.376.256-.618.15-1.141.224-1.568.224-.981 0-1.792-.224-2.432-.672-.938-.704-1.408-1.323-1.408-1.856Zm4.064-3.232c.278 0 .608-.118.992-.352.384-.256.619-.512.704-.768a1.135 1.135 0 0 0-.512-.128c-.49 0-.885.416-1.184 1.248Zm16.693 5.12c-.064-.49.043-.832.32-1.024.171-.128.299-.139.384-.032.064.064.118.085.16.064.043-.022.075-.022.096 0 .043 0 .054.032.032.096-.064.213 0 .32.192.32.107 0 .118.042.032.128-.064.064-.16.138-.288.224 0 .128.086.192.256.192.192 0 .31.021.352.064.235.213.47.341.704.384.918.17 2.24-.01 3.968-.544.086-.022.267-.064.544-.128.278-.064.512-.128.704-.192.192-.086.363-.17.512-.256.128-.064.192-.224.192-.48.022-.256 0-.438-.064-.544-.17-.128-.224-.235-.16-.32.043-.043-.042-.182-.256-.416-.213-.235-.362-.352-.448-.352-.085-.107-.288-.267-.608-.48-.32-.214-.501-.416-.544-.608a.405.405 0 0 0-.096-.192.405.405 0 0 0-.192-.096 1.057 1.057 0 0 1-.16-.128.44.44 0 0 1-.096-.224c-.021-.128-.074-.203-.16-.224-.106.064-.234 0-.384-.192l-1.024-1.024c-.682-.576-1.184-1.13-1.504-1.664-.32-.555-.48-1.227-.48-2.016 0-.704.139-1.398.416-2.08.278-.683.694-1.152 1.248-1.408.384-.235.576-.384.576-.448-.149-.064-.16-.139-.032-.224.086-.043.139-.032.16.032a.16.16 0 0 1 0 .192c.086.021.128 0 .128-.064.022-.17 0-.278-.064-.32-.042-.043-.096-.032-.16.032a.686.686 0 0 1-.16.128c-.042.021-.064.01-.064-.032 0-.128.15-.31.448-.544.299-.256.534-.427.704-.512.043-.043.288-.16.736-.352.47-.192.715-.288.736-.288.448-.064.683-.107.704-.128.043-.043.086-.096.128-.16.043-.064.086-.118.128-.16a.394.394 0 0 1 .224-.064c.128-.022.288-.01.48.032.214.021.352.032.416.032-.042.17.032.288.224.352.128.042.203-.01.224-.16V3.26c-.128.021-.213.021-.256 0-.021-.043.022-.086.128-.128.256-.086.438-.128.544-.128.534 0 1.014.256 1.44.768.448.49.694 1.013.736 1.568 0 .213-.042.533-.128.96-.106 0-.224-.075-.352-.224-.128-.15-.266-.224-.416-.224-.128-.064-.224-.182-.288-.352 0-.15-.117-.299-.352-.448-.234-.17-.352-.342-.352-.512-.256 0-.448-.182-.576-.544a.206.206 0 0 0-.16-.16 1.177 1.177 0 0 0-.352-.096 2.737 2.737 0 0 0-.288-.032c-.17-.043-.288-.032-.352.032-.042.064-.053.17-.032.32.022.15.054.277.096.384a.31.31 0 0 1 .064.16c-.256.192-.672.405-1.248.64-.576.213-.917.341-1.024.384-.064.042-.17.128-.32.256a1.373 1.373 0 0 1-.32.256c-.149.064-.277.16-.384.288a3.923 3.923 0 0 0-.352.416c-.106.17-.202.31-.288.416a1.535 1.535 0 0 0-.192.416c-.042.17-.096.31-.16.416-.064.085-.17.106-.32.064 0 .064.064.128.192.192a3.515 3.515 0 0 1-.192.48c-.085.234-.117.426-.096.576.107.64.203 1.024.288 1.152.15.256.726.874 1.728 1.856 1.024.981 1.718 1.61 2.08 1.888.128.085.406.384.832.896.448.49.715.81.8.96.299.64.512 1.12.64 1.44.15.277.15.693 0 1.248-.128.533-.352.832-.672.896-.042.021-.149.138-.32.352-.042.064-.245.096-.608.096-.085.042-.256.138-.512.288a2.38 2.38 0 0 1-.576.288c-.149.064-.394.096-.736.096-.32-.022-.565-.01-.736.032-.938.298-1.76.448-2.464.448-.149 0-.224-.022-.224-.064 0-.043-.01-.064-.032-.064h-.096c-.085.085-.32.128-.704.128.022-.128.086-.214.192-.256.128-.022.256-.022.384 0a.9.9 0 0 0 .416-.032l.192-.064c.086-.022.182-.054.288-.096.107-.064.171-.118.192-.16.043-.064.032-.139-.032-.224-.128 0-.373.01-.736.032a5.08 5.08 0 0 1-.704-.032 1.77 1.77 0 0 0-.416.16c-.149.064-.288.106-.416.128a1.36 1.36 0 0 1-.416 0 1.508 1.508 0 0 1-.64-.32c-.192-.17-.245-.352-.16-.544-.256-.427-.394-.694-.416-.8Zm8.608-14.784c-.064-.15-.074-.224-.032-.224l.16.032.064.192h-.192Zm5.008 12.96c-.085-.534.032-1.45.352-2.752.085-.512.31-1.163.672-1.952.384-.79.768-1.419 1.152-1.888.277-.32.65-.939 1.12-1.856.49-.918.885-1.547 1.184-1.888.277-.278.683-.875 1.216-1.792.533-.918.97-1.515 1.312-1.792.021-.022.17.01.448.096.128.021.192.01.192-.032a.528.528 0 0 0-.032-.16.52.52 0 0 0-.224-.256 5.051 5.051 0 0 0-.224-.16c-.064-.043-.075-.096-.032-.16.042-.064.128-.075.256-.032.128.021.245 0 .352-.064.085-.064.096-.214.032-.448a1.198 1.198 0 0 1 .064-.672c.192-.342.501-.512.928-.512.213 0 .384.042.512.128.128.085.181.192.16.32-.022.106-.064.181-.128.224-.043.021-.128.021-.256 0a2.464 2.464 0 0 0-.224-.032.398.398 0 0 0-.288.128c-.192.256-.267.682-.224 1.28.043.213.043.405 0 .576-.022.15-.15.362-.384.64-.256.298-.555.736-.896 1.312a13.78 13.78 0 0 1-.928 1.472c-.214.298-.523.864-.928 1.696-.384.81-.768 1.472-1.152 1.984-.128.17-.342.597-.64 1.28a8.042 8.042 0 0 1-.96 1.76c-.128.17-.32.714-.576 1.632-.235.896-.341 1.472-.32 1.728.874-.022 1.973-.214 3.296-.576.128-.043.384-.139.768-.288.384-.17.715-.288.992-.352.299-.086.576-.107.832-.064 1.024.17 1.6.426 1.728.768.021.042.181.32.48.832.32.49.501.842.544 1.056.043.277.16.768.352 1.472.192.704.299 1.258.32 1.664 0 .256.01.48.032.672.021.192.053.405.096.64.064.256.17.448.32.576a.85.85 0 0 0 .608.16c.106 0 .512-.086 1.216-.256.15-.022.256-.128.32-.32.085-.17.181-.288.288-.352.085-.064.15-.096.192-.096.021 0 .043.074.064.224.042.15.15.224.32.224.043 0 .085-.022.128-.064.043-.022.075-.064.096-.128l.064-.128.096-.096c.043 0 .085.021.128.064.106.106.16.245.16.416 0 .192-.043.33-.128.416-.043.042-.085.042-.128 0a.348.348 0 0 1-.064-.128.284.284 0 0 0-.032-.128c-.022-.022-.053-.01-.096.032a.309.309 0 0 1-.16.128.57.57 0 0 0-.16.16c-.021.064-.043.17-.064.32-.022.085-.118.181-.288.288-.15.106-.33.213-.544.32a4.79 4.79 0 0 0-.416.224c-.405.234-.81.352-1.216.352-.96 0-1.579-.459-1.856-1.376-.15-.427-.459-1.75-.928-3.968-.128-.683-.288-1.248-.48-1.696a3.927 3.927 0 0 0-.128-.224 1.074 1.074 0 0 0-.16-.256.503.503 0 0 0-.128-.192.482.482 0 0 0-.16-.192.344.344 0 0 0-.192-.064c-.17-.022-.427.021-.768.128-.342.106-.523.16-.544.16-.47.106-1.173.341-2.112.704-.939.362-1.696.576-2.272.64-.32.021-.662-.086-1.024-.32a1.405 1.405 0 0 0-.48-.224c-.17-.064-.278-.139-.32-.224-.043-.107-.085-.352-.128-.736Zm16.072 3.616c-.15-.47-.235-.726-.256-.768 0-.064.064-.32.192-.768.15-.299.352-.758.608-1.376a78.44 78.44 0 0 1 .736-1.6c.235-.47.48-.886.736-1.248.192-.299.32-.598.384-.896.085-.32.107-.555.064-.704a.745.745 0 0 1 .032-.384c.021-.043.043-.15.064-.32.043-.192.107-.33.192-.416a.575.575 0 0 1 .448-.224c.15 0 .31.053.48.16a.74.74 0 0 1 .192.128c.043.042.064.085.064.128a.283.283 0 0 1 .032.128.52.52 0 0 1-.032.128v.192c0 .064.043.074.128.032.021-.022.043-.032.064-.032h.064c.021.021.021.074 0 .16a.755.755 0 0 1-.096.32.468.468 0 0 1-.16.224c-.043.042-.043.096 0 .16.064.064.085.117.064.16a.363.363 0 0 1-.128.128.502.502 0 0 0-.128.096.502.502 0 0 0-.128.096l-.096.096c0 .021.01.053.032.096.021.021.053.021.096 0a.245.245 0 0 1 .096-.032c.043-.022.064-.01.064.032 0 .234-.043.49-.128.768a2.877 2.877 0 0 1-.288.672c-.085.15-.224.384-.416.704-.17.32-.288.533-.352.64-.256.47-.427.906-.512 1.312l-.608 1.248a2.104 2.104 0 0 0-.16.48 9.597 9.597 0 0 0-.096.48.815.815 0 0 1-.192.384.882.882 0 0 1-.384.352c-.128.064-.267 0-.416-.192a1.774 1.774 0 0 1-.256-.544Zm8.224-17.76c-.107-.043-.16-.107-.16-.192 0-.086.021-.182.064-.288.043-.128.064-.214.064-.256-.085-1.003.117-1.686.608-2.048.192-.128.384-.192.576-.192.128 0 .299.053.512.16.128.085.32.192.576.32.256.106.427.181.512.224.128.064.213.16.256.288a.696.696 0 0 0 .128.256c.235.15.277.362.128.64-.064.106-.128.16-.192.16-.043 0-.139-.064-.288-.192-.15-.128-.267-.182-.352-.16-.043 0-.075.032-.096.096 0 .042-.032.053-.096.032-.043-.022-.085-.086-.128-.192-.043-.107-.096-.17-.16-.192a.311.311 0 0 0-.16.064.136.136 0 0 1-.128 0 .403.403 0 0 1-.096-.16c-.021-.086-.01-.139.032-.16.043 0 .085.01.128.032.043 0 .075.01.096.032.021.021.043.021.064 0 .043-.043.053-.128.032-.256 0-.128-.032-.203-.096-.224-.064-.043-.128-.01-.192.096s-.117.16-.16.16a.284.284 0 0 1-.128-.032 76.333 76.333 0 0 0-.064-.128l-.064-.128C97.347.88 97.315.86 97.272.86c-.021 0-.053.032-.096.096-.192.192-.245.298-.16.32h.224c.107 0 .17.01.192.032.15.128.192.256.128.384a.498.498 0 0 1-.256.256l-.512.128a.679.679 0 0 0-.384.384.741.741 0 0 1-.16.32c-.021.021-.021.096 0 .224.043.128.032.192-.032.192-.021 0-.043-.01-.064-.032Zm.512.8a.287.287 0 0 1-.192-.16c-.021-.107.021-.182.128-.224.192-.107.288-.064.288.128-.085.17-.16.256-.224.256Zm.224 0a.37.37 0 0 0 .064-.096l.096-.096c.128-.064.192-.022.192.128 0 .106-.117.128-.352.064Zm-6.456 26.752c-.683 0-1.142-.17-1.376-.512-.17-.235-.043-.47.384-.704.17-.15.192-.363.064-.64-.128-.256-.181-.63-.16-1.12.021-.49.213-.896.576-1.216.021-.022.106-.086.256-.192.15-.107.245-.182.288-.224l.224-.224a.976.976 0 0 0 .224-.32c.021-.086.032-.182.032-.288 0-.64.576-2.23 1.728-4.768.021-.043.181-.203.48-.48.32-.278.48-.512.48-.704 0-.15.245-.427.736-.832.49-.427.736-.726.736-.896 0-.619.437-1.12 1.312-1.504.043-.043.256-.288.64-.736.405-.47.715-.81.928-1.024.235-.235.544-.534.928-.896.384-.384.736-.672 1.056-.864.32-.214.608-.352.864-.416.17-.043.469-.256.896-.64.426-.406.864-.608 1.312-.608.256 0 .522-.128.8-.384.277-.256.426-.384.448-.384.234 0 .565-.118.992-.352.426-.256.768-.384 1.024-.384.938-.15 1.461-.224 1.568-.224.448 0 .832.16 1.152.48.149.15.384.565.704 1.248.298 1.002.149 2.165-.448 3.488 0 .064-.096.181-.288.352-.171.15-.256.277-.256.384 0 .17-.15.426-.448.768-.278.341-.438.576-.48.704-.107.298-.31.576-.608.832a5.067 5.067 0 0 0-.672.608c-.15.17-.15.352 0 .544.085.15.181.224.288.224.085 0 .17-.096.256-.288.106-.214.224-.47.352-.768.128-.299.256-.523.384-.672.149-.15.618-.598 1.408-1.344.789-.768 1.376-1.398 1.76-1.888.17-.064.298-.064.384 0 .106.042.224-.032.352-.224.213-.278.373-.416.48-.416a.576.576 0 0 0 .288-.096c.106-.235.309-.448.608-.64.32-.214.597-.32.832-.32.128 0 .277-.118.448-.352.17-.256.277-.384.32-.384.064 0 .138.021.224.064.106.021.202.032.288.032.085 0 .16-.032.224-.096l.096-.096a.473.473 0 0 1 .192-.16c.085-.064.16-.075.224-.032.149.085.33.128.544.128.149 0 .352-.022.608-.064.277-.043.469-.064.576-.064h.352c.128-.022.213-.032.256-.032.042-.022.096-.022.16 0 .064 0 .096.01.096.032.021 0 .064.053.128.16.064.085.117.17.16.256l.224.448c.106.213.224.426.352.64.17.426.266.79.288 1.088.021.298-.075.65-.288 1.056a4.988 4.988 0 0 1-.608.96c-.192.256-.427.565-.704.928a9.177 9.177 0 0 0-.64.928c-.043.064-.15.128-.32.192-.15.042-.288.15-.416.32a3.808 3.808 0 0 1-.416.416c-.192.17-.31.277-.352.32-.171.15-.427.394-.768.736-.32.341-.608.608-.864.8-.235.192-.459.288-.672.288a.678.678 0 0 1-.448-.16c-.15-.107-.107-.235.128-.384l.704-.512c.256-.192.32-.374.192-.544-.107-.107-.192-.16-.256-.16-.214 0-.544.341-.992 1.024-.448.682-.768 1.066-.96 1.152-.235.085-.406.181-.512.288-.086.106-.256.16-.512.16h-.256a3.51 3.51 0 0 0-.064.064c-.022.021-.043.085-.064.192a1.948 1.948 0 0 1-.096.32 1.862 1.862 0 0 1-.576.128c-.043 0-.086.021-.128.064-.043.042-.064.117-.064.224-.128.49-.278.832-.448 1.024a2.012 2.012 0 0 0-.768.448l-.256.384a4.01 4.01 0 0 1-.256.416c-.043.064-.032.15.032.256.085.128.074.202-.032.224-.448.192-.704.362-.768.512-.064.15-.15.48-.256.992-.107.512-.235.874-.384 1.088-.128.234-.32.288-.576.16-.086-.064-.192.01-.32.224-.107.213-.16.384-.16.512s-.032.202-.096.224c-.043.042-.118.064-.224.064a.283.283 0 0 0-.192.16c-.107.17-.171.373-.192.608-.022.234-.064.394-.128.48-.064.106-.203.16-.416.16-.107 0-.214.053-.32.16a.522.522 0 0 0-.16.384c0 .15-.064.277-.192.384-.128.128-.31.256-.544.384a2.44 2.44 0 0 0-.48.416c0 .426-.267.768-.8 1.024-.043.064-.182.128-.416.192-.235.064-.416.16-.544.288-.086.085-.16.128-.224.128-.107 0-.192-.107-.256-.32a3.781 3.781 0 0 1-.128-.832v-.992l.064-.928c.021-.299.032-.47.032-.512.341-.683.576-1.024.704-1.024.234.042.298.47.192 1.28l-.192 1.216c.064.085.117.128.16.128.042 0 .085-.032.128-.096a.733.733 0 0 0 .16-.288c.042-.107.074-.214.096-.32.042-.107.085-.235.128-.384l.096-.288c.128-.107.277-.32.448-.64.192-.299.373-.534.544-.704.17-.17.352-.214.544-.128.106.021.213-.075.32-.288.106-.192.16-.352.16-.48 0-.15.117-.299.352-.448.256-.15.384-.31.384-.48v-.256a.347.347 0 0 1 .064-.096h.064a.314.314 0 0 0 .16-.064.427.427 0 0 0 .192-.16c.128-.17.213-.395.256-.672.064-.256.234-.438.512-.544-.128-.235-.064-.416.192-.544.277-.128.458-.278.544-.448.021-.064.16-.342.416-.832.277-.47.469-.854.576-1.152.064-.17.096-.32.096-.448.021-.107.01-.182-.032-.224a1.687 1.687 0 0 0-.16-.224 1.605 1.605 0 0 1-.192-.288c.064-.064.192-.118.384-.16.192-.022.32-.075.384-.16.085-.086.085-.256 0-.512l-.16.256a.345.345 0 0 1-.32.032c-.128-.064-.118-.224.032-.48.149-.256.138-.502-.032-.736-.064-.086-.203.032-.416.352-.192.32-.384.672-.576 1.056-.171.362-.246.544-.224.544.405 0 .405.117 0 .352-.96.533-1.483.842-1.568.928a.79.79 0 0 0-.192.192c-.406.576-.747 1.333-1.024 2.272-.043.17-.299.576-.768 1.216-.47.64-.704 1.152-.704 1.536 0 .17-.011.31-.032.416a.452.452 0 0 1-.096.224.644.644 0 0 1-.16.224 2.166 2.166 0 0 0-.16.32c-.086.15-.182.074-.288-.224-.192-.363-.16-.875.096-1.536.256-.662.384-1.056.384-1.184 0-.32.266-.907.8-1.76.17-.235.458-.715.864-1.44.426-.704.704-1.12.832-1.248.042-.043.17-.299.384-.768.213-.448.33-.694.352-.736.042-.086.149-.182.32-.288a2.39 2.39 0 0 0 .416-.32c.106-.128.117-.256.032-.384-.064-.107-.15-.096-.256.032a6.198 6.198 0 0 1-.416.448c-.171.192-.363.288-.576.288-.171 0-.438.266-.8.8-.342.533-.576.842-.704.928-1.792.661-3.126.992-4 .992-.278 0-.48-.043-.608-.128-.107-.064-.139-.192-.096-.384.043-.214.256-.267.64-.16.128.042.192.032.192-.032 0-.022-.01-.043-.032-.064a.577.577 0 0 0-.576-.384c-.32 0-.64.138-.96.416-.32.298-.48.608-.48.928 0 .15-.107.352-.32.608a7.594 7.594 0 0 1-.704.736l-.448.448c-.043.042-.053.106-.032.192.043.106.075.17.096.192.021.042 0 .074-.064.096-.17 0-.31.064-.416.192a4.9 4.9 0 0 0-.288.512 1.469 1.469 0 0 1-.32.544 7.02 7.02 0 0 0-.288.128c-.022.021-.022.074 0 .16.021.085.032.15.032.192l-1.216 1.504c-.085.085-.33.352-.736.8-.406.47-.757.821-1.056 1.056-.32.234-.63.352-.928.352Zm.992-5.696c0 .426-.246 1.194-.736 2.304-.49 1.11-.662 1.834-.512 2.176.021.106.064.16.128.16s.15-.118.256-.352c.106-.214.213-.459.32-.736.107-.278.203-.459.288-.544.064-.064.181-.17.352-.32.15-.128.256-.246.32-.352a.575.575 0 0 0 .096-.352c0-.15.16-.288.48-.416.32-.128.48-.32.48-.576 0-.15.085-.256.256-.32.17-.043.31-.096.416-.16.128-.043.15-.128.064-.256-.064-.086.512-1.142 1.728-3.168.043-.086.106-.192.192-.32a.976.976 0 0 0 .224-.32c.043-.107.064-.235.064-.384 0-.299.021-.48.064-.544.043-.064.213-.139.512-.224.064-.15.277-.384.64-.704.362-.342.544-.598.544-.768 0-.363.15-.65.448-.864a1.56 1.56 0 0 1 1.024-.288c.405.021.384.458-.064 1.312-.576 1.088-.864 1.77-.864 2.048-.022.213.042.373.192.48.15.106.31.053.48-.16.192-.192.373-.288.544-.288.106 0 .256.021.448.064.213.042.362.064.448.064a.477.477 0 0 0 .352-.128c.085-.086.202-.214.352-.384l.416-.416a6.42 6.42 0 0 1 .384-.352c.17-.128.341-.246.512-.352.17-.107.352-.192.544-.256.341-.15.736-.48 1.184-.992.448-.534.789-.864 1.024-.992.661-.32.992-.566.992-.736 0-.107-.011-.214-.032-.32-.022-.022 0-.043.064-.064l.256-.128c.426-.427.736-.843.928-1.248.234-.448.405-.8.512-1.056a9.76 9.76 0 0 0 .384-.992c.149-.406.213-.758.192-1.056a1.434 1.434 0 0 0-.32-.832 1.213 1.213 0 0 0-.992-.48c-.384 0-.832.138-1.344.416-.491.277-1.067.661-1.728 1.152-.662.47-1.11.778-1.344.928-.427.32-.758.48-.992.48-.171 0-.448.202-.832.608-.384.384-.779.576-1.184.576a.217.217 0 0 0-.16.064 3.396 3.396 0 0 0-.096.224.804.804 0 0 1-.224.256 2.87 2.87 0 0 1-.352.256 3.311 3.311 0 0 0-.224.096c-.043 0-.096.032-.16.096a2.72 2.72 0 0 0-.256.32c-.427.576-1.184 1.376-2.272 2.4-.086.085-.203.277-.352.576l-.416.832-.16.384a2.86 2.86 0 0 1-.288.16l-.256.128a1.44 1.44 0 0 0-.192.128.743.743 0 0 0-.192.128.687.687 0 0 1-.128.16 2.086 2.086 0 0 0-.128.224 4.473 4.473 0 0 1-.096.32c-.064.298-.288.682-.672 1.152-.363.49-.544.917-.544 1.28 0 .085-.16.298-.48.64-.342.341-.512.544-.512.608Zm18.592-7.936c-.299 0-.726.362-1.28 1.088-.534.704-.683 1.173-.448 1.408.042.042.042.181 0 .416a9.555 9.555 0 0 0-.096.544c-.022.128.01.213.096.256.213.085.565-.15 1.056-.704.49-.576.981-1.238 1.472-1.984.512-.768.81-1.195.896-1.28.234-.256.416-.384.544-.384.064 0 .138.021.224.064a.49.49 0 0 0 .192.064c.085 0 .192-.075.32-.224a.36.36 0 0 0 .032-.16c0-.064.032-.139.096-.224.064-.086.181-.203.352-.352.128-.107.16-.16.096-.16-.043 0-.171.032-.384.096a3.299 3.299 0 0 1-.48.128c-.107.021-.182 0-.224-.064 0-.512.416-.768 1.248-.768.234 0 .405-.064.512-.192.106-.15.17-.224.192-.224.064 0 .149.053.256.16-.107.405-.31.864-.608 1.376-.278.49-.576.864-.896 1.12-.043.042-.022.106.064.192.085.064 0 .17-.256.32s-.448.47-.576.96c-.107.47-.171.725-.192.768.256 0 .64-.246 1.152-.736.533-.512.81-.768.832-.768.128 0 .384-.096.768-.288.384-.192.629-.342.736-.448a.92.92 0 0 1 .544-.384c.234-.086.384-.139.448-.16.064-.022.064-.17 0-.448a.387.387 0 0 1 0-.224c.021-.086.074-.203.16-.352.106-.17.202-.32.288-.448.085-.15.202-.342.352-.576.17-.256.309-.47.416-.64.192-.342.224-.65.096-.928-.107-.278-.32-.416-.64-.416-.15 0-.31.042-.48.128-.406.192-.896.288-1.472.288l-.48.48c-.107.064-.374.17-.8.32a2.873 2.873 0 0 0-1.152.672 2.152 2.152 0 0 0-.288.384c-.107.15-.192.256-.256.32a2.86 2.86 0 0 1-.288.16 1.25 1.25 0 0 1-.448.064c-.043 0-.288.298-.736.896-.448.576-.768.864-.96.864Zm-10.656.512c-.256 0-.416-.054-.48-.16-.043-.107-.064-.31-.064-.608 0-.683.106-1.024.32-1.024.15 0 .299.15.448.448.17.298.245.597.224.896-.022.298-.17.448-.448.448Zm4.704 2.496c.384 0 1.034-.758 1.952-2.272.064-.086.224-.267.48-.544.661-.768.842-1.163.544-1.184-.278 0-.534.266-.768.8-.214.512-.374.821-.48.928-.064.064-.182.17-.352.32a9.1 9.1 0 0 0-.448.416c-.107.106-.16.202-.16.288 0 .15-.107.33-.32.544a1.785 1.785 0 0 0-.448.704Zm18.79-.032c-.96 0-1.6-.256-1.92-.768-.299-.534-.235-1.174.192-1.92.618-1.13 1.194-1.782 1.728-1.952.17-.086.298-.32.384-.704.085-.406.202-.65.352-.736.064-.043.202-.107.416-.192.213-.107.362-.214.448-.32.085-.128.128-.299.128-.512 0-.043-.064-.16-.192-.352-.107-.192-.128-.32-.064-.384a.778.778 0 0 1 .576-.224c.277 0 .416.17.416.512 0 .725-.246 1.45-.736 2.176-.086.213-.224.49-.416.832-.192.32-.416.65-.672.992a7.835 7.835 0 0 0-.416.64c-.726 1.258-.747 1.76-.064 1.504.021-.022.042-.032.064-.032.192-.086.48-.192.864-.32.405-.15.746-.278 1.024-.384.277-.107.469-.214.576-.32.106-.107.352-.224.736-.352.405-.128.81-.246 1.216-.352.426-.128.672-.203.736-.224.234-.086.725-.16 1.472-.224.768-.086 1.344-.256 1.728-.512.448-.299 1.173-.619 2.176-.96 1.002-.342 1.76-.512 2.272-.512.341 0 .512.096.512.288 0 .042-.054.106-.16.192-.107.064-.16.117-.16.16 0 .042.021.064.064.064a.25.25 0 0 0 .096-.032.31.31 0 0 1 .16-.064c.128 0 .192.106.192.32 0 .256-.096.544-.288.864-.043.064-.182.213-.416.448-.214.234-.342.47-.384.704.064.15.448.16 1.152.032.725-.15 1.12-.224 1.184-.224.106 0 .192.032.256.096.064.042.085.106.064.192-.022.106-.118.224-.288.352-.171.106-.256.17-.256.192 0 .042.106.064.32.064.213 0 .373-.075.48-.224.106-.15.202-.416.288-.8.085-.406.138-.64.16-.704.341 0 .864-.096 1.568-.288.704-.214 1.269-.32 1.696-.32.384 0 .853-.139 1.408-.416.576-.278.96-.448 1.152-.512.981-.278 1.866-.352 2.656-.224.384.064.842.266 1.376.608.554.341.949.554 1.184.64 1.834.661 3.882.992 6.144.992.021 0 .138-.022.352-.064.213-.043.33-.022.352.064.149.106.32.096.512-.032s.373-.17.544-.128c.49.17.821.224.992.16.085-.022.224-.086.416-.192.213-.128.416-.192.608-.192.405 0 .693-.075.864-.224.192-.15.32-.416.384-.8.085-1.11.448-1.995 1.088-2.656.213-.235.565-.395 1.056-.48.512-.086.853-.203 1.024-.352.17-.15.405-.15.704 0 .106.064.277.042.512-.064.256-.107.426-.16.512-.16a.811.811 0 0 1 .48.096c.192.064.352.138.48.224.149.085.32.202.512.352l.384.256c.874.49 1.312 1.141 1.312 1.952 0 .298-.15.586-.448.864a1.74 1.74 0 0 1-.992.48 5.903 5.903 0 0 0-2.24.736c-.192.106-.704.245-1.536.416-.811.15-1.323.405-1.536.768-.064.128-.032.437.096.928.149.47.224.746.224.832 0 .213.106.49.32.832.213.32.341.544.384.672.021.106.085.47.192 1.088.128.618.266 1.141.416 1.568.149.426.33.704.544.832.149.085.234.15.256.192.042.064.032.16-.032.288a1.41 1.41 0 0 0-.128.352 4.73 4.73 0 0 0-.096.928c.064.426.096 1.002.096 1.728 0 2.048-.075 3.413-.224 4.096-.107.47-.246.917-.416 1.344a14.66 14.66 0 0 1-.704 1.664c-.32.661-.523 1.088-.608 1.28-.726 1.664-1.782 3.136-3.168 4.416-.598.576-1.472 1.066-2.624 1.472-1.131.405-2.155.608-3.072.608-1.088 0-1.664-.342-1.728-1.024a5.342 5.342 0 0 0 1.696.288c.277 0 .48-.054.608-.16.128-.107.149-.267.064-.48-.107-.256-.662-.32-1.664-.192a.996.996 0 0 0-.32.128c-.107.085-.171.128-.192.128-.235.085-.427.085-.576 0-.128-.086-.224-.278-.288-.576a13.52 13.52 0 0 1-.096-.736v-.992c0-.107.053-.299.16-.576.106-.256.16-.48.16-.672 0-.192.117-.384.352-.576.256-.192.341-.363.256-.512-.064-.214-.086-.374-.064-.48.021-.107.085-.246.192-.416.106-.17.17-.288.192-.352.042-.17.096-.31.16-.416.064-.107.117-.192.16-.256.064-.064.138-.15.224-.256.106-.086.192-.182.256-.288.085-.107.192-.32.32-.64.149-.32.352-.555.608-.704.213-.128.448-.33.704-.608.256-.278.426-.448.512-.512.106-.107.277-.33.512-.672.256-.342.49-.566.704-.672l.832-.48c.085-.086.16-.224.224-.416.064-.17.16-.31.288-.416.106-.086.309-.288.608-.608a6.89 6.89 0 0 1 .8-.704c.256-.15.501-.192.736-.128.17-.662.448-1.142.832-1.44.085-.064.245-.096.48-.096.021 0 .096-.064.224-.192.149-.128.256-.192.32-.192s.106.074.128.224c.021.17.01.341-.032.512-.043.192-.107.31-.192.352-.128.064-.299.085-.512.064-.214-.022-.352 0-.416.064a.412.412 0 0 0-.192.192 3.753 3.753 0 0 0-.128.384c-.043.15-.086.256-.128.32-.15.298-.512.714-1.088 1.248-.064.042-.16.15-.288.32-.128.192-.246.32-.352.384a3.176 3.176 0 0 1-.224.064l-.192.096a.354.354 0 0 0-.128.128.392.392 0 0 0-.064.224c0 .277-.064.49-.192.64-.128.17-.31.341-.544.512a3.77 3.77 0 0 0-.512.48c-.939 1.173-1.611 1.93-2.016 2.272-.32.277-.502.48-.544.608a.486.486 0 0 1-.256.288.669.669 0 0 0-.224.32c-.064.17-.214.245-.448.224-.235 0-.427.032-.576.096-.576.384-.747.693-.512.928.064.064.202-.022.416-.256.234-.235.405-.299.512-.192.149.256.213.47.192.64 0 .17-.054.426-.16.768-.086.341-.128.597-.128.768v1.216a.436.436 0 0 1-.128.32.617.617 0 0 0-.096.32c.426.213.896.32 1.408.32a4.31 4.31 0 0 0 2.272-.64 4.24 4.24 0 0 1 .448-.224c.213-.086.373-.17.48-.256.128-.064.266-.182.416-.352.106-.128.49-.523 1.152-1.184.661-.64 1.12-1.206 1.376-1.696.064-.128.234-.384.512-.768.298-.363.48-.65.544-.864.042-.107.106-.363.192-.768.106-.406.202-.726.288-.96a2.05 2.05 0 0 1 .16-.384c.106-.15.16-.256.16-.32 0-.406.042-.715.128-.928.128-.406.192-.992.192-1.76 0-.235.042-.576.128-1.024.106-.427.16-.758.16-.992 0-.235-.086-.576-.256-1.024-.15-.427-.224-.768-.224-1.024 0-.107.042-.235.128-.384.085-.128.106-.235.064-.32-.15-.427-.331-1.11-.544-2.048-.214-.918-.406-1.6-.576-2.048-.064-.15-.16-.544-.288-1.184-.128-.662-.299-1.13-.512-1.408-.214-.299-.534-.395-.96-.288-1.024.256-2.166.384-3.424.384-1.344 0-2.88-.182-4.608-.544-1.707-.384-3.126-.875-4.256-1.472a4.225 4.225 0 0 0-2.016-.512c-.15 0-.331.053-.544.16a1.24 1.24 0 0 1-.48.128c-.235 0-.416.053-.544.16-.107.106-.267.16-.48.16-.619 0-1.131.064-1.536.192a7.233 7.233 0 0 0-1.28.512c-.448.213-.875.384-1.28.512-.171.064-.416.234-.736.512-.299.277-.566.416-.8.416-.214 0-.576.042-1.088.128a9.617 9.617 0 0 1-1.184.096c-.47 0-.864-.139-1.184-.416-.299-.299-.448-.683-.448-1.152 0-.278-.043-.48-.128-.608-.064-.128-.15-.203-.256-.224a2.35 2.35 0 0 0-.48-.032c-.171 0-.683.17-1.536.512-.832.341-1.312.533-1.44.576-.107.021-.544.15-1.312.384-.747.213-1.302.373-1.664.48-.342.106-.79.266-1.344.48-.534.192-.96.384-1.28.576-.598.362-1.174.544-1.728.544Zm39.936-5.216c-.278.426-.395.778-.352 1.056.064.256.352.31.864.16.192-.043.405-.139.64-.288.234-.17.394-.278.48-.32.085-.043.256-.054.512-.032.256.021.458-.01.608-.096 1.13-.342 1.813-.736 2.048-1.184-1.174-.512-1.942-.768-2.304-.768-.171 0-.502.074-.992.224-.491.128-.79.234-.896.32-.15.106-.352.416-.608.928ZM131.91 3.196c-.384-1.046-.054-1.568.992-1.568.896 0 1.706.202 2.432.608.341.213.202.448-.416.704-.384.17-.736.256-1.056.256-.107 0-.32.074-.64.224-.32.15-.555.224-.704.224-.256 0-.459-.15-.608-.448Zm34.08 20.576c-.32-.15-.342-.406-.064-.768.277-.342.565-.448.864-.32.256.106.309.341.16.704-.086.213-.267.341-.544.384-.256.064-.395.064-.416 0Zm-8.128 7.104c-.47-.128-.8-.075-.992.16-.086.106-.075.213.032.32.17.17.33.256.48.256.32 0 .48-.246.48-.736Zm5.632-18.4c.085.15.128.288.128.416a.53.53 0 0 1-.064.288.288.288 0 0 0 0 .192c.042.042.138.085.288.128.234.064.394.032.48-.096a.483.483 0 0 0 .064-.416 1.097 1.097 0 0 0-.16-.384c-.107-.128-.331-.182-.672-.16-.064 0-.086.01-.064.032Zm2.4.128c-.15.106-.192.202-.128.288.021.021.032.042.032.064.021 0 .032.021.032.064a.398.398 0 0 1 .064.096c.128.277.277.416.448.416.192 0 .288-.139.288-.416 0-.192-.096-.352-.288-.48-.192-.128-.342-.139-.448-.032Zm-26.112 4a1.45 1.45 0 0 1-.256.128c-.086.042-.16.085-.224.128a.805.805 0 0 0-.192.096.216.216 0 0 0-.064.16.679.679 0 0 0 .128.16c.042.042.17.021.384-.064a3.01 3.01 0 0 0 .64-.32c.213-.128.298-.224.256-.288-.107-.214-.331-.214-.672 0Zm25.248 7.712c-.107-.17-.064-.31.128-.416.277-.15.426-.086.448.192.021.256-.054.405-.224.448-.107 0-.224-.075-.352-.224ZM132.646 2.46c-.086.128-.15.234-.192.32l-.064.256c0 .064.021.106.064.128a.442.442 0 0 0 .192.032c.234-.022.48-.182.736-.48.085-.15.085-.235 0-.256h-.736Zm34.72 19.744c0-.107.064-.16.192-.16.149 0 .309.074.48.224.17.15.16.298-.032.448-.128.085-.267.053-.416-.096-.15-.128-.224-.267-.224-.416Zm-10.816 9.312c0 .021-.064.085-.192.192-.107.128-.16.213-.16.256.021.042.042.15.064.32.106.17.256.128.448-.128.106-.15.16-.288.16-.416a.305.305 0 0 0-.128-.256c-.064-.064-.128-.054-.192.032Zm5.728 3.36c-.448.234-.534.49-.256.768.064.064.128.085.192.064.085 0 .149-.064.192-.192a.8.8 0 0 0 .096-.416c0-.107-.022-.182-.064-.224-.043-.043-.096-.043-.16 0Zm-3.936 5.088c-.192.277-.192.47 0 .576.128.064.213.042.256-.064.042-.086.064-.256.064-.512 0-.086-.022-.139-.064-.16a.28.28 0 0 0-.128.032l-.128.128Zm10.464-18.176c-.15 0-.256-.032-.32-.096-.043-.064 0-.139.128-.224.106-.064.213-.032.32.096.106.15.064.224-.128.224Zm15.749-2.976c-.427-.064-.832-.32-1.216-.768-.363-.47-.48-.886-.352-1.248.043-.128.085-.31.128-.544.043-.256.096-.459.16-.608.064-.17.149-.342.256-.512.149-.214.416-.523.8-.928.384-.406.64-.715.768-.928.085-.128.213-.256.384-.384.192-.15.405-.288.64-.416a4.47 4.47 0 0 0 .48-.288c.512-.32.853-.48 1.024-.48.107 0 .192.032.256.096.128.15.053.362-.224.64-.256.256-.363.416-.32.48.107.17.203.256.288.256.107 0 .256-.256.448-.768.213-.512.427-.768.64-.768.171 0 .384.074.64.224.256.15.437.224.544.224.555.021 1.141-.256 1.76-.832.299-.256.725-.384 1.28-.384.405 0 .768.074 1.088.224.32.128.48.31.48.544 0 .682-.085 1.226-.256 1.632-.213.533-.427.906-.64 1.12-.192.213-.459.405-.8.576-.32.15-.608.33-.864.544-.128.106-.384.256-.768.448-.384.17-.651.352-.8.544-.213.277-.693.64-1.44 1.088-.747.426-1.312.682-1.696.768-.128.021-.288.096-.48.224-.171.128-.32.202-.448.224-.427.085-1.013.085-1.76 0Zm1.216-3.968c-.875.704-1.312 1.322-1.312 1.856 0 .448.203.672.608.672.277 0 .661-.064 1.152-.192.512-.128.853-.256 1.024-.384.192-.15.555-.363 1.088-.64.555-.299.896-.49 1.024-.576.064-.043.117-.086.16-.128a.937.937 0 0 0 .128-.096l.064-.064c.021-.022.043-.032.064-.032.021 0 .16.138.416.416.107.106.181.16.224.16.107 0 .171-.086.192-.256.043-.17.021-.363-.064-.576-.085-.214-.203-.352-.352-.416-.128-.043-.288-.267-.48-.672-.192-.406-.373-.672-.544-.8a.678.678 0 0 0-.448-.16c-.149 0-.373.106-.672.32-.299.192-.533.288-.704.288-.192 0-.384.074-.576.224-.192.15-.384.341-.576.576-.171.234-.309.394-.416.48Zm.576-2.176c-.405 0-.8.234-1.184.704-.384.448-.448.842-.192 1.184.171.192.523-.043 1.056-.704.491-.704.597-1.099.32-1.184Zm4.576-.192c-.085-.043-.16-.043-.224 0-.043.042-.064.117-.064.224v.256c.021.085.043.192.064.32.021.106.032.17.032.192.043.298.096.47.16.512.064.021.192.032.384.032.149 0 .331-.118.544-.352.213-.235.341-.363.384-.384.256-.192.448-.47.576-.832.064-.17.032-.235-.096-.192a.248.248 0 0 0-.096.032 2.307 2.307 0 0 1-1.088.288c-.192 0-.384-.032-.576-.096Zm-.832 3.296c-.213-.086-.501-.054-.864.096-.341.15-.619.352-.832.608-.213.234-.267.405-.16.512.149.15.597-.032 1.344-.544.533-.363.704-.587.512-.672Zm2.368-4.448c-.533 0-.821.128-.864.384-.021.106.032.202.16.288.149.106.395.106.736 0 .363-.128.533-.288.512-.48-.021-.128-.203-.192-.544-.192Zm-1.216 3.328c-.128.128-.139.277-.032.448.107.17.245.192.416.064.064-.022.075-.086.032-.192a.872.872 0 0 1-.064-.192c.064-.128.405-.459 1.024-.992.256-.214.32-.33.192-.352-.128-.022-.277.021-.448.128-.171.085-.32.192-.448.32a4.836 4.836 0 0 0-.384.448c-.149.17-.245.277-.288.32Zm-5.728 2.848c-.277 0-.213.096.192.288.619.32.939.373.96.16.021-.064-.021-.16-.128-.288a.408.408 0 0 0-.256-.16 1.54 1.54 0 0 0-.448 0h-.32Zm10.888 1.888c-.043-.192-.064-.8-.064-1.824.021-.214.117-.555.288-1.024.17-.49.266-.854.288-1.088 0-.854.202-1.632.608-2.336.149-.278.416-.427.8-.448l.384.256c.17-.043.288-.128.352-.256a.48.48 0 0 0-.032-.448 2.122 2.122 0 0 0-.16-.128.42.42 0 0 1-.16-.192c.192-.064.341-.032.448.096.106.106.138.245.096.416-.043.234-.182.47-.416.704-.043.042-.043.074 0 .096h.16c.042 0 .021.053-.064.16-.043.042-.075.15-.096.32 0 .15.01.266.032.352.021.106-.022.224-.128.352-.107.128-.15.224-.128.288.085.32.053.533-.096.64-.022.021-.043-.01-.064-.096 0-.086-.022-.118-.064-.096-.15.064-.171.277-.064.64.021.021.064-.01.128-.096.042.106.032.288-.032.544-.064.234-.15.49-.256.768a8.042 8.042 0 0 0-.16.512c-.022.064-.064.17-.128.32-.192.384-.224.576-.096.576.149 0 .554-.192 1.216-.576.682-.406 1.088-.704 1.216-.896.149-.256.426-.544.832-.864.405-.342.64-.544.704-.608l.32-.32c.213-.192.405-.363.576-.512.17-.15.298-.224.384-.224.106 0 .256-.086.448-.256.192-.192.362-.395.512-.608.149-.214.288-.427.416-.64l.224-.288.768-.832c.362-.363.714-.608 1.056-.736.192-.086.362-.096.512-.032.106.021.181.032.224.032.042-.022.117-.064.224-.128l.256-.128c.533-.128.949-.107 1.248.064.17.106.234.288.192.544 0 .106-.011.17-.032.192a.355.355 0 0 1-.128.064.602.602 0 0 0-.192.032c-.192.064-.448.234-.768.512-.128.106-.363.256-.704.448-.32.192-.544.298-.672.32-.064.021-.363.298-.896.832-.512.512-.832.853-.96 1.024-.107.17-.384.448-.832.832-.427.384-.715.661-.864.832l-2.112 1.952c-.064.128-.246.298-.544.512a5.328 5.328 0 0 0-.608.48c-.086.085-.246.16-.48.224-.214.042-.363.117-.448.224-.278.298-.779.448-1.504.448-.086 0-.16-.064-.224-.192-.043-.128-.107-.182-.192-.16-.15.106-.267.128-.352.064a24.363 24.363 0 0 1-.16-.16c-.022-.043-.032-.128-.032-.256v-.224Zm13.53-2.144c0-.107.022-.246.064-.416a1.73 1.73 0 0 0 .064-.384.723.723 0 0 0-.064-.224 1.074 1.074 0 0 1-.064-.32c0-.299.342-.8 1.024-1.504.683-.704 1.248-1.227 1.696-1.568.171-.128.502-.299.992-.512.491-.214.832-.438 1.024-.672.256-.32 1.014-.48 2.272-.48.256 0 .512.064.768.192.278.128.416.33.416.608 0 .128-.149.266-.448.416-.277.15-.426.32-.448.512 0 .064.064.096.192.096.235 0 .352.096.352.288-.021.256-.288.554-.8.896-.512.32-.981.565-1.408.736-.149.064-.362.16-.64.288a5.655 5.655 0 0 1-.736.288 2.56 2.56 0 0 1-.736.096c-.17 0-.266-.128-.288-.384-.021-.278-.096-.416-.224-.416-.341 0-.672.224-.992.672-.32.426-.48.821-.48 1.184 0 .512.214.896.64 1.152.448.234.982.352 1.6.352.171 0 .427.021.768.064.342.042.63.064.864.064.662 0 1.846-.427 3.552-1.28 1.728-.854 2.624-1.28 2.688-1.28.171 0 .256.064.256.192 0 .15-.16.405-.48.768-.32.341-.608.576-.864.704-.234.106-.618.341-1.152.704-.512.341-.992.63-1.44.864-.448.234-.842.352-1.184.352-.277 0-.736.085-1.376.256-.618.15-1.141.224-1.568.224-.981 0-1.792-.224-2.432-.672-.938-.704-1.408-1.323-1.408-1.856Zm4.064-3.232c.278 0 .608-.118.992-.352.384-.256.619-.512.704-.768a1.132 1.132 0 0 0-.512-.128c-.49 0-.885.416-1.184 1.248Zm5.621 4.672a.35.35 0 0 1 .064-.192c.043-.086.096-.17.16-.256a.882.882 0 0 0 .16-.192c1.131-2.09 1.856-3.968 2.176-5.632.022-.022.075-.064.16-.128.086-.064.16-.128.224-.192a.618.618 0 0 0 .16-.224.209.209 0 0 0 .032-.192c0-.064-.021-.107-.064-.128-.042-.022-.096-.01-.16.032a8.711 8.711 0 0 0-.224.256 1.457 1.457 0 0 1-.256.224c-.128.064-.117-.032.032-.288.128-.214.203-.32.224-.32.15-.15.32-.256.512-.32.32-.086.566.15.736.704.064.192.032.501-.096.928-.106.426-.138.693-.096.8.342-.17.747-.49 1.216-.96.491-.49.854-.81 1.088-.96.512-.32 1.344-.662 2.496-1.024.406-.128.811-.01 1.216.352.064.064.15.138.256.224.128.064.224.128.288.192.086.064.15.15.192.256.043.106.203.373.48.8.278.426.448.778.512 1.056.022.128.022.256 0 .384a.24.24 0 0 0 .096.256c.022.042.011.117-.032.224a2.028 2.028 0 0 1-.064.256c0 .064.043.106.128.128.128 0 .192.053.192.16v.128c-.32 0-.746-.224-1.28-.672-.106-.15-.277-.31-.512-.48-.042-.022-.042-.096 0-.224l.064-.224c-.021-.043-.085-.096-.192-.16-.106-.064-.17-.128-.192-.192-.042-.128-.213-.278-.512-.448-.298-.17-.522-.256-.672-.256-.085 0-.224.032-.416.096-.192.042-.33.074-.416.096-.341.064-1.024.554-2.048 1.472-1.024.917-1.674 1.578-1.952 1.984-.128.17-.341.416-.64.736a8.95 8.95 0 0 0-.672.864 3.37 3.37 0 0 0-.416.768c-.298.661-.469 1.013-.512 1.056a.909.909 0 0 1-.736.352c-.234 0-.416-.118-.544-.352a1.995 1.995 0 0 1-.16-.768Z"/></svg>