<svg xmlns="http://www.w3.org/2000/svg" fill="none" viewBox="0 0 138 48"><path fill="#335C30" d="M.757 12.876c-.052-.052-.07-.104-.052-.156.034-.052.078-.13.13-.234a.506.506 0 0 0 .104-.26c.017-.242.173-.658.468-1.248.312-.606.476-1.118.494-1.534a.326.326 0 0 1 .13-.078c.052-.034.086-.052.104-.052a.17.17 0 0 0 .078-.078c.034-.034.052-.086.052-.156.017-.086.06-.251.13-.494.069-.26.13-.494.182-.702.052-.208.095-.424.13-.65.034-.242.034-.45 0-.624-.018-.173-.078-.294-.182-.364-.052-.104-.122-.164-.208-.182h-.13a.426.426 0 0 0-.104-.026c-.018-.017-.044-.026-.078-.026a.303.303 0 0 1-.078-.052.23.23 0 0 0-.026-.104v-.13c.069-.052.182-.182.338-.39.156-.208.338-.32.546-.338.069 0 .156-.017.26-.052a.85.85 0 0 1 .208-.052c.034 0 .095.018.182.052.329.243.511.607.546 1.092l-.156.546c.017.295-.009.642-.078 1.04a6.12 6.12 0 0 1-.208.988c-.07.26-.191.633-.364 1.118-.156.486-.26.824-.312 1.014-.018.087-.096.243-.234.468-.139.226-.191.425-.156.598-.018.052-.122.104-.312.156-.174.035-.278.087-.312.156-.018.052.086.19.312.416.138.104.13.538-.026 1.3-.156.746-.208 1.188-.156 1.326.069.208.182.312.338.312.208 0 .485-.173.832-.52.086-.086.303-.182.65-.286.364-.104.572-.234.624-.39a.982.982 0 0 0-.364.104l-.312.104c-.122-.052-.096-.13.078-.234.173-.121.416-.268.728-.442.312-.19.528-.381.65-.572.034-.052.017-.07-.052-.052a.23.23 0 0 0-.104.026v-.026c.173-.138.433-.355.78-.65.346-.312.658-.572.936-.78a5.33 5.33 0 0 1 .91-.52c.017.139.078.174.182.104a.39.39 0 0 1 .39 0c.156.07.26.243.312.52a.73.73 0 0 1 .182.286.692.692 0 0 1 .078.312c.017.104.026.217.026.338v.364c0 .156.043.399.13.728.104.33.164.58.182.754 0 .07-.009.139-.026.208-.018.104.026.182.13.234l.286.182c.052.035.104.06.156.078a.766.766 0 0 0 .182-.026.399.399 0 0 1 .156-.052c.034-.017.086-.052.156-.104.086-.052.138-.086.156-.104.086-.052.156-.156.208-.312a.781.781 0 0 1 .234-.364c.329-.225.719-.658 1.17-1.3.468-.641.884-1.126 1.248-1.456.26-.26.485-.52.676-.78.104-.121.416-.537.936-1.248.537-.71.996-1.248 1.378-1.612.208-.138.364-.234.468-.286.069-.034.112-.078.13-.13a.172.172 0 0 0 .026-.156.38.38 0 0 1 .026-.234c.052-.19.138-.381.26-.572.138-.19.312-.398.52-.624a5.06 5.06 0 0 0 .442-.52l1.976-2.47.598-1.04c.121-.034.225-.13.312-.286a1.56 1.56 0 0 1 .208-.312c.069-.07.26-.208.572-.416.329-.208.52-.312.572-.312.034 0 .138.087.312.26.138.156.112.356-.078.598-.191.243-.425.494-.702.754-.26.26-.39.45-.39.572 0 .052-.165.356-.494.91-.174.087-.286.165-.338.234-.052.052-.061.096-.026.13.034.035.034.087 0 .156-.035.087-.269.408-.702.962-.07.035-.2.182-.39.442-.191.26-.399.555-.624.884-.226.33-.356.52-.39.572a.488.488 0 0 1-.13.286c-.052.052-.078.13-.078.234a.522.522 0 0 1-.26.156c-.156.018-.416.399-.78 1.144-.156.486-.434.798-.832.936-.035.018-.139.122-.312.312-.156.19-.234.295-.234.312-.018.122-.113.243-.286.364-.156.122-.252.217-.286.286-.104.208-.26.33-.468.364-.052.035-.07.104-.052.208.034.104.043.174.026.208l-.338.52c0 .018-.148.156-.442.416-.295.243-.46.382-.494.416-.07.104-.182.278-.338.52-.156.243-.278.425-.364.546a5.282 5.282 0 0 1-.364.442 3.315 3.315 0 0 1-.442.416 3.369 3.369 0 0 1-.546.338.326.326 0 0 0-.13.078.304.304 0 0 0-.052.078v.078c0 .018.008.052.026.104a.489.489 0 0 1 .026.156c-.156.035-.356.156-.598.364-.243.19-.442.304-.598.338-.052.018-.217.026-.494.026-.122 0-.33-.104-.624-.312a5.61 5.61 0 0 1-.728-.598 1.346 1.346 0 0 1-.286-.702c-.018-.138-.087-.312-.208-.52-.122-.208-.174-.381-.156-.52.052-.502.008-.98-.13-1.43-.382.243-.858.65-1.43 1.222-.555.572-.919.928-1.092 1.066-.035.035-.139.096-.312.182-.174.087-.321.182-.442.286-.104.087-.156.182-.156.286 0 .295-.252.564-.754.806-.486.243-.876.312-1.17.208-.052-.017-.096 0-.13.052-.035.052-.061.078-.078.078-.174.07-.278.052-.312-.052 0-.017-.035-.104-.104-.26-.07-.173-.139-.294-.208-.364-.052-.086-.104-.13-.156-.13-.104 0-.156-.008-.156-.026 0-.017.026-.043.078-.078.156-.104.199-.2.13-.286-.018-.034-.044-.043-.078-.026-.035 0-.07.018-.104.052l-.078.078c-.035.035-.07.052-.104.052-.122-.658-.148-1.248-.078-1.768.017-.225.104-.52.26-.884.156-.364.251-.624.286-.78-.035-.052-.061-.078-.078-.078-.035 0-.087.06-.156.182a2.907 2.907 0 0 1-.182.312c-.052.087-.104.113-.156.078Zm22.289-.624c-.468 0-.797-.052-.988-.156-.173-.121-.26-.32-.26-.598 0-.485.113-.927.338-1.326.243-.416.572-.85.988-1.3.416-.468.702-.823.858-1.066.347-.554.659-.936.936-1.144.78-.554 1.291-1.031 1.534-1.43.139-.225.347-.59.624-1.092.295-.502.52-.884.676-1.144.052-.086.147-.147.286-.182.156-.034.251-.07.286-.104.104-.086.26-.32.468-.702.225-.381.433-.572.624-.572.225 0 .338.13.338.39 0 .139-.13.26-.39.364-.26.087-.39.182-.39.286 0 .122.087.182.26.182.017 0 .07-.034.156-.104.104-.07.2-.104.286-.104.087 0 .13.026.13.078 0 .122-.217.477-.65 1.066-.104.139-.286.33-.546.572-.243.243-.416.45-.52.624-.33.538-.98 1.335-1.95 2.392-.953 1.04-1.569 1.803-1.846 2.288-.07.122-.243.32-.52.598-.277.278-.416.503-.416.676 0 .139.113.208.338.208.33 0 .823-.121 1.482-.364.676-.26 1.222-.39 1.638-.39.121 0 .32-.052.598-.156.295-.104.511-.156.65-.156.07 0 .2.018.39.052.208.035.364.052.468.052.19 0 .46-.017.806-.052.347-.052.624-.078.832-.078.485 0 .91.078 1.274.234.381.156.71.425.988.806.295.364.494.65.598.858.104.19.277.529.52 1.014.087.174.182.425.286.754.121.33.225.607.312.832.087.208.208.425.364.65.173.226.399.399.676.52.295.122.641.182 1.04.182.26 0 .537-.017.832-.052.295-.052.633-.13 1.014-.234.381-.121.667-.208.858-.26.19-.052.503-.156.936-.312.45-.156.693-.242.728-.26.26-.086.624-.216 1.092-.39.485-.173.84-.294 1.066-.364.243-.086.555-.173.936-.26a6.614 6.614 0 0 1 1.144-.208c.381-.034.797-.052 1.248-.052.78 0 1.17.399 1.17 1.196 0 .45-.139 1.058-.416 1.82-.277.746-.416 1.153-.416 1.222 0 .156.06.286.182.39a.656.656 0 0 0 .442.156c.33 0 .685-.234 1.066-.702.381-.468.633-.736.754-.806l.364-.182c.208-.121.39-.225.546-.312.156-.086.355-.2.598-.338.26-.138.477-.268.65-.39.19-.138.373-.277.546-.416.19-.138.33-.268.416-.39.104-.121.156-.225.156-.312 0-.485.45-.927 1.352-1.326.121-.052.295-.173.52-.364.243-.208.425-.312.546-.312.035 0 .087.026.156.078a.601.601 0 0 0 .208.052c.121 0 .312-.078.572-.234.26-.156.468-.234.624-.234.156 0 .338.052.546.156.208.104.312.226.312.364 0 .156-.052.234-.156.234a.599.599 0 0 1-.182-.052.454.454 0 0 0-.13-.052c-.07 0-.173.052-.312.156-.139.087-.225.13-.26.13-.052 0-.165-.052-.338-.156-.173-.121-.303-.182-.39-.182-.121 0-.182.052-.182.156.017.087.139.165.364.234.243.07.364.165.364.286-.017.087-.121.208-.312.364-.19.139-.45.304-.78.494l-.52.26c-.139.087-.615.494-1.43 1.222s-1.395 1.136-1.742 1.222a.58.58 0 0 0-.208.078.409.409 0 0 0-.156.104.768.768 0 0 0-.104.078.453.453 0 0 1-.078.182l-.104.208c-.07.122-.208.217-.416.286a1.03 1.03 0 0 0-.442.286 59.607 59.607 0 0 1-2.002 2.08c-.85.85-1.62 1.656-2.314 2.418-.693.763-1.3 1.517-1.82 2.262-.121.174-.312.486-.572.936-.243.468-.468.867-.676 1.196-.19.347-.312.52-.364.52-.087 0-.165-.06-.234-.182a.659.659 0 0 1-.104-.312c0-.433.06-.875.182-1.326.121-.45.277-.745.468-.884.156-.121.32-.381.494-.78.173-.398.303-.65.39-.754.087-.121.217-.33.39-.624.19-.277.381-.537.572-.78.19-.242.39-.468.598-.676.399-.398.641-.658.728-.78.035-.052.2-.2.494-.442.295-.242.442-.433.442-.572 0-.138-.113-.303-.338-.494a9.11 9.11 0 0 1-.364-.312c-.243-.33-.364-.927-.364-1.794 0-.121.139-.33.416-.624.295-.312.442-.598.442-.858 0-.242-.147-.372-.442-.39a7.53 7.53 0 0 0-1.586.104c-.468.087-1.066.252-1.794.494a42.96 42.96 0 0 1-1.508.494c-.156.035-.399.156-.728.364-.312.19-.572.286-.78.286-.139 0-.381.06-.728.182-.347.104-.598.156-.754.156-.07 0-.156-.008-.26-.026a1.626 1.626 0 0 0-.26-.026c-.156 0-.381.035-.676.104a4.182 4.182 0 0 1-.65.078c-.156 0-.39-.026-.702-.078-.295-.07-.511-.104-.65-.104-.33 0-.615-.147-.858-.442a4.508 4.508 0 0 1-.572-1.118c-.139-.433-.381-.996-.728-1.69-.33-.71-.72-1.36-1.17-1.95-.312-.416-.84-.624-1.586-.624-.953 0-1.76.07-2.418.208-.659.122-1.551.356-2.678.702-.745.226-1.326.338-1.742.338Zm28.938 3.328c-.104 0-.243.078-.416.234-.173.139-.26.26-.26.364 0 .07.052.104.156.104.104 0 .225-.07.364-.208.156-.156.234-.286.234-.39 0-.07-.026-.104-.078-.104Zm.052-1.144c-.156 0-.234-.07-.234-.208 0-.104.035-.173.104-.208.087-.052.165-.07.234-.052.156 0 .234.087.234.26 0 .139-.113.208-.338.208ZM28.558 2.866c0 .07.035.148.104.234.07.087.147.13.234.13.052 0 .078-.017.078-.052 0-.294-.078-.442-.234-.442-.121 0-.182.044-.182.13Zm35.73 20.592c-.26-.138-.39-.45-.39-.936 0-.277.034-.476.103-.598a.636.636 0 0 1 .286-.234.551.551 0 0 0 .234-.208 1.72 1.72 0 0 1-.078-.494c0-.433.122-.866.364-1.3.226-.433.52-.884.884-1.352.347-.468.59-.858.728-1.17a.801.801 0 0 1 .208-.234l.182-.182c1.092-1.716 1.95-2.86 2.574-3.432a8.34 8.34 0 0 1 .78-.65c.364-.294.65-.563.858-.806a1.83 1.83 0 0 0 .39-.806c-.017-.052-.052-.078-.104-.078a.4.4 0 0 0-.156.052.426.426 0 0 1-.104.026c-.017 0-.069-.095-.156-.286-.069-.19-.104-.303-.104-.338 0-.225.13-.476.39-.754.26-.294.52-.442.78-.442.122 0 .234.035.338.104.122.07.208.13.26.182.052.052.13.165.234.338.122.174.191.269.208.286.208-.017.477-.13.806-.338.33-.208.616-.312.858-.312.174 0 .4-.104.676-.312.278-.225.434-.346.468-.364.538-.294 1.396-.442 2.574-.442.798 0 1.396.113 1.794.338.035.139.182.373.442.702.278.33.416.72.416 1.17 0 .19-.026.364-.078.52-.12.382-.372.798-.754 1.248-.364.434-.572.71-.624.832-.416.07-.962.269-1.638.598-.658.33-1.092.494-1.3.494-.208 0-.372-.043-.494-.13-.294.07-.71.26-1.248.572-.52.295-.988.46-1.404.494-.052-.017-.078-.112-.078-.286 0-.104.096-.251.286-.442.208-.208.416-.32.624-.338.018 0 .061.009.13.026h.208l.39-.234c.26-.173.572-.372.936-.598.382-.225.702-.398.962-.52.104-.052.208-.164.312-.338.104-.173.243-.312.416-.416.174-.121.425-.182.754-.182.26 0 .676-.485 1.248-1.456-.138-.572-.572-.858-1.3-.858-.12 0-.294.035-.52.104-.225.052-.39.078-.494.078-.034 0-.095-.008-.182-.026a1.204 1.204 0 0 0-.234-.026c-.12 0-.32.087-.598.26a7.57 7.57 0 0 0-.572.286c-.329.156-.667.304-1.014.442-.346.122-.624.182-.832.182-.173 0-.407.174-.702.52-.294.347-.494.546-.598.598a225.863 225.863 0 0 1-1.612 3.328c-.329.694-.84 1.63-1.534 2.808-.676 1.196-1.29 2.124-1.846 2.782a18.02 18.02 0 0 0-.39.494c-.156.226-.277.39-.364.494-.034.087-.173.243-.416.468-.26.243-.598.486-1.014.728-.433.243-.823.364-1.17.364Zm17.68-10.01a2.242 2.242 0 0 1-.417.052c-.104 0-.459-.06-1.066-.182.018-.034.174-.104.468-.208.312-.104.728-.208 1.248-.312a7.96 7.96 0 0 1 1.508-.156c.035 0 .104.009.208.026.104.018.174.026.208.026.156-.052.338-.277.546-.676.226-.398.39-.65.494-.754.226-.277.538-.563.936-.858.4-.294.676-.442.832-.442 1.023 0 1.534.46 1.534 1.378 0 .85-.346 1.656-1.04 2.418-.156.174-.39.33-.702.468-.294.139-.546.252-.754.338-.208.07-.312.139-.312.208 0 .33.728.624 2.184.884h.182c.104-.017.182-.026.234-.026.087 0 .2.026.338.078.156.052.278.078.364.078.052 0 .122-.034.208-.104.087-.07.156-.104.208-.104.087 0 .217.018.39.052.191.018.338.026.442.026l.598-.312c.4-.208.72-.312.962-.312.018 0 .07.009.156.026h.208a.6.6 0 0 0 .208-.052.85.85 0 0 1 .208-.052c.07 0 .156.035.26.104-.468.156-.814.434-1.04.832-.19.052-.537.234-1.04.546-.502.295-.918.442-1.248.442h-.104a.426.426 0 0 0-.13-.026c-.034 0-.104.035-.208.104a.613.613 0 0 1-.26.078c-.208 0-.45-.026-.728-.078-.26-.07-.433-.104-.52-.104-.052 0-.147.035-.286.104a.69.69 0 0 1-.338.104c-.277 0-.728-.2-1.352-.598-.554-.225-.962-.46-1.222-.702-.242-.26-.372-.476-.39-.65 0-.19-.017-.407-.052-.65a1.475 1.475 0 0 0-.286-.702 4.218 4.218 0 0 0-.598-.078 5.112 5.112 0 0 1-.624-.078 1.484 1.484 0 0 1-.416-.156Zm-15.73 5.772c0 .226-.174.538-.52.936-.347.416-.52.78-.52 1.092 0 .156.043.234.13.234a.836.836 0 0 0 .701-.234c.191-.19.4-.485.624-.884.208-.381.356-.632.442-.754.624-.85 1.014-1.447 1.17-1.794a1.28 1.28 0 0 0 .572-.598c.156-.277.304-.72.442-1.326.052-.156.208-.442.468-.858.26-.433.39-.788.39-1.066 0-.034-.008-.06-.026-.078-.017-.017-.026-.034-.026-.052a.465.465 0 0 0-.26.13.903.903 0 0 0-.182.286.848.848 0 0 1-.156.26c-.052.052-.19.174-.416.364-.208.19-.364.338-.468.442-.104.139-.294.468-.572.988-.052.104-.173.26-.364.468-.19.208-.32.382-.39.52l-.13.26c-.086.174-.208.399-.364.676a5.07 5.07 0 0 1-.572.754.43.43 0 0 0 .026.13v.104Zm19.5-6.76c0 .312.051.468.155.468.278.035.538-.052.78-.26.26-.225.278-.433.052-.624-.104-.086-.25-.034-.442.156-.19.174-.372.26-.546.26Zm-15.679-.728a.37.37 0 0 1-.052-.208c0-.156.044-.294.13-.416.104-.121.217-.182.338-.182.174 0 .26.044.26.13.018.139-.086.278-.312.416-.225.139-.346.226-.364.26Zm26.674 3.432c-.346-.052-.676-.26-.988-.624-.294-.381-.39-.72-.286-1.014.035-.104.07-.251.104-.442a2.324 2.324 0 0 1 .338-.91c.122-.173.338-.424.65-.754s.52-.58.624-.754c.07-.104.174-.208.312-.312.156-.121.33-.234.52-.338.191-.104.321-.182.39-.234.416-.26.694-.39.832-.39.087 0 .156.026.208.078.104.122.044.295-.182.52-.208.208-.294.338-.26.39.087.139.165.208.234.208.087 0 .208-.208.364-.624.174-.416.347-.624.52-.624.139 0 .312.06.52.182.208.122.356.182.442.182.451.018.928-.208 1.43-.676.243-.208.59-.312 1.04-.312.33 0 .624.06.884.182.26.104.39.252.39.442 0 .555-.069.997-.208 1.326-.173.434-.346.737-.52.91a2.16 2.16 0 0 1-.65.468c-.26.122-.494.269-.702.442-.104.087-.312.208-.624.364-.312.139-.528.286-.65.442-.173.226-.563.52-1.17.884-.606.347-1.066.555-1.378.624a1.08 1.08 0 0 0-.39.182.889.889 0 0 1-.364.182c-.346.07-.823.07-1.43 0Zm.988-3.224c-.71.572-1.066 1.075-1.066 1.508 0 .364.165.546.494.546.226 0 .538-.052.936-.156.416-.104.694-.208.832-.312.156-.121.451-.294.884-.52.451-.242.728-.398.832-.468a.826.826 0 0 0 .13-.104.758.758 0 0 0 .104-.078l.052-.052c.018-.017.035-.026.052-.026.018 0 .13.113.338.338.087.087.148.13.182.13.087 0 .139-.07.156-.208a.75.75 0 0 0-.052-.468c-.069-.173-.164-.286-.286-.338-.104-.034-.234-.216-.39-.546-.156-.33-.303-.546-.442-.65a.55.55 0 0 0-.364-.13c-.12 0-.303.087-.546.26-.242.156-.433.234-.572.234a.761.761 0 0 0-.468.182 2.976 2.976 0 0 0-.468.468 2.15 2.15 0 0 1-.338.39Zm.468-1.768c-.329 0-.65.19-.962.572-.312.364-.364.685-.156.962.14.156.425-.034.858-.572.4-.572.486-.892.26-.962Zm3.718-.156c-.069-.034-.13-.034-.182 0-.034.035-.052.096-.052.182v.208c.018.07.035.156.052.26.018.087.026.139.026.156.035.243.078.382.13.416.052.018.156.026.312.026.122 0 .269-.095.442-.286.174-.19.278-.294.312-.312.208-.156.364-.381.468-.676.052-.138.026-.19-.078-.156a.203.203 0 0 0-.078.026 1.871 1.871 0 0 1-.884.234c-.156 0-.312-.026-.468-.078Zm-.676 2.678c-.173-.07-.407-.043-.702.078a1.805 1.805 0 0 0-.676.494c-.173.19-.216.33-.13.416.122.122.486-.026 1.092-.442.434-.294.572-.476.416-.546Zm1.924-3.614c-.433 0-.667.104-.702.312-.017.087.026.165.13.234.122.087.321.087.598 0 .295-.104.434-.234.416-.39-.017-.104-.164-.156-.442-.156Zm-.988 2.704c-.104.104-.112.226-.026.364.087.139.2.156.338.052.052-.017.061-.07.026-.156a.77.77 0 0 1-.052-.156c.052-.104.33-.372.832-.806.208-.173.26-.268.156-.286-.104-.017-.225.018-.364.104-.138.07-.26.156-.364.26-.086.087-.19.208-.312.364a6.698 6.698 0 0 1-.234.26Zm-4.654 2.314c-.225 0-.173.078.156.234.503.26.763.304.78.13.018-.052-.017-.13-.104-.234a.332.332 0 0 0-.208-.13 1.25 1.25 0 0 0-.364 0h-.26Zm4.247 11.518a2.974 2.974 0 0 1-.078-.884c.017-.242.035-.59.052-1.04v-.884c0-.086.052-.208.156-.364.104-.156.165-.268.182-.338.017-.086.052-.138.104-.156a.29.29 0 0 0 .13-.026c.017 0 .017-.034 0-.104-.087-.312-.087-.528 0-.65.173-.138.243-.26.208-.364-.017-.104.009-.173.078-.208.069-.017.104-.07.104-.156a.732.732 0 0 0-.026-.156.33.33 0 0 1 0-.182c0-.052.026-.095.078-.13.069-.034.121-.104.156-.208a.863.863 0 0 1 .052-.208c.035-.086.078-.138.13-.156.052-.017.095-.034.13-.052.173-.086.26-.19.26-.312 0-.173.165-.528.494-1.066.329-.537.511-.85.546-.936.087-.277.199-.546.338-.806.156-.26.286-.46.39-.598.104-.156.269-.381.494-.676.225-.294.39-.511.494-.65.312-.433.451-.814.416-1.144-.052-.537.017-.85.208-.936.121-.052.173-.156.156-.312-.017-.07-.017-.121 0-.156.017-.034.035-.043.052-.026h.078c.017-.017.017-.052 0-.104-.035-.086-.121-.156-.26-.208l-.364-.182c-.087-.052-.104-.13-.052-.234.035-.086.251-.13.65-.13a.543.543 0 0 0 .208-.026c.052-.034.061-.086.026-.156-.017-.034-.069-.06-.156-.078a.758.758 0 0 0-.182-.026c-.035-.017-.043-.052-.026-.104.017-.052.078-.112.182-.182.104-.086.182-.104.234-.052l.312.286c.035.052.026.104-.026.156a.875.875 0 0 1-.13.104c-.052.018-.069.035-.052.052a.56.56 0 0 0 .182.104c.087.035.139.07.156.104.017.018 0 .096-.052.234a4.705 4.705 0 0 0-.182.442c0 .19.017.304.052.338.069.052.069.104 0 .156-.069.052-.087.096-.052.13.052.07.13.104.234.104.503 0 1.421-.667 2.756-2.002.468-.502 1.057-.693 1.768-.572.451.07.91.338 1.378.806.468.45.702.884.702 1.3 0 .087.009.243.026.468.035.226.043.425.026.598a.868.868 0 0 1-.078.39.933.933 0 0 1-.286.312 2.234 2.234 0 0 0-.26.208.393.393 0 0 0-.104.208 1.802 1.802 0 0 1-.052.208c0 .052-.009.078-.026.078s-.052-.034-.104-.104c-.017-.034-.009-.112.026-.234.035-.121.026-.182-.026-.182-.052-.017-.139.026-.26.13-.121.104-.208.156-.26.156-.069 0-.113-.026-.13-.078-.069-.104-.13-.156-.182-.156a.417.417 0 0 0-.182.052.419.419 0 0 1-.182.052c-.069-.017-.13-.078-.182-.182-.052-.104-.061-.182-.026-.234.035-.086.251-.216.65-.39.399-.19.615-.398.65-.624-.035-.398-.104-.728-.208-.988l-.234-.468-.13-.234-.234.026c-.069.018-.381.052-.936.104-.745.104-1.265.33-1.56.676.017.018-.052.096-.208.234-.139.139-.321.312-.546.52-.208.19-.399.347-.572.468a9.36 9.36 0 0 1-.364.312c-.208.156-.364.278-.468.364.035.035.017.13-.052.286-.052.139-.113.312-.182.52-.069.19-.095.338-.078.442-.468 2.306-.962 4.065-1.482 5.278-.087.208-.26.616-.52 1.222a20.753 20.753 0 0 1-.676 1.534c-.208.434-.416.763-.624.988a4.291 4.291 0 0 0-.338.442 6.86 6.86 0 0 0-.312.52 3.747 3.747 0 0 1-.286.494c-.26.382-.503.564-.728.546.017.052.009.087-.026.104a.322.322 0 0 1-.182.052c-.225 0-.373-.052-.442-.156a.614.614 0 0 0-.156-.104c-.087-.017-.147-.095-.182-.234Zm1.404-3.718c-.26-.173-.468-.2-.624-.078-.173.122-.087.312.26.572.121.087.173.122.156.104.017.018-.009.052-.078.104a2.962 2.962 0 0 0-.286.26c-.052.052-.017.122.104.208.104.104.13.226.078.364-.087.226-.078.356.026.39.052.018.095.009.13-.026a.32.32 0 0 0 .052-.13.803.803 0 0 1 .052-.156c.035-.052.182-.32.442-.806.26-.468.442-.85.546-1.144a.89.89 0 0 1 .156-.312 2.29 2.29 0 0 1 .208-.286c.087-.086.156-.164.208-.234.087-.104.139-.286.156-.546.035-.242.052-.381.052-.416.087-.294.26-.71.52-1.248.26-.52.433-.91.52-1.17.121-.398.225-.832.312-1.3.052-.312.035-.46-.052-.442l-.052.052a3.509 3.509 0 0 1-.416.702.176.176 0 0 1-.156.078c-.052-.017-.113-.008-.182.026-.087.052-.009.139.234.26.191.104.225.182.104.234-.225.139-.373.182-.442.13-.243-.19-.381-.286-.416-.286-.017 0-.035.035-.052.104 0 .052-.017.165-.052.338a3.28 3.28 0 0 1-.104.572c0 .018.017.044.052.078l.078.078c.017.035.009.07-.026.104-.035.018-.139.009-.312-.026-.156-.017-.243 0-.26.052-.087.139-.043.252.13.338.156.104.217.182.182.234a.547.547 0 0 0-.026.208c-.017.104-.043.156-.078.156a.687.687 0 0 0-.338-.104.351.351 0 0 0-.338.208c-.087.156-.104.356-.052.598a.663.663 0 0 1 0 .26 1.34 1.34 0 0 1-.078.286c-.052.087-.113.122-.182.104-.035 0-.061-.017-.078-.052-.017-.034-.043-.052-.078-.052-.225 0-.347.096-.364.286-.035.19.052.338.26.442.208.104.191.174-.052.208-.069.018-.009.087.182.208.069.035.113.06.13.078.069.052.095.113.078.182a.251.251 0 0 1-.104.156c-.052.052-.095.07-.13.052Zm6.162-6.474a1.714 1.714 0 0 1-1.04-.416c-.139-.104-.173-.19-.104-.26.312-.364.511-.65.598-.858a.54.54 0 0 1 .208.026c.035 0 .078.026.13.078.052.035.095.07.13.104.139.087.451.087.936 0 .485-.104.806-.147.962-.13a4.61 4.61 0 0 1 1.196.39c.104.052.147.122.13.208a.732.732 0 0 0-.026.156.844.844 0 0 0-.416 0c.139.243.078.373-.182.39-.052 0-.165.052-.338.156-.156.104-.286.148-.39.13-.173-.034-.485-.034-.936 0a27.35 27.35 0 0 1-.858.026Zm8.536-1.3a7.51 7.51 0 0 0-.078-.52 5.605 5.605 0 0 1-.078-.858c.017-.26.095-.424.234-.494.104-.052.164-.242.182-.572.034-.346.069-.554.104-.624.589-1.3 1.04-2.175 1.352-2.626.208-.312.58-.745 1.118-1.3.554-.572.936-1.031 1.144-1.378.45-.762.693-1.161.728-1.196.104-.138.632-.381 1.586-.728.572-.208.858-.381.858-.52 0-.034-.018-.07-.052-.104-.018-.017-.087-.008-.208.026a2.674 2.674 0 0 0-.39.104 1.808 1.808 0 0 1-.364.052c-.122 0-.174-.06-.156-.182.086-.312.251-.572.494-.78.242-.225.502-.338.78-.338.52 0 .719.2.598.598-.018.07-.087.165-.208.286a.59.59 0 0 0-.156.39c0 .139-.018.234-.052.286-.018.035-.07.06-.156.078a.571.571 0 0 0-.182.078c-.07.052-.269.278-.598.676-.174.226-.442.486-.806.78a5.919 5.919 0 0 0-.884.858c-.243.295-.425.65-.546 1.066-.052.174-.243.434-.572.78-.312.347-.494.555-.546.624-.087.122-.26.33-.52.624a4.849 4.849 0 0 0-.572.78c-.122.226-.182.46-.182.702 0 .364-.13.71-.39 1.04-.139.174-.26.59-.364 1.248-.104.642-.104 1.075 0 1.3.052.122.199.269.442.442.26.156.416.26.468.312.364.364.84.546 1.43.546.364 0 .91-.086 1.638-.26.052-.017.164-.06.338-.13.173-.086.338-.156.494-.208.156-.052.277-.06.364-.026.104.035.286.035.546 0 .277-.034.442-.086.494-.156.069-.104.208-.138.416-.104.225.035.39.026.494-.026.052-.052.372-.286.962-.702.606-.416.979-.736 1.118-.962.034-.07.026-.173-.026-.312-.035-.156-.026-.277.026-.364a1.25 1.25 0 0 1 .234-.286l.234-.234c.208-.277.537-.416.988-.416.624 0 .936.26.936.78 0 .312-.191.72-.572 1.222-.364.486-.694.728-.988.728-.191 0-.321.06-.39.182-.07.122-.087.278-.052.468.052.19.104.364.156.52.069.156.138.295.208.416.468.624 1.473.936 3.016.936.658 0 1.248-.06 1.768-.182.069-.017.19-.017.364 0 .19 0 .32-.026.39-.078a.177.177 0 0 0 .078-.078l.078-.078a.289.289 0 0 1 .078-.052.489.489 0 0 1 .156-.026c.121 0 .355-.043.702-.13.364-.104.641-.156.832-.156.416 0 .676.2.78.598-.035 0-.182-.052-.442-.156-.122-.052-.26 0-.416.156-.156.156-.295.226-.416.208-.191-.034-.356.035-.494.208-.139.174-.278.26-.416.26-.486 0-.858.044-1.118.13-.191.07-1.014.226-2.47.468-1.075.174-1.846.07-2.314-.312a8.867 8.867 0 0 0-.676-.468c-.347-.242-.598-.46-.754-.65-.052-.07-.096-.234-.13-.494-.018-.26-.096-.442-.234-.546a.56.56 0 0 0-.338 0 2.264 2.264 0 0 0-.416.208c-.156.087-.26.139-.312.156a5.411 5.411 0 0 0-.598.234l-.65.26c-.174.052-.382.113-.624.182-.243.052-.46.078-.65.078-.191 0-.468.078-.832.234-.347.139-.624.208-.832.208-.226 0-.538-.034-.936-.104-.382-.086-.668-.13-.858-.13-.174 0-.338-.017-.494-.052a1.543 1.543 0 0 1-.442-.234 11.616 11.616 0 0 0-.338-.286l-.364-.364a11.1 11.1 0 0 0-.312-.338c-.295-.294-.442-.693-.442-1.196Zm11.804-1.638a.369.369 0 0 0-.208.052c-.035.018-.061.06-.078.13a1.18 1.18 0 0 1-.052.13v.182c.017.087.026.148.026.182a.866.866 0 0 0 .338-.078.698.698 0 0 0 .26-.234c.052-.104.052-.182 0-.234a.398.398 0 0 0-.286-.13Zm7.748 3.744a.995.995 0 0 1-.13-.156c-.018-.07.008-.13.078-.182.069-.07.182-.104.338-.104v.104c0 .035-.009.104-.026.208 0 .104-.026.165-.078.182a.59.59 0 0 1-.182-.052Zm-8.32-3.276c-.26.226-.356.373-.286.442.104.104.182.156.234.156.017 0 .13-.104.338-.312a.322.322 0 0 1-.234-.104c-.07-.07-.087-.13-.052-.182ZM33.582 43.202c0-.138.035-.312.104-.52a1.71 1.71 0 0 0 .104-.52c0-.762.382-1.664 1.144-2.704.07-.086.356-.511.858-1.274.503-.78.936-1.326 1.3-1.638.156-.121.312-.338.468-.65.174-.312.321-.52.442-.624.122-.104.356-.286.702-.546.347-.26.607-.476.78-.65.139.087.243.182.312.286.07.087.191.104.364.052.191-.052.295-.043.312.026.07.139.052.278-.052.416a3.56 3.56 0 0 1-.442.416c-.173.139-.286.26-.338.364-.052.104-.199.226-.442.364-.225.139-.355.243-.39.312-.121.226-.268.382-.442.468-.086.035-.147.122-.182.26a.987.987 0 0 1-.104.26c-.034.07-.121.156-.26.26a.852.852 0 0 0-.286.26c-.468.624-1.213 1.846-2.236 3.666-.398.659-.598 1.56-.598 2.704 0 .139.087.32.26.546.191.208.304.347.338.416.156.312.468.555.936.728.486.174.945.26 1.378.26.156 0 .347-.043.572-.13.226-.07.416-.104.572-.104a8.034 8.034 0 0 0 3.276-.676c.104-.052.165-.112.182-.182.018-.07.113-.104.286-.104.104 0 .165-.008.182-.026a.304.304 0 0 0 .078-.052.357.357 0 0 1 .182-.078c.26-.07 1.032-.398 2.314-.988.382-.19.91-.286 1.586-.286.104 0 .226-.07.364-.208.139-.138.234-.216.286-.234.035-.017.2-.06.494-.13.312-.07.564-.13.754-.182.208-.052.425-.138.65-.26.243-.138.39-.277.442-.416.035-.104 0-.19-.104-.26-.086-.086-.13-.173-.13-.26 0-.866.46-1.3 1.378-1.3.624 0 1.04.156 1.248.468.174.278.382.416.624.416.104 0 .191-.034.26-.104.278-.225.598-.338.962-.338.538 0 1.066.234 1.586.702.052.07.07.13.052.182 0 .035-.043.104-.13.208a.763.763 0 0 0-.13.208c-.086.364-.251.624-.494.78-.242.156-.606.295-1.092.416a9.27 9.27 0 0 0-.416.234 47.47 47.47 0 0 0-.442.26 7.024 7.024 0 0 1-.364.13 2.156 2.156 0 0 1-.468.052c-.225 0-.511-.052-.858-.156-.589-.208-.953-.312-1.092-.312-.225 0-.606.113-1.144.338-.537.208-.91.382-1.118.52-.104.07-.277.13-.52.182a1.442 1.442 0 0 0-.546.182c-.26.156-.736.312-1.43.468-.676.139-1.17.33-1.482.572-.398.312-1.074.572-2.028.78a69.41 69.41 0 0 0-1.482.364c-.26.104-.719.208-1.378.312-.658.104-1.135.156-1.43.156-1.3 0-2.366-.407-3.198-1.222-.589-.554-.884-1.508-.884-2.86Zm6.734-9.568c0 .278-.078.416-.234.416-.121 0-.19-.07-.208-.208 0-.07.044-.138.13-.208.312-.277.642-.355.988-.234.035.018.104.044.208.078.122.018.234.044.338.078.104.018.174.044.208.078.035.018 0 .13-.104.338-.086.19-.156.304-.208.338-.294.104-.563.104-.806 0-.034-.017-.052-.121-.052-.312 0-.208-.086-.33-.26-.364Zm10.556 7.618c-.017.104-.104.226-.26.364-.156.139-.216.243-.182.312.052.174.148.26.286.26.243 0 .425-.147.546-.442.122-.312-.008-.476-.39-.494Zm-12.584-5.226c-.052.07-.13.148-.234.234l-.234.156a.605.605 0 0 0-.104.156c-.034.07-.017.139.052.208.018.035.078 0 .182-.104.122-.121.234-.26.338-.416.104-.156.156-.26.156-.312 0-.034.113-.19.338-.468.399-.502.529-.745.39-.728h-.052c-.381.087-.658.382-.832.884a.276.276 0 0 0 0 .234c.035.07.035.122 0 .156Zm14.3 6.656c-.086 0-.156.044-.208.13-.052.07-.052.13 0 .182.07.052.156.078.26.078a.595.595 0 0 0 .312-.078c.104-.07.139-.147.104-.234a.156.156 0 0 0-.104-.104.11.11 0 0 0-.104 0 .426.426 0 0 0-.13.026h-.13Zm-.676-1.43c-.26.226-.234.382.078.468.104.035.174 0 .208-.104a.864.864 0 0 0 .026-.364c-.017-.138-.121-.138-.312 0Zm-15.6 5.226c0 .156.052.234.156.234a.25.25 0 0 0 .182-.078c.07-.052.104-.104.104-.156a.422.422 0 0 0-.182-.208c-.069-.034-.13-.034-.182 0-.052.035-.078.104-.078.208Zm17.472-4.056c-.086.052-.121.104-.104.156a.157.157 0 0 0 .104.104c.07 0 .13-.008.182-.026a.175.175 0 0 0 .078-.156c.018-.07 0-.112-.052-.13-.034-.034-.104-.017-.208.052Zm-1.17-.728c-.034-.052-.078-.052-.13 0-.052.052-.06.104-.026.156.052.035.104.026.156-.026.052-.052.052-.095 0-.13Zm5.72 2.938c-.035-.156-.053-.65-.053-1.482.018-.173.096-.45.234-.832.139-.398.217-.693.234-.884 0-.693.165-1.326.494-1.898.122-.225.338-.346.65-.364l.312.208c.139-.034.234-.104.286-.208a.39.39 0 0 0-.026-.364 1.54 1.54 0 0 0-.13-.104.347.347 0 0 1-.13-.156c.156-.052.278-.026.364.078.087.087.113.2.078.338-.034.19-.147.382-.338.572-.034.035-.034.06 0 .078h.13c.035 0 .018.044-.052.13-.034.035-.06.122-.078.26 0 .122.009.217.026.286.018.087-.017.182-.104.286-.086.104-.121.182-.104.234.07.26.044.434-.078.52-.017.018-.034-.008-.052-.078 0-.07-.017-.095-.052-.078-.121.052-.138.226-.052.52.018.018.052-.008.104-.078.035.087.026.234-.026.442-.052.19-.121.399-.208.624-.069.208-.112.347-.13.416a3.884 3.884 0 0 1-.104.26c-.156.312-.182.468-.078.468.122 0 .451-.156.988-.468.555-.33.884-.572.988-.728.122-.208.347-.442.676-.702.33-.277.52-.442.572-.494l.26-.26.468-.416c.139-.121.243-.182.312-.182.087 0 .208-.07.364-.208.156-.156.295-.32.416-.494.122-.173.234-.346.338-.52l.182-.234.624-.676c.295-.294.581-.494.858-.598.156-.07.295-.078.416-.026a1.1 1.1 0 0 0 .182.026c.035-.017.096-.052.182-.104l.208-.104c.434-.104.772-.086 1.014.052.139.087.191.234.156.442 0 .087-.008.139-.026.156a.283.283 0 0 1-.104.052.489.489 0 0 0-.156.026c-.156.052-.364.19-.624.416a4.26 4.26 0 0 1-.572.364c-.26.156-.442.243-.546.26-.052.018-.294.243-.728.676-.416.416-.676.694-.78.832-.086.139-.312.364-.676.676a9.62 9.62 0 0 0-.702.676l-1.716 1.586c-.052.104-.199.243-.442.416a4.415 4.415 0 0 0-.494.39c-.069.07-.199.13-.39.182-.173.035-.294.096-.364.182-.225.243-.632.364-1.222.364-.069 0-.13-.052-.182-.156-.034-.104-.086-.147-.156-.13-.121.087-.216.104-.286.052l-.13-.13a.542.542 0 0 1-.026-.208v-.182Zm11.253-1.742c0-.086.017-.2.052-.338a1.42 1.42 0 0 0 .052-.312.594.594 0 0 0-.052-.182.858.858 0 0 1-.052-.26c0-.242.277-.65.832-1.222.555-.572 1.014-.996 1.378-1.274.139-.104.407-.242.806-.416.398-.173.676-.355.832-.546.208-.26.823-.39 1.846-.39.208 0 .416.052.624.156.225.104.338.269.338.494 0 .104-.121.217-.364.338-.226.122-.347.26-.364.416 0 .052.052.078.156.078.19 0 .286.078.286.234-.017.208-.234.45-.65.728-.416.26-.797.46-1.144.598-.121.052-.295.13-.52.234a4.634 4.634 0 0 1-.598.234 2.084 2.084 0 0 1-.598.078c-.139 0-.217-.104-.234-.312-.017-.225-.078-.338-.182-.338-.278 0-.546.182-.806.546-.26.347-.39.668-.39.962 0 .416.173.728.52.936.364.19.797.286 1.3.286.138 0 .346.018.624.052.277.035.511.052.702.052.537 0 1.5-.346 2.886-1.04 1.404-.693 2.132-1.04 2.184-1.04.138 0 .208.052.208.156 0 .122-.13.33-.39.624-.26.278-.494.468-.702.572-.19.087-.503.278-.936.572a13.04 13.04 0 0 1-1.17.702c-.364.19-.685.286-.962.286-.225 0-.598.07-1.118.208-.503.122-.927.182-1.274.182-.797 0-1.456-.182-1.976-.546-.763-.572-1.144-1.074-1.144-1.508Zm3.302-2.626c.225 0 .494-.095.806-.286.312-.208.503-.416.572-.624a.922.922 0 0 0-.416-.104c-.399 0-.72.338-.962 1.014Zm16.085 2.782c0-.19.078-.424.234-.702.173-.294.32-.494.442-.598.052-.052.147-.164.286-.338.139-.19.269-.346.39-.468.121-.138.251-.242.39-.312a.918.918 0 0 1 .286-.156.613.613 0 0 1 .26-.078c.087-.017.156-.034.208-.052.052-.034.07-.078.052-.13 0-.052-.035-.13-.104-.234-.087-.138-.13-.398-.13-.78 0-.156.06-.242.182-.26.676 0 .442 1.11-.702 3.328-.295.59-.46.928-.494 1.014 1.577 0 2.53-.13 2.86-.39.59-.433 1.196-.797 1.82-1.092.26-.121.65-.372 1.17-.754.52-.381.84-.632.962-.754.087-.086.633-.58 1.638-1.482 1.023-.918 1.777-1.707 2.262-2.366.069-.086.13-.13.182-.13.035 0 .087.07.156.208.069.122.147.182.234.182.052 0 .147-.043.286-.13.087-.104.087-.225 0-.364a.751.751 0 0 0-.286-.286c.017 0 .069-.043.156-.13.087-.086.173-.182.26-.286.104-.121.165-.19.182-.208 1.3-1.144 2.375-2.314 3.224-3.51.087-.104.321-.338.702-.702.399-.364.667-.702.806-1.014a1.25 1.25 0 0 1 .416-.494.934.934 0 0 1 .598-.234c.173 0 .329.07.468.208.26.347.373.616.338.806-.589 1.04-.919 1.586-.988 1.638-.225.295-.685.928-1.378 1.898-.676.97-1.265 1.75-1.768 2.34l-.416.52c-.191.26-.381.512-.572.754a4.843 4.843 0 0 0-.416.598c-.104.139-.26.616-.468 1.43.347.018.815-.043 1.404-.182.589-.138 1.005-.216 1.248-.234.052-.017.407-.112 1.066-.286.676-.173 1.213-.268 1.612-.286.225-.017.399.009.52.078.139.07.182.174.13.312-.017.052-.043.035-.078-.052-.035-.086-.078-.112-.13-.078a.865.865 0 0 1-.338.104c-.139 0-.251.009-.338.026-.069 0-.113.035-.13.104-.017.087-.009.156.026.208a.177.177 0 0 0 .13.052.29.29 0 0 1 .13.026c.035.018.052.052.052.104-.035.174-.078.278-.13.312-.052.018-.173.009-.364-.026a1.954 1.954 0 0 0-.546-.026c-.052 0-.061-.043-.026-.13a.477.477 0 0 0 0-.312c-.035-.104-.121-.156-.26-.156s-.286.035-.442.104c-.156.087-.208.165-.156.234.052.07.13.156.234.26.104.087.139.156.104.208-.139.139-.399.252-.78.338-.364.087-.78.174-1.248.26-.468.07-.789.13-.962.182-.26.087-.659.304-1.196.65-.52.347-.789.642-.806.884-.052.642-.208 1.5-.468 2.574 0 .087-.104.226-.312.416-.191.19-.277.33-.26.416l.104.364c.087.243.104.416.052.52-.052.122-.199.122-.442 0 0-.017.026-.026.078-.026.069 0 .121-.017.156-.052.052-.086.017-.138-.104-.156-.069-.017-.121-.008-.156.026-.069-.208-.104-.771-.104-1.69 0-1.473.087-2.41.26-2.808.052-.07-.225-.164-.832-.286a19.286 19.286 0 0 0-1.872-.286c-.641-.086-.997-.104-1.066-.052-.399.243-.65.503-.754.78-.087.26-.269.477-.546.65-.45.295-1.049.59-1.794.884-.728.295-1.24.59-1.534.884l-.156.156a.283.283 0 0 1-.104.052.427.427 0 0 1-.104.026h-.52c-.07 0-.208.018-.416.052-.19.035-.338.052-.442.052-.295 0-.52-.112-.676-.338-.295-.346-.442-.788-.442-1.326Zm10.478-3.692c-.052.035-.208.07-.468.104a8.38 8.38 0 0 0-.702.13c-.208.052-.312.122-.312.208.017.243.39.364 1.118.364.364 0 .728-.026 1.092-.078.364-.07.563-.13.598-.182.104-.346.503-1.031 1.196-2.054.381-.658.451-1.014.208-1.066-.607 0-1.04.139-1.3.416-.26.278-.485.65-.676 1.118-.191.468-.442.815-.754 1.04Zm-3.198-8.06c-.087-.104-.017-.19.208-.26.225-.07.303-.173.234-.312-.225-.398-.347-.65-.364-.754 0-.121.104-.32.312-.598.121-.138.355-.095.702.13.364.226.58.425.65.598.156.364.234.65.234.858 0 .486-.147.728-.442.728a.896.896 0 0 1-.65-.286c-.052-.052-.2-.06-.442-.026-.243.035-.39.009-.442-.078Z"/></svg>