<svg xmlns="http://www.w3.org/2000/svg" fill="none" viewBox="0 0 71 71"><g clip-path="url(#a)"><path fill="#335C30" d="m.035 68.605 2.826.472.856 1.365c-.384-4.427 6.508-6.493 8.102-10.7.48-1.268-1.004-1.482-1.454-1.084-.11.096-.538 1.646-1.446 2.597-.782.812-4.302 4.738-5.194 4.03 1.143-11.452 3.873-21.952 9.725-31.921C25.359 13.05 46.905 1.916 70.052.04 35.866-1.405 6.226 27.328 2.972 60.857c-1.933-.775.133-7.054-2.937-6.633V68.605Z"/></g><defs><clipPath id="a"><path fill="#fff" d="M.035-.01v70.452h70.017V-.01z"/></clipPath></defs></svg>