<svg xmlns="http://www.w3.org/2000/svg" fill="none" viewBox="0 0 161 71"><g clip-path="url(#a)"><path fill="#335C30" d="M157.09 48.588c-.155.985.212 1.296-.89.946-2.717-.864-4.909-2.627-6.601-4.907l-.83-.129c-.824 2.092-3.472 3.815-5.789 3.38l5.755-4.271c-2.171-4.45-4.862-9.352-4.869-14.477-.005-8.732 5.946-9.858 8.69-1.95.728-2.426 6.152-8.163 7.604-3.744 1.668 5.068-5.952 16.5-10.025 19.757 1.71 2.67 3.647 4.839 6.955 5.395Zm2.192-25.27c-5.533-.752-6.507 6.873-6.213 11.055-1.69.053-.927-.47-1.06-1.51-.468-3.67.345-8.287-4.182-9.917-2.655-.123-2.801 3.929-2.884 5.881-.195 4.64 2.273 9.399 4.424 13.376.934.37 3.217-2.967 3.867-3.839 3.364-4.513 6.003-9.224 6.053-15.044l-.005-.001Z"/></g><path fill="#335C30" d="M3.591 53.451c-.141-1.065-.12-1.968.061-2.71.119-.82.227-1.323.325-1.511.09-.117.144-.299.164-.546.02-.248.042-.408.067-.481.175-.53.445-1.134.81-1.812.362-.695.702-1.23 1.02-1.604 1.081-1.21 1.636-1.842 1.663-1.898.132-.193.43-.45.895-.774.479-.343.787-.463.923-.358.004.034-.017.072-.064.113a.41.41 0 0 1-.093.091c-.015.02-.012.037.007.052.056.027.153.032.29.014.032-.022.073-.115.12-.279a.282.282 0 0 1 .039-.11l.043.126.572-.233c.486-.03.758.048.818.233l-.246-.073c-.017.003-.015.02.007.052.02.015.04.038.062.07.019.015.022.041.01.078-.413.054-.817.239-1.212.553-.062.061-.157.205-.284.431-.127.227-.241.356-.342.387a.706.706 0 0 0-.152.046.29.29 0 0 0-.125.043.427.427 0 0 0-.1.039.232.232 0 0 0-.1.04.3.3 0 0 1-.07.061l-.067.088a1.276 1.276 0 0 1-.06.139 1.274 1.274 0 0 1-.06.139 5.403 5.403 0 0 0-.181.417c.002.017 0 .07-.006.158a.354.354 0 0 0 .057.229c-.086.011-.201 0-.346-.033-.027.056-.166.197-.416.422-.045.059-.068.149-.069.272a.353.353 0 0 1-.069.27c-.238.312-.456.455-.651.428.043.327-.034.669-.232 1.027-.097.188-.328.56-.692 1.115-.114.19-.233.546-.356 1.07-.126.506-.2.874-.221 1.104-.009.071-.057.165-.147.282-.072.114-.085.212-.04.293.027.067.037.276.03.626-.005.35-.018.72-.037 1.106a7.505 7.505 0 0 0-.017.658c-.049.164-.03.371.056.622.083.234.13.385.138.454.027.067.099.215.216.444.133.21.223.364.271.462.22.478.598.822 1.133 1.03.533.192 1.1.248 1.7.169.55-.073 1.001-.237 1.352-.493.079-.063.231-.101.457-.113.223-.03.363-.1.418-.213.134-.175.435-.276.904-.303.262 0 .401-.07.418-.213.03-.039.071-.053.125-.043.054.01.128.045.223.102.093.04.148.06.165.057-.02-.155.117-.304.413-.448.296-.144.54-.22.73-.228-.025-.189.083-.3.324-.331.206-.027.32.036.34.19-.17.04-.296.075-.38.104a.46.46 0 0 0-.19.156c-.059.078-.087.195-.084.352l-.242-.047a1.104 1.104 0 0 1-.168-.082c.003.157-.017.273-.059.348-.025.074-.108.11-.248.112-.088-.006-.155.012-.202.053a.17.17 0 0 0-.068.087l-.089.117a.465.465 0 0 1-.112.146c-.03.039-.095.074-.196.105a.788.788 0 0 0-.228.056c-.075.097-.192.2-.353.309.012.086.002.148-.027.187a.561.561 0 0 1-.167.127c-.082.046-.147.08-.196.105a1.915 1.915 0 0 1-.437.267 7.424 7.424 0 0 1-.52.227c-.198.096-.354.169-.47.219-.71.321-1.396.482-2.06.482-1.19 0-1.805-.154-1.845-.464l-.63-.598c-.116.05-.24.032-.375-.056a3.558 3.558 0 0 1-.47-.383 4.268 4.268 0 0 0-.302-.301c-.175-.134-.288-.39-.338-.769-.075-.567-.145-.898-.21-.995-.116-.212-.197-.498-.245-.859Zm5.986-9.866c.018.137-.024.152-.126.043a.425.425 0 0 1-.118-.3c.716-.269 1.265-.613 1.647-1.03l.157-.205a3.59 3.59 0 0 1 .3-.302.66.66 0 0 1 .296-.144c.104-.013.192.062.267.227a.254.254 0 0 0 .135.035.799.799 0 0 1 .174-.075.597.597 0 0 1 .2-.08.484.484 0 0 1 .322.063c.132.07.22.146.266.227.06.062.11.17.148.321.052.133.101.24.147.322.1-.03.177-.05.229-.057.066-.026.104-.005.113.064.024.05.03.092.017.129a.855.855 0 0 1-.024.213 1.56 1.56 0 0 0 .005.235l.05.387a.506.506 0 0 0-.243.137c-.077.08-.15.125-.219.134.014.103-.024.213-.113.33a1.523 1.523 0 0 0-.154.23c-.012.037.014.033.078-.01.22-.187.358-.266.414-.239.018.138-.069.272-.261.402-.195.113-.363.17-.502.171-.089-.67-.129-1.102-.12-1.295a.887.887 0 0 1-.204-.157c-.065-.096-.155-.12-.27-.069a1.883 1.883 0 0 1-.645-.308c-.1-.092-.163-.11-.19-.054-.01.054-.042.085-.093.091a.247.247 0 0 1-.22-.075c-.06-.062-.13-.062-.21.001-.314.269-.74.421-1.277.457l.024.18ZM5.753 57.309c-.189.025-.3-.092-.334-.35.17.1.282.217.334.35Zm11.101-4.773c-.343.045-.599-.035-.766-.24-.167-.205-.235-.458-.205-.76a1.99 1.99 0 0 1 .355-.886c.03-.038.163-.222.399-.55.236-.33.392-.542.466-.64.092-.099.227-.265.406-.499.196-.236.38-.426.554-.571.173-.146.347-.282.523-.41a3.67 3.67 0 0 1 1.598-.605c.516-.069.925-.018 1.227.152.297.136.55.19.756.163.223-.03.517-.183.883-.458.366-.276.657-.454.874-.535 1.378-.55 2.185-.858 2.421-.924.649-.12 1.547-.598 2.696-1.432 1.166-.836 1.947-1.341 2.343-1.516.247-.12.504-.355.773-.706.266-.367.514-.6.746-.702.808-.369 2.082-1.577 3.821-3.626.184-.199.422-.51.716-.934.309-.443.546-.763.712-.96.06-.077.248-.242.564-.494.332-.27.547-.492.647-.662.24-.032.436.056.586.263.167.205.25.44.25.702-.003.245-.101.424-.296.537-.082.046-.178.172-.291.38-.095.204-.22.317-.375.337-.154.02-.39.358-.705 1.012-.37.643-.93 1.434-1.68 2.372-.733.937-1.358 1.631-1.875 2.084a2.85 2.85 0 0 0-.798 1.102 66.462 66.462 0 0 1-1.424 2.916c-.49.922-.755 1.429-.795 1.522-.028.056-.1.179-.214.369-.677 1.226-.79 1.827-.338 1.802.137-.018.374-.076.711-.173.337-.097.574-.154.712-.173.446-.059.792-.157 1.036-.294.259-.157.449-.243.569-.259.292-.039.832-.582 1.62-1.63.258-.56.703-1.43 1.333-2.616.645-1.204 1.116-2.132 1.415-2.783.546-1.157 1.52-2.981 2.921-5.475a8.917 8.917 0 0 1 1.127-1.591c.395-.455.86-.9 1.397-1.339.551-.457.92-.777 1.105-.96.03-.038.084-.028.162.032.093.04.162.1.208.182.063.08.08.147.053.203-.053.13-.215.23-.485.3-.273.054-.446.13-.52.226-.075.098-.085.221-.03.371.054.15.064.29.028.416-.084.291-.464.919-1.14 1.882-.68.947-1.042 1.45-1.087 1.508-.446.723-1.055 1.87-1.826 3.44-.771 1.572-1.235 2.498-1.39 2.781-1.044 1.887-1.66 3.105-1.85 3.654.326-.043 1.183-.305 2.57-.786.303-.092.687-.17 1.15-.23.636-.085.994-.088 1.074-.011.078.06-.009.193-.261.401-.252.209-.383.348-.39.42-.055.251-.864.612-2.428 1.08-1.547.468-2.371.778-2.473.931-.13.21-.498.931-1.104 2.166-.379.837-.957 2.277-1.736 4.32-.777 2.062-1.396 3.525-1.859 4.39-.044.059-.171.355-.38.89a7.835 7.835 0 0 1-.61 1.34c-.197.358-.357.475-.478.351-.21-.27-.309-.484-.295-.643.014-.16.063-.384.147-.675.103-.276.146-.483.128-.62-.016-.12.174-.731.57-1.833.399-1.084.71-1.842.932-2.273.33-.674.787-1.783 1.37-3.329.601-1.53 1.037-2.602 1.305-3.215a1.72 1.72 0 0 1-.48.142c-.24.032-.605.177-1.096.434-.473.255-.804.395-.993.42a3.547 3.547 0 0 0-1.403.5c-.439.25-.735.587-.89 1.01-.04.092-.087.326-.142.7-.04.355-.128.62-.262.795-.115.19-.226.476-.333.857-.09.38-.12.672-.094.878.025.19-.031.424-.169.705-.072.114-.11.294-.112.539a9.28 9.28 0 0 0 0 .393c-.098.45-.192 1.066-.28 1.847-.07.796-.12 1.275-.152 1.436-.22 1.638-.063 2.631.473 2.98.439.274.666.471.682.592.022.172-.006.289-.085.352-.062.06-.16.047-.294-.04a.562.562 0 0 0-.142-.086c-.037-.013-.063-.01-.078.01l-.044.058c-.013.037-.036.058-.07.062-.155.02-.398-.096-.729-.35-.309-.22-.514-.447-.614-.678-.081-.217-.154-.566-.217-1.047-.384-2.904-.352-4.64.098-5.206.12-.156.182-.47.19-.943.024-.475.07-.787.138-.936.15-.317.281-.85.392-1.6.128-.75.273-1.303.436-1.657.278-.544.116-.776-.485-.696-.24.032-.45.042-.626.03a11.123 11.123 0 0 1-.7-.143 6.65 6.65 0 0 0-.595-.131c-.609-.112-1.026-.354-1.25-.727-.207-.375-.072-.742.405-1.102a1.14 1.14 0 0 1 .595-.263c.258-.034.57.012.936.139.164.048.312.177.445.387.13.192.353.294.67.304.017-.002.134.026.352.085.232.04.374.055.426.049.066-.027.2-.07.402-.132.192-.13.338-.42.436-.87.112-.47.22-.773.325-.91 1.164-1.64 1.828-2.838 1.99-3.593.163-.617.343-.973.54-1.069.134-.052.202-.131.205-.236.004-.106-.057-.168-.182-.186-.107-.02-.345.098-.713.356-.856.533-1.474.886-1.853 1.059-.165.074-.397.236-.697.485-.301.232-.564.363-.787.393-.154.02-.33.087-.524.2a3.811 3.811 0 0 0-.63.398l-.433.294c-.779.452-1.41.71-1.89.774-.224.03-.697.285-1.42.765-.707.478-1.159.826-1.357 1.045-.154.16-.462.34-.925.542-.448.181-.766.424-.953.729-.289.458-.725.795-1.308 1.012-.214.099-.412.125-.593.079-.162-.031-.238-.013-.229.056a.484.484 0 0 1-.062.323c-.114.19-.481.326-1.1.408Zm.992-2.02c-.221.31-.289.528-.202.657.005.034.024.049.059.044.051-.006.148-.072.288-.195.095-.083.348-.151.76-.206.206-.027.35-.125.433-.293.113-.207.263-.393.451-.558.188-.165.42-.335.693-.511a6.74 6.74 0 0 0 .6-.42c.154-.16-.06-.325-.642-.493-.655-.193-1.058-.262-1.208-.207-.248.103-.41.404-.483.903a1.493 1.493 0 0 1-.148.466c-.07.131-.18.294-.33.489-.15.177-.241.285-.271.325Zm17.086-9.026c-.155.02-.386.191-.693.511-.307.32-.552.65-.735.99-.182.338-.206.551-.072.638.172.117.393 0 .661-.35.266-.367.486-.754.66-1.162.17-.425.23-.634.179-.627Zm10.783-6.907c-.009-.07.03-.232.12-.488.085-.274.122-.462.108-.566-.018-.137.024-.213.128-.226.137-.018.243.186.317.614.073.287.08.54.021.757-.06.2-.151.309-.271.325-.172.022-.313-.116-.423-.416Zm-9.36 4.385a.675.675 0 0 0-.462.27c-.104.137-.103.277.003.42.065.096.227-.004.485-.3.258-.297.25-.427-.026-.39Zm1.748-2.251c-.027.056-.02.116.024.18.06.062.126.089.194.08a.25.25 0 0 0 .17-.101c.015-.02.002-.053-.039-.1-.026-.067-.033-.118-.02-.155.042-.075.122-.13.24-.163s.19-.086.215-.16c.101-.293.212-.447.332-.463.103-.014.14-.07.109-.172-.102-.109-.204-.086-.306.067-.055.112-.214.3-.477.561a7.308 7.308 0 0 0-.442.426Zm-9.735 18.204c-.154.02-.241.154-.261.401.003.157.056.23.16.215.274-.036.398-.157.37-.363-.041-.187-.131-.271-.269-.253Zm.346-3.534c-.003-.157-.059-.246-.166-.267-.09-.023-.248-.02-.471.01.013.103.079.2.195.29.117.088.218.128.304.116.07-.009.115-.059.138-.15Zm1.127-.202c.01.07.01.139.002.21-.008.07-.003.114.017.129l.232-.03c.051-.008.086-.012.103-.014.137-.019.196-.105.175-.26-.022-.172-.102-.248-.24-.23-.206.027-.302.092-.289.195Zm1.145-.466c-.075.097-.051.208.07.332.058.045.103.047.132.009l.068-.088c.076-.08.122-.13.137-.15.013-.036-.011-.085-.072-.147-.134-.087-.245-.072-.335.044Zm-4.604-.309c-.157.004-.237.058-.241.163-.006.088.086.12.275.095.103-.014.16-.039.174-.075.027-.057.021-.1-.018-.13-.04-.046-.104-.064-.19-.053Zm6.642-6.49c-.053.129-.028.186.075.173a.573.573 0 0 0 .389-.235c.042-.076-.007-.121-.15-.138-.154.02-.259.087-.314.2Zm4.97-6.244c-.198-.306-.322-.386-.372-.24a.289.289 0 0 0-.01.133c.019.137.107.204.264.201.066-.026.105-.058.118-.094Zm7.116 12.198c-.267-.297-.434-.703-.502-1.219-.068-.515-.005-1.162.19-1.94.21-.78.482-1.305.813-1.576.018-.002.05.037.095.119.046.081.092.171.14.27a.642.642 0 0 0 .102.17 2.614 2.614 0 0 1 .419.39c.038.03.053.072.042.126.005.034 0 .061-.015.08l-.045.059-.067.087c-.194.254-.343.71-.448 1.371-.09.642-.026 1.061.193 1.26l.295.25c.214.163.395.34.542.53.427.189.907.248 1.44.177.533-.07 1.075-.264 1.628-.582.55-.335.941-.614 1.174-.837.233-.223.58-.567 1.044-1.03-.024-.05-.061-.263-.111-.641-.07-.533.184-1.187.763-1.963.596-.778 1.153-1.202 1.668-1.27a4.44 4.44 0 0 0 .737-.176c.303-.092.531-.149.686-.17.378-.05.695-.03.952.058.254.072.414.155.479.252a.56.56 0 0 1 .144.295c.032.24-.002.447-.102.617a2.27 2.27 0 0 1-.461.48c-.208.15-.349.274-.423.371-.27.333-.668.7-1.192 1.102-.507.4-.925.743-1.254 1.031-.33.272-.486.484-.466.64.052.394.413.679 1.083.852.668.157 1.466.174 2.394.051.137-.018.323-.069.556-.152.232-.1.504-.224.817-.37.33-.15.57-.25.72-.306.182-.076.558-.275 1.128-.595.584-.34.98-.523 1.186-.55.017-.002.035.004.055.019l.077-.01c.086-.012.227-.074.422-.187.21-.133.348-.204.417-.213.086-.011.141.008.165.057.07.13-.697.678-2.3 1.642-.082.046-.214.168-.398.367-.183.2-.325.314-.426.345-.017.002-.07 0-.158-.005-.071-.008-.123-.001-.155.02l-.144.098c-.08.063-.192.14-.337.228-.146.09-.326.183-.54.282a5.959 5.959 0 0 1-.853.296 7.745 7.745 0 0 1-1.123.227.43.43 0 0 1-.107-.012.254.254 0 0 0-.136-.035 1.618 1.618 0 0 0-.203.054c-.1.03-.185.05-.254.06-.734-.13-1.313-.281-1.738-.453-.13-.052-.318-.22-.565-.502-.247-.282-.465-.41-.654-.385-.224.03-.622.318-1.197.866-.374.347-.858.647-1.454.9-.596.254-1.135.413-1.616.477-.206.027-.463 0-.771-.082-.291-.084-.46-.175-.508-.274-.044-.064-.34-.182-.887-.355-.532-.192-.85-.42-.956-.686Zm1.198-2.047-.03-.232a.68.68 0 0 1-.002-.21.81.81 0 0 1 .03-.161l.039-.11.067-.087a.303.303 0 0 1 .07-.062.422.422 0 0 1 .1-.04.43.43 0 0 0 .126-.042.427.427 0 0 1 .1-.04c.117-.033.199-.079.243-.137.062-.06.1-.11.112-.146a.575.575 0 0 0 .002-.184.793.793 0 0 0 .009-.132c.018-.125.182-.208.492-.249.137-.018.208-.08.211-.185.016-.142.109-.303.277-.483.186-.181.33-.35.432-.502.102-.154.093-.293-.029-.416-.041-.047-.116-.02-.225.082a8.212 8.212 0 0 0-.327.305c-.109.102-.192.13-.25.086-.076-.042-.107-.143-.093-.302.029-.18.014-.29-.044-.336-.059-.044-.105-.064-.14-.06-.034.005-.064.044-.089.117-.01.054-.027.126-.05.216a.474.474 0 0 1-.127.227c-.189.165-.411.264-.67.298-.171.023-.304.006-.4-.052-.042-.187.022-.37.19-.55.169-.179.375-.337.62-.475.098-.048.235-.136.41-.264.173-.145.318-.243.433-.293.335-.114.614-.186.837-.216.361-.047.656.001.885.145.246.143.388.421.425.836.022.294-.087.658-.327 1.092-.225.415-.462.743-.71.986-.046.041-.17.162-.37.364-.186.182-.357.344-.513.487a9.27 9.27 0 0 1-.49.458c-.19.148-.366.276-.527.385-.145.089-.278.141-.398.157-.172.023-.272-.069-.299-.275Zm8.278-3.245a.32.32 0 0 1-.095.274.466.466 0 0 1-.24.163c-.101.031-.201.07-.3.119a.56.56 0 0 0-.166.127c-.015.019.017.067.097.144.095.057.306.065.633.021.307-.058.61-.273.91-.645.182-.216.208-.35.079-.403a.517.517 0 0 0-.24-.021.936.936 0 0 0-.309.04 2.125 2.125 0 0 1-.254.06c-.086.012-.124.052-.115.12Zm-5.84.85c-.039.11-.015.16.071.149a.478.478 0 0 0 .353-.31.194.194 0 0 0-.105-.195c-.13-.053-.236.066-.32.357Zm4.945.71c.275-.036.432-.1.472-.193.034-.145-.027-.206-.181-.186-.07.01-.142.054-.219.134-.062.06-.086.142-.072.245Zm30.267-2.902c.069-.009.173.117.313.379-.048.041-.1.04-.159-.005-.04-.047-.079-.069-.113-.064a2.218 2.218 0 0 0-.172.285.5.5 0 0 1-.23.24l-.193.13a1.34 1.34 0 0 1-.244.138c-.032.021-.118.033-.258.034-.14 0-.215.028-.225.082-.169.18-.563.372-1.183.576-.622.187-.99.315-1.103.382a.602.602 0 0 1-.329.096.525.525 0 0 0-.286.012c-.084.028-.145.098-.183.207-.012.037-.177.111-.495.223-.317.112-.513.156-.586.13-.034.005-.074.036-.118.095-.045.058-.076.088-.093.09l-.825.11c-.562.249-1.155.458-1.78.628-.544.107-1.131.167-1.759.18-.63-.004-1.033-.143-1.209-.416a.564.564 0 0 0-.2-.131.569.569 0 0 0-.166-.057c-.239-.09-.436-.327-.592-.709-.157-.398-.238-.746-.242-1.043l.126-1.223c.007-.21.023-.423.047-.636.04-.232.076-.42.11-.565.03-.161.099-.371.204-.63.104-.276.168-.45.193-.524a96.941 96.941 0 0 0 .48-1.139l-.162-.03.285-.222c-.035-.135.01-.386.136-.752.144-.369.176-.592.096-.669.033-.144.14-.333.318-.566.145-.23.315-.794.51-1.694.194-.917.482-1.515.865-1.793.095.058.194.08.297.066.24-.032.362-.17.365-.415.006-.089-.13-.193-.409-.314-.263-.14-.359-.267-.286-.381.085-.012.143-.037.173-.076a.33.33 0 0 0 .057-.165.473.473 0 0 1 .127-.226c.092-.1.215-.16.37-.18a.544.544 0 0 1 .469.174c.009.069.014.173.015.313.016.12.02.215.012.286.007.052.008.13.005.236a.816.816 0 0 1-.07.271c-.022.09-.053.19-.09.3a.647.647 0 0 0 .004.236c.016.12.01.2-.02.239-.107.119-.167.197-.18.233.005.035.027.137.067.306-.05.147-.171.425-.362.835-.19.41-.35.79-.478 1.139-.112.346-.155.614-.13.803a.693.693 0 0 1-.037.32c-.04.093-.094.214-.161.362-.053.13-.093.223-.12.279-.279.543-.499 1.193-.661 1.949l-.58 2.358c-.167.722-.233 1.211-.199 1.47.11.824.868 1.143 2.277.957.43-.057.894-.18 1.394-.368.167-.057.479-.15.933-.28.455-.131.79-.245 1.004-.343.148-.073.416-.16.804-.264.406-.106.697-.223.872-.352.308-.18 1.191-.445 2.648-.796.207-.027.36-.056.46-.087.121-.016.191-.016.21-.001.035-.005.055.019.062.07.007.052.04.1.098.145.069-.01.116-.05.141-.124.043-.075.09-.117.141-.123Zm.354-.099c.153-.037.231-.039.236-.005.019.015.007.06-.035.136-.042.076-.061.13-.057.165-.103.014-.171-.039-.204-.157.008-.07.028-.117.06-.139Zm2.672 1.693c-.35-.007-.704-.17-1.061-.49-.342-.339-.481-.662-.417-.967a3.41 3.41 0 0 0 .046-.452 2.326 2.326 0 0 1 .216-.947c.097-.187.279-.465.545-.832.266-.368.44-.644.52-.83.055-.112.144-.229.268-.35.139-.14.296-.275.471-.403s.294-.223.356-.283c.378-.313.636-.478.774-.496a.281.281 0 0 1 .216.05c.12.107.082.286-.112.54-.18.233-.248.373-.207.42.104.126.19.185.26.176.085-.012.178-.234.279-.667.117-.435.261-.664.433-.686.138-.019.317.019.54.112.222.093.376.134.462.122.449-.042.892-.328 1.329-.857.213-.238.543-.387.99-.446.326-.043.626-.022.9.064.271.07.42.198.445.387.072.55.062.998-.033 1.342-.115.453-.247.776-.396.97a2.166 2.166 0 0 1-.583.55 3.209 3.209 0 0 0-.638.53c-.092.1-.282.247-.57.443-.292.178-.487.353-.587.523-.143.246-.49.59-1.044 1.03-.556.423-.984.69-1.284.8-.101.03-.222.107-.363.23a.887.887 0 0 1-.337.229c-.335.114-.807.177-1.418.188Zm.557-3.326c-.63.66-.916 1.205-.86 1.634.049.361.236.52.562.477.224-.03.526-.122.907-.277.4-.158.66-.297.784-.419.14-.14.409-.351.809-.631.415-.3.67-.49.763-.573a.852.852 0 0 0 .115-.12.772.772 0 0 0 .093-.091l.045-.059c.015-.02.03-.03.048-.032.017-.003.144.094.38.29.097.075.163.11.197.105.086-.01.128-.087.127-.226a.757.757 0 0 0-.113-.457c-.091-.163-.2-.262-.327-.298-.108-.02-.26-.184-.459-.49-.197-.306-.372-.502-.523-.587a.551.551 0 0 0-.378-.08c-.12.015-.29.125-.507.329-.22.186-.4.288-.537.307a.761.761 0 0 0-.44.241 2.98 2.98 0 0 0-.402.526c-.113.207-.207.35-.284.43Zm.232-1.814c-.327.043-.62.274-.879.693-.261.402-.27.726-.028.974.158.137.416-.09.775-.68.32-.619.364-.948.132-.987Zm3.665-.643c-.073-.025-.133-.017-.18.024-.03.04-.04.102-.028.188.01.068.018.137.027.206.027.066.055.15.086.25.029.084.044.135.046.152.067.236.128.368.184.395.054.01.158.006.313-.015.12-.016.253-.13.4-.341.147-.212.236-.329.269-.35.185-.182.31-.426.375-.732.033-.144 0-.193-.098-.145a.2.2 0 0 0-.074.036c-.271.194-.553.31-.845.348a1.47 1.47 0 0 1-.475-.016Zm-.319 2.744c-.18-.046-.41.01-.685.17a1.8 1.8 0 0 0-.606.578c-.147.212-.171.355-.074.43.136.104.478-.09 1.025-.582.39-.35.504-.548.34-.596Zm1.434-3.835c-.43.057-.648.19-.655.401-.006.089.047.16.16.215.131.07.329.044.592-.078.279-.142.4-.289.361-.441-.03-.101-.183-.134-.458-.097Zm-.625 2.81c-.09.117-.082.238.022.364.104.127.218.129.342.008.05-.024.05-.077.005-.158a.727.727 0 0 1-.072-.148c.038-.11.278-.413.72-.908.183-.2.222-.3.116-.304-.105-.004-.22.046-.347.15a1.389 1.389 0 0 0-.327.306 4.043 4.043 0 0 0-.261.402c-.102.153-.168.25-.198.288Zm-4.31 2.904c-.224.03-.162.1.185.212.532.192.796.2.79.026.01-.053-.034-.126-.134-.218a.332.332 0 0 0-.223-.101 1.257 1.257 0 0 0-.36.047l-.258.034Zm9.486.293c-.055-.15-.137-.638-.246-1.462-.005-.175.036-.46.123-.856.085-.413.124-.716.116-.907a3.735 3.735 0 0 1 .241-1.946c.09-.24.29-.388.597-.446l.336.165c.133-.053.219-.134.257-.244a.39.39 0 0 0-.074-.357 1.572 1.572 0 0 0-.142-.086.347.347 0 0 1-.15-.138c.148-.072.272-.062.371.03.098.074.138.183.122.325-.01.193-.096.397-.26.61-.03.04-.026.066.01.078l.129-.017c.034-.004.023.04-.035.136-.03.039-.044.128-.043.268.016.12.037.214.063.28.03.084.007.183-.065.297-.072.115-.096.197-.072.246.102.248.1.424-.01.526-.015.019-.035-.005-.061-.071-.01-.069-.03-.092-.062-.07-.114.067-.108.241.016.522.02.015.05-.016.093-.091.046.081.057.228.032.441a6.566 6.566 0 0 1-.124.646 7.126 7.126 0 0 0-.074.43c-.01.054-.034.144-.07.271-.113.33-.118.488-.015.474.12-.016.426-.213.918-.593.507-.4.801-.683.884-.851.093-.223.286-.484.578-.785.29-.318.458-.506.502-.565l.224-.292c.151-.177.288-.335.409-.473.122-.139.217-.213.286-.222.086-.011.197-.096.333-.254a3.67 3.67 0 0 0 .348-.544c.098-.188.187-.374.267-.56l.15-.256.53-.752c.253-.33.511-.566.772-.705.145-.09.282-.116.409-.08.088.005.149.006.184.002.032-.022.087-.064.166-.127l.193-.13c.416-.16.753-.188 1.012-.082.149.068.22.207.213.418.011.085.009.138-.006.158a.285.285 0 0 1-.096.065.491.491 0 0 0-.151.046c-.148.072-.336.237-.564.494-.092.1-.265.245-.52.436-.237.189-.406.299-.507.33-.049.023-.26.279-.633.765-.358.467-.579.776-.664.927-.068.15-.262.402-.581.76a9.56 9.56 0 0 0-.608.761l-1.493 1.798c-.038.11-.166.266-.384.47a4.478 4.478 0 0 0-.438.451c-.06.078-.18.155-.363.232-.167.057-.28.133-.337.228-.192.27-.58.444-1.164.521-.068.01-.135-.034-.2-.13-.049-.1-.106-.135-.172-.109-.11.102-.201.132-.277.089l-.146-.112a.54.54 0 0 1-.053-.203l-.024-.18Zm15.42-.57a8.495 8.495 0 0 1-1.857.035 9.73 9.73 0 0 1-1.883-.354 3.97 3.97 0 0 1-1.594-.943 2.856 2.856 0 0 1-.766-1.63c-.075-.567.017-1.191.277-1.873.26-.68.543-1.251.849-1.712a47.12 47.12 0 0 1 1.328-1.854c.41-.474.992-.76 1.748-.86.585-.078 1.062.025 1.431.309.229.144.366.388.412.732.057.43-.04.888-.29 1.376-.3.512-.789 1.11-1.468 1.794-.681.667-1.221 1.14-1.621 1.42-.471.273-.75.415-.836.426-.118.033-.235.005-.352-.085-.117-.09-.201-.13-.252-.124.267 1.626 1.853 2.317 4.758 2.072.243-.014.596-.061 1.057-.14.462-.078.77-.128.925-.148.532-.07.976-.086 1.331-.045.018-.002.248.02.691.066.441.03.919.07 1.433.125.512.037 1.074.06 1.687.066.613.006 1.108-.016 1.486-.066.67-.089.963-.258.877-.51-.031-.1-.136-.366-.315-.797a22.26 22.26 0 0 1-.444-1.174 6.03 6.03 0 0 1-.187-.814l-.122-.928c-.024-.312-.042-.58-.054-.806-.015-.243.037-.512.155-.807.118-.296.314-.602.587-.917.373-.487.885-1.044 1.536-1.672.666-.648 1.18-.995 1.54-1.043.104-.014.16.014.169.082a.899.899 0 0 1-.076.614 1.204 1.204 0 0 1-.265.376.801.801 0 0 1-.293.17c-.201.061-.371.232-.509.513-.123.26-.206.42-.251.479l-.604.788c-.296.406-.435.608-.418.606a2.349 2.349 0 0 0-.397-.026c-.118.033-.119.094-.002.183.08.077.179.1.297.066.049-.024.079-.002.088.067.033.118-.001.193-.102.223-.136.158-.164.416-.081.772.097.337.232.765.405 1.284.191.516.284.819.278.907.013.366.12.78.322 1.243.216.443.287.853.215 1.23-.074.237-.511.505-1.31.803-.798.315-1.344.483-1.638.505-2.512.175-4.338.12-5.477-.167-.323-.063-.871-.043-1.645.06l-.773.102Zm-3.379-7.107c-.162.231-.356.615-.582 1.152-.228.52-.298.852-.209.998.304.047.802-.28 1.496-.985.711-.706 1.153-1.262 1.326-1.67-.183-.063-.499-.004-.947.178a1.247 1.247 0 0 1-.36.047 1.292 1.292 0 0 0-.442.033.462.462 0 0 0-.282.247Zm-1.359 3.012a.407.407 0 0 0-.12.278c-.004.106.059.185.188.238.071.008.208-.08.411-.265.201-.201.335-.315.401-.341.217-.081.289-.196.217-.344-.055-.15-.184-.203-.388-.158-.138.018-.204.044-.2.079.005.034.044.064.117.09.088.005.143.024.165.056.019.015-.017.072-.108.172a.713.713 0 0 1-.351.125.692.692 0 0 0-.332.07Zm20.411 2.205c-.16-.154-.225-.312-.194-.473.021-.108.047-.172.079-.194.047-.041.124-.06.229-.057a.799.799 0 0 0 .229-.056c.437-.128 1.111-.453 2.021-.975l.222-.108c.15-.055.273-.115.369-.18.097-.066.141-.124.135-.176-.021-.154-.142-.34-.362-.555a30.18 30.18 0 0 0-.838-.78 5.27 5.27 0 0 1-.807-.943 5.835 5.835 0 0 0-.468-.568 23.39 23.39 0 0 1-.54-.715 2.868 2.868 0 0 1-.302-.694c-.159-.539-.131-.927.082-1.165.069-.01.073-.106.014-.29-.042-.187-.058-.308-.048-.361.029-.18.296-.407.802-.684.503-.293.851-.436 1.045-.426.778.072 1.329.2 1.65.385.32.167.6.567.841 1.2.204.62.225.905.061.857-.017.002-.036-.004-.055-.019-.02-.015-.034-.056-.043-.125-.011-.086-.036-.144-.075-.174a.176.176 0 0 0-.136-.034c-.052.006-.098-.014-.139-.06a11.81 11.81 0 0 0-.463-.726c-.002-.017-.028-.014-.078.01-.049.024-.094.013-.135-.034.038-.11-.028-.207-.196-.29-.054-.01-.088-.005-.103.014-.017.003-.041.023-.07.062-.03.039-.054.06-.071.062-.049.024-.121.007-.216-.05-.098-.075-.17-.091-.217-.05-.045.058-.046.11-.005.158.039.03.123.071.252.124.113.055.153.093.12.115.005.034-.047.041-.154.02a3.086 3.086 0 0 0-.816-.023c-.567.075-.832.451-.795 1.128.013.103.093.311.24.624.144.296.245.466.303.51.134.088.295.25.484.488a6.81 6.81 0 0 0 1.033 1.07c.681.521 1.139 1.073 1.373 1.654.021.154.043.256.067.306.041.047.035.135-.018.264a4.65 4.65 0 0 1-.072.246c-.015.02-.056.103-.124.252-.07.132-.12.217-.15.256-.174.268-.354.431-.538.49a1.825 1.825 0 0 1-.316-.01c-.14.001-.232.03-.277.09-.484.308-.852.497-1.105.565-.041-.047-.063-.079-.065-.096a.735.735 0 0 0 .063-.114.402.402 0 0 0 .083-.168c-.009-.069-.06-.123-.153-.163.03.223-.116.444-.437.66-.624.17-1.03.146-1.216-.074Zm-.051-7.52c-.074.097-.079.193-.014.29.08.076.163.11.249.098.086-.011.12-.086.102-.223-.041-.31-.153-.365-.337-.166ZM4.282 33.101c-.34.08-.586-.001-.74-.243-.172-.24-.237-.528-.194-.866a.519.519 0 0 1-.03-.232.599.599 0 0 1 .046-.242c.023-.09.04-.163.05-.217.038-.774.069-1.198.094-1.271.057-.235.166-.599.328-1.092.18-.496.268-.884.266-1.163.003-.106.05-.147.14-.124.089.006.13-.008.126-.043a2.054 2.054 0 0 1 .125-1.039c.135-.298.268-.752.397-1.364.143-.63.293-1.088.448-1.37.128-.35.2-.595.217-.737.043-.338.218-.86.527-1.565.324-.725.51-1.239.557-1.542.008-.071.014-.16.017-.265.019-.125.032-.223.04-.293.008-.072.025-.144.05-.217a.715.715 0 0 1 .153-.23c.028-.056.014-.16-.04-.31-.04-.169-.056-.29-.048-.36.006-.088.1-.372.28-.85.2-.481.326-.778.381-.89.083-.168.104-.407.063-.716a.524.524 0 0 1 .117-.304c.075-.098.109-.172.102-.224-.085-.11-.13-.184-.134-.218a.628.628 0 0 1 .05-.216.897.897 0 0 0 .095-.275c.083-.029.212-.116.385-.26.173-.146.32-.227.44-.243a.613.613 0 0 1 .268.044c.072.147.027.206-.134.175a.408.408 0 0 0-.064.113l.014.103c.02.015.032.048.04.1a.231.231 0 0 1 .039.1c.038.291.112.518.22.678-.073.237-.107.574-.102 1.01.02.417.021.688.003.813-.095.607-.144 1.951-.149 4.032-.008.334.137 1.171.437 2.513.042.187.074.296.096.328.04.03.164.048.375.055.105.004.319-.033.64-.11a1.02 1.02 0 0 0 .367-.206c.14-.124.182-.208.124-.253-.136-.104-.13-.192.017-.264l.145-.098c.21-.133.331-.271.364-.416.07-.271.422-.711 1.058-1.32.637-.608 1.019-1.026 1.146-1.253.1-.17.28-.395.54-.674.258-.297.44-.574.546-.833l.229-.45a.476.476 0 0 1 .237-.189.604.604 0 0 0 .24-.163 8.84 8.84 0 0 0 .515-.671 10.6 10.6 0 0 1 .76-.992c.241-.294.43-.46.565-.495.066-.026.252-.208.557-.545.322-.34.65-.698.985-1.075.335-.376.518-.584.547-.623.365-.415.762-.651 1.192-.708.31-.041.493.092.551.399.047.221.05.44.008.655a2.872 2.872 0 0 1-.198.681 4.811 4.811 0 0 0-.18.627c.126.42.093.766-.099 1.036-.121.139-.197.359-.227.66-.013.299-.032.485-.058.558-.064.306-.194.708-.39 1.206-.182.478-.295.817-.339 1.015a9.02 9.02 0 0 0-.03.371 2.253 2.253 0 0 1-.07.455.896.896 0 0 1-.195.314c-.076.08-.112.208-.107.382.004.157-.007.272-.033.345-.264 1.172-.444 1.86-.54 2.065-.03.039-.073.167-.132.384-.061.2-.09.318-.085.353.031.1.037.213.019.338a3.103 3.103 0 0 1-.142.517c-.058.218-.095.336-.11.356-.256 1.1-.25 1.816.022 2.147a.411.411 0 0 0 .182.186c.092.04.15.076.171.108.02.015-.005.089-.075.22-.105.136-.276.23-.514.278a1.098 1.098 0 0 0-.177.05 1.096 1.096 0 0 1-.177.05.715.715 0 0 1-.159-.006.464.464 0 0 1-.145-.112 2.42 2.42 0 0 1-.564-1.289l-.034-.258a1.774 1.774 0 0 1-.019-.338.57.57 0 0 1 .073-.246c.079-.063.092-.16.04-.294-.055-.15-.07-.261-.045-.335.288-1.262.517-1.974.688-2.136-.047-.221.003-.508.148-.86.146-.35.22-.588.221-.71-.002-.28.065-.568.2-.866.189-.427.453-1.336.794-2.728.338-1.408.525-2.176.56-2.303.013-.037.05-.155.11-.356.079-.202.128-.357.149-.465a1.022 1.022 0 0 0-.518.252 4 4 0 0 0-.553.572l-.362.44a135.794 135.794 0 0 1-1.8 2.049c-.063.06-.167.196-.314.408-.147.212-.276.36-.387.445-.154.02-.186.112-.095.275-.012.036-.074.097-.185.181a.847.847 0 0 0-.238.19.281.281 0 0 0-.038.11c-.01.053-.03.1-.06.138-.012.037-.036.058-.07.062-.123-.001-.207.027-.251.086.002.017.03.03.084.041l.032.048-.406.5c-.71.845-1.1 1.334-1.17 1.466a.255.255 0 0 1-.214.16.37.37 0 0 0-.2.078.247.247 0 0 0-.076.22c.012.086-.046.18-.172.285-.175.128-.437.399-.784.812-.33.41-.63.66-.898.748-.115.05-.176.12-.182.208-.008.07-.06.139-.157.204a1.32 1.32 0 0 1-.7.25 4.49 4.49 0 0 1-.636-.047 5.565 5.565 0 0 0-.585-.054c-.246-.142-.478-.444-.696-.904-.072-.148-.108-.484-.107-1.009-.006-.174-.057-.43-.154-.766a9.413 9.413 0 0 1-.154-.767c-.069.01-.116.05-.141.124a.612.612 0 0 0-.047.242 2 2 0 0 0-.002.184 1.72 1.72 0 0 1-.2.472 2.554 2.554 0 0 0-.213.37c.027.205-.04.494-.2.865s-.246.583-.257.637c-.033.145-.14.596-.319 1.354a32.419 32.419 0 0 1-.457 1.896c-.145.491-.311.89-.498 1.194-.057.095-.115.452-.173 1.072-.02.107-.051.207-.091.3a.906.906 0 0 1-.17.311 3.09 3.09 0 0 0-.149.256c-.042.075-.036.188.019.338.072.148.152.225.24.23.306.065.379.222.22.47-.045.058-.11.163-.195.314a.852.852 0 0 1-.22.318.661.661 0 0 1-.318.173Zm5.35-18.043c-.25-.037-.409-.182-.477-.435-.055-.15.003-.237.175-.26a.6.6 0 0 1 .213.025c.182.185.212.409.089.67Zm13.87 10.675c-.062-.464.117-1.03.536-1.697.418-.667.662-1.136.731-1.408a1.05 1.05 0 0 0-.011-.287c-.004-.157.005-.289.026-.397.02-.107.089-.186.204-.236.557-.284.843-.435.858-.455.134-.175.425-.292.872-.351.444-.076.813-.195 1.107-.356l.192-.13a.467.467 0 0 1 .222-.109c.066-.026.194-.052.383-.077.206-.027.383-.015.53.035a.87.87 0 0 1 .332.14c.093.04.246.142.46.306.314.256.9.327 1.76.213.189-.025.437-.066.744-.125.307-.058.512-.093.615-.107.223-.03.504-.023.842.02.353.023.632.021.838-.006.636-.084 1.407-.003 2.314.244.147.05.436.188.868.41.446.203.815.347 1.106.43.42.138.81.305 1.167.502.359.197.565.301.619.312-.025-.19-.137-.437-.335-.743-.183-.325-.272-.602-.267-.83.004-.105.054-.252.152-.44.097-.187.143-.307.136-.359-.011-.086.031-.161.127-.226.094-.083.137-.158.128-.227-.028-.206.204-.639.694-1.298.49-.66.875-1.113 1.157-1.36.158-.125.453-.278.884-.457.428-.197.806-.317 1.132-.36.379-.05.582.037.612.26-.294.161-.53.297-.707.408-.163.092-.404.246-.725.463-.304.215-.54.421-.705.618a2.924 2.924 0 0 0-.412.658c-.123.26-.167.52-.133.778.018.137-.053.26-.213.369-.146.09-.212.185-.198.288.02.155-.002.447-.068.875a4.266 4.266 0 0 0-.024 1.21c.005.034.038.082.098.144.078.06.124.14.137.244.025.189.088.4.189.63.1.232.17.494.209.786a.492.492 0 0 0-.344.177c-.077.08-.15.124-.219.134-.12.015-.302-.04-.546-.164l-.34-.191c-.11-.038-.392-.123-.847-.256-.457-.149-.76-.257-.908-.325-.8-.366-1.318-.578-1.553-.634a3.184 3.184 0 0 1-.414-.155 2.192 2.192 0 0 0-.633-.231 1.893 1.893 0 0 0-.658-.018c-.172.023-.448-.01-.827-.1-.379-.09-.611-.13-.697-.118-.24.032-.623.047-1.148.047a8.28 8.28 0 0 0-1.332.045c-.292.039-.689.012-1.19-.079-.487-.11-.808-.155-.962-.135-.172.023-.296.075-.373.155-.072.114-.086.212-.04.293l.228.337c.107.144.167.267.18.37-.213.5-.314.793-.303.88-.166-.066-.293-.233-.381-.501-.073-.288-.129-.446-.168-.476a.398.398 0 0 0-.3-.091c-.19.024-.433.301-.73.83-.3.512-.512.82-.638.924l-.356.283c-.094.082-.272.193-.533.333a4.09 4.09 0 0 0-.626.424c-.284.23-.504.355-.658.375-.585.077-.906.094-.964.049-.04-.03-.14-.069-.304-.117a7.892 7.892 0 0 1-.414-.155c-.115-.073-.176-.143-.186-.212Zm1.455-1.687c-.129.087-.206.228-.233.424-.009.194.036.336.136.428.119.107.221.154.307.143a.789.789 0 0 0 .273-.115c.129-.087.219-.134.27-.14.688-.091 1.143-.283 1.367-.575.477-.622.69-1.131.637-1.526-.013-.104.035-.197.146-.282.129-.087.172-.285.132-.594-.079-.462-.168-.669-.266-.621a.72.72 0 0 0-.164.546c.023.172-.032.284-.165.337l-.772.312c-.066.026-.184.06-.354.099-.152.038-.288.073-.405.106-.119.033-.2.079-.245.137-.268.35-.384.663-.348.938l.01.077c.01.07-.018.125-.082.169a.2.2 0 0 0-.074.036 1.42 1.42 0 0 1-.17.1Zm4.682-2.272.232-.03c-.034-.258-.138-.454-.313-.588l.081.618Zm16.759.328c-.012-.086-.01-.2.007-.342.016-.142.02-.248.01-.317a.598.598 0 0 0-.075-.173.857.857 0 0 1-.086-.251c-.031-.24.19-.68.665-1.32.475-.64.875-1.122 1.2-1.444.123-.122.371-.294.744-.518.372-.224.623-.441.753-.65.172-.286.765-.495 1.779-.63.206-.027.419-.002.639.073.237.074.37.222.4.446.013.103-.092.23-.317.383-.207.15-.31.303-.306.46.007.051.062.07.165.057.189-.025.294.04.314.194.01.209-.173.478-.549.807-.378.312-.73.56-1.056.743-.113.067-.275.167-.485.3-.21.133-.397.236-.562.31-.165.075-.359.127-.582.156-.138.018-.229-.075-.273-.278-.047-.221-.122-.325-.225-.312-.275.037-.517.252-.727.647-.213.378-.3.713-.26 1.005.054.413.266.7.637.86.386.141.828.179 1.327.113a5.51 5.51 0 0 1 .625-.03c.28-.002.514-.016.703-.04.533-.071 1.44-.541 2.725-1.41 1.3-.872 1.977-1.31 2.028-1.318.138-.018.213.025.227.128.016.12-.086.343-.305.67-.221.309-.428.528-.62.659-.178.11-.463.34-.854.69-.376.329-.732.612-1.068.849-.335.236-.64.373-.916.41-.223.029-.583.146-1.08.352-.483.186-.896.302-1.24.348-.79.104-1.467.01-2.03-.282-.831-.467-1.275-.916-1.332-1.345Zm2.929-3.037c.223-.03.477-.16.761-.389.282-.247.444-.478.486-.694a.923.923 0 0 0-.426-.048c-.396.052-.67.43-.821 1.131Zm14.26 18.65c-.12.015-.205-.157-.253-.518-.068-.516.059-1.144.38-1.886.305-.74.452-1.144.443-1.213-.018-.137.034-.275.155-.413.105-.137.149-.265.133-.385-.04-.31.125-.97.499-1.98.356-1.01.879-2.276 1.569-3.801.69-1.525 1.307-2.874 1.851-4.048a827.547 827.547 0 0 1 1.996-4.145 262.627 262.627 0 0 1 1.322-2.693c.07-.132.193-.323.37-.574.192-.27.335-.507.43-.712.11-.225.153-.431.128-.62-.018-.138-.236-.266-.654-.386a9.931 9.931 0 0 0-1.457-.305 16.78 16.78 0 0 1-.91-.142 5.003 5.003 0 0 1-.476-.226 1.207 1.207 0 0 0-.781-.159c-.207.027-.359-.328-.456-1.067-.025-.19.048-.295.22-.318.24-.032 2.037.334 5.39 1.097.224-.554.61-1.34 1.157-2.356.563-1.036.938-1.768 1.126-2.195.013-.036.184-.26.515-.671.345-.43.5-.774.466-1.032-.03-.224.102-.355.394-.393.275-.037.113.457-.486 1.48-.724 1.268-1.08 2.014-1.067 2.24.009.068.041.117.097.144.188.098.523-.34 1.007-1.313.5-.976.735-1.584.703-1.824-.016-.12.083-.23.297-.328.212-.116.346-.23.4-.342.073-.114-.002-.218-.224-.31a.592.592 0 0 1-.38-.501c-.049-.361.135-.691.55-.99a2.818 2.818 0 0 1 1.367-.575c.326-.043.615.093.867.41.25.299.399.638.449 1.016.048.36.048.763.002 1.206-.029.44-.084.815-.166 1.123-.084.291-.16.441-.229.45-.206.027-.334-.148-.384-.526a6.916 6.916 0 0 1-.037-.677 5.209 5.209 0 0 0-.019-.732c-.063-.481-.275-.698-.636-.65-.224.03-.514.348-.87.954-.36.59-.718 1.25-1.077 1.978-.343.71-.567 1.133-.67 1.27-.3.389-.68 1.007-1.145 1.856-.465.848-.69 1.332-.674 1.452.052.396 1.506.877 4.361 1.443 2.872.564 4.66.8 5.365.707.292-.039.463-.132.514-.278.066-.166.072-.447.02-.842-.057-.43.058-.75.345-.963.284-.23.636-.408 1.057-.534.418-.143.686-.3.803-.473.089-.117.185-.182.288-.196.052-.007.15.007.294.04.144.034.277.042.397.026a3.32 3.32 0 0 0 .428-.135c.231-.1.416-.16.553-.178.464-.061 1.08.102 1.849.49.783.368 1.428.554 1.935.557.35.006.883.067 1.598.182.73.096 1.27.147 1.62.153.16.014.352.084.579.212.241.108.415.163.52.167.39.036 1.163.266 2.32.69 1.158.424 2.078.573 2.761.447a13.06 13.06 0 0 1-.086-1.64c.008-.473.148-1.13.422-1.97.273-.841.416-1.48.428-1.92.004-.367.169-.966.496-1.796.345-.832.663-1.268.955-1.307a.794.794 0 0 1 .514.116c.188.098.293.232.316.404.009.069-.049.225-.174.47a18.84 18.84 0 0 1-.391.811c-.155.283-.253.47-.293.564-.038.11-.064.305-.08.587-.017.265-.069.464-.156.598a3.511 3.511 0 0 1-.432.503 3.048 3.048 0 0 0-.48.535.74.74 0 0 0-.142.517c.023.172.142.279.357.32.216.042.331.123.347.243.037.275.013.628-.07 1.058-.085.414-.121.672-.107.775.011.086.113.256.304.51.206.236.319.43.339.585a.943.943 0 0 1-.399.945c-.319.234-.719.383-1.2.447-1.34.177-3.466-.294-6.376-1.412-.367-.127-.893-.206-1.579-.237-.688-.05-1.189-.131-1.501-.248-.403-.139-.751-.189-1.043-.15-.378.05-.882.335-1.513.856-.616.5-1.13.778-1.542.833-.567.075-1.452.262-2.653.56-1.185.297-2.095.488-2.731.572-.327.043-.833-.021-1.52-.192-.69-.189-1.232-.257-1.627-.205a.647.647 0 0 1-.294-.04 4.84 4.84 0 0 1-.337-.165 1.5 1.5 0 0 0-.226-.127c-.296-.119-.767-.179-1.414-.18-.647-.002-1.1-.047-1.356-.136a12.53 12.53 0 0 1-.637-.257 9.031 9.031 0 0 0-.776-.317 2.826 2.826 0 0 0-.788-.21 2.572 2.572 0 0 0-.871-.042c-.207.027-.414.247-.621.659a14.29 14.29 0 0 0-.596 1.442c-.188.567-.315.925-.383 1.074-.03.039-.092.1-.186.182a.945.945 0 0 0-.204.237c-.028.056-.117.374-.268.953-.069.271-.24.626-.514 1.065-.277.421-.448.715-.513.88-.091.24-.27.605-.538 1.095a71.98 71.98 0 0 0-.657 1.372c-.174.407-.275.762-.306 1.063-.013.159-.16.38-.437.66-.275.3-.402.526-.382.68a.43.43 0 0 0 .043.126c.024.05.037.083.04.1a.528.528 0 0 1-.066.297.903.903 0 0 1-.143.308 2.951 2.951 0 0 1-.22.317l-.202.263c-.191.27-.369.582-.532.936-.143.368-.297.79-.461 1.267a41.11 41.11 0 0 1-.383 1.074 3.84 3.84 0 0 1-.344.57 3.83 3.83 0 0 0-.356.676 1.273 1.273 0 0 0-.096.669c.053.395-.015.675-.203.84a.8.8 0 0 0-.22.317c-.056.112-.099.25-.13.41l-.103.408c-.061.2-.2.472-.417.815-.215.36-.355.624-.42.79a2.137 2.137 0 0 0-.107.381c-.041.216-.1.363-.177.444-.092.1-.232.161-.421.186Zm24.419-24.369a2.41 2.41 0 0 0-1.049.4c-.32.218-.46.481-.42.79.016.121.101.232.254.334a.725.725 0 0 0 .459.097 4.69 4.69 0 0 0 1.435-.452c.49-.257.723-.48.698-.67-.059-.446-.518-.613-1.377-.499Zm-21.381.546c-.11-.038-.186-.22-.23-.546-.07-.533.1-.966.51-1.3.114-.068.2-.08.258-.034.076.042.118.098.127.166.016.12-.01.325-.076.614a3.668 3.668 0 0 1-.291.773c-.108.241-.208.35-.298.327Zm.486.697c-.091-.023-.143-.086-.157-.19-.009-.068.038-.18.14-.333.117-.173.213-.238.289-.195.134.087.163.24.087.46-.076.22-.196.306-.36.258Z"/><defs><clipPath id="a"><path fill="#fff" d="m144.934 20 15.923 2.131-3.701 27.655-15.923-2.13z"/></clipPath></defs></svg>