<svg xmlns="http://www.w3.org/2000/svg" fill="none" viewBox="0 0 93 49"><path fill="#335C30" d="M6.385 18.62c-.052-.33-.009-.771.13-1.326.156-.555.234-.953.234-1.196 0-.641.355-2.236 1.066-4.784l.364-1.638c.208-.936.399-1.612.572-2.028.104-.243.147-.46.13-.65-.017-.139.009-.33.078-.572.07-.26.104-.442.104-.546 0-.503.017-.789.052-.858.052-.07.165-.121.338-.156.173-.035.269-.113.286-.234a.219.219 0 0 0-.026-.182.815.815 0 0 0-.156-.208 1.14 1.14 0 0 1-.104-.208c-.035-.07.017-.147.156-.234.156-.087.269-.104.338-.052.035.035.078.043.13.026.052-.017.087.017.104.104.052.07.06.121.026.156a.198.198 0 0 0-.026.078c.243.208.295.511.156.91-.017.07-.009.243.026.52.035.277.026.416-.026.416a.642.642 0 0 0-.13.234c0 .07.009.147.026.234a.658.658 0 0 1 0 .26c-.139 1.144-.312 1.967-.52 2.47-.139.33-.208.598-.208.806.035.468-.217 1.482-.754 3.042-.104.26-.2.659-.286 1.196-.07.538-.147.928-.234 1.17a12.709 12.709 0 0 0-.364 1.872c-.104.815-.078 1.222.078 1.222.052 0 .104-.034.156-.104a75.066 75.066 0 0 1 1.3-1.144c.243-.225.364-.364.364-.416v-.104c0-.017.017-.043.052-.078a.849.849 0 0 1 .104-.13c.052-.035.121-.104.208-.208a6.01 6.01 0 0 0 .312-.338c1.872-2.305 3.198-4.082 3.978-5.33.33-.277.693-.72 1.092-1.326.399-.607.71-1.023.936-1.248.121-.104.32-.338.598-.702.277-.364.52-.615.728-.754.035-.035.104-.087.208-.156a1.36 1.36 0 0 0 .286-.208.403.403 0 0 0 .156-.234c-.017-.052.035-.147.156-.286a1.45 1.45 0 0 1 .312-.286c.017 0 .035.026.052.078.017.052.052.06.104.026.052-.035.087-.139.104-.312.035-.173.095-.269.182-.286.121-.017.19-.095.208-.234.017-.156.078-.251.182-.286a.386.386 0 0 0 .182-.104c.07-.052.139-.113.208-.182l.182-.182c.087-.087.338-.286.754-.598.416-.33.667-.58.754-.754a.569.569 0 0 1 .39-.26 1.18 1.18 0 0 0 .208-.208.8.8 0 0 1 .234-.208c.07-.035.173-.043.312-.026a.779.779 0 0 0 .286 0 .18.18 0 0 1 .182.052c.052.035.078.13.078.286-.104 0-.173.052-.208.156a.396.396 0 0 1-.104.208c-.121.104-.347.355-.676.754-.312.381-.607.624-.884.728-.017 0-.173.208-.468.624-.277.416-.468.641-.572.676a.875.875 0 0 1-.208.13c-.087.035-.139.078-.156.13 0 .035.009.104.026.208-.104.139-.39.425-.858.858-.45.416-.737.737-.858.962-.017.017-.052.07-.104.156a.608.608 0 0 1-.104.156c-.121.052-.182.07-.182.052.017-.07-.009-.104-.078-.104a.489.489 0 0 0-.026.156v.156c.017.035 0 .07-.052.104-.035.035-.104.06-.208.078-.035.017-.06.052-.078.104 0 .035-.043.104-.13.208-.087.087-.243.19-.468.312-.035.017-.052.095-.052.234s-.052.225-.156.26c-.312.156-.572.46-.78.91-.19.45-.399.771-.624.962-.156 0-.243.018-.26.052.173.035.165.139-.026.312-.19.156-.381.286-.572.39-.104.07-.147.139-.13.208a.475.475 0 0 1-.026.26l-.208.052c-.121.052-.19.121-.208.208h.156a.82.82 0 0 1-.104.26c-.052.07-.13.165-.234.286l-.182.182c-.035-.087-.104-.139-.208-.156-.07.156-.035.234.104.234.035 0 .052.018.052.052a.43.43 0 0 1-.026.13.422.422 0 0 0-.026.104c-.104.07-.338.312-.702.728-.347.416-.537.685-.572.806a.316.316 0 0 1-.208.182c-.104.018-.173.06-.208.13a1.017 1.017 0 0 0-.104.208c-.052.122-.113.2-.182.234-.07.052-.139.121-.208.208-.052.07-.113.165-.182.286a2.326 2.326 0 0 1-.13.234 1.18 1.18 0 0 1-.312.39c-.156.122-.26.217-.312.286-.26.364-.641.823-1.144 1.378-.485.572-.867.953-1.144 1.144a.615.615 0 0 1-.286.13 1.276 1.276 0 0 1-.364 0c-.139 0-.251.009-.338.026a1.57 1.57 0 0 0-.52-.494c-.139-.104-.234-.511-.286-1.222Zm14.152-.494c-.121-.087-.182-.303-.182-.65 0-.364.026-.615.078-.754.243-.815.433-1.36.572-1.638l.754-1.352c.642-.884 1.144-1.326 1.508-1.326.07-.035.139-.121.208-.26.07-.156.173-.251.312-.286 0 .018.044.009.13-.026l.26-.104a.57.57 0 0 1 .156-.078c.156-.104.512-.017 1.066.26.728.381.91.823.546 1.326-.156.243-.251.425-.286.546-.034.156-.095.26-.182.312-.087.035-.156-.026-.208-.182.139 0 .217-.017.234-.052.035-.052.044-.139.026-.26 0-.087-.026-.078-.078.026-.07.121-.13.165-.182.13-.104-.07-.182-.2-.234-.39a2.942 2.942 0 0 0-.104-.364c-.087-.138-.277-.138-.572 0-.295.174-.468.269-.52.286-.173-.26-.312-.346-.416-.26-.034.018.06.122.286.312.07.087.096.139.078.156a1.336 1.336 0 0 0-.728.468 4.606 4.606 0 0 0-.442.832 3.33 3.33 0 0 1-.442.754c-.156.19-.294.572-.416 1.144-.104.26-.147.511-.13.754.017.226.182.269.494.13.052-.017.13-.034.234-.052.104-.034.182-.07.234-.104.59-.312 1.265-.866 2.028-1.664.104-.104.243-.277.416-.52.19-.242.347-.425.468-.546a2.98 2.98 0 0 1 .286-.234c.156-.121.26-.225.312-.312.07-.086.122-.2.156-.338.104-.156.295-.33.572-.52.277-.19.46-.32.546-.39.312-.277.564-.433.754-.468.121-.017.226.06.312.234.104.156.174.32.208.494.017.121.017.234 0 .338-.017.087-.06.2-.13.338a2.032 2.032 0 0 0-.104.286c-.07.19-.242.58-.52 1.17-.26.572-.416 1.057-.468 1.456-.017.104.044.399.182.884.156.503.407.745.754.728.052 0 .174-.017.364-.052.208-.035.355-.052.442-.052.174 0 .234.06.182.182-.017.035-.06.035-.13 0-.07-.052-.113-.07-.13-.052-.07.052-.087.139-.052.26.052.104.035.165-.052.182l-.442.26c-.381.295-.728.39-1.04.286-.693-.225-1.118-.736-1.274-1.534-.035-.087-.052-.277-.052-.572.018-.294.026-.485.026-.572a.79.79 0 0 1 .026-.234.764.764 0 0 1 .208-.182c.122-.087.19-.139.208-.156a.559.559 0 0 0 .13-.104c.07-.052.121-.095.156-.13.052-.035.104-.078.156-.13a.558.558 0 0 0 .104-.13.654.654 0 0 0 .078-.156c.035-.052.043-.095.026-.13a.654.654 0 0 0-.078-.156l-.078-.078c-.017-.034-.034-.052-.052-.052l-.026-.026c-.017 0-.034.035-.052.104 0 .052-.008.148-.026.286a1.097 1.097 0 0 1-.104.338c-.017.035-.06.026-.13-.026a.907.907 0 0 0-.234-.156c-.087-.052-.19-.043-.312.026a.609.609 0 0 1-.156.104.28.28 0 0 0-.104.052v.104c.017.121-.242.407-.78.858-.52.433-.892.71-1.118.832-.104.052-.2.052-.286 0-.087-.052-.165-.06-.234-.026a1.03 1.03 0 0 0-.156.13c-.052.035-.095.06-.13.078h-.13c-.399-.052-.598-.017-.598.104l.078.182c.035.035.07.026.104-.026.035-.052.06-.095.078-.13.035-.052.07-.043.104.026.052.104.06.182.026.234h.104a.429.429 0 0 0 .13-.026c.07-.017.122-.017.156 0 .052 0 .087.017.104.052.087.156-.234.355-.962.598-.07.017-.147.044-.234.078a.2.2 0 0 1-.078.026 1.472 1.472 0 0 1-.468.078c-.208 0-.39-.026-.546-.078-.121-.034-.234-.147-.338-.338-.104-.208-.182-.338-.234-.39Zm5.356-4.004c-.087-.208-.035-.399.156-.572.052.018.087.07.104.156a.84.84 0 0 0-.13.234l-.104.208-.026-.026Zm-1.794 3.77c-.017.19-.06.19-.13 0a.232.232 0 0 1-.026-.104c.104-.104.156-.147.156-.13.017 0 .017.078 0 .234Zm8.87-.13c-.606.243-1.056.364-1.351.364-.295 0-.546-.139-.754-.416a1.673 1.673 0 0 1-.312-.988c0-.225.052-.485.156-.78.104-.312.2-.563.286-.754.104-.19.26-.46.468-.806.208-.346.338-.572.39-.676.087-.173.26-.346.52-.52.277-.173.52-.26.728-.26.104 0 .208.035.312.104.104.07.156.156.156.26 0 .174-.13.45-.39.832-.26.364-.468.624-.624.78-.122.122-.252.373-.39.754-.139.364-.208.641-.208.832 0 .104.052.156.156.156.468-.346 1.187-.728 2.158-1.144.97-.433 1.837-.789 2.6-1.066.78-.294 1.187-.468 1.222-.52.242-.277.563-.416.962-.416.156 0 .433.035.832.104.416.052.745.078.988.078.19 0 .346.165.468.494.121.312.208.659.26 1.04.07.381.2.737.39 1.066.208.312.477.468.806.468.485 0 1.256-.208 2.314-.624 1.057-.416 1.664-.624 1.82-.624.242 0 .364.052.364.156 0 .277-.13.503-.39.676-.139.087-.407.26-.806.52a8.42 8.42 0 0 1-.884.546c-.19.104-.45.243-.78.416a4.19 4.19 0 0 1-.91.338 3.85 3.85 0 0 1-.884.104c-.278 0-.659-.139-1.144-.416-.485-.277-.797-.615-.936-1.014a7.232 7.232 0 0 1-.234-.91c-.087-.416-.182-.71-.286-.884a.523.523 0 0 0-.494-.286c-.208 0-.364.052-.468.156-.156.156-.997.486-2.522.988-1.526.485-2.366.884-2.522 1.196-.104.19-.46.416-1.066.676Zm14.848.26c-.104-.156-.156-.65-.156-1.482 0-.208.06-.537.182-.988.139-.45.303-.832.494-1.144.07-.138.295-.546.676-1.222.017-.034.07-.208.156-.52.104-.33.217-.572.338-.728a.726.726 0 0 1 .494-.312c.035.104.06.243.078.416.035.156.07.45.104.884.052.416.035.694-.052.832 0 .018-.087.165-.26.442-.173.26-.26.434-.26.52 0 .052.017.078.052.078a.2.2 0 0 0 .078-.026c.052-.034.087-.043.104-.026.121.052.139.226.052.52-.087.295-.225.442-.416.442h-.13a.423.423 0 0 0-.104-.026c-.104 0-.156.234-.156.702l.052.78a.43.43 0 0 1-.026.13v.13c.035.156.13.234.286.234.243 0 .494-.043.754-.13.277-.104.442-.19.494-.26.07-.104.269-.19.598-.26.347-.086.555-.156.624-.208.156-.104.477-.373.962-.806.052-.052.295-.182.728-.39.433-.225.72-.468.858-.728.017-.034.095-.121.234-.26.156-.156.32-.312.494-.468.19-.173.303-.277.338-.312.087-.07.234-.2.442-.39s.364-.32.468-.39c.485-.242.78-.442.884-.598.78-1.057 1.794-2.097 3.042-3.12.433-.347.953-.988 1.56-1.924a27.14 27.14 0 0 1 2.08-2.574c.07-.087.173-.2.312-.338a5.575 5.575 0 0 0 .65-.65 1.93 1.93 0 0 0 .234-.39c.035-.087.2-.277.494-.572.087-.035.347-.052.78-.052.139 0 .251.07.338.208.104.139.156.32.156.546 0 .052-.087.19-.26.416-.173.208-.26.33-.26.364a.832.832 0 0 1-.156.338c-.07.104-.165.225-.286.364a6.014 6.014 0 0 0-.26.312c-.243.243-.39.45-.442.624-.035.07-.13.19-.286.364-.156.156-.251.269-.286.338-.156.347-.503.91-1.04 1.69a8.459 8.459 0 0 0-.26.468c-.121.26-.2.425-.234.494a9.485 9.485 0 0 1-.26.546l-.234.416c-.035.035-.147.165-.338.39-.19.226-.338.425-.442.598-.087.174-.13.338-.13.494 0 .208-.173.58-.52 1.118-.347.537-.52.954-.52 1.248 0 .052-.087.303-.26.754-.173.433-.295.667-.364.702-.035.018-.147.32-.338.91-.173.59-.269.893-.286.91-.052.07-.095.226-.13.468-.017.226-.043.373-.078.442-.07.156-.035.381.104.676.139.312.208.494.208.546 0 .017-.052.035-.156.052-.121 0-.19.017-.208.052-.017 0-.009.017.026.052.052.087.13.087.234 0l.182-.104c.052-.017.121-.009.208.026a.445.445 0 0 0 .208.078c.017 0 .121.009.312.026a5.8 5.8 0 0 0 .52.026 1.5 1.5 0 0 0 .546-.052.813.813 0 0 0 .442-.208c.07-.07.269-.182.598-.338.347-.139.572-.208.676-.208 0 .26-.251.52-.754.78-.503.277-.771.434-.806.468a.934.934 0 0 1-.338.208c-.121.07-.234.121-.338.156a1.464 1.464 0 0 1-.442.052 5.25 5.25 0 0 1-.442.026h-.884c-.225 0-.555-.242-.988-.728-.087-.104-.173-.511-.26-1.222.225-1.023.39-1.603.494-1.742.121-.156.173-.46.156-.91-.017-.45.052-.728.208-.832.087-.07.2-.277.338-.624.156-.346.303-.745.442-1.196.156-.45.234-.684.234-.702.485-.988.832-1.551 1.04-1.69l.104.156c-.017.052-.06.139-.13.26-.07.104-.156.243-.26.416a4.61 4.61 0 0 0-.208.416l-.39.702c-.035.052-.07.13-.104.234-.035.087-.035.13 0 .13.347 0 .685-.39 1.014-1.17a1.76 1.76 0 0 0 .13-.26l.078-.208.182-.364c.121-.225.225-.433.312-.624.104-.19.217-.381.338-.572.139-.19.251-.312.338-.364 0-.017.052-.095.156-.234.104-.156.217-.32.338-.494a1.92 1.92 0 0 0 .208-.338c.017-.052.19-.277.52-.676.347-.399.52-.72.52-.962l-.208-.078a.523.523 0 0 0-.26.156.425.425 0 0 0-.13.312c0 .156-.277.494-.832 1.014-.537.52-.936.875-1.196 1.066-.121.121-.303.312-.546.572-.225.243-.416.442-.572.598-.156.139-.347.312-.572.52a5.327 5.327 0 0 1-.65.52c-.243.156-.503.45-.78.884-.26.433-.433.694-.52.78-.087.104-.26.26-.52.468-.26.19-.433.33-.52.416-.035.018-.156.13-.364.338-.19.19-.303.295-.338.312-.295.139-.84.59-1.638 1.352-.33.312-.867.694-1.612 1.144-.139.104-.442.26-.91.468-.45.208-.85.408-1.196.598-.347.174-.52.295-.52.364-.295.087-.59.13-.884.13-.312 0-.572-.052-.78-.156-.19-.104-.312-.2-.364-.286a8.248 8.248 0 0 1-.234-.546ZM53.277 1.2c0-.364.511-.546 1.534-.546.19 0 .407.087.65.26.26.156.416.251.468.286.78.399 1.17 1.083 1.17 2.054 0 .017-.078-.017-.234-.104a6.783 6.783 0 0 1-.468-.286 5.765 5.765 0 0 1-.26-.208c-.139-.33-.433-.494-.884-.494-.087 0-.217-.06-.39-.182-.156-.121-.251-.225-.286-.312 0-.07-.043-.104-.13-.104a1.255 1.255 0 0 0-.364 0 5.548 5.548 0 0 1-.26.026c-.364 0-.546-.13-.546-.39Zm-2.47 10.322c0-.017-.043-.06-.13-.13-.07-.07-.13-.138-.182-.208-.052-.07-.07-.13-.052-.182 0-.017.07-.026.208-.026.26 0 .485.113.676.338.208.208.312.442.312.702 0 .156-.078.32-.234.494-.139.156-.286.234-.442.234-.087 0-.13-.078-.13-.234.017-.173.043-.346.078-.52a.563.563 0 0 0-.104-.468Zm-1.404 3.614v.182c.156-.052.234-.104.234-.156 0-.035-.035-.052-.104-.052h-.078l-.052.026Zm16.507 2.288c-.035-.832-.035-1.334 0-1.508.26-1.144.754-2.314 1.482-3.51.277-.45.59-.901.936-1.352.364-.468.806-1.005 1.326-1.612.537-.607.91-1.04 1.118-1.3.035-.035.078-.13.13-.286.052-.156.104-.26.156-.312l.754-.468c.312.121.563.33.754.624.104.173.087.355-.052.546-.121.19-.33.39-.624.598-.277.208-.425.32-.442.338a19.858 19.858 0 0 0-1.586 1.794c-.017.017-.2.33-.546.936-.347.607-.633 1.023-.858 1.248-.173.174-.433.555-.78 1.144-.33.59-.494.98-.494 1.17 0 .174-.026.442-.078.806a3.52 3.52 0 0 0 0 .858c.052.416.416.624 1.092.624.312 0 .641-.035.988-.104.087-.017.355-.026.806-.026.45 0 .763-.043.936-.13.243-.121.659-.234 1.248-.338.59-.104 1.023-.242 1.3-.416.555-.347.927-.52 1.118-.52.85 0 1.421-.104 1.716-.312.139-.104.33-.165.572-.182.243-.017.555-.008.936.026.399.018.667.026.806.026.277 0 .503-.026.676-.078.035-.017.147-.026.338-.026h.52c.173-.017.26-.034.26-.052.052-.173.009-.277-.13-.312a.668.668 0 0 0-.416-.026c-.156.018-.269.009-.338-.026-.087-.07-.113-.113-.078-.13l.156-.156c.087-.087.13-.173.13-.26 0-.156.156-.234.468-.234.59 0 .988.104 1.196.312.087.087.217.243.39.468.173.208.295.355.364.442.035.052.121.026.26-.078.156-.121.32-.234.494-.338.173-.121.32-.156.442-.104.52.26.693.58.52.962a1.424 1.424 0 0 1-.234.39c-.121.139-.2.243-.234.312-.017.052.009.148.078.286.104.104.277.208.52.312.26.104.442.2.546.286.035.017.147.052.338.104.208.035.364.096.468.182.121.07.147.174.078.312-.017.035-.173.096-.468.182-.277.07-.468.104-.572.104-.45 0-.884-.104-1.3-.312a1.692 1.692 0 0 1-.806-.962c-.07-.19-.19-.286-.364-.286-.07 0-.217.035-.442.104-.208.052-.364.06-.468.026-.104-.07-.243-.07-.416 0l-.312.104a2.89 2.89 0 0 0-.286.208l-.312.234c-.07.035-.295-.035-.676-.208-.364-.173-.563-.303-.598-.39-.07-.139-.173-.208-.312-.208-.104 0-.243.035-.416.104-.173.07-.286.104-.338.104-.399.087-.797.13-1.196.13-.139 0-.338.06-.598.182-.26.122-.433.19-.52.208-.087.017-.45.095-1.092.234-.641.139-1.127.286-1.456.442a2.346 2.346 0 0 1-.962.208c-.503 0-1.127.13-1.872.39a3.703 3.703 0 0 1-1.222.182c-.901 0-1.62-.216-2.158-.65a.86.86 0 0 1-.13-.104l-.104-.156a.28.28 0 0 0-.052-.104.814.814 0 0 1-.052-.156v-.156c0-.017-.009-.078-.026-.182v-.182Zm7.254-9.802a13.876 13.876 0 0 1-.286-.182 3.104 3.104 0 0 1-.234-.182c-.104-.104-.165-.19-.182-.26a1.096 1.096 0 0 1-.026-.26c0-.104.043-.208.13-.312.19-.26.468-.407.832-.442.364-.035.615-.113.754-.234.139-.139.217-.07.234.208.017.572-.07 1.049-.26 1.43-.208.381-.347.572-.416.572a.231.231 0 0 1-.104-.026 1.002 1.002 0 0 0-.182-.13 2.357 2.357 0 0 0-.26-.182Zm4.108 8.372c-.485.399-.529.607-.13.624.208 0 .407-.034.598-.104.19-.087.269-.182.234-.286-.052-.156-.286-.234-.702-.234Zm-8.528-4.862c-.139.07-.269.2-.39.39-.104.19-.121.355-.052.494.052.07.113.104.182.104.156 0 .303-.095.442-.286.156-.208.19-.373.104-.494a.517.517 0 0 1-.052-.234c0-.052-.026-.07-.078-.052a.6.6 0 0 1-.156.078Zm7.072 5.356c-.139 0-.381.052-.728.156-.347.104-.477.2-.39.286.07.07.156.104.26.104.087 0 .225-.043.416-.13.19-.087.338-.13.442-.13.087 0 .13-.043.13-.13 0-.104-.043-.156-.13-.156Zm-2.418-8.19a.281.281 0 0 1-.208.078.32.32 0 0 1-.182-.052.25.25 0 0 1-.078-.182c0-.104.078-.156.234-.156.104 0 .182.035.234.104.07.052.07.121 0 .208Zm7.774 7.852a1.48 1.48 0 0 1-.078.26 2.7 2.7 0 0 1-.078.182c0 .018.009.052.026.104.017.035.043.06.078.078.052 0 .121.017.208.052 0-.087.017-.173.052-.26l.078-.234c.035-.052.026-.095-.026-.13-.035-.035-.121-.052-.26-.052Zm-4.784.156c-.087-.07-.156-.104-.208-.104-.052-.017-.087-.009-.104.026a.362.362 0 0 0-.026.156c0 .052.017.096.052.13l.546.078-.026-.078-.234-.208Zm3.198-.104c-.173.104-.182.234-.026.39.087.052.147.06.182.026.121-.121.156-.208.104-.26-.139-.139-.225-.19-.26-.156ZM.294 43.772c0-1.075.139-1.967.416-2.678.226-.797.399-1.282.52-1.456.104-.104.182-.277.234-.52.052-.242.096-.399.13-.468.243-.502.59-1.066 1.04-1.69.45-.641.858-1.127 1.222-1.456 1.23-1.057 1.864-1.612 1.898-1.664.156-.173.486-.39.988-.65.52-.277.84-.355.962-.234 0 .035-.026.07-.078.104a.41.41 0 0 1-.104.078c-.017.018-.017.035 0 .052.052.035.148.052.286.052.035-.017.087-.104.156-.26a.282.282 0 0 1 .052-.104l.026.13.598-.156c.486.035.746.148.78.338l-.234-.104c-.017 0-.017.017 0 .052a.302.302 0 0 1 .052.078c.018.017.018.044 0 .078-.416 0-.84.13-1.274.39-.07.052-.182.182-.338.39-.156.208-.286.32-.39.338a.707.707 0 0 0-.156.026.288.288 0 0 0-.13.026.422.422 0 0 0-.104.026.23.23 0 0 0-.104.026.305.305 0 0 1-.078.052l-.078.078a1.282 1.282 0 0 1-.078.13 1.282 1.282 0 0 1-.078.13 5.352 5.352 0 0 0-.234.39 1.3 1.3 0 0 1-.026.156.354.354 0 0 0 .026.234c-.086 0-.2-.026-.338-.078-.034.052-.19.174-.468.364-.052.052-.086.139-.104.26 0 .104-.034.19-.104.26-.277.278-.511.39-.702.338 0 .33-.121.659-.364.988-.121.174-.398.512-.832 1.014-.138.173-.303.511-.494 1.014-.19.486-.312.84-.364 1.066-.017.07-.078.156-.182.26-.086.104-.112.2-.078.286.018.07 0 .278-.052.624a35.9 35.9 0 0 1-.182 1.092 7.5 7.5 0 0 0-.104.65c-.07.156-.078.364-.026.624.052.243.078.399.078.468.018.07.07.226.156.468.104.225.174.39.208.494.156.503.486.893.988 1.17.503.26 1.058.39 1.664.39.555 0 1.023-.104 1.404-.312.087-.052.243-.07.468-.052.226 0 .373-.052.442-.156.156-.156.468-.216.936-.182.26.035.408-.017.442-.156.035-.035.078-.043.13-.026.052.017.122.06.208.13a.57.57 0 0 0 .156.078c0-.156.156-.286.468-.39.312-.104.563-.147.754-.13 0-.19.121-.286.364-.286.208 0 .312.078.312.234a4.342 4.342 0 0 0-.39.052.459.459 0 0 0-.208.13c-.07.07-.112.182-.13.338l-.234-.078a1.108 1.108 0 0 1-.156-.104c-.017.156-.052.269-.104.338-.034.07-.121.096-.26.078-.086-.017-.156-.009-.208.026a.17.17 0 0 0-.078.078l-.104.104a.465.465 0 0 1-.13.13c-.034.035-.104.06-.208.078a.786.786 0 0 0-.234.026 1.515 1.515 0 0 1-.39.26c0 .087-.017.148-.052.182a.56.56 0 0 1-.182.104c-.086.035-.156.06-.208.078a1.92 1.92 0 0 1-.468.208 7.494 7.494 0 0 1-.546.156c-.208.07-.372.121-.494.156-.745.225-1.447.295-2.106.208-1.178-.156-1.768-.39-1.768-.702l-.546-.676c-.121.035-.242 0-.364-.104a3.565 3.565 0 0 1-.416-.442 4.244 4.244 0 0 0-.26-.338c-.156-.156-.234-.425-.234-.806 0-.572-.026-.91-.078-1.014-.086-.225-.13-.52-.13-.884Zm7.228-8.996c0 .139-.043.147-.13.026a.425.425 0 0 1-.078-.312c.746-.173 1.335-.442 1.768-.806l.182-.182c.122-.104.234-.19.338-.26a.657.657 0 0 1 .312-.104c.104 0 .182.087.234.26a.253.253 0 0 0 .13.052.8.8 0 0 1 .182-.052.598.598 0 0 1 .208-.052c.122 0 .226.035.312.104.121.087.2.173.234.26.052.07.087.182.104.338.035.139.07.252.104.338.104-.017.182-.026.234-.026.07-.017.104.009.104.078.018.052.018.095 0 .13a.855.855 0 0 1-.052.208 1.555 1.555 0 0 0-.026.234v.39a.505.505 0 0 0-.26.104c-.087.07-.165.104-.234.104 0 .104-.052.208-.156.312a1.512 1.512 0 0 0-.182.208c-.017.035.009.035.078 0 .243-.156.39-.217.442-.182 0 .139-.104.26-.312.364-.208.087-.381.121-.52.104 0-.676.018-1.11.052-1.3a.889.889 0 0 1-.182-.182c-.052-.104-.138-.139-.26-.104a1.882 1.882 0 0 1-.598-.39c-.086-.104-.147-.13-.182-.078-.017.052-.052.078-.104.078a.247.247 0 0 1-.208-.104c-.052-.07-.121-.078-.208-.026-.346.225-.788.32-1.326.286v.182ZM1.932 47.88c-.19 0-.286-.13-.286-.39.156.121.252.252.286.39Zm9.369-1.82a.28.28 0 0 1 .052-.156c.035-.07.078-.139.13-.208a.743.743 0 0 0 .13-.156c.919-1.698 1.508-3.224 1.768-4.576.017-.017.06-.052.13-.104a1.7 1.7 0 0 0 .182-.156c.07-.07.113-.13.13-.182a.172.172 0 0 0 .026-.156c0-.052-.017-.087-.052-.104-.035-.017-.078-.008-.13.026a6.67 6.67 0 0 0-.182.208 1.193 1.193 0 0 1-.208.182c-.104.052-.095-.026.026-.234.104-.173.165-.26.182-.26.121-.121.26-.208.416-.26.26-.07.46.121.598.572.052.156.026.407-.078.754-.087.347-.113.563-.078.65.277-.139.607-.398.988-.78.399-.398.693-.658.884-.78.416-.26 1.092-.537 2.028-.832.33-.104.659-.009.988.286.052.052.121.113.208.182a.907.907 0 0 1 .234.156c.07.052.121.122.156.208.035.087.165.303.39.65.225.347.364.633.416.858a.944.944 0 0 1 0 .312.194.194 0 0 0 .078.208c.017.035.009.096-.026.182a1.802 1.802 0 0 1-.052.208c0 .052.035.087.104.104.104 0 .156.044.156.13v.104c-.26 0-.607-.182-1.04-.546a1.837 1.837 0 0 0-.416-.39c-.035-.017-.035-.078 0-.182l.052-.182c-.017-.035-.07-.078-.156-.13-.087-.052-.139-.104-.156-.156-.035-.104-.173-.225-.416-.364-.243-.139-.425-.208-.546-.208-.07 0-.182.026-.338.078-.156.035-.269.06-.338.078-.277.052-.832.45-1.664 1.196-.832.745-1.36 1.283-1.586 1.612a8.127 8.127 0 0 1-.52.598c-.225.26-.407.494-.546.702-.139.19-.251.399-.338.624-.243.538-.381.824-.416.858a.739.739 0 0 1-.598.286c-.19 0-.338-.095-.442-.286a1.61 1.61 0 0 1-.13-.624Zm9.717-.468c0-.087.034-.338.104-.754.069-.416.13-.693.182-.832.086-.208.277-.572.572-1.092.294-.537.494-.84.598-.91.034-.017.164-.147.39-.39.242-.242.424-.39.546-.442.069-.017.104-.19.104-.52 0-.346.017-.529.052-.546.086-.035.156-.009.208.078a.66.66 0 0 1 .156.312c.173 1.161-.14 2.097-.936 2.808l-.65 1.3c-.174.399-.252.676-.234.832.069.225.208.338.416.338.052 0 .225-.06.52-.182.294-.139.468-.234.52-.286.034-.034.12-.034.26 0 .156.035.26.026.312-.026.138-.173.416-.381.832-.624.416-.242.702-.46.858-.65.086-.087.416-.242.988-.468.572-.225.866-.346.884-.364.173-.19.476-.45.91-.78.45-.346.754-.52.91-.52.069 0 .234-.078.494-.234.277-.156.494-.234.65-.234.329 0 .528.2.598.598.034.19-.104.486-.416.884-.295.382-.52.616-.676.702-.174.087-.4.347-.676.78-.26.416-.52.65-.78.702 0-.052.043-.121.13-.208a.523.523 0 0 0 .156-.286c-.174-.121-.408-.182-.702-.182-.07 0-.191.06-.364.182-.035.07-.122.07-.26 0a1.295 1.295 0 0 0-.234-.104c-.104 0-.252.044-.442.13-.052.052-.286.226-.702.52-.416.295-.642.468-.676.52-.14.156-.373.278-.702.364-.33.07-.538.13-.624.182-.676.416-1.092.624-1.248.624-.746 0-1.274-.078-1.586-.234-.295-.156-.442-.485-.442-.988Zm6.63.884c-.018-.121.043-.268.182-.442.156-.173.25-.303.286-.39.104-.346.277-.52.52-.52.069.087.104.173.104.26.017.087-.01.19-.078.312a.56.56 0 0 0-.104.312c.225 0 .459-.087.702-.26.26-.19.51-.286.754-.286.364 0 .546.078.546.234 0 .139-.191.303-.572.494-.174.087-.364.26-.572.52-.208.26-.4.39-.572.39-.33 0-.607-.06-.832-.182-.208-.139-.33-.286-.364-.442Zm1.066-3.068c-.087 0-.234.078-.442.234-.191.156-.278.277-.26.364.017.087.147.13.39.13.589 0 1.057-.399 1.404-1.196a.723.723 0 0 0-.182-.104c-.052 0-.13.104-.234.312-.087.19-.252.286-.494.286a.577.577 0 0 1-.182-.026Zm6.35 2.782c-.174-.017-.33-.112-.468-.286-.122-.19-.174-.32-.156-.39.086-.728.45-1.395 1.092-2.002.104-.087.164-.286.182-.598.034-.33.138-.529.312-.598.104-.052.216-.043.338.026.121.07.199.078.234.026.052-.07-.026-.147-.234-.234-.191-.104-.234-.208-.13-.312.086-.087.208-.06.364.078.156.139.268.208.338.208.086 0 .164-.052.234-.156.121-.139.078-.286-.13-.442-.191-.156-.26-.251-.208-.286.138-.173.286-.216.442-.13.433.208.598.563.494 1.066-.087.486-.338.832-.754 1.04-.122.07-.174.165-.156.286.017.104.017.217 0 .338-.052.087-.191.26-.416.52-.208.243-.321.442-.338.598.156 0 .329-.035.52-.104.19-.087.407-.19.65-.312.26-.139.424-.225.494-.26.762-.277 1.274-.494 1.534-.65.294-.19.814-.355 1.56-.494a11.413 11.413 0 0 1 2.08-.208c1.265 0 1.898.373 1.898 1.118 0 .087-.104.546-.312 1.378.26 0 .589-.086.988-.26.398-.173.702-.26.91-.26.312-.017.754-.147 1.326-.39.572-.242 1.031-.355 1.378-.338.225.017.71-.078 1.456-.286.745-.225 1.291-.338 1.638-.338.381 0 .676.104.884.312.26.208.32.563.182 1.066-.139.503-.165.84-.078 1.014.294.624.832.936 1.612.936.26 0 .528-.052.806-.156.138-.035.416-.234.832-.598.433-.364.762-.546.988-.546.138 0 .208.052.208.156 0 .33-.347.789-1.04 1.378-.676.572-1.474.858-2.392.858-.624 0-1.058-.13-1.3-.39-.59-.641-.884-1.308-.884-2.002 0-.121.017-.39.052-.806-.416-.139-1.248-.008-2.496.39-1.248.382-1.994.59-2.236.624-1.474.468-2.488.702-3.042.702-.988 0-1.361-.442-1.118-1.326.017-.052.078-.147.182-.286.104-.139.173-.251.208-.338.034-.104.017-.225-.052-.364a21.174 21.174 0 0 0-1.222-.026c-.416 0-.728.009-.936.026-.191.017-.477.121-.858.312-.382.174-.676.252-.884.234-.26-.017-.806.243-1.638.78-.815.538-1.378.737-1.69.598-.07-.035-.26-.017-.572.052-.312.052-.538.07-.676.052Zm23.556.546c0-.086-.017-.242-.052-.468a3.411 3.411 0 0 1 0-.598c.087-.693.32-1.23.702-1.612.035-.017.104-.156.208-.416.121-.277.251-.511.39-.702.139-.19.269-.234.39-.13.07.07.095.113.078.13l-.104.104a.25.25 0 0 0-.078.182.447.447 0 0 1-.026.182c-.017.017-.043.026-.078.026s-.06.018-.078.052c-.017.052 0 .113.052.182.052.052.06.113.026.182 0 .017-.052.217-.156.598 0 .173-.06.303-.182.39a.17.17 0 0 0-.078.078v.104a.282.282 0 0 1 .052.104.2.2 0 0 1 .026.078c0 .035.026.139.078.312.052.173.078.312.078.416a.255.255 0 0 1-.13.234c-.017.017-.06.009-.13-.026-.052-.052-.095-.06-.13-.026a.398.398 0 0 0-.052.156c0 .017.035.07.104.156.07.07.121.139.156.208.07.174.373.382.91.624.416.19 1.127.286 2.132.286.225 0 .598-.017 1.118-.052.052 0 .165.017.338.052.19.017.338.017.442 0 .121-.017.19-.078.208-.182l-.494-.156c0-.017.113-.06.338-.13.225-.07.46-.139.702-.208l.468-.156c.052-.017.295-.113.728-.286.45-.19.728-.33.832-.416.139-.104.26-.32.364-.65.104-.346.13-.606.078-.78a2.762 2.762 0 0 0-.572-1.092c-.26-.346-.615-.65-1.066-.91a10.07 10.07 0 0 0-1.092-.624c-.277-.139-.676-.32-1.196-.546-.399-.19-.953-.286-1.664-.286-.208 0-.503.018-.884.052-.45.07-.97-.078-1.56-.442-.173-.104-.269-.182-.286-.234-.017-.07-.009-.208.026-.416.243-1.404 1.057-2.99 2.444-4.758.208-.26.58-.858 1.118-1.794.537-.953.98-1.551 1.326-1.794.035.104.156.156.364.156.104 0 .269-.026.494-.078.225-.052.355-.078.39-.078 0 .07-.043.165-.13.286-.087.104-.19.217-.312.338-.121.104-.2.182-.234.234-.243.33-.563.876-.962 1.638-.381.745-.71 1.3-.988 1.664-.225.295-.45.633-.676 1.014-.225.381-.494.84-.806 1.378-.295.538-.494.893-.598 1.066l-.104.208a5.06 5.06 0 0 0-.052.234c-.017.07 0 .113.052.13.052 0 .13-.008.234-.026a2.67 2.67 0 0 1 .65-.078c.312 0 .693.052 1.144.156.85.174 1.716.46 2.6.858a7.96 7.96 0 0 1 2.418 1.638c.745.71 1.118 1.456 1.118 2.236 0 .434-.121.945-.364 1.534-.035.104-.147.208-.338.312-.052.035-.104.113-.156.234a.565.565 0 0 1-.104.208.593.593 0 0 1-.234.13c-.104.018-.173.06-.208.13a.458.458 0 0 1-.182.182c-.052.035-.13.07-.234.104-.087.035-.156.07-.208.104-.693.486-1.915.823-3.666 1.014-.035 0-.139.018-.312.052-.173.035-.355.06-.546.078-.173.035-.32.052-.442.052-.225 0-.347-.035-.364-.104a1.76 1.76 0 0 1 .26-.13 1.41 1.41 0 0 0 .286-.156c.087-.035.173-.087.26-.156a.576.576 0 0 0 .182-.234c-.312 0-.477.009-.494.026-.07.087-.19.148-.364.182-.173.035-.381.06-.624.078a4.57 4.57 0 0 0-.468.052c-.901.122-1.465-.164-1.69-.858l.182-.156c-.399-.225-.598-.442-.598-.65Zm5.902-15.262c-.104-.173.19-.65.884-1.43.225-.242.494-.364.806-.364.017 0 .07.044.156.13a.41.41 0 0 0 .104-.078l.078-.078c.035-.035.06-.052.078-.052.121.017.147.182.078.494-.104.347-.303.72-.598 1.118-.087.035-.373.096-.858.182-.468.07-.71.095-.728.078Zm.286 16.12c-.035.087.026.208.182.364.156.139.269.174.338.104.139-.139.07-.286-.208-.442-.19-.121-.295-.13-.312-.026ZM60.44 42.16c-.07-.034-.087-.086-.052-.156.035-.07.087-.095.156-.078.156 0 .243.017.26.052.035.017.026.078-.026.182.052.122.035.182-.052.182-.121 0-.217-.06-.286-.182Zm12.122 2.964a7.51 7.51 0 0 0-.078-.52 5.605 5.605 0 0 1-.078-.858c.017-.26.095-.425.234-.494.104-.052.165-.242.182-.572.035-.346.07-.554.104-.624.59-1.3 1.04-2.175 1.352-2.626.208-.312.58-.745 1.118-1.3.555-.572.936-1.031 1.144-1.378.45-.763.693-1.161.728-1.196.104-.139.633-.381 1.586-.728.572-.208.858-.381.858-.52 0-.035-.017-.07-.052-.104-.017-.017-.087-.008-.208.026a2.669 2.669 0 0 0-.39.104 1.806 1.806 0 0 1-.364.052c-.121 0-.173-.06-.156-.182.087-.312.251-.572.494-.78.243-.225.503-.338.78-.338.52 0 .72.2.598.598-.017.07-.087.165-.208.286a.59.59 0 0 0-.156.39c0 .139-.017.234-.052.286-.017.035-.07.06-.156.078a.577.577 0 0 0-.182.078c-.07.052-.269.278-.598.676-.173.225-.442.486-.806.78a5.964 5.964 0 0 0-.884.858c-.243.295-.425.65-.546 1.066-.052.173-.243.433-.572.78-.312.347-.494.555-.546.624a9.44 9.44 0 0 1-.52.624 4.907 4.907 0 0 0-.572.78c-.121.225-.182.46-.182.702 0 .364-.13.71-.39 1.04-.139.174-.26.59-.364 1.248-.104.642-.104 1.075 0 1.3.052.121.2.269.442.442.26.156.416.26.468.312.364.364.84.546 1.43.546.364 0 .91-.087 1.638-.26.052-.017.165-.06.338-.13.173-.087.338-.156.494-.208.156-.052.277-.06.364-.026.104.035.286.035.546 0 .277-.035.442-.087.494-.156.07-.104.208-.139.416-.104.225.035.39.026.494-.026.052-.052.373-.286.962-.702.607-.416.98-.737 1.118-.962.035-.07.026-.173-.026-.312-.035-.156-.026-.277.026-.364a1.29 1.29 0 0 1 .234-.286l.234-.234c.208-.277.537-.416.988-.416.624 0 .936.26.936.78 0 .312-.19.72-.572 1.222-.364.486-.693.728-.988.728-.19 0-.32.06-.39.182s-.087.278-.052.468c.052.19.104.364.156.52.07.156.139.295.208.416.468.624 1.473.936 3.016.936.659 0 1.248-.06 1.768-.182.07-.017.19-.017.364 0 .19 0 .32-.026.39-.078a.17.17 0 0 0 .078-.078l.078-.078a.299.299 0 0 1 .078-.052.489.489 0 0 1 .156-.026c.121 0 .355-.043.702-.13.364-.104.641-.156.832-.156.416 0 .676.2.78.598-.035 0-.182-.052-.442-.156-.121-.052-.26 0-.416.156-.156.156-.295.226-.416.208-.19-.034-.355.035-.494.208s-.277.26-.416.26c-.485 0-.858.044-1.118.13-.19.07-1.014.225-2.47.468-1.075.173-1.846.07-2.314-.312a8.719 8.719 0 0 0-.676-.468c-.347-.242-.598-.46-.754-.65-.052-.07-.095-.234-.13-.494-.017-.26-.095-.442-.234-.546a.561.561 0 0 0-.338 0 2.274 2.274 0 0 0-.416.208c-.156.087-.26.139-.312.156a5.49 5.49 0 0 0-.598.234l-.65.26c-.173.052-.381.113-.624.182a3.14 3.14 0 0 1-.65.078c-.19 0-.468.078-.832.234-.347.139-.624.208-.832.208-.225 0-.537-.035-.936-.104-.381-.086-.667-.13-.858-.13-.173 0-.338-.017-.494-.052a1.552 1.552 0 0 1-.442-.234 10.406 10.406 0 0 0-.338-.286l-.364-.364a11.1 11.1 0 0 0-.312-.338c-.295-.294-.442-.693-.442-1.196Zm11.804-1.638a.37.37 0 0 0-.208.052c-.035.018-.06.06-.078.13a1.01 1.01 0 0 1-.052.13v.182c.017.087.026.148.026.182a.863.863 0 0 0 .338-.078.696.696 0 0 0 .26-.234c.052-.104.052-.182 0-.234a.397.397 0 0 0-.286-.13Zm7.748 3.744a1.035 1.035 0 0 1-.13-.156c-.017-.07.009-.13.078-.182.07-.07.182-.104.338-.104v.104c0 .035-.009.104-.026.208 0 .104-.026.165-.078.182a.598.598 0 0 1-.182-.052Zm-8.32-3.276c-.26.225-.355.373-.286.442.104.104.182.156.234.156.017 0 .13-.104.338-.312a.323.323 0 0 1-.234-.104c-.07-.07-.087-.13-.052-.182Z"/></svg>