<svg xmlns="http://www.w3.org/2000/svg" fill="none" viewBox="0 0 125 52"><path fill="#335C30" d="M.818 17.466c-.052-.399.034-.676.26-.832.138-.104.242-.113.312-.026.052.052.095.07.13.052.034-.017.06-.017.078 0 .034 0 .043.026.026.078-.052.173 0 .26.156.26.086 0 .095.035.026.104a1.58 1.58 0 0 1-.234.182c0 .104.07.156.208.156.156 0 .251.017.286.052.19.173.381.277.572.312.745.139 1.82-.009 3.224-.442.07-.017.216-.052.442-.104a6.38 6.38 0 0 0 .572-.156c.156-.07.294-.139.416-.208.104-.052.156-.182.156-.39.017-.208 0-.355-.052-.442-.139-.104-.182-.19-.13-.26.034-.035-.035-.147-.208-.338-.174-.19-.295-.286-.364-.286-.07-.087-.234-.217-.494-.39-.26-.173-.408-.338-.442-.494a.33.33 0 0 0-.078-.156.33.33 0 0 0-.156-.078.852.852 0 0 1-.13-.104.357.357 0 0 1-.078-.182c-.018-.104-.06-.165-.13-.182-.087.052-.19 0-.312-.156l-.832-.832c-.555-.468-.962-.919-1.222-1.352-.26-.45-.39-.997-.39-1.638 0-.572.112-1.135.338-1.69.225-.555.563-.936 1.014-1.144.312-.19.468-.312.468-.364-.122-.052-.13-.113-.026-.182.07-.035.112-.026.13.026a.13.13 0 0 1 0 .156c.07.017.104 0 .104-.052.017-.139 0-.225-.052-.26-.035-.035-.078-.026-.13.026a.558.558 0 0 1-.13.104c-.035.017-.052.009-.052-.026 0-.104.121-.251.364-.442.242-.208.433-.347.572-.416.034-.035.234-.13.598-.286a8.56 8.56 0 0 1 .598-.234c.364-.052.554-.087.572-.104a.852.852 0 0 0 .104-.13.852.852 0 0 1 .104-.13.32.32 0 0 1 .182-.052c.104-.017.234-.009.39.026.173.017.286.026.338.026-.035.139.026.234.182.286.104.035.164-.009.182-.13V4.57c-.104.017-.174.017-.208 0-.018-.035.017-.07.104-.104.208-.07.355-.104.442-.104.433 0 .823.208 1.17.624.364.399.563.823.598 1.274 0 .173-.035.433-.104.78-.087 0-.182-.06-.286-.182-.104-.121-.217-.182-.338-.182a.494.494 0 0 1-.234-.286c0-.121-.096-.243-.286-.364-.19-.139-.286-.277-.286-.416-.208 0-.364-.147-.468-.442a.167.167 0 0 0-.13-.13.956.956 0 0 0-.286-.078 2.226 2.226 0 0 0-.234-.026c-.139-.035-.234-.026-.286.026-.035.052-.044.139-.026.26.017.121.043.225.078.312a.253.253 0 0 1 .052.13c-.208.156-.546.33-1.014.52-.468.173-.746.277-.832.312a3.25 3.25 0 0 0-.26.208c-.104.104-.19.173-.26.208a.824.824 0 0 0-.312.234 3.19 3.19 0 0 0-.286.338 3.64 3.64 0 0 1-.234.338c-.052.07-.104.182-.156.338a1.252 1.252 0 0 1-.13.338c-.052.07-.139.087-.26.052 0 .052.052.104.156.156-.018.07-.07.2-.156.39-.07.19-.096.347-.078.468.086.52.164.832.234.936.121.208.59.71 1.404 1.508.832.797 1.395 1.309 1.69 1.534.104.07.33.312.676.728.364.399.58.659.65.78.242.52.416.91.52 1.17.121.225.121.563 0 1.014-.104.433-.286.676-.546.728-.035.017-.122.113-.26.286-.035.052-.2.078-.494.078-.07.035-.208.113-.416.234-.19.121-.347.2-.468.234-.122.052-.32.078-.598.078-.26-.017-.46-.009-.598.026-.763.243-1.43.364-2.002.364-.122 0-.182-.017-.182-.052 0-.035-.009-.052-.026-.052h-.078c-.07.07-.26.104-.572.104.017-.104.07-.173.156-.208a.944.944 0 0 1 .312 0 .73.73 0 0 0 .338-.026l.156-.052c.07-.017.147-.043.234-.078.086-.052.138-.095.156-.13.034-.052.026-.113-.026-.182-.104 0-.304.009-.598.026-.278 0-.468-.009-.572-.026-.087.017-.2.06-.338.13a1.486 1.486 0 0 1-.338.104 1.105 1.105 0 0 1-.338 0 1.224 1.224 0 0 1-.52-.26c-.156-.139-.2-.286-.13-.442-.208-.347-.32-.563-.338-.65ZM7.812 5.454c-.052-.121-.06-.182-.026-.182l.13.026.052.156h-.156Zm5.732 7.67a9.71 9.71 0 0 0-.598.026h-.598a3.82 3.82 0 0 1-.416-.026c-.156-.017-.268-.06-.338-.13a.386.386 0 0 1-.104-.286c0-.295.399-.529 1.196-.702.815-.19 1.448-.286 1.898-.286.659 0 1.075-.078 1.248-.234.122-.087.226-.217.312-.39.243-.485.98-1.387 2.21-2.704 1.248-1.317 1.985-2.253 2.21-2.808.278-.693.598-1.04.962-1.04.07 0 .156.035.26.104.122.087.252.165.39.234a3.5 3.5 0 0 1 .312.13c.087.035.13.07.13.104 0 .07-.078.217-.234.442-.329.45-.658.875-.988 1.274-.329.399-.719.85-1.17 1.352-.433.485-.788.893-1.066 1.222-1.126 1.283-1.698 2.106-1.716 2.47.174.017.685.078 1.534.182.867.104 1.482.19 1.846.26.364.052.832.182 1.404.39.59.208 1.066.46 1.43.754 0-.26.39-.667 1.17-1.222.798-.555 1.508-.832 2.132-.832.486 0 .945.147 1.378.442.451.277.971.72 1.56 1.326.59.607.928.945 1.014 1.014a.562.562 0 0 0 .364.156.56.56 0 0 0 .312-.104c.104-.07.226-.173.364-.312l.286-.286c.295-.243.711-.468 1.248-.676.555-.208 1.075-.312 1.56-.312.676 0 1.127.243 1.352.728a.966.966 0 0 1 .104.39c.035.173.07.303.104.39.052.087.122.13.208.13.104 0 .252-.06.442-.182.746-.52 1.595-.78 2.548-.78.156.503.234.832.234.988 0 .277-.095.52-.286.728-.346.347-.684.867-1.014 1.56-.312.693-.468 1.265-.468 1.716-.017.19.035.416.156.676.122.277.182.485.182.624s-.052.208-.156.208c-.138 0-.355-.121-.65-.364-.277-.225-.442-.39-.494-.494a1.849 1.849 0 0 1-.208-.884c0-.433.191-1.023.572-1.768.382-.763.598-1.23.65-1.404-.19 0-.407.043-.65.13-.225.07-.502.182-.832.338-.329.139-.537.225-.624.26-.19.087-.563.286-1.118.598-.554.312-1.083.572-1.586.78-.485.19-.936.286-1.352.286-.312 0-.589-.06-.832-.182-.242-.104-.433-.347-.572-.728-.138-.381-.164-.71-.078-.988l-.494-.312c-.138-.121-.381-.33-.728-.624-.329-.312-.606-.555-.832-.728a3.12 3.12 0 0 0-.832-.52 2.06 2.06 0 0 0-.962-.26c-.537 0-.996.2-1.378.598a3.553 3.553 0 0 0-.832 1.482.91.91 0 0 0-.026.26v.468c.018.19.026.355.026.494 0 1.127-.19 1.69-.572 1.69-.173 0-.39-.121-.65-.364-.312-.26-.45-.598-.416-1.014l.078-1.092a1.32 1.32 0 0 0-.156-.728c-.173-.347-.494-.598-.962-.754-.45-.173-1.031-.295-1.742-.364-.693-.087-1.144-.156-1.352-.208-.277-.07-.884-.104-1.82-.104-.797 0-1.352.39-1.664 1.17-.19.503-.52 1.135-.988 1.898-.45.763-.745 1.439-.884 2.028-.294 1.23-.476 1.872-.546 1.924-.086.087-.173.13-.26.13-.173.017-.32-.104-.442-.364a1.726 1.726 0 0 1-.156-.676c.035-1.404.2-2.262.494-2.574.122-.121.278-.477.468-1.066.208-.59.486-1.075.832-1.456l.156-.156a2.6 2.6 0 0 0 .234-.26 1.71 1.71 0 0 0 .156-.26c.052-.104.07-.19.052-.26-.017-.07-.069-.121-.156-.156-.19-.087-.45-.13-.78-.13Zm19.11 1.95c.174.087.416.13.728.13a5.736 5.736 0 0 0 1.508-.26c.52-.156.789-.338.806-.546.035-.139-.095-.286-.39-.442-.762-.399-1.23-.607-1.404-.624-.208 0-.312.113-.312.338 0 .416-.112.728-.338.936-.052.035-.13.078-.234.13a1.017 1.017 0 0 0-.234.13.332.332 0 0 0-.13.208ZM22.072 3.868c-.017-.121.061-.243.234-.364.191-.121.373-.173.546-.156.139.035.234.095.286.182.104.208.156.425.156.65-.034.364-.173.598-.416.702-.086.035-.156 0-.208-.104a10.693 10.693 0 0 0-.13-.364c-.034-.156-.086-.251-.156-.286-.208-.104-.312-.19-.312-.26Zm22.166 13.078c-.364.035-.26-.633.312-2.002.018-.052.044-.121.078-.208l.13-.312c-.052 0-.104.035-.156.104-.052.07-.104.087-.156.052-.086-.035-.052-.156.104-.364s.191-.347.104-.416c-.052-.104-.069-.217-.052-.338.035-.121.087-.286.156-.494.07-.208.104-.338.104-.39 0-.087.044-.156.13-.208a.26.26 0 0 0 .104-.26c-.017-.07.035-.13.156-.182.139-.052.217-.113.234-.182.052-.139.052-.225 0-.26-.017 0-.043-.017-.078-.052a.194.194 0 0 1-.078-.208.402.402 0 0 1 .156-.234c.104-.07.2-.104.286-.104.087 0 .156.026.208.078.018.017 0 .043-.052.078-.034.035-.034.06 0 .078.243.121.33.416.26.884l-.26 1.404c-.017.07-.043.139-.078.208a1.263 1.263 0 0 1-.156.182l-.13.13c-.034.035-.052.173-.052.416 0 .156-.086.45-.26.884a3.282 3.282 0 0 1-.104.182 2.453 2.453 0 0 0-.13.39c0 .052.018.087.052.104a.677.677 0 0 0 .208.026c.798-.035 1.552-.373 2.262-1.014a.693.693 0 0 1 .234-.156c.104-.035.217-.06.338-.078.139-.035.252-.07.338-.104a.29.29 0 0 1 .13-.026c.104-.035.208-.121.312-.26.052-.087.191-.13.416-.13.399 0 .676.078.832.234.278.312.477.98.598 2.002.035.225.113.615.234 1.17.122 0 .399-.182.832-.546.434-.381.694-.598.78-.65.156-.087.356-.277.598-.572.243-.312.451-.52.624-.624.399-.225.798-.58 1.196-1.066.191-.225.52-.503.988-.832.468-.347.78-.598.936-.754.208-.19.494-.537.858-1.04a7.87 7.87 0 0 1 1.118-1.222c.382-.312.798-.477 1.248-.494.035.052.096.139.182.26.104.104.165.182.182.234.018.035 0 .095-.052.182-.034.087-.121.173-.26.26-.26.139-.459.373-.598.702-.138.312-.26.511-.364.598l-.936.702c-.104.07-.294.347-.572.832-.034.07-.442.46-1.222 1.17-.762.693-1.187 1.066-1.274 1.118l-.702.442c-.104.07-.26.251-.468.546-.208.277-.372.45-.494.52-.069.052-.138.2-.208.442-.017.07-.069.07-.156 0-.017-.017-.06-.121-.13-.312-.069-.208-.147-.312-.234-.312-.069 0-.138.035-.208.104-.069.052-.06.139.026.26l.26.26c.07.07.026.139-.13.208-.069.017-.164.104-.286.26-.121.139-.199.208-.234.208-.104 0-.268.07-.494.208-.208.139-.372.217-.494.234a4.209 4.209 0 0 1-.546.026.446.446 0 0 1-.182-.026.446.446 0 0 1-.13-.13 1.009 1.009 0 0 0-.13-.182 1.82 1.82 0 0 0-.208-.234 6.738 6.738 0 0 1-.208-.26 5.816 5.816 0 0 1-.182-.26 1.1 1.1 0 0 1-.104-.312c-.034-.156-.078-.659-.13-1.508-.017-.416-.147-.624-.39-.624-.208 0-.71.243-1.508.728-.797.485-1.213.771-1.248.858-.052.07-.242.156-.572.26-.329.087-.537.113-.624.078a2.8 2.8 0 0 0-.884-.156v-.208ZM62.99 18.22c-.52 0-.918-.182-1.196-.546-.26-.364-.39-.685-.39-.962 0-.485.373-.927 1.118-1.326.746-.399 1.37-.598 1.872-.598.035 0 .104.035.208.104a.692.692 0 0 0 .312.078c.104 0 .165-.07.182-.208.018-.156.087-.234.208-.234.156 0 .26.104.312.312.052.19.165.286.338.286a.714.714 0 0 0 .572-.286c.156-.19.512-.286 1.066-.286.295 0 .58.087.858.26.278.156.538.234.78.234-.017-.884-.624-1.326-1.82-1.326-.26 0-.624.026-1.092.078-.45.035-.762.052-.936.052-.33 0-.788.095-1.378.286-.572.19-1.031.286-1.378.286-.762 0-1.144-.295-1.144-.884 0-.693.425-1.447 1.274-2.262.19-.156.468-.503.832-1.04.59-.901 1.985-2.418 4.186-4.55 2.219-2.15 3.606-3.224 4.16-3.224l.39.104c.26.07.468.104.624.104.434 0 .65-.208.65-.624 0-.104-.052-.156-.156-.156-.052 0-.138.043-.26.13-.121.07-.208.095-.26.078-.121 0-.182-.06-.182-.182 0-.26.269-.598.806-1.014.538-.416.954-.624 1.248-.624.59 0 .884.19.884.572 0 .33-.658 1.023-1.976 2.08-1.317 1.04-2.305 1.768-2.964 2.184-.884.607-2.054 1.638-3.51 3.094-1.438 1.439-2.504 2.617-3.198 3.536-.034.052-.156.173-.364.364a2.91 2.91 0 0 0-.442.546 1.003 1.003 0 0 0-.156.52c.104 0 .46-.13 1.066-.39.624-.26 1.1-.399 1.43-.416.416 0 .624.095.624.286a1.145 1.145 0 0 1-.104.208.57.57 0 0 0-.078.156c0 .156.122.182.364.078.382-.156.97-.234 1.768-.234 1.214 0 1.924.425 2.132 1.274.087.33.278.59.572.78.295.173.607.295.936.364.33.052.676.139 1.04.26.382.121.668.286.858.494.208.225 1.1.607 2.678 1.144 1.595.52 2.67.78 3.224.78.434 0 .65-.173.65-.52 0-.312-.398-.641-1.196-.988-.797-.364-1.23-.58-1.3-.65-.537-.572-.806-1.118-.806-1.638 0-.433.13-.789.39-1.066.26-.295.564-.442.91-.442.624 0 1.144.225 1.56.676.434.45.746.953.936 1.508.208.537.494 1.031.858 1.482.382.45.832.676 1.352.676.902 0 2.002.381 3.302 1.144 1.3.763 2.41 1.144 3.328 1.144.122 0 .182-.052.182-.156 0-.052-.138-.303-.416-.754-.26-.468-.39-.797-.39-.988 0-.225.087-.468.26-.728.19-.277.304-.485.338-.624.035-.173.096-.32.182-.442.104-.121.217-.173.338-.156.052 0 .113.087.182.26.087.156.165.234.234.234.208 0 .312-.095.312-.286 0-.139-.121-.234-.364-.286-.225-.052-.338-.139-.338-.26 0-.433.512-1.005 1.534-1.716 1.04-.728 1.82-1.092 2.34-1.092.226 0 .338.06.338.182-.017.139-.563.494-1.638 1.066-1.057.572-1.586.98-1.586 1.222 0 .052.035.078.104.078.104 0 .312-.113.624-.338.33-.243.538-.364.624-.364.052 0 .078.026.078.078-.017.26-.346.702-.988 1.326-.624.607-.936 1.118-.936 1.534 0 .381.087.823.26 1.326.19.485.286.867.286 1.144 0 .832-.39 1.248-1.17 1.248-.78 0-1.863-.32-3.25-.962-1.386-.624-2.218-.936-2.496-.936-.225 0-.511-.13-.858-.39-.346-.26-.693-.39-1.04-.39-.104 0-.156-.104-.156-.312 0-.035.018-.121.052-.26.052-.139.052-.234 0-.286-.034-.07-.138-.104-.312-.104-.156 0-.242.043-.26.13-.017.087 0 .217.052.39.07.173.104.303.104.39 0 .763-.745 1.144-2.236 1.144-.866 0-2.002-.269-3.406-.806a44.062 44.062 0 0 1-3.744-1.664c-1.074-.555-1.655-.832-1.742-.832-.086 0-.372.243-.858.728-.468.485-.788.728-.962.728-.312 0-.762.121-1.352.364-.572.243-1.048.364-1.43.364-.104 0-.286-.017-.546-.052a3.276 3.276 0 0 0-.572-.078c-.225 0-.554.043-.988.13-.433.087-.754.13-.962.13Zm2.47-2.99c-.398 0-.996.165-1.794.494-.797.312-1.196.607-1.196.884 0 .139.156.251.468.338.312.07.624.104.936.104a1.5 1.5 0 0 0 .572-.13c.208-.087.382-.13.52-.13.208 0 .356.026.442.078.104.035.156.087.156.156 0 .052.009.104.026.156.035.035.096.052.182.052.122 0 .226-.06.312-.182.104-.139.165-.208.182-.208.035 0 .165.087.39.26.226.156.434.234.624.234.104 0 .226-.017.364-.052.139-.052.26-.104.364-.156.104-.07.139-.139.104-.208-.052-.07-.13-.104-.234-.104-.086-.017-.13-.052-.13-.104 0-.312.182-.546.546-.702.382-.173.572-.33.572-.468 0-.208-.268-.312-.806-.312-.208 0-.511.026-.91.078-.398.035-.632.052-.702.052-.104 0-.268-.017-.494-.052a2.167 2.167 0 0 0-.494-.078Zm4.888-11.154c-.33.104-.832.485-1.508 1.144-.45.433-.572.65-.364.65.278 0 .945-.381 2.002-1.144 1.075-.763 1.612-1.387 1.612-1.872 0-.087-.104-.113-.312-.078-.225.07-.52.303-.884.702-.346.381-.528.58-.546.598Zm7.072 10.426c-.104 0-.156.043-.156.13 0 .087.148.243.442.468.312.208.546.312.702.312.052 0 .2.043.442.13.243.087.416.13.52.13.104 0 .182-.035.234-.104.07-.087.06-.2-.026-.338-.086-.156-.13-.251-.13-.286 0-.052.052-.165.156-.338.122-.173.182-.32.182-.442 0-.139-.052-.208-.156-.208-.07 0-.138.043-.208.13a.32.32 0 0 1-.26.13c-.208 0-.355.035-.442.104a.694.694 0 0 0-.234.26.753.753 0 0 1-.234.234c-.086.087-.208.06-.364-.078-.156-.156-.312-.234-.468-.234Zm2.574-.208c-.086.104-.095.312-.026.624.087.312.217.468.39.468.07 0 .148-.035.234-.104.139-.121.06-.381-.234-.78-.173-.243-.294-.312-.364-.208Zm9.412 2.548c0 .052.026.113.078.182a.38.38 0 0 0 .234.078.692.692 0 0 0 .416-.156c.139-.104.208-.217.208-.338 0-.173-.095-.26-.286-.26a.724.724 0 0 0-.442.156c-.138.104-.208.217-.208.338ZM74.638 1.008c-.07 0-.234.095-.494.286-.242.19-.364.347-.364.468 0 .087.035.13.104.13.07 0 .252-.113.546-.338.295-.225.442-.364.442-.416 0-.087-.078-.13-.234-.13Zm5.122 15.028c-.034.035-.052.087-.052.156 0 .156.087.33.26.52.174.19.33.243.468.156.035-.017.009-.095-.078-.234a1.29 1.29 0 0 0-.312-.39c-.121-.139-.216-.208-.286-.208Zm-11.648-9.88c-.104 0-.242.078-.416.234-.173.156-.242.26-.208.312.035.035.122.043.26.026.139-.017.286-.07.442-.156.156-.087.234-.173.234-.26 0-.104-.104-.156-.312-.156Zm9.334 7.67c0 .07.052.147.156.234.122.07.217.052.286-.052.018-.035 0-.087-.052-.156a.398.398 0 0 1-.052-.156c0-.07.009-.139.026-.208.035-.087.06-.147.078-.182.018-.035.018-.052 0-.052-.086 0-.182.07-.286.208-.104.139-.156.26-.156.364ZM69.75 15.36c-.086-.156-.19-.104-.312.156-.104.225-.112.338-.026.338.104 0 .2-.06.286-.182.087-.139.104-.243.052-.312Zm29.74 4.03c-.294.07-.51-.017-.65-.26a.647.647 0 0 1 .053-.702c.052-.07.147-.217.286-.442.156-.243.269-.425.338-.546.087-.139.182-.303.286-.494.104-.208.173-.399.208-.572a1.72 1.72 0 0 0 .078-.494c0-.33.147-.763.442-1.3.312-.555.468-.997.468-1.326 0-.277.078-.555.234-.832.173-.295.372-.39.598-.286.086.035.13.095.13.182.017.07 0 .147-.052.234a1.055 1.055 0 0 1-.156.26 7.56 7.56 0 0 1-.182.286c-.07.104-.113.182-.13.234-.122.33.008.494.39.494.26 0 .459-.087.598-.26.069-.07.199-.243.39-.52.19-.295.355-.503.494-.624a.97.97 0 0 1 .676-.26c.19 0 .468.07.832.208.364.139.632.208.806.208.173 0 .381.017.624.052.26.017.476.026.65.026.225 0 .546-.026.962-.078.433-.052.762-.078.988-.078.468 0 .944-.07 1.43-.208a.417.417 0 0 1 .208 0 .68.68 0 0 0 .208-.026.328.328 0 0 0 .182-.13.286.286 0 0 1 .104-.104c.034-.017.086-.017.156 0 .086.017.147.026.182.026.173.017.329.017.468 0 .138-.035.286-.087.442-.156.156-.07.277-.113.364-.13.398-.087.788-.13 1.17-.13.884 0 1.768.165 2.652.494.641.208.866.555.676 1.04a9.916 9.916 0 0 1-.286.598c-.156.347-.234.624-.234.832 0 .19-.113.494-.338.91-.226.399-.451.598-.676.598-.139 0-.252-.078-.338-.234-.174-.26-.148-.771.078-1.534.242-.78.364-1.196.364-1.248-.174 0-.468-.009-.884-.026a11.373 11.373 0 0 0-.91-.052c-.295 0-.564.026-.806.078-.156.035-.399.06-.728.078-.312 0-.546.026-.702.078-.624.208-.971.312-1.04.312-.52 0-.902.07-1.144.208-.156.087-.39.104-.702.052-.295-.052-.503-.017-.624.104-.174.156-.737.234-1.69.234-.884 0-1.396-.078-1.534-.234-.035-.07-.165-.147-.39-.234-.208-.087-.356-.13-.442-.13-.451 0-.772.026-.962.078v.13a.8.8 0 0 1-.26.624l-.13.13c-.07.052-.122.173-.156.364a1.278 1.278 0 0 1-.13.39 2.797 2.797 0 0 1-.286.364c-.139.156-.243.33-.312.52-.052.139-.182.32-.39.546a3.42 3.42 0 0 0-.364.442 2.567 2.567 0 0 1-.416.65 4.786 4.786 0 0 0-.416.624l-.104.208c-.035.104-.07.19-.104.26a.52.52 0 0 1-.13.182.714.714 0 0 1-.182.208.57.57 0 0 1-.234.104Zm10.635 6.76c-.243.364-.416.546-.52.546-.07 0-.096-.113-.078-.338.086-.07.138-.208.156-.416.034-.208.086-.347.156-.416.104-.104.251-.347.442-.728.208-.381.329-.659.364-.832.034-.156.147-.338.338-.546.19-.19.303-.312.338-.364.416-.572.875-1.144 1.378-1.716a75.433 75.433 0 0 1 1.794-1.898 51.7 51.7 0 0 0 1.56-1.612c.069-.087.234-.243.494-.468a5.68 5.68 0 0 0 .546-.52c.086-.104.182-.277.286-.52a2.83 2.83 0 0 1 .312-.52c.936-1.075 1.69-1.82 2.262-2.236.138-.104.286-.277.442-.52.156-.26.251-.416.286-.468a3.57 3.57 0 0 1 .364-.364c.156-.121.329-.251.52-.39l.39-.286c.069-.052.182-.13.338-.234.156-.121.277-.217.364-.286.086-.07.182-.156.286-.26.121-.121.216-.234.286-.338.104-.156.182-.312.234-.468.017-.087.104-.208.26-.364.156-.173.277-.26.364-.26.121 0 .216.139.286.416.069.277.086.529.052.754-.035.347-.087.59-.156.728-.07.121-.217.277-.442.468-.104.07-.26.234-.468.494-.191.26-.356.416-.494.468-.052.017-.243.182-.572.494-.33.312-.512.477-.546.494-.139.087-.434.39-.884.91-.451.52-.711.815-.78.884a5.86 5.86 0 0 0-.182.208 6.211 6.211 0 0 1-.26.338c-.087.104-.165.165-.234.182-.087.017-.234.13-.442.338-.191.19-.312.33-.364.416-.07.087-.2.208-.39.364-.191.139-.312.269-.364.39-.018.07-.174.269-.468.598-.295.33-.486.529-.572.598-.156.139-.529.529-1.118 1.17-.572.641-1.049 1.075-1.43 1.3-.208.121-.486.45-.832.988-.468.71-1.092 1.508-1.872 2.392a8.425 8.425 0 0 0-.312.364 4.585 4.585 0 0 1-.364.442c-.07.07-.2.165-.39.286-.191.139-.312.251-.364.338Zm10.556-13.052a3.643 3.643 0 0 1-.494.442 2.856 2.856 0 0 0-.52.494c-.122.139-.13.277-.026.416.034.035.112 0 .234-.104l.416-.416c.156-.156.26-.251.312-.286.173-.121.407-.312.702-.572.312-.277.528-.468.65-.572.277-.208.615-.503 1.014-.884.398-.399.485-.598.26-.598-.191.295-.616.641-1.274 1.04-.642.381-1.066.728-1.274 1.04Zm-18.902.884-.052.052c-.122.104-.191.19-.208.26-.018.07.017.19.104.364.173.208.294.156.364-.156.069-.33.043-.52-.078-.572-.035-.017-.078 0-.13.052Zm1.69-.884c-.07.121-.035.182.104.182.156 0 .346-.07.572-.208.242-.139.364-.277.364-.416 0-.035-.026-.052-.078-.052a.175.175 0 0 0-.13.052c-.035.017-.174.078-.416.182-.243.087-.382.173-.416.26Zm12.324-.312c0 .19.086.286.26.286.121 0 .182-.095.182-.286a.248.248 0 0 0-.104-.208.227.227 0 0 0-.234-.026c-.07.035-.104.113-.104.234Zm3.38 2.028c-.07 0-.13.06-.182.182-.035.104-.026.182.026.234.138.139.216.113.234-.078.034-.225.008-.338-.078-.338Zm-14.248-1.638c.19.208.338.26.442.156.121-.121.086-.234-.104-.338-.122-.07-.182-.06-.182.026a.18.18 0 0 1-.052.13c-.018.017-.044.026-.078.026h-.026Zm19.084-3.172c-.139-.139-.226-.06-.26.234l-.026.208c.364-.121.459-.269.286-.442ZM9.419 43.814c0-1.075.14-1.967.417-2.678.225-.797.398-1.283.52-1.456.104-.104.182-.277.234-.52.052-.243.095-.399.13-.468.242-.503.589-1.066 1.04-1.69.45-.641.858-1.127 1.222-1.456 1.23-1.057 1.863-1.612 1.898-1.664.156-.173.485-.39.988-.65.52-.277.84-.355.962-.234 0 .035-.026.07-.078.104a.406.406 0 0 1-.104.078c-.018.017-.018.035 0 .052.052.035.147.052.286.052.034-.017.086-.104.156-.26a.282.282 0 0 1 .052-.104l.026.13.598-.156c.485.035.745.147.78.338l-.234-.104c-.018 0-.018.017 0 .052a.301.301 0 0 1 .052.078c.017.017.017.043 0 .078-.416 0-.841.13-1.274.39-.07.052-.182.182-.338.39-.156.208-.286.32-.39.338a.713.713 0 0 0-.156.026.29.29 0 0 0-.13.026.427.427 0 0 0-.104.026.231.231 0 0 0-.104.026.301.301 0 0 1-.078.052l-.078.078a1.256 1.256 0 0 1-.078.13 1.256 1.256 0 0 1-.078.13 5.316 5.316 0 0 0-.234.39c0 .017-.01.07-.026.156a.354.354 0 0 0 .026.234c-.087 0-.2-.026-.338-.078-.035.052-.191.173-.468.364-.052.052-.087.139-.104.26 0 .104-.035.19-.104.26-.278.277-.512.39-.702.338 0 .33-.122.659-.364.988-.122.173-.4.511-.832 1.014-.14.173-.304.511-.494 1.014-.191.485-.312.84-.364 1.066-.018.07-.078.156-.182.26-.087.104-.113.2-.078.286.017.07 0 .277-.052.624s-.113.71-.182 1.092c-.07.381-.104.598-.104.65-.07.156-.078.364-.026.624.052.243.078.399.078.468.017.07.069.225.156.468.104.225.173.39.208.494.156.503.485.893.988 1.17.502.26 1.057.39 1.664.39.554 0 1.022-.104 1.404-.312.086-.052.242-.07.468-.052.225 0 .372-.052.442-.156.156-.156.468-.217.936-.182.26.035.407-.017.442-.156.034-.035.078-.043.13-.026.052.017.12.06.208.13a.57.57 0 0 0 .156.078c0-.156.156-.286.468-.39.312-.104.563-.147.754-.13 0-.19.12-.286.364-.286.208 0 .312.078.312.234a4.39 4.39 0 0 0-.39.052.46.46 0 0 0-.208.13c-.07.07-.113.182-.13.338l-.234-.078a1.104 1.104 0 0 1-.156-.104c-.018.156-.052.269-.104.338-.035.07-.122.095-.26.078-.087-.017-.156-.009-.208.026a.17.17 0 0 0-.078.078l-.104.104a.465.465 0 0 1-.13.13c-.035.035-.104.06-.208.078a.79.79 0 0 0-.234.026 1.514 1.514 0 0 1-.39.26c0 .087-.018.147-.052.182a.558.558 0 0 1-.182.104c-.087.035-.156.06-.208.078a1.918 1.918 0 0 1-.468.208 7.494 7.494 0 0 1-.546.156c-.208.07-.373.121-.494.156-.746.225-1.448.295-2.106.208-1.18-.156-1.768-.39-1.768-.702l-.546-.676c-.122.035-.243 0-.364-.104a3.56 3.56 0 0 1-.416-.442 4.266 4.266 0 0 0-.26-.338c-.156-.156-.234-.425-.234-.806 0-.572-.026-.91-.078-1.014-.087-.225-.13-.52-.13-.884Zm7.229-8.996c0 .139-.044.147-.13.026a.425.425 0 0 1-.078-.312c.745-.173 1.334-.442 1.768-.806l.182-.182c.12-.104.234-.19.338-.26a.658.658 0 0 1 .312-.104c.104 0 .182.087.234.26a.252.252 0 0 0 .13.052.806.806 0 0 1 .182-.052.599.599 0 0 1 .208-.052c.12 0 .225.035.312.104.12.087.199.173.234.26.052.07.086.182.104.338.034.139.069.251.104.338.104-.017.182-.026.234-.026.069-.017.104.009.104.078.017.052.017.095 0 .13a.849.849 0 0 1-.052.208 1.569 1.569 0 0 0-.026.234v.39a.506.506 0 0 0-.26.104c-.087.07-.165.104-.234.104 0 .104-.052.208-.156.312a1.525 1.525 0 0 0-.182.208c-.018.035.008.035.078 0 .242-.156.39-.217.442-.182 0 .139-.104.26-.312.364-.208.087-.382.121-.52.104 0-.676.017-1.11.052-1.3a.886.886 0 0 1-.182-.182c-.052-.104-.14-.139-.26-.104a1.882 1.882 0 0 1-.598-.39c-.087-.104-.148-.13-.182-.078-.018.052-.052.078-.104.078a.247.247 0 0 1-.208-.104c-.052-.07-.122-.078-.208-.026-.347.225-.79.32-1.326.286v.182Zm-5.59 13.104c-.191 0-.286-.13-.286-.39.156.121.25.251.286.39Zm10.278-2.938c-.069-.433.026-1.179.286-2.236.07-.416.252-.945.546-1.586.312-.641.624-1.153.936-1.534.226-.26.529-.763.91-1.508.399-.745.72-1.257.962-1.534.226-.225.555-.71.988-1.456.434-.745.789-1.23 1.066-1.456.018-.017.139.009.364.078.104.017.156.009.156-.026a.426.426 0 0 0-.026-.13.422.422 0 0 0-.182-.208 4.12 4.12 0 0 0-.182-.13c-.052-.035-.06-.078-.026-.13.035-.052.104-.06.208-.026.104.017.2 0 .286-.052.07-.052.078-.173.026-.364a.974.974 0 0 1 .052-.546c.156-.277.408-.416.754-.416a.74.74 0 0 1 .416.104c.104.07.148.156.13.26-.017.087-.052.147-.104.182-.034.017-.104.017-.208 0a2.012 2.012 0 0 0-.182-.026.324.324 0 0 0-.234.104c-.156.208-.216.555-.182 1.04.035.173.035.33 0 .468-.017.121-.121.295-.312.52-.208.243-.45.598-.728 1.066-.26.468-.511.867-.754 1.196-.173.243-.424.702-.754 1.378-.312.659-.624 1.196-.936 1.612-.104.139-.277.485-.52 1.04a6.532 6.532 0 0 1-.78 1.43c-.104.139-.26.58-.468 1.326-.19.728-.277 1.196-.26 1.404.711-.017 1.604-.173 2.678-.468.104-.035.312-.113.624-.234.312-.139.581-.234.806-.286.243-.07.468-.087.676-.052.832.139 1.3.347 1.404.624.018.035.148.26.39.676.26.399.408.685.442.858.035.225.13.624.286 1.196.156.572.243 1.023.26 1.352 0 .208.009.39.026.546.018.156.044.33.078.52.052.208.139.364.26.468a.69.69 0 0 0 .494.13c.087 0 .416-.07.988-.208.122-.017.208-.104.26-.26a.672.672 0 0 1 .234-.286c.07-.052.122-.078.156-.078.018 0 .035.06.052.182.035.121.122.182.26.182.035 0 .07-.017.104-.052.035-.017.061-.052.078-.104l.052-.104.078-.078c.035 0 .07.017.104.052.087.087.13.2.13.338 0 .156-.034.269-.104.338-.034.035-.069.035-.104 0a.283.283 0 0 1-.052-.104.23.23 0 0 0-.026-.104c-.017-.017-.043-.009-.078.026a.25.25 0 0 1-.13.104.465.465 0 0 0-.13.13 1.675 1.675 0 0 0-.052.26c-.017.07-.095.147-.234.234a3.309 3.309 0 0 1-.442.26 3.916 3.916 0 0 0-.338.182c-.329.19-.658.286-.988.286-.78 0-1.282-.373-1.508-1.118-.121-.347-.372-1.421-.754-3.224-.104-.555-.234-1.014-.39-1.378a3.216 3.216 0 0 0-.104-.182.874.874 0 0 0-.13-.208.409.409 0 0 0-.104-.156.392.392 0 0 0-.13-.156.28.28 0 0 0-.156-.052c-.138-.017-.346.017-.624.104-.277.087-.424.13-.442.13-.381.087-.953.277-1.716.572-.762.295-1.378.468-1.846.52-.26.017-.537-.07-.832-.26a1.143 1.143 0 0 0-.39-.182c-.138-.052-.225-.113-.26-.182-.034-.087-.069-.286-.104-.598Zm13.839.728c-.225-.33-.338-.754-.338-1.274s.147-1.153.442-1.898c.312-.745.65-1.23 1.014-1.456.017 0 .043.043.078.13.035.087.07.182.104.286.035.104.06.165.078.182a2.6 2.6 0 0 1 .364.442c.035.035.043.078.026.13 0 .035-.009.06-.026.078l-.052.052-.078.078c-.225.225-.433.659-.624 1.3-.173.624-.165 1.049.026 1.274l.26.286c.19.19.347.39.468.598.399.243.867.364 1.404.364.537 0 1.1-.121 1.69-.364.59-.26 1.014-.485 1.274-.676.26-.19.65-.485 1.17-.884-.017-.052-.026-.269-.026-.65 0-.537.338-1.153 1.014-1.846.693-.693 1.3-1.04 1.82-1.04.208 0 .46-.026.754-.078.312-.052.546-.078.702-.078.381 0 .693.06.936.182.243.104.39.208.442.312.07.104.104.208.104.312 0 .243-.06.442-.182.598a2.266 2.266 0 0 1-.52.416c-.225.121-.381.225-.468.312-.312.295-.754.607-1.326.936-.555.33-1.014.615-1.378.858-.364.225-.546.416-.546.572 0 .399.32.728.962.988.641.243 1.43.364 2.366.364.139 0 .33-.026.572-.078.243-.07.529-.156.858-.26a12.2 12.2 0 0 1 .754-.208c.19-.052.59-.2 1.196-.442.624-.26 1.04-.39 1.248-.39.017 0 .035.009.052.026h.078c.087 0 .234-.043.442-.13.225-.104.373-.156.442-.156.087 0 .139.026.156.078.052.139-.78.58-2.496 1.326-.087.035-.234.139-.442.312s-.364.269-.468.286c-.017 0-.07-.009-.156-.026-.07-.017-.121-.017-.156 0l-.156.078a3.492 3.492 0 0 1-.364.182c-.156.07-.347.139-.572.208-.225.07-.52.13-.884.182a7.74 7.74 0 0 1-1.144.078.427.427 0 0 1-.104-.026.252.252 0 0 0-.13-.052c-.035 0-.104.009-.208.026s-.19.026-.26.026c-.71-.225-1.265-.45-1.664-.676-.121-.07-.286-.26-.494-.572-.208-.312-.407-.468-.598-.468-.225 0-.659.234-1.3.702-.416.295-.936.529-1.56.702-.624.173-1.179.26-1.664.26-.208 0-.46-.06-.754-.182-.277-.121-.433-.234-.468-.338-.035-.07-.312-.225-.832-.468-.503-.26-.789-.529-.858-.806Zm1.456-1.872v-.234c0-.087.009-.156.026-.208a.814.814 0 0 1 .052-.156l.052-.104.078-.078a.305.305 0 0 1 .078-.052.427.427 0 0 1 .104-.026.429.429 0 0 0 .13-.026.427.427 0 0 1 .104-.026c.121-.017.208-.052.26-.104a.445.445 0 0 0 .13-.13.574.574 0 0 0 .026-.182.774.774 0 0 0 .026-.13c.035-.121.208-.182.52-.182.139 0 .217-.052.234-.156.035-.139.147-.286.338-.442.208-.156.373-.303.494-.442s.13-.277.026-.416c-.035-.052-.113-.035-.234.052-.104.07-.225.156-.364.26-.121.087-.208.104-.26.052-.07-.052-.087-.156-.052-.312.052-.173.052-.286 0-.338-.052-.052-.095-.078-.13-.078s-.07.035-.104.104a3.937 3.937 0 0 1-.078.208.472.472 0 0 1-.156.208 1.237 1.237 0 0 1-.702.208c-.173 0-.303-.035-.39-.104-.017-.19.07-.364.26-.52a2.56 2.56 0 0 1 .676-.39 3 3 0 0 0 .442-.208c.19-.121.347-.2.468-.234.347-.07.633-.104.858-.104.364 0 .65.087.858.26.225.173.33.468.312.884-.017.295-.173.641-.468 1.04-.277.381-.555.676-.832.884-.052.035-.19.139-.416.312-.208.156-.399.295-.572.416a9.312 9.312 0 0 1-.546.39c-.208.121-.399.225-.572.312-.156.07-.295.104-.416.104-.173 0-.26-.104-.26-.312Zm8.632-2.132a.32.32 0 0 1-.13.26.466.466 0 0 1-.26.13 2.045 2.045 0 0 0-.312.078.56.56 0 0 0-.182.104c-.017.017.009.07.078.156.087.07.295.104.624.104.312-.017.641-.19.988-.52.208-.19.251-.32.13-.39a.515.515 0 0 0-.234-.052.938.938 0 0 0-.312 0 2.117 2.117 0 0 1-.26.026c-.087 0-.13.035-.13.104Zm-5.902.078c-.052.104-.035.156.052.156a.478.478 0 0 0 .39-.26.194.194 0 0 0-.078-.208c-.121-.07-.243.035-.364.312Zm4.81 1.352c.277 0 .442-.043.494-.13.052-.139 0-.208-.156-.208-.07 0-.147.035-.234.104-.07.052-.104.13-.104.234Zm8.336 5.174c-.139-.173-.182-.338-.13-.494.035-.104.07-.165.104-.182.052-.035.13-.043.234-.026a.79.79 0 0 0 .234-.026c.45-.07 1.161-.303 2.132-.702l.234-.078a1.71 1.71 0 0 0 .39-.13c.104-.052.156-.104.156-.156 0-.156-.095-.355-.286-.598-.19-.243-.433-.537-.728-.884a5.264 5.264 0 0 1-.676-1.04c-.07-.139-.2-.347-.39-.624-.173-.295-.32-.555-.442-.78a2.88 2.88 0 0 1-.208-.728c-.087-.555-.009-.936.234-1.144.07 0 .087-.095.052-.286-.017-.19-.017-.312 0-.364.052-.173.347-.364.884-.572.537-.225.901-.32 1.092-.286.763.173 1.291.373 1.586.598.295.208.52.641.676 1.3.121.641.104.927-.052.858-.017 0-.035-.009-.052-.026-.017-.017-.026-.06-.026-.13 0-.087-.017-.147-.052-.182a.176.176 0 0 0-.13-.052c-.052 0-.095-.026-.13-.078a11.45 11.45 0 0 0-.364-.78c0-.017-.026-.017-.078 0-.052.017-.095 0-.13-.052.052-.104 0-.208-.156-.312-.052-.017-.087-.017-.104 0-.017 0-.043.017-.078.052-.035.035-.06.052-.078.052-.052.017-.121-.009-.208-.078-.087-.087-.156-.113-.208-.078-.052.052-.06.104-.026.156.035.035.113.087.234.156.104.07.139.113.104.13 0 .035-.052.035-.156 0a3.083 3.083 0 0 0-.806-.13c-.572 0-.884.338-.936 1.014 0 .104.052.32.156.65.104.312.182.494.234.546.121.104.26.286.416.546.156.26.243.399.26.416.19.277.399.537.624.78.607.607.988 1.213 1.144 1.82 0 .156.009.26.026.312.035.052.017.139-.052.26-.052.121-.087.2-.104.234a2.37 2.37 0 0 0-.156.234c-.087.121-.147.2-.182.234-.208.243-.407.381-.598.416-.052 0-.156-.017-.312-.052-.139-.017-.234 0-.286.052-.52.243-.91.381-1.17.416-.035-.052-.052-.087-.052-.104a.778.778 0 0 0 .078-.104.409.409 0 0 0 .104-.156c0-.07-.043-.13-.13-.182 0 .225-.173.425-.52.598-.641.087-1.04.009-1.196-.234Zm.936-7.462c-.087.087-.104.182-.052.286.07.087.147.13.234.13.087 0 .13-.07.13-.208 0-.312-.104-.381-.312-.208Zm7.625 4.082c0-.087.017-.2.052-.338a1.42 1.42 0 0 0 .052-.312.595.595 0 0 0-.052-.182.855.855 0 0 1-.052-.26c0-.243.277-.65.832-1.222.554-.572 1.014-.997 1.378-1.274.138-.104.407-.243.806-.416.398-.173.676-.355.832-.546.208-.26.823-.39 1.846-.39.208 0 .416.052.624.156.225.104.338.269.338.494 0 .104-.122.217-.364.338-.226.121-.347.26-.364.416 0 .052.052.078.156.078.19 0 .286.078.286.234-.018.208-.234.45-.65.728-.416.26-.798.46-1.144.598-.122.052-.295.13-.52.234a4.64 4.64 0 0 1-.598.234 2.084 2.084 0 0 1-.598.078c-.14 0-.217-.104-.234-.312-.018-.225-.078-.338-.182-.338-.278 0-.546.182-.806.546-.26.347-.39.667-.39.962 0 .416.173.728.52.936.364.19.797.286 1.3.286.138 0 .346.017.624.052.277.035.51.052.702.052.537 0 1.499-.347 2.886-1.04 1.404-.693 2.132-1.04 2.184-1.04.138 0 .208.052.208.156 0 .121-.13.33-.39.624-.26.277-.494.468-.702.572-.191.087-.503.277-.936.572a13.04 13.04 0 0 1-1.17.702c-.364.19-.685.286-.962.286-.226 0-.598.07-1.118.208-.503.121-.928.182-1.274.182-.798 0-1.456-.182-1.976-.546-.763-.572-1.144-1.075-1.144-1.508Zm3.302-2.626c.225 0 .494-.095.806-.286.312-.208.502-.416.572-.624a.923.923 0 0 0-.416-.104c-.4 0-.72.338-.962 1.014Zm5.838 2.782c.017-.485.208-.97.572-1.456.364-.485.72-.858 1.066-1.118.364-.26.823-.563 1.378-.91.19-.121.763-.407 1.716-.858.97-.468 1.543-.728 1.716-.78.555-.156.97-.234 1.248-.234.364 0 .642.087.832.26.156.156.26.373.312.65-.364.225-.494.407-.39.546.174.208.269.373.286.494.035.121.009.277-.078.468-.087.139-.173.208-.26.208-.104 0-.2-.052-.286-.156a.425.425 0 0 1-.078-.312c.052-.19.06-.338.026-.442a1.1 1.1 0 0 1-.052-.26c0-.07-.034-.113-.104-.13a.398.398 0 0 0-.156-.052 1.6 1.6 0 0 0-.208.026h-.234a.705.705 0 0 1-.52-.208.522.522 0 0 1-.156-.26.417.417 0 0 1 0-.208l.026-.052a1.58 1.58 0 0 1-.13.104c-.398.295-.511.555-.338.78-.034-.035-.269.104-.702.416-.433.312-.919.65-1.456 1.014-.52.347-.867.546-1.04.598-.346.121-.71.45-1.092.988-.364.52-.546.97-.546 1.352 0 .364.217.546.65.546.295 0 .676.087 1.144.26.468.156.815.251 1.04.286.277.035.667.009 1.17-.078.52-.104.876-.156 1.066-.156.364 0 .936-.113 1.716-.338a99.51 99.51 0 0 0 1.274-.364c.416-.07.685-.2.806-.39.017-.035.096-.182.234-.442.19-.364.46-.702.806-1.014.139-.121.373-.338.702-.65.33-.312.59-.555.78-.728.208-.19.468-.39.78-.598.33-.225.65-.399.962-.52.087-.052.278-.06.572-.026.312.035.52.043.624.026.538-.052.97.095 1.3.442.07.07.147.19.234.364.087.173.174.312.26.416.087.104.182.156.286.156a.566.566 0 0 1 .442-.208c.312 0 .486.139.52.416.035.208-.043.364-.234.468-.173.104-.26.217-.26.338 0 .017-.078.087-.234.208a7.922 7.922 0 0 0-.468.338l-.26.156c-.121.087-.355.33-.702.728-.33.399-.528.676-.598.832-.208.45-.182.806.078 1.066s.633.425 1.118.494c.832.104 1.43.156 1.794.156.347 0 .529-.035.546-.104.017-.087.078-.13.182-.13.07 0 .156.026.26.078.104.035.2.07.286.104.087.035.148.043.182.026.017-.017.009-.095-.026-.234 0-.052.026-.07.078-.052.052.017.13.078.234.182.121.121.044.243-.234.364-.26.121-.633.234-1.118.338-.485.121-.737.182-.754.182-.225.07-.442.104-.65.104-.138 0-.364-.026-.676-.078a4.903 4.903 0 0 0-.78-.078l-.286.104c-.07 0-.156-.052-.26-.156a.832.832 0 0 0-.182-.182.808.808 0 0 0-.286-.104.925.925 0 0 1-.234-.078.886.886 0 0 1-.182-.182c-.277-.312-.416-.693-.416-1.144 0-.139.017-.433.052-.884-.208 0-.546.173-1.014.52-.468.33-.797.485-.988.468-.121 0-.33.043-.624.13-.294.07-.555.087-.78.052-.52-.087-.91-.13-1.17-.13-.243 0-.624.043-1.144.13-.104.017-.303.07-.598.156-.277.07-.528.121-.754.156a2.23 2.23 0 0 1-.572.026c-.33-.035-.806.026-1.43.182-.624.156-1.049.243-1.274.26-.97.035-1.716-.035-2.236-.208-.762-.26-1.274-.693-1.534-1.3-.017-.07-.087-.13-.208-.182-.121-.052-.2-.121-.234-.208a2.163 2.163 0 0 1-.13-.78Zm11.856 0c.538 0 1.136-.113 1.794-.338.676-.243 1.23-.537 1.664-.884.017-.017.113-.07.286-.156.173-.104.295-.19.364-.26.07-.07.13-.173.182-.312.07-.156.009-.303-.182-.442-.208-.208-.572-.312-1.092-.312-.19 0-.32.035-.39.104-.156.156-.45.399-.884.728a9.095 9.095 0 0 0-1.118.936c-.312.312-.52.624-.624.936Zm9.23 2.444c0-.035-.026-.07-.078-.104-.052-.052-.078-.104-.078-.156 0-.277.13-.416.39-.416.174 0 .286.06.338.182.07.104-.017.2-.26.286-.173.052-.277.121-.312.208Zm-12.246-6.734c.33.416.399.624.208.624-.087 0-.182-.052-.286-.156-.087-.104-.095-.182-.026-.234a1.08 1.08 0 0 0 .104-.234Zm-2.6.39a.409.409 0 0 0 .156-.104c.07-.052.113-.078.13-.078.035-.017.087-.009.156.026.208.19.225.312.052.364-.138.035-.303-.035-.494-.208Zm2.158-.702h-.364l.052.39c.017.104.052.156.104.156.035 0 .07-.043.104-.13a.816.816 0 0 0 .104-.26c.018-.104.018-.156 0-.156Zm13.267 7.02a.638.638 0 0 1-.442-.468.677.677 0 0 1 .13-.65c3.033-3.553 5.53-6.673 7.488-9.36.052-.07.13-.13.234-.182a.48.48 0 0 0 .234-.26c.052-.19.19-.407.416-.65.243-.243.373-.381.39-.416.052-.07.217-.373.494-.91s.529-.927.754-1.17c.243-.243.477-.295.702-.156a.599.599 0 0 0 .234.078c.104 0 .199-.078.286-.234.087-.173.165-.243.234-.208.139.052.217.13.234.234.017.104-.017.225-.104.364a2.345 2.345 0 0 1-.26.364c-.087.104-.191.225-.312.364l-.234.312c-.104.156-.52.693-1.248 1.612-.728.901-1.135 1.465-1.222 1.69a.802.802 0 0 1-.208.234.944.944 0 0 0-.234.208c-.19.312-.65.901-1.378 1.768-.728.85-1.196 1.56-1.404 2.132-.052.121-.208.251-.468.39-.242.121-.381.26-.416.416-.087.433-.52.988-1.3 1.664-.763.659-1.204 1.179-1.326 1.56.139 0 .373-.13.702-.39.33-.26.52-.407.572-.442 1.768-.884 2.591-1.43 2.47-1.638-.07-.07-.139-.07-.208 0l-.286.286c-.104.104-.19.139-.26.104-.294-.139-.121-.399.52-.78.45-.277.702-.442.754-.494.295-.295.823-.659 1.586-1.092.763-.433 1.335-.65 1.716-.65.104 0 .234-.035.39-.104.156-.07.321-.156.494-.26.191-.121.321-.2.39-.234.139-.07.355-.104.65-.104.451 0 .823.078 1.118.234.312.156.39.39.234.702 0 .017-.017.06-.052.13l-.104.156a.548.548 0 0 1-.104.13 1.035 1.035 0 0 1-.156.13.32.32 0 0 1-.182.052c-.035 0-.069-.104-.104-.312-.035-.225-.069-.347-.104-.364-.191-.087-.581-.026-1.17.182-.589.19-.979.381-1.17.572-.087.052-.295.121-.624.208-.33.07-.537.173-.624.312-.173.33-.468.641-.884.936-.398.277-.78.416-1.144.416-.104 0-.286.113-.546.338-.243.225-.364.39-.364.494.104.035.286.078.546.13.278.035.494.087.65.156 1.422.641 2.149.97 2.184.988.711.416 1.43.624 2.158.624.503 0 .962-.104 1.378-.312.451-.243.797-.364 1.04-.364.312 0 .676-.121 1.092-.364.416-.26.711-.468.884-.624.191-.156.485-.416.884-.78l.182-.182c.087-.104.147-.173.182-.208a.608.608 0 0 1 .208-.13.502.502 0 0 1 .26-.078c.156 0 .277-.017.364-.052.087-.052.173-.13.26-.234.104-.104.191-.182.26-.234.225-.156.407-.234.546-.234.087 0 .156.035.208.104a.393.393 0 0 1 .104.208l.052.156c.069.07.173.095.312.078.156-.035.295-.095.416-.182.121-.104.156-.2.104-.286-.035-.035-.121-.026-.26.026-.139.035-.234.026-.286-.026-.052-.052-.043-.104.026-.156.087-.07.199-.13.338-.182.156-.07.295-.121.416-.156.139-.052.26-.087.364-.104.017 0 .069.043.156.13.104.07.199.078.286.026a.646.646 0 0 1 .286-.078c.156 0 .286.06.39.182a.562.562 0 0 1 .156.416c0 .347-.65.823-1.95 1.43-.052.035-.199.087-.442.156-.849.243-1.283.46-1.3.65 0 .104.078.208.234.312.173.104.459.165.858.182.399.017.685.087.858.208.555.399 1.283.598 2.184.598.191 0 .451.087.78.26.329.173.589.26.78.26.329 0 .745.19 1.248.572.312.26.373.416.182.468-.052.017-.503-.035-1.352-.156-.849-.121-1.421-.217-1.716-.286a49.279 49.279 0 0 0-1.326-.234 24.942 24.942 0 0 1-2.08-.442c-.572-.173-.962-.373-1.17-.598-.104-.104-.295-.225-.572-.364-.277-.156-.485-.234-.624-.234-.173 0-.494.139-.962.416a26.33 26.33 0 0 1-.806.468c-.243.087-.598.234-1.066.442a9.28 9.28 0 0 1-1.196.468 3.873 3.873 0 0 1-1.118.156c-.208 0-.381.017-.52.052a4.056 4.056 0 0 1-.494.026c-.121 0-.329-.078-.624-.234-.277-.156-.494-.234-.65-.234-.26 0-.52-.043-.78-.13a3.305 3.305 0 0 1-.65-.286 58.828 58.828 0 0 1-.65-.442 6.37 6.37 0 0 0-.624-.416c-.156-.104-.32-.303-.494-.598-.156-.295-.286-.468-.39-.52-.156-.087-.338-.07-.546.052-.19.121-.338.251-.442.39-.121.156-.702.555-1.742 1.196-1.04.641-1.63.945-1.768.91Zm8.008-3.822c-.052-.104-.034-.19.052-.26a.75.75 0 0 1 .416-.156c.191-.035.355-.06.494-.078.139-.017.243-.026.312-.026.225 0 .537-.156.936-.468.416-.312.676-.468.78-.468.173 0 .26.017.26.052 0-.052-.035.017-.104.208-.139.381-.459.659-.962.832a8.168 8.168 0 0 1-.598.156c-.295.052-.52.121-.676.208a1.26 1.26 0 0 1-.572.13c-.173 0-.286-.043-.338-.13Zm2.912-10.842c-.277.104-.407.078-.39-.078 0-.173.147-.338.442-.494l.286-.078c.104 0 .191.035.26.104.035.035.087.043.156.026.069-.017.121 0 .156.052.017.035.009.06-.026.078-.035.035-.052.06-.052.078a1.157 1.157 0 0 1-.078.13c-.035.035-.052.06-.052.078 0 .017.017.078.052.182.017.052 0 .07-.052.052a.846.846 0 0 1-.208-.052c-.26-.07-.425-.095-.494-.078Zm9.022 9.776c-.069-.07-.173-.104-.312-.104a.563.563 0 0 0-.416.156c-.087.104-.069.225.052.364.087.087.191.13.312.13.191 0 .329-.052.416-.156.087-.121.069-.251-.052-.39Zm-2.314.702a.866.866 0 0 1-.312.182.719.719 0 0 0-.208.078c-.017 0 .009.06.078.182.121.121.312.113.572-.026.173-.087.199-.173.078-.26l-.208-.156Zm-9.802 3.536c.121-.139.139-.243.052-.312-.087-.07-.251-.104-.494-.104l.078.156a.882.882 0 0 0 .13.286c.07.052.147.043.234-.026Z"/></svg>