<svg xmlns="http://www.w3.org/2000/svg" fill="none" viewBox="0 0 72 22"><g fill="#335C30" clip-path="url(#a)"><path d="M68.21 17.506c-3.153-2.508-10.284-7.796-14.169-7.914-6.031-.185-8.197 6.545-14.308 5.155-3.648-.83-7.954-8.526-12.616-9.1-8.77-1.086-8.744 9.08-13.017 8.488C8.747 13.391 3.578 4.153.457.42c.382 4.826 8.494 14.255 12.991 15.012 4.88.817 6.13-5.623 8.724-7.434 6.585-4.59 11.964 6.9 17.568 8.053 7.177 1.475 8.744-5.287 14.294-5.142 4.09.111 9.989 5.59 14.177 6.604v-.007Z"/><path d="M70.172 14.227H68.87l1.31 5.255c-1.817-.047-3.602-.066-5.42.197-1.046.152-2.962.125-2.468 1.778l9.231-.962c1.225-.684-1.475-4.918-1.35-6.268Z"/></g><defs><clipPath id="a"><path fill="#fff" d="M.457 21.457h71.388V.42H.457z"/></clipPath></defs></svg>