<svg xmlns="http://www.w3.org/2000/svg" fill="none" viewBox="0 0 61 60"><g clip-path="url(#a)"><path fill="#335C30" d="m2.438 59.363-.4-2.396-1.157-.726c3.753.325 5.505-5.518 9.07-6.869 1.077-.407 1.258.85.92 1.233-.08.093-1.395.456-2.202 1.226-.688.663-4.016 3.647-3.415 4.404 9.709-.97 18.611-3.285 27.063-8.245C49.54 37.892 58.98 19.625 60.569 0c1.226 28.984-23.135 54.114-51.562 56.873.657 1.64 5.98-.113 5.624 2.49H2.438Z"/></g><defs><clipPath id="a"><path fill="#fff" d="M60.613 59.363H.881V0h59.732z"/></clipPath></defs></svg>