<svg xmlns="http://www.w3.org/2000/svg" fill="none" viewBox="0 0 29 24"><path fill="#335C30" d="M22.27 22.84c1.026-2.508 2.11-5.018 2.655-7.69.428-2.098 1.146-7.029-2.278-6.746-.231.02-1.138.185-1.2.365.385 4.403-.509 11.237-4.764 13.635-3.25 1.831-7.007.176-7.705-3.49-.995-5.224 4.685-9.653 8.383-12.355-1.698-5.393-5.447-2.037-7.56.863-3.22 4.422-5.076 10.074-6.055 15.418H0c.365-2.608 1.026-5.256 1.871-7.747C3.647 9.858 8.85-1.171 15.74.1c2.599.48 4.152 2.605 5.07 4.919 2.377-.678 4.992-.257 6.604 1.716 2.521 3.085 1.54 8.099.505 11.61-.445 1.514-1.01 3.11-1.745 4.495h-3.903Zm-9.433-3.466c1.351 1.223 3.053-.563 3.69-1.699 1.247-2.222 1.392-5.14 1.685-7.62-2.109 1.658-5.83 4.755-5.937 7.64-.02.51.18 1.333.563 1.68Z"/></svg>