<svg xmlns="http://www.w3.org/2000/svg" fill="none" viewBox="0 0 182 91"><path fill="#335C30" d="M3.391 41.242c-.156-.044-.161-.162-.014-.353l.639-2.732c.041-.177.18-.83.419-1.96.235-1.15.435-1.994.6-2.532.014-.066.072-.193.177-.379.123-.21.156-.364.1-.465-.083-.14-.08-.269.013-.389.091-.12.142-.223.152-.31.018-.842.29-2.126.814-3.852.065-.16.144-.536.238-1.13.115-.596.252-1.108.41-1.538.155-.451.35-.692.582-.723.127-.017.262.03.406.14.024.018.073.066.148.142.093.052.14.089.144.11a.96.96 0 0 0 .052.154c.054.08.052.144-.006.195-.084.183-.085.42-.003.71.046.188.033.416-.039.684-.05.265-.08.451-.087.56.045.338-.004.538-.147.6-.034.07-.04.188-.017.358.02.148.022.244.006.29 0 .322-.095.83-.283 1.521-.19.671-.297 1.17-.319 1.495.767-.058 1.31-.108 1.627-.15a7.679 7.679 0 0 0 1.098-.242c.102-.036.307-.116.613-.243.327-.13.585-.217.772-.264.127-.016.457-.125.99-.324.554-.202.919-.294 1.094-.274.267.072.462.079.583.02.041-.178.157-.28.347-.304.021-.003.17-.012.449-.027.299-.018.442-.07.431-.154.088.01.157.044.207.101.048.037.093.053.136.047l.228-.224c.113.2.18.3.2.296.022-.002.033-.08.035-.23-.001-.172.018-.271.057-.298.045.015.154.023.326.021.17-.022.292.016.37.113.05.058.07.12.057.186.005.042-.03.1-.106.175l-.174.152a1.76 1.76 0 0 0-.355.241l-.025-.19c-.124.038-.298.19-.521.456-.226.245-.46.351-.7.319-.22-.036-.53.059-.931.284-.4.225-.588.433-.563.623-.08.054-.165.054-.258.002-.096-.073-.185-.094-.267-.061.003.02.029.05.076.086.075.076.082.13.021.159-.19.025-.528.156-1.013.392-.485.236-.87.33-1.157.282-.021.003-.06.04-.114.112-.037.048-.145.127-.324.237-.18.11-.426.196-.74.26-.584.14-1.183.252-1.796.334-.783.103-1.256.263-1.422.478-.11.144-.16.258-.148.342a.584.584 0 0 1 .01.322l-.594 2.338c-.392 1.43-.618 2.244-.677 2.446-.031.09-.053.254-.064.492.01.236-.01.41-.06.525-.079.053-.136.19-.172.41a5.119 5.119 0 0 0-.003.71c.013.257.014.43.004.516-.116.425-.364.662-.745.712-.127.017-.271-.018-.433-.104-.19-.62-.287-1.027-.29-1.22a.604.604 0 0 1 .006-.195.31.31 0 0 0 .042-.167c-.006-.042-.043-.08-.112-.114Zm5.05-16.969c-.041-.317.217-.48.775-.49-.038-.124-.028-.211.03-.262a.524.524 0 0 1 .277-.101 2.06 2.06 0 0 0 .309-.105c.26-.143.89-.355 1.885-.637 1.016-.285 1.674-.437 1.973-.455.215-.007.551-.062 1.011-.166.457-.125.783-.179.98-.162.11.18.255.225.437.136.375-.092.825-.109 1.35-.05.174.02.428.073.762.158.332.064.52.104.565.12.23.442.237.732.018.868a2.73 2.73 0 0 1-1.999.265c-.108-.008-.182.002-.222.029-.04.027-.172.077-.4.15-.208.049-.45.092-.725.128a7.01 7.01 0 0 0-.658.151c-.335.066-.577.11-.725.129-.17.022-.287.027-.353.014-.07-.034-.078-.097-.026-.19.707-.029 1.118-.094 1.233-.195-.014-.106-.39-.11-1.13-.012-1.439.19-2.22.39-2.342.6.002.021.016.04.04.06.19-.026.733-.152 1.628-.378.117.071.044.167-.22.288-.427.185-.938.307-1.533.364-.13-.004-.284.048-.464.158-.181.089-.325.14-.431.154-.867.115-1.31.109-1.326-.018-.006-.043.01-.088.047-.136.123-.21.15-.331.08-.365-.05-.058-.179-.052-.384.018-.043.006-.067-.013-.072-.055l.046-.135a.136.136 0 0 0-.016-.127c-.043.006-.102.046-.178.12-.058.051-.105.1-.142.148-.018.024-.051.018-.1-.019ZM19.29 40.27a1.136 1.136 0 0 1-.49.194c-.318.042-.567-.054-.749-.289-.16-.237-.172-.569-.035-.996.093-.27.28-.65.56-1.139s.467-.858.563-1.107c.115-.274.298-.513.55-.719.274-.208.447-.37.517-.488.055-.072.08-.204.077-.397-.004-.193-.038-.286-.102-.277a.247.247 0 0 0-.09.044.357.357 0 0 1-.155.053.361.361 0 0 1-.144-.11c-.178-.213-.113-.534.196-.962.33-.431.653-.592.969-.483.342.148.503.385.481.71-.034.392.044.576.235.55.169-.022.397-.17.683-.445.076-.075.39-.224.941-.447.57-.248.92-.37 1.05-.365.111.028.27.093.477.195.226.078.382.122.47.132.328.042.825.138 1.49.287.687.146 1.281.25 1.785.312a5.26 5.26 0 0 0 1.326.019c.232-.031.46-.093.685-.188.16-.086.314-.224.461-.416.147-.191.29-.415.428-.67.16-.258.285-.446.377-.566.459-.599 1.217-.968 2.274-1.108.508-.067.888-.042 1.14.075.274.115.483.4.63.853.04.145.039.296-.005.453a1.15 1.15 0 0 1-.263.454 9.427 9.427 0 0 1-.425.444c-.135.125-.32.268-.557.428a34.6 34.6 0 0 0-.53.393c-.139.083-.328.194-.568.334-.24.139-.389.234-.447.285-.06.03-.223.105-.486.226a3.423 3.423 0 0 0-.665.346c-.179.11-.292.232-.338.367-.112.295.131.671.73 1.13.599.459 1.114.778 1.547.958.316.108.607.199.875.271.289.07.587.127.894.172.329.043.591.073.787.09.217.014.52.028.91.041.412.032.706.057.88.077.11.007.691-.07 1.746-.23 1.057-.14 1.616-.225 1.677-.255.018-.024.106-.014.262.03.178.041.285.038.322-.01-.009-.063-.058-.11-.148-.142.12-.059.266-.1.435-.122.106-.014.064.078-.125.275-.186.218-.283.381-.29.49.017.127-.11.23-.379.308-.245.097-.59.175-1.034.234-.42.077-.673.121-.757.132l-.523.199c-.366.156-.667.239-.903.248l-1.29.01c-.839.003-1.54-.012-2.104-.045-.543-.036-1.172-.157-1.888-.364-.713-.185-1.321-.47-1.824-.856-.287-.22-.601-.641-.942-1.263-.322-.646-.487-1.162-.495-1.549-.18-.062-.302-.089-.366-.08-.507.067-1.079.056-1.715-.032a23.31 23.31 0 0 1-2.031-.474c-.737-.203-1.26-.328-1.567-.373-.46-.069-1.342.425-2.645 1.48a7.331 7.331 0 0 0-.662.603c-.19.197-.373.437-.55.719-.157.279-.28.489-.37.63-.067.138-.201.424-.402.86-.18.432-.303.718-.371.856Zm13.213-6.751c-.418.421-.5.615-.246.581.148-.02.343-.088.586-.206.33-.109.448-.275.354-.5-.038-.123-.131-.175-.28-.156-.147.02-.286.113-.414.28Zm10.284 5.515c-.13-.004-.17-.064-.12-.178l.158-.02a.515.515 0 0 0-.048-.123c-.03-.061-.023-.094.019-.1.02-.003.056-.061.106-.175.073-.096.154-.139.24-.129.359.103.425.278.2.523a.693.693 0 0 1-.555.202Zm-4.314-4.368a1.799 1.799 0 0 1 .008-.42c.02-.176.025-.305.014-.39a.734.734 0 0 0-.093-.214 1.052 1.052 0 0 1-.106-.308c-.039-.297.234-.838.818-1.626.585-.787 1.077-1.38 1.476-1.777.152-.149.458-.361.916-.637.459-.276.768-.543.927-.8.212-.351.942-.61 2.19-.774.254-.034.516-.004.786.09.292.09.456.272.492.547.017.127-.113.284-.39.471-.254.185-.38.374-.376.567.008.063.076.087.203.07.233-.03.361.049.387.24.012.256-.213.587-.676.992-.466.385-.899.69-1.3.915-.139.083-.338.206-.596.37-.258.162-.489.29-.692.381a2.567 2.567 0 0 1-.717.192c-.17.022-.281-.092-.336-.343-.057-.272-.15-.4-.276-.383-.339.045-.637.31-.896.796-.261.465-.368.877-.32 1.237.067.507.329.86.785 1.058.475.174 1.02.22 1.633.14.169-.023.425-.036.77-.038a7.16 7.16 0 0 0 .864-.05c.656-.087 1.774-.665 3.354-1.735 1.6-1.072 2.433-1.613 2.497-1.621.169-.022.262.03.279.157.02.148-.106.422-.376.824-.272.38-.527.65-.764.811-.218.137-.568.42-1.05.85-.462.405-.9.753-1.314 1.044-.413.292-.789.46-1.127.505-.275.036-.719.18-1.331.434-.594.23-1.102.372-1.525.428-.973.128-1.806.013-2.5-.348-1.022-.575-1.569-1.126-1.638-1.655Zm3.605-3.737c.275-.036.587-.196.937-.479.347-.304.546-.589.597-.854a1.136 1.136 0 0 0-.524-.06c-.487.065-.823.529-1.01 1.393Zm17.22 2.887c-.128-.478-.067-.83.183-1.057.152-.15.278-.177.376-.082.072.055.128.069.167.042.04-.027.072-.03.096-.012.042-.006.057.024.044.09-.036.22.042.318.232.293.106-.014.122.026.049.122-.055.072-.14.159-.256.26.016.127.11.18.279.157.19-.025.309-.02.357.017.26.18.51.277.748.289.932.049 2.22-.305 3.863-1.06.081-.032.255-.099.522-.198.267-.1.49-.194.673-.283.179-.11.337-.217.474-.32.118-.081.16-.248.127-.502-.012-.257-.057-.434-.135-.53-.185-.105-.252-.204-.2-.297.037-.048-.066-.174-.309-.379-.242-.205-.405-.301-.49-.29-.098-.095-.32-.227-.665-.396-.346-.17-.552-.347-.62-.532a.405.405 0 0 0-.12-.177.405.405 0 0 0-.203-.07 1.042 1.042 0 0 1-.175-.106.44.44 0 0 1-.125-.21c-.038-.124-.1-.19-.188-.2-.097.076-.232.03-.405-.14l-1.15-.882c-.752-.481-1.322-.965-1.71-1.452-.39-.508-.636-1.153-.74-1.936a5.481 5.481 0 0 1 .14-2.116c.186-.714.537-1.233 1.053-1.56.35-.283.52-.456.512-.52-.156-.043-.177-.116-.06-.217.078-.054.132-.05.162.01a.16.16 0 0 1 .025.19c.087.01.127-.016.118-.08 0-.172-.036-.274-.105-.308-.048-.037-.1-.02-.154.052a.684.684 0 0 1-.142.148c-.04.027-.062.02-.068-.023-.017-.127.108-.326.373-.598.263-.293.473-.493.63-.6.038-.048.265-.197.684-.446.44-.252.671-.379.692-.382.436-.122.663-.195.681-.219a1.05 1.05 0 0 0 .106-.175c.034-.07.07-.128.106-.176a.394.394 0 0 1 .214-.093c.124-.037.284-.048.48-.03.214-.008.353-.015.416-.023-.02.174.07.28.269.32.132.025.2-.038.2-.189l-.008-.063c-.124.038-.208.049-.253.033-.027-.04.01-.087.11-.143.242-.119.416-.185.522-.199.529-.07 1.038.121 1.528.573.509.427.82.913.936 1.458.028.211.027.534-.001.968-.106.014-.232-.044-.379-.176-.146-.13-.293-.187-.441-.167-.136-.047-.246-.15-.332-.311-.02-.148-.155-.281-.408-.398-.255-.139-.393-.293-.416-.462-.254.034-.468-.12-.642-.463a.205.205 0 0 0-.18-.138 1.175 1.175 0 0 0-.361-.05c-.151 0-.248.001-.29.007-.175-.02-.29.006-.345.078-.034.069-.03.176.01.321.041.146.09.268.146.368.05.058.079.108.084.15-.228.224-.613.49-1.153.799-.543.287-.865.458-.965.515-.058.05-.152.149-.283.295-.11.144-.205.243-.284.296-.14.083-.254.195-.343.336-.092.12-.19.273-.294.459a4.49 4.49 0 0 1-.231.45 1.538 1.538 0 0 0-.136.437c-.02.175-.055.32-.104.434-.053.093-.155.128-.31.105.01.064.081.119.216.165a3.51 3.51 0 0 1-.127.501c-.054.244-.06.439-.02.584.19.62.336.988.437 1.104.182.234.834.772 1.956 1.614 1.144.838 1.914 1.371 2.31 1.598.138.068.452.328.942.78.509.427.815.71.92.846.38.596.654 1.044.823 1.344.184.256.239.668.163 1.237-.057.546-.24.871-.548.977-.04.026-.13.157-.272.39-.033.07-.23.128-.59.176-.079.053-.235.17-.47.352-.213.18-.39.3-.533.361-.14.083-.378.147-.717.192-.32.02-.562.064-.725.128-.892.42-1.686.675-2.384.767-.148.02-.225.009-.23-.034-.006-.042-.02-.062-.04-.059l-.096.013c-.073.096-.3.169-.681.219.004-.13.056-.223.157-.28a1.16 1.16 0 0 1 .38-.05.899.899 0 0 0 .408-.086l.183-.088c.081-.033.172-.077.272-.133.098-.078.154-.139.17-.184.034-.07.013-.142-.061-.218-.127.017-.369.06-.726.128a5.063 5.063 0 0 1-.702.06 1.772 1.772 0 0 0-.391.214c-.14.083-.272.144-.396.181a1.361 1.361 0 0 1-.412.055 1.507 1.507 0 0 1-.677-.233c-.212-.144-.29-.317-.23-.519-.31-.389-.482-.635-.517-.738Zm6.595-15.785c-.083-.14-.103-.213-.061-.218l.163.01.088.183-.19.025Zm6.664 12.191c-.155-.517-.159-1.442-.012-2.774.017-.519.154-1.193.41-2.023.277-.833.575-1.508.895-2.023.233-.354.522-1.016.867-1.987.366-.974.674-1.65.926-2.027.238-.311.562-.957.97-1.936.409-.98.764-1.629 1.066-1.949.018-.023.17-.011.457.037.13.004.191-.015.186-.057a.528.528 0 0 0-.053-.154.52.52 0 0 0-.256-.225 5.038 5.038 0 0 0-.243-.129c-.069-.034-.086-.085-.052-.155.034-.069.117-.09.25-.065a.502.502 0 0 0 .34-.11c.076-.074.067-.223-.027-.448a1.197 1.197 0 0 1-.025-.674c.146-.364.43-.574.853-.63.212-.027.386-.008.524.06.139.068.205.167.2.296-.006.109-.039.189-.097.24-.04.026-.124.037-.253.033a2.456 2.456 0 0 0-.227-.003.398.398 0 0 0-.268.165c-.157.28-.175.712-.055 1.299.07.205.096.396.076.57-.002.151-.1.38-.297.685-.214.33-.453.803-.716 1.419-.242.613-.484 1.14-.727 1.58-.172.325-.405.926-.698 1.804-.274.854-.568 1.56-.882 2.117-.104.186-.26.637-.466 1.353a8.04 8.04 0 0 1-.721 1.871c-.105.186-.224.75-.357 1.694-.115.919-.145 1.503-.09 1.755.864-.136 1.928-.47 3.191-1.004.122-.059.363-.188.724-.386.358-.22.67-.38.937-.479.285-.124.557-.181.817-.172 1.037.034 1.642.213 1.813.534.027.04.222.294.585.762.382.445.608.77.678.976.079.269.26.74.542 1.413.283.673.461 1.208.535 1.607.034.254.074.475.12.662.047.188.106.395.18.622.096.246.227.422.392.53.186.104.394.13.624.078.106-.014.496-.151 1.172-.413.145-.04.237-.16.275-.36.062-.18.142-.308.24-.386.076-.075.135-.115.177-.12.021-.003.052.068.093.213.062.143.177.203.347.18.042-.005.082-.032.118-.08.04-.026.066-.073.079-.14l.046-.134.083-.108c.042-.006.087.01.135.047.12.091.19.222.213.39.025.191.001.334-.072.43-.037.048-.08.054-.127.017a.348.348 0 0 1-.08-.119.285.285 0 0 0-.049-.122c-.024-.019-.054-.004-.09.044a.308.308 0 0 1-.142.148.571.571 0 0 0-.138.18c-.013.066-.02.174-.022.325-.01.087-.092.195-.247.323-.134.126-.3.255-.498.389a4.822 4.822 0 0 0-.383.277c-.37.285-.757.455-1.16.508-.95.126-1.624-.248-2.02-1.12-.204-.404-.684-1.675-1.44-3.813-.216-.66-.449-1.2-.698-1.618a3.985 3.985 0 0 0-.156-.206 1.078 1.078 0 0 0-.193-.232.504.504 0 0 0-.152-.174.483.483 0 0 0-.183-.17.344.344 0 0 0-.2-.038c-.171.002-.42.078-.744.228a7.17 7.17 0 0 1-.518.23c-.451.167-1.118.492-2.001.975-.883.482-1.606.793-2.169.932-.314.063-.667.002-1.057-.183a1.41 1.41 0 0 0-.505-.159c-.178-.04-.293-.1-.347-.18-.056-.1-.13-.338-.223-.713Zm16.407 1.477c-.21-.445-.327-.688-.354-.727-.008-.064.021-.326.09-.787.108-.316.25-.797.422-1.444.194-.65.367-1.21.52-1.682.17-.496.36-.941.566-1.334.15-.321.239-.634.263-.939.042-.328.033-.564-.029-.706a.744.744 0 0 1-.019-.385c.016-.045.023-.153.022-.325.017-.197.062-.342.136-.438a.576.576 0 0 1 .414-.28.915.915 0 0 1 .497.095c.09.03.16.065.207.102.048.036.075.076.08.118.027.04.044.08.05.123a.523.523 0 0 1-.016.13l.025.191c.009.064.052.069.131.015.019-.024.038-.037.06-.04l.063-.009c.024.019.031.072.021.16a.755.755 0 0 1-.053.329.468.468 0 0 1-.13.243c-.036.048-.03.1.022.159.072.055.1.105.084.15a.361.361 0 0 1-.11.144.5.5 0 0 0-.114.111.503.503 0 0 0-.115.113l-.082.107a.246.246 0 0 0 .044.091c.024.018.056.014.095-.012a.246.246 0 0 1 .091-.045c.04-.026.062-.019.068.024.03.232.022.492-.026.778a2.88 2.88 0 0 1-.198.704c-.065.159-.171.41-.32.752-.127.34-.215.567-.265.68-.192.5-.304.956-.335 1.369l-.44 1.317a2.1 2.1 0 0 0-.095.496 9.4 9.4 0 0 0-.032.489.816.816 0 0 1-.14.406.882.882 0 0 1-.335.4c-.118.08-.264.034-.438-.137a1.774 1.774 0 0 1-.325-.506Zm5.825-18.684c-.112-.029-.173-.085-.184-.17a.786.786 0 0 1 .025-.294c.026-.132.036-.22.03-.262-.216-.983-.104-1.686.335-2.11.173-.152.355-.24.545-.266.127-.017.303.014.529.092.138.067.342.148.613.241.268.073.447.124.537.155.135.047.232.13.291.252.06.122.113.2.16.237.253.118.323.323.212.618-.05.114-.106.175-.17.184-.042.005-.146-.046-.31-.153-.165-.107-.288-.145-.37-.112-.043.005-.07.041-.083.107.006.043-.025.058-.09.045-.046-.016-.097-.074-.153-.174-.056-.1-.118-.156-.184-.17a.311.311 0 0 0-.15.085.136.136 0 0 1-.127.017.401.401 0 0 1-.116-.146c-.032-.082-.029-.136.01-.163a.283.283 0 0 1 .132.015c.042-.005.075 0 .1.02.023.018.044.015.063-.01.036-.047.036-.133-.002-.257-.017-.127-.058-.197-.125-.21-.069-.034-.128.007-.178.12-.049.115-.095.175-.137.18a.285.285 0 0 1-.131-.015l-.08-.118-.08-.119c-.027-.04-.062-.056-.104-.05-.021.002-.049.038-.083.107-.165.216-.204.329-.117.338L95.62 11c.106-.014.171-.012.195.007.165.107.224.228.177.364a.498.498 0 0 1-.22.287l-.49.194a.679.679 0 0 0-.331.431.741.741 0 0 1-.117.338c-.018.024-.008.098.03.222.059.122.057.186-.007.195-.021.003-.043-.005-.067-.024Zm.612.725a.286.286 0 0 1-.211-.133c-.035-.103-.003-.183.097-.239.176-.13.277-.101.302.09-.062.18-.125.274-.188.282Zm.222-.029a.373.373 0 0 0 .05-.104l.084-.107c.118-.08.187-.047.207.101.014.106-.1.143-.34.11Zm-2.892 27.368c-.677.09-1.154-.02-1.432-.328-.2-.21-.104-.46.289-.748.15-.17.142-.385-.02-.643-.161-.237-.263-.6-.306-1.089-.044-.49.094-.916.411-1.281a3.52 3.52 0 0 1 .229-.224 2.77 2.77 0 0 0 .256-.26l.193-.251a.975.975 0 0 0 .18-.347c.01-.087.008-.184-.006-.29-.084-.634.278-2.285 1.088-4.953.015-.045.153-.225.412-.539.281-.317.41-.57.384-.76-.02-.149.187-.456.62-.922.431-.487.635-.816.613-.985-.081-.613.286-1.167 1.103-1.663.037-.048.216-.319.538-.813.34-.519.602-.898.786-1.137.202-.264.47-.6.802-1.01.33-.431.642-.763.934-.995.289-.253.557-.429.802-.526.164-.064.432-.315.804-.752.37-.457.777-.716 1.221-.775.254-.033.502-.195.743-.485s.373-.437.394-.44c.232-.03.545-.19.937-.479.389-.31.711-.481.965-.515.911-.27 1.419-.413 1.525-.427a1.57 1.57 0 0 1 1.205.325c.168.128.455.51.861 1.145.428.954.432 2.127.014 3.516.008.064-.072.192-.24.387-.149.17-.217.308-.203.414.022.17-.092.443-.343.82-.231.375-.359.629-.384.761-.067.31-.231.612-.494.905-.265.271-.46.502-.586.69-.126.19-.102.369.071.54.104.137.209.198.315.184.085-.011.157-.117.216-.319.078-.226.161-.495.248-.808.088-.312.186-.551.293-.716.128-.168.535-.673 1.22-1.517.681-.865 1.18-1.566 1.497-2.103.161-.085.287-.102.38-.05.112.028.218-.061.32-.268.175-.303.316-.462.421-.476a.57.57 0 0 0 .273-.133c.075-.246.248-.484.519-.714.289-.253.55-.395.783-.426.127-.017.259-.153.398-.408.136-.276.225-.417.267-.422a.514.514 0 0 1 .23.034c.109.007.205.005.29-.006a.305.305 0 0 0 .209-.125l.083-.108c.034-.069.09-.13.169-.183.077-.075.149-.095.218-.061.159.065.345.083.556.055a3.93 3.93 0 0 0 .595-.143c.269-.079.457-.125.562-.14l.349-.045c.124-.038.208-.06.25-.066.039-.026.092-.033.159-.02.063-.009.096-.003.099.019.021-.003.07.044.148.141.074.077.138.154.192.233l.281.415c.133.197.278.394.433.588.225.4.368.748.428 1.041.06.294.011.655-.147 1.085-.14.406-.299.75-.477 1.031-.157.28-.349.617-.576 1.013-.228.396-.399.73-.513 1.003-.034.07-.131.147-.292.233-.143.062-.266.186-.371.372-.07.116-.19.272-.357.466-.168.195-.271.316-.307.364-.15.17-.372.447-.665.83-.273.38-.523.683-.752.907-.207.22-.417.345-.628.373a.68.68 0 0 1-.466-.1c-.162-.086-.136-.218.077-.397l.631-.6c.228-.224.268-.412.119-.564-.12-.092-.212-.134-.275-.125-.211.027-.495.41-.849 1.145-.355.735-.622 1.158-.801 1.268-.221.115-.378.233-.47.352-.07.117-.232.192-.486.226l-.254.034-.055.072c-.018.023-.031.09-.038.198a1.756 1.756 0 0 1-.054.33 1.815 1.815 0 0 1-.554.203c-.042.005-.082.032-.118.08-.037.048-.048.124-.034.23-.063.503-.166.861-.31 1.074a2.023 2.023 0 0 0-.703.545l-.203.414a4.077 4.077 0 0 1-.199.446c-.034.07-.013.152.065.25.101.115.1.19-.003.226-.419.25-.65.452-.694.608-.044.157-.085.496-.123 1.017-.039.522-.118.898-.239 1.13-.096.249-.279.327-.55.233-.093-.052-.188.036-.287.264-.078.226-.109.402-.092.529s-.005.205-.066.235c-.036.047-.108.078-.213.093a.287.287 0 0 0-.17.183c-.083.183-.12.393-.11.628.009.236-.012.4-.064.493-.05.114-.18.185-.392.213-.105.014-.204.08-.296.2a.52.52 0 0 0-.108.402.486.486 0 0 1-.14.406c-.11.144-.273.294-.489.452a2.442 2.442 0 0 0-.421.476c.055.422-.164.796-.659 1.12-.034.069-.163.15-.388.244a1.198 1.198 0 0 0-.501.357c-.073.096-.142.148-.205.157-.106.014-.205-.081-.296-.284a3.771 3.771 0 0 1-.236-.808l-.13-.984-.058-.928c-.018-.299-.03-.47-.036-.512.249-.721.437-1.09.564-1.107.238.011.357.426.358 1.243l-.031 1.231c.075.076.133.112.176.106.042-.005.08-.043.114-.112a.737.737 0 0 0 .121-.306c.028-.112.046-.222.053-.33.028-.111.054-.244.076-.398l.058-.298c.113-.122.233-.353.36-.693.151-.321.3-.578.447-.77.147-.19.321-.257.523-.197.108.007.201-.102.279-.328.081-.204.112-.37.096-.497-.02-.148.077-.311.29-.49.234-.182.34-.357.318-.526l-.034-.254a.397.397 0 0 1 .051-.104l.063-.008a.31.31 0 0 0 .151-.084c.06-.03.117-.091.169-.184.104-.186.16-.42.166-.7.03-.262.175-.464.436-.606-.158-.216-.118-.404.119-.565.258-.163.418-.335.48-.515.013-.067.114-.36.304-.88.213-.501.353-.907.42-1.217a1.3 1.3 0 0 0 .036-.457c.007-.109-.013-.181-.061-.218a1.59 1.59 0 0 0-.188-.201 1.628 1.628 0 0 1-.228-.26c.055-.072.175-.142.36-.21.187-.046.307-.115.359-.208.074-.096.051-.265-.067-.508l-.125.275a.344.344 0 0 1-.313.074c-.135-.047-.146-.207-.031-.48.114-.274.072-.516-.128-.726-.075-.076-.197.058-.367.404a15.93 15.93 0 0 0-.432 1.122c-.122.382-.172.572-.151.569.402-.053.417.063.046.349-.881.654-1.359 1.03-1.432 1.125a.803.803 0 0 0-.166.216c-.326.624-.565 1.42-.717 2.386-.02.175-.22.61-.602 1.307-.381.696-.547 1.234-.496 1.615.022.169.03.308.023.416a.454.454 0 0 1-.066.235.63.63 0 0 1-.13.243 2.25 2.25 0 0 0-.116.338c-.065.16-.17.098-.315-.184-.238-.334-.273-.846-.106-1.535.167-.69.242-1.098.225-1.224-.042-.318.146-.934.562-1.85.139-.255.361-.769.668-1.541.331-.754.551-1.203.661-1.346.037-.048.13-.319.28-.812l.253-.776c.031-.09.124-.2.279-.327.155-.129.279-.253.371-.372.089-.141.082-.27-.019-.385-.077-.097-.161-.076-.25.065-.07.117-.188.283-.353.499-.144.213-.322.333-.533.36-.17.023-.399.323-.689.899-.268.573-.46.91-.576 1.012-1.69.89-2.968 1.393-3.835 1.508-.275.037-.482.02-.62-.047-.114-.05-.163-.172-.145-.368.014-.217.219-.298.613-.243.133.026.195.007.186-.056-.002-.022-.016-.041-.04-.06a.576.576 0 0 0-.621-.305c-.317.042-.617.222-.897.538-.278.338-.396.666-.354.983.02.148-.06.363-.238.645a7.602 7.602 0 0 1-.601.822l-.386.503c-.037.048-.039.113-.006.194.056.1.096.16.12.178.027.04.01.074-.05.104a.516.516 0 0 0-.388.245c-.068.138-.14.32-.219.545a1.469 1.469 0 0 1-.245.581 7.07 7.07 0 0 0-.27.165c-.017.024-.01.077.022.159a.866.866 0 0 1 .057.186l-1.008 1.65c-.074.096-.282.392-.625.89-.34.518-.643.913-.909 1.185-.286.275-.577.431-.873.47Zm.236-5.777c.056.423-.087 1.216-.427 2.38-.342 1.165-.416 1.906-.223 2.225.035.103.085.15.148.142.064-.009.133-.136.208-.383.078-.225.151-.483.22-.772.07-.288.141-.48.215-.577.055-.072.157-.193.307-.363.13-.147.221-.277.27-.39a.575.575 0 0 0 .05-.363c-.02-.148.12-.306.421-.475.3-.169.434-.38.4-.634-.02-.148.051-.265.212-.35.164-.065.294-.136.392-.214.12-.059.13-.146.03-.262-.075-.076.357-1.199 1.297-3.367.031-.09.08-.204.149-.343a.976.976 0 0 0 .18-.346c.028-.112.032-.241.013-.39-.04-.295-.042-.478-.008-.547.034-.069.193-.165.478-.29.044-.156.225-.416.542-.781.315-.386.461-.663.439-.833-.048-.36.063-.664.33-.915.269-.25.595-.39.978-.42.405-.032.441.404.109 1.31-.429 1.153-.625 1.868-.588 2.143.007.214.09.364.253.45.162.087.314.013.455-.221.165-.215.332-.334.501-.357.106-.014.257-.012.453.005.217.014.368.016.452.005a.479.479 0 0 0 .333-.173c.073-.096.173-.239.298-.427l.358-.467a6.69 6.69 0 0 1 .335-.4c.152-.149.306-.288.461-.416a2.53 2.53 0 0 1 .506-.325c.319-.193.666-.572 1.043-1.139.375-.587.67-.96.886-1.117.613-.404.909-.69.886-.86a1.637 1.637 0 0 0-.073-.313c-.024-.018-.006-.042.055-.072l.237-.16c.367-.48.619-.932.756-1.36.174-.474.297-.845.369-1.113.091-.292.174-.637.251-1.034.095-.421.112-.779.052-1.072a1.424 1.424 0 0 0-.427-.783 1.21 1.21 0 0 0-1.046-.346c-.381.05-.807.247-1.278.589-.45.34-.971.795-1.562 1.369-.594.552-.997.917-1.211 1.096-.381.373-.687.575-.92.606-.169.022-.418.26-.745.712-.33.43-.697.673-1.098.726a.217.217 0 0 0-.15.084 3.354 3.354 0 0 0-.066.235.803.803 0 0 1-.189.283 2.859 2.859 0 0 1-.315.3c-.1.056-.17.098-.21.125-.042.005-.09.044-.146.116a2.729 2.729 0 0 0-.212.35c-.347.627-.993 1.52-1.937 2.678-.074.096-.165.301-.274.617l-.303.88-.108.401c-.058.05-.146.116-.265.196l-.237.16c-.04.027-.097.078-.173.153a.745.745 0 0 0-.174.152.683.683 0 0 1-.106.175c-.034.07-.066.149-.097.24-.01.087-.028.197-.054.329-.024.305-.196.715-.515 1.23-.295.534-.419.98-.371 1.34.011.085-.12.318-.392.698-.294.383-.436.606-.428.67Zm17.391-10.306c-.296.04-.672.455-1.126 1.247-.437.768-.523 1.252-.26 1.454.048.037.066.175.055.413a9.086 9.086 0 0 0-.024.552c-.005.13.038.21.129.24.222.058.54-.221.954-.835.411-.636.811-1.356 1.199-2.16.407-.829.647-1.291.721-1.387.199-.284.362-.435.489-.452a.513.513 0 0 1 .23.034.49.49 0 0 0 .199.039c.084-.012.18-.1.288-.265a.356.356 0 0 0 .01-.162c-.008-.064.014-.142.066-.235.052-.093.153-.225.303-.395.113-.123.138-.18.074-.171a2.24 2.24 0 0 0-.368.145 3.297 3.297 0 0 1-.459.19c-.103.035-.18.024-.23-.034-.068-.508.311-.816 1.136-.925.233-.03.394-.117.482-.258.087-.162.14-.244.161-.247.064-.008.155.034.275.125-.052.416-.193.897-.422 1.444-.211.523-.458.932-.742 1.228-.036.048-.007.109.089.182.093.052.022.17-.212.35-.234.182-.382.525-.445 1.028-.044.48-.074.741-.089.787.253-.034.602-.328 1.045-.881.462-.578.703-.868.724-.87.127-.017.368-.146.724-.387.355-.24.579-.42.671-.54a.915.915 0 0 1 .489-.452c.221-.116.362-.188.423-.218.06-.03.041-.178-.059-.444a.394.394 0 0 1-.029-.222c.01-.087.047-.21.112-.37.083-.183.159-.344.227-.482.065-.16.156-.365.273-.617.136-.276.245-.506.329-.69.145-.363.137-.674-.027-.932-.142-.26-.372-.37-.689-.328-.148.02-.301.083-.459.19-.376.243-.85.403-1.421.478l-.413.539c-.098.077-.348.218-.751.422a2.868 2.868 0 0 0-1.054.817 2.17 2.17 0 0 0-.235.419 2.825 2.825 0 0 1-.212.35 2.81 2.81 0 0 1-.265.197c-.1.056-.245.097-.436.122-.042.006-.246.334-.612.985-.368.63-.648.957-.838.982ZM99.861 26.9c-.254.034-.42.002-.497-.095-.056-.1-.104-.299-.143-.595-.09-.677-.029-1.029.183-1.057.148-.02.316.109.503.386.208.273.321.56.339.858.018.3-.11.467-.385.503Zm4.991 1.858c.38-.05.926-.887 1.637-2.508.052-.093.187-.294.404-.603.555-.848.683-1.263.384-1.245-.274.037-.493.334-.656.894-.144.535-.262.863-.354.983a8.804 8.804 0 0 1-.307.363c-.15.17-.28.328-.39.471-.092.12-.132.222-.121.307.02.148-.062.342-.246.581a1.8 1.8 0 0 0-.351.757Zm18.623-2.496c-.951.126-1.62-.044-2.004-.51-.366-.489-.386-1.132-.061-1.928.465-1.202.95-1.923 1.457-2.162.158-.107.254-.356.288-.748.032-.413.116-.672.253-.776.057-.05.187-.132.387-.245.197-.133.331-.259.402-.376.068-.138.088-.313.06-.524-.006-.042-.085-.15-.237-.324-.131-.176-.169-.3-.114-.372a.781.781 0 0 1 .542-.298c.275-.036.435.115.48.453.095.72-.053 1.47-.445 2.254a7.24 7.24 0 0 1-.303.88c-.148.342-.327.7-.536 1.071a8.53 8.53 0 0 0-.329.689c-.554 1.343-.509 1.843.134 1.5.019-.024.038-.038.059-.04.18-.11.451-.254.815-.431.382-.201.704-.373.965-.515.261-.142.437-.273.529-.393.092-.12.32-.268.683-.445.385-.18.772-.35 1.16-.509.406-.183.639-.289.7-.318.221-.116.698-.254 1.43-.416.75-.185 1.299-.43 1.646-.734.405-.355 1.082-.767 2.031-1.237.949-.47 1.678-.738 2.185-.805.339-.045.521.028.546.218.005.043-.039.113-.134.212-.097.077-.143.137-.137.18.005.041.029.06.072.054a.251.251 0 0 0 .091-.044.304.304 0 0 1 .15-.085c.127-.016.204.081.232.293.034.253-.024.551-.172.894-.034.069-.152.235-.354.498-.181.261-.277.51-.288.749.083.14.465.1 1.146-.12.7-.243 1.081-.369 1.144-.377a.347.347 0 0 1 .267.062c.069.034.098.094.088.182-.007.108-.086.237-.239.386-.155.128-.231.203-.228.224.005.043.114.05.325.022.212-.028.36-.123.447-.285.086-.162.146-.44.18-.831.032-.413.054-.653.067-.719.338-.045.843-.208 1.516-.491.67-.304 1.217-.484 1.64-.54.38-.05.827-.25 1.341-.597.535-.35.893-.57 1.075-.658.936-.404 1.804-.594 2.604-.57.389.012.87.153 1.443.422.595.265 1.014.425 1.258.479 1.906.415 3.979.474 6.221.178a4.7 4.7 0 0 0 .341-.11c.206-.07.325-.065.357.017.162.086.33.053.503-.099.174-.152.348-.218.523-.198.509.105.844.114 1.004.029.082-.033.211-.114.388-.245.194-.155.387-.245.577-.27.402-.053.678-.165.827-.336.171-.173.263-.454.276-.843-.061-1.111.183-2.036.73-2.776.181-.26.509-.465.984-.614.497-.152.82-.313.969-.483.15-.17.383-.202.698-.093.114.05.281.006.499-.13.24-.14.402-.215.487-.226a.814.814 0 0 1 .489.032c.198.038.367.091.505.16.159.064.344.158.553.281l.415.204c.931.371 1.45.959 1.556 1.763.04.296-.071.6-.33.915-.26.314-.567.516-.921.606a5.903 5.903 0 0 0-2.124 1.023c-.176.131-.666.336-1.468.614-.784.255-1.258.575-1.422.963-.047.135.025.438.217.907.209.446.32.711.331.796.028.211.17.472.426.783.253.289.41.494.469.615.035.103.146.454.333 1.054.208.596.414 1.096.618 1.5.204.403.42.654.648.753.159.065.252.117.279.157.051.058.053.154.006.29a1.442 1.442 0 0 0-.08.366c-.022.325-.013.636.026.932.119.415.227.982.322 1.7.268 2.03.373 3.394.315 4.09-.044.48-.123.942-.236 1.388-.09.463-.25 1.044-.48 1.742a54.033 54.033 0 0 0-.435 1.348c-.501 1.745-1.355 3.343-2.562 4.793-.516.65-1.319 1.25-2.408 1.804-1.068.55-2.056.885-2.966 1.005-1.078.143-1.694-.12-1.847-.788a5.344 5.344 0 0 0 1.719.063c.275-.036.469-.116.582-.238.113-.123.113-.284 0-.485-.139-.24-.697-.23-1.674.028a1.003 1.003 0 0 0-.301.169c-.094.099-.152.15-.173.152-.222.115-.412.14-.571.076-.139-.068-.259-.246-.361-.534-.079-.269-.143-.508-.192-.717l-.118-.888a4.446 4.446 0 0 0-.012-.095c-.014-.106.013-.303.083-.592.072-.268.096-.497.07-.687-.025-.19.066-.396.274-.617.228-.224.291-.405.186-.542-.091-.203-.133-.359-.126-.467a1.34 1.34 0 0 1 .136-.438c.083-.183.131-.308.144-.374.02-.175.055-.32.104-.433a7.29 7.29 0 0 1 .125-.275c.055-.072.118-.166.189-.283.094-.099.166-.205.216-.32.07-.116.148-.342.233-.676.106-.337.276-.596.51-.777.195-.155.401-.387.619-.695.217-.309.364-.5.44-.575.092-.12.232-.364.42-.733.209-.372.412-.625.609-.759l.762-.585c.074-.096.129-.243.168-.442a.973.973 0 0 1 .231-.45c.094-.098.269-.326.523-.682.257-.336.49-.603.7-.803.235-.182.472-.256.713-.224.083-.678.295-1.19.636-1.536.077-.075.231-.128.464-.158.021-.003.086-.076.196-.22.132-.146.229-.224.293-.232.063-.009.115.06.156.205.043.166.055.337.035.512-.017.196-.065.32-.144.374-.118.08-.285.124-.499.13-.214.007-.349.047-.404.118a.418.418 0 0 0-.165.216 3.908 3.908 0 0 0-.077.397 1.224 1.224 0 0 1-.085.334c-.109.316-.414.776-.915 1.38-.058.051-.139.17-.243.355-.102.207-.202.35-.299.427-.061.03-.132.06-.214.093l-.177.12a.35.35 0 0 0-.11.144.396.396 0 0 0-.035.23c.037.275.001.495-.106.66a2.533 2.533 0 0 1-.472.579 3.883 3.883 0 0 0-.445.543c-.776 1.286-1.343 2.125-1.7 2.517-.281.317-.434.541-.46.674a.489.489 0 0 1-.216.319.669.669 0 0 0-.18.346c-.041.178-.179.272-.415.281-.233.031-.419.088-.558.171-.521.456-.65.785-.386.987.072.055.198-.047.379-.308.201-.264.362-.35.482-.258.182.235.273.438.274.61.023.169.003.43-.058.782-.039.35-.048.609-.026.778l.16 1.206a.44.44 0 0 1-.085.334.613.613 0 0 0-.054.33c.451.155.931.2 1.438.132a4.308 4.308 0 0 0 2.169-.932c.097-.078.235-.171.415-.281.2-.113.347-.218.442-.317.118-.08.24-.215.366-.403.089-.141.418-.583.987-1.325.572-.721.952-1.342 1.142-1.862.046-.135.182-.411.406-.829.249-.398.391-.708.426-.927.029-.112.059-.374.09-.787.053-.416.106-.745.16-.99a2.14 2.14 0 0 1 .108-.401c.086-.162.125-.275.117-.338-.054-.402-.052-.714.005-.937.074-.419.06-1.009-.041-1.77-.03-.233-.033-.577-.007-1.032.05-.437.059-.772.029-1.004-.031-.233-.161-.56-.388-.982-.204-.403-.323-.732-.357-.986-.014-.105.012-.238.077-.397.068-.138.075-.247.021-.326-.204-.403-.473-1.056-.808-1.959-.331-.881-.611-1.533-.839-1.955-.083-.14-.23-.518-.441-1.136-.214-.638-.444-1.081-.692-1.328-.251-.268-.581-.322-.99-.16-.981.388-2.096.665-3.344.83-1.332.176-2.879.198-4.639.065-1.743-.157-3.213-.458-4.413-.902a4.223 4.223 0 0 0-2.065-.243c-.148.02-.321.096-.519.23a1.24 1.24 0 0 1-.459.19c-.232.03-.405.107-.518.23-.092.12-.243.194-.455.222-.613.08-1.112.211-1.497.391a7.218 7.218 0 0 0-1.202.676c-.416.27-.817.495-1.202.675-.161.086-.382.287-.663.604-.259.314-.505.487-.738.517-.212.029-.566.118-1.062.27a9.607 9.607 0 0 1-1.161.25c-.465.062-.875-.024-1.228-.257-.336-.257-.534-.618-.596-1.083-.036-.275-.105-.47-.206-.586-.081-.118-.175-.181-.283-.188-.088-.01-.248 0-.48.03-.17.023-.655.26-1.456.71-.78.447-1.231.7-1.352.76-.103.035-.52.219-1.25.552-.713.31-1.242.541-1.587.694-.325.15-.748.368-1.27.652-.503.26-.901.507-1.193.74-.545.437-1.092.692-1.642.765Zm38.907-10.407c-.219.459-.289.823-.21 1.093.097.245.389.26.877.045.185-.067.384-.19.597-.37.21-.2.355-.326.434-.38.079-.053.247-.086.503-.098.257-.013.454-.071.591-.175 1.076-.487 1.701-.968 1.875-1.443-1.231-.353-2.026-.506-2.385-.459-.169.022-.487.14-.954.352-.47.191-.752.336-.846.435-.135.125-.295.458-.482 1Zm-32.14-7.499c-.518-.986-.259-1.547.778-1.684.888-.118 1.718-.023 2.49.284.367.166.26.417-.32.752-.358.22-.696.35-1.013.392-.106.014-.308.116-.605.306-.298.19-.521.295-.669.315-.254.033-.474-.088-.661-.365Zm36.484 15.93c-.337-.106-.392-.357-.165-.753.231-.375.502-.518.815-.43.268.072.351.297.251.676-.057.223-.22.374-.489.452-.245.097-.383.115-.412.055Zm-7.127 8.108c-.482-.065-.803.031-.962.29-.071.116-.046.22.073.312.192.147.362.21.51.191.317-.042.444-.306.379-.793Zm3.171-18.98a.841.841 0 0 1 .181.396.522.522 0 0 1-.025.294.291.291 0 0 0 .025.19c.048.037.148.067.302.09.241.032.396-.02.463-.158a.478.478 0 0 0 .009-.421 1.073 1.073 0 0 0-.209-.36c-.122-.113-.351-.136-.687-.07-.063.008-.083.021-.059.04Zm2.396-.187c-.134.125-.164.226-.089.302.024.019.037.038.04.06.021-.003.034.016.04.059a.378.378 0 0 1 .076.087c.163.258.33.376.499.353.19-.025.267-.175.231-.45-.025-.19-.142-.336-.349-.438-.207-.102-.356-.093-.448.027Zm-25.362 7.39c-.058.05-.137.104-.237.16a1.99 1.99 0 0 0-.205.156.806.806 0 0 0-.178.12.218.218 0 0 0-.043.168c.027.039.076.086.148.141.048.037.172 0 .373-.113.221-.116.419-.25.592-.402.195-.155.267-.26.216-.319-.134-.197-.356-.168-.666.088Zm26.041 4.334c-.128-.155-.104-.298.072-.43.256-.184.412-.14.47.133.055.25 0 .408-.164.473-.105.014-.231-.045-.378-.176Zm-34.97-17.42a3.301 3.301 0 0 0-.149.342l-.029.262c.008.063.035.103.08.118.045.016.11.018.194.007.23-.052.452-.243.667-.572.065-.16.054-.244-.034-.254l-.729.096Zm37.009 15.02c-.014-.106.043-.167.169-.184.148-.02.317.034.506.16.188.125.197.274.027.448-.116.101-.258.087-.425-.041-.165-.107-.257-.235-.277-.383Zm-9.502 10.65c.003.021-.052.093-.165.215-.089.141-.13.233-.125.275.027.04.062.143.106.309.128.155.27.093.427-.186.086-.162.121-.306.104-.433a.303.303 0 0 0-.16-.237c-.072-.055-.134-.036-.187.057Zm6.12 2.58c-.414.291-.465.556-.153.795.071.055.138.068.198.038.085-.011.14-.083.165-.215a.799.799 0 0 0 .041-.425c-.014-.106-.045-.177-.093-.214-.048-.037-.101-.03-.158.02Zm-3.235 5.56c-.154.3-.129.49.075.571.136.047.217.014.246-.097.031-.09.03-.262-.004-.516-.011-.085-.039-.135-.084-.15a.279.279 0 0 0-.123.048l-.11.144Zm7.99-19.391c-.148.02-.258.002-.33-.053-.05-.058-.018-.138.098-.24.097-.077.207-.059.33.054.125.134.092.214-.098.239Z"/><path fill="#335C30" d="M21.206 74.597c-.43-.008-.866-.209-1.306-.602-.42-.418-.592-.815-.512-1.192a4.18 4.18 0 0 0 .055-.556c.009-.259.035-.467.08-.623.04-.178.102-.358.186-.541.12-.231.344-.573.671-1.025.328-.453.541-.793.64-1.021a1.63 1.63 0 0 1 .33-.431c.171-.173.364-.339.58-.496.216-.158.362-.274.438-.349.466-.384.783-.588.953-.61a.346.346 0 0 1 .266.062c.146.13.1.352-.138.663-.22.288-.305.46-.255.518.129.155.235.227.32.216.105-.014.22-.287.343-.82.144-.535.322-.817.534-.845.169-.022.39.024.664.138.273.115.462.165.568.15.553-.05 1.098-.403 1.636-1.055.262-.293.669-.476 1.218-.548a2.542 2.542 0 0 1 1.108.08c.334.084.517.243.548.475.09.677.076 1.228-.04 1.652-.142.557-.304.955-.488 1.194-.162.237-.401.462-.717.676-.298.19-.56.408-.786.653-.112.122-.347.304-.702.544-.358.22-.599.435-.722.645-.175.303-.603.725-1.285 1.267-.684.521-1.21.849-1.58.984-.124.038-.273.133-.447.285-.152.15-.29.243-.415.28-.412.141-.993.218-1.745.232Zm.686-4.094c-.775.813-1.127 1.484-1.058 2.012.06.445.29.64.691.587.275-.037.648-.15 1.117-.342.491-.194.813-.365.965-.515.17-.173.502-.432.995-.777.51-.368.824-.604.94-.705.057-.05.104-.1.141-.148a.95.95 0 0 0 .114-.112l.055-.072c.019-.024.039-.037.06-.04.02-.003.177.117.467.358.12.092.2.135.243.13.105-.015.158-.108.157-.28.02-.174-.027-.362-.14-.562-.112-.2-.247-.323-.403-.367-.133-.025-.32-.226-.564-.603-.243-.376-.458-.617-.644-.721a.678.678 0 0 0-.465-.1c-.148.02-.356.154-.624.405-.271.23-.491.355-.66.378-.191.025-.372.124-.542.297-.171.174-.336.39-.496.647-.138.255-.255.432-.35.53Zm.285-2.232c-.401.053-.762.337-1.081.853-.322.494-.334.894-.035 1.199.194.168.512-.111.954-.837.395-.762.448-1.167.162-1.215Zm4.512-.79c-.09-.032-.165-.022-.222.029-.037.047-.048.124-.034.23.01.085.022.17.033.254.032.082.068.185.106.309.035.103.054.165.056.186.082.29.157.453.226.486.067.013.195.007.385-.018.148-.02.313-.16.493-.42.181-.261.291-.405.33-.432.23-.224.383-.524.462-.9.042-.177.002-.237-.12-.178a.245.245 0 0 0-.09.045c-.335.238-.682.38-1.042.428a1.81 1.81 0 0 1-.583-.02Zm-.393 3.376c-.223-.057-.504.013-.844.208-.319.193-.567.43-.745.712-.18.26-.211.437-.091.529.167.128.588-.11 1.26-.716.482-.43.622-.674.42-.733Zm1.764-4.72c-.528.07-.797.234-.806.494-.007.108.058.196.197.264.162.086.405.054.73-.096.342-.175.49-.356.444-.543-.038-.124-.226-.164-.565-.12Zm-.769 3.458c-.11.144-.1.294.027.449.128.155.269.158.421.009.06-.03.063-.095.007-.195a.893.893 0 0 1-.089-.182c.047-.135.342-.508.885-1.118.226-.245.274-.37.144-.374-.13-.004-.272.058-.427.186a1.709 1.709 0 0 0-.402.376c-.092.12-.2.285-.322.494a8.852 8.852 0 0 1-.244.355Zm-5.305 3.575c-.275.036-.199.123.228.26.656.236.98.247.973.033.013-.066-.042-.156-.165-.269a.41.41 0 0 0-.274-.125 1.548 1.548 0 0 0-.445.059l-.317.042Zm11.042.444c-.068-.185-.169-.785-.303-1.8-.007-.214.044-.565.151-1.053.105-.509.153-.88.143-1.116a4.598 4.598 0 0 1 .296-2.396c.112-.294.357-.477.735-.549l.414.204c.164-.065.269-.165.315-.3a.479.479 0 0 0-.09-.44 1.903 1.903 0 0 0-.175-.106.427.427 0 0 1-.184-.17c.182-.088.334-.076.456.037.12.092.17.225.15.4-.011.238-.118.489-.32.752-.037.048-.032.08.013.095l.158-.02c.043-.006.028.05-.042.166-.037.048-.055.158-.053.33.02.148.045.263.078.345.035.103.008.225-.081.366-.09.14-.119.241-.09.302.127.306.123.522-.01.647-.019.024-.044-.005-.077-.087-.01-.084-.036-.113-.076-.086-.14.083-.133.297.02.642.025.019.063-.019.115-.112.056.1.07.282.04.544a8.081 8.081 0 0 1-.153.795 8.879 8.879 0 0 0-.092.528 4.742 4.742 0 0 1-.085.335c-.14.405-.146.6-.02.583.149-.02.525-.263 1.13-.73.624-.492.987-.841 1.089-1.048.114-.273.351-.595.711-.966.357-.391.563-.623.618-.695l.276-.359c.186-.218.354-.413.503-.583.15-.17.267-.261.352-.273.105-.014.242-.118.41-.312.166-.216.308-.439.428-.67.12-.231.23-.46.329-.689l.184-.315.652-.925c.312-.407.629-.697.95-.869.18-.11.347-.142.504-.098.108.007.184.008.226.002.04-.027.108-.079.206-.156l.236-.16c.513-.198.928-.231 1.246-.1.183.082.27.254.262.513.014.106.012.17-.007.195a.348.348 0 0 1-.118.08.603.603 0 0 0-.186.057c-.182.088-.414.291-.695.608-.112.123-.326.302-.639.537-.292.232-.5.367-.624.405-.06.03-.32.344-.78.942-.44.575-.712.955-.817 1.141-.083.183-.322.495-.715.934-.373.437-.622.75-.748.938l-1.838 2.212c-.046.136-.204.329-.472.58-.268.25-.448.435-.54.555-.073.096-.222.19-.446.285-.206.07-.344.164-.415.28-.236.333-.713.547-1.432.642-.085.011-.167-.042-.247-.16-.06-.122-.13-.167-.212-.134-.134.125-.247.161-.34.11l-.18-.138a.665.665 0 0 1-.065-.25l-.03-.222Zm13.132-3.9a1.804 1.804 0 0 1 .009-.42c.02-.175.024-.305.013-.39a.734.734 0 0 0-.093-.213 1.052 1.052 0 0 1-.105-.31c-.04-.295.233-.837.818-1.624.584-.788 1.076-1.38 1.476-1.777.152-.15.457-.362.916-.638.458-.276.767-.543.927-.8.212-.351.941-.61 2.19-.774.253-.034.515-.004.786.09.292.09.456.273.492.548.017.127-.113.284-.39.47-.255.185-.38.374-.377.567.009.064.076.087.203.07.233-.03.362.05.387.24.013.256-.213.587-.676.993-.465.384-.898.689-1.299.914-.14.083-.338.206-.597.37a5.72 5.72 0 0 1-.692.381 2.567 2.567 0 0 1-.717.192c-.169.022-.28-.092-.335-.343-.058-.272-.15-.4-.277-.383-.338.045-.637.31-.895.796-.262.465-.368.878-.32 1.237.066.508.328.86.785 1.058.474.174 1.019.22 1.632.14.17-.023.426-.035.77-.038a7.16 7.16 0 0 0 .865-.05c.655-.086 1.773-.665 3.353-1.734 1.601-1.073 2.434-1.614 2.497-1.622.17-.022.262.03.279.157.02.148-.105.423-.375.824-.273.38-.527.651-.764.811-.219.137-.569.42-1.05.85-.463.405-.901.753-1.314 1.045-.414.291-.79.46-1.128.504-.275.036-.718.181-1.33.434-.594.23-1.103.372-1.526.428-.973.129-1.806.013-2.499-.347-1.023-.575-1.569-1.127-1.639-1.656Zm3.605-3.737c.275-.036.587-.196.937-.479.348-.304.547-.589.598-.854a1.136 1.136 0 0 0-.525-.06c-.486.065-.823.53-1.01 1.393Zm6.185 3.895a.345.345 0 0 1 .038-.199c.032-.09.073-.182.126-.275a.909.909 0 0 0 .133-.211c.847-2.22 1.32-4.177 1.419-5.869.018-.024.065-.073.142-.148.076-.074.141-.147.196-.22a.632.632 0 0 0 .13-.242.212.212 0 0 0 .006-.195c-.008-.063-.035-.103-.08-.118-.045-.016-.097.002-.154.052a8.151 8.151 0 0 0-.189.283c-.11.144-.185.23-.224.256-.119.08-.12-.016-.006-.29.099-.228.159-.343.18-.346.128-.168.283-.296.465-.385.306-.126.58.074.822.602.089.182.098.493.027.932-.05.437-.047.706.01.806.316-.214.675-.584 1.08-1.111.421-.55.739-.916.952-1.094.465-.385 1.246-.832 2.34-1.343.385-.18.802-.117 1.252.19.072.055.166.117.283.188.135.047.239.098.31.153a.583.583 0 0 1 .225.228c.056.1.25.344.58.73.331.387.546.714.646.98.038.124.055.251.05.38a.238.238 0 0 0 .13.242c.026.04.025.115-.003.226a2.218 2.218 0 0 1-.03.263c.008.063.056.1.144.11.127-.017.197.027.211.133l.017.127c-.317.042-.77-.124-1.357-.498a2.267 2.267 0 0 0-.57-.41c-.046-.015-.056-.089-.03-.221l.034-.23c-.027-.04-.097-.085-.211-.134-.114-.05-.186-.105-.216-.165-.059-.121-.248-.247-.566-.377-.319-.13-.552-.185-.7-.166a1.524 1.524 0 0 0-.4.15c-.184.067-.318.117-.4.15-.33.108-.942.684-1.837 1.727-.895 1.044-1.453 1.785-1.675 2.223a9.97 9.97 0 0 1-.538.814 8.869 8.869 0 0 0-.553.945 3.336 3.336 0 0 0-.311.815c-.21.695-.333 1.067-.37 1.114a.91.91 0 0 1-.683.446c-.233.03-.428-.062-.585-.278a1.984 1.984 0 0 1-.26-.74ZM79.9 69.19c-.931.123-1.675.114-2.231-.028-.578-.139-.782-.456-.61-.952.407-1.152 2.084-1.976 5.03-2.473l.477-.063.507-.067c.082-.033.217-.072.404-.118a1.558 1.558 0 0 0 .798-.558 1.94 1.94 0 0 0 .322-.494l.458-.932c.221-.439.39-.784.508-1.036.136-.276.264-.605.386-.987.143-.385.246-.743.31-1.074-1.125.278-1.751.425-1.878.442-.593.078-.946.007-1.062-.215.264-.12.455-.307.572-.56.136-.276.073-.504-.188-.685a.617.617 0 0 0-.33-.053.568.568 0 0 0-.245.097.27.27 0 0 1-.226-.002c-.048-.037-.08-.119-.097-.246l3.89-.611c.093-.27.186-.703.28-1.296.093-.593.196-1.037.308-1.332.015-.045.079-.215.19-.51.112-.294.18-.518.202-.671.044-.157.027-.284-.05-.381-.111-.029-.362.026-.753.164-.372.114-.646.16-.82.14a6.88 6.88 0 0 1-.322.011 9.13 9.13 0 0 1-.484 0 2.383 2.383 0 0 0-.425-.041.742.742 0 0 1-.338-.117.16.16 0 0 1-.026-.19c.019-.024.076-.075.174-.152.116-.102.212-.19.288-.264.094-.099.13-.157.106-.176a1.744 1.744 0 0 1-.125-.21c-.008-.063-.003-.106.015-.13.016-.045.044-.07.087-.076a.285.285 0 0 1 .123-.049.602.602 0 0 1 .194.007l.19-.025c.106-.014.258-.088.455-.222.195-.155.392-.213.59-.175.292.09.738.043 1.337-.144.618-.211.977-.506 1.077-.885.442-1.866 1.406-3.77 2.893-5.709.202-.263.417-.507.645-.73.25-.227.532-.458.845-.694a21.845 21.845 0 0 1 1.682-1.19c.456-.297.743-.486.862-.566.252-.206.495-.324.727-.355a1.52 1.52 0 0 1 .556.056.806.806 0 0 0 .318-.042 1.93 1.93 0 0 1 .28-.07c.085-.01.166.032.244.13.101.115.13.252.086.408a.623.623 0 0 0 .063.476c.054.079.118-.005.193-.252.112-.294.219-.459.322-.494.106-.014.227.088.363.307.08.118.104.212.07.281-.034.07-.012.152.065.25.096.073.29.155.581.246.382.121.555.615.519 1.48-.019.347-.193.898-.524 1.651-.334.733-.55 1.128-.65 1.184-.061.03-.25-.01-.565-.12-.297-.132-.488-.193-.573-.181-.084.01-.132.06-.142.147-.028.112.033.168.184.17l.453.004c.172 0 .266.062.283.189.039.296-.1.465-.417.507-.085.011-.196-.017-.334-.085-.072-.055-.114-.05-.127.017.008.063 0 .161-.026.294a.803.803 0 0 1-.148.342c-.184.24-.413.377-.688.414-.127.017-.226-.002-.298-.057-.048-.037-.089-.183-.122-.436.015-.045-.023-.008-.115.112a.568.568 0 0 0-.087.56c.07.206.013.343-.172.41-.14.083-.365.08-.678-.007-.316-.109-.527-.156-.632-.142-.085.01-.173.076-.265.196a.406.406 0 0 0-.07.203.71.71 0 0 0 .061.218c.03.06.048.123.057.186.005.042 0 .075-.02.1-.018.023-.06.029-.126.016-.066-.013-.149-.066-.247-.16a1.163 1.163 0 0 0-.292-.253c-.093-.052-.168-.053-.226-.002-.058.05-.03.1.084.15.045.016.08.033.104.05.045.017.082.055.112.115.048.037.074.076.08.119.022.169-.04.263-.189.283-.084.011-.121-.027-.111-.114.235-.01.278-.091.129-.243-.24-.184-.407-.226-.501-.128-.058.05-.098.153-.121.307a.479.479 0 0 1-.244.355c-.081.032-.09.055-.023.067.196.017.352.061.47.132.071.055.036.113-.107.175-.284.124-.516.165-.693.124-.26-.008-.525.102-.796.331-.25.227-.467.374-.651.442-.185.067-.353.1-.504.099a.486.486 0 0 0-.376.082c-.119.08-.216.243-.29.49-.874 2.504-1.194 3.827-.96 3.968.05.058.144.035.28-.07.35-.282.803-.44 1.359-.47.187-.046.946-.33 2.276-.85 1.348-.544 2.287-.85 2.816-.92.232-.031.416-.023.552.023.159.065.379-.06.66-.377.213-.18.904-.238 2.074-.178.567.054.836.137.808.248-.04.027-.103.035-.19.025a1.762 1.762 0 0 0-.235-.065c-.048-.037-.08-.033-.095.012.013.429-.001.646-.043.651-.043.006-.1-.019-.172-.074-.071-.055-.13-.166-.173-.332-.035-.103-.078-.108-.13-.015l-.488.71c-.461.255-.901.345-1.32.272-.044-.339-.108-.492-.19-.46a.943.943 0 0 0-.078.14c-.058.05-.056.147.006.29.062.142.099.256.11.34a2.743 2.743 0 0 0-.281.07c-.423.056-.64.052-.648-.011.016-.046.045-.07.087-.076l.095-.013c.043-.006.05-.028.024-.068-.123-.113-.226-.163-.311-.152-.148.02-.343.174-.584.464-.223.267-.365.414-.426.444-2.584 1.288-4.394 2.001-5.43 2.138-.233.031-.481.021-.746-.03-.223-.057-.387.008-.491.194-.105.186-.18.433-.225.74-.239 1.452-.935 3.18-2.09 5.183.261.03.766.103 1.513.22.768.113 1.415.2 1.939.26.543.035 1.06.042 1.552.02.897-.054 2.135-.293 3.714-.717 1.58-.424 2.505-.665 2.777-.723.357-.068.863-.232 1.517-.49.652-.28 1.041-.429 1.168-.446l.412-.054a.355.355 0 0 1 .163.01c.045.016.059.036.04.06a.56.56 0 0 0 .085.15c.071.055.166.118.283.188.117.071.163.011.137-.18-.028-.21-.034-.339-.018-.384.013-.066.114-.112.304-.137a.52.52 0 0 1 .33.053c.112.028.153.098.125.21-.355 1.058-1.249 1.865-2.682 2.42a16.884 16.884 0 0 1-4.573 1.057c-1.09.058-2.159.275-3.206.65-.285.124-.829.163-1.63.119a54.294 54.294 0 0 1-2.722-.318 62.54 62.54 0 0 0-1.943-.292c-.37-.037-.676.014-.916.153-.242.118-.486.312-.73.581-.247.248-.481.43-.703.545-.6.338-1.61.6-3.026.788Zm12.568-21.385c-.936 1.221-1.5 2.566-1.694 4.033.127-.017.375-.179.743-.486.386-.33.694-.447.922-.348.114.05.183.16.205.328l.046.35c.009.063.125.047.35-.047.1-.056.15-.16.152-.31a1.806 1.806 0 0 0-.063-.476l-.03-.222c.156-.129.254-.195.297-.201.042-.006.11.018.203.07.093.052.16.075.203.07.105-.014.303-.062.594-.143.312-.084.463-.158.455-.222-.009-.063-.13-.08-.362-.049-.193.004-.192-.071.003-.226.234-.182.53-.296.89-.344.106-.014.193-.09.26-.228.034-.069.086-.087.155-.053.09.032.192.072.306.121.115.05.202.06.263.03.06-.03.086-.076.078-.14.01-.087-.009-.149-.057-.185-.027-.04-.072-.056-.135-.047-.045-.016-.098-.009-.159.02a.602.602 0 0 1-.194-.006c.025-.132.147-.267.366-.403.011.084.15.163.418.235.287.048.47.045.548-.008.134-.125.148-.181.042-.167a2.523 2.523 0 0 1-.365-.08c-.138-.069-.187-.191-.146-.369.026-.132.088-.151.186-.057.099.095.179.127.24.098.305-.127.695-.598 1.168-1.414.473-.815.673-1.337.6-1.564a2.521 2.521 0 0 0-.173-.332c-.083-.14-.127-.23-.133-.273-.005-.042.028-.111.102-.207l.127-.017.095-.013c-.011-.084-.082-.129-.212-.133-.132-.025-.196-.103-.192-.233.01-.087.033-.24.069-.46.069-.29.093-.433.072-.43-.024-.018-.053.007-.087.076-.227.396-.438.596-.63.6-.194.004-.563.064-1.107.179-1.438.513-2.911 1.74-4.419 3.683Zm-8.215 5.735c-.247-.075-.363-.221-.348-.438.032-.241.185-.466.46-.674.257-.164.391-.128.4.108.005.193-.051.34-.167.442.223.056.27.244.14.562-.1.229-.209.297-.329.205-.045-.016-.04-.06.015-.131l.138-.18c.037-.048.022-.078-.044-.09-.022.002-.06.04-.115.111-.055.072-.105.1-.15.085Zm-4.667 14.013c-.038.198.017.288.165.268.127-.016.409-.161.846-.434.161-.409.078-.549-.249-.42-.364.178-.618.373-.762.586Zm3.066-8.056c-.115.101-.212.103-.29.006-.047-.037-.044-.09.011-.163.092-.12.189-.122.29-.006.05.058.047.112-.01.163Zm21.501-3.457c-.008-.064-.118-.157-.328-.28-.042-.317.027-.778.205-1.382.178-.605.251-1.034.217-1.288a.563.563 0 0 1 .104-.433l.165-.216a2.66 2.66 0 0 0 .153-.795l.075-.655c.086-.162.186-.38.301-.653.136-.276.231-.45.286-.522.055-.072.182-.25.381-.535.22-.287.491-.603.811-.947.339-.367.819-.883 1.442-1.546a.522.522 0 0 1 .131.015.94.94 0 0 0 .226.002c.021-.002.035-.058.043-.167.004-.13.059-.201.165-.215.148-.02.189.05.124.21-.034.068-.04.102-.019.099a.565.565 0 0 0 .245-.097.429.429 0 0 1 .242-.129c.145-.04.227.013.247.161.011.085-.02.175-.093.27-.077.075-.146.117-.21.125a2.482 2.482 0 0 1-.302-.089c-.114-.05-.193-.071-.235-.066-.19.025-.29.082-.3.169-.013.066.026.115.116.146.09.031.167.042.23.034.085-.011.175-.066.269-.164a.937.937 0 0 0 .061.217c.054.08.083.14.089.182.008.064-.041.102-.146.116-.021.003-.078-.021-.171-.074-.075-.076-.144-.11-.208-.102a8.17 8.17 0 0 1-.362.436 6.877 6.877 0 0 0-.307.363c.065.164.1.267.106.309.05.38-.369 1.2-1.257 2.458-.045.307-.218.793-.517 1.456-.281.64-.41 1.217-.385 1.73-.163.064-.275.198-.334.4a.789.789 0 0 0 .071.538.429.429 0 0 1-.133.212c-.077.074-.113.122-.111.143-.028.112.009.225.11.341a.55.55 0 0 1 .173.332c.146 1.1 1.868 1.432 5.167.995.719-.095 1.231-.292 1.536-.59.296-.04.522-.123.677-.251.152-.15.312-.407.479-.774.185-.39.303-.632.356-.725.104-.186.251-.377.44-.574.186-.219.337-.378.453-.48.113-.122.167-.205.161-.247-.005-.042-.029-.06-.072-.055-.024-.019-.066-.013-.127.017a.237.237 0 0 1-.091.044c.03-.262.225-.417.585-.465.19-.025.362-.188.516-.488.175-.303.39-.47.643-.504.022-.003.141.003.358.017-.065.16-.14.244-.225.256l-.127.016a.602.602 0 0 0-.194-.006c-.079.053-.141.158-.184.315-.026.132-.092.205-.197.22.008.063.047.111.116.145.069.034.108.083.116.146l-.095.013c-.024-.018-.047-.026-.068-.023-.254.033-.365.166-.334.399a.544.544 0 0 0 .128.241.31.31 0 0 0 .151-.084c.055-.072.114-.112.177-.12a.49.49 0 0 1 .199.038c.004.193-.107.412-.333.657a5.589 5.589 0 0 0-.527.65c-.128.168-.109.316.059.445.096.073.218.1.366.08.19-.025.493-.172.909-.443.435-.294.767-.467.997-.519a.56.56 0 0 1-.002.227.95.95 0 0 0 .162.01l.011-.162c.01-.088.057-.137.142-.148a.358.358 0 0 1 .163.01.212.212 0 0 1 .108.083c.026.04.043.08.048.123a.44.44 0 0 1 .057.186c.03.06.047.112.053.154-1.236.745-2.111 1.366-2.626 1.865l-.159.02a.245.245 0 0 0-.099-.018c-.212.028-.346.153-.403.376a3.155 3.155 0 0 0-1.335 1.37c-.308.6-.422 1.208-.341 1.82a.75.75 0 0 0 .061.219.34.34 0 0 1 .089.182c.022.169-.071.278-.279.327.102.288.132.757.089 1.409-.025.627.025 1.083.149 1.368a.318.318 0 0 1-.043.167.346.346 0 0 0-.038.199c.134.197.223.465.268.803.028.212.006.452-.067.72-.274.036-.648-.345-1.119-1.144a7.089 7.089 0 0 1-.856-2.566c-.031-.232.012-.4.127-.5-.044-.339-.012-.827.097-1.466.13-.641.185-1.122.164-1.442-.19.025-.485.075-.884.15-.399.074-.714.126-.947.157a2.288 2.288 0 0 1-.484 0 1.523 1.523 0 0 0-.425-.041 1.335 1.335 0 0 0-.309.105 1.38 1.38 0 0 1-.341.11c-.211.028-.537.006-.977-.065-.439-.07-.776-.09-1.008-.06a1.078 1.078 0 0 1-.628-.11c-.189-.126-.292-.252-.309-.38-.549.073-1.027-.445-1.432-1.553a4.615 4.615 0 0 1-.018-.385 6.014 6.014 0 0 0-.044-.575Zm14.406-1.39c-.074-.075-.111-.189-.109-.34a.735.735 0 0 1 .116-.338c.212-.028.52.028.926.168.138.068.123.113-.046.135-.085.011-.193.09-.324.237-.11.144-.208.22-.292.232-.085.011-.175-.02-.271-.093Zm-9.408-6.211c-.04-.145-.015-.364.075-.656.112-.294.173-.485.183-.572.042-.006.087.01.135.046.048.037.082.054.103.051.026.19-.002.388-.083.592a1.5 1.5 0 0 1-.267.423c-.094.098-.143.137-.146.116Zm12.915 10.622c-.041-.145-.188-.524-.441-1.136-.253-.612-.398-1.142-.436-1.588-.099-.913.013-1.939.335-3.079.344-1.143.687-2.05 1.029-2.718.363-.672.901-1.647 1.614-2.925.983-1.68 1.855-2.57 2.617-2.67a.706.706 0 0 1 .537.154c.224.23.295.446.215.65-.063.18-.061.277.006.29.198.038.344-.078.438-.349.093-.27.255-.432.485-.484.607-.123 1.053-.171 1.336-.144 1.796.236 2.857 1.591 3.185 4.065.196 1.48-.206 3.245-1.205 5.292a2.3 2.3 0 0 1-.464.642 1.122 1.122 0 0 1-.296.201c-.1.056-.18.1-.241.129-.061.03-.153.063-.277.1a212.407 212.407 0 0 0-.444.06l-.191.025c-.127.017-.208.049-.245.097-.04.027-.043.08-.011.163.355.727.374 1.36.057 1.897-.298.512-.93 1.016-1.898 1.51a29.022 29.022 0 0 0-1.43.9c-.119.08-.322.17-.61.273-.29.082-.557.095-.801.042-1.644-.063-2.598-.528-2.864-1.397Zm.81-2.173c.064.486.202.877.413 1.172.616.586 1.151.892 1.606.917.172 0 .36-.047.563-.139.222-.115.472-.256.751-.422.301-.169.542-.297.724-.386.688-.328 1.359-1.03 2.013-2.106.549-.89.945-1.556 1.188-1.997.262-.465.542-1.115.84-1.951.319-.839.486-1.614.499-2.326.012-.56-.163-1.237-.526-2.028-.345-.815-.66-1.247-.946-1.295-.22-.036-.413.054-.578.27a2.871 2.871 0 0 0-.388.729c-.093.27-.239.548-.438.832a1.506 1.506 0 0 1-.73.581c-.006-.042.01-.087.046-.135.058-.05.074-.096.047-.135-.048-.037-.131-.015-.25.065-.121.06-.204.08-.249.065-.096-.073-.041-.145.165-.215.367-.156.546-.266.537-.33-.029-.06-.118-.08-.266-.061-.148.02-.235.01-.262-.03-.054-.079-.051-.144.006-.194a.521.521 0 0 1 .305-.138c.124-.038.238-.074.341-.11.121-.058.2-.112.237-.16.036-.048.016-.12-.061-.218a4.19 4.19 0 0 0-.296-.283 3.753 3.753 0 0 0-.332-.312 1.407 1.407 0 0 0-.287-.22c-.144-.11-.257-.149-.338-.116-.061.03-.165.054-.314.073-.2.113-.395.268-.584.465a3.013 3.013 0 0 0-.55.718 38.93 38.93 0 0 0-.471.837c-.12.231-.269.563-.449.996-.158.43-.279.736-.362.92l-.327.946c-.134.448-.209.695-.225.74-.861 2.115-1.211 3.776-1.052 4.981Zm3.604-6.19c-.129-.155-.166-.355-.112-.598.075-.247.242-.366.502-.357.066.012.155.033.266.061.132.026.209.037.23.034a.488.488 0 0 0 .182-.088c.053-.093.016-.207-.109-.34a.491.491 0 0 0-.442-.168c-.036-.275.048-.372.252-.292.228.099.372.37.43.815.009.063-.03.176-.116.338-.065.16-.144.299-.235.418-.074.096-.124.124-.151.085a.588.588 0 0 0-.545-.219c-.148.02-.138.094.029.222.072.055.143.1.212.134.09.031.147.056.171.074.045.016.07.045.076.087.006.042-.019.1-.074.171l-.244.355c-.021.003-.036-.027-.044-.09a1.003 1.003 0 0 0-.101-.278 1.364 1.364 0 0 0-.177-.364Zm.193.975c-.009.26-.053.416-.132.47-.081.032-.14-.004-.175-.107a.837.837 0 0 1-.019-.384c.134-.126.243-.119.326.021Zm11.84 9.409c-.382-.122-.379-.423.009-.905.388-.482.731-.656 1.028-.523.138.067.336.02.595-.144.279-.166.44-.252.482-.257.248-.076.583-.066 1.004.028.422.095.687.146.795.154.088.01.173.084.256.224.083.14.16.312.23.518.067.185.126.306.177.364.238.335.3.638.185.912-.093.27-.277.424-.552.46-.317.042-.575-.117-.774-.479-.059-.12-.314-.184-.767-.189-.45.017-.817.087-1.102.21-.103.036-.228.15-.375.34-.122.21-.226.321-.311.332-.148.02-.299-.068-.454-.262-.078-.098-.111-.19-.101-.277a.656.656 0 0 0-.038-.286c-.035-.103-.131-.176-.287-.22Zm8.59-3.331c-.07-.53.008-1.239.235-2.13a.798.798 0 0 1-.141-.336 1.948 1.948 0 0 1 .023-.552c.057-.222.074-.418.052-.588-.081-.613.121-1.77.606-3.469.504-1.724.906-2.67 1.206-2.839l.149-.342c.075-.247.186-.541.335-.884.148-.342.285-.608.411-.796l.106-.176c2.397-3.351 3.966-5.076 4.706-5.174.127-.016.23.034.311.153.05.058.12.178.209.36.107.158.199.285.276.383.03.06.035.103.017.127.003.02-.013.066-.047.135a.357.357 0 0 0-.01.163c.047.036.139.078.274.125a.77.77 0 0 1 .347.18.398.398 0 0 1 .165.268c-.089.141-.377.244-.863.308-.269-.244-.489-.355-.658-.332-.586.12-.854.371-.804.752-.021.002-.143.137-.366.403a7.038 7.038 0 0 0-.689.898c-.214.33-.312.569-.292.717a3.34 3.34 0 0 0-.591.659 2.764 2.764 0 0 0-.337.625c-.062.18-.154.462-.275.844-.322.172-.583.637-.784 1.395-.18.755-.311 1.149-.393 1.181-.245.097-.425.283-.54.556a1.574 1.574 0 0 0-.117.822c.009.064-.074.333-.248.808-.153.472-.222.761-.208.867.039.296-.019.755-.173 1.378-.157.602-.231.935-.223.998.02.148.077.334.171.559.091.203.145.368.162.495-.199.607-.189 1.176.032 1.706.245.549.663.784 1.255.706.233-.031.575-.13 1.026-.297.449-.189.758-.294.927-.317a.243.243 0 0 1 .099.02l.159-.022c.231-.202.673-.444 1.324-.724.649-.3 1.15-.582 1.503-.844.35-.283.428-.584.235-.903a.436.436 0 0 1-.031-.48c.107-.164.258-.324.453-.48.195-.154.309-.266.343-.335.052-.093.218-.223.497-.389.298-.19.462-.33.494-.42a.813.813 0 0 1 .15-.569 4.18 4.18 0 0 1 .568-.591c.231-.203.391-.375.48-.516.108-.164.33-.517.667-1.056.359-.542.618-.942.778-1.2.159-.258.349-.617.568-1.076.216-.48.371-.932.466-1.353.016-.045.089-.227.219-.545.148-.343.232-.601.252-.776.041-.178.004-.377-.111-.599.037-.37.186-.702.449-.995-.126-.952-.369-1.404-.728-1.356-.191.025-.435.132-.732.322-.301.17-.513.273-.637.31-.918 1.198-1.472 1.81-1.662 1.834a.526.526 0 0 0 .053.155.52.52 0 0 1 .052.154c-.06.352-.212.835-.454 1.448-.241.613-.404.925-.489.936-.211.028-.35-.04-.414-.203l-.093-.698c-.014-.106.012-.238.077-.397.062-.18.086-.324.072-.43-.005-.042-.033-.092-.084-.15a.523.523 0 0 1-.049-.123c-.011-.084.029-.186.121-.306.113-.122.164-.226.153-.31a.526.526 0 0 0-.053-.155 1.044 1.044 0 0 1-.053-.154.469.469 0 0 1 .201-.188.68.68 0 0 0 .237-.161c.037-.048.025-.143-.037-.285a2.83 2.83 0 0 0 .309-.59c.112-.295.233-.515.364-.662l.185-.315c.102-.207.217-.394.345-.562.126-.188.336-.388.631-.6.292-.232.624-.405.996-.519 1.29-.17 2.208.257 2.752 1.282a1.08 1.08 0 0 0-.032.489c.025.19.065.411.12.662.073.227.118.404.135.53.019.149-.006.367-.075.656-.069.29-.096.497-.079.624s-.055.48-.215 1.061c-.09.292-.286.684-.587 1.175-.282.468-.464.804-.544 1.009-.031.09-.151.245-.358.467-.189.197-.272.38-.25.55l.068.022c.045.016.07.045.076.087-.556 1.171-1.778 2.99-3.669 5.456-.039.027-.073.096-.101.207a.777.777 0 0 1-.07.203 7.58 7.58 0 0 1-.422.476 5.053 5.053 0 0 0-.413.538c-.567.915-1.41 1.704-2.527 2.368-.353.262-.886.537-1.602.825-.715.289-1.305.464-1.77.525-.423.056-.893 0-1.41-.168-.517-.169-.946-.402-1.287-.702-.051-.38-.251-.59-.6-.63a1.794 1.794 0 0 1 .009-.421 2.44 2.44 0 0 0 .017-.358c-.182-.234-.275-.372-.281-.414Zm17.894.086c.082-.032.056-.309-.077-.829-.115-.544-.18-.87-.194-.975-.042-.317.009-.83.152-1.537.161-.732.228-1.203.2-1.415-.02-.148.031-.337.151-.568.141-.234.217-.395.227-.482.045-.307.107-.574.184-.8a4.7 4.7 0 0 1 .329-.688 4.44 4.44 0 0 0 .25-.55c.714-1.924 1.511-3.46 2.392-4.61.074-.095.266-.433.576-1.012.332-.582.67-1.035 1.015-1.36a2.379 2.379 0 0 1 1.309-.593c.825-.11 1.423.102 1.795.634.053.402.259.579.619.531-.003-.02.055-.072.174-.152a5.42 5.42 0 0 1 .474-.32 2.97 2.97 0 0 1 .446-.286.593.593 0 0 0 .28-.327c.086-.162.229-.3.429-.412.219-.137.582-.239 1.09-.306.401-.053.764.007 1.088.18.322.15.507.416.558.797.008.063.01.16.006.29a1.31 1.31 0 0 0-.002.226c.005.042.027.125.065.25.035.102.058.196.069.28.031.233-.008.508-.117.823-.109.316-.266.67-.473 1.064-.206.393-.332.657-.379.792-.613 1.544-1.148 2.627-1.604 3.246a49.2 49.2 0 0 0-.817 1.142 50.232 50.232 0 0 1-1.176 1.608c-.348.454-.593.724-.732.806-.158.108-.336.39-.534.846-.201.435-.417.668-.65.699a.765.765 0 0 1-.533-.123c-.167-.129-.272-.19-.315-.184a.25.25 0 0 0-.091.044c-.079.053-.131.06-.158.02-.203-.23-.169-.461.102-.69.289-.254.619-.524.991-.81.392-.288.571-.56.537-.813-.011-.085.083-.27.282-.554.197-.305.353-.509.468-.61.182-.089.309-.192.379-.309.089-.14.174-.313.254-.517a6.94 6.94 0 0 1 .172-.41c.086-.163.246-.334.481-.516.231-.203.379-.384.444-.543l.297-.685c.167-.366.3-.663.399-.892.117-.252.174-.389.171-.41a.242.242 0 0 0-.044-.09.523.523 0 0 1-.049-.123c.247-.248.492-.679.733-1.292.261-.637.368-1.124.323-1.463a.516.516 0 0 0-.244-.387 3.41 3.41 0 0 0-1.727 1.1c-.428.508-.854 1.189-1.28 2.041.03.06.077.087.14.079.085-.011.142.013.171.074-.031.09-.072.268-.123.533-.03.262-.1.465-.21.608-.131.147-.262.132-.393-.044a1.483 1.483 0 0 1-.247-.646c-.031-.232.02-.745.152-1.537-.511-1.094-.978-1.614-1.401-1.558-.359.048-.701.308-1.026.782-.04.026-.045.07-.015.13.051.059.077.098.08.12.011.084-.19.272-.603.563-.392.289-.617.544-.673.767-.06.202-.131.394-.214.577-.065.16-.169.356-.31.59-.123.21-.218.384-.286.522l-.309.59c-.185.39-.287.597-.305.621-.074.419-.373 1.168-.897 2.249-.503 1.078-.802 2.15-.898 3.217-.02.175-.022.487-.005.937.016.45.075.894.176 1.333.101.438.247.645.437.62.381-.05.968-.333 1.76-.846.812-.538 1.247-.822 1.308-.851.061-.03.125-.114.193-.252.065-.159.15-.245.256-.26a.732.732 0 0 1 .23.035c.109.007.195.006.258-.002.178.04.275.125.292.252.045.338-.251.872-.886 1.602-.635.73-1.111 1.115-1.428 1.157-.148.02-.367.156-.656.41-.287.274-.546.427-.779.458-.359.047-.833-.116-1.42-.49-.567-.377-.928-.75-1.084-1.116Zm9.239-14.101c-.36.047-.519.23-.477.547.026.19.154.27.387.24a.475.475 0 0 0 .332-.174c-.063.009-.109-.093-.137-.304-.028-.212-.063-.315-.105-.31Z"/></svg>