<svg xmlns="http://www.w3.org/2000/svg" fill="none" viewBox="0 0 50 51"><g clip-path="url(#a)"><path fill="#335C30" d="m49.873 48.874-2.013.336-.61.972c.274-3.153-4.635-4.625-5.77-7.62-.342-.905.714-1.057 1.035-.773.079.068.383 1.172 1.03 1.85.557.578 3.064 3.374 3.7 2.87-.814-8.157-2.76-15.637-6.927-22.737C31.835 9.302 16.488 1.372 0 .036c24.35-1.03 45.463 19.436 47.781 43.319 1.377-.552-.094-5.025 2.092-4.725v10.244Z"/></g><defs><clipPath id="a"><path fill="#fff" d="M49.873 0v50.183H0V0z"/></clipPath></defs></svg>