<svg xmlns="http://www.w3.org/2000/svg" fill="none" viewBox="0 0 157 47"><path fill="#335C30" d="M10.808 18.314c-.347.035-.58-.078-.702-.338-.139-.26-.165-.555-.078-.884a.52.52 0 0 1 0-.234c0-.052.026-.13.078-.234.035-.087.06-.156.078-.208.139-.763.225-1.179.26-1.248.087-.225.243-.572.468-1.04.243-.468.381-.84.416-1.118.017-.104.07-.139.156-.104.087.017.13.009.13-.026 0-.364.087-.702.26-1.014.173-.277.364-.71.572-1.3.225-.607.433-1.04.624-1.3.173-.33.277-.563.312-.702.087-.33.33-.823.728-1.482.416-.676.667-1.161.754-1.456.017-.07.035-.156.052-.26.035-.121.06-.217.078-.286.017-.07.043-.139.078-.208a.716.716 0 0 1 .182-.208c.035-.052.035-.156 0-.312a1.225 1.225 0 0 1 0-.364c.017-.087.147-.355.39-.806.26-.45.425-.728.494-.832.104-.156.156-.39.156-.702.017-.104.07-.2.156-.286.087-.087.13-.156.13-.208-.07-.121-.104-.2-.104-.234 0-.035.026-.104.078-.208a.897.897 0 0 0 .13-.26c.087-.017.225-.087.416-.208.19-.121.347-.182.468-.182.07 0 .156.026.26.078.052.156 0 .208-.156.156a.406.406 0 0 0-.078.104v.104c.017.017.026.052.026.104.017.035.026.07.026.104 0 .295.043.529.13.702-.104.225-.182.555-.234.988-.035.416-.07.685-.104.806-.173.59-.399 1.915-.676 3.978-.052.33-.017 1.179.104 2.548.017.19.035.303.052.338.035.035.156.07.364.104.104.017.32.009.65-.026a1.02 1.02 0 0 0 .39-.156c.156-.104.208-.182.156-.234-.121-.121-.104-.208.052-.26l.156-.078c.225-.104.364-.225.416-.364.104-.26.511-.65 1.222-1.17.71-.52 1.144-.884 1.3-1.092.121-.156.33-.355.624-.598.295-.26.511-.511.65-.754l.286-.416a.476.476 0 0 1 .26-.156.603.603 0 0 0 .26-.13c.087-.07.286-.269.598-.598.312-.347.607-.641.884-.884.277-.26.485-.399.624-.416.07-.017.277-.173.624-.468.364-.295.737-.607 1.118-.936.381-.33.59-.511.624-.546.416-.364.84-.546 1.274-.546.312 0 .477.156.494.468.017.225-.009.442-.078.65-.052.19-.147.407-.286.65a4.82 4.82 0 0 0-.26.598c.07.433-.009.771-.234 1.014-.139.121-.243.33-.312.624-.052.295-.095.477-.13.546-.104.295-.286.676-.546 1.144-.243.45-.399.771-.468.962-.017.07-.043.19-.078.364-.035.173-.078.32-.13.442a.897.897 0 0 1-.234.286c-.087.07-.139.19-.156.364a1.074 1.074 0 0 1-.078.338c-.416 1.127-.685 1.785-.806 1.976-.035.035-.095.156-.182.364-.087.19-.13.303-.13.338a.766.766 0 0 1-.026.338 3.104 3.104 0 0 1-.208.494c-.087.208-.139.32-.156.338-.399 1.057-.485 1.768-.26 2.132a.41.41 0 0 0 .156.208c.087.052.139.095.156.13.017.017-.017.087-.104.208-.121.121-.303.19-.546.208a1.1 1.1 0 0 0-.182.026 1.1 1.1 0 0 1-.182.026.713.713 0 0 1-.156-.026.465.465 0 0 1-.13-.13 2.42 2.42 0 0 1-.39-1.352v-.26c0-.139.009-.251.026-.338a.57.57 0 0 1 .104-.234c.087-.052.113-.147.078-.286-.035-.156-.035-.269 0-.338.45-1.213.771-1.89.962-2.028-.017-.225.07-.503.26-.832.19-.33.295-.555.312-.676.035-.277.139-.555.312-.832.243-.399.624-1.265 1.144-2.6.52-1.352.806-2.089.858-2.21.017-.035.07-.147.156-.338.104-.19.173-.338.208-.442-.173 0-.355.06-.546.182a4.006 4.006 0 0 0-.624.494c-.243.225-.381.355-.416.39a135.505 135.505 0 0 1-2.054 1.794c-.07.052-.19.173-.364.364-.173.19-.32.32-.442.39-.156 0-.2.087-.13.26-.017.035-.087.087-.208.156a.848.848 0 0 0-.26.156.282.282 0 0 0-.052.104.326.326 0 0 1-.078.13c-.017.035-.043.052-.078.052-.121-.017-.208 0-.26.052 0 .017.026.035.078.052l.026.052-.468.442c-.815.745-1.265 1.179-1.352 1.3a.255.255 0 0 1-.234.13.37.37 0 0 0-.208.052.247.247 0 0 0-.104.208c0 .087-.07.173-.208.26-.19.104-.485.338-.884.702-.381.364-.71.572-.988.624-.121.035-.19.095-.208.182-.017.07-.078.13-.182.182a1.32 1.32 0 0 1-.728.156 4.486 4.486 0 0 1-.624-.13c-.26-.07-.45-.113-.572-.13-.225-.173-.416-.503-.572-.988-.052-.156-.043-.494.026-1.014.017-.173 0-.433-.052-.78a9.406 9.406 0 0 1-.052-.78c-.07 0-.121.035-.156.104a.61.61 0 0 0-.078.234 2.015 2.015 0 0 0-.026.182 1.721 1.721 0 0 1-.26.442 2.558 2.558 0 0 0-.26.338c0 .208-.104.485-.312.832-.208.347-.32.546-.338.598l-.494 1.3c-.26.728-.494 1.335-.702 1.82-.208.468-.425.84-.65 1.118-.07.087-.173.433-.312 1.04a1.44 1.44 0 0 1-.13.286.905.905 0 0 1-.208.286 3.104 3.104 0 0 0-.182.234c-.052.07-.06.182-.026.338.052.156.121.243.208.26.295.104.347.269.156.494a2.98 2.98 0 0 0-.234.286.852.852 0 0 1-.26.286.66.66 0 0 1-.338.13Zm7.67-17.186c-.243-.07-.381-.234-.416-.494-.035-.156.035-.234.208-.234a.6.6 0 0 1 .208.052c.156.208.156.433 0 .676Zm13.676 13.078c-.347-.052-.676-.26-.988-.624-.295-.381-.39-.72-.286-1.014.035-.104.07-.251.104-.442a2.328 2.328 0 0 1 .338-.91c.121-.173.338-.425.65-.754.312-.33.52-.58.624-.754.07-.104.173-.208.312-.312.156-.121.33-.234.52-.338.19-.104.32-.182.39-.234.416-.26.693-.39.832-.39.087 0 .156.026.208.078.104.121.043.295-.182.52-.208.208-.295.338-.26.39.087.139.165.208.234.208.087 0 .208-.208.364-.624.173-.416.347-.624.52-.624.139 0 .312.06.52.182.208.121.355.182.442.182.45.017.927-.208 1.43-.676.243-.208.59-.312 1.04-.312.33 0 .624.06.884.182.26.104.39.251.39.442 0 .555-.07.997-.208 1.326-.173.433-.347.737-.52.91-.156.173-.373.33-.65.468-.26.121-.494.269-.702.442-.104.087-.312.208-.624.364-.312.139-.529.286-.65.442-.173.225-.563.52-1.17.884-.607.347-1.066.555-1.378.624a1.08 1.08 0 0 0-.39.182.887.887 0 0 1-.364.182c-.347.07-.823.07-1.43 0Zm.988-3.224c-.71.572-1.066 1.075-1.066 1.508 0 .364.165.546.494.546.225 0 .537-.052.936-.156.416-.104.693-.208.832-.312.156-.121.45-.295.884-.52.45-.243.728-.399.832-.468a.854.854 0 0 0 .13-.104.778.778 0 0 0 .104-.078l.052-.052c.017-.017.035-.026.052-.026.017 0 .13.113.338.338.087.087.147.13.182.13.087 0 .139-.07.156-.208a.757.757 0 0 0-.052-.468c-.07-.173-.165-.286-.286-.338-.104-.035-.234-.217-.39-.546-.156-.33-.303-.546-.442-.65a.551.551 0 0 0-.364-.13c-.121 0-.303.087-.546.26-.243.156-.433.234-.572.234a.762.762 0 0 0-.468.182 2.976 2.976 0 0 0-.468.468c-.139.19-.251.32-.338.39Zm.468-1.768c-.33 0-.65.19-.962.572-.312.364-.364.685-.156.962.139.156.425-.035.858-.572.399-.572.485-.893.26-.962Zm3.718-.156c-.07-.035-.13-.035-.182 0-.035.035-.052.095-.052.182v.208c.017.07.035.156.052.26.017.087.026.139.026.156.035.243.078.381.13.416.052.017.156.026.312.026.121 0 .269-.095.442-.286.173-.19.277-.295.312-.312.208-.156.364-.381.468-.676.052-.139.026-.19-.078-.156a.2.2 0 0 0-.078.026c-.295.156-.59.234-.884.234-.156 0-.312-.026-.468-.078Zm-.676 2.678c-.173-.07-.407-.043-.702.078a1.802 1.802 0 0 0-.676.494c-.173.19-.217.33-.13.416.121.121.485-.026 1.092-.442.433-.295.572-.477.416-.546Zm1.924-3.614c-.433 0-.667.104-.702.312-.017.087.026.165.13.234.121.087.32.087.598 0 .295-.104.433-.234.416-.39-.017-.104-.165-.156-.442-.156Zm-.988 2.704c-.104.104-.113.225-.026.364.087.139.2.156.338.052.052-.017.06-.07.026-.156a.723.723 0 0 1-.052-.156c.052-.104.33-.373.832-.806.208-.173.26-.269.156-.286-.104-.017-.225.017-.364.104-.139.07-.26.156-.364.26-.087.087-.19.208-.312.364a7.18 7.18 0 0 1-.234.26Zm-4.654 2.314c-.225 0-.173.078.156.234.503.26.763.303.78.13.017-.052-.017-.13-.104-.234a.333.333 0 0 0-.208-.13 1.257 1.257 0 0 0-.364 0h-.26Zm8.485 2.262a.923.923 0 0 1-.416.104c-.26 0-.45-.104-.572-.312-.104-.208-.078-.477.078-.806.104-.208.294-.494.572-.858.277-.364.468-.641.572-.832.121-.208.294-.381.52-.52.242-.139.398-.251.468-.338.052-.052.087-.156.104-.312s0-.234-.052-.234a.2.2 0 0 0-.078.026.29.29 0 0 1-.13.026.295.295 0 0 1-.104-.104c-.121-.19-.035-.442.26-.754.312-.312.59-.407.832-.286.26.156.364.364.312.624-.07.312-.026.468.13.468.139 0 .338-.095.598-.286.07-.052.338-.139.806-.26.485-.139.78-.2.884-.182.086.035.208.104.364.208.173.087.294.139.364.156.26.07.65.2 1.17.39a17.5 17.5 0 0 0 1.404.442c.398.104.754.156 1.066.156.19 0 .381-.026.572-.078.139-.052.277-.147.416-.286.139-.139.277-.303.416-.494.156-.19.277-.33.364-.416.433-.433 1.083-.65 1.95-.65.416 0 .72.06.91.182.208.121.346.373.416.754a.669.669 0 0 1-.052.364.935.935 0 0 1-.26.338 7.648 7.648 0 0 1-.39.312 3.775 3.775 0 0 1-.494.286c-.19.104-.347.19-.468.26l-.494.208a3.014 3.014 0 0 0-.39.182l-.416.13a2.785 2.785 0 0 0-.572.208c-.156.07-.26.156-.312.26-.122.225.034.555.468.988.433.433.815.745 1.144.936.242.121.468.225.676.312.225.087.46.165.702.234.26.07.468.121.624.156.173.035.416.078.728.13.33.07.563.121.702.156.087.017.563.017 1.43 0 .867 0 1.326-.009 1.378-.026.017-.017.087 0 .208.052.139.052.225.06.26.026 0-.052-.035-.095-.104-.13.104-.035.225-.052.364-.052.087 0 .043.07-.13.208-.173.156-.269.277-.286.364 0 .104-.113.173-.338.208-.208.052-.494.078-.858.078-.347.017-.555.026-.624.026l-.442.104c-.312.087-.563.121-.754.104l-1.04-.13a28.183 28.183 0 0 1-1.69-.26c-.434-.087-.928-.251-1.482-.494-.555-.225-1.014-.52-1.378-.884-.208-.208-.416-.58-.624-1.118-.19-.555-.269-.988-.234-1.3-.139-.07-.234-.104-.286-.104-.416 0-.875-.07-1.378-.208a18.913 18.913 0 0 1-1.586-.598c-.572-.243-.98-.399-1.222-.468-.364-.104-1.127.2-2.288.91a5.962 5.962 0 0 0-.598.416 3.684 3.684 0 0 0-.52.52c-.156.208-.277.364-.364.468-.07.104-.208.32-.416.65-.19.33-.32.546-.39.65Zm11.362-4.03c-.381.295-.468.442-.26.442.121 0 .286-.035.494-.104.277-.052.39-.173.338-.364-.017-.104-.087-.156-.208-.156-.122 0-.243.06-.364.182Zm7.696 5.538c-.104-.017-.13-.07-.078-.156h.13a.423.423 0 0 0-.026-.104c-.017-.052-.009-.078.026-.078.017 0 .052-.043.104-.13.07-.07.139-.095.208-.078.277.121.312.269.104.442-.139.104-.295.139-.468.104Zm6.95-2.418c-.12-.052-.112-.147.027-.286l.806-2.132c.052-.139.234-.65.546-1.534.312-.901.563-1.56.754-1.976.017-.052.078-.147.182-.286.12-.156.164-.277.13-.364-.052-.121-.035-.225.052-.312a.548.548 0 0 0 .156-.234c.104-.676.459-1.681 1.066-3.016.069-.121.173-.416.312-.884a8.06 8.06 0 0 1 .494-1.196c.173-.347.355-.52.546-.52.104 0 .208.052.312.156.017.017.052.06.104.13.069.052.104.087.104.104s.008.06.026.13c.034.07.026.121-.026.156-.087.139-.113.33-.078.572.017.156-.018.338-.104.546-.07.208-.113.355-.13.442 0 .277-.061.433-.182.468-.035.052-.052.147-.052.286 0 .121-.01.2-.026.234-.035.26-.165.659-.39 1.196-.226.52-.364.91-.416 1.17a27.58 27.58 0 0 0 1.326.052c.26 0 .563-.026.91-.078.086-.017.26-.06.52-.13.277-.07.494-.113.65-.13.104 0 .38-.052.832-.156.468-.104.77-.139.91-.104.208.087.364.113.468.078.052-.139.156-.208.312-.208.017 0 .138.009.364.026.242.017.364-.009.364-.078.069.017.12.052.156.104.034.035.069.052.104.052l.208-.156c.069.173.112.26.13.26.017 0 .034-.06.052-.182.017-.139.043-.217.078-.234.034.017.12.035.26.052.138 0 .234.043.286.13a.172.172 0 0 1 .026.156c0 .035-.035.078-.104.13l-.156.104a1.424 1.424 0 0 0-.312.156V7.03c-.104.017-.26.121-.468.312-.208.173-.408.234-.598.182-.174-.052-.434-.009-.78.13-.347.139-.52.286-.52.442-.07.035-.14.026-.208-.026-.07-.07-.14-.095-.208-.078 0 .017.017.043.052.078.052.07.052.113 0 .13-.156 0-.442.07-.858.208-.416.139-.737.173-.962.104-.018 0-.052.026-.104.078-.035.035-.13.087-.286.156a1.87 1.87 0 0 1-.624.13c-.486.052-.98.078-1.482.078-.642 0-1.04.078-1.196.234-.104.104-.156.19-.156.26a.475.475 0 0 1-.026.26l-.728 1.82a215.86 215.86 0 0 1-.806 1.898c-.035.07-.07.2-.104.39-.018.19-.052.33-.104.416-.07.035-.13.139-.182.312a4.15 4.15 0 0 0-.078.572 3.221 3.221 0 0 1-.052.416c-.14.33-.364.494-.676.494a.594.594 0 0 1-.338-.13c-.087-.52-.122-.858-.104-1.014 0-.052.008-.104.026-.156a.253.253 0 0 0 .052-.13c0-.035-.026-.07-.078-.104Zm5.877-13.13c0-.26.225-.364.676-.312-.018-.104 0-.173.052-.208a.425.425 0 0 1 .234-.052c.12-.017.208-.035.26-.052.225-.087.754-.19 1.586-.312C76.96.305 77.507.253 77.75.27c.173.017.45.009.832-.026.38-.052.65-.06.806-.026.069.156.182.208.338.156.312-.035.676 0 1.092.104.138.035.338.104.598.208.26.087.407.139.442.156.138.381.112.615-.078.702a2.22 2.22 0 0 1-1.638 0c-.087-.017-.148-.017-.182 0a1.962 1.962 0 0 1-.338.078 6.082 6.082 0 0 1-.598.026c-.087 0-.27.017-.546.052-.278.017-.477.026-.598.026-.14 0-.234-.009-.286-.026-.052-.035-.052-.087 0-.156.572.052.91.043 1.014-.026 0-.087-.304-.13-.91-.13-1.18 0-1.83.078-1.95.234 0 .017.008.035.026.052.156 0 .606-.043 1.352-.13.086.07.017.139-.208.208a4.118 4.118 0 0 1-1.274.13c-.104-.017-.234.009-.39.078a1.248 1.248 0 0 1-.364.078c-.711 0-1.066-.052-1.066-.156 0-.035.017-.07.052-.104.12-.156.156-.251.104-.286-.035-.052-.14-.06-.312-.026-.035 0-.052-.017-.052-.052l.052-.104a.11.11 0 0 0 0-.104c-.035 0-.087.026-.156.078a.849.849 0 0 0-.13.104c-.018.017-.044.009-.078-.026Zm7.658 13.104c-.035-.832-.035-1.335 0-1.508.26-1.144.754-2.314 1.482-3.51.277-.45.589-.901.936-1.352.364-.468.806-1.005 1.326-1.612.537-.607.91-1.04 1.118-1.3.034-.035.078-.13.13-.286.052-.156.104-.26.156-.312l.754-.468c.312.121.563.33.754.624.104.173.086.355-.052.546-.122.19-.33.39-.624.598-.278.208-.425.32-.442.338a19.836 19.836 0 0 0-1.586 1.794c-.018.017-.2.33-.546.936-.347.607-.633 1.023-.858 1.248-.174.173-.434.555-.78 1.144-.33.59-.494.98-.494 1.17 0 .173-.026.442-.078.806a3.51 3.51 0 0 0 0 .858c.052.416.416.624 1.092.624.312 0 .64-.035.988-.104.086-.017.355-.026.806-.026.45 0 .762-.043.936-.13.242-.121.658-.234 1.248-.338.589-.104 1.022-.243 1.3-.416.554-.347.927-.52 1.118-.52.849 0 1.42-.104 1.716-.312.138-.104.329-.165.572-.182.242-.017.554-.009.936.026.398.017.667.026.806.026.277 0 .502-.026.676-.078.034-.017.147-.026.338-.026h.52c.173-.017.26-.035.26-.052.052-.173.008-.277-.13-.312a.668.668 0 0 0-.416-.026c-.156.017-.27.009-.338-.026-.087-.07-.113-.113-.078-.13l.156-.156c.086-.087.13-.173.13-.26 0-.156.156-.234.468-.234.589 0 .988.104 1.196.312.086.087.216.243.39.468.173.208.294.355.364.442.034.052.12.026.26-.078a4.96 4.96 0 0 1 .494-.338c.173-.121.32-.156.442-.104.52.26.693.58.52.962a1.43 1.43 0 0 1-.234.39c-.122.139-.2.243-.234.312-.018.052.008.147.078.286.104.104.277.208.52.312.26.104.442.2.546.286a2.9 2.9 0 0 0 .338.104c.208.035.364.095.468.182.121.07.147.173.078.312-.018.035-.174.095-.468.182-.278.07-.468.104-.572.104-.451 0-.884-.104-1.3-.312a1.691 1.691 0 0 1-.806-.962c-.07-.19-.191-.286-.364-.286-.07 0-.217.035-.442.104-.208.052-.364.06-.468.026-.104-.07-.243-.07-.416 0l-.312.104c-.035.017-.13.087-.286.208l-.312.234c-.07.035-.295-.035-.676-.208-.364-.173-.564-.303-.598-.39-.07-.139-.174-.208-.312-.208a1.2 1.2 0 0 0-.416.104c-.174.07-.286.104-.338.104-.4.087-.798.13-1.196.13-.14 0-.338.06-.598.182-.26.121-.434.19-.52.208-.087.017-.451.095-1.092.234-.642.139-1.127.286-1.456.442a2.345 2.345 0 0 1-.962.208c-.503 0-1.127.13-1.872.39a3.703 3.703 0 0 1-1.222.182c-.902 0-1.621-.217-2.158-.65a.849.849 0 0 1-.13-.104l-.104-.156a.283.283 0 0 0-.052-.104.8.8 0 0 1-.052-.156v-.156c0-.017-.01-.078-.026-.182v-.182Zm7.254-9.802a13.596 13.596 0 0 1-.286-.182 3.104 3.104 0 0 1-.234-.182c-.104-.104-.165-.19-.182-.26a1.09 1.09 0 0 1-.026-.26c0-.104.043-.208.13-.312.19-.26.468-.407.832-.442.364-.035.615-.113.754-.234.138-.139.216-.07.234.208.017.572-.07 1.049-.26 1.43-.208.381-.347.572-.416.572a.23.23 0 0 1-.104-.026 1.01 1.01 0 0 0-.182-.13 2.376 2.376 0 0 0-.26-.182Zm4.108 8.372c-.486.399-.53.607-.13.624.208 0 .407-.035.598-.104.19-.087.268-.182.234-.286-.052-.156-.286-.234-.702-.234Zm-8.528-4.862c-.14.07-.27.2-.39.39-.104.19-.122.355-.052.494.052.07.112.104.182.104.156 0 .303-.095.442-.286.156-.208.19-.373.104-.494a.516.516 0 0 1-.052-.234c0-.052-.026-.07-.078-.052a.601.601 0 0 1-.156.078Zm7.072 5.356c-.14 0-.382.052-.728.156-.347.104-.477.2-.39.286.069.07.156.104.26.104.086 0 .225-.043.416-.13.19-.087.338-.13.442-.13.086 0 .13-.043.13-.13 0-.104-.044-.156-.13-.156ZM88.45 5.34a.281.281 0 0 1-.208.078.32.32 0 0 1-.182-.052.25.25 0 0 1-.078-.182c0-.104.078-.156.234-.156.104 0 .182.035.234.104.069.052.069.121 0 .208Zm7.774 7.852a1.494 1.494 0 0 1-.078.26c-.035.087-.061.147-.078.182 0 .017.008.052.026.104a.17.17 0 0 0 .078.078c.052 0 .12.017.208.052 0-.087.017-.173.052-.26l.078-.234c.034-.052.026-.095-.026-.13-.035-.035-.122-.052-.26-.052Zm-4.784.156c-.087-.07-.156-.104-.208-.104-.052-.017-.087-.009-.104.026a.361.361 0 0 0-.026.156c0 .052.017.095.052.13l.546.078-.026-.078-.234-.208Zm3.198-.104c-.174.104-.182.234-.026.39.086.052.147.06.182.026.12-.121.156-.208.104-.26-.14-.139-.226-.19-.26-.156Zm8.656 1.43c-.035-.156-.052-.65-.052-1.482.017-.173.095-.45.234-.832.138-.399.216-.693.234-.884 0-.693.164-1.326.494-1.898.121-.225.338-.347.65-.364l.312.208c.138-.035.234-.104.286-.208a.39.39 0 0 0-.026-.364 1.783 1.783 0 0 0-.13-.104.34.34 0 0 1-.13-.156c.156-.052.277-.026.364.078.086.087.112.2.078.338-.035.19-.148.381-.338.572-.035.035-.035.06 0 .078h.13c.034 0 .017.043-.052.13-.035.035-.061.121-.078.26 0 .121.008.217.026.286.017.087-.018.182-.104.286-.087.104-.122.182-.104.234.069.26.043.433-.078.52-.018.017-.035-.009-.052-.078 0-.07-.018-.095-.052-.078-.122.052-.139.225-.052.52.017.017.052-.009.104-.078.034.087.026.234-.026.442-.052.19-.122.399-.208.624-.07.208-.113.347-.13.416a4.294 4.294 0 0 1-.104.26c-.156.312-.182.468-.078.468.121 0 .45-.156.988-.468.554-.33.884-.572.988-.728.121-.208.346-.442.676-.702.329-.277.52-.442.572-.494l.26-.26c.173-.156.329-.295.468-.416.138-.121.242-.182.312-.182.086 0 .208-.07.364-.208.156-.156.294-.32.416-.494.121-.173.234-.347.338-.52l.182-.234.624-.676c.294-.295.58-.494.858-.598.156-.07.294-.078.416-.026.086.017.147.026.182.026.034-.017.095-.052.182-.104l.208-.104c.433-.104.771-.087 1.014.052.138.087.19.234.156.442 0 .087-.009.139-.026.156a.288.288 0 0 1-.104.052.49.49 0 0 0-.156.026c-.156.052-.364.19-.624.416a4.28 4.28 0 0 1-.572.364c-.26.156-.442.243-.546.26-.052.017-.295.243-.728.676-.416.416-.676.693-.78.832-.087.139-.312.364-.676.676a9.451 9.451 0 0 0-.702.676l-1.716 1.586c-.052.104-.2.243-.442.416a4.31 4.31 0 0 0-.494.39c-.07.07-.2.13-.39.182-.174.035-.295.095-.364.182-.226.243-.633.364-1.222.364-.07 0-.13-.052-.182-.156-.035-.104-.087-.147-.156-.13-.122.087-.217.104-.286.052l-.13-.13a.528.528 0 0 1-.026-.208v-.182Zm12.109-.468c-.347-.052-.676-.26-.988-.624-.295-.381-.39-.72-.286-1.014.035-.104.069-.251.104-.442.035-.208.078-.373.13-.494.052-.139.121-.277.208-.416.121-.173.338-.425.65-.754.312-.33.52-.58.624-.754.069-.104.173-.208.312-.312a3.82 3.82 0 0 1 .52-.338c.191-.104.321-.182.39-.234.416-.26.693-.39.832-.39a.28.28 0 0 1 .208.078c.104.121.043.295-.182.52-.208.208-.295.338-.26.39.087.139.165.208.234.208.087 0 .208-.208.364-.624.173-.416.347-.624.52-.624.139 0 .312.06.52.182.208.121.355.182.442.182.451.017.927-.208 1.43-.676.243-.208.589-.312 1.04-.312.329 0 .624.06.884.182.26.104.39.251.39.442 0 .555-.069.997-.208 1.326-.173.433-.347.737-.52.91-.156.173-.373.33-.65.468-.26.121-.494.269-.702.442-.104.087-.312.208-.624.364-.312.139-.529.286-.65.442-.173.225-.563.52-1.17.884-.607.347-1.066.555-1.378.624a1.08 1.08 0 0 0-.39.182.89.89 0 0 1-.364.182c-.347.07-.823.07-1.43 0Zm.988-3.224c-.711.572-1.066 1.075-1.066 1.508 0 .364.165.546.494.546.225 0 .537-.052.936-.156.416-.104.693-.208.832-.312.156-.121.451-.295.884-.52.451-.243.728-.399.832-.468a.869.869 0 0 0 .13-.104.758.758 0 0 0 .104-.078l.052-.052c.017-.017.035-.026.052-.026.017 0 .13.113.338.338.087.087.147.13.182.13.087 0 .139-.07.156-.208a.757.757 0 0 0-.052-.468c-.069-.173-.165-.286-.286-.338-.104-.035-.234-.217-.39-.546-.156-.33-.303-.546-.442-.65a.55.55 0 0 0-.364-.13c-.121 0-.303.087-.546.26-.243.156-.433.234-.572.234a.762.762 0 0 0-.468.182 2.976 2.976 0 0 0-.468.468c-.139.19-.251.32-.338.39Zm.468-1.768c-.329 0-.65.19-.962.572-.312.364-.364.685-.156.962.139.156.425-.035.858-.572.399-.572.485-.893.26-.962Zm3.718-.156c-.069-.035-.13-.035-.182 0-.035.035-.052.095-.052.182v.208c.017.07.035.156.052.26.017.087.026.139.026.156.035.243.078.381.13.416.052.017.156.026.312.026.121 0 .269-.095.442-.286.173-.19.277-.295.312-.312.208-.156.364-.381.468-.676.052-.139.026-.19-.078-.156a.203.203 0 0 0-.078.026 1.875 1.875 0 0 1-.884.234c-.156 0-.312-.026-.468-.078Zm-.676 2.678c-.173-.07-.407-.043-.702.078a1.802 1.802 0 0 0-.676.494c-.173.19-.217.33-.13.416.121.121.485-.026 1.092-.442.433-.295.572-.477.416-.546Zm1.924-3.614c-.433 0-.667.104-.702.312-.017.087.026.165.13.234.121.087.321.087.598 0 .295-.104.433-.234.416-.39-.017-.104-.165-.156-.442-.156Zm-.988 2.704c-.104.104-.113.225-.026.364.087.139.199.156.338.052.052-.017.061-.07.026-.156a.705.705 0 0 1-.052-.156c.052-.104.329-.373.832-.806.208-.173.26-.269.156-.286-.104-.017-.225.017-.364.104-.139.07-.26.156-.364.26a3.922 3.922 0 0 0-.312.364 6.618 6.618 0 0 1-.234.26Zm-4.654 2.314c-.225 0-.173.078.156.234.503.26.763.303.78.13.017-.052-.017-.13-.104-.234a.332.332 0 0 0-.208-.13 1.257 1.257 0 0 0-.364 0h-.26Zm7.991.494c0-.087.034-.338.104-.754.069-.416.13-.693.182-.832.086-.208.277-.572.572-1.092.294-.537.494-.84.598-.91.034-.017.164-.147.39-.39.242-.243.424-.39.546-.442.069-.017.104-.19.104-.52 0-.347.017-.529.052-.546.086-.035.156-.009.208.078.069.07.121.173.156.312.173 1.161-.139 2.097-.936 2.808l-.65 1.3c-.174.399-.252.676-.234.832.069.225.208.338.416.338.052 0 .225-.06.52-.182.294-.139.468-.234.52-.286.034-.035.121-.035.26 0 .156.035.26.026.312-.026.138-.173.416-.381.832-.624s.702-.46.858-.65c.086-.087.416-.243.988-.468.572-.225.866-.347.884-.364.173-.19.476-.45.91-.78.45-.347.754-.52.91-.52.069 0 .234-.078.494-.234.277-.156.494-.234.65-.234.329 0 .528.2.598.598.034.19-.104.485-.416.884-.295.381-.52.615-.676.702-.174.087-.399.347-.676.78-.26.416-.52.65-.78.702 0-.052.043-.121.13-.208a.532.532 0 0 0 .156-.286c-.174-.121-.408-.182-.702-.182-.07 0-.191.06-.364.182-.035.07-.122.07-.26 0a1.325 1.325 0 0 0-.234-.104c-.104 0-.252.043-.442.13-.052.052-.286.225-.702.52-.416.295-.642.468-.676.52-.139.156-.373.277-.702.364-.33.07-.538.13-.624.182-.676.416-1.092.624-1.248.624-.746 0-1.274-.078-1.586-.234-.295-.156-.442-.485-.442-.988Zm6.63.884c-.018-.121.043-.269.182-.442.156-.173.251-.303.286-.39.104-.347.277-.52.52-.52a.418.418 0 0 1 .104.26c.017.087-.009.19-.078.312a.554.554 0 0 0-.104.312c.225 0 .459-.087.702-.26.26-.19.511-.286.754-.286.364 0 .546.078.546.234 0 .139-.191.303-.572.494-.174.087-.364.26-.572.52-.208.26-.399.39-.572.39-.33 0-.607-.06-.832-.182-.208-.139-.33-.286-.364-.442Zm1.066-3.068c-.087 0-.234.078-.442.234-.191.156-.278.277-.26.364.017.087.147.13.39.13.589 0 1.057-.399 1.404-1.196a.732.732 0 0 0-.182-.104c-.052 0-.13.104-.234.312-.087.19-.252.286-.494.286a.574.574 0 0 1-.182-.026Zm5.388 2.652c0-.052.017-.104.052-.156.034-.07.078-.139.13-.208a.772.772 0 0 0 .13-.156c.918-1.699 1.508-3.224 1.768-4.576.017-.017.06-.052.13-.104a1.73 1.73 0 0 0 .182-.156.525.525 0 0 0 .13-.182.175.175 0 0 0 .026-.156c0-.052-.018-.087-.052-.104-.035-.017-.078-.009-.13.026a5.86 5.86 0 0 0-.182.208 1.217 1.217 0 0 1-.208.182c-.104.052-.096-.026.026-.234.104-.173.164-.26.182-.26.121-.121.26-.208.416-.26.26-.07.459.121.598.572.052.156.026.407-.078.754-.087.347-.113.563-.078.65.277-.139.606-.399.988-.78.398-.399.693-.659.884-.78.416-.26 1.092-.537 2.028-.832.329-.104.658-.009.988.286.052.052.121.113.208.182a.907.907 0 0 1 .234.156.478.478 0 0 1 .156.208c.034.087.164.303.39.65.225.347.364.633.416.858a.96.96 0 0 1 0 .312.192.192 0 0 0 .078.208c.017.035.008.095-.026.182a2.03 2.03 0 0 1-.052.208c0 .052.034.087.104.104.104 0 .156.043.156.13v.104c-.26 0-.607-.182-1.04-.546a1.863 1.863 0 0 0-.416-.39c-.035-.017-.035-.078 0-.182l.052-.182c-.018-.035-.07-.078-.156-.13-.087-.052-.139-.104-.156-.156-.035-.104-.174-.225-.416-.364-.243-.139-.425-.208-.546-.208-.07 0-.182.026-.338.078-.156.035-.269.06-.338.078-.278.052-.832.45-1.664 1.196-.832.745-1.361 1.283-1.586 1.612a8.282 8.282 0 0 1-.52.598c-.226.26-.408.494-.546.702-.139.19-.252.399-.338.624-.243.537-.382.823-.416.858a.74.74 0 0 1-.598.286c-.191 0-.338-.095-.442-.286a1.605 1.605 0 0 1-.13-.624ZM.175 40.814c0-1.075.139-1.967.416-2.678.226-.797.399-1.283.52-1.456.104-.104.182-.277.234-.52.052-.243.096-.399.13-.468.243-.503.59-1.066 1.04-1.69.451-.641.858-1.127 1.222-1.456 1.231-1.057 1.864-1.612 1.898-1.664.156-.173.486-.39.988-.65.52-.277.841-.355.962-.234 0 .035-.026.07-.078.104a.406.406 0 0 1-.104.078c-.017.017-.017.035 0 .052.052.035.148.052.286.052.035-.017.087-.104.156-.26a.282.282 0 0 1 .052-.104l.026.13.598-.156c.486.035.746.147.78.338l-.234-.104c-.017 0-.017.017 0 .052a.302.302 0 0 1 .052.078c.018.017.018.043 0 .078-.416 0-.84.13-1.274.39-.069.052-.182.182-.338.39-.156.208-.286.32-.39.338a.713.713 0 0 0-.156.026.29.29 0 0 0-.13.026.427.427 0 0 0-.104.026.231.231 0 0 0-.104.026.303.303 0 0 1-.078.052l-.078.078a1.27 1.27 0 0 1-.078.13 1.27 1.27 0 0 1-.078.13 5.352 5.352 0 0 0-.234.39 1.3 1.3 0 0 1-.026.156.354.354 0 0 0 .026.234c-.086 0-.199-.026-.338-.078-.034.052-.19.173-.468.364-.052.052-.086.139-.104.26 0 .104-.034.19-.104.26-.277.277-.511.39-.702.338 0 .33-.121.659-.364.988-.121.173-.398.511-.832 1.014-.138.173-.303.511-.494 1.014-.19.485-.312.84-.364 1.066-.017.07-.078.156-.182.26-.086.104-.112.2-.078.286.018.07 0 .277-.052.624s-.112.71-.182 1.092a7.5 7.5 0 0 0-.104.65c-.069.156-.078.364-.026.624.052.243.078.399.078.468.018.07.07.225.156.468.104.225.174.39.208.494.156.503.486.893.988 1.17.503.26 1.058.39 1.664.39.555 0 1.023-.104 1.404-.312.087-.052.243-.07.468-.052.226 0 .373-.052.442-.156.156-.156.468-.217.936-.182.26.035.408-.017.442-.156.035-.035.078-.043.13-.026.052.017.122.06.208.13a.57.57 0 0 0 .156.078c0-.156.156-.286.468-.39.312-.104.564-.147.754-.13 0-.19.122-.286.364-.286.208 0 .312.078.312.234a4.39 4.39 0 0 0-.39.052.46.46 0 0 0-.208.13c-.069.07-.112.182-.13.338l-.234-.078a1.108 1.108 0 0 1-.156-.104c-.017.156-.052.269-.104.338-.034.07-.121.095-.26.078-.086-.017-.156-.009-.208.026a.17.17 0 0 0-.078.078l-.104.104a.465.465 0 0 1-.13.13c-.034.035-.104.06-.208.078a.79.79 0 0 0-.234.026 1.512 1.512 0 0 1-.39.26c0 .087-.017.147-.052.182a.558.558 0 0 1-.182.104c-.086.035-.156.06-.208.078a1.917 1.917 0 0 1-.468.208 7.494 7.494 0 0 1-.546.156c-.208.07-.372.121-.494.156-.745.225-1.447.295-2.106.208-1.178-.156-1.768-.39-1.768-.702l-.546-.676c-.121.035-.242 0-.364-.104a3.558 3.558 0 0 1-.416-.442 4.265 4.265 0 0 0-.26-.338c-.156-.156-.234-.425-.234-.806 0-.572-.026-.91-.078-1.014-.086-.225-.13-.52-.13-.884Zm7.228-8.996c0 .139-.043.147-.13.026a.425.425 0 0 1-.078-.312c.746-.173 1.335-.442 1.768-.806l.182-.182c.122-.104.234-.19.338-.26a.658.658 0 0 1 .312-.104c.104 0 .182.087.234.26a.252.252 0 0 0 .13.052.806.806 0 0 1 .182-.052.599.599 0 0 1 .208-.052c.122 0 .226.035.312.104.122.087.2.173.234.26.052.07.087.182.104.338.035.139.07.251.104.338.104-.017.182-.026.234-.026.07-.017.104.009.104.078.018.052.018.095 0 .13a.849.849 0 0 1-.052.208 1.569 1.569 0 0 0-.026.234v.39a.506.506 0 0 0-.26.104c-.086.07-.164.104-.234.104 0 .104-.052.208-.156.312a1.525 1.525 0 0 0-.182.208c-.017.035.009.035.078 0 .243-.156.39-.217.442-.182 0 .139-.104.26-.312.364-.208.087-.381.121-.52.104 0-.676.018-1.11.052-1.3a.886.886 0 0 1-.182-.182c-.052-.104-.138-.139-.26-.104a1.882 1.882 0 0 1-.598-.39c-.086-.104-.147-.13-.182-.078-.017.052-.052.078-.104.078a.247.247 0 0 1-.208-.104c-.052-.07-.121-.078-.208-.026-.346.225-.788.32-1.326.286v.182Zm-5.59 13.104c-.19 0-.286-.13-.286-.39.156.121.252.251.286.39Zm11.553-1.716c-.347-.052-.676-.26-.988-.624-.295-.381-.39-.72-.286-1.014.035-.104.07-.251.104-.442a2.334 2.334 0 0 1 .338-.91 7.52 7.52 0 0 1 .65-.754c.312-.33.52-.58.624-.754.07-.104.173-.208.312-.312.156-.121.33-.234.52-.338.19-.104.32-.182.39-.234.416-.26.693-.39.832-.39.087 0 .156.026.208.078.104.121.043.295-.182.52-.208.208-.295.338-.26.39.087.139.165.208.234.208.087 0 .208-.208.364-.624.173-.416.347-.624.52-.624.139 0 .312.06.52.182.208.121.355.182.442.182.45.017.927-.208 1.43-.676.243-.208.59-.312 1.04-.312.33 0 .624.06.884.182.26.104.39.251.39.442 0 .555-.07.997-.208 1.326-.173.433-.347.737-.52.91-.156.173-.373.33-.65.468-.26.121-.494.269-.702.442-.104.087-.312.208-.624.364-.312.139-.529.286-.65.442-.173.225-.563.52-1.17.884-.607.347-1.066.555-1.378.624a1.08 1.08 0 0 0-.39.182.887.887 0 0 1-.364.182c-.347.07-.823.07-1.43 0Zm.988-3.224c-.71.572-1.066 1.075-1.066 1.508 0 .364.165.546.494.546.225 0 .537-.052.936-.156.416-.104.693-.208.832-.312.156-.121.45-.295.884-.52.45-.243.728-.399.832-.468a.849.849 0 0 0 .13-.104.778.778 0 0 0 .104-.078l.052-.052c.017-.017.035-.026.052-.026.017 0 .13.113.338.338.087.087.147.13.182.13.087 0 .139-.07.156-.208a.757.757 0 0 0-.052-.468c-.07-.173-.165-.286-.286-.338-.104-.035-.234-.217-.39-.546-.156-.33-.303-.546-.442-.65a.551.551 0 0 0-.364-.13c-.121 0-.303.087-.546.26-.243.156-.433.234-.572.234a.762.762 0 0 0-.468.182 2.976 2.976 0 0 0-.468.468c-.139.19-.251.32-.338.39Zm.468-1.768c-.33 0-.65.19-.962.572-.312.364-.364.685-.156.962.139.156.425-.035.858-.572.399-.572.485-.893.26-.962Zm3.718-.156c-.07-.035-.13-.035-.182 0-.035.035-.052.095-.052.182v.208c.017.07.035.156.052.26.017.087.026.139.026.156.035.243.078.381.13.416.052.017.156.026.312.026.121 0 .269-.095.442-.286.173-.19.277-.295.312-.312.208-.156.364-.381.468-.676.052-.139.026-.19-.078-.156a.2.2 0 0 0-.078.026c-.295.156-.59.234-.884.234-.156 0-.312-.026-.468-.078Zm-.676 2.678c-.173-.07-.407-.043-.702.078a1.803 1.803 0 0 0-.676.494c-.173.19-.217.33-.13.416.121.121.485-.026 1.092-.442.433-.295.572-.477.416-.546Zm1.924-3.614c-.433 0-.667.104-.702.312-.017.087.026.165.13.234.121.087.32.087.598 0 .295-.104.433-.234.416-.39-.017-.104-.165-.156-.442-.156Zm-.988 2.704c-.104.104-.113.225-.026.364.087.139.2.156.338.052.052-.017.06-.07.026-.156a.73.73 0 0 1-.052-.156c.052-.104.33-.373.832-.806.208-.173.26-.269.156-.286-.104-.017-.225.017-.364.104-.139.07-.26.156-.364.26-.087.087-.19.208-.312.364a7.18 7.18 0 0 1-.234.26Zm-4.654 2.314c-.225 0-.173.078.156.234.503.26.763.303.78.13.017-.052-.017-.13-.104-.234a.333.333 0 0 0-.208-.13 1.257 1.257 0 0 0-.364 0h-.26Zm8.9 1.092c-.173-.017-.329-.113-.467-.286-.122-.19-.174-.32-.156-.39.086-.728.45-1.395 1.092-2.002.104-.087.164-.286.182-.598.034-.33.138-.529.312-.598.104-.052.216-.043.338.026.121.07.2.078.234.026.052-.07-.026-.147-.234-.234-.19-.104-.234-.208-.13-.312.086-.087.208-.06.364.078.156.139.268.208.338.208.086 0 .164-.052.234-.156.121-.139.078-.286-.13-.442-.19-.156-.26-.251-.208-.286.138-.173.286-.217.442-.13.433.208.598.563.494 1.066-.087.485-.338.832-.754 1.04-.122.07-.174.165-.156.286.017.104.017.217 0 .338-.052.087-.19.26-.416.52-.208.243-.32.442-.338.598.156 0 .33-.035.52-.104.19-.087.407-.19.65-.312.26-.139.424-.225.494-.26.762-.277 1.274-.494 1.534-.65.294-.19.814-.355 1.56-.494a11.412 11.412 0 0 1 2.08-.208c1.265 0 1.898.373 1.898 1.118 0 .087-.104.546-.312 1.378.26 0 .59-.087.988-.26.398-.173.702-.26.91-.26.312-.017.754-.147 1.326-.39.572-.243 1.031-.355 1.378-.338.225.017.71-.078 1.456-.286.745-.225 1.291-.338 1.638-.338.381 0 .676.104.884.312.26.208.32.563.182 1.066-.139.503-.165.84-.078 1.014.294.624.832.936 1.612.936.26 0 .528-.052.806-.156.138-.035.416-.234.832-.598.433-.364.762-.546.988-.546.138 0 .208.052.208.156 0 .33-.347.789-1.04 1.378-.676.572-1.474.858-2.392.858-.624 0-1.058-.13-1.3-.39-.59-.641-.884-1.309-.884-2.002 0-.121.017-.39.052-.806-.416-.139-1.248-.009-2.496.39-1.248.381-1.994.59-2.236.624-1.474.468-2.488.702-3.042.702-.988 0-1.36-.442-1.118-1.326.017-.052.078-.147.182-.286a1.62 1.62 0 0 0 .208-.338c.034-.104.017-.225-.052-.364a21.27 21.27 0 0 0-1.222-.026c-.416 0-.728.009-.936.026-.19.017-.477.121-.858.312-.382.173-.676.251-.884.234-.26-.017-.806.243-1.638.78-.815.537-1.378.737-1.69.598-.07-.035-.26-.017-.572.052-.312.052-.538.07-.676.052Zm24.077-3.224a.445.445 0 0 1-.208.078c-.242 0-.442-.19-.598-.572-.156-.399-.104-.59.156-.572.07 0 .148-.052.234-.156.104-.121.2-.251.286-.39a1.82 1.82 0 0 1 .182-.26c.642-.676 1.508-1.707 2.6-3.094a174.367 174.367 0 0 1 2.028-2.548c.33-.399.78-.988 1.352-1.768.59-.797 1.032-1.37 1.326-1.716.052-.104.208-.13.468-.078.26.052.434.052.52 0a.381.381 0 0 0 .182-.13.386.386 0 0 0 .104-.182.713.713 0 0 0 .026-.156.52.52 0 0 0 0-.234v-.208c0-.087.044-.251.13-.494.104-.26.19-.39.26-.39.035 0 .07.043.104.13.122.347-.008.901-.39 1.664-.364.745-.71 1.309-1.04 1.69-.208.26-.736.997-1.586 2.21-.832 1.196-1.473 2.002-1.924 2.418a2.34 2.34 0 0 0-.286.234 6.746 6.746 0 0 0-.286.26l-.26.26a2.406 2.406 0 0 0-.234.312c-.052.087-.112.2-.182.338a1.438 1.438 0 0 0-.104.364 7.523 7.523 0 0 1 2.236-.364c1.335 0 2.548.511 3.64 1.534.104.104.269.312.494.624.225.312.433.546.624.702a.63.63 0 0 0 .598.104c.953-.364 2.383-.771 4.29-1.222.97-.225 2.01-.607 3.12-1.144.416.381.624.702.624.962 0 .312-.312.546-.936.702-.173.052-.477.477-.91 1.274-.416.78-.65 1.283-.702 1.508a.354.354 0 0 0 .026.234c.035.07.095.147.182.234.104.07.174.13.208.182.104.156.087.286-.052.39-.139.087-.33.13-.572.13-.416 0-.684-.121-.806-.364a.695.695 0 0 1 .026-.312c.035-.139.035-.243 0-.312-.017-.052-.087-.104-.208-.156-.121-.052-.173-.104-.156-.156.017-.139.173-.46.468-.962.59-.97.763-1.439.52-1.404a.2.2 0 0 0-.078.026c-.242.104-1.057.32-2.444.65-1.37.312-2.253.58-2.652.806.017-.017.043.13.078.442s.06.641.078.988c.017.33.017.52 0 .572a2.673 2.673 0 0 1-1.17 1.742c-.606.399-1.404.737-2.392 1.014-1.577.416-2.972.624-4.186.624-1.82 0-2.79-.52-2.912-1.56-.017-.243.113-.485.39-.728.295-.26.563-.381.806-.364.399 0 .65-.07.754-.208.104-.156.113-.295.026-.416-.07-.121-.026-.19.13-.208.017 0 .148.035.39.104.295.104.58.043.858-.182.295-.225.512-.355.65-.39.45-.139 1.188-.442 2.21-.91 1.023-.485 1.846-.789 2.47-.91.277-.07.095-.433-.546-1.092-.59-.607-1.057-.953-1.404-1.04a9.969 9.969 0 0 0-1.95-.208c-1.473 0-2.652.355-3.536 1.066-.07.07-.242.225-.52.468-.26.225-.468.399-.624.52Zm1.482 4.472c.815 0 1.344.095 1.586.286.416.33.875.529 1.378.598.139.017.364-.113.676-.39.312-.277.59-.442.832-.494.19-.035.624-.19 1.3-.468.676-.277 1.066-.45 1.17-.52.052-.052.165-.095.338-.13a.648.648 0 0 0 .442-.286c.104-.156.19-.433.26-.832a5.5 5.5 0 0 0 .026-.546.623.623 0 0 0-.208-.494c-.121-.121-.312-.13-.572-.026-.59.225-1.326.572-2.21 1.04-1.421.763-2.652 1.196-3.692 1.3-.052 0-.121-.113-.208-.338-.035-.104-.078-.121-.13-.052-.121.173-.173.303-.156.39.035.07.044.139.026.208-.017.07-.104.147-.26.234-.156.07-.355.243-.598.52Zm22.802-13.884c0-.07-.182-.217-.546-.442-.347-.225-.485-.399-.416-.52.19-.416.356-.624.494-.624.122 0 .356.095.702.286.277.156.442.312.494.468.052.139.035.33-.052.572-.017.052-.095.13-.234.234-.139.104-.251.156-.338.156-.07 0-.104-.043-.104-.13Zm-21.866 14.69a.406.406 0 0 0-.078.104c0 .052.017.087.052.104l.078.078a.713.713 0 0 0 .286.078.29.29 0 0 0 .13.026l.078.026c.45.104.667.052.65-.156 0-.19-.173-.355-.52-.494L50.01 45a.324.324 0 0 0-.182 0c-.052.035-.095.06-.13.078a.41.41 0 0 1-.078.104.778.778 0 0 1-.078.104Zm21.476-14.534c-.017.173-.121.26-.312.26a.398.398 0 0 1-.338-.182c-.087-.121-.087-.277 0-.468.035-.052.147-.017.338.104.208.121.312.217.312.286Zm-.514 13.052c-.606.243-1.057.364-1.352.364-.294 0-.546-.139-.754-.416a1.673 1.673 0 0 1-.312-.988c0-.225.052-.485.156-.78.104-.312.2-.563.286-.754.104-.19.26-.46.468-.806.208-.347.338-.572.39-.676.087-.173.26-.347.52-.52.278-.173.52-.26.728-.26a.56.56 0 0 1 .312.104c.104.07.156.156.156.26 0 .173-.13.45-.39.832-.26.364-.468.624-.624.78-.121.121-.251.373-.39.754-.138.364-.208.641-.208.832 0 .104.052.156.156.156.468-.347 1.188-.728 2.158-1.144.97-.433 1.838-.789 2.6-1.066.78-.295 1.188-.468 1.222-.52.243-.277.564-.416.962-.416.156 0 .434.035.832.104.416.052.746.078.988.078.19 0 .347.165.468.494.122.312.208.659.26 1.04.07.381.2.737.39 1.066.208.312.477.468.806.468.486 0 1.257-.208 2.314-.624 1.058-.416 1.664-.624 1.82-.624.243 0 .364.052.364.156 0 .277-.13.503-.39.676-.138.087-.407.26-.806.52a8.42 8.42 0 0 1-.884.546c-.19.104-.45.243-.78.416a4.185 4.185 0 0 1-.91.338 3.85 3.85 0 0 1-.884.104c-.277 0-.658-.139-1.144-.416-.485-.277-.797-.615-.936-1.014a7.232 7.232 0 0 1-.234-.91c-.086-.416-.182-.71-.286-.884a.523.523 0 0 0-.494-.286c-.208 0-.364.052-.468.156-.156.156-.996.485-2.522.988-1.525.485-2.366.884-2.522 1.196-.104.19-.46.416-1.066.676Zm15.523.286c-.017-.26.087-.572.312-.936.243-.364.46-.607.65-.728.156-.104.356-.312.598-.624.26-.33.451-.537.572-.624.104-.087.252-.243.442-.468.208-.243.399-.442.572-.598.191-.156.373-.243.546-.26a.826.826 0 0 1 .494.104.42.42 0 0 1 .234.39c0 .052-.026.113-.078.182-.052.052-.078.087-.078.104 0 .035.026.087.078.156.052.07.078.13.078.182 0 .399-.32.702-.962.91-.138.052-.294.165-.468.338a2.293 2.293 0 0 1-.39.364c-.416.208-.624.373-.624.494s.07.182.208.182c.122 0 .295-.078.52-.234.243-.156.494-.33.754-.52a8.59 8.59 0 0 1 .546-.39 3.216 3.216 0 0 0 .416-.26.663.663 0 0 0 .156-.156.46.46 0 0 0 .13-.208c0-.035.382-.2 1.144-.494.763-.312 1.144-.641 1.144-.988a.394.394 0 0 0-.156-.312.425.425 0 0 0-.312-.13c-.121 0-.303.095-.546.286-.225.19-.39.286-.494.286-.19 0-.286-.217-.286-.65 0-.277.148-.529.442-.754.295-.225.598-.338.91-.338.26 0 .564.139.91.416.347.277.52.598.52.962 0 .173-.156.338-.468.494-.294.139-.442.286-.442.442 0 .104.044.156.13.156.052 0 .139-.06.26-.182.139-.121.243-.182.312-.182.087 0 .13.035.13.104 0 .139-.078.295-.234.468-.156.173-.234.338-.234.494v.468c.018.208.026.364.026.468 0 .139-.026.338-.078.598-.052.26-.078.442-.078.546 0 .225.122.338.364.338.122 0 .312-.104.572-.312.26-.208.46-.338.598-.39.347-.139.824-.46 1.43-.962.607-.52 1.196-.98 1.768-1.378.572-.416 1.066-.624 1.482-.624.122 0 .234-.017.338-.052.104-.052.208-.121.312-.208.122-.087.217-.156.286-.208a5 5 0 0 0 .26-.286l.234-.234a.825.825 0 0 1-.312-.52c-.017-.312.191-.641.624-.988.243-.173.494-.26.754-.26.364 0 .546.156.546.468 0 .156.035.234.104.234.104 0 .295-.156.572-.468.295-.33.624-.72.988-1.17.382-.468.685-.806.91-1.014a14.3 14.3 0 0 0 .728-.65c.312-.277.572-.511.78-.702.226-.208.451-.407.676-.598.243-.208.442-.364.598-.468.174-.104.304-.156.39-.156.018 0 .044.009.078.026h.104c.243 0 .555-.468.936-1.404.052-.139.234-.243.546-.312.33-.087.529-.173.598-.26.122-.156.182-.277.182-.364 0-.07-.043-.104-.13-.104-.052 0-.138.06-.26.182-.121.121-.199.182-.234.182-.052 0-.078-.035-.078-.104 0-.225.2-.563.598-1.014a17.87 17.87 0 0 1 1.404-1.404l.806-.702c.07-.07.165-.2.286-.39a1.85 1.85 0 0 1 .364-.468.658.658 0 0 1 .442-.156c.26 0 .442.113.546.338.122.225.122.477 0 .754-.208.433-.606 1.075-1.196 1.924-.589.85-1.005 1.317-1.248 1.404-.138.087-.286.277-.442.572-.156.295-.286.503-.39.624-.277.277-.702.91-1.274 1.898-.554.988-.927 1.62-1.118 1.898a4.546 4.546 0 0 0-.26.338c-.138.173-.268.347-.39.52-.121.173-.251.364-.39.572a3.276 3.276 0 0 0-.312.572c-.052.173-.052.303 0 .39.035.104.139.156.312.156.139 0 .364-.052.676-.156.312-.104.529-.156.65-.156 2.184 0 4.082.19 5.694.572a3.839 3.839 0 0 1 1.534.754 3.45 3.45 0 0 1 1.066 1.352c.104.225.347.45.728.676.382.225.702.468.962.728.26.26.347.58.26.962-.19.121-.39.182-.598.182-.138-.017-.338-.104-.598-.26-.242-.173-.442-.286-.598-.338-.277-.087-.615-.373-1.014-.858-.398-.503-.693-.945-.884-1.326-.138-.277-.537-.485-1.196-.624a7.434 7.434 0 0 0-1.742-.234c-.329 0-.832-.06-1.508-.182-.676-.121-1.178-.182-1.508-.182-.312 0-.771.026-1.378.078a16.44 16.44 0 0 1-1.3.078 1.07 1.07 0 0 0-.65.234c-.19.156-.312.338-.364.546-.069.295-.26.685-.572 1.17-.312.468-.502.78-.572.936a1.038 1.038 0 0 0-.104.286c-.017.139-.052.234-.104.286-.138.156-.303.433-.494.832-.19.399-.364.676-.52.832-.069.087-.147.269-.234.546-.069.295-.182.468-.338.52-.208.052-.355.026-.442-.078-.086-.104-.13-.269-.13-.494 0-.381.096-.667.286-.858.156-.156.278-.46.364-.91.087-.468.226-.771.416-.91.139-.104.208-.217.208-.338 0-.139.13-.442.39-.91.278-.485.486-.806.624-.962.347-.416.208-.624-.416-.624a3.64 3.64 0 0 0-.884.104c-.606.139-1.17.087-1.69-.156l-1.274.962a17.27 17.27 0 0 1-.91.572c-.416.243-.736.468-.962.676-.762.693-1.802 1.473-3.12 2.34-1.317.867-2.305 1.3-2.964 1.3-.416 0-.624-.303-.624-.91 0-.347.078-.875.234-1.586.174-.71.26-1.127.26-1.248 0-.173-.19-.26-.572-.26-.242 0-.511.07-.806.208a6.65 6.65 0 0 0-.936.52 9.488 9.488 0 0 1-.676.416c-.086.052-.485.364-1.196.936-.71.555-1.248.832-1.612.832a.786.786 0 0 1-.468-.13c-.121-.07-.182-.19-.182-.364Zm18.668-6.604c-.416.45-.858.85-1.326 1.196h.442c.035 0 .226.017.572.052.364.017.668.017.91 0 .243-.017.399-.078.468-.182.018-.035.174-.208.468-.52.295-.33.503-.615.624-.858.018-.035.078-.19.182-.468.122-.295.226-.494.312-.598.052-.052.217-.182.494-.39.278-.208.477-.39.598-.546.122-.121.269-.355.442-.702.191-.364.356-.615.494-.754.711-.71 1.075-1.161 1.092-1.352 0-.104-.078-.156-.234-.156-.19 0-.173-.13.052-.39l.208-.312c0-.052-.034-.087-.104-.104-.121-.017-.294.121-.52.416-.225.295-.338.52-.338.676 0 .07.026.104.078.104.087 0 .148.009.182.026.052.017.07.07.052.156-.034.121-.138.269-.312.442-.104.121-.268.234-.494.338-.225.104-.372.2-.442.286-.658.832-1.308 1.404-1.95 1.716-.104.052-.294.217-.572.494-.26.26-.554.563-.884.91-.312.33-.476.503-.494.52Zm16.978-5.356a.435.435 0 0 0-.026-.182c-.017-.035 0-.07.052-.104.052-.052.087-.078.104-.078a.288.288 0 0 1 .104-.052.467.467 0 0 1 .13-.052c.156-.07.321-.043.494.078.174.104.364.277.572.52l.39.39c.208.156.304.373.286.65-.017.277-.164.416-.442.416a.736.736 0 0 1-.494-.208 3.485 3.485 0 0 1-.494-.572 3.558 3.558 0 0 0-.312-.442l-.156-.078a.499.499 0 0 1-.208-.286Zm-9.048-3.9c-.069.035-.069.087 0 .156.087.052.191.13.312.234.139.104.208.217.208.338 0 .104-.104.182-.312.234-.19.035-.286.173-.286.416 0 .087.061.13.182.13a.423.423 0 0 0 .312-.13c.33-.433.494-.84.494-1.222 0-.277-.104-.416-.312-.416-.156 0-.355.087-.598.26ZM90.628 40.268c0-.399.07-.598.208-.598.104 0 .2.052.286.156.087.104.13.2.13.286 0 .07-.06.173-.182.312-.121.121-.216.182-.286.182-.104 0-.156-.113-.156-.338Zm33.321 2.938c-.346-.052-.676-.26-.988-.624-.294-.381-.39-.72-.286-1.014a3.24 3.24 0 0 0 .104-.442 2.375 2.375 0 0 1 .338-.91c.122-.173.338-.425.65-.754.312-.33.52-.58.624-.754a1.35 1.35 0 0 1 .312-.312c.156-.121.33-.234.52-.338.191-.104.321-.182.39-.234.416-.26.694-.39.832-.39a.28.28 0 0 1 .208.078c.104.121.044.295-.182.52-.208.208-.294.338-.26.39.087.139.165.208.234.208.087 0 .208-.208.364-.624.174-.416.347-.624.52-.624.139 0 .312.06.52.182.208.121.356.182.442.182.451.017.928-.208 1.43-.676.243-.208.59-.312 1.04-.312.33 0 .624.06.884.182.26.104.39.251.39.442 0 .555-.069.997-.208 1.326-.173.433-.346.737-.52.91a2.16 2.16 0 0 1-.65.468c-.26.121-.494.269-.702.442-.104.087-.312.208-.624.364-.312.139-.528.286-.65.442-.173.225-.563.52-1.17.884-.606.347-1.066.555-1.378.624a1.08 1.08 0 0 0-.39.182.883.883 0 0 1-.364.182c-.346.07-.823.07-1.43 0Zm.988-3.224c-.71.572-1.066 1.075-1.066 1.508 0 .364.165.546.494.546.226 0 .538-.052.936-.156.416-.104.694-.208.832-.312.156-.121.451-.295.884-.52.451-.243.728-.399.832-.468a.82.82 0 0 0 .13-.104.758.758 0 0 0 .104-.078l.052-.052c.018-.017.035-.026.052-.026.018 0 .13.113.338.338.087.087.148.13.182.13.087 0 .139-.07.156-.208a.75.75 0 0 0-.052-.468c-.069-.173-.164-.286-.286-.338-.104-.035-.234-.217-.39-.546-.156-.33-.303-.546-.442-.65a.55.55 0 0 0-.364-.13c-.121 0-.303.087-.546.26-.242.156-.433.234-.572.234a.762.762 0 0 0-.468.182 2.976 2.976 0 0 0-.468.468c-.138.19-.251.32-.338.39Zm.468-1.768c-.329 0-.65.19-.962.572-.312.364-.364.685-.156.962.139.156.425-.035.858-.572.399-.572.486-.893.26-.962Zm3.718-.156c-.069-.035-.13-.035-.182 0-.034.035-.052.095-.052.182v.208c.018.07.035.156.052.26.018.087.026.139.026.156.035.243.078.381.13.416.052.017.156.026.312.026.122 0 .269-.095.442-.286.174-.19.278-.295.312-.312.208-.156.364-.381.468-.676.052-.139.026-.19-.078-.156a.203.203 0 0 0-.078.026 1.872 1.872 0 0 1-.884.234c-.156 0-.312-.026-.468-.078Zm-.676 2.678c-.173-.07-.407-.043-.702.078a1.81 1.81 0 0 0-.676.494c-.173.19-.216.33-.13.416.122.121.486-.026 1.092-.442.434-.295.572-.477.416-.546Zm1.924-3.614c-.433 0-.667.104-.702.312-.017.087.026.165.13.234.122.087.321.087.598 0 .295-.104.434-.234.416-.39-.017-.104-.164-.156-.442-.156Zm-.988 2.704c-.104.104-.112.225-.026.364.087.139.2.156.338.052.052-.017.061-.07.026-.156a.77.77 0 0 1-.052-.156c.052-.104.33-.373.832-.806.208-.173.26-.269.156-.286-.104-.017-.225.017-.364.104-.138.07-.26.156-.364.26-.086.087-.19.208-.312.364a6.618 6.618 0 0 1-.234.26Zm-4.654 2.314c-.225 0-.173.078.156.234.503.26.763.303.78.13.018-.052-.017-.13-.104-.234a.332.332 0 0 0-.208-.13 1.257 1.257 0 0 0-.364 0h-.26Zm11.865 1.664c-.607.243-1.057.364-1.352.364-.295 0-.546-.139-.754-.416a1.673 1.673 0 0 1-.312-.988c0-.225.052-.485.156-.78.104-.312.199-.563.286-.754.104-.19.26-.46.468-.806.208-.347.338-.572.39-.676.087-.173.26-.347.52-.52.277-.173.52-.26.728-.26a.56.56 0 0 1 .312.104c.104.07.156.156.156.26 0 .173-.13.45-.39.832-.26.364-.468.624-.624.78-.121.121-.251.373-.39.754-.139.364-.208.641-.208.832 0 .104.052.156.156.156.468-.347 1.187-.728 2.158-1.144a40.057 40.057 0 0 1 2.6-1.066c.78-.295 1.187-.468 1.222-.52.243-.277.563-.416.962-.416.156 0 .433.035.832.104.416.052.745.078.988.078.191 0 .347.165.468.494.121.312.208.659.26 1.04.069.381.199.737.39 1.066.208.312.477.468.806.468.485 0 1.257-.208 2.314-.624 1.057-.416 1.664-.624 1.82-.624.243 0 .364.052.364.156 0 .277-.13.503-.39.676-.139.087-.407.26-.806.52-.381.26-.676.442-.884.546-.191.104-.451.243-.78.416a4.177 4.177 0 0 1-.91.338 3.85 3.85 0 0 1-.884.104c-.277 0-.659-.139-1.144-.416-.485-.277-.797-.615-.936-1.014a7.376 7.376 0 0 1-.234-.91c-.087-.416-.182-.71-.286-.884a.524.524 0 0 0-.494-.286c-.208 0-.364.052-.468.156-.156.156-.997.485-2.522.988-1.525.485-2.366.884-2.522 1.196-.104.19-.459.416-1.066.676Zm14.429 1.508c-.139-.173-.182-.338-.13-.494.034-.104.069-.165.104-.182.052-.035.13-.043.234-.026a.79.79 0 0 0 .234-.026c.45-.07 1.161-.303 2.132-.702l.234-.078a1.71 1.71 0 0 0 .39-.13c.104-.052.156-.104.156-.156 0-.156-.096-.355-.286-.598a32.34 32.34 0 0 0-.728-.884 5.25 5.25 0 0 1-.676-1.04c-.07-.139-.2-.347-.39-.624a22.406 22.406 0 0 1-.442-.78 2.85 2.85 0 0 1-.208-.728c-.087-.555-.009-.936.234-1.144.069 0 .086-.095.052-.286-.018-.19-.018-.312 0-.364.052-.173.346-.364.884-.572.537-.225.901-.32 1.092-.286.762.173 1.291.373 1.586.598.294.208.52.641.676 1.3.121.641.104.927-.052.858-.018 0-.035-.009-.052-.026-.018-.017-.026-.06-.026-.13 0-.087-.018-.147-.052-.182a.177.177 0 0 0-.13-.052c-.052 0-.096-.026-.13-.078a11.97 11.97 0 0 0-.364-.78c0-.017-.026-.017-.078 0-.052.017-.096 0-.13-.052.052-.104 0-.208-.156-.312-.052-.017-.087-.017-.104 0-.018 0-.044.017-.078.052-.035.035-.061.052-.078.052-.052.017-.122-.009-.208-.078-.087-.087-.156-.113-.208-.078-.052.052-.061.104-.026.156.034.035.112.087.234.156.104.07.138.113.104.13 0 .035-.052.035-.156 0a3.085 3.085 0 0 0-.806-.13c-.572 0-.884.338-.936 1.014 0 .104.052.32.156.65.104.312.182.494.234.546.121.104.26.286.416.546.156.26.242.399.26.416.19.277.398.537.624.78.606.607.988 1.213 1.144 1.82 0 .156.008.26.026.312.034.052.017.139-.052.26-.052.121-.087.2-.104.234-.018.017-.07.095-.156.234a2.42 2.42 0 0 1-.182.234c-.208.243-.408.381-.598.416-.052 0-.156-.017-.312-.052-.139-.017-.234 0-.286.052-.52.243-.91.381-1.17.416-.035-.052-.052-.087-.052-.104a.835.835 0 0 0 .078-.104.417.417 0 0 0 .104-.156c0-.07-.044-.13-.13-.182 0 .225-.174.425-.52.598-.642.087-1.04.009-1.196-.234Zm.936-7.462c-.087.087-.104.182-.052.286.069.087.147.13.234.13.086 0 .13-.07.13-.208 0-.312-.104-.381-.312-.208Z"/></svg>