<svg xmlns="http://www.w3.org/2000/svg" width="155" height="64" fill="none"><path fill="#335C30" d="M1.874 19.762c-.087.156-.33.45-.728.884-.382.416-.633.624-.754.624-.104 0-.191-.078-.26-.234a.734.734 0 0 1-.052-.468c0-.087.034-.165.104-.234.086-.087.13-.173.13-.26a.361.361 0 0 1 .104-.364c.294-.503.788-1.17 1.482-2.002.034-.052.078-.147.13-.286.052-.139.121-.234.208-.286a1.11 1.11 0 0 0 .156-.104.406.406 0 0 0 .104-.078.253.253 0 0 0 .052-.13.676.676 0 0 0 .026-.208c.034-.087.13-.208.286-.364.173-.173.277-.33.312-.468.104-.399.511-1.04 1.222-1.924.71-.901 1.161-1.542 1.352-1.924a7.14 7.14 0 0 1 .676-1.092.697.697 0 0 0 .13-.364c.017-.173.069-.303.156-.39a.74.74 0 0 1 .156-.13c.052-.017.086-.017.104 0a.558.558 0 0 1 .13.104.557.557 0 0 0 .13.104c.121.087.242.104.364.052a.416.416 0 0 0 .208-.338.354.354 0 0 0-.026-.234 1.116 1.116 0 0 0-.208-.26 4.485 4.485 0 0 0-.156-.182c.069-.052.164-.07.286-.052.138.018.234.052.286.104.104.104.138.356.104.754-.018.07-.07.173-.156.312a1.73 1.73 0 0 0-.13.26l-.364.728c-.191.399-.321.72-.39.962-.052.26-.139.468-.26.624-.434.572-.659.936-.676 1.092.19.052.364.078.52.078.641 0 1.56-.407 2.756-1.222.416-.242.91-.615 1.482-1.118l.208-.208c.086-.104.164-.19.234-.26.086-.07.164-.139.234-.208.641-.502 1.282-1.178 1.924-2.028.034-.034.043-.095.026-.182 0-.104.026-.182.078-.234.208-.156.338-.303.39-.442 0-.19.008-.312.026-.364.034-.07.13-.164.286-.286.017-.052.026-.156.026-.312.017-.173.034-.26.052-.26l.078.052c.052.139.086.208.104.208.017.018.026 0 .026-.052a.66.66 0 0 0-.078-.39l-.078-.182c-.018-.086.034-.268.156-.546.034-.121.052-.234.052-.338.017-.121.017-.2 0-.234 0-.052-.026-.147-.078-.286a4.627 4.627 0 0 0-.078-.286 3.416 3.416 0 0 1-.052-.26.864.864 0 0 0-.052-.208.418.418 0 0 0-.052-.182.957.957 0 0 0-.182-.234c-.052-.07-.122-.242-.208-.52-.156 0-.304-.07-.442-.208-.347-.294-.841-.554-1.482-.78-.624-.242-1.179-.364-1.664-.364-.226 0-.39.026-.494.078-.087.035-.338.174-.754.416-.416.243-.763.408-1.04.494a1.009 1.009 0 0 1-.13.052.428.428 0 0 1-.13.026.2.2 0 0 0-.078.026l-.052.052-.052.052a.302.302 0 0 0-.052.078 1.27 1.27 0 0 1-.078.13h-.26c.034.208.008.312-.078.312-.035 0-.061-.017-.078-.052-.035-.052-.035-.112 0-.182l-.052-.026a6.52 6.52 0 0 0-.234.13c-.104.07-.2.13-.286.182a.457.457 0 0 0-.182.182.226.226 0 0 0-.026.234c.086.208-.061.312-.442.312 0-.294.069-.546.208-.754.034-.052.069-.07.104-.052.086.07.234.035.442-.104.104-.104.104-.182 0-.234-.035-.017-.096 0-.182.052a2.75 2.75 0 0 0-.182.078c-.035.018-.061 0-.078-.052 0-.07.052-.138.156-.208.104-.07.164-.112.182-.13.208.035.32.035.338 0 0-.017-.009-.034-.026-.052-.035-.07-.078-.104-.13-.104H6.58a.282.282 0 0 0 .104-.052c.034-.034.052-.06.052-.078a.282.282 0 0 0 .052-.104c.017-.07.034-.13.052-.182.034-.052.104-.017.208.104.017.035.043.035.078 0l.13-.13a.346.346 0 0 1 .208-.078c.242 0 .355-.052.338-.156-.018-.104-.13-.121-.338-.052a.46.46 0 0 0-.208.13c-.07.07-.139.078-.208.026-.018-.017.034-.078.156-.182.138-.121.294-.242.468-.364.19-.138.303-.225.338-.26l.156-.13c.104-.104.19-.173.26-.208.069-.052.138-.07.208-.052.104.018.234-.017.39-.104a.596.596 0 0 1 .442-.078.41.41 0 0 0 .156-.104.558.558 0 0 1 .13-.104c.052-.017.086-.017.104 0 .034 0 .069.018.104.052a.426.426 0 0 0 .104.026l.078.026a.302.302 0 0 0 .052-.078.302.302 0 0 1 .052-.078c.052-.017.312-.008.78.026.485.035.771.07.858.104a4.07 4.07 0 0 1 2.106 1.014c.034.035.156.087.364.156.208.052.312.165.312.338a.551.551 0 0 1 .234.208.716.716 0 0 0 .182.208c.19.139.39.572.598 1.3.208.728.268 1.222.182 1.482 0 .018-.052.364-.156 1.04-.104.659-.182 1.023-.234 1.092-.018.018-.061.035-.13.052-.052.018-.087.044-.104.078 0 .434-.356 1.179-1.066 2.236-.711 1.057-1.205 1.603-1.482 1.638-.07.018-.148.104-.234.26a1.828 1.828 0 0 1-.182.26c-.763.624-1.17.945-1.222.962-.278.226-.442.355-.494.39a.577.577 0 0 1-.182.078c-.052 0-.087.009-.104.026-.018.018-.026.078-.026.182-.174.052-.425.208-.754.468-.312.26-.59.399-.832.416a3.675 3.675 0 0 0-.624.364c-.208-.052-.33.018-.364.208a.602.602 0 0 0 .052.338c.069.121.156.251.26.39.104.122.173.217.208.286.034.174.138.39.312.65.173.243.286.416.338.52.988 2.08 2.27 3.476 3.848 4.186.624.312 1.482.45 2.574.416.121-.017.329-.008.624.026.294.035.442.096.442.182-.052.035-.087.052-.104.052 0 .017-.035.009-.104-.026l-.156-.078c-.07.052-.044.121.078.208.121.104.13.19.026.26l-.546.234c-.607.26-1.127.373-1.56.338 0 .087-.07.13-.208.13-.295 0-.806-.139-1.534-.416-.711-.277-1.17-.476-1.378-.598a4.311 4.311 0 0 1-1.69-2.002c-.104 0-.347-.295-.728-.884-.382-.59-.572-.945-.572-1.066 0-.104-.052-.173-.156-.208-.087-.052-.13-.139-.13-.26a6.584 6.584 0 0 1-.52-1.274c-.018-.052-.061-.095-.13-.13-.07-.052-.122-.078-.156-.078-.018-.017 0-.052.052-.104l.13-.052a.864.864 0 0 0 .208-.052.557.557 0 0 0 .13-.104c.052-.07.043-.138-.026-.208-.052-.087-.104-.13-.156-.13-.156 0-.312.156-.468.468-.035-.225-.208-.485-.52-.78-.312-.312-.59-.468-.832-.468-.087 0-.208.104-.364.312-.07.087-.243.347-.52.78-.26.416-.494.702-.702.858-.208.174-.33.408-.364.702-.104.26-.347.59-.728.988-.364.399-.607.702-.728.91Zm9.308-7.774c-.104.243-.096.356.026.338.069 0 .208-.043.416-.13.086-.034.13-.086.13-.156s.026-.121.078-.156c.017 0 .043-.017.078-.052.294-.139.45-.234.468-.286 0-.034-.026-.06-.078-.078-.226-.07-.399-.078-.52-.026a.324.324 0 0 0-.182.26c-.018.104-.044.2-.078.286-.018.07-.044.087-.078.052-.104-.138-.191-.156-.26-.052Zm-4.29-9.022c-.052.052-.044.087.026.104h.078c.034 0 .06-.017.078-.052a.773.773 0 0 1 .078-.104.11.11 0 0 1 .104 0c.017.018 0 .104-.052.26.242 0 .381-.017.416-.052.104-.121.138-.216.104-.286-.018-.086-.096-.13-.234-.13-.174 0-.373.087-.598.26Zm.156 1.482c-.035.174-.122.243-.26.208-.139-.052-.174-.164-.104-.338.086-.208.121-.364.104-.468.242.104.329.304.26.598Zm-.858.754c-.104 0-.174-.034-.208-.104-.018-.07.008-.138.078-.208.156.018.312.07.468.156a.472.472 0 0 1-.338.156Zm-.572.13v-.286c.017-.017.069-.008.156.026 0 .035.017.087.052.156-.018.156-.052.234-.104.234-.035-.017-.07-.06-.104-.13Zm1.118-.546c-.087.087-.191.087-.312 0 .086-.225.19-.225.312 0Zm10.342 11.31c.225 0 .589-.095 1.092-.286.502-.208.875-.312 1.118-.312.069 0 .182.06.338.182a.806.806 0 0 0 .442.156c.38 0 .572-.45.572-1.352 0-.45.606-.676 1.82-.676h.13c.364 0 .806.208 1.326.624.52.416.78.823.78 1.222 0 .26-.113.494-.338.702-.226.19-.546.347-.962.468-.416.104-.798.19-1.144.26-.347.052-.763.113-1.248.182-.486.052-.798.087-.936.104-.243.052-.364.147-.364.286 0 .33.19.659.572.988.398.33.797.494 1.196.494.19 0 .372.078.546.234a.895.895 0 0 0 .572.208c.468 0 .814-.034 1.04-.104.225-.07.398-.104.52-.104.069 0 .147.026.234.078a.599.599 0 0 0 .234.078c.052 0 .12-.034.208-.104a.73.73 0 0 1 .286-.182c.45-.121.9-.182 1.352-.182.069 0 .329-.112.78-.338.45-.225.806-.338 1.066-.338.416 0 .884-.19 1.404-.572.537-.399.996-.598 1.378-.598.242 0 .39.087.442.26.069.156.138.234.208.234.468 0 1.022-.07 1.664-.208.64-.139.962-.277.962-.416 0-.173-.295-.26-.884-.26-.4 0-.893-.043-1.482-.13-.572-.104-.858-.251-.858-.442 0-.052.208-.104.624-.156.19-.017.442-.13.754-.338.312-.208.52-.312.624-.312.069 0 .19.13.364.39.19.243.39.364.598.364h.338c.138-.017.242-.026.312-.026.173 0 .407.06.702.182.294.104.485.165.572.182.12.017.32 0 .598-.052.294-.07.502-.104.624-.104.537 0 .806.208.806.624 0 .399-.174.789-.52 1.17-.33.364-.494.668-.494.91 0 .104.104.156.312.156.208 0 .598-.087 1.17-.26.589-.173 1.005-.26 1.248-.26.364 0 .598.087.702.26a.172.172 0 0 1-.026.156c-.052.052-.13.043-.234-.026-.087-.086-.14-.13-.156-.13-.052 0-.122.052-.208.156-.226.312-.624.633-1.196.962-.572.312-1.11.468-1.612.468-.33 0-.65-.095-.962-.286-.295-.208-.442-.468-.442-.78 0-.294.156-.607.468-.936.329-.33.65-.633.962-.91.329-.277.494-.485.494-.624 0-.07-.087-.104-.26-.104-.295 0-.494.121-.598.364a1.19 1.19 0 0 1-.546.546c-.226.104-.572.2-1.04.286-.468.087-.763.148-.884.182-.104.035-.278.156-.52.364-.226.208-.4.312-.52.312a.445.445 0 0 1-.208-.078c-.174-.139-.304-.208-.39-.208-.191 0-.33.043-.416.13a.614.614 0 0 0-.13.286c0 .104-.07.2-.208.286-.122.087-.321.13-.598.13-.174 0-.434-.034-.78-.104-.347-.087-.598-.13-.754-.13-.278 0-.711.122-1.3.364-.59.243-.962.381-1.118.416-1.456.399-2.522.624-3.198.676-.364.017-.806.026-1.326.026-2.15 0-3.675-.884-4.576-2.652-.035-.07-.113-.234-.234-.494-.104-.277-.2-.476-.286-.598a1.805 1.805 0 0 0-.26-.26 1.247 1.247 0 0 1-.26-.286.868.868 0 0 1-.078-.39Zm3.588-.13c0 .139.078.208.234.208.416 0 .736-.113.962-.338.242-.225.52-.338.832-.338.26 0 .424-.086.494-.26-.174 0-.477-.095-.91-.286-.434-.19-.737-.286-.91-.286-.26 0-.39.078-.39.234 0 .07.017.165.052.286a.599.599 0 0 1 .078.234c0 .052-.078.13-.234.234-.14.087-.208.19-.208.312Zm22.853 3.588c-.087-.156-.07-.684.052-1.586.104-.797.407-1.88.91-3.25.19-.416.347-.659.468-.728.173-.121.373-.46.598-1.014a.648.648 0 0 0 .052-.286c.017-.138.035-.234.052-.286.537-1.11 1.014-1.932 1.43-2.47.364-.433.797-1.1 1.3-2.002.52-.918.988-1.603 1.404-2.054l.884-1.144a.806.806 0 0 1 .182-.052c.087-.034.156-.06.208-.078.052-.034.078-.078.078-.13-.035-.173-.043-.286-.026-.338.052-.086.078-.104.078-.052.017.052.06.122.13.208.07.07.147.078.234.026.139-.07.217-.086.234-.052.035.018.043.06.026.13-.017.052 0 .096.052.13a.176.176 0 0 0 .13.052h.13a.428.428 0 0 1 .13-.026c.035-.017.06-.017.078 0 .035 0 .052.026.052.078-.017.104-.104.226-.26.364a1.75 1.75 0 0 0-.234.26c-.139.243-.399.616-.78 1.118-.364.503-.676.867-.936 1.092-.156.174-.347.52-.572 1.04-.104.19-.338.555-.702 1.092-.364.537-.615.876-.754 1.014-.173.208-.373.564-.598 1.066-.225.486-.399.815-.52.988-.087.277-.277.668-.572 1.17-.277.486-.468.85-.572 1.092-.104.26-.2.546-.286.858-.087.295-.182.641-.286 1.04-.087.381-.156.676-.208.884-.07.277-.147.737-.234 1.378-.07.624-.07 1.023 0 1.196.173.468.615.771 1.326.91.347.087.685.104 1.014.052.104-.017.173.018.208.104.052.087.07.174.052.26-.017.087-.052.13-.104.13-.017 0-.043-.026-.078-.078-.052-.121-.113-.182-.182-.182-.035 0-.07.017-.104.052a.654.654 0 0 1-.078.156.32.32 0 0 1-.052.13c-.121.087-.399.156-.832.208-.607 0-1.1-.113-1.482-.338-.364-.225-.667-.633-.91-1.222-.035-.086-.043-.234-.026-.442.017-.225-.017-.381-.104-.468ZM51.787 3.59c-.035-.07-.06-.13-.078-.182 0-.07.035-.138.104-.208.087-.086.165-.156.234-.208.07-.052.156-.112.26-.182.104-.086.173-.147.208-.182.243-.208.442-.312.598-.312.139 0 .26.06.364.182.139.174.121.45-.052.832a3.927 3.927 0 0 1-.078.208.806.806 0 0 1-.052.182 1.26 1.26 0 0 1-.078.13.465.465 0 0 1-.13.13 5.352 5.352 0 0 1-.208.13c-.104.07-.225.06-.364-.026-.139-.086-.251-.121-.338-.104-.087.018-.147.018-.182 0a157.45 157.45 0 0 0-.078-.156 1.019 1.019 0 0 0-.13-.234Zm6.497 16.016c-.052 0-.078-.095-.078-.286 0-.19.07-.346.208-.468.156-.139.303-.225.442-.26.156-.034.364-.078.624-.13.035 0 .052.026.052.078a.42.42 0 0 1-.052.182.418.418 0 0 0-.052.182c.07 0 .147-.043.234-.13a.976.976 0 0 0 .182-.312c.555-.121 1.04-.433 1.456-.936.433-.503.797-.797 1.092-.884.121-.33.46-.676 1.014-1.04.555-.364.867-.702.936-1.014.433-.364.97-.918 1.612-1.664.641-.745 1.066-1.222 1.274-1.43a5.9 5.9 0 0 1 .676-.546c.312-.225.546-.416.702-.572a8.746 8.746 0 0 1 1.04-.988 1.08 1.08 0 0 0 .234-.286c.087-.156.165-.268.234-.338.52-.45.893-.788 1.118-1.014a51.434 51.434 0 0 1 2.886-2.652c.035-.034.208-.19.52-.468.33-.294.537-.476.624-.546.104-.086.303-.242.598-.468.295-.242.52-.407.676-.494.173-.086.39-.19.65-.312a3 3 0 0 1 .728-.286c.243-.052.477-.078.702-.078.607 0 .91.33.91.988 0 .867-.2 1.578-.598 2.132a.445.445 0 0 0-.026.182c0 .278-.147.85-.442 1.716-.277.85-.503 1.378-.676 1.586-.641.78-.962 1.283-.962 1.508 0 .295.286.442.858.442.33 0 .58-.078.754-.234.173-.156.399-.294.676-.416.295-.139.511-.26.65-.364.19-.138.477-.33.858-.572.381-.26.71-.494.988-.702a7.69 7.69 0 0 0 .78-.624c.017 0 .052.009.104.026l.052.026c.052 0 .156-.078.312-.234.173-.156.355-.33.546-.52.19-.208.33-.338.416-.39.139-.086.355-.225.65-.416.295-.19.52-.33.676-.416.156-.086.355-.19.598-.312.26-.121.52-.2.78-.234.26-.052.546-.078.858-.078.121.052.243.174.364.364a1.003 1.003 0 0 1 .182.832 2.43 2.43 0 0 1-.078.286 1.672 1.672 0 0 1-.052.234c-.035.122-.07.347-.104.676-.017.33-.052.572-.104.728-.78 2.098-1.699 3.761-2.756 4.992-.832.988-1.43 1.855-1.794 2.6-.347.728-.52 1.664-.52 2.808 0 .382.165.71.494.988.347.278.71.416 1.092.416.243 0 .46-.034.65-.104.017 0 .182-.06.494-.182.33-.121.676-.277 1.04-.468.381-.19.607-.355.676-.494v-.572c0-.138-.035-.242-.104-.312.104-.884.494-1.534 1.17-1.95.052-.45.364-.91.936-1.378.59-.485 1.17-.728 1.742-.728.19 0 .364.035.52.104.07-.052.147-.139.234-.26.104-.121.2-.216.286-.286a.641.641 0 0 1 .364-.104c.45 0 .676.234.676.702 0 .035-.06.165-.182.39-.104.226-.243.503-.416.832-.156.312-.269.555-.338.728 0 .208-.07.555-.208 1.04-.139.485-.208.858-.208 1.118 0 .174.043.364.13.572.104.208.156.382.156.52.087.017.225.035.416.052.19 0 .338.009.442.026.104.017.225.043.364.078a.558.558 0 0 1 .312.182c.07.07.121.165.156.286a2.22 2.22 0 0 1-.494.13 1.697 1.697 0 0 0-.442.078c-.07.018-.19.07-.364.156a.985.985 0 0 1-.364.104c-.381 0-.737-.208-1.066-.624-.312-.433-.468-.858-.468-1.274 0-.121.035-.294.104-.52.087-.242.13-.416.13-.52 0-.173-.026-.277-.078-.312-.07-.035-.2.043-.39.234-.173.19-.399.45-.676.78-.26.33-.477.572-.65.728-.035.035-.19.121-.468.26-.26.139-.407.303-.442.494-1.213 1.11-2.375 1.664-3.484 1.664-.468 0-.884-.06-1.248-.182a1.89 1.89 0 0 1-.832-.546 8.172 8.172 0 0 1-.468-.702c-.121-.208-.208-.485-.26-.832-.035-.364-.06-.615-.078-.754v-.676l.078-.156c.035-.087.087-.2.156-.338.07-.139.139-.286.208-.442.07-.156.121-.312.156-.468.052-.156.078-.286.078-.39 0-.139.06-.268.182-.39a.693.693 0 0 0 .182-.468c0-.121.277-.476.832-1.066.572-.59.858-1.049.858-1.378l-.026-.052a.426.426 0 0 1-.026-.13c.017-.07.035-.104.052-.104l.052.026a.429.429 0 0 0 .13.026c.07 0 .104-.034.104-.104a.177.177 0 0 0-.052-.13.252.252 0 0 1-.052-.13c.555-1.144 1.092-1.993 1.612-2.548a.426.426 0 0 0-.052-.234c.121-.173.225-.39.312-.65a5.01 5.01 0 0 0 .182-.78c.052-.242.095-.398.13-.468 0-.017.035-.07.104-.156.07-.086.104-.164.104-.234a.29.29 0 0 0-.026-.13c-.399.07-.806.217-1.222.442a8.33 8.33 0 0 0-1.144.78c-.347.295-.537.45-.572.468-.017.018-.338.234-.962.65-.104.07-.338.2-.702.39-.364.19-.615.373-.754.546-.555.277-.962.546-1.222.806-.763.797-1.777 1.196-3.042 1.196-.139 0-.225-.078-.26-.234-.017-.156-.078-.234-.182-.234-.017 0-.026.026-.026.078 0 .052-.017.078-.052.078a.494.494 0 0 1-.416-.208.914.914 0 0 1-.13-.442c0-.225.095-.555.286-.988.19-.45.277-.875.26-1.274l.156-.312c.087-.225.2-.46.338-.702.139-.26.26-.416.364-.468.035-.433.078-.745.13-.936 0-.017.07-.268.208-.754.156-.485.277-.918.364-1.3.087-.381.13-.658.13-.832-.416.174-.962.512-1.638 1.014-.676.503-1.257.962-1.742 1.378-.485.416-1.127.98-1.924 1.69-.78.71-1.23 1.127-1.352 1.248-.035.035-.217.2-.546.494-.33.295-.65.59-.962.884-.295.295-.58.59-.858.884-.26.295-.39.494-.39.598l-.13.13a3.97 3.97 0 0 1-.286.312 2.6 2.6 0 0 0-.234.26c-1.213 1.474-2.106 2.392-2.678 2.756-.035.018-.243.2-.624.546-.364.347-.676.563-.936.65l-.104.156a3.82 3.82 0 0 1-.26.39 1.803 1.803 0 0 1-.364.364.894.894 0 0 1-.442.182 1.587 1.587 0 0 0-.338.468c-.173.052-.399.243-.676.572-.26.312-.537.477-.832.494-.381.607-1.014.91-1.898.91-.225 0-.373-.095-.442-.286-.052-.208-.104-.312-.156-.312a.2.2 0 0 0-.078.026h-.026Zm30.862-3.822c-.035-.035-.095-.052-.182-.052s-.165.043-.234.13a.416.416 0 0 0-.104.26c0 .104.026.156.078.156.017 0 .043-.017.078-.052a.252.252 0 0 1 .13-.052l.078.052c.07.052.13.113.182.182.07.07.104.139.104.208 0 .07-.052.113-.156.13-.104 0-.156.026-.156.078.052.121.113.2.182.234a.252.252 0 0 0 .156-.104.932.932 0 0 0 .078-.234c.035-.104.07-.19.104-.26.052-.087.173-.182.364-.286.19-.104.33-.208.416-.312.104-.121.104-.251 0-.39-.017-.017-.078-.026-.182-.026-.139 0-.303.06-.494.182-.19.104-.338.156-.442.156Zm-.13 1.638c.087-.087.095-.165.026-.234-.07-.07-.139-.104-.208-.104-.208 0-.312.13-.312.39.017 0 .052.017.104.052a.492.492 0 0 0 .156.026c.087 0 .165-.043.234-.13ZM60 18.93c-.26.052-.416.19-.468.416.104 0 .19.07.26.208.087.122.165.182.234.182a.492.492 0 0 0 .156-.026c-.156-.242-.234-.416-.234-.52 0-.07.017-.156.052-.26Zm.546-.26a1.25 1.25 0 0 1-.13.286.505.505 0 0 0-.104.26c0 .052.035.078.104.078h.182a.677.677 0 0 1 .208-.026c0-.346-.087-.546-.26-.598Zm35.104-6.864c-.104-.398-.017-.71.26-.936.295-.225.65-.338 1.066-.338.226 0 .442.043.65.13a.25.25 0 0 1-.104.13c-.052.035-.112.07-.182.104a.606.606 0 0 0-.156.104c-.034.035-.13.043-.286.026a.804.804 0 0 0-.546.156c-.156.104-.173.226-.052.364.035.035.113.035.234 0 .122-.052.2-.052.234 0 .035.035.052.07.052.104.018.035.052.07.104.104.07.052.373.234.91.546.66.45 1.162.676 1.508.676.278 0 .477-.113.598-.338.018-.07.122-.242.312-.52a50.2 50.2 0 0 1 .624-.884c.243-.33.382-.52.416-.572.052-.104.208-.407.468-.91.26-.52.503-.918.728-1.196l.832-1.04c.139-.156 1.136-1.456 2.99-3.9l.39-.52c.07-.104.182-.156.338-.156.191 0 .33.06.416.182.174.278.208.46.104.546-.017.018-.034.018-.052 0a.408.408 0 0 0-.026-.13.742.742 0 0 0-.052-.156c-.017-.034-.112-.052-.286-.052a4.46 4.46 0 0 0-.26.546c-.017.07-.017.122 0 .156a.29.29 0 0 0 .13.026c.052 0 .087.009.104.026.035.018.044.052.026.104-.086.226-.268.555-.546.988a19.9 19.9 0 0 0-.52.806c-.208.364-.632.954-1.274 1.768-.641.815-1.04 1.387-1.196 1.716-.19.399-.398.78-.624 1.144-.208.347-.468.737-.78 1.17-.312.434-.537.754-.676.962-.312.399-.45.624-.416.676.104.122.26.2.468.234.174.052.425.096.754.13.347.018.59.043.728.078.087.035.286.06.598.078.33 0 .546-.035.65-.104.035-.034.104 0 .208.104s.148.182.13.234a.392.392 0 0 1-.078.104c-.034.018-.043.035-.026.052.052.035.13 0 .234-.104 0 .121-.017.2-.052.234-.034.018-.078.018-.13 0a.172.172 0 0 0-.156-.026l-.052.052c-.017.018-.026.052-.026.104 0 .035-.008.052-.026.052l-.078-.052a.367.367 0 0 1-.026-.156c0-.07-.008-.104-.026-.104h-.052c-.104.035-.13.104-.078.208.052.052.078.104.078.156 0 .052-.069.087-.208.104-.121 0-.277-.008-.468-.026a3.657 3.657 0 0 0-.286-.052c-.121 0-.303.018-.546.052a4.28 4.28 0 0 1-.572.052c-.173 0-.364-.026-.572-.078-.502-.121-.927-.07-1.274.156-.121.087-.225.2-.312.338a5.39 5.39 0 0 0-.234.572c-.069.225-.112.364-.13.416a21.88 21.88 0 0 1-.286.702c-.138.33-.25.59-.338.78-.069.174-.156.399-.26.676-.104.277-.19.538-.26.78l-.156.728a8.567 8.567 0 0 0-.13 1.092c0 .19.13.243.39.156a.43.43 0 0 1 .13-.026c.07-.017.243-.035.52-.052.295 0 .512-.017.65-.052.052-.017.078-.07.078-.156.052.018.052.06 0 .13-.052.087-.069.139-.052.156.035.052.104.052.208 0 .104-.035.165-.078.182-.13.018-.07-.008-.121-.078-.156-.069-.034-.104-.087-.104-.156-.017-.121.044-.216.182-.286.139-.086.243-.07.312.052.035.104.035.182 0 .234a.758.758 0 0 1-.104.078c-.052.035-.052.078 0 .13.035.018.078-.017.13-.104.087.19.061.303-.078.338-.017 0-.043-.017-.078-.052-.017-.035-.043-.043-.078-.026-.034 0-.052.026-.052.078.018.052.018.078 0 .078h-.078a.45.45 0 0 0-.182.026l-.078.156c-.034.087-.069.156-.104.208-.138.19-.286.312-.442.364a.29.29 0 0 1-.13.026h-.156c-.034.017-.052.035-.052.052-.017.017-.026.043-.026.078s-.017.052-.052.052l-.182-.052-.572.156c-.329 0-.51-.017-.546-.052a.593.593 0 0 0-.234-.13.42.42 0 0 1-.234-.104c-.294-.295-.442-.763-.442-1.404 0-1.473.633-3.363 1.898-5.668a.688.688 0 0 0 .104-.338.326.326 0 0 0-.052-.26.714.714 0 0 0-.182-.208.625.625 0 0 0-.26-.182 2.387 2.387 0 0 0-.312-.13 3.26 3.26 0 0 0-.312-.104 5.649 5.649 0 0 1-.286-.13 3.654 3.654 0 0 1-1.066-.728c-.329-.33-.546-.676-.65-1.04Zm14.041 7.644c-1.369.33-2.366.494-2.99.494a4.184 4.184 0 0 1-1.742-.364c-.537-.26-.806-.658-.806-1.196 0-.087.026-.173.078-.26a.898.898 0 0 1 .13-.208c.035-.052.104-.13.208-.234.122-.104.191-.165.208-.182.104-.104.252-.33.442-.676.191-.364.408-.58.65-.65.191-.052.442-.165.754-.338.33-.19.572-.312.728-.364.139-.052.434-.095.884-.13.468-.052.824-.19 1.066-.416 1.248 0 2.002.442 2.262 1.326.035.104.061.303.078.598.018.277.061.503.13.676.07.156.191.234.364.234.382-.017.858-.19 1.43-.52s1.066-.494 1.482-.494c.26 0 .512-.147.754-.442.26-.312.512-.468.754-.468.191 0 .434-.06.728-.182a6.04 6.04 0 0 1 .65-.26c.226-.052.434-.19.624-.416.191-.242.373-.39.546-.442.52-.138.928-.346 1.222-.624.312-.295.624-.598.936-.91.33-.312.763-.555 1.3-.728.468-.156 1.032-.572 1.69-1.248.676-.676 1.127-1.092 1.352-1.248 1.023-.693 1.924-1.603 2.704-2.73.243-.33.529-.641.858-.936a1.12 1.12 0 0 1 .312-.182 2.65 2.65 0 0 0 .39-.208c.122-.086.182-.173.182-.26 0-.052-.026-.078-.078-.078-.052 0-.26.139-.624.416-.364.26-.589.39-.676.39-.086 0-.13-.043-.13-.13 0-.156.364-.476 1.092-.962.191-.138.373-.39.546-.754.174-.381.356-.71.546-.988.208-.294.468-.442.78-.442.174 0 .312.078.416.234a.8.8 0 0 1 .156.494.413.413 0 0 1-.104.26 1.232 1.232 0 0 1-.26.286l-.208.208c-.086.087-.147.226-.182.416-.017.174-.06.32-.13.442-.121.174-.797 1.006-2.028 2.496a1.976 1.976 0 0 1-.39.338c-.156.122-.26.217-.312.286-.572.85-1.161 1.526-1.768 2.028-.572.486-1.057.91-1.456 1.274-.398.364-.901.867-1.508 1.508-.589.624-1.048 1.248-1.378 1.872-.312.624-.468 1.214-.468 1.768 0 .139.191.277.572.416.399.139.711.208.936.208.087 0 .217-.026.39-.078a1.49 1.49 0 0 1 .494-.104c.156 0 .321-.026.494-.078a1.59 1.59 0 0 1 .442-.078c1.855 0 3.233.19 4.134.572.919.364 1.924 1.292 3.016 2.782.07.104.182.295.338.572.156.295.304.52.442.676.451.52.832.893 1.144 1.118.312.226.702.425 1.17.598a.471.471 0 0 1 .286.234c.087.139.182.208.286.208a.395.395 0 0 0 .156-.052c.087-.017.148-.026.182-.026.122 0 .182.113.182.338 0 .19-.104.286-.312.286-.104 0-.251-.035-.442-.104-.19-.07-.303-.104-.338-.104a.234.234 0 0 0-.104.026c-.034.035-.069.052-.104.052-.416 0-.823-.078-1.222-.234a4.669 4.669 0 0 1-.936-.494c-.242-.156-.52-.433-.832-.832a27.105 27.105 0 0 1-.624-.832 61.01 61.01 0 0 0-.598-.962c-1.074-1.716-2.296-2.574-3.666-2.574-.346 0-.693-.06-1.04-.182a2.586 2.586 0 0 0-1.014-.208c-.381 0-.78.078-1.196.234a3.849 3.849 0 0 1-1.222.208c-.624 0-1.126-.147-1.508-.442-.381-.312-.572-.754-.572-1.326 0-.381.148-.85.442-1.404.312-.572.486-1.014.52-1.326-.329.19-.745.486-1.248.884-.502.399-.927.702-1.274.91-.641.381-1.265.642-1.872.78a.584.584 0 0 0-.208.078.3.3 0 0 0-.104.104l-.104.104a.82.82 0 0 1-.13.104 6.275 6.275 0 0 0-.676.468 4.27 4.27 0 0 1-.78.494c-.208.087-.459.13-.754.13-.173 0-.407.07-.702.208-.294.122-.528.182-.702.182-.346 0-.962.174-1.846.52-.884.33-1.447.52-1.69.572Zm-1.716-2.886c-.381 0-.884.226-1.508.676-.606.45-.91.876-.91 1.274.156.052.39.078.702.078.174 0 .408.026.702.078.312.052.494.078.546.078.07 0 .278-.06.624-.182.347-.121.598-.182.754-.182.07 0 .182.017.338.052.156.035.278.052.364.052.174 0 .416-.095.728-.286.33-.19.59-.295.78-.312 0-1.075-.528-1.612-1.586-1.612-.26 0-.442-.104-.546-.312-.104-.225-.251-.338-.442-.338-.173 0-.442.07-.806.208-.346.121-.528.225-.546.312 0 .07.07.104.208.104.087 0 .226-.043.416-.13.208-.104.364-.156.468-.156.33 0 .494.113.494.338 0 .174-.26.26-.78.26Zm15.21-4.056c-.138-.138-.589.026-1.352.494-.762.45-1.144.78-1.144.988 0 .052.078.078.234.078.174 0 .373-.06.598-.182.226-.121.39-.242.494-.364.035-.052.165-.156.39-.312.243-.156.442-.295.598-.416.174-.139.234-.234.182-.286Zm-16.614 6.552c-.572 0-.858.052-.858.156 0 .139.234.208.702.208.572 0 .858-.07.858-.208 0-.104-.234-.156-.702-.156Zm-1.222-1.508c-.086 0-.208.078-.364.234-.156.156-.234.277-.234.364 0 .07.052.104.156.104.104 0 .217-.07.338-.208.139-.139.208-.26.208-.364 0-.086-.034-.13-.104-.13Zm6.292.234c-.052 0-.104.035-.156.104-.052.07-.026.156.078.26.104.087.2.13.286.13.122 0 .182-.026.182-.078 0-.07-.043-.156-.13-.26-.069-.104-.156-.156-.26-.156Zm24.734 2.34c-.122-.087-.182-.303-.182-.65 0-.364.026-.615.078-.754.242-.815.433-1.36.572-1.638l.754-1.352c.641-.884 1.144-1.326 1.508-1.326.069-.035.138-.121.208-.26.069-.156.173-.251.312-.286 0 .018.043.009.13-.026l.26-.104a.551.551 0 0 1 .156-.078c.156-.104.511-.017 1.066.26.728.381.91.823.546 1.326-.156.243-.252.425-.286.546-.035.156-.096.26-.182.312-.087.035-.156-.026-.208-.182.138 0 .216-.017.234-.052.034-.052.043-.139.026-.26 0-.087-.026-.078-.078.026-.07.121-.13.165-.182.13-.104-.07-.182-.2-.234-.39a3.009 3.009 0 0 0-.104-.364c-.087-.138-.278-.138-.572 0-.295.174-.468.269-.52.286-.174-.26-.312-.346-.416-.26-.035.018.06.122.286.312.069.087.095.139.078.156a1.336 1.336 0 0 0-.728.468 4.566 4.566 0 0 0-.442.832 3.342 3.342 0 0 1-.442.754c-.156.19-.295.572-.416 1.144-.104.26-.148.511-.13.754.017.226.182.269.494.13.052-.017.13-.034.234-.052.104-.034.182-.07.234-.104.589-.312 1.265-.866 2.028-1.664.104-.104.242-.277.416-.52.19-.242.346-.424.468-.546.052-.052.147-.13.286-.234.156-.121.26-.225.312-.312a.883.883 0 0 0 .156-.338c.104-.156.294-.33.572-.52.277-.19.459-.32.546-.39.312-.277.563-.433.754-.468.121-.017.225.06.312.234.104.156.173.32.208.494.017.121.017.234 0 .338-.018.087-.061.2-.13.338a1.999 1.999 0 0 0-.104.286c-.07.19-.243.58-.52 1.17-.26.572-.416 1.057-.468 1.456-.018.104.043.399.182.884.156.503.407.745.754.728.052 0 .173-.017.364-.052a3.11 3.11 0 0 1 .442-.052c.173 0 .234.06.182.182-.018.035-.061.035-.13 0-.07-.052-.113-.07-.13-.052-.07.052-.087.139-.052.26.052.104.034.165-.052.182l-.442.26c-.382.295-.728.39-1.04.286-.694-.225-1.118-.736-1.274-1.534-.035-.087-.052-.277-.052-.572.017-.294.026-.485.026-.572 0-.104.008-.182.026-.234a.753.753 0 0 1 .208-.182 3.13 3.13 0 0 0 .208-.156.57.57 0 0 0 .13-.104c.069-.052.121-.095.156-.13.052-.035.104-.078.156-.13a.576.576 0 0 0 .104-.13.71.71 0 0 0 .078-.156c.034-.052.043-.095.026-.13a.71.71 0 0 0-.078-.156 9.283 9.283 0 0 1-.078-.078c-.018-.034-.035-.052-.052-.052l-.026-.026c-.018 0-.035.035-.052.104 0 .052-.009.148-.026.286a1.116 1.116 0 0 1-.104.338c-.018.035-.061.026-.13-.026a.907.907 0 0 0-.234-.156c-.087-.052-.191-.043-.312.026a.617.617 0 0 1-.156.104.28.28 0 0 0-.104.052v.104c.017.121-.243.407-.78.858-.52.433-.893.71-1.118.832-.104.052-.2.052-.286 0-.087-.052-.165-.06-.234-.026a1.035 1.035 0 0 0-.156.13c-.052.035-.096.06-.13.078h-.13c-.399-.052-.598-.017-.598.104l.078.182c.034.035.069.026.104-.026a1.57 1.57 0 0 0 .078-.13c.034-.052.069-.043.104.026.052.104.06.182.026.234h.104a.433.433 0 0 0 .13-.026c.069-.017.121-.017.156 0 .052 0 .086.017.104.052.086.156-.234.355-.962.598-.07.017-.148.044-.234.078a.203.203 0 0 1-.078.026 1.472 1.472 0 0 1-.468.078c-.208 0-.39-.026-.546-.078-.122-.034-.234-.147-.338-.338-.104-.208-.182-.338-.234-.39Zm5.356-4.004c-.087-.208-.035-.399.156-.572.052.018.086.07.104.156a.835.835 0 0 0-.13.234l-.104.208-.026-.026Zm-1.794 3.77c-.018.19-.061.19-.13 0a.222.222 0 0 1-.026-.104c.104-.104.156-.147.156-.13.017 0 .017.078 0 .234Zm8.4 8.19c-.538-.139-.806-.615-.806-1.43 0-.659.173-1.517.52-2.574a43.355 43.355 0 0 1 1.144-3.094c.416-1.005.65-1.63.702-1.872.294.122.442.052.442-.208 0-.19.017-.39.052-.598a1.33 1.33 0 0 1 .312-.572c.173-.173.39-.217.65-.13.381.139.572.46.572.962 0 .399-.122.893-.364 1.482-.243.59-.564 1.24-.962 1.95-.382.728-.607 1.162-.676 1.3-.208.364-.503 1.092-.884 2.184-.382 1.092-.503 1.785-.364 2.08.086.226.095.373.026.442-.07.087-.191.113-.364.078ZM1.205 47.02c-.087-.208-.07-.676.052-1.404.12-.745.234-1.274.338-1.586.034-.104.104-.286.208-.546.12-.26.216-.494.286-.702.069-.225.086-.416.052-.572 0-.035.026-.139.078-.312l.208-.572c.069-.208.104-.32.104-.338.242-.745.624-1.517 1.144-2.314.537-.815 1.083-1.456 1.638-1.924a.52.52 0 0 0 .208-.442c0-.104.147-.251.442-.442.589-.381 1.014-.702 1.274-.962.208-.208.398-.312.572-.312.156 0 .364-.078.624-.234l.416-.234c.086-.017.199 0 .338.052.138.052.25.096.338.13.104.035.156.035.156 0 .017-.07.086-.104.208-.104.294 0 .598.113.91.338.19.139.364.399.52.78.155.382.26.607.311.676a.247.247 0 0 0-.104.208c.018.07.053.182.104.338.07.156.104.269.104.338-.069 0-.173-.009-.312-.026a22.415 22.415 0 0 0-.39-.052 1.302 1.302 0 0 1-.312-.13c-.086-.052-.12-.104-.104-.156.035-.156.113-.208.235-.156.017.035.155.052.415.052.191-.121.191-.242 0-.364-.12 0-.286-.104-.493-.312-.035-.034-.148-.078-.338-.13-.191-.087-.287-.147-.287-.182a.542.542 0 0 1 .209-.026c.104-.017.155-.043.155-.078 0-.017-.112-.052-.338-.104-.069-.017-.112-.043-.13-.078-.017-.052-.051-.078-.103-.078-.122-.017-.148.087-.078.312 0 .035.008.078.026.13l.052.13c-.07.104-.174.087-.312-.052-.07-.052-.113-.07-.13-.052-.018 0-.052.035-.104.104a.25.25 0 0 1-.13.104 1.7 1.7 0 0 0-.182-.104.557.557 0 0 0-.13-.104.302.302 0 0 0-.078-.052.23.23 0 0 1-.026-.104v-.13c.017-.121-.026-.225-.13-.312-.104-.087-.2-.06-.286.078-.052.087-.113.269-.182.546-.052.26-.104.468-.156.624-.052.156-.122.19-.208.104-.035-.034-.026-.095.026-.182.069-.104.078-.173.026-.208-.052-.035-.148-.026-.286.026-.122.052-.2.113-.234.182-.018.017-.061.052-.13.104a.663.663 0 0 0-.156.156.281.281 0 0 0-.078.208c-.018.278-.234.538-.65.78-.4.226-.642.39-.728.494-.07.104-.156.269-.26.494a3.781 3.781 0 0 1-.208.442c-.988 1.56-1.664 3.146-2.028 4.758a1.4 1.4 0 0 1-.156.364 1.104 1.104 0 0 0-.156.338.98.98 0 0 1-.078.39c-.035.104-.035.26 0 .468.052.399-.044.798-.286 1.196.034.139.078.355.13.65.052.295.095.52.13.676.034.139.104.303.208.494.104.19.234.347.39.468.329.278.667.416 1.014.416.329 0 .719-.139 1.17-.416a.605.605 0 0 1 .13-.078c.086-.052.156-.095.208-.13.069-.052.13-.095.182-.13a.347.347 0 0 0 .13-.156c.034-.052.043-.095.026-.13.069-.07.138-.104.208-.104.052 0 .138.035.26.104.138.07.242.087.312.052.052-.035.06-.07.026-.104a.624.624 0 0 0-.156-.156.739.739 0 0 1-.13-.156c.034-.07.12-.156.26-.26.156-.121.277-.182.364-.182.069 0 .104.044.104.13 0 .035-.035.087-.104.156-.07.07-.104.121-.104.156a.31.31 0 0 1 .208.156c0 .018-.026.026-.078.026a.429.429 0 0 1-.13-.026.24.24 0 0 0-.156 0c0 .087.008.139.026.156a.713.713 0 0 0 .156-.026 1.1 1.1 0 0 1 .182-.026c.034.07.008.156-.078.26-.07.087-.096.156-.078.208.052.07.104.087.156.052.069-.052.173-.121.312-.208.138-.104.25-.156.338-.156.069 0 .069.035 0 .104-.07.07-.2.173-.39.312-.174.121-.27.182-.286.182-.191.121-.451.347-.78.676-.33.312-.555.52-.676.624-.035.035-.14.06-.312.078a.644.644 0 0 0-.234.13.63.63 0 0 1-.208.156c-.746.26-1.318.32-1.716.182-.278-.087-.624-.303-1.04-.65-.416-.346-.668-.658-.754-.936a.646.646 0 0 1-.026-.234c.017-.139 0-.216-.052-.234a1.531 1.531 0 0 1-.312-.39c-.087-.19-.113-.33-.078-.416.052-.156.034-.346-.052-.572Zm6.968.104c-.122-.121-.13-.182-.026-.182.12 0 .19-.035.208-.104.017-.035.008-.078-.026-.13-.018-.07-.01-.121.026-.156.138-.173.199-.294.182-.364a.703.703 0 0 1 .13-.546c.12-.19.268-.295.442-.312 0 .035-.035.087-.104.156-.087.07-.104.113-.052.13.12.017.225-.112.312-.39 0-.052-.044-.078-.13-.078-.07 0-.096-.026-.078-.078l.494-.26a.414.414 0 0 1 .338-.286c.086-.017.286-.303.598-.858.26-.364.632-1.014 1.117-1.95a1.96 1.96 0 0 0 .157-.78c0-.26-.035-.58-.104-.962a1.966 1.966 0 0 1-.027-.364c-.104-.035-.225-.121-.364-.26a1.45 1.45 0 0 1-.572.494c-.242.121-.459.148-.65.078a1.928 1.928 0 0 1-.207-.078c-.035-.035-.035-.06 0-.078a.852.852 0 0 1 .13-.104h.026c.069-.035.19-.035.364 0 .19.017.312 0 .364-.052a.25.25 0 0 0-.182-.078.363.363 0 0 0-.156.026.11.11 0 0 1-.104 0c-.035-.017-.061-.052-.079-.104.14 0 .209-.026.209-.078 0-.104-.044-.139-.13-.104-.018.017-.044.026-.079.026-.017 0-.034-.017-.051-.052-.052-.121.078-.269.39-.442.26-.139.338-.355.234-.65.104-.017.173-.043.207-.078.035-.035.053-.095.053-.182a.79.79 0 0 1 .026-.234c-.156 0-.208.113-.156.338-.053.07-.096.07-.13 0a2.017 2.017 0 0 1-.027-.182c0-.035.035-.104.104-.208.07-.104.113-.173.13-.208a.605.605 0 0 1 .079-.13.29.29 0 0 1 .13-.026.654.654 0 0 0 .155-.078c.122-.07.209-.06.26.026.035.087.044.148.027.182 0 .017-.027.06-.079.13a.409.409 0 0 0-.104.156.32.32 0 0 0-.052.182v.104c0 .018-.017.044-.052.078a.363.363 0 0 1-.155.026c-.07.018-.104.06-.104.13s.164.026.493-.13c.087-.052.13-.052.13 0s-.043.087-.13.104c0 .052.053.104.157.156l.39.13a.867.867 0 0 1 .338.182c.034.243.138.416.312.52.19.33.285.78.285 1.352 0 .364-.026.676-.078.936-.069.382-.407 1.032-1.013 1.95-.59.919-1.058 1.43-1.404 1.534-.14.035-.165.121-.079.26.035.052 0 .113-.104.182-.086.07-.199.139-.338.208-.12.07-.19.121-.207.156.052.052.06.096.026.13-.018.017-.061.026-.13.026a.856.856 0 0 0-.208.026.326.326 0 0 0-.13.078c-.035.018-.026.07.026.156.034.035.086.043.156.026.034 0 .052.009.052.026v.052c0 .052-.113.087-.338.104-.208 0-.321.035-.338.104.138.104.156.295.052.572-.07.156-.191.173-.364.052-.087-.173-.174-.225-.26-.156a.331.331 0 0 1 0 .312c-.035.087-.104.052-.208-.104Zm-.442.468c.12.017.13.104.026.26-.07.122-.113.13-.13.026V47.8a.24.24 0 0 1 0-.156c.017-.052.052-.07.104-.052Zm8.537 1.092c0 .347-.121.52-.364.52-.139 0-.269-.078-.39-.234-.104-.156-.156-.364-.156-.624 0-.104.017-.2.052-.286l.182-.364c.087-.139.147-.234.182-.286a.276.276 0 0 0 0-.234.53.53 0 0 1 0-.234c.017-.087.087-.156.208-.208.07-.017.2-.017.39 0 .208.017.355-.026.442-.13.173-.139.19-.277.052-.416-.139-.156-.182-.26-.13-.312.087-.087.19-.07.312.052.139.122.251.156.338.104.45-.294.607-.502.468-.624-.087-.07-.2-.087-.338-.052-.139.035-.251 0-.338-.104-.104-.121-.104-.26 0-.416.121-.156.26-.182.416-.078.017.017.043.06.078.13.052.07.104.13.156.182.052.052.113.06.182.026.139-.07.269-.216.39-.442.139-.243.243-.39.312-.442.121-.104.295-.2.52-.286.243-.104.416-.2.52-.286.312-.277.572-.416.78-.416.295 0 .771-.043 1.43-.13.659-.104 1.144-.156 1.456-.156.347 0 .875.017 1.586.052.728.017 1.274.026 1.638.026.243 0 .407.044.494.13.087.087.217.13.39.13h.312c.156.052.347.13.572.234.243.104.425.174.546.208.416.139.997.563 1.742 1.274.243.243.416.598.52 1.066.104.468.165.737.182.806.139-.052.26-.173.364-.364.104-.19.173-.303.208-.338.208-.19.485-.546.832-1.066.364-.52.65-.866.858-1.04.087-.104.251-.277.494-.52.243-.26.442-.485.598-.676.156-.19.26-.355.312-.494.104-.225.312-.52.624-.884a.878.878 0 0 0 .13-.208c.052-.121.087-.182.104-.182.035-.017.095-.008.182.026.07.07.009.252-.182.546-.19.277-.338.468-.442.572-.139.139-.208.26-.208.364 0 .277-.165.546-.494.806-.312.243-.503.434-.572.572a.395.395 0 0 1-.234.208.557.557 0 0 0-.182.104c-.052.07-.104.19-.156.364-.052.173-.087.286-.104.338-.052.104-.277.364-.676.78-.399.399-.598.737-.598 1.014a.25.25 0 0 1-.078.182.606.606 0 0 1-.156.104.325.325 0 0 0-.13.078c-.139.156-.32.477-.546.962-.208.468-.425.797-.65.988-.121.104-.364.425-.728.962-.347.555-.702.867-1.066.936h-.052c-.243.052-.364.052-.364 0l.13-.26c.052-.087.139-.2.26-.338.121-.139.217-.251.286-.338.07-.087.121-.2.156-.338.052-.138.026-.242-.078-.312-.07-.07-.208.035-.416.312-.19.278-.338.356-.442.234-.07-.087 0-.216.208-.39.208-.19.286-.346.234-.468-.052-.121.095-.477.442-1.066.364-.59.641-.953.832-1.092 0-.659-.234-1.083-.702-1.274-.139-.052-.45-.26-.936-.624-.485-.381-.806-.572-.962-.572-.19 0-.425-.026-.702-.078-.26-.052-.425-.087-.494-.104a2.306 2.306 0 0 0-.728-.104c-.225 0-.58.035-1.066.104-.468.07-.832.104-1.092.104-.104 0-.338-.017-.702-.052-.364-.052-.572-.052-.624 0-.087.017-.251.009-.494-.026-.225-.052-.364-.026-.416.078-.07.07-.2.104-.39.104s-.32.018-.39.052c-.052.018-.113.07-.182.156a.743.743 0 0 1-.156.13c-.26.122-.511.286-.754.494-.243.208-.511.468-.806.78-.277.312-.468.52-.572.624-.121.104-.26.295-.416.572-.156.26-.269.442-.338.546a3.771 3.771 0 0 0-.208.442c-.07.19-.156.32-.26.39-.087.052-.234.052-.442 0Zm19.838-7.722-.156-.182c0-.017.06-.052.182-.104a.833.833 0 0 0 .286-.26c.017-.017.06-.138.13-.364.017-.07.104-.182.26-.338.156-.156.234-.303.234-.442 0-.07.017-.13.052-.182a.905.905 0 0 1 .182-.182.889.889 0 0 0 .182-.182c.364-.572.45-.944.26-1.118-.156-.208-.225-.372-.208-.494a3.29 3.29 0 0 1 .208-.546c.104-.225.156-.39.156-.494 0-.294.13-.58.39-.858.277-.277.572-.416.884-.416.399 0 .659.269.78.806.139.52.113.953-.078 1.3-.07.139-.19.208-.364.208-.07 0-.182-.008-.338-.026a1.822 1.822 0 0 0-.312-.052c-.277 0-.416.19-.416.572 0 .295-.13.607-.39.936-.243.312-.39.538-.442.676-.035.122-.139.269-.312.442a2.95 2.95 0 0 0-.468.65 2.613 2.613 0 0 1-.156.312 2.56 2.56 0 0 1-.156.26c-.07.087-.13.13-.182.13a.598.598 0 0 1-.208-.052Zm-6.994 3.848c-.104.07-.113.182-.026.338a.47.47 0 0 0 .39.208.25.25 0 0 0 .182-.078c.121-.139.156-.268.104-.39-.052-.121-.156-.182-.312-.182a.69.69 0 0 0-.338.104Zm-12.818 2.912c-.277.295-.303.511-.078.65.139.087.243.078.312-.026.243-.294.269-.52.078-.676-.104-.087-.208-.07-.312.052Zm22.282-12.22a.621.621 0 0 0 .052.442c.07.104.156.156.26.156.156 0 .217-.121.182-.364-.017-.121-.07-.2-.156-.234a.282.282 0 0 0-.234-.052c-.07.017-.104.035-.104.052Zm-21.71 11.284v.39c.052.052.121.06.208.026a.405.405 0 0 0 .208-.208c.035-.087.035-.156 0-.208-.139-.139-.277-.139-.416 0Zm-.676.156c-.312.208-.39.364-.234.468.07.07.139.07.208 0a.495.495 0 0 0 .182-.442c0-.087-.052-.095-.156-.026Zm9.932-3.406c-.087.087-.087.165 0 .234a.545.545 0 0 0 .286.078c.156 0 .2-.06.13-.182-.035-.07-.104-.121-.208-.156-.087-.035-.156-.026-.208.026ZM37.6 63.374c-.208 0-.407-.104-.598-.312-.208-.208-.312-.416-.312-.624 0-.156.052-.381.156-.676.087-.277.13-.485.13-.624 0-.156.095-.424.286-.806.208-.364.33-.624.364-.78.017-.052.043-.312.078-.78.052-.468.164-.806.338-1.014a.984.984 0 0 0 .208-.312c.07-.104.121-.208.156-.312.052-.087.095-.208.13-.364.052-.139.087-.251.104-.338.034-.07.06-.2.078-.39.035-.173.052-.294.052-.364 0-.052.009-.182.026-.39.035-.19.052-.303.052-.338.017-.242.07-.797.156-1.664.087-.85.147-1.413.182-1.69l.182-1.404c.104-.676.2-1.196.286-1.56.104-.364.242-.806.416-1.326.173-.537.364-1.04.572-1.508.503-1.075 1.317-1.89 2.444-2.444.139-.07.312-.234.52-.494.208-.277.468-.468.78-.572a.405.405 0 0 0 .208-.208c.07-.121.121-.2.156-.234.554-.658 1.204-.988 1.95-.988.45 0 .85.174 1.196.52.346.33.52.737.52 1.222 0 .45-.096.676-.286.676-.277 0-.52-.19-.728-.572l-.104-.208a.916.916 0 0 0-.234-.312.32.32 0 0 0-.26-.13c-.19 0-.572.225-1.144.676-.555.45-.893.685-1.014.702-.052.017-.096.009-.13-.026-.035-.035-.052-.095-.052-.182 0-.277-.035-.416-.104-.416-.156 0-.364.121-.624.364-.243.243-.364.45-.364.624 0 .07.035.104.104.104.07 0 .182-.078.338-.234.173-.173.294-.26.364-.26.104 0 .156.044.156.13-.017.19-.399.642-1.144 1.352-.745.694-1.161 1.118-1.248 1.274-.867 1.595-1.3 3.016-1.3 4.264 0 .243-.07.598-.208 1.066-.121.468-.182.84-.182 1.118 0 .416.225.624.676.624.104 0 .19-.07.26-.208a.837.837 0 0 0 .104-.364c0-.052-.052-.078-.156-.078-.052 0-.113.026-.182.078-.07.07-.122.104-.156.104-.052 0-.078-.052-.078-.156 0-.19.095-.381.286-.572.19-.173.381-.277.572-.312.208-.052.433-.294.676-.728.26-.433.45-.65.572-.65.139 0 .208.044.208.13 0 .035-.052.121-.156.26-.104.139-.156.226-.156.26 0 .052.026.078.078.078.173 0 .407-.286.702-.858.294-.572.563-.936.806-1.092.294-.19.728-.485 1.3-.884.572-.416 1.04-.745 1.404-.988.364-.242.814-.511 1.352-.806a13.091 13.091 0 0 1 1.56-.78c.173-.07.46-.156.858-.26.416-.104.736-.208.962-.312 1.63-.814 2.851-1.222 3.666-1.222.294 0 .633.173 1.014.52.398.33.615.633.65.91 0 .364-.226.72-.676 1.066-.433.347-.823.52-1.17.52-.139 0-.208-.078-.208-.234 0-.104.026-.277.078-.52.052-.26.078-.442.078-.546 0-.208-.07-.312-.208-.312-.07 0-.165.035-.286.104-.208.104-.52.19-.936.26-.416.052-.659.087-.728.104-.226.052-.538.173-.936.364-.399.173-.71.286-.936.338-.503.087-1.179.373-2.028.858-.832.468-1.421.763-1.768.884-1.196.399-2.427 1.283-3.692 2.652l-.65.65c-.33.364-.555.607-.676.728-.104.139-.303.373-.598.702a8.125 8.125 0 0 0-.624.806c-.122.208-.286.477-.494.806a5.22 5.22 0 0 0-.416.936 8.757 8.757 0 0 0-.234.962c-.07.364-.104.728-.104 1.092 0 .382-.035.858-.104 1.43-.07.59-.182 1.23-.338 1.924-.156.694-.399 1.283-.728 1.768-.312.486-.676.728-1.092.728Zm22.464-29.692c0-.035-.052-.07-.156-.104a.269.269 0 0 1-.156-.26c0-.104.052-.225.156-.364.104-.156.217-.234.338-.234.173 0 .364.122.572.364.225.243.338.46.338.65 0 .208-.096.425-.286.65a.886.886 0 0 1-.702.338c-.243 0-.364-.078-.364-.234 0-.225.043-.39.13-.494a.488.488 0 0 0 .13-.312Zm-.52 1.794c-.173 0-.312-.087-.416-.26a1.232 1.232 0 0 1-.156-.598c0-.19.035-.381.104-.572.086-.19.208-.286.364-.286.052 0 .078.078.078.234l.052.494c.034.173.087.278.156.312l.26.156c0 .104-.052.217-.156.338-.087.122-.182.182-.286.182Zm-11.336 9.126c-.121 0-.226-.07-.312-.208a1.091 1.091 0 0 1-.104-.442c0-.346.104-.52.312-.52.225-.017.338.2.338.65 0 .347-.078.52-.234.52ZM37.833 59.916c0 .156.07.234.208.234.07 0 .13-.121.182-.364.07-.225.104-.468.104-.728 0-.381-.07-.58-.208-.598-.087 0-.13.044-.13.13 0 .035.017.104.052.208a.627.627 0 0 1 .078.208c0 .052-.052.182-.156.39-.087.208-.13.382-.13.52Zm2.626-6.24a1.459 1.459 0 0 0-.156.598c0 .173.035.26.104.26.07 0 .165-.139.286-.416.121-.26.182-.46.182-.598 0-.104-.026-.156-.078-.156-.104 0-.217.104-.338.312Zm-3.042 7.462c0 .104.026.208.078.312.07.104.147.156.234.156.173 0 .26-.104.26-.312 0-.26-.087-.39-.26-.39-.208 0-.312.078-.312.234Zm18.2-16.276c-.087 0-.13.026-.13.078 0 .018.008.052.026.104a.423.423 0 0 1 .026.104.426.426 0 0 1-.026.13.427.427 0 0 0-.026.104c0 .052.043.078.13.078.121 0 .182-.13.182-.39 0-.139-.06-.208-.182-.208Zm7.106 3.9c-.606.243-1.057.364-1.352.364-.294 0-.546-.139-.754-.416a1.673 1.673 0 0 1-.312-.988c0-.225.052-.485.156-.78.104-.312.2-.563.286-.754.104-.19.26-.46.468-.806.208-.346.338-.572.39-.676.087-.173.26-.347.52-.52.278-.173.52-.26.728-.26a.56.56 0 0 1 .312.104c.104.07.156.156.156.26 0 .174-.13.45-.39.832-.26.364-.468.624-.624.78-.121.121-.251.373-.39.754-.138.364-.208.642-.208.832 0 .104.052.156.156.156.468-.346 1.188-.728 2.158-1.144.971-.433 1.838-.788 2.6-1.066.78-.294 1.188-.468 1.222-.52.243-.277.564-.416.962-.416.156 0 .434.035.832.104.416.052.746.078.988.078.191 0 .347.165.468.494.122.312.208.659.26 1.04.07.382.2.737.39 1.066.208.312.477.468.806.468.486 0 1.257-.208 2.314-.624 1.058-.416 1.664-.624 1.82-.624.243 0 .364.052.364.156 0 .278-.13.503-.39.676-.138.087-.407.26-.806.52a8.42 8.42 0 0 1-.884.546c-.19.104-.45.243-.78.416a4.185 4.185 0 0 1-.91.338 3.85 3.85 0 0 1-.884.104c-.277 0-.658-.139-1.144-.416-.485-.277-.797-.615-.936-1.014a7.232 7.232 0 0 1-.234-.91c-.086-.416-.182-.71-.286-.884a.523.523 0 0 0-.494-.286c-.208 0-.364.052-.468.156-.156.156-.996.486-2.522.988-1.525.486-2.366.884-2.522 1.196-.104.19-.459.416-1.066.676Zm16.095.364c-.346-.156-.372-.633-.078-1.43.416-1.057 1.326-2.132 2.73-3.224 1.422-1.092 2.704-1.638 3.848-1.638.555 0 .971.19 1.248.572.104.122.052.243-.156.364s-.277.225-.208.312c.156.19.226.312.208.364-.017.052-.156.087-.416.104-.052 0-.034-.043.052-.13.07-.087.087-.147.052-.182a.623.623 0 0 0-.494-.208c-.069 0-.156.009-.26.026-.086.018-.19.044-.312.078-.104.017-.19.035-.26.052.191-.242.13-.286-.182-.13-.156.087-.45.26-.884.52-.277.173-.45.277-.52.312-.433.208-.936.58-1.508 1.118-.554.52-.996 1.023-1.326 1.508-.138.156-.208.303-.208.442.018.121.148.156.39.104.191-.035.39-.095.598-.182.226-.104.468-.242.728-.416.26-.19.46-.33.598-.416.139-.104.356-.277.65-.52.312-.243.486-.373.52-.39.07-.052.39-.19.962-.416.59-.225.919-.338.988-.338a14.713 14.713 0 0 1 .494-.078c.139-.017.26-.026.364-.026.122 0 .208.017.26.052.07.035.096.087.078.156-.052.122-.199.408-.442.858-.78 1.387-1.048 2.167-.806 2.34a.37.37 0 0 0 .208.052c.243 0 .824-.147 1.742-.442.763-.26 1.595-.771 2.496-1.534.919-.762 1.578-1.222 1.976-1.378.139-.035.347-.225.624-.572.278-.346.529-.702.754-1.066.243-.364.503-.771.78-1.222.295-.468.46-.72.494-.754.416-.624.858-1.196 1.326-1.716a47.336 47.336 0 0 1 1.794-1.924 76.406 76.406 0 0 0 1.482-1.508c.728-.728 1.257-1.187 1.586-1.378a.919.919 0 0 1 .52-.156c.226 0 .382.07.468.208.104.139.087.347-.052.624l-.52.65-.26.78c-.069.104-.225.278-.468.52a4.308 4.308 0 0 0-.52.598c-.277.468-.901 1.144-1.872 2.028-.97.884-1.542 1.422-1.716 1.612-.277.364-.953 1.317-2.028 2.86-.589.867-1.04 1.933-1.352 3.198-.052.26.035.45.26.572.243.122.503.174.78.156.295-.035.529-.06.702-.078.052-.017.139-.008.26.026.139.017.252.026.338.026.087 0 .13-.035.13-.104 0-.052.035-.078.104-.078.087 0 .269.07.546.208a.613.613 0 0 0-.078-.26c-.034-.035-.043-.052-.026-.052l.286.052c.139.052.174.148.104.286a.717.717 0 0 1-.286.312c-.156-.208-.242-.26-.26-.156a.713.713 0 0 0 .052.364c-.225 0-.511.087-.858.26-.346.156-.615.243-.806.26-1.282.07-2.106-.26-2.47-.988-.121-.225-.182-.529-.182-.91 0-.763.148-1.387.442-1.872h-.364l-.052.468c-.034.017-.078.009-.13-.026a1.267 1.267 0 0 0-.13-.078c-.017-.035-.034-.035-.052 0-.069.33-.355.702-.858 1.118a9.355 9.355 0 0 1-1.508.988c-.502.26-.979.477-1.43.65-.294.104-.442.139-.442.104 0 .052.026-.052.078-.312-.052-.225-.095-.338-.13-.338-.017 0-.06.139-.13.416-.052.278-.121.425-.208.442-.832.139-1.326.208-1.482.208-.797.07-1.196-.156-1.196-.676 0-.225.087-.59.26-1.092.174-.503.278-.815.312-.936-.086.017-.208.07-.364.156-.156.087-.251.13-.286.13-.052 0-.078-.043-.078-.13 0-.121-.112-.251-.338-.39-.208-.156-.364-.173-.468-.052-.052.052-.008.217.13.494.156.277.148.442-.026.494-.173.087-.485.277-.936.572a9.64 9.64 0 0 1-1.04.598c-.71.33-1.17.494-1.378.494-.277 0-.598-.121-.962-.364Zm17.992-.182c-.086.087-.173.017-.26-.208-.052-.156-.043-.277.026-.364.26-.26.382-.242.364.052-.017.278-.06.45-.13.52Zm.468-.78c-.017-.035-.017-.06 0-.078.018-.017.07-.035.156-.052l.052-.026a.283.283 0 0 1 .104.052c.035 0 .07.009.104.026.052 0 .087.017.104.052.018.018.018.044 0 .078a.487.487 0 0 1-.364.364c-.052 0-.086-.026-.104-.078a.574.574 0 0 1-.026-.182c0-.087-.008-.139-.026-.156Zm12.919 3.25a12.267 12.267 0 0 0-.208-.468 4.64 4.64 0 0 1-.234-.598 1.717 1.717 0 0 1-.026-.52c.052-.433.216-1.005.494-1.716.052-.121.095-.33.13-.624.034-.294.104-.52.208-.676.104-.173.355-.693.754-1.56.416-.884.624-1.352.624-1.404-.018-.19.069-.355.26-.494.086-.07.121-.182.104-.338 0-.156.034-.277.104-.364.104-.087.19-.19.26-.312a2.72 2.72 0 0 0 .182-.494c.069-.208.121-.346.156-.416.034-.052.173-.251.416-.598.242-.346.364-.641.364-.884.572-.901 1.066-1.508 1.482-1.82.034-.035.121-.052.26-.052.138-.017.225-.06.26-.13a3.992 3.992 0 0 1-.078-.078c-.087-.07-.113-.113-.078-.13h.364c.017-.035-.018-.087-.104-.156.19-.052.32-.07.39-.052a.169.169 0 0 0 .026.156c.052.035.078.07.078.104.017.087-.035.278-.156.572l-.728 1.352a4.145 4.145 0 0 1-.286.364c-.174.19-.26.364-.26.52 0 .208-.113.477-.338.806-.208.312-.33.563-.364.754-.018.035-.13.33-.338.884-.208.538-.425.893-.65 1.066-.104.087-.278.399-.52.936-.226.538-.364.85-.416.936-.035.052-.052.156-.052.312a.734.734 0 0 1-.052.312l-.39.78c-.607 1.248-.832 2.41-.676 3.484-.122.087-.139.243-.052.468.086.243.104.416.052.52-.122.104-.208.156-.26.156-.052.017-.148-.017-.286-.104-.156-.07-.252-.121-.286-.156a4.606 4.606 0 0 1-.13-.338Zm.91-15.938c-.191-.104-.208-.277-.052-.52a.47.47 0 0 0 .13-.13.702.702 0 0 0 .13-.182c.052-.07.095-.121.13-.156.104-.104.286-.164.546-.182.26-.017.442-.06.546-.13.485.017.884.104 1.196.26.052.07.303.087.754.052.468-.035.745-.043.832-.026l1.092.078c.502.017.962.052 1.378.104.416.035.78.087 1.092.156.693.208 1.196.303 1.508.286.104-.017.624.052 1.56.208.173.018.39.06.65.13.26-.07.407-.026.442.13.052.139.026.338-.078.598a.761.761 0 0 1-.494.286 9.575 9.575 0 0 1-1.716.156c-.85 0-1.656-.095-2.418-.286-.364-.087-.919-.147-1.664-.182-.746-.052-1.222-.104-1.43-.156a3.883 3.883 0 0 0-.65-.078 2.834 2.834 0 0 1-.702-.156.723.723 0 0 1-.156-.13.347.347 0 0 0-.156-.13c-.035 0-.191.035-.468.104-.278.07-.624.087-1.04.052-.052 0-.182-.139-.39-.416a1.327 1.327 0 0 0-.286.182c-.122.087-.217.113-.286.078Zm5.486 2.184a.71.71 0 0 0-.078-.156.672.672 0 0 1-.026-.156c.017-.052.06-.078.13-.078.069 0 .112-.009.13-.026.225 0 .173.139-.156.416Zm3.854 8.06c0-.346.052-.537.156-.572l.156-.26c.104-.173.243-.381.416-.624.173-.242.355-.485.546-.728.208-.242.433-.45.676-.624.243-.19.468-.303.676-.338.121-.208.329-.372.624-.494.312-.121.607-.182.884-.182a.452.452 0 0 1 .026.182.79.79 0 0 1-.078.286 1.152 1.152 0 0 0-.052.312c0 .07.017.113.052.13 0 .104-.095.208-.286.312-.191.087-.425.2-.702.338-.277.139-.485.303-.624.494a9.625 9.625 0 0 1-.546.624c-.243.26-.451.477-.624.65-.156.174-.234.286-.234.338 0 .087.069.156.208.208.139.052.251.035.338-.052.104-.104.442-.156 1.014-.156 1.127-.26 1.907-.606 2.34-1.04.035-.035.217-.139.546-.312.347-.19.529-.295.546-.312.069-.07.191-.147.364-.234.191-.086.347-.164.468-.234.139-.07.208-.147.208-.234 0-.052-.043-.078-.13-.078a.676.676 0 0 0-.208.026c0-.139.165-.208.494-.208.433 0 .65.2.65.598 0 .19-.199.416-.598.676-.399.26-.607.399-.624.416-.156.19-.39.286-.702.286-.069 0-.217.07-.442.208-.208.139-.425.355-.65.65-.225.278-.338.564-.338.858 0 .277.078.468.234.572.156.087.303.13.442.13.797 0 1.404-.017 1.82-.052l.65-.052c.069 0 .381-.07.936-.208.572-.156.901-.277.988-.364.104-.104.286-.225.546-.364.26-.156.494-.286.702-.39.208-.104.312-.165.312-.182a.466.466 0 0 0-.078-.234.592.592 0 0 1-.052-.208c0-.139.069-.251.208-.338a.746.746 0 0 1 .39-.13c.087 0 .13.026.13.078a6.157 6.157 0 0 0 1.352-.676c1.04-.641 1.56-1.014 1.56-1.118v-.104c0-.017-.043-.035-.13-.052a3.03 3.03 0 0 0-.494-.026c-.191 0-.442.182-.754.546-.312.364-.598.546-.858.546-.104 0-.251.06-.442.182a.903.903 0 0 1-.52.182.473.473 0 0 0-.338.156 3.712 3.712 0 0 0-.234.208c-.035.052-.104.052-.208 0-.208-.208-.208-.45 0-.728.225-.277.425-.46.598-.546.589-.294 1.04-.59 1.352-.884.087-.052.156-.07.208-.052.069 0 .191.017.364.052.173.018.321.026.442.026.451 0 .858-.182 1.222-.546.121-.121.286-.182.494-.182.191 0 .407.104.65.312.26.19.39.39.39.598-.381.399-.65.642-.806.728-1.439.815-2.158 1.326-2.158 1.534 0 .208.225.45.676.728.468.278.719.434.754.468.139.19.347.286.624.286.087 0 .425-.182 1.014-.546.087-.052.269-.208.546-.468.295-.26.537-.416.728-.468.191-.052.425-.2.702-.442.295-.242.494-.433.598-.572a1.3 1.3 0 0 1 .13-.182 2.3 2.3 0 0 1 .156-.182.7.7 0 0 1 .182-.13.379.379 0 0 1 .234-.078c.208 0 .347-.104.416-.312.087-.225.095-.494.026-.806l-.104-.312a1.237 1.237 0 0 1-.078-.338c.052-.658.078-1.005.078-1.04a.901.901 0 0 0-.052-.286.495.495 0 0 1 .104-.364c.087-.121.199-.225.338-.312.156-.104.399-.182.728-.234a5.9 5.9 0 0 1 1.196-.104c.485 0 .763.139.832.416-.017 0-.191.026-.52.078-.312.052-.503.044-.572-.026-.208-.104-.381-.156-.52-.156-.104 0-.156.07-.156.208a.643.643 0 0 1 0 .26c-.329.537-.433 1.049-.312 1.534.087.295.243.442.468.442.399 0 1.092-.511 2.08-1.534.988-1.04 1.551-1.595 1.69-1.664.069-.035.156-.121.26-.26.104-.156.191-.26.26-.312.069-.035.208-.182.416-.442.208-.277.399-.46.572-.546.26-.121.52-.39.78-.806.26-.433.485-.702.676-.806.087-.034.199-.121.338-.26.156-.156.251-.242.286-.26.156-.087.338-.225.546-.416.225-.208.468-.46.728-.754.277-.294.442-.468.494-.52.017-.035.087-.087.208-.156.121-.07.225-.13.312-.182.104-.07.147-.13.13-.182.225 0 .451.06.676.182.225.104.364.26.416.468.139.555-.459 1.196-1.794 1.924-.035.017-.165.174-.39.468-.225.277-.433.416-.624.416-.26 0-.494.2-.702.598-.191.399-.355.633-.494.702a2.395 2.395 0 0 0-.676.494 7.641 7.641 0 0 0-.754.832c-.277.33-.477.555-.598.676-.035.017-.147.148-.338.39-.191.226-.312.355-.364.39-.485.226-1.083.797-1.794 1.716-.711.901-1.005 1.603-.884 2.106.052.243.217.485.494.728.277.226.607.45.988.676.399.226.65.382.754.468.069.052.407.121 1.014.208s1.031.13 1.274.13c.052 0 .173-.139.364-.416.191-.277.399-.58.624-.91.243-.33.425-.537.546-.624.087-.07.173-.121.26-.156l.208-.104c.035-.017.061-.06.078-.13a2.39 2.39 0 0 0 .026-.416c0-.07-.043-.165-.13-.286a.815.815 0 0 1-.104-.338c0-.242.225-.511.676-.806.468-.295.91-.442 1.326-.442.069 0 .199.06.39.182s.295.2.312.234c.017.07.078.19.182.364.121.174.208.338.26.494a.776.776 0 0 1 .026.442c-.139.434-.451.988-.936 1.664-.468.676-.875 1.084-1.222 1.222-.121.052-.329.208-.624.468-.277.243-.416.399-.416.468 0 .173.069.33.208.468.156.121.355.243.598.364s.39.2.442.234c.035.017.095.07.182.156l.234.156c.052.035.121.07.208.104a.98.98 0 0 0 .312.052c.312 0 .607.044.884.13.277.07.52.104.728.104a.25.25 0 0 0 .182-.078c.052-.07.104-.104.156-.104.069.035.104.06.104.078a.176.176 0 0 0 .156.078c-.017.104-.147.234-.39.39-.225.139-.381.208-.468.208-.052 0-.069-.026-.052-.078.035-.052.043-.078.026-.078-.069 0-.147.044-.234.13-.069.07-.13.104-.182.104h-1.378c-.069 0-.347-.035-.832-.104-.485-.087-.78-.156-.884-.208-.399-.208-.754-.555-1.066-1.04-.295-.485-.442-.806-.442-.962-.156 0-.373.044-.65.13a2.84 2.84 0 0 1-.624.104 3.28 3.28 0 0 1-.572-.078c-.26-.07-.442-.104-.546-.104-.381 0-.693-.087-.936-.26-.243-.19-.451-.294-.624-.312-.156 0-.433-.251-.832-.754-.381-.502-.615-.754-.702-.754-.069 0-.199.269-.39.806-.173.538-.234.91-.182 1.118.069.278.511.416 1.326.416.139 0 .243-.009.312-.026.069-.035.095-.095.078-.182.087 0 .13.044.13.13.069.295-.017.555-.26.78a1.252 1.252 0 0 1-.884.338c-.485 0-.867-.095-1.144-.286-.26-.19-.451-.563-.572-1.118-.052-.121-.078-.312-.078-.572.017-.26.061-.433.13-.52.381-.52.477-1.213.286-2.08-.052-.208-.191-.312-.416-.312-.087 0-.373.156-.858.468-.468.312-.78.538-.936.676-.433.433-.737.694-.91.78-.104.052-.303.156-.598.312s-.555.303-.78.442a3.947 3.947 0 0 0-.598.494c0 .156.095.347.286.572.191.226.286.425.286.598 0 .347-.173.676-.52.988-.347.312-.711.468-1.092.468-.052 0-.355.078-.91.234-.555.156-.849.234-.884.234-1.785.052-2.765.052-2.938 0-.104-.035-.139-.087-.104-.156.017-.017.035-.026.052-.026.035 0 .069.009.104.026a.203.203 0 0 0 .078.026c.069 0 .13-.06.182-.182-.017 0-.043-.026-.078-.078a1.746 1.746 0 0 0-.078-.234.632.632 0 0 1-.052-.234c0-.208.199-.312.598-.312.087 0 .208.017.364.052a4.4 4.4 0 0 0 .416.026c.555 0 .832-.112.832-.338a.983.983 0 0 0-.026-.234.324.324 0 0 0-.078-.156l-.026-.052c0-.104.087-.225.26-.364.173-.156.338-.234.494-.234.121 0 .139.018.052.052-.225.121-.347.208-.364.26 0 .121.069.182.208.182.156 0 .234-.078.234-.234a.235.235 0 0 0-.026-.104c.312 0 .555-.173.728-.52.156-.312.052-.554-.312-.728-.763-.398-1.257-.598-1.482-.598-.416 0-.702.096-.858.286-.208.243-.598.425-1.17.546-.572.104-.919.217-1.04.338-.225.225-.451.364-.676.416-.035 0-.191.06-.468.182-.26.121-.633.234-1.118.338-.468.087-1.066.13-1.794.13-.537 0-.945-.182-1.222-.546-.26-.364-.425-.728-.494-1.092-.052-.364-.104-.546-.156-.546-.347 0-.633.078-.858.234-.225.139-.65.208-1.274.208-.52 0-.858-.078-1.014-.234-.156-.156-.234-.39-.234-.702Zm29.146.312a.443.443 0 0 1-.026.104.438.438 0 0 1-.026.13.438.438 0 0 1-.026.13c0 .035.009.06.026.078.017.018.052.026.104.026.641-.242 1.127-.502 1.456-.78.901-.728 1.352-1.144 1.352-1.248 0-.087-.035-.13-.104-.13-.121 0-.407.208-.858.624-.451.399-.771.633-.962.702 0-.139.165-.355.494-.65.329-.312.529-.529.598-.65.312-.503.468-.832.468-.988 0-.017-.017-.035-.052-.052-.035-.035-.052-.07-.052-.104 0-.104.061-.138.182-.104.035.018.043.044.026.078 0 .035.009.052.026.052.104.017.156-.043.156-.182 0-.087-.043-.182-.13-.286-.087-.104-.182-.156-.286-.156-.035 0-.087.07-.156.208-.069.121-.156.277-.26.468a.995.995 0 0 1-.338.364c-.416.26-.789.616-1.118 1.066-.312.45-.477.884-.494 1.3Zm-24.076-3.198c-.173 0-.295-.035-.364-.104-.069-.07-.035-.182.104-.338.139-.173.191-.286.156-.338-.052-.07-.147-.121-.286-.156-.121-.052-.182-.121-.182-.208 1.335 0 2.011.399 2.028 1.196a.893.893 0 0 0-.234.104.395.395 0 0 1-.156.052.732.732 0 0 1-.182-.104c-.104-.07-.399-.104-.884-.104Zm9.048 5.46c-.017-.017-.139.044-.364.182a3.955 3.955 0 0 0-.676.468c-.225.19-.338.347-.338.468 0 .104.087.226.26.364.191.139.321.165.39.078.173-.26.156-.468-.052-.624-.087-.07-.017-.147.208-.234a4.276 4.276 0 0 1 1.456-.234c.26 0 .39-.112.39-.338 0-.104-.043-.2-.13-.286a.32.32 0 0 0-.26-.13 1.24 1.24 0 0 0-.338.078 2.552 2.552 0 0 0-.39.13l-.156.078Zm13.884-2.886c-.087-.277-.087-.494 0-.65.087-.173.191-.303.312-.39.139-.087.208-.156.208-.208 0-.156.052-.303.156-.442.104-.139.208-.156.312-.052.225.19.277.425.156.702-.017.035-.052.026-.104-.026h-.052c0-.017-.009-.026-.026-.026-.243 0-.442.173-.598.52-.139.347-.26.538-.364.572Zm-23.712.052c-.156 0-.26.052-.312.156-.052.104-.087.278-.104.52v.104c.312 0 .468-.156.468-.468 0-.07-.017-.173-.052-.312Zm17.654-2.782c-.191 0-.217.07-.078.208.017.035.087.078.208.13.139.035.217.078.234.13l-.026.052c0 .035.009.052.026.052.087.07.182.104.286.104.139 0 .156-.078.052-.234-.017-.017-.069-.008-.156.026-.069.017-.104.009-.104-.026a.654.654 0 0 0-.156-.286.41.41 0 0 0-.208-.156h-.078Zm-9.308.624c.069 0 .104-.035.104-.104 0-.07-.078-.104-.234-.104 0 .139.043.208.13.208Z"/></svg>