<svg width="300" height="300" viewBox="0 0 300 300" fill="none" xmlns="http://www.w3.org/2000/svg">
<path d="M224 138L219 135.113L219 140.887L224 138ZM76 138L76 138.5C76.005 138.5 76.0104 138.5 76.0161 138.5C76.0219 138.5 76.0279 138.5 76.0343 138.5C76.0407 138.5 76.0474 138.5 76.0545 138.5C76.0615 138.5 76.0689 138.5 76.0767 138.5C76.0844 138.5 76.0925 138.5 76.1009 138.5C76.1093 138.5 76.118 138.5 76.1271 138.5C76.1362 138.5 76.1456 138.5 76.1553 138.5C76.165 138.5 76.1751 138.5 76.1855 138.5C76.1959 138.5 76.2066 138.5 76.2177 138.5C76.2288 138.5 76.2402 138.5 76.2519 138.5C76.2636 138.5 76.2756 138.5 76.288 138.5C76.3004 138.5 76.3131 138.5 76.3261 138.5C76.3392 138.5 76.3525 138.5 76.3662 138.5C76.3799 138.5 76.3939 138.5 76.4082 138.5C76.4226 138.5 76.4372 138.5 76.4522 138.5C76.4672 138.5 76.4825 138.5 76.4982 138.5C76.5138 138.5 76.5297 138.5 76.546 138.5C76.5623 138.5 76.5789 138.5 76.5958 138.5C76.6128 138.5 76.63 138.5 76.6476 138.5C76.6651 138.5 76.683 138.5 76.7012 138.5C76.7194 138.5 76.7379 138.5 76.7568 138.5C76.7756 138.5 76.7948 138.5 76.8143 138.5C76.8337 138.5 76.8535 138.5 76.8737 138.5C76.8938 138.5 76.9142 138.5 76.9349 138.5C76.9557 138.5 76.9767 138.5 76.9981 138.5C77.0195 138.5 77.0412 138.5 77.0632 138.5C77.0852 138.5 77.1075 138.5 77.1301 138.5C77.1528 138.5 77.1757 138.5 77.1989 138.5C77.2222 138.5 77.2458 138.5 77.2696 138.5C77.2935 138.5 77.3177 138.5 77.3422 138.5C77.3667 138.5 77.3915 138.5 77.4166 138.5C77.4417 138.5 77.4671 138.5 77.4929 138.5C77.5186 138.5 77.5446 138.5 77.571 138.5C77.5973 138.5 77.624 138.5 77.6509 138.5C77.6779 138.5 77.7051 138.5 77.7327 138.5C77.7603 138.5 77.7881 138.5 77.8163 138.5C77.8445 138.5 77.873 138.5 77.9018 138.5C77.9305 138.5 77.9596 138.5 77.989 138.5C78.0184 138.5 78.0481 138.5 78.0781 138.5C78.1081 138.5 78.1384 138.5 78.1689 138.5C78.1995 138.5 78.2304 138.5 78.2616 138.5C78.2928 138.5 78.3243 138.5 78.3561 138.5C78.3879 138.5 78.4199 138.5 78.4523 138.5C78.4847 138.5 78.5174 138.5 78.5504 138.5C78.5833 138.5 78.6166 138.5 78.6502 138.5C78.6837 138.5 78.7176 138.5 78.7517 138.5C78.7859 138.5 78.8203 138.5 78.8551 138.5C78.8898 138.5 78.9249 138.5 78.9602 138.5C78.9955 138.5 79.0311 138.5 79.067 138.5C79.1029 138.5 79.1391 138.5 79.1756 138.5C79.2121 138.5 79.2489 138.5 79.286 138.5C79.3231 138.5 79.3604 138.5 79.3981 138.5C79.4357 138.5 79.4736 138.5 79.5119 138.5C79.5501 138.5 79.5886 138.5 79.6274 138.5C79.6662 138.5 79.7053 138.5 79.7446 138.5C79.784 138.5 79.8237 138.5 79.8636 138.5C79.9035 138.5 79.9438 138.5 79.9843 138.5C80.0248 138.5 80.0656 138.5 80.1066 138.5C80.1477 138.5 80.1891 138.5 80.2307 138.5C80.2723 138.5 80.3142 138.5 80.3564 138.5C80.3986 138.5 80.4411 138.5 80.4839 138.5C80.5266 138.5 80.5697 138.5 80.613 138.5C80.6563 138.5 80.6999 138.5 80.7437 138.5C80.7876 138.5 80.8318 138.5 80.8762 138.5C80.9206 138.5 80.9653 138.5 81.0103 138.5C81.0553 138.5 81.1005 138.5 81.146 138.5C81.1916 138.5 81.2374 138.5 81.2834 138.5C81.3295 138.5 81.3759 138.5 81.4225 138.5C81.4691 138.5 81.516 138.5 81.5632 138.5C81.6103 138.5 81.6578 138.5 81.7055 138.5C81.7532 138.5 81.8012 138.5 81.8494 138.5C81.8977 138.5 81.9462 138.5 81.995 138.5C82.0437 138.5 82.0928 138.5 82.1421 138.5C82.1914 138.5 82.241 138.5 82.2909 138.5C82.3407 138.5 82.3909 138.5 82.4413 138.5C82.4917 138.5 82.5423 138.5 82.5932 138.5C82.6441 138.5 82.6953 138.5 82.7468 138.5C82.7982 138.5 82.8499 138.5 82.9019 138.5C82.9539 138.5 83.0061 138.5 83.0586 138.5C83.1111 138.5 83.1639 138.5 83.2169 138.5C83.2699 138.5 83.3232 138.5 83.3768 138.5C83.4303 138.5 83.4841 138.5 83.5382 138.5C83.5923 138.5 83.6466 138.5 83.7012 138.5C83.7557 138.5 83.8106 138.5 83.8657 138.5C83.9208 138.5 83.9761 138.5 84.0317 138.5C84.0873 138.5 84.1432 138.5 84.1993 138.5C84.2554 138.5 84.3118 138.5 84.3684 138.5C84.4251 138.5 84.482 138.5 84.5391 138.5C84.5962 138.5 84.6536 138.5 84.7113 138.5C84.7689 138.5 84.8268 138.5 84.8849 138.5C84.9431 138.5 85.0015 138.5 85.0601 138.5C85.1188 138.5 85.1777 138.5 85.2368 138.5C85.296 138.5 85.3554 138.5 85.415 138.5C85.4746 138.5 85.5345 138.5 85.5947 138.5C85.6548 138.5 85.7152 138.5 85.7758 138.5C85.8365 138.5 85.8973 138.5 85.9585 138.5C86.0196 138.5 86.081 138.5 86.1426 138.5C86.2042 138.5 86.266 138.5 86.3281 138.5C86.3902 138.5 86.4526 138.5 86.5152 138.5C86.5778 138.5 86.6406 138.5 86.7037 138.5C86.7667 138.5 86.83 138.5 86.8936 138.5C86.9572 138.5 87.021 138.5 87.085 138.5C87.149 138.5 87.2133 138.5 87.2778 138.5C87.3423 138.5 87.4071 138.5 87.472 138.5C87.537 138.5 87.6023 138.5 87.6677 138.5C87.7332 138.5 87.7989 138.5 87.8648 138.5C87.9308 138.5 87.9969 138.5 88.0633 138.5C88.1297 138.5 88.1964 138.5 88.2632 138.5C88.3301 138.5 88.3972 138.5 88.4646 138.5C88.5319 138.5 88.5995 138.5 88.6673 138.5C88.7351 138.5 88.8031 138.5 88.8714 138.5C88.9396 138.5 89.0081 138.5 89.0769 138.5C89.1456 138.5 89.2145 138.5 89.2837 138.5C89.3529 138.5 89.4223 138.5 89.492 138.5C89.5616 138.5 89.6315 138.5 89.7016 138.5C89.7717 138.5 89.842 138.5 89.9125 138.5C89.9831 138.5 90.0539 138.5 90.1249 138.5C90.1959 138.5 90.2671 138.5 90.3385 138.5C90.41 138.5 90.4817 138.5 90.5535 138.5C90.6254 138.5 90.6976 138.5 90.7699 138.5C90.8422 138.5 90.9148 138.5 90.9876 138.5C91.0604 138.5 91.1334 138.5 91.2066 138.5C91.2798 138.5 91.3533 138.5 91.4269 138.5C91.5006 138.5 91.5745 138.5 91.6486 138.5C91.7227 138.5 91.797 138.5 91.8715 138.5C91.9461 138.5 92.0208 138.5 92.0958 138.5C92.1708 138.5 92.2459 138.5 92.3213 138.5C92.3967 138.5 92.4724 138.5 92.5482 138.5C92.624 138.5 92.7001 138.5 92.7763 138.5C92.8526 138.5 92.929 138.5 93.0057 138.5C93.0824 138.5 93.1593 138.5 93.2364 138.5C93.3135 138.5 93.3908 138.5 93.4684 138.5C93.5459 138.5 93.6236 138.5 93.7016 138.5C93.7795 138.5 93.8577 138.5 93.936 138.5C94.0144 138.5 94.093 138.5 94.1717 138.5C94.2505 138.5 94.3295 138.5 94.4087 138.5C94.4879 138.5 94.5673 138.5 94.6469 138.5C94.7265 138.5 94.8063 138.5 94.8863 138.5C94.9664 138.5 95.0466 138.5 95.127 138.5C95.2074 138.5 95.2881 138.5 95.3689 138.5C95.4497 138.5 95.5307 138.5 95.612 138.5C95.6932 138.5 95.7746 138.5 95.8563 138.5C95.9379 138.5 96.0198 138.5 96.1018 138.5C96.1838 138.5 96.2661 138.5 96.3485 138.5C96.4309 138.5 96.5136 138.5 96.5964 138.5C96.6792 138.5 96.7622 138.5 96.8455 138.5C96.9287 138.5 97.0121 138.5 97.0957 138.5C97.1793 138.5 97.2632 138.5 97.3472 138.5C97.4312 138.5 97.5154 138.5 97.5998 138.5C97.6842 138.5 97.7688 138.5 97.8535 138.5C97.9383 138.5 98.0233 138.5 98.1085 138.5C98.1936 138.5 98.279 138.5 98.3645 138.5C98.4501 138.5 98.5358 138.5 98.6218 138.5C98.7077 138.5 98.7938 138.5 98.8801 138.5C98.9664 138.5 99.0529 138.5 99.1396 138.5C99.2263 138.5 99.3132 138.5 99.4002 138.5C99.4873 138.5 99.5745 138.5 99.662 138.5C99.7494 138.5 99.837 138.5 99.9248 138.5C100.013 138.5 100.101 138.5 100.189 138.5C100.277 138.5 100.365 138.5 100.454 138.5C100.542 138.5 100.631 138.5 100.72 138.5C100.809 138.5 100.898 138.5 100.987 138.5C101.077 138.5 101.166 138.5 101.256 138.5C101.345 138.5 101.435 138.5 101.525 138.5C101.615 138.5 101.705 138.5 101.796 138.5C101.886 138.5 101.976 138.5 102.067 138.5C102.158 138.5 102.249 138.5 102.34 138.5C102.431 138.5 102.522 138.5 102.613 138.5C102.705 138.5 102.796 138.5 102.888 138.5C102.98 138.5 103.072 138.5 103.164 138.5C103.256 138.5 103.348 138.5 103.441 138.5C103.533 138.5 103.626 138.5 103.719 138.5C103.811 138.5 103.904 138.5 103.998 138.5C104.091 138.5 104.184 138.5 104.277 138.5C104.371 138.5 104.465 138.5 104.558 138.5C104.652 138.5 104.746 138.5 104.84 138.5C104.934 138.5 105.029 138.5 105.123 138.5C105.218 138.5 105.312 138.5 105.407 138.5C105.502 138.5 105.597 138.5 105.692 138.5C105.787 138.5 105.883 138.5 105.978 138.5C106.074 138.5 106.169 138.5 106.265 138.5C106.361 138.5 106.457 138.5 106.553 138.5C106.649 138.5 106.745 138.5 106.842 138.5C106.938 138.5 107.035 138.5 107.131 138.5C107.228 138.5 107.325 138.5 107.422 138.5C107.519 138.5 107.617 138.5 107.714 138.5C107.811 138.5 107.909 138.5 108.007 138.5C108.104 138.5 108.202 138.5 108.3 138.5C108.398 138.5 108.496 138.5 108.595 138.5C108.693 138.5 108.792 138.5 108.89 138.5C108.989 138.5 109.088 138.5 109.187 138.5C109.286 138.5 109.385 138.5 109.484 138.5C109.583 138.5 109.683 138.5 109.782 138.5C109.882 138.5 109.981 138.5 110.081 138.5C110.181 138.5 110.281 138.5 110.381 138.5C110.481 138.5 110.582 138.5 110.682 138.5C110.783 138.5 110.883 138.5 110.984 138.5C111.085 138.5 111.186 138.5 111.287 138.5C111.388 138.5 111.489 138.5 111.59 138.5C111.692 138.5 111.793 138.5 111.895 138.5C111.996 138.5 112.098 138.5 112.2 138.5C112.302 138.5 112.404 138.5 112.506 138.5C112.608 138.5 112.711 138.5 112.813 138.5C112.916 138.5 113.018 138.5 113.121 138.5C113.224 138.5 113.327 138.5 113.43 138.5C113.533 138.5 113.636 138.5 113.739 138.5C113.843 138.5 113.946 138.5 114.05 138.5C114.153 138.5 114.257 138.5 114.361 138.5C114.465 138.5 114.569 138.5 114.673 138.5C114.777 138.5 114.881 138.5 114.986 138.5C115.09 138.5 115.195 138.5 115.299 138.5C115.404 138.5 115.509 138.5 115.614 138.5C115.719 138.5 115.824 138.5 115.929 138.5C116.034 138.5 116.139 138.5 116.245 138.5C116.35 138.5 116.456 138.5 116.562 138.5C116.667 138.5 116.773 138.5 116.879 138.5C116.985 138.5 117.091 138.5 117.198 138.5C117.304 138.5 117.41 138.5 117.517 138.5C117.623 138.5 117.73 138.5 117.836 138.5C117.943 138.5 118.05 138.5 118.157 138.5C118.264 138.5 118.371 138.5 118.478 138.5C118.586 138.5 118.693 138.5 118.801 138.5C118.908 138.5 119.016 138.5 119.123 138.5C119.231 138.5 119.339 138.5 119.447 138.5C119.555 138.5 119.663 138.5 119.771 138.5C119.879 138.5 119.988 138.5 120.096 138.5C120.205 138.5 120.313 138.5 120.422 138.5C120.531 138.5 120.639 138.5 120.748 138.5C120.857 138.5 120.966 138.5 121.076 138.5C121.185 138.5 121.294 138.5 121.403 138.5C121.513 138.5 121.622 138.5 121.732 138.5C121.841 138.5 121.951 138.5 122.061 138.5C122.171 138.5 122.281 138.5 122.391 138.5C122.501 138.5 122.611 138.5 122.721 138.5C122.832 138.5 122.942 138.5 123.053 138.5C123.163 138.5 123.274 138.5 123.385 138.5C123.495 138.5 123.606 138.5 123.717 138.5C123.828 138.5 123.939 138.5 124.05 138.5C124.161 138.5 124.273 138.5 124.384 138.5C124.495 138.5 124.607 138.5 124.718 138.5C124.83 138.5 124.942 138.5 125.054 138.5C125.165 138.5 125.277 138.5 125.389 138.5C125.501 138.5 125.613 138.5 125.726 138.5C125.838 138.5 125.95 138.5 126.063 138.5C126.175 138.5 126.287 138.5 126.4 138.5C126.513 138.5 126.625 138.5 126.738 138.5C126.851 138.5 126.964 138.5 127.077 138.5C127.19 138.5 127.303 138.5 127.416 138.5C127.529 138.5 127.643 138.5 127.756 138.5C127.87 138.5 127.983 138.5 128.097 138.5C128.21 138.5 128.324 138.5 128.438 138.5C128.551 138.5 128.665 138.5 128.779 138.5C128.893 138.5 129.007 138.5 129.122 138.5C129.236 138.5 129.35 138.5 129.464 138.5C129.579 138.5 129.693 138.5 129.808 138.5C129.922 138.5 130.037 138.5 130.151 138.5C130.266 138.5 130.381 138.5 130.496 138.5C130.611 138.5 130.726 138.5 130.841 138.5C130.956 138.5 131.071 138.5 131.186 138.5C131.301 138.5 131.417 138.5 131.532 138.5C131.647 138.5 131.763 138.5 131.879 138.5C131.994 138.5 132.11 138.5 132.225 138.5C132.341 138.5 132.457 138.5 132.573 138.5C132.689 138.5 132.805 138.5 132.921 138.5C133.037 138.5 133.153 138.5 133.269 138.5C133.386 138.5 133.502 138.5 133.618 138.5C133.735 138.5 133.851 138.5 133.968 138.5C134.084 138.5 134.201 138.5 134.318 138.5C134.434 138.5 134.551 138.5 134.668 138.5C134.785 138.5 134.902 138.5 135.019 138.5C135.136 138.5 135.253 138.5 135.37 138.5C135.487 138.5 135.604 138.5 135.722 138.5C135.839 138.5 135.957 138.5 136.074 138.5C136.191 138.5 136.309 138.5 136.427 138.5C136.544 138.5 136.662 138.5 136.78 138.5C136.897 138.5 137.015 138.5 137.133 138.5C137.251 138.5 137.369 138.5 137.487 138.5C137.605 138.5 137.723 138.5 137.841 138.5C137.959 138.5 138.078 138.5 138.196 138.5C138.314 138.5 138.433 138.5 138.551 138.5C138.67 138.5 138.788 138.5 138.907 138.5C139.025 138.5 139.144 138.5 139.262 138.5C139.381 138.5 139.5 138.5 139.619 138.5C139.738 138.5 139.856 138.5 139.975 138.5C140.094 138.5 140.213 138.5 140.332 138.5C140.452 138.5 140.571 138.5 140.69 138.5C140.809 138.5 140.928 138.5 141.048 138.5C141.167 138.5 141.286 138.5 141.406 138.5C141.525 138.5 141.645 138.5 141.764 138.5C141.884 138.5 142.003 138.5 142.123 138.5C142.243 138.5 142.362 138.5 142.482 138.5C142.602 138.5 142.722 138.5 142.842 138.5C142.962 138.5 143.081 138.5 143.201 138.5C143.321 138.5 143.442 138.5 143.562 138.5C143.682 138.5 143.802 138.5 143.922 138.5C144.042 138.5 144.163 138.5 144.283 138.5C144.403 138.5 144.523 138.5 144.644 138.5C144.764 138.5 144.885 138.5 145.005 138.5C145.126 138.5 145.246 138.5 145.367 138.5C145.487 138.5 145.608 138.5 145.729 138.5C145.85 138.5 145.97 138.5 146.091 138.5C146.212 138.5 146.333 138.5 146.454 138.5C146.574 138.5 146.695 138.5 146.816 138.5C146.937 138.5 147.058 138.5 147.179 138.5C147.3 138.5 147.421 138.5 147.543 138.5C147.664 138.5 147.785 138.5 147.906 138.5C148.027 138.5 148.149 138.5 148.27 138.5C148.391 138.5 148.513 138.5 148.634 138.5C148.755 138.5 148.877 138.5 148.998 138.5C149.12 138.5 149.241 138.5 149.363 138.5C149.484 138.5 149.606 138.5 149.727 138.5C149.849 138.5 149.971 138.5 150.092 138.5C150.214 138.5 150.336 138.5 150.457 138.5C150.579 138.5 150.701 138.5 150.823 138.5C150.944 138.5 151.066 138.5 151.188 138.5C151.31 138.5 151.432 138.5 151.554 138.5C151.676 138.5 151.798 138.5 151.92 138.5C152.042 138.5 152.164 138.5 152.286 138.5C152.408 138.5 152.53 138.5 152.652 138.5C152.774 138.5 152.896 138.5 153.019 138.5C153.141 138.5 153.263 138.5 153.385 138.5C153.507 138.5 153.63 138.5 153.752 138.5C153.874 138.5 153.996 138.5 154.119 138.5C154.241 138.5 154.363 138.5 154.486 138.5C154.608 138.5 154.731 138.5 154.853 138.5C154.975 138.5 155.098 138.5 155.22 138.5C155.343 138.5 155.465 138.5 155.588 138.5C155.71 138.5 155.833 138.5 155.955 138.5C156.078 138.5 156.2 138.5 156.323 138.5C156.446 138.5 156.568 138.5 156.691 138.5C156.813 138.5 156.936 138.5 157.059 138.5C157.181 138.5 157.304 138.5 157.427 138.5C157.549 138.5 157.672 138.5 157.795 138.5C157.917 138.5 158.04 138.5 158.163 138.5C158.286 138.5 158.408 138.5 158.531 138.5C158.654 138.5 158.777 138.5 158.899 138.5C159.022 138.5 159.145 138.5 159.268 138.5C159.391 138.5 159.513 138.5 159.636 138.5C159.759 138.5 159.882 138.5 160.005 138.5C160.128 138.5 160.251 138.5 160.373 138.5C160.496 138.5 160.619 138.5 160.742 138.5C160.865 138.5 160.988 138.5 161.111 138.5C161.234 138.5 161.356 138.5 161.479 138.5C161.602 138.5 161.725 138.5 161.848 138.5C161.971 138.5 162.094 138.5 162.217 138.5C162.34 138.5 162.463 138.5 162.586 138.5C162.709 138.5 162.831 138.5 162.954 138.5C163.077 138.5 163.2 138.5 163.323 138.5C163.446 138.5 163.569 138.5 163.692 138.5C163.815 138.5 163.938 138.5 164.061 138.5C164.184 138.5 164.307 138.5 164.429 138.5C164.552 138.5 164.675 138.5 164.798 138.5C164.921 138.5 165.044 138.5 165.167 138.5C165.29 138.5 165.413 138.5 165.536 138.5C165.658 138.5 165.781 138.5 165.904 138.5C166.027 138.5 166.15 138.5 166.273 138.5C166.396 138.5 166.519 138.5 166.641 138.5C166.764 138.5 166.887 138.5 167.01 138.5C167.133 138.5 167.256 138.5 167.378 138.5C167.501 138.5 167.624 138.5 167.747 138.5C167.87 138.5 167.992 138.5 168.115 138.5C168.238 138.5 168.361 138.5 168.483 138.5C168.606 138.5 168.729 138.5 168.851 138.5C168.974 138.5 169.097 138.5 169.219 138.5C169.342 138.5 169.465 138.5 169.587 138.5C169.71 138.5 169.833 138.5 169.955 138.5C170.078 138.5 170.201 138.5 170.323 138.5C170.446 138.5 170.568 138.5 170.691 138.5C170.813 138.5 170.936 138.5 171.058 138.5C171.181 138.5 171.303 138.5 171.426 138.5C171.548 138.5 171.671 138.5 171.793 138.5C171.915 138.5 172.038 138.5 172.16 138.5C172.282 138.5 172.405 138.5 172.527 138.5C172.649 138.5 172.772 138.5 172.894 138.5C173.016 138.5 173.138 138.5 173.261 138.5C173.383 138.5 173.505 138.5 173.627 138.5C173.749 138.5 173.872 138.5 173.994 138.5C174.116 138.5 174.238 138.5 174.36 138.5C174.482 138.5 174.604 138.5 174.726 138.5C174.848 138.5 174.97 138.5 175.092 138.5C175.214 138.5 175.336 138.5 175.457 138.5C175.579 138.5 175.701 138.5 175.823 138.5C175.945 138.5 176.066 138.5 176.188 138.5C176.31 138.5 176.432 138.5 176.553 138.5C176.675 138.5 176.797 138.5 176.918 138.5C177.04 138.5 177.161 138.5 177.283 138.5C177.404 138.5 177.526 138.5 177.647 138.5C177.769 138.5 177.89 138.5 178.011 138.5C178.133 138.5 178.254 138.5 178.375 138.5C178.497 138.5 178.618 138.5 178.739 138.5C178.86 138.5 178.981 138.5 179.102 138.5C179.224 138.5 179.345 138.5 179.466 138.5C179.587 138.5 179.708 138.5 179.829 138.5C179.95 138.5 180.071 138.5 180.191 138.5C180.312 138.5 180.433 138.5 180.554 138.5C180.675 138.5 180.795 138.5 180.916 138.5C181.037 138.5 181.157 138.5 181.278 138.5C181.398 138.5 181.519 138.5 181.639 138.5C181.76 138.5 181.88 138.5 182.001 138.5C182.121 138.5 182.241 138.5 182.362 138.5C182.482 138.5 182.602 138.5 182.722 138.5C182.843 138.5 182.963 138.5 183.083 138.5C183.203 138.5 183.323 138.5 183.443 138.5C183.563 138.5 183.683 138.5 183.803 138.5C183.922 138.5 184.042 138.5 184.162 138.5C184.282 138.5 184.401 138.5 184.521 138.5C184.641 138.5 184.76 138.5 184.88 138.5C184.999 138.5 185.119 138.5 185.238 138.5C185.358 138.5 185.477 138.5 185.596 138.5C185.715 138.5 185.835 138.5 185.954 138.5C186.073 138.5 186.192 138.5 186.311 138.5C186.43 138.5 186.549 138.5 186.668 138.5C186.787 138.5 186.906 138.5 187.025 138.5C187.144 138.5 187.262 138.5 187.381 138.5C187.5 138.5 187.618 138.5 187.737 138.5C187.855 138.5 187.974 138.5 188.092 138.5C188.211 138.5 188.329 138.5 188.447 138.5C188.565 138.5 188.684 138.5 188.802 138.5C188.92 138.5 189.038 138.5 189.156 138.5C189.274 138.5 189.392 138.5 189.51 138.5C189.628 138.5 189.745 138.5 189.863 138.5C189.981 138.5 190.099 138.5 190.216 138.5C190.334 138.5 190.451 138.5 190.569 138.5C190.686 138.5 190.803 138.5 190.921 138.5C191.038 138.5 191.155 138.5 191.272 138.5C191.389 138.5 191.507 138.5 191.623 138.5C191.74 138.5 191.857 138.5 191.974 138.5C192.091 138.5 192.208 138.5 192.324 138.5C192.441 138.5 192.558 138.5 192.674 138.5C192.791 138.5 192.907 138.5 193.024 138.5C193.14 138.5 193.256 138.5 193.372 138.5C193.489 138.5 193.605 138.5 193.721 138.5C193.837 138.5 193.953 138.5 194.069 138.5C194.184 138.5 194.3 138.5 194.416 138.5C194.532 138.5 194.647 138.5 194.763 138.5C194.878 138.5 194.994 138.5 195.109 138.5C195.225 138.5 195.34 138.5 195.455 138.5C195.57 138.5 195.685 138.5 195.8 138.5C195.915 138.5 196.03 138.5 196.145 138.5C196.26 138.5 196.375 138.5 196.489 138.5C196.604 138.5 196.719 138.5 196.833 138.5C196.948 138.5 197.062 138.5 197.176 138.5C197.291 138.5 197.405 138.5 197.519 138.5C197.633 138.5 197.747 138.5 197.861 138.5C197.975 138.5 198.089 138.5 198.202 138.5C198.316 138.5 198.43 138.5 198.543 138.5C198.657 138.5 198.77 138.5 198.884 138.5C198.997 138.5 199.11 138.5 199.223 138.5C199.337 138.5 199.45 138.5 199.563 138.5C199.676 138.5 199.789 138.5 199.901 138.5C200.014 138.5 200.127 138.5 200.239 138.5C200.352 138.5 200.464 138.5 200.577 138.5C200.689 138.5 200.801 138.5 200.914 138.5C201.026 138.5 201.138 138.5 201.25 138.5C201.362 138.5 201.474 138.5 201.585 138.5C201.697 138.5 201.809 138.5 201.92 138.5C202.032 138.5 202.143 138.5 202.254 138.5C202.366 138.5 202.477 138.5 202.588 138.5C202.699 138.5 202.81 138.5 202.921 138.5C203.032 138.5 203.143 138.5 203.254 138.5C203.364 138.5 203.475 138.5 203.585 138.5C203.696 138.5 203.806 138.5 203.916 138.5C204.027 138.5 204.137 138.5 204.247 138.5C204.357 138.5 204.467 138.5 204.576 138.5C204.686 138.5 204.796 138.5 204.905 138.5C205.015 138.5 205.125 138.5 205.234 138.5C205.343 138.5 205.452 138.5 205.562 138.5C205.671 138.5 205.78 138.5 205.888 138.5C205.997 138.5 206.106 138.5 206.215 138.5C206.323 138.5 206.432 138.5 206.54 138.5C206.649 138.5 206.757 138.5 206.865 138.5C206.973 138.5 207.081 138.5 207.189 138.5C207.297 138.5 207.405 138.5 207.513 138.5C207.62 138.5 207.728 138.5 207.835 138.5C207.943 138.5 208.05 138.5 208.157 138.5C208.264 138.5 208.372 138.5 208.478 138.5C208.585 138.5 208.692 138.5 208.799 138.5C208.906 138.5 209.012 138.5 209.119 138.5C209.225 138.5 209.331 138.5 209.438 138.5C209.544 138.5 209.65 138.5 209.756 138.5C209.862 138.5 209.967 138.5 210.073 138.5C210.179 138.5 210.284 138.5 210.39 138.5C210.495 138.5 210.6 138.5 210.706 138.5C210.811 138.5 210.916 138.5 211.021 138.5C211.125 138.5 211.23 138.5 211.335 138.5C211.439 138.5 211.544 138.5 211.648 138.5C211.753 138.5 211.857 138.5 211.961 138.5C212.065 138.5 212.169 138.5 212.273 138.5C212.376 138.5 212.48 138.5 212.584 138.5C212.687 138.5 212.791 138.5 212.894 138.5C212.997 138.5 213.1 138.5 213.203 138.5C213.306 138.5 213.409 138.5 213.512 138.5C213.614 138.5 213.717 138.5 213.819 138.5C213.922 138.5 214.024 138.5 214.126 138.5C214.228 138.5 214.33 138.5 214.432 138.5C214.534 138.5 214.636 138.5 214.737 138.5C214.839 138.5 214.94 138.5 215.042 138.5C215.143 138.5 215.244 138.5 215.345 138.5C215.446 138.5 215.547 138.5 215.647 138.5C215.748 138.5 215.849 138.5 215.949 138.5C216.049 138.5 216.15 138.5 216.25 138.5C216.35 138.5 216.45 138.5 216.55 138.5C216.649 138.5 216.749 138.5 216.848 138.5C216.948 138.5 217.047 138.5 217.146 138.5C217.246 138.5 217.345 138.5 217.444 138.5C217.542 138.5 217.641 138.5 217.74 138.5C217.838 138.5 217.937 138.5 218.035 138.5C218.133 138.5 218.231 138.5 218.329 138.5C218.427 138.5 218.525 138.5 218.623 138.5C218.72 138.5 218.818 138.5 218.915 138.5C219.013 138.5 219.11 138.5 219.207 138.5C219.304 138.5 219.401 138.5 219.497 138.5L219.497 138L219.497 137.5C219.401 137.5 219.304 137.5 219.207 137.5C219.11 137.5 219.013 137.5 218.915 137.5C218.818 137.5 218.72 137.5 218.623 137.5C218.525 137.5 218.427 137.5 218.329 137.5C218.231 137.5 218.133 137.5 218.035 137.5C217.937 137.5 217.838 137.5 217.74 137.5C217.641 137.5 217.542 137.5 217.444 137.5C217.345 137.5 217.246 137.5 217.146 137.5C217.047 137.5 216.948 137.5 216.848 137.5C216.749 137.5 216.649 137.5 216.55 137.5C216.45 137.5 216.35 137.5 216.25 137.5C216.15 137.5 216.049 137.5 215.949 137.5C215.849 137.5 215.748 137.5 215.647 137.5C215.547 137.5 215.446 137.5 215.345 137.5C215.244 137.5 215.143 137.5 215.042 137.5C214.94 137.5 214.839 137.5 214.737 137.5C214.636 137.5 214.534 137.5 214.432 137.5C214.33 137.5 214.228 137.5 214.126 137.5C214.024 137.5 213.922 137.5 213.819 137.5C213.717 137.5 213.614 137.5 213.512 137.5C213.409 137.5 213.306 137.5 213.203 137.5C213.1 137.5 212.997 137.5 212.894 137.5C212.791 137.5 212.687 137.5 212.584 137.5C212.48 137.5 212.376 137.5 212.273 137.5C212.169 137.5 212.065 137.5 211.961 137.5C211.857 137.5 211.753 137.5 211.648 137.5C211.544 137.5 211.439 137.5 211.335 137.5C211.23 137.5 211.125 137.5 211.021 137.5C210.916 137.5 210.811 137.5 210.706 137.5C210.6 137.5 210.495 137.5 210.39 137.5C210.284 137.5 210.179 137.5 210.073 137.5C209.967 137.5 209.862 137.5 209.756 137.5C209.65 137.5 209.544 137.5 209.438 137.5C209.331 137.5 209.225 137.5 209.119 137.5C209.012 137.5 208.906 137.5 208.799 137.5C208.692 137.5 208.585 137.5 208.478 137.5C208.372 137.5 208.264 137.5 208.157 137.5C208.05 137.5 207.943 137.5 207.835 137.5C207.728 137.5 207.62 137.5 207.513 137.5C207.405 137.5 207.297 137.5 207.189 137.5C207.081 137.5 206.973 137.5 206.865 137.5C206.757 137.5 206.649 137.5 206.54 137.5C206.432 137.5 206.323 137.5 206.215 137.5C206.106 137.5 205.997 137.5 205.888 137.5C205.78 137.5 205.671 137.5 205.562 137.5C205.452 137.5 205.343 137.5 205.234 137.5C205.125 137.5 205.015 137.5 204.905 137.5C204.796 137.5 204.686 137.5 204.576 137.5C204.467 137.5 204.357 137.5 204.247 137.5C204.137 137.5 204.027 137.5 203.916 137.5C203.806 137.5 203.696 137.5 203.585 137.5C203.475 137.5 203.364 137.5 203.254 137.5C203.143 137.5 203.032 137.5 202.921 137.5C202.81 137.5 202.699 137.5 202.588 137.5C202.477 137.5 202.366 137.5 202.254 137.5C202.143 137.5 202.032 137.5 201.92 137.5C201.809 137.5 201.697 137.5 201.585 137.5C201.474 137.5 201.362 137.5 201.25 137.5C201.138 137.5 201.026 137.5 200.914 137.5C200.801 137.5 200.689 137.5 200.577 137.5C200.464 137.5 200.352 137.5 200.239 137.5C200.127 137.5 200.014 137.5 199.901 137.5C199.789 137.5 199.676 137.5 199.563 137.5C199.45 137.5 199.337 137.5 199.223 137.5C199.11 137.5 198.997 137.5 198.884 137.5C198.77 137.5 198.657 137.5 198.543 137.5C198.43 137.5 198.316 137.5 198.202 137.5C198.089 137.5 197.975 137.5 197.861 137.5C197.747 137.5 197.633 137.5 197.519 137.5C197.405 137.5 197.291 137.5 197.176 137.5C197.062 137.5 196.948 137.5 196.833 137.5C196.719 137.5 196.604 137.5 196.489 137.5C196.375 137.5 196.26 137.5 196.145 137.5C196.03 137.5 195.915 137.5 195.8 137.5C195.685 137.5 195.57 137.5 195.455 137.5C195.34 137.5 195.225 137.5 195.109 137.5C194.994 137.5 194.878 137.5 194.763 137.5C194.647 137.5 194.532 137.5 194.416 137.5C194.3 137.5 194.184 137.5 194.069 137.5C193.953 137.5 193.837 137.5 193.721 137.5C193.605 137.5 193.489 137.5 193.372 137.5C193.256 137.5 193.14 137.5 193.024 137.5C192.907 137.5 192.791 137.5 192.674 137.5C192.558 137.5 192.441 137.5 192.324 137.5C192.208 137.5 192.091 137.5 191.974 137.5C191.857 137.5 191.74 137.5 191.623 137.5C191.507 137.5 191.389 137.5 191.272 137.5C191.155 137.5 191.038 137.5 190.921 137.5C190.803 137.5 190.686 137.5 190.569 137.5C190.451 137.5 190.334 137.5 190.216 137.5C190.099 137.5 189.981 137.5 189.863 137.5C189.745 137.5 189.628 137.5 189.51 137.5C189.392 137.5 189.274 137.5 189.156 137.5C189.038 137.5 188.92 137.5 188.802 137.5C188.684 137.5 188.565 137.5 188.447 137.5C188.329 137.5 188.211 137.5 188.092 137.5C187.974 137.5 187.855 137.5 187.737 137.5C187.618 137.5 187.5 137.5 187.381 137.5C187.262 137.5 187.144 137.5 187.025 137.5C186.906 137.5 186.787 137.5 186.668 137.5C186.549 137.5 186.43 137.5 186.311 137.5C186.192 137.5 186.073 137.5 185.954 137.5C185.835 137.5 185.715 137.5 185.596 137.5C185.477 137.5 185.358 137.5 185.238 137.5C185.119 137.5 184.999 137.5 184.88 137.5C184.76 137.5 184.641 137.5 184.521 137.5C184.401 137.5 184.282 137.5 184.162 137.5C184.042 137.5 183.922 137.5 183.803 137.5C183.683 137.5 183.563 137.5 183.443 137.5C183.323 137.5 183.203 137.5 183.083 137.5C182.963 137.5 182.843 137.5 182.722 137.5C182.602 137.5 182.482 137.5 182.362 137.5C182.241 137.5 182.121 137.5 182.001 137.5C181.88 137.5 181.76 137.5 181.639 137.5C181.519 137.5 181.398 137.5 181.278 137.5C181.157 137.5 181.037 137.5 180.916 137.5C180.795 137.5 180.675 137.5 180.554 137.5C180.433 137.5 180.312 137.5 180.191 137.5C180.071 137.5 179.95 137.5 179.829 137.5C179.708 137.5 179.587 137.5 179.466 137.5C179.345 137.5 179.224 137.5 179.102 137.5C178.981 137.5 178.86 137.5 178.739 137.5C178.618 137.5 178.497 137.5 178.375 137.5C178.254 137.5 178.133 137.5 178.011 137.5C177.89 137.5 177.769 137.5 177.647 137.5C177.526 137.5 177.404 137.5 177.283 137.5C177.161 137.5 177.04 137.5 176.918 137.5C176.797 137.5 176.675 137.5 176.553 137.5C176.432 137.5 176.31 137.5 176.188 137.5C176.066 137.5 175.945 137.5 175.823 137.5C175.701 137.5 175.579 137.5 175.457 137.5C175.336 137.5 175.214 137.5 175.092 137.5C174.97 137.5 174.848 137.5 174.726 137.5C174.604 137.5 174.482 137.5 174.36 137.5C174.238 137.5 174.116 137.5 173.994 137.5C173.872 137.5 173.749 137.5 173.627 137.5C173.505 137.5 173.383 137.5 173.261 137.5C173.138 137.5 173.016 137.5 172.894 137.5C172.772 137.5 172.649 137.5 172.527 137.5C172.405 137.5 172.282 137.5 172.16 137.5C172.038 137.5 171.915 137.5 171.793 137.5C171.671 137.5 171.548 137.5 171.426 137.5C171.303 137.5 171.181 137.5 171.058 137.5C170.936 137.5 170.813 137.5 170.691 137.5C170.568 137.5 170.446 137.5 170.323 137.5C170.201 137.5 170.078 137.5 169.955 137.5C169.833 137.5 169.71 137.5 169.587 137.5C169.465 137.5 169.342 137.5 169.219 137.5C169.097 137.5 168.974 137.5 168.851 137.5C168.729 137.5 168.606 137.5 168.483 137.5C168.361 137.5 168.238 137.5 168.115 137.5C167.992 137.5 167.87 137.5 167.747 137.5C167.624 137.5 167.501 137.5 167.378 137.5C167.256 137.5 167.133 137.5 167.01 137.5C166.887 137.5 166.764 137.5 166.641 137.5C166.519 137.5 166.396 137.5 166.273 137.5C166.15 137.5 166.027 137.5 165.904 137.5C165.781 137.5 165.658 137.5 165.536 137.5C165.413 137.5 165.29 137.5 165.167 137.5C165.044 137.5 164.921 137.5 164.798 137.5C164.675 137.5 164.552 137.5 164.429 137.5C164.307 137.5 164.184 137.5 164.061 137.5C163.938 137.5 163.815 137.5 163.692 137.5C163.569 137.5 163.446 137.5 163.323 137.5C163.2 137.5 163.077 137.5 162.954 137.5C162.831 137.5 162.709 137.5 162.586 137.5C162.463 137.5 162.34 137.5 162.217 137.5C162.094 137.5 161.971 137.5 161.848 137.5C161.725 137.5 161.602 137.5 161.479 137.5C161.356 137.5 161.234 137.5 161.111 137.5C160.988 137.5 160.865 137.5 160.742 137.5C160.619 137.5 160.496 137.5 160.373 137.5C160.251 137.5 160.128 137.5 160.005 137.5C159.882 137.5 159.759 137.5 159.636 137.5C159.513 137.5 159.391 137.5 159.268 137.5C159.145 137.5 159.022 137.5 158.899 137.5C158.777 137.5 158.654 137.5 158.531 137.5C158.408 137.5 158.286 137.5 158.163 137.5C158.04 137.5 157.917 137.5 157.795 137.5C157.672 137.5 157.549 137.5 157.427 137.5C157.304 137.5 157.181 137.5 157.059 137.5C156.936 137.5 156.813 137.5 156.691 137.5C156.568 137.5 156.446 137.5 156.323 137.5C156.2 137.5 156.078 137.5 155.955 137.5C155.833 137.5 155.71 137.5 155.588 137.5C155.465 137.5 155.343 137.5 155.22 137.5C155.098 137.5 154.975 137.5 154.853 137.5C154.731 137.5 154.608 137.5 154.486 137.5C154.363 137.5 154.241 137.5 154.119 137.5C153.996 137.5 153.874 137.5 153.752 137.5C153.63 137.5 153.507 137.5 153.385 137.5C153.263 137.5 153.141 137.5 153.019 137.5C152.896 137.5 152.774 137.5 152.652 137.5C152.53 137.5 152.408 137.5 152.286 137.5C152.164 137.5 152.042 137.5 151.92 137.5C151.798 137.5 151.676 137.5 151.554 137.5C151.432 137.5 151.31 137.5 151.188 137.5C151.066 137.5 150.944 137.5 150.823 137.5C150.701 137.5 150.579 137.5 150.457 137.5C150.336 137.5 150.214 137.5 150.092 137.5C149.971 137.5 149.849 137.5 149.727 137.5C149.606 137.5 149.484 137.5 149.363 137.5C149.241 137.5 149.12 137.5 148.998 137.5C148.877 137.5 148.755 137.5 148.634 137.5C148.513 137.5 148.391 137.5 148.27 137.5C148.149 137.5 148.027 137.5 147.906 137.5C147.785 137.5 147.664 137.5 147.543 137.5C147.421 137.5 147.3 137.5 147.179 137.5C147.058 137.5 146.937 137.5 146.816 137.5C146.695 137.5 146.574 137.5 146.454 137.5C146.333 137.5 146.212 137.5 146.091 137.5C145.97 137.5 145.85 137.5 145.729 137.5C145.608 137.5 145.487 137.5 145.367 137.5C145.246 137.5 145.126 137.5 145.005 137.5C144.885 137.5 144.764 137.5 144.644 137.5C144.523 137.5 144.403 137.5 144.283 137.5C144.163 137.5 144.042 137.5 143.922 137.5C143.802 137.5 143.682 137.5 143.562 137.5C143.442 137.5 143.321 137.5 143.201 137.5C143.081 137.5 142.962 137.5 142.842 137.5C142.722 137.5 142.602 137.5 142.482 137.5C142.362 137.5 142.243 137.5 142.123 137.5C142.003 137.5 141.884 137.5 141.764 137.5C141.645 137.5 141.525 137.5 141.406 137.5C141.286 137.5 141.167 137.5 141.048 137.5C140.928 137.5 140.809 137.5 140.69 137.5C140.571 137.5 140.452 137.5 140.332 137.5C140.213 137.5 140.094 137.5 139.975 137.5C139.856 137.5 139.738 137.5 139.619 137.5C139.5 137.5 139.381 137.5 139.262 137.5C139.144 137.5 139.025 137.5 138.907 137.5C138.788 137.5 138.67 137.5 138.551 137.5C138.433 137.5 138.314 137.5 138.196 137.5C138.078 137.5 137.959 137.5 137.841 137.5C137.723 137.5 137.605 137.5 137.487 137.5C137.369 137.5 137.251 137.5 137.133 137.5C137.015 137.5 136.897 137.5 136.78 137.5C136.662 137.5 136.544 137.5 136.427 137.5C136.309 137.5 136.191 137.5 136.074 137.5C135.957 137.5 135.839 137.5 135.722 137.5C135.604 137.5 135.487 137.5 135.37 137.5C135.253 137.5 135.136 137.5 135.019 137.5C134.902 137.5 134.785 137.5 134.668 137.5C134.551 137.5 134.434 137.5 134.318 137.5C134.201 137.5 134.084 137.5 133.968 137.5C133.851 137.5 133.735 137.5 133.618 137.5C133.502 137.5 133.386 137.5 133.269 137.5C133.153 137.5 133.037 137.5 132.921 137.5C132.805 137.5 132.689 137.5 132.573 137.5C132.457 137.5 132.341 137.5 132.225 137.5C132.11 137.5 131.994 137.5 131.879 137.5C131.763 137.5 131.647 137.5 131.532 137.5C131.417 137.5 131.301 137.5 131.186 137.5C131.071 137.5 130.956 137.5 130.841 137.5C130.726 137.5 130.611 137.5 130.496 137.5C130.381 137.5 130.266 137.5 130.151 137.5C130.037 137.5 129.922 137.5 129.808 137.5C129.693 137.5 129.579 137.5 129.464 137.5C129.35 137.5 129.236 137.5 129.122 137.5C129.007 137.5 128.893 137.5 128.779 137.5C128.665 137.5 128.551 137.5 128.438 137.5C128.324 137.5 128.21 137.5 128.097 137.5C127.983 137.5 127.87 137.5 127.756 137.5C127.643 137.5 127.529 137.5 127.416 137.5C127.303 137.5 127.19 137.5 127.077 137.5C126.964 137.5 126.851 137.5 126.738 137.5C126.625 137.5 126.513 137.5 126.4 137.5C126.287 137.5 126.175 137.5 126.063 137.5C125.95 137.5 125.838 137.5 125.726 137.5C125.613 137.5 125.501 137.5 125.389 137.5C125.277 137.5 125.165 137.5 125.054 137.5C124.942 137.5 124.83 137.5 124.718 137.5C124.607 137.5 124.495 137.5 124.384 137.5C124.273 137.5 124.161 137.5 124.05 137.5C123.939 137.5 123.828 137.5 123.717 137.5C123.606 137.5 123.495 137.5 123.385 137.5C123.274 137.5 123.163 137.5 123.053 137.5C122.942 137.5 122.832 137.5 122.721 137.5C122.611 137.5 122.501 137.5 122.391 137.5C122.281 137.5 122.171 137.5 122.061 137.5C121.951 137.5 121.841 137.5 121.732 137.5C121.622 137.5 121.513 137.5 121.403 137.5C121.294 137.5 121.185 137.5 121.076 137.5C120.966 137.5 120.857 137.5 120.748 137.5C120.639 137.5 120.531 137.5 120.422 137.5C120.313 137.5 120.205 137.5 120.096 137.5C119.988 137.5 119.879 137.5 119.771 137.5C119.663 137.5 119.555 137.5 119.447 137.5C119.339 137.5 119.231 137.5 119.123 137.5C119.016 137.5 118.908 137.5 118.801 137.5C118.693 137.5 118.586 137.5 118.478 137.5C118.371 137.5 118.264 137.5 118.157 137.5C118.05 137.5 117.943 137.5 117.836 137.5C117.73 137.5 117.623 137.5 117.517 137.5C117.41 137.5 117.304 137.5 117.198 137.5C117.091 137.5 116.985 137.5 116.879 137.5C116.773 137.5 116.667 137.5 116.562 137.5C116.456 137.5 116.35 137.5 116.245 137.5C116.139 137.5 116.034 137.5 115.929 137.5C115.824 137.5 115.719 137.5 115.614 137.5C115.509 137.5 115.404 137.5 115.299 137.5C115.195 137.5 115.09 137.5 114.986 137.5C114.881 137.5 114.777 137.5 114.673 137.5C114.569 137.5 114.465 137.5 114.361 137.5C114.257 137.5 114.153 137.5 114.05 137.5C113.946 137.5 113.843 137.5 113.739 137.5C113.636 137.5 113.533 137.5 113.43 137.5C113.327 137.5 113.224 137.5 113.121 137.5C113.018 137.5 112.916 137.5 112.813 137.5C112.711 137.5 112.608 137.5 112.506 137.5C112.404 137.5 112.302 137.5 112.2 137.5C112.098 137.5 111.996 137.5 111.895 137.5C111.793 137.5 111.692 137.5 111.59 137.5C111.489 137.5 111.388 137.5 111.287 137.5C111.186 137.5 111.085 137.5 110.984 137.5C110.883 137.5 110.783 137.5 110.682 137.5C110.582 137.5 110.481 137.5 110.381 137.5C110.281 137.5 110.181 137.5 110.081 137.5C109.981 137.5 109.882 137.5 109.782 137.5C109.683 137.5 109.583 137.5 109.484 137.5C109.385 137.5 109.286 137.5 109.187 137.5C109.088 137.5 108.989 137.5 108.89 137.5C108.792 137.5 108.693 137.5 108.595 137.5C108.496 137.5 108.398 137.5 108.3 137.5C108.202 137.5 108.104 137.5 108.007 137.5C107.909 137.5 107.811 137.5 107.714 137.5C107.617 137.5 107.519 137.5 107.422 137.5C107.325 137.5 107.228 137.5 107.131 137.5C107.035 137.5 106.938 137.5 106.842 137.5C106.745 137.5 106.649 137.5 106.553 137.5C106.457 137.5 106.361 137.5 106.265 137.5C106.169 137.5 106.074 137.5 105.978 137.5C105.883 137.5 105.787 137.5 105.692 137.5C105.597 137.5 105.502 137.5 105.407 137.5C105.312 137.5 105.218 137.5 105.123 137.5C105.029 137.5 104.934 137.5 104.84 137.5C104.746 137.5 104.652 137.5 104.558 137.5C104.465 137.5 104.371 137.5 104.277 137.5C104.184 137.5 104.091 137.5 103.998 137.5C103.904 137.5 103.811 137.5 103.719 137.5C103.626 137.5 103.533 137.5 103.441 137.5C103.348 137.5 103.256 137.5 103.164 137.5C103.072 137.5 102.98 137.5 102.888 137.5C102.796 137.5 102.705 137.5 102.613 137.5C102.522 137.5 102.431 137.5 102.34 137.5C102.249 137.5 102.158 137.5 102.067 137.5C101.976 137.5 101.886 137.5 101.796 137.5C101.705 137.5 101.615 137.5 101.525 137.5C101.435 137.5 101.345 137.5 101.256 137.5C101.166 137.5 101.077 137.5 100.987 137.5C100.898 137.5 100.809 137.5 100.72 137.5C100.631 137.5 100.542 137.5 100.454 137.5C100.365 137.5 100.277 137.5 100.189 137.5C100.101 137.5 100.013 137.5 99.9248 137.5C99.837 137.5 99.7494 137.5 99.662 137.5C99.5745 137.5 99.4873 137.5 99.4002 137.5C99.3132 137.5 99.2263 137.5 99.1396 137.5C99.0529 137.5 98.9664 137.5 98.8801 137.5C98.7938 137.5 98.7077 137.5 98.6218 137.5C98.5358 137.5 98.4501 137.5 98.3645 137.5C98.279 137.5 98.1936 137.5 98.1085 137.5C98.0233 137.5 97.9383 137.5 97.8535 137.5C97.7688 137.5 97.6842 137.5 97.5998 137.5C97.5154 137.5 97.4312 137.5 97.3472 137.5C97.2632 137.5 97.1793 137.5 97.0957 137.5C97.0121 137.5 96.9287 137.5 96.8455 137.5C96.7622 137.5 96.6792 137.5 96.5964 137.5C96.5136 137.5 96.4309 137.5 96.3485 137.5C96.2661 137.5 96.1838 137.5 96.1018 137.5C96.0198 137.5 95.9379 137.5 95.8563 137.5C95.7746 137.5 95.6932 137.5 95.612 137.5C95.5307 137.5 95.4497 137.5 95.3689 137.5C95.2881 137.5 95.2074 137.5 95.127 137.5C95.0466 137.5 94.9664 137.5 94.8863 137.5C94.8063 137.5 94.7265 137.5 94.6469 137.5C94.5673 137.5 94.4879 137.5 94.4087 137.5C94.3295 137.5 94.2505 137.5 94.1717 137.5C94.093 137.5 94.0144 137.5 93.936 137.5C93.8577 137.5 93.7795 137.5 93.7016 137.5C93.6236 137.5 93.5459 137.5 93.4684 137.5C93.3908 137.5 93.3135 137.5 93.2364 137.5C93.1593 137.5 93.0824 137.5 93.0057 137.5C92.929 137.5 92.8526 137.5 92.7763 137.5C92.7001 137.5 92.624 137.5 92.5482 137.5C92.4724 137.5 92.3967 137.5 92.3213 137.5C92.2459 137.5 92.1708 137.5 92.0958 137.5C92.0208 137.5 91.9461 137.5 91.8715 137.5C91.797 137.5 91.7227 137.5 91.6486 137.5C91.5745 137.5 91.5006 137.5 91.4269 137.5C91.3533 137.5 91.2798 137.5 91.2066 137.5C91.1334 137.5 91.0604 137.5 90.9876 137.5C90.9148 137.5 90.8422 137.5 90.7699 137.5C90.6976 137.5 90.6254 137.5 90.5535 137.5C90.4817 137.5 90.41 137.5 90.3385 137.5C90.2671 137.5 90.1959 137.5 90.1249 137.5C90.0539 137.5 89.9831 137.5 89.9125 137.5C89.842 137.5 89.7717 137.5 89.7016 137.5C89.6315 137.5 89.5616 137.5 89.492 137.5C89.4223 137.5 89.3529 137.5 89.2837 137.5C89.2145 137.5 89.1456 137.5 89.0769 137.5C89.0081 137.5 88.9396 137.5 88.8714 137.5C88.8031 137.5 88.7351 137.5 88.6673 137.5C88.5995 137.5 88.5319 137.5 88.4646 137.5C88.3972 137.5 88.3301 137.5 88.2632 137.5C88.1964 137.5 88.1297 137.5 88.0633 137.5C87.9969 137.5 87.9308 137.5 87.8648 137.5C87.7989 137.5 87.7332 137.5 87.6677 137.5C87.6023 137.5 87.537 137.5 87.472 137.5C87.4071 137.5 87.3423 137.5 87.2778 137.5C87.2133 137.5 87.149 137.5 87.085 137.5C87.021 137.5 86.9572 137.5 86.8936 137.5C86.83 137.5 86.7667 137.5 86.7037 137.5C86.6406 137.5 86.5778 137.5 86.5152 137.5C86.4526 137.5 86.3902 137.5 86.3281 137.5C86.266 137.5 86.2042 137.5 86.1426 137.5C86.081 137.5 86.0196 137.5 85.9585 137.5C85.8973 137.5 85.8365 137.5 85.7758 137.5C85.7152 137.5 85.6548 137.5 85.5947 137.5C85.5345 137.5 85.4746 137.5 85.415 137.5C85.3554 137.5 85.296 137.5 85.2368 137.5C85.1777 137.5 85.1188 137.5 85.0601 137.5C85.0015 137.5 84.9431 137.5 84.8849 137.5C84.8268 137.5 84.7689 137.5 84.7113 137.5C84.6536 137.5 84.5962 137.5 84.5391 137.5C84.482 137.5 84.4251 137.5 84.3684 137.5C84.3118 137.5 84.2554 137.5 84.1993 137.5C84.1432 137.5 84.0873 137.5 84.0317 137.5C83.9761 137.5 83.9208 137.5 83.8657 137.5C83.8106 137.5 83.7557 137.5 83.7012 137.5C83.6466 137.5 83.5923 137.5 83.5382 137.5C83.4841 137.5 83.4303 137.5 83.3768 137.5C83.3232 137.5 83.2699 137.5 83.2169 137.5C83.1639 137.5 83.1111 137.5 83.0586 137.5C83.0061 137.5 82.9539 137.5 82.9019 137.5C82.8499 137.5 82.7982 137.5 82.7468 137.5C82.6953 137.5 82.6441 137.5 82.5932 137.5C82.5423 137.5 82.4917 137.5 82.4413 137.5C82.3909 137.5 82.3407 137.5 82.2909 137.5C82.241 137.5 82.1914 137.5 82.1421 137.5C82.0928 137.5 82.0437 137.5 81.995 137.5C81.9462 137.5 81.8977 137.5 81.8494 137.5C81.8012 137.5 81.7532 137.5 81.7055 137.5C81.6578 137.5 81.6103 137.5 81.5632 137.5C81.516 137.5 81.4691 137.5 81.4225 137.5C81.3759 137.5 81.3295 137.5 81.2834 137.5C81.2374 137.5 81.1916 137.5 81.146 137.5C81.1005 137.5 81.0553 137.5 81.0103 137.5C80.9653 137.5 80.9206 137.5 80.8762 137.5C80.8318 137.5 80.7876 137.5 80.7437 137.5C80.6999 137.5 80.6563 137.5 80.613 137.5C80.5697 137.5 80.5266 137.5 80.4839 137.5C80.4411 137.5 80.3986 137.5 80.3564 137.5C80.3142 137.5 80.2723 137.5 80.2307 137.5C80.1891 137.5 80.1477 137.5 80.1066 137.5C80.0656 137.5 80.0248 137.5 79.9843 137.5C79.9438 137.5 79.9035 137.5 79.8636 137.5C79.8237 137.5 79.784 137.5 79.7446 137.5C79.7053 137.5 79.6662 137.5 79.6274 137.5C79.5886 137.5 79.5501 137.5 79.5119 137.5C79.4736 137.5 79.4357 137.5 79.3981 137.5C79.3604 137.5 79.3231 137.5 79.286 137.5C79.2489 137.5 79.2121 137.5 79.1756 137.5C79.1391 137.5 79.1029 137.5 79.067 137.5C79.0311 137.5 78.9955 137.5 78.9602 137.5C78.9249 137.5 78.8898 137.5 78.8551 137.5C78.8203 137.5 78.7859 137.5 78.7517 137.5C78.7176 137.5 78.6837 137.5 78.6502 137.5C78.6166 137.5 78.5833 137.5 78.5504 137.5C78.5174 137.5 78.4847 137.5 78.4523 137.5C78.4199 137.5 78.3879 137.5 78.3561 137.5C78.3243 137.5 78.2928 137.5 78.2616 137.5C78.2304 137.5 78.1995 137.5 78.1689 137.5C78.1384 137.5 78.1081 137.5 78.0781 137.5C78.0481 137.5 78.0184 137.5 77.989 137.5C77.9596 137.5 77.9305 137.5 77.9018 137.5C77.873 137.5 77.8445 137.5 77.8163 137.5C77.7881 137.5 77.7603 137.5 77.7327 137.5C77.7051 137.5 77.6779 137.5 77.6509 137.5C77.624 137.5 77.5973 137.5 77.571 137.5C77.5446 137.5 77.5186 137.5 77.4929 137.5C77.4671 137.5 77.4417 137.5 77.4166 137.5C77.3915 137.5 77.3667 137.5 77.3422 137.5C77.3177 137.5 77.2935 137.5 77.2696 137.5C77.2458 137.5 77.2222 137.5 77.1989 137.5C77.1757 137.5 77.1528 137.5 77.1301 137.5C77.1075 137.5 77.0852 137.5 77.0632 137.5C77.0412 137.5 77.0195 137.5 76.9981 137.5C76.9767 137.5 76.9557 137.5 76.9349 137.5C76.9142 137.5 76.8938 137.5 76.8737 137.5C76.8535 137.5 76.8337 137.5 76.8143 137.5C76.7948 137.5 76.7756 137.5 76.7568 137.5C76.7379 137.5 76.7194 137.5 76.7012 137.5C76.683 137.5 76.6651 137.5 76.6476 137.5C76.63 137.5 76.6128 137.5 76.5958 137.5C76.5789 137.5 76.5623 137.5 76.546 137.5C76.5297 137.5 76.5138 137.5 76.4982 137.5C76.4825 137.5 76.4672 137.5 76.4522 137.5C76.4372 137.5 76.4226 137.5 76.4082 137.5C76.3939 137.5 76.3799 137.5 76.3662 137.5C76.3525 137.5 76.3392 137.5 76.3261 137.5C76.3131 137.5 76.3004 137.5 76.288 137.5C76.2756 137.5 76.2636 137.5 76.2519 137.5C76.2402 137.5 76.2288 137.5 76.2177 137.5C76.2066 137.5 76.1959 137.5 76.1855 137.5C76.1751 137.5 76.165 137.5 76.1553 137.5C76.1456 137.5 76.1362 137.5 76.1271 137.5C76.118 137.5 76.1093 137.5 76.1009 137.5C76.0925 137.5 76.0844 137.5 76.0767 137.5C76.0689 137.5 76.0615 137.5 76.0545 137.5C76.0474 137.5 76.0407 137.5 76.0343 137.5C76.0279 137.5 76.0219 137.5 76.0161 137.5C76.0104 137.5 76.005 137.5 76 137.5L76 138Z" fill="black"/>
<path d="M57.3333 199C57.3333 200.473 58.5272 201.667 60 201.667C61.4728 201.667 62.6667 200.473 62.6667 199C62.6667 197.527 61.4728 196.333 60 196.333C58.5272 196.333 57.3333 197.527 57.3333 199ZM237.333 199C237.333 200.473 238.527 201.667 240 201.667C241.473 201.667 242.667 200.473 242.667 199C242.667 197.527 241.473 196.333 240 196.333C238.527 196.333 237.333 197.527 237.333 199ZM60 199L60 199.5C60.1373 199.5 60.2747 199.5 60.4123 199.5C60.5499 199.5 60.6877 199.5 60.8256 199.5C60.9634 199.5 61.1015 199.5 61.2397 199.5C61.3779 199.5 61.5162 199.5 61.6547 199.5C61.7931 199.5 61.9318 199.5 62.0705 199.5C62.2093 199.5 62.3482 199.5 62.4873 199.5C62.6263 199.5 62.7655 199.5 62.9049 199.5C63.0442 199.5 63.1837 199.5 63.3233 199.5C63.463 199.5 63.6027 199.5 63.7427 199.5C63.8826 199.5 64.0226 199.5 64.1628 199.5C64.303 199.5 64.4433 199.5 64.5838 199.5C64.7243 199.5 64.8649 199.5 65.0056 199.5C65.1463 199.5 65.2872 199.5 65.4282 199.5C65.5693 199.5 65.7104 199.5 65.8517 199.5C65.993 199.5 66.1344 199.5 66.2759 199.5C66.4175 199.5 66.5592 199.5 66.701 199.5C66.8428 199.5 66.9848 199.5 67.1269 199.5C67.269 199.5 67.4112 199.5 67.5535 199.5C67.6959 199.5 67.8383 199.5 67.9809 199.5C68.1235 199.5 68.2663 199.5 68.4091 199.5C68.552 199.5 68.695 199.5 68.8381 199.5C68.9812 199.5 69.1245 199.5 69.2678 199.5C69.4112 199.5 69.5547 199.5 69.6983 199.5C69.842 199.5 69.9857 199.5 70.1296 199.5C70.2734 199.5 70.4174 199.5 70.5616 199.5C70.7057 199.5 70.8499 199.5 70.9943 199.5C71.1386 199.5 71.2831 199.5 71.4277 199.5C71.5723 199.5 71.717 199.5 71.8619 199.5C72.0067 199.5 72.1517 199.5 72.2968 199.5C72.4418 199.5 72.587 199.5 72.7324 199.5C72.8777 199.5 73.0231 199.5 73.1687 199.5C73.3142 199.5 73.4599 199.5 73.6056 199.5C73.7514 199.5 73.8973 199.5 74.0433 199.5C74.1893 199.5 74.3354 199.5 74.4817 199.5C74.6279 199.5 74.7743 199.5 74.9207 199.5C75.0672 199.5 75.2137 199.5 75.3604 199.5C75.5071 199.5 75.6539 199.5 75.8008 199.5C75.9477 199.5 76.0947 199.5 76.2418 199.5C76.3889 199.5 76.5361 199.5 76.6835 199.5C76.8308 199.5 76.9782 199.5 77.1258 199.5C77.2733 199.5 77.421 199.5 77.5687 199.5C77.7165 199.5 77.8643 199.5 78.0123 199.5C78.1603 199.5 78.3083 199.5 78.4565 199.5C78.6047 199.5 78.7529 199.5 78.9013 199.5C79.0497 199.5 79.1982 199.5 79.3467 199.5C79.4953 199.5 79.644 199.5 79.7928 199.5C79.9415 199.5 80.0904 199.5 80.2394 199.5C80.3884 199.5 80.5374 199.5 80.6866 199.5C80.8358 199.5 80.985 199.5 81.1344 199.5C81.2837 199.5 81.4332 199.5 81.5827 199.5C81.7323 199.5 81.8819 199.5 82.0317 199.5C82.1814 199.5 82.3312 199.5 82.4812 199.5C82.6311 199.5 82.7811 199.5 82.9312 199.5C83.0813 199.5 83.2315 199.5 83.3818 199.5C83.5321 199.5 83.6825 199.5 83.833 199.5C83.9834 199.5 84.134 199.5 84.2846 199.5C84.4353 199.5 84.586 199.5 84.7369 199.5C84.8877 199.5 85.0386 199.5 85.1896 199.5C85.3406 199.5 85.4917 199.5 85.6428 199.5C85.794 199.5 85.9452 199.5 86.0966 199.5C86.2479 199.5 86.3993 199.5 86.5508 199.5C86.7023 199.5 86.8539 199.5 87.0056 199.5C87.1573 199.5 87.309 199.5 87.4608 199.5C87.6127 199.5 87.7646 199.5 87.9165 199.5C88.0685 199.5 88.2206 199.5 88.3727 199.5C88.5249 199.5 88.6771 199.5 88.8294 199.5C88.9817 199.5 89.1341 199.5 89.2865 199.5C89.439 199.5 89.5915 199.5 89.7441 199.5C89.8967 199.5 90.0494 199.5 90.2022 199.5C90.3549 199.5 90.5077 199.5 90.6606 199.5C90.8135 199.5 90.9665 199.5 91.1195 199.5C91.2726 199.5 91.4257 199.5 91.5789 199.5C91.7321 199.5 91.8853 199.5 92.0386 199.5C92.192 199.5 92.3454 199.5 92.4988 199.5C92.6523 199.5 92.8058 199.5 92.9594 199.5C93.113 199.5 93.2667 199.5 93.4204 199.5C93.5741 199.5 93.7279 199.5 93.8818 199.5C94.0356 199.5 94.1895 199.5 94.3435 199.5C94.4975 199.5 94.6516 199.5 94.8057 199.5C94.9598 199.5 95.114 199.5 95.2682 199.5C95.4225 199.5 95.5768 199.5 95.7311 199.5C95.8855 199.5 96.0399 199.5 96.1944 199.5C96.3489 199.5 96.5034 199.5 96.658 199.5C96.8126 199.5 96.9672 199.5 97.122 199.5C97.2767 199.5 97.4314 199.5 97.5863 199.5C97.7411 199.5 97.896 199.5 98.0509 199.5C98.2058 199.5 98.3608 199.5 98.5159 199.5C98.6709 199.5 98.826 199.5 98.9812 199.5C99.1363 199.5 99.2915 199.5 99.4468 199.5C99.602 199.5 99.7573 199.5 99.9127 199.5C100.068 199.5 100.223 199.5 100.379 199.5C100.534 199.5 100.69 199.5 100.845 199.5C101.001 199.5 101.157 199.5 101.312 199.5C101.468 199.5 101.624 199.5 101.779 199.5C101.935 199.5 102.091 199.5 102.247 199.5C102.402 199.5 102.558 199.5 102.714 199.5C102.87 199.5 103.026 199.5 103.182 199.5C103.338 199.5 103.494 199.5 103.65 199.5C103.806 199.5 103.963 199.5 104.119 199.5C104.275 199.5 104.431 199.5 104.587 199.5C104.744 199.5 104.9 199.5 105.056 199.5C105.213 199.5 105.369 199.5 105.525 199.5C105.682 199.5 105.838 199.5 105.995 199.5C106.151 199.5 106.308 199.5 106.464 199.5C106.621 199.5 106.777 199.5 106.934 199.5C107.091 199.5 107.247 199.5 107.404 199.5C107.561 199.5 107.717 199.5 107.874 199.5C108.031 199.5 108.188 199.5 108.344 199.5C108.501 199.5 108.658 199.5 108.815 199.5C108.972 199.5 109.129 199.5 109.286 199.5C109.443 199.5 109.599 199.5 109.756 199.5C109.913 199.5 110.07 199.5 110.227 199.5C110.384 199.5 110.542 199.5 110.699 199.5C110.856 199.5 111.013 199.5 111.17 199.5C111.327 199.5 111.484 199.5 111.641 199.5C111.799 199.5 111.956 199.5 112.113 199.5C112.27 199.5 112.428 199.5 112.585 199.5C112.742 199.5 112.899 199.5 113.057 199.5C113.214 199.5 113.371 199.5 113.529 199.5C113.686 199.5 113.843 199.5 114.001 199.5C114.158 199.5 114.315 199.5 114.473 199.5C114.63 199.5 114.788 199.5 114.945 199.5C115.103 199.5 115.26 199.5 115.418 199.5C115.575 199.5 115.732 199.5 115.89 199.5C116.047 199.5 116.205 199.5 116.362 199.5C116.52 199.5 116.678 199.5 116.835 199.5C116.993 199.5 117.15 199.5 117.308 199.5C117.465 199.5 117.623 199.5 117.78 199.5C117.938 199.5 118.096 199.5 118.253 199.5C118.411 199.5 118.568 199.5 118.726 199.5C118.884 199.5 119.041 199.5 119.199 199.5C119.356 199.5 119.514 199.5 119.672 199.5C119.829 199.5 119.987 199.5 120.145 199.5C120.302 199.5 120.46 199.5 120.617 199.5C120.775 199.5 120.933 199.5 121.09 199.5C121.248 199.5 121.406 199.5 121.563 199.5C121.721 199.5 121.879 199.5 122.036 199.5C122.194 199.5 122.351 199.5 122.509 199.5C122.667 199.5 122.824 199.5 122.982 199.5C123.14 199.5 123.297 199.5 123.455 199.5C123.612 199.5 123.77 199.5 123.928 199.5C124.085 199.5 124.243 199.5 124.4 199.5C124.558 199.5 124.716 199.5 124.873 199.5C125.031 199.5 125.188 199.5 125.346 199.5C125.503 199.5 125.661 199.5 125.819 199.5C125.976 199.5 126.134 199.5 126.291 199.5C126.449 199.5 126.606 199.5 126.764 199.5C126.921 199.5 127.079 199.5 127.236 199.5C127.393 199.5 127.551 199.5 127.708 199.5C127.866 199.5 128.023 199.5 128.181 199.5C128.338 199.5 128.495 199.5 128.653 199.5C128.81 199.5 128.967 199.5 129.125 199.5C129.282 199.5 129.439 199.5 129.597 199.5C129.754 199.5 129.911 199.5 130.069 199.5C130.226 199.5 130.383 199.5 130.54 199.5C130.697 199.5 130.855 199.5 131.012 199.5C131.169 199.5 131.326 199.5 131.483 199.5C131.64 199.5 131.797 199.5 131.954 199.5C132.112 199.5 132.269 199.5 132.426 199.5C132.583 199.5 132.74 199.5 132.897 199.5C133.054 199.5 133.21 199.5 133.367 199.5C133.524 199.5 133.681 199.5 133.838 199.5C133.995 199.5 134.152 199.5 134.308 199.5C134.465 199.5 134.622 199.5 134.779 199.5C134.935 199.5 135.092 199.5 135.249 199.5C135.405 199.5 135.562 199.5 135.719 199.5C135.875 199.5 136.032 199.5 136.188 199.5C136.345 199.5 136.501 199.5 136.658 199.5C136.814 199.5 136.971 199.5 137.127 199.5C137.283 199.5 137.44 199.5 137.596 199.5C137.752 199.5 137.909 199.5 138.065 199.5C138.221 199.5 138.377 199.5 138.533 199.5C138.69 199.5 138.846 199.5 139.002 199.5C139.158 199.5 139.314 199.5 139.47 199.5C139.626 199.5 139.782 199.5 139.938 199.5C140.093 199.5 140.249 199.5 140.405 199.5C140.561 199.5 140.717 199.5 140.872 199.5C141.028 199.5 141.184 199.5 141.339 199.5C141.495 199.5 141.651 199.5 141.806 199.5C141.962 199.5 142.117 199.5 142.272 199.5C142.428 199.5 142.583 199.5 142.739 199.5C142.894 199.5 143.049 199.5 143.204 199.5C143.36 199.5 143.515 199.5 143.67 199.5C143.825 199.5 143.98 199.5 144.135 199.5C144.29 199.5 144.445 199.5 144.6 199.5C144.755 199.5 144.91 199.5 145.064 199.5C145.219 199.5 145.374 199.5 145.529 199.5C145.683 199.5 145.838 199.5 145.992 199.5C146.147 199.5 146.301 199.5 146.456 199.5C146.61 199.5 146.765 199.5 146.919 199.5C147.073 199.5 147.228 199.5 147.382 199.5C147.536 199.5 147.69 199.5 147.844 199.5C147.998 199.5 148.152 199.5 148.306 199.5C148.46 199.5 148.614 199.5 148.768 199.5C148.922 199.5 149.075 199.5 149.229 199.5C149.383 199.5 149.536 199.5 149.69 199.5C149.843 199.5 149.997 199.5 150.15 199.5C150.304 199.5 150.457 199.5 150.61 199.5C150.764 199.5 150.917 199.5 151.07 199.5C151.223 199.5 151.376 199.5 151.529 199.5C151.682 199.5 151.835 199.5 151.988 199.5C152.141 199.5 152.294 199.5 152.446 199.5C152.599 199.5 152.752 199.5 152.904 199.5C153.057 199.5 153.209 199.5 153.362 199.5C153.514 199.5 153.666 199.5 153.819 199.5C153.971 199.5 154.123 199.5 154.275 199.5C154.427 199.5 154.579 199.5 154.731 199.5C154.883 199.5 155.035 199.5 155.187 199.5C155.338 199.5 155.49 199.5 155.642 199.5C155.793 199.5 155.945 199.5 156.096 199.5C156.248 199.5 156.399 199.5 156.55 199.5C156.702 199.5 156.853 199.5 157.004 199.5C157.155 199.5 157.306 199.5 157.457 199.5C157.608 199.5 157.759 199.5 157.909 199.5C158.06 199.5 158.211 199.5 158.362 199.5C158.512 199.5 158.663 199.5 158.813 199.5C158.963 199.5 159.114 199.5 159.264 199.5C159.414 199.5 159.564 199.5 159.714 199.5C159.864 199.5 160.014 199.5 160.164 199.5C160.314 199.5 160.464 199.5 160.613 199.5C160.763 199.5 160.913 199.5 161.062 199.5C161.212 199.5 161.361 199.5 161.51 199.5C161.66 199.5 161.809 199.5 161.958 199.5C162.107 199.5 162.256 199.5 162.405 199.5C162.554 199.5 162.703 199.5 162.851 199.5C163 199.5 163.149 199.5 163.297 199.5C163.446 199.5 163.594 199.5 163.742 199.5C163.891 199.5 164.039 199.5 164.187 199.5C164.335 199.5 164.483 199.5 164.631 199.5C164.779 199.5 164.927 199.5 165.074 199.5C165.222 199.5 165.37 199.5 165.517 199.5C165.664 199.5 165.812 199.5 165.959 199.5C166.106 199.5 166.253 199.5 166.401 199.5C166.548 199.5 166.695 199.5 166.841 199.5C166.988 199.5 167.135 199.5 167.281 199.5C167.428 199.5 167.575 199.5 167.721 199.5C167.867 199.5 168.014 199.5 168.16 199.5C168.306 199.5 168.452 199.5 168.598 199.5C168.744 199.5 168.89 199.5 169.035 199.5C169.181 199.5 169.327 199.5 169.472 199.5C169.617 199.5 169.763 199.5 169.908 199.5C170.053 199.5 170.198 199.5 170.343 199.5C170.488 199.5 170.633 199.5 170.778 199.5C170.923 199.5 171.067 199.5 171.212 199.5C171.356 199.5 171.501 199.5 171.645 199.5C171.789 199.5 171.934 199.5 172.078 199.5C172.222 199.5 172.365 199.5 172.509 199.5C172.653 199.5 172.797 199.5 172.94 199.5C173.084 199.5 173.227 199.5 173.37 199.5C173.514 199.5 173.657 199.5 173.8 199.5C173.943 199.5 174.086 199.5 174.229 199.5C174.371 199.5 174.514 199.5 174.657 199.5C174.799 199.5 174.941 199.5 175.084 199.5C175.226 199.5 175.368 199.5 175.51 199.5C175.652 199.5 175.794 199.5 175.936 199.5C176.077 199.5 176.219 199.5 176.36 199.5C176.502 199.5 176.643 199.5 176.784 199.5C176.926 199.5 177.067 199.5 177.208 199.5C177.348 199.5 177.489 199.5 177.63 199.5C177.771 199.5 177.911 199.5 178.051 199.5C178.192 199.5 178.332 199.5 178.472 199.5C178.612 199.5 178.752 199.5 178.892 199.5C179.032 199.5 179.171 199.5 179.311 199.5C179.45 199.5 179.59 199.5 179.729 199.5C179.868 199.5 180.007 199.5 180.146 199.5C180.285 199.5 180.424 199.5 180.563 199.5C180.701 199.5 180.84 199.5 180.978 199.5C181.117 199.5 181.255 199.5 181.393 199.5C181.531 199.5 181.669 199.5 181.807 199.5C181.945 199.5 182.082 199.5 182.22 199.5C182.357 199.5 182.495 199.5 182.632 199.5C182.769 199.5 182.906 199.5 183.043 199.5C183.18 199.5 183.316 199.5 183.453 199.5C183.59 199.5 183.726 199.5 183.862 199.5C183.999 199.5 184.135 199.5 184.271 199.5C184.407 199.5 184.542 199.5 184.678 199.5C184.814 199.5 184.949 199.5 185.085 199.5C185.22 199.5 185.355 199.5 185.49 199.5C185.625 199.5 185.76 199.5 185.895 199.5C186.029 199.5 186.164 199.5 186.298 199.5C186.433 199.5 186.567 199.5 186.701 199.5C186.835 199.5 186.969 199.5 187.103 199.5C187.236 199.5 187.37 199.5 187.503 199.5C187.637 199.5 187.77 199.5 187.903 199.5C188.036 199.5 188.169 199.5 188.302 199.5C188.435 199.5 188.567 199.5 188.7 199.5C188.832 199.5 188.964 199.5 189.096 199.5C189.228 199.5 189.36 199.5 189.492 199.5C189.624 199.5 189.755 199.5 189.887 199.5C190.018 199.5 190.149 199.5 190.28 199.5C190.411 199.5 190.542 199.5 190.673 199.5C190.804 199.5 190.934 199.5 191.065 199.5C191.195 199.5 191.325 199.5 191.455 199.5C191.585 199.5 191.715 199.5 191.845 199.5C191.974 199.5 192.104 199.5 192.233 199.5C192.363 199.5 192.492 199.5 192.621 199.5C192.75 199.5 192.878 199.5 193.007 199.5C193.136 199.5 193.264 199.5 193.392 199.5C193.52 199.5 193.649 199.5 193.776 199.5C193.904 199.5 194.032 199.5 194.159 199.5C194.287 199.5 194.414 199.5 194.541 199.5C194.669 199.5 194.796 199.5 194.922 199.5C195.049 199.5 195.176 199.5 195.302 199.5C195.428 199.5 195.555 199.5 195.681 199.5C195.807 199.5 195.933 199.5 196.058 199.5C196.184 199.5 196.309 199.5 196.435 199.5C196.56 199.5 196.685 199.5 196.81 199.5C196.935 199.5 197.059 199.5 197.184 199.5C197.308 199.5 197.433 199.5 197.557 199.5C197.681 199.5 197.805 199.5 197.929 199.5C198.052 199.5 198.176 199.5 198.299 199.5C198.423 199.5 198.546 199.5 198.669 199.5C198.792 199.5 198.915 199.5 199.037 199.5C199.16 199.5 199.282 199.5 199.404 199.5C199.526 199.5 199.648 199.5 199.77 199.5C199.892 199.5 200.013 199.5 200.135 199.5C200.256 199.5 200.377 199.5 200.498 199.5C200.619 199.5 200.74 199.5 200.861 199.5C200.981 199.5 201.102 199.5 201.222 199.5C201.342 199.5 201.462 199.5 201.582 199.5C201.701 199.5 201.821 199.5 201.94 199.5C202.059 199.5 202.179 199.5 202.298 199.5C202.416 199.5 202.535 199.5 202.654 199.5C202.772 199.5 202.89 199.5 203.009 199.5C203.127 199.5 203.245 199.5 203.362 199.5C203.48 199.5 203.597 199.5 203.715 199.5C203.832 199.5 203.949 199.5 204.066 199.5C204.182 199.5 204.299 199.5 204.415 199.5C204.532 199.5 204.648 199.5 204.764 199.5C204.88 199.5 204.996 199.5 205.111 199.5C205.227 199.5 205.342 199.5 205.457 199.5C205.572 199.5 205.687 199.5 205.802 199.5C205.916 199.5 206.031 199.5 206.145 199.5C206.259 199.5 206.373 199.5 206.487 199.5C206.601 199.5 206.714 199.5 206.828 199.5C206.941 199.5 207.054 199.5 207.167 199.5C207.28 199.5 207.393 199.5 207.505 199.5C207.618 199.5 207.73 199.5 207.842 199.5C207.954 199.5 208.066 199.5 208.177 199.5C208.289 199.5 208.4 199.5 208.511 199.5C208.622 199.5 208.733 199.5 208.844 199.5C208.954 199.5 209.065 199.5 209.175 199.5C209.285 199.5 209.395 199.5 209.505 199.5C209.615 199.5 209.724 199.5 209.833 199.5C209.943 199.5 210.052 199.5 210.16 199.5C210.269 199.5 210.378 199.5 210.486 199.5C210.594 199.5 210.702 199.5 210.81 199.5C210.918 199.5 211.026 199.5 211.133 199.5C211.241 199.5 211.348 199.5 211.455 199.5C211.562 199.5 211.668 199.5 211.775 199.5C211.881 199.5 211.987 199.5 212.093 199.5C212.199 199.5 212.305 199.5 212.41 199.5C212.516 199.5 212.621 199.5 212.726 199.5C212.831 199.5 212.936 199.5 213.04 199.5C213.145 199.5 213.249 199.5 213.353 199.5C213.457 199.5 213.561 199.5 213.664 199.5C213.768 199.5 213.871 199.5 213.974 199.5C214.077 199.5 214.18 199.5 214.283 199.5C214.385 199.5 214.488 199.5 214.59 199.5C214.692 199.5 214.793 199.5 214.895 199.5C214.997 199.5 215.098 199.5 215.199 199.5C215.3 199.5 215.401 199.5 215.501 199.5C215.602 199.5 215.702 199.5 215.802 199.5C215.902 199.5 216.002 199.5 216.102 199.5C216.201 199.5 216.3 199.5 216.399 199.5C216.498 199.5 216.597 199.5 216.696 199.5C216.794 199.5 216.893 199.5 216.991 199.5C217.089 199.5 217.186 199.5 217.284 199.5C217.381 199.5 217.479 199.5 217.575 199.5C217.672 199.5 217.769 199.5 217.866 199.5C217.962 199.5 218.058 199.5 218.154 199.5C218.25 199.5 218.346 199.5 218.441 199.5C218.537 199.5 218.632 199.5 218.727 199.5C218.821 199.5 218.916 199.5 219.01 199.5C219.105 199.5 219.199 199.5 219.293 199.5C219.386 199.5 219.48 199.5 219.573 199.5C219.667 199.5 219.76 199.5 219.852 199.5C219.945 199.5 220.038 199.5 220.13 199.5C220.222 199.5 220.314 199.5 220.406 199.5C220.497 199.5 220.589 199.5 220.68 199.5C220.771 199.5 220.862 199.5 220.952 199.5C221.043 199.5 221.133 199.5 221.223 199.5C221.313 199.5 221.403 199.5 221.493 199.5C221.582 199.5 221.671 199.5 221.76 199.5C221.849 199.5 221.938 199.5 222.026 199.5C222.114 199.5 222.203 199.5 222.29 199.5C222.378 199.5 222.466 199.5 222.553 199.5C222.64 199.5 222.727 199.5 222.814 199.5C222.901 199.5 222.987 199.5 223.073 199.5C223.159 199.5 223.245 199.5 223.331 199.5C223.416 199.5 223.502 199.5 223.587 199.5C223.672 199.5 223.756 199.5 223.841 199.5C223.925 199.5 224.009 199.5 224.093 199.5C224.177 199.5 224.261 199.5 224.344 199.5C224.427 199.5 224.51 199.5 224.593 199.5C224.676 199.5 224.758 199.5 224.84 199.5C224.923 199.5 225.004 199.5 225.086 199.5C225.168 199.5 225.249 199.5 225.33 199.5C225.411 199.5 225.491 199.5 225.572 199.5C225.652 199.5 225.732 199.5 225.812 199.5C225.892 199.5 225.971 199.5 226.051 199.5C226.13 199.5 226.209 199.5 226.287 199.5C226.366 199.5 226.444 199.5 226.522 199.5C226.6 199.5 226.678 199.5 226.756 199.5C226.833 199.5 226.91 199.5 226.987 199.5C227.064 199.5 227.14 199.5 227.217 199.5C227.293 199.5 227.369 199.5 227.444 199.5C227.52 199.5 227.595 199.5 227.67 199.5C227.745 199.5 227.82 199.5 227.895 199.5C227.969 199.5 228.043 199.5 228.117 199.5C228.191 199.5 228.264 199.5 228.337 199.5C228.411 199.5 228.484 199.5 228.556 199.5C228.629 199.5 228.701 199.5 228.773 199.5C228.845 199.5 228.917 199.5 228.988 199.5C229.059 199.5 229.13 199.5 229.201 199.5C229.272 199.5 229.342 199.5 229.412 199.5C229.483 199.5 229.552 199.5 229.622 199.5C229.691 199.5 229.76 199.5 229.829 199.5C229.898 199.5 229.967 199.5 230.035 199.5C230.103 199.5 230.171 199.5 230.239 199.5C230.306 199.5 230.374 199.5 230.441 199.5C230.508 199.5 230.574 199.5 230.641 199.5C230.707 199.5 230.773 199.5 230.839 199.5C230.904 199.5 230.97 199.5 231.035 199.5C231.1 199.5 231.164 199.5 231.229 199.5C231.293 199.5 231.357 199.5 231.421 199.5C231.485 199.5 231.548 199.5 231.611 199.5C231.675 199.5 231.737 199.5 231.8 199.5C231.862 199.5 231.924 199.5 231.986 199.5C232.048 199.5 232.11 199.5 232.171 199.5C232.232 199.5 232.293 199.5 232.353 199.5C232.414 199.5 232.474 199.5 232.534 199.5C232.594 199.5 232.653 199.5 232.712 199.5C232.771 199.5 232.83 199.5 232.889 199.5C232.947 199.5 233.006 199.5 233.063 199.5C233.121 199.5 233.179 199.5 233.236 199.5C233.293 199.5 233.35 199.5 233.407 199.5C233.463 199.5 233.519 199.5 233.575 199.5C233.631 199.5 233.687 199.5 233.742 199.5C233.797 199.5 233.852 199.5 233.906 199.5C233.961 199.5 234.015 199.5 234.069 199.5C234.123 199.5 234.176 199.5 234.229 199.5C234.282 199.5 234.335 199.5 234.388 199.5C234.44 199.5 234.492 199.5 234.544 199.5C234.596 199.5 234.647 199.5 234.698 199.5C234.749 199.5 234.8 199.5 234.851 199.5C234.901 199.5 234.951 199.5 235.001 199.5C235.05 199.5 235.1 199.5 235.149 199.5C235.198 199.5 235.246 199.5 235.295 199.5C235.343 199.5 235.391 199.5 235.439 199.5C235.486 199.5 235.534 199.5 235.581 199.5C235.627 199.5 235.674 199.5 235.72 199.5C235.766 199.5 235.812 199.5 235.858 199.5C235.903 199.5 235.949 199.5 235.993 199.5C236.038 199.5 236.083 199.5 236.127 199.5C236.171 199.5 236.215 199.5 236.258 199.5C236.301 199.5 236.344 199.5 236.387 199.5C236.43 199.5 236.472 199.5 236.514 199.5C236.556 199.5 236.598 199.5 236.639 199.5C236.68 199.5 236.721 199.5 236.761 199.5C236.802 199.5 236.842 199.5 236.882 199.5C236.922 199.5 236.961 199.5 237 199.5C237.039 199.5 237.078 199.5 237.116 199.5C237.155 199.5 237.193 199.5 237.23 199.5C237.268 199.5 237.305 199.5 237.342 199.5C237.379 199.5 237.415 199.5 237.452 199.5C237.488 199.5 237.523 199.5 237.559 199.5C237.594 199.5 237.629 199.5 237.664 199.5C237.699 199.5 237.733 199.5 237.767 199.5C237.801 199.5 237.834 199.5 237.868 199.5C237.901 199.5 237.934 199.5 237.966 199.5C237.999 199.5 238.031 199.5 238.062 199.5C238.094 199.5 238.125 199.5 238.156 199.5C238.187 199.5 238.218 199.5 238.248 199.5C238.278 199.5 238.308 199.5 238.338 199.5C238.367 199.5 238.396 199.5 238.425 199.5C238.453 199.5 238.482 199.5 238.51 199.5C238.538 199.5 238.565 199.5 238.592 199.5C238.619 199.5 238.646 199.5 238.673 199.5C238.699 199.5 238.725 199.5 238.751 199.5C238.776 199.5 238.802 199.5 238.827 199.5C238.851 199.5 238.876 199.5 238.9 199.5C238.924 199.5 238.948 199.5 238.971 199.5C238.995 199.5 239.018 199.5 239.04 199.5C239.063 199.5 239.085 199.5 239.107 199.5C239.128 199.5 239.15 199.5 239.171 199.5C239.192 199.5 239.212 199.5 239.233 199.5C239.253 199.5 239.273 199.5 239.292 199.5C239.312 199.5 239.331 199.5 239.349 199.5C239.368 199.5 239.386 199.5 239.404 199.5C239.422 199.5 239.44 199.5 239.457 199.5C239.474 199.5 239.49 199.5 239.507 199.5C239.523 199.5 239.539 199.5 239.554 199.5C239.57 199.5 239.585 199.5 239.6 199.5C239.614 199.5 239.629 199.5 239.643 199.5C239.657 199.5 239.67 199.5 239.683 199.5C239.696 199.5 239.709 199.5 239.721 199.5C239.734 199.5 239.745 199.5 239.757 199.5C239.768 199.5 239.78 199.5 239.79 199.5C239.801 199.5 239.811 199.5 239.821 199.5C239.831 199.5 239.84 199.5 239.85 199.5C239.859 199.5 239.867 199.5 239.876 199.5C239.884 199.5 239.892 199.5 239.899 199.5C239.907 199.5 239.914 199.5 239.92 199.5C239.927 199.5 239.933 199.5 239.939 199.5C239.945 199.5 239.95 199.5 239.955 199.5C239.96 199.5 239.965 199.5 239.969 199.5C239.973 199.5 239.977 199.5 239.98 199.5C239.983 199.5 239.986 199.5 239.989 199.5C239.991 199.5 239.993 199.5 239.995 199.5C239.997 199.5 239.998 199.5 239.999 199.5C240 199.5 240 199.5 240 199C240 198.5 240 198.5 239.999 198.5C239.998 198.5 239.997 198.5 239.995 198.5C239.993 198.5 239.991 198.5 239.989 198.5C239.986 198.5 239.983 198.5 239.98 198.5C239.977 198.5 239.973 198.5 239.969 198.5C239.965 198.5 239.96 198.5 239.955 198.5C239.95 198.5 239.945 198.5 239.939 198.5C239.933 198.5 239.927 198.5 239.92 198.5C239.914 198.5 239.907 198.5 239.899 198.5C239.892 198.5 239.884 198.5 239.876 198.5C239.867 198.5 239.859 198.5 239.85 198.5C239.84 198.5 239.831 198.5 239.821 198.5C239.811 198.5 239.801 198.5 239.79 198.5C239.78 198.5 239.768 198.5 239.757 198.5C239.745 198.5 239.734 198.5 239.721 198.5C239.709 198.5 239.696 198.5 239.683 198.5C239.67 198.5 239.657 198.5 239.643 198.5C239.629 198.5 239.614 198.5 239.6 198.5C239.585 198.5 239.57 198.5 239.554 198.5C239.539 198.5 239.523 198.5 239.507 198.5C239.49 198.5 239.474 198.5 239.457 198.5C239.44 198.5 239.422 198.5 239.404 198.5C239.386 198.5 239.368 198.5 239.349 198.5C239.331 198.5 239.312 198.5 239.292 198.5C239.273 198.5 239.253 198.5 239.233 198.5C239.212 198.5 239.192 198.5 239.171 198.5C239.15 198.5 239.128 198.5 239.107 198.5C239.085 198.5 239.063 198.5 239.04 198.5C239.018 198.5 238.995 198.5 238.971 198.5C238.948 198.5 238.924 198.5 238.9 198.5C238.876 198.5 238.851 198.5 238.827 198.5C238.802 198.5 238.776 198.5 238.751 198.5C238.725 198.5 238.699 198.5 238.673 198.5C238.646 198.5 238.619 198.5 238.592 198.5C238.565 198.5 238.538 198.5 238.51 198.5C238.482 198.5 238.453 198.5 238.425 198.5C238.396 198.5 238.367 198.5 238.338 198.5C238.308 198.5 238.278 198.5 238.248 198.5C238.218 198.5 238.187 198.5 238.156 198.5C238.125 198.5 238.094 198.5 238.062 198.5C238.031 198.5 237.999 198.5 237.966 198.5C237.934 198.5 237.901 198.5 237.868 198.5C237.834 198.5 237.801 198.5 237.767 198.5C237.733 198.5 237.699 198.5 237.664 198.5C237.629 198.5 237.594 198.5 237.559 198.5C237.523 198.5 237.488 198.5 237.452 198.5C237.415 198.5 237.379 198.5 237.342 198.5C237.305 198.5 237.268 198.5 237.23 198.5C237.193 198.5 237.155 198.5 237.116 198.5C237.078 198.5 237.039 198.5 237 198.5C236.961 198.5 236.922 198.5 236.882 198.5C236.842 198.5 236.802 198.5 236.761 198.5C236.721 198.5 236.68 198.5 236.639 198.5C236.598 198.5 236.556 198.5 236.514 198.5C236.472 198.5 236.43 198.5 236.387 198.5C236.344 198.5 236.301 198.5 236.258 198.5C236.215 198.5 236.171 198.5 236.127 198.5C236.083 198.5 236.038 198.5 235.993 198.5C235.949 198.5 235.903 198.5 235.858 198.5C235.812 198.5 235.766 198.5 235.72 198.5C235.674 198.5 235.627 198.5 235.581 198.5C235.534 198.5 235.486 198.5 235.439 198.5C235.391 198.5 235.343 198.5 235.295 198.5C235.246 198.5 235.198 198.5 235.149 198.5C235.1 198.5 235.05 198.5 235.001 198.5C234.951 198.5 234.901 198.5 234.851 198.5C234.8 198.5 234.749 198.5 234.698 198.5C234.647 198.5 234.596 198.5 234.544 198.5C234.492 198.5 234.44 198.5 234.388 198.5C234.335 198.5 234.282 198.5 234.229 198.5C234.176 198.5 234.123 198.5 234.069 198.5C234.015 198.5 233.961 198.5 233.906 198.5C233.852 198.5 233.797 198.5 233.742 198.5C233.687 198.5 233.631 198.5 233.575 198.5C233.519 198.5 233.463 198.5 233.407 198.5C233.35 198.5 233.293 198.5 233.236 198.5C233.179 198.5 233.121 198.5 233.063 198.5C233.006 198.5 232.947 198.5 232.889 198.5C232.83 198.5 232.771 198.5 232.712 198.5C232.653 198.5 232.594 198.5 232.534 198.5C232.474 198.5 232.414 198.5 232.353 198.5C232.293 198.5 232.232 198.5 232.171 198.5C232.11 198.5 232.048 198.5 231.986 198.5C231.924 198.5 231.862 198.5 231.8 198.5C231.737 198.5 231.675 198.5 231.611 198.5C231.548 198.5 231.485 198.5 231.421 198.5C231.357 198.5 231.293 198.5 231.229 198.5C231.164 198.5 231.1 198.5 231.035 198.5C230.97 198.5 230.904 198.5 230.839 198.5C230.773 198.5 230.707 198.5 230.641 198.5C230.574 198.5 230.508 198.5 230.441 198.5C230.374 198.5 230.306 198.5 230.239 198.5C230.171 198.5 230.103 198.5 230.035 198.5C229.967 198.5 229.898 198.5 229.829 198.5C229.76 198.5 229.691 198.5 229.622 198.5C229.552 198.5 229.483 198.5 229.412 198.5C229.342 198.5 229.272 198.5 229.201 198.5C229.13 198.5 229.059 198.5 228.988 198.5C228.917 198.5 228.845 198.5 228.773 198.5C228.701 198.5 228.629 198.5 228.556 198.5C228.484 198.5 228.411 198.5 228.337 198.5C228.264 198.5 228.191 198.5 228.117 198.5C228.043 198.5 227.969 198.5 227.895 198.5C227.82 198.5 227.745 198.5 227.67 198.5C227.595 198.5 227.52 198.5 227.444 198.5C227.369 198.5 227.293 198.5 227.217 198.5C227.14 198.5 227.064 198.5 226.987 198.5C226.91 198.5 226.833 198.5 226.756 198.5C226.678 198.5 226.6 198.5 226.522 198.5C226.444 198.5 226.366 198.5 226.287 198.5C226.209 198.5 226.13 198.5 226.051 198.5C225.971 198.5 225.892 198.5 225.812 198.5C225.732 198.5 225.652 198.5 225.572 198.5C225.491 198.5 225.411 198.5 225.33 198.5C225.249 198.5 225.168 198.5 225.086 198.5C225.004 198.5 224.923 198.5 224.84 198.5C224.758 198.5 224.676 198.5 224.593 198.5C224.51 198.5 224.427 198.5 224.344 198.5C224.261 198.5 224.177 198.5 224.093 198.5C224.009 198.5 223.925 198.5 223.841 198.5C223.756 198.5 223.672 198.5 223.587 198.5C223.502 198.5 223.416 198.5 223.331 198.5C223.245 198.5 223.159 198.5 223.073 198.5C222.987 198.5 222.901 198.5 222.814 198.5C222.727 198.5 222.64 198.5 222.553 198.5C222.466 198.5 222.378 198.5 222.29 198.5C222.203 198.5 222.114 198.5 222.026 198.5C221.938 198.5 221.849 198.5 221.76 198.5C221.671 198.5 221.582 198.5 221.493 198.5C221.403 198.5 221.313 198.5 221.223 198.5C221.133 198.5 221.043 198.5 220.952 198.5C220.862 198.5 220.771 198.5 220.68 198.5C220.589 198.5 220.497 198.5 220.406 198.5C220.314 198.5 220.222 198.5 220.13 198.5C220.038 198.5 219.945 198.5 219.852 198.5C219.76 198.5 219.667 198.5 219.573 198.5C219.48 198.5 219.386 198.5 219.293 198.5C219.199 198.5 219.105 198.5 219.01 198.5C218.916 198.5 218.821 198.5 218.727 198.5C218.632 198.5 218.537 198.5 218.441 198.5C218.346 198.5 218.25 198.5 218.154 198.5C218.058 198.5 217.962 198.5 217.866 198.5C217.769 198.5 217.672 198.5 217.575 198.5C217.479 198.5 217.381 198.5 217.284 198.5C217.186 198.5 217.089 198.5 216.991 198.5C216.893 198.5 216.794 198.5 216.696 198.5C216.597 198.5 216.498 198.5 216.399 198.5C216.3 198.5 216.201 198.5 216.102 198.5C216.002 198.5 215.902 198.5 215.802 198.5C215.702 198.5 215.602 198.5 215.501 198.5C215.401 198.5 215.3 198.5 215.199 198.5C215.098 198.5 214.997 198.5 214.895 198.5C214.793 198.5 214.692 198.5 214.59 198.5C214.488 198.5 214.385 198.5 214.283 198.5C214.18 198.5 214.077 198.5 213.974 198.5C213.871 198.5 213.768 198.5 213.664 198.5C213.561 198.5 213.457 198.5 213.353 198.5C213.249 198.5 213.145 198.5 213.04 198.5C212.936 198.5 212.831 198.5 212.726 198.5C212.621 198.5 212.516 198.5 212.41 198.5C212.305 198.5 212.199 198.5 212.093 198.5C211.987 198.5 211.881 198.5 211.775 198.5C211.668 198.5 211.562 198.5 211.455 198.5C211.348 198.5 211.241 198.5 211.133 198.5C211.026 198.5 210.918 198.5 210.81 198.5C210.702 198.5 210.594 198.5 210.486 198.5C210.378 198.5 210.269 198.5 210.16 198.5C210.052 198.5 209.943 198.5 209.833 198.5C209.724 198.5 209.615 198.5 209.505 198.5C209.395 198.5 209.285 198.5 209.175 198.5C209.065 198.5 208.954 198.5 208.844 198.5C208.733 198.5 208.622 198.5 208.511 198.5C208.4 198.5 208.289 198.5 208.177 198.5C208.066 198.5 207.954 198.5 207.842 198.5C207.73 198.5 207.618 198.5 207.505 198.5C207.393 198.5 207.28 198.5 207.167 198.5C207.054 198.5 206.941 198.5 206.828 198.5C206.714 198.5 206.601 198.5 206.487 198.5C206.373 198.5 206.259 198.5 206.145 198.5C206.031 198.5 205.916 198.5 205.802 198.5C205.687 198.5 205.572 198.5 205.457 198.5C205.342 198.5 205.227 198.5 205.111 198.5C204.996 198.5 204.88 198.5 204.764 198.5C204.648 198.5 204.532 198.5 204.415 198.5C204.299 198.5 204.182 198.5 204.066 198.5C203.949 198.5 203.832 198.5 203.715 198.5C203.597 198.5 203.48 198.5 203.362 198.5C203.245 198.5 203.127 198.5 203.009 198.5C202.89 198.5 202.772 198.5 202.654 198.5C202.535 198.5 202.416 198.5 202.298 198.5C202.179 198.5 202.059 198.5 201.94 198.5C201.821 198.5 201.701 198.5 201.582 198.5C201.462 198.5 201.342 198.5 201.222 198.5C201.102 198.5 200.981 198.5 200.861 198.5C200.74 198.5 200.619 198.5 200.498 198.5C200.377 198.5 200.256 198.5 200.135 198.5C200.013 198.5 199.892 198.5 199.77 198.5C199.648 198.5 199.526 198.5 199.404 198.5C199.282 198.5 199.16 198.5 199.037 198.5C198.915 198.5 198.792 198.5 198.669 198.5C198.546 198.5 198.423 198.5 198.299 198.5C198.176 198.5 198.052 198.5 197.929 198.5C197.805 198.5 197.681 198.5 197.557 198.5C197.433 198.5 197.308 198.5 197.184 198.5C197.059 198.5 196.935 198.5 196.81 198.5C196.685 198.5 196.56 198.5 196.435 198.5C196.309 198.5 196.184 198.5 196.058 198.5C195.933 198.5 195.807 198.5 195.681 198.5C195.555 198.5 195.428 198.5 195.302 198.5C195.176 198.5 195.049 198.5 194.922 198.5C194.796 198.5 194.669 198.5 194.541 198.5C194.414 198.5 194.287 198.5 194.159 198.5C194.032 198.5 193.904 198.5 193.776 198.5C193.649 198.5 193.52 198.5 193.392 198.5C193.264 198.5 193.136 198.5 193.007 198.5C192.878 198.5 192.75 198.5 192.621 198.5C192.492 198.5 192.363 198.5 192.233 198.5C192.104 198.5 191.974 198.5 191.845 198.5C191.715 198.5 191.585 198.5 191.455 198.5C191.325 198.5 191.195 198.5 191.065 198.5C190.934 198.5 190.804 198.5 190.673 198.5C190.542 198.5 190.411 198.5 190.28 198.5C190.149 198.5 190.018 198.5 189.887 198.5C189.755 198.5 189.624 198.5 189.492 198.5C189.36 198.5 189.228 198.5 189.096 198.5C188.964 198.5 188.832 198.5 188.7 198.5C188.567 198.5 188.435 198.5 188.302 198.5C188.169 198.5 188.036 198.5 187.903 198.5C187.77 198.5 187.637 198.5 187.503 198.5C187.37 198.5 187.236 198.5 187.103 198.5C186.969 198.5 186.835 198.5 186.701 198.5C186.567 198.5 186.433 198.5 186.298 198.5C186.164 198.5 186.029 198.5 185.895 198.5C185.76 198.5 185.625 198.5 185.49 198.5C185.355 198.5 185.22 198.5 185.085 198.5C184.949 198.5 184.814 198.5 184.678 198.5C184.542 198.5 184.407 198.5 184.271 198.5C184.135 198.5 183.999 198.5 183.862 198.5C183.726 198.5 183.59 198.5 183.453 198.5C183.316 198.5 183.18 198.5 183.043 198.5C182.906 198.5 182.769 198.5 182.632 198.5C182.495 198.5 182.357 198.5 182.22 198.5C182.082 198.5 181.945 198.5 181.807 198.5C181.669 198.5 181.531 198.5 181.393 198.5C181.255 198.5 181.117 198.5 180.978 198.5C180.84 198.5 180.701 198.5 180.563 198.5C180.424 198.5 180.285 198.5 180.146 198.5C180.007 198.5 179.868 198.5 179.729 198.5C179.59 198.5 179.45 198.5 179.311 198.5C179.171 198.5 179.032 198.5 178.892 198.5C178.752 198.5 178.612 198.5 178.472 198.5C178.332 198.5 178.192 198.5 178.051 198.5C177.911 198.5 177.771 198.5 177.63 198.5C177.489 198.5 177.348 198.5 177.208 198.5C177.067 198.5 176.926 198.5 176.784 198.5C176.643 198.5 176.502 198.5 176.36 198.5C176.219 198.5 176.077 198.5 175.936 198.5C175.794 198.5 175.652 198.5 175.51 198.5C175.368 198.5 175.226 198.5 175.084 198.5C174.941 198.5 174.799 198.5 174.657 198.5C174.514 198.5 174.371 198.5 174.229 198.5C174.086 198.5 173.943 198.5 173.8 198.5C173.657 198.5 173.514 198.5 173.37 198.5C173.227 198.5 173.084 198.5 172.94 198.5C172.797 198.5 172.653 198.5 172.509 198.5C172.365 198.5 172.222 198.5 172.078 198.5C171.934 198.5 171.789 198.5 171.645 198.5C171.501 198.5 171.356 198.5 171.212 198.5C171.067 198.5 170.923 198.5 170.778 198.5C170.633 198.5 170.488 198.5 170.343 198.5C170.198 198.5 170.053 198.5 169.908 198.5C169.763 198.5 169.617 198.5 169.472 198.5C169.327 198.5 169.181 198.5 169.035 198.5C168.89 198.5 168.744 198.5 168.598 198.5C168.452 198.5 168.306 198.5 168.16 198.5C168.014 198.5 167.867 198.5 167.721 198.5C167.575 198.5 167.428 198.5 167.281 198.5C167.135 198.5 166.988 198.5 166.841 198.5C166.695 198.5 166.548 198.5 166.401 198.5C166.253 198.5 166.106 198.5 165.959 198.5C165.812 198.5 165.664 198.5 165.517 198.5C165.37 198.5 165.222 198.5 165.074 198.5C164.927 198.5 164.779 198.5 164.631 198.5C164.483 198.5 164.335 198.5 164.187 198.5C164.039 198.5 163.891 198.5 163.742 198.5C163.594 198.5 163.446 198.5 163.297 198.5C163.149 198.5 163 198.5 162.851 198.5C162.703 198.5 162.554 198.5 162.405 198.5C162.256 198.5 162.107 198.5 161.958 198.5C161.809 198.5 161.66 198.5 161.51 198.5C161.361 198.5 161.212 198.5 161.062 198.5C160.913 198.5 160.763 198.5 160.613 198.5C160.464 198.5 160.314 198.5 160.164 198.5C160.014 198.5 159.864 198.5 159.714 198.5C159.564 198.5 159.414 198.5 159.264 198.5C159.114 198.5 158.963 198.5 158.813 198.5C158.663 198.5 158.512 198.5 158.362 198.5C158.211 198.5 158.06 198.5 157.909 198.5C157.759 198.5 157.608 198.5 157.457 198.5C157.306 198.5 157.155 198.5 157.004 198.5C156.853 198.5 156.702 198.5 156.55 198.5C156.399 198.5 156.248 198.5 156.096 198.5C155.945 198.5 155.793 198.5 155.642 198.5C155.49 198.5 155.338 198.5 155.187 198.5C155.035 198.5 154.883 198.5 154.731 198.5C154.579 198.5 154.427 198.5 154.275 198.5C154.123 198.5 153.971 198.5 153.819 198.5C153.666 198.5 153.514 198.5 153.362 198.5C153.209 198.5 153.057 198.5 152.904 198.5C152.752 198.5 152.599 198.5 152.446 198.5C152.294 198.5 152.141 198.5 151.988 198.5C151.835 198.5 151.682 198.5 151.529 198.5C151.376 198.5 151.223 198.5 151.07 198.5C150.917 198.5 150.764 198.5 150.61 198.5C150.457 198.5 150.304 198.5 150.15 198.5C149.997 198.5 149.843 198.5 149.69 198.5C149.536 198.5 149.383 198.5 149.229 198.5C149.075 198.5 148.922 198.5 148.768 198.5C148.614 198.5 148.46 198.5 148.306 198.5C148.152 198.5 147.998 198.5 147.844 198.5C147.69 198.5 147.536 198.5 147.382 198.5C147.228 198.5 147.073 198.5 146.919 198.5C146.765 198.5 146.61 198.5 146.456 198.5C146.301 198.5 146.147 198.5 145.992 198.5C145.838 198.5 145.683 198.5 145.529 198.5C145.374 198.5 145.219 198.5 145.064 198.5C144.91 198.5 144.755 198.5 144.6 198.5C144.445 198.5 144.29 198.5 144.135 198.5C143.98 198.5 143.825 198.5 143.67 198.5C143.515 198.5 143.36 198.5 143.204 198.5C143.049 198.5 142.894 198.5 142.739 198.5C142.583 198.5 142.428 198.5 142.272 198.5C142.117 198.5 141.962 198.5 141.806 198.5C141.651 198.5 141.495 198.5 141.339 198.5C141.184 198.5 141.028 198.5 140.872 198.5C140.717 198.5 140.561 198.5 140.405 198.5C140.249 198.5 140.093 198.5 139.938 198.5C139.782 198.5 139.626 198.5 139.47 198.5C139.314 198.5 139.158 198.5 139.002 198.5C138.846 198.5 138.69 198.5 138.533 198.5C138.377 198.5 138.221 198.5 138.065 198.5C137.909 198.5 137.752 198.5 137.596 198.5C137.44 198.5 137.283 198.5 137.127 198.5C136.971 198.5 136.814 198.5 136.658 198.5C136.501 198.5 136.345 198.5 136.188 198.5C136.032 198.5 135.875 198.5 135.719 198.5C135.562 198.5 135.405 198.5 135.249 198.5C135.092 198.5 134.935 198.5 134.779 198.5C134.622 198.5 134.465 198.5 134.308 198.5C134.152 198.5 133.995 198.5 133.838 198.5C133.681 198.5 133.524 198.5 133.367 198.5C133.21 198.5 133.054 198.5 132.897 198.5C132.74 198.5 132.583 198.5 132.426 198.5C132.269 198.5 132.112 198.5 131.954 198.5C131.797 198.5 131.64 198.5 131.483 198.5C131.326 198.5 131.169 198.5 131.012 198.5C130.855 198.5 130.697 198.5 130.54 198.5C130.383 198.5 130.226 198.5 130.069 198.5C129.911 198.5 129.754 198.5 129.597 198.5C129.439 198.5 129.282 198.5 129.125 198.5C128.967 198.5 128.81 198.5 128.653 198.5C128.495 198.5 128.338 198.5 128.181 198.5C128.023 198.5 127.866 198.5 127.708 198.5C127.551 198.5 127.393 198.5 127.236 198.5C127.079 198.5 126.921 198.5 126.764 198.5C126.606 198.5 126.449 198.5 126.291 198.5C126.134 198.5 125.976 198.5 125.819 198.5C125.661 198.5 125.503 198.5 125.346 198.5C125.188 198.5 125.031 198.5 124.873 198.5C124.716 198.5 124.558 198.5 124.4 198.5C124.243 198.5 124.085 198.5 123.928 198.5C123.77 198.5 123.612 198.5 123.455 198.5C123.297 198.5 123.14 198.5 122.982 198.5C122.824 198.5 122.667 198.5 122.509 198.5C122.351 198.5 122.194 198.5 122.036 198.5C121.879 198.5 121.721 198.5 121.563 198.5C121.406 198.5 121.248 198.5 121.09 198.5C120.933 198.5 120.775 198.5 120.617 198.5C120.46 198.5 120.302 198.5 120.145 198.5C119.987 198.5 119.829 198.5 119.672 198.5C119.514 198.5 119.356 198.5 119.199 198.5C119.041 198.5 118.884 198.5 118.726 198.5C118.568 198.5 118.411 198.5 118.253 198.5C118.096 198.5 117.938 198.5 117.78 198.5C117.623 198.5 117.465 198.5 117.308 198.5C117.15 198.5 116.993 198.5 116.835 198.5C116.678 198.5 116.52 198.5 116.362 198.5C116.205 198.5 116.047 198.5 115.89 198.5C115.732 198.5 115.575 198.5 115.418 198.5C115.26 198.5 115.103 198.5 114.945 198.5C114.788 198.5 114.63 198.5 114.473 198.5C114.315 198.5 114.158 198.5 114.001 198.5C113.843 198.5 113.686 198.5 113.529 198.5C113.371 198.5 113.214 198.5 113.057 198.5C112.899 198.5 112.742 198.5 112.585 198.5C112.428 198.5 112.27 198.5 112.113 198.5C111.956 198.5 111.799 198.5 111.641 198.5C111.484 198.5 111.327 198.5 111.17 198.5C111.013 198.5 110.856 198.5 110.699 198.5C110.542 198.5 110.384 198.5 110.227 198.5C110.07 198.5 109.913 198.5 109.756 198.5C109.599 198.5 109.443 198.5 109.286 198.5C109.129 198.5 108.972 198.5 108.815 198.5C108.658 198.5 108.501 198.5 108.344 198.5C108.188 198.5 108.031 198.5 107.874 198.5C107.717 198.5 107.561 198.5 107.404 198.5C107.247 198.5 107.091 198.5 106.934 198.5C106.777 198.5 106.621 198.5 106.464 198.5C106.308 198.5 106.151 198.5 105.995 198.5C105.838 198.5 105.682 198.5 105.525 198.5C105.369 198.5 105.213 198.5 105.056 198.5C104.9 198.5 104.744 198.5 104.587 198.5C104.431 198.5 104.275 198.5 104.119 198.5C103.963 198.5 103.806 198.5 103.65 198.5C103.494 198.5 103.338 198.5 103.182 198.5C103.026 198.5 102.87 198.5 102.714 198.5C102.558 198.5 102.402 198.5 102.247 198.5C102.091 198.5 101.935 198.5 101.779 198.5C101.624 198.5 101.468 198.5 101.312 198.5C101.157 198.5 101.001 198.5 100.845 198.5C100.69 198.5 100.534 198.5 100.379 198.5C100.223 198.5 100.068 198.5 99.9127 198.5C99.7573 198.5 99.602 198.5 99.4468 198.5C99.2915 198.5 99.1363 198.5 98.9812 198.5C98.826 198.5 98.6709 198.5 98.5159 198.5C98.3608 198.5 98.2058 198.5 98.0509 198.5C97.896 198.5 97.7411 198.5 97.5863 198.5C97.4314 198.5 97.2767 198.5 97.122 198.5C96.9672 198.5 96.8126 198.5 96.658 198.5C96.5034 198.5 96.3489 198.5 96.1944 198.5C96.0399 198.5 95.8855 198.5 95.7311 198.5C95.5768 198.5 95.4225 198.5 95.2682 198.5C95.114 198.5 94.9598 198.5 94.8057 198.5C94.6516 198.5 94.4975 198.5 94.3435 198.5C94.1895 198.5 94.0356 198.5 93.8818 198.5C93.7279 198.5 93.5741 198.5 93.4204 198.5C93.2667 198.5 93.113 198.5 92.9594 198.5C92.8058 198.5 92.6523 198.5 92.4988 198.5C92.3454 198.5 92.192 198.5 92.0386 198.5C91.8853 198.5 91.7321 198.5 91.5789 198.5C91.4257 198.5 91.2726 198.5 91.1195 198.5C90.9665 198.5 90.8135 198.5 90.6606 198.5C90.5077 198.5 90.3549 198.5 90.2022 198.5C90.0494 198.5 89.8967 198.5 89.7441 198.5C89.5915 198.5 89.439 198.5 89.2865 198.5C89.1341 198.5 88.9817 198.5 88.8294 198.5C88.6771 198.5 88.5249 198.5 88.3727 198.5C88.2206 198.5 88.0685 198.5 87.9165 198.5C87.7646 198.5 87.6127 198.5 87.4608 198.5C87.309 198.5 87.1573 198.5 87.0056 198.5C86.8539 198.5 86.7023 198.5 86.5508 198.5C86.3993 198.5 86.2479 198.5 86.0966 198.5C85.9452 198.5 85.794 198.5 85.6428 198.5C85.4917 198.5 85.3406 198.5 85.1896 198.5C85.0386 198.5 84.8877 198.5 84.7369 198.5C84.586 198.5 84.4353 198.5 84.2846 198.5C84.134 198.5 83.9834 198.5 83.833 198.5C83.6825 198.5 83.5321 198.5 83.3818 198.5C83.2315 198.5 83.0813 198.5 82.9312 198.5C82.7811 198.5 82.6311 198.5 82.4812 198.5C82.3312 198.5 82.1814 198.5 82.0317 198.5C81.8819 198.5 81.7323 198.5 81.5827 198.5C81.4332 198.5 81.2837 198.5 81.1344 198.5C80.985 198.5 80.8358 198.5 80.6866 198.5C80.5374 198.5 80.3884 198.5 80.2394 198.5C80.0904 198.5 79.9415 198.5 79.7928 198.5C79.644 198.5 79.4953 198.5 79.3467 198.5C79.1982 198.5 79.0497 198.5 78.9013 198.5C78.7529 198.5 78.6047 198.5 78.4565 198.5C78.3083 198.5 78.1603 198.5 78.0123 198.5C77.8643 198.5 77.7165 198.5 77.5687 198.5C77.421 198.5 77.2733 198.5 77.1258 198.5C76.9782 198.5 76.8308 198.5 76.6835 198.5C76.5361 198.5 76.3889 198.5 76.2418 198.5C76.0947 198.5 75.9477 198.5 75.8008 198.5C75.6539 198.5 75.5071 198.5 75.3604 198.5C75.2137 198.5 75.0672 198.5 74.9207 198.5C74.7743 198.5 74.6279 198.5 74.4817 198.5C74.3354 198.5 74.1893 198.5 74.0433 198.5C73.8973 198.5 73.7514 198.5 73.6056 198.5C73.4599 198.5 73.3142 198.5 73.1687 198.5C73.0231 198.5 72.8777 198.5 72.7324 198.5C72.587 198.5 72.4418 198.5 72.2968 198.5C72.1517 198.5 72.0067 198.5 71.8619 198.5C71.717 198.5 71.5723 198.5 71.4277 198.5C71.2831 198.5 71.1386 198.5 70.9943 198.5C70.8499 198.5 70.7057 198.5 70.5616 198.5C70.4174 198.5 70.2734 198.5 70.1296 198.5C69.9857 198.5 69.842 198.5 69.6983 198.5C69.5547 198.5 69.4112 198.5 69.2678 198.5C69.1245 198.5 68.9812 198.5 68.8381 198.5C68.695 198.5 68.552 198.5 68.4091 198.5C68.2663 198.5 68.1235 198.5 67.9809 198.5C67.8383 198.5 67.6959 198.5 67.5535 198.5C67.4112 198.5 67.269 198.5 67.1269 198.5C66.9848 198.5 66.8428 198.5 66.701 198.5C66.5592 198.5 66.4175 198.5 66.2759 198.5C66.1344 198.5 65.993 198.5 65.8517 198.5C65.7104 198.5 65.5693 198.5 65.4282 198.5C65.2872 198.5 65.1463 198.5 65.0056 198.5C64.8649 198.5 64.7243 198.5 64.5838 198.5C64.4433 198.5 64.303 198.5 64.1628 198.5C64.0226 198.5 63.8826 198.5 63.7427 198.5C63.6027 198.5 63.463 198.5 63.3233 198.5C63.1837 198.5 63.0442 198.5 62.9049 198.5C62.7655 198.5 62.6263 198.5 62.4873 198.5C62.3482 198.5 62.2093 198.5 62.0705 198.5C61.9318 198.5 61.7931 198.5 61.6547 198.5C61.5162 198.5 61.3779 198.5 61.2397 198.5C61.1015 198.5 60.9634 198.5 60.8256 198.5C60.6877 198.5 60.5499 198.5 60.4123 198.5C60.2747 198.5 60.1373 198.5 60 198.5L60 199Z" fill="black"/>
<path d="M215.333 199C215.333 200.473 216.527 201.667 218 201.667C219.473 201.667 220.667 200.473 220.667 199C220.667 197.527 219.473 196.333 218 196.333C216.527 196.333 215.333 197.527 215.333 199ZM229 183L229.406 182.708L228.991 182.131L228.588 182.717L229 183ZM218 199L218.412 199.283L229.412 183.283L229 183L228.588 182.717L217.588 198.717L218 199ZM229 183L228.594 183.292L240.094 199.292L240.5 199L240.906 198.708L229.406 182.708L229 183Z" fill="black"/>
<path d="M192.833 199C192.833 200.473 194.027 201.667 195.5 201.667C196.973 201.667 198.167 200.473 198.167 199C198.167 197.527 196.973 196.333 195.5 196.333C194.027 196.333 192.833 197.527 192.833 199ZM206.5 183L206.906 182.708L206.491 182.131L206.088 182.717L206.5 183ZM195.5 199L195.912 199.283L206.912 183.283L206.5 183L206.088 182.717L195.088 198.717L195.5 199ZM206.5 183L206.094 183.292L217.594 199.292L218 199L218.406 198.708L206.906 182.708L206.5 183Z" fill="black"/>
<path d="M181.633 183.5C181.633 184.973 182.827 186.167 184.3 186.167C185.773 186.167 186.966 184.973 186.966 183.5C186.966 182.027 185.773 180.833 184.3 180.833C182.827 180.833 181.633 182.027 181.633 183.5ZM184.3 183.5L183.894 183.792L195.394 199.792L195.8 199.5L196.206 199.208L184.706 183.208L184.3 183.5Z" fill="black"/>
<rect x="59.5" y="100.5" width="36" height="76" stroke="black"/>
<rect x="95.5" y="100.5" width="36" height="76" stroke="black"/>
<rect x="131.5" y="100.5" width="36" height="76" stroke="black"/>
<rect x="167.5" y="100.5" width="36" height="76" stroke="black"/>
<rect x="203.5" y="100.5" width="36" height="76" stroke="black"/>
<path d="M95.5 100.5L60 138L95.5 176.5" stroke="black" stroke-linejoin="bevel" stroke-dasharray="2 2"/>
</svg>
