<svg xmlns="http://www.w3.org/2000/svg" fill="none" viewBox="0 0 41 31" height="31" width="41">
<path fill="#0C0C0C" d="M6.292 26.68C5.074 27.268 3.856 26.848 2.932 25.756C1.252 23.782 0.538 21.64 1.336 19.33C2.932 15.13 5.284 11.392 8.56 8.41C9.316 7.738 10.366 7.192 11.29 6.646C11.836 6.352 12.424 6.604 12.928 6.94C13.6 7.486 13.684 8.242 13.054 8.62C12.466 8.914 11.878 9.124 11.332 9.46C10.45 10.048 9.568 10.51 8.896 11.266C6.754 13.408 5.284 16.054 4.108 18.868C3.688 19.708 3.562 20.8 3.52 21.85C3.478 22.438 3.688 23.152 3.982 23.74C4.402 24.538 5.284 24.874 5.998 24.58C6.67 24.286 7.342 23.95 7.93 23.53C13.096 19.834 16.96 15.13 19.27 9.124C19.816 7.57 19.942 6.016 19.858 4.42C19.732 2.992 18.724 2.068 17.296 2.068C15.112 2.11 13.264 2.908 11.584 4C9.736 5.302 7.762 6.562 6.544 8.62C5.536 7.99 5.536 7.444 5.914 6.94C7.216 5.344 8.686 3.832 10.576 2.782C11.836 2.068 13.222 1.48 14.608 0.975999C15.532 0.681998 16.624 0.639998 17.674 0.681998C19.522 0.724 20.74 1.858 21.118 3.664C21.622 5.932 21.37 8.074 20.614 10.09C19.564 12.82 18.346 15.466 16.54 17.818C14.482 20.422 12.34 22.858 9.694 24.874C8.686 25.588 7.468 26.092 6.292 26.68ZM25.4168 30.208C24.6188 30.46 23.6528 29.998 23.5268 29.116C23.4848 28.234 23.4848 27.478 23.6108 26.68C23.9888 24.286 24.9968 22.102 26.0468 20.044C27.4748 17.356 28.9028 14.71 30.3728 12.148C30.4988 11.812 30.7088 11.518 31.0448 10.594L27.1808 12.484C26.5508 12.946 25.6688 13.198 24.8708 13.492C24.6188 13.576 24.1568 13.366 24.0308 13.03C23.9048 12.82 23.9468 12.316 24.0728 12.148C24.4508 11.644 24.9548 11.35 25.5008 11.098C26.7188 10.342 27.9368 9.754 29.1968 8.956C32.7248 7.192 35.4548 4.504 38.0588 1.606C38.5208 1.144 39.1088 0.724 39.6128 0.345999C39.8228 0.261998 40.2848 0.261998 40.3688 0.387999C40.5368 0.724 40.7888 1.144 40.7468 1.354C40.5368 1.984 40.2848 2.446 39.8228 2.992C39.3188 3.706 38.7728 4.252 38.2268 4.84C33.6908 9.586 30.8768 15.592 27.6848 21.304C27.0548 22.396 26.6768 23.698 26.2568 25.042C25.8788 26.05 25.4168 27.016 26.4668 28.15C27.0128 28.864 26.2988 29.998 25.4168 30.208Z"></path>
</svg>
