<svg xmlns="http://www.w3.org/2000/svg" fill="none" viewBox="0 0 39 43" height="43" width="39">
<path fill="black" d="M4.53584 32.4398C3.49184 32.9438 2.44784 32.5838 1.65584 31.6478C0.215843 29.9558 -0.396157 28.1198 0.287843 26.1398C1.65584 22.5398 3.67184 19.3358 6.47984 16.7798C7.12784 16.2038 8.02784 15.7358 8.81984 15.2678C9.28784 15.0158 9.79184 15.2318 10.2238 15.5198C10.7998 15.9878 10.8718 16.6358 10.3318 16.9598C9.82784 17.2118 9.32384 17.3918 8.85584 17.6798C8.09984 18.1838 7.34384 18.5798 6.76784 19.2278C4.93184 21.0638 3.67184 23.3318 2.66384 25.7438C2.30384 26.4638 2.19584 27.3998 2.15984 28.2998C2.12384 28.8038 2.30384 29.4158 2.55584 29.9198C2.91584 30.6038 3.67184 30.8918 4.28384 30.6398C4.85984 30.3878 5.43584 30.0998 5.93984 29.7398C10.3678 26.5718 13.6798 22.5398 15.6598 17.3918C16.1278 16.0598 16.2358 14.7278 16.1638 13.3598C16.0558 12.1358 15.1918 11.3438 13.9678 11.3438C12.0958 11.3798 10.5118 12.0638 9.07184 12.9998C7.48784 14.1158 5.79584 15.1958 4.75184 16.9598C3.88784 16.4198 3.88784 15.9518 4.21184 15.5198C5.32784 14.1518 6.58784 12.8558 8.20784 11.9558C9.28784 11.3438 10.4758 10.8398 11.6638 10.4078C12.4558 10.1558 13.3918 10.1198 14.2918 10.1558C15.8758 10.1918 16.9198 11.1638 17.2438 12.7118C17.6758 14.6558 17.4598 16.4918 16.8118 18.2198C15.9118 20.5598 14.8678 22.8278 13.3198 24.8438C11.5558 27.0758 9.71984 29.1638 7.45184 30.8918C6.58784 31.5038 5.54384 31.9358 4.53584 32.4398Z"></path>
<path fill="black" d="M36.3005 10.1558C36.9485 10.1918 36.5885 11.4158 36.5165 11.9558C36.4445 12.3878 36.2645 13.0358 36.0845 13.6118C35.7965 14.1878 35.6165 14.7278 35.3645 15.3038C34.9685 16.2398 34.5365 17.1758 34.1765 18.2198C33.8525 19.1558 33.4565 19.9838 32.9525 20.9198C33.2045 20.8838 33.5285 20.8118 33.9605 20.7758C34.1765 20.7398 34.5725 20.7758 34.6085 20.8118C34.7525 21.0638 35.0765 22.2518 34.6085 22.3958C34.2125 22.5038 33.7085 22.4678 33.4205 22.5038C32.8085 22.6118 32.4845 22.6838 31.9805 22.7198L31.1525 24.8078C30.1085 26.6438 29.3525 28.5518 28.3805 30.4238C27.3365 32.6198 27.8405 31.5398 26.7605 33.6638C26.7605 33.8078 26.4725 34.0958 26.4005 34.0958C26.1125 34.0958 24.9605 33.5918 25.0325 33.1598C25.1765 32.8358 25.5005 32.4398 25.5725 32.2598C25.8965 31.5398 25.9685 31.3238 26.3285 30.6758C26.6885 29.8118 27.1205 29.3078 27.3725 28.5878L28.8845 25.0958C29.1725 24.5918 29.3525 24.1598 29.5325 23.7278C29.6765 23.3318 29.7485 23.2238 29.8925 22.9718C29.6405 23.0078 29.3525 23.0438 29.0285 23.1518L24.9965 23.7998C24.3845 23.8358 23.9165 23.9438 23.3765 24.0158C22.8725 24.1238 22.6925 24.1598 22.4045 24.1598C22.2965 24.1598 22.1165 24.1958 21.9005 24.2318C21.6845 24.2318 21.4325 24.2678 21.1445 24.3038C20.8565 24.3038 20.4965 24.3758 20.2445 24.3038C20.0285 24.1958 19.9205 24.1598 19.7405 24.0158C19.5965 23.9078 19.4165 23.6558 19.3445 23.5118C19.3085 23.3678 19.2725 23.2598 19.2725 23.1878C19.2365 23.0438 19.2725 22.9718 19.3445 22.8278C19.4165 22.6478 19.4885 22.3598 19.5245 22.1438C20.2085 21.2798 20.9285 20.2718 21.6485 19.2998L23.5205 16.8878C24.6725 15.4838 25.7165 14.0078 26.7605 12.6758C27.0125 12.2438 27.0125 12.2438 27.3365 12.0638C27.6605 12.0998 27.5885 12.0998 27.9845 12.4238C28.5965 12.6758 27.7685 13.8638 27.5525 14.3318L26.4365 15.8438C26.0045 16.3478 25.6085 16.8158 25.1765 17.4278C24.5285 18.2558 23.8085 19.0838 23.1605 20.0558C22.8005 20.4878 22.4765 20.9198 22.1885 21.3878L21.6485 21.9638L21.5405 22.1078L21.4685 22.1438L21.4325 22.2518C21.3605 22.2878 21.3245 22.3598 21.3245 22.3598C21.2165 22.4678 21.2525 22.5758 21.3245 22.6118C21.3245 22.6838 21.3605 22.6838 21.4325 22.6478C21.5045 22.6478 21.6125 22.6478 21.6485 22.6118C21.6845 22.6118 21.7565 22.6118 21.7565 22.5758C21.9005 22.5758 22.0445 22.5398 22.1885 22.5038C22.4405 22.4318 22.8725 22.3598 23.4125 22.2878C25.6805 22.0358 27.8045 21.6758 30.1085 21.3518C30.3605 21.2798 30.6125 21.2438 30.8645 21.2078C31.7645 19.3718 32.5565 17.2478 33.4565 15.2318C34.1405 13.7198 34.6445 12.0998 35.1485 10.6598L35.4365 9.97583C35.7605 9.90383 35.7245 9.97583 36.3005 10.1558Z"></path>
</svg>
