<svg width="300" height="300" viewBox="0 0 300 300" fill="none" xmlns="http://www.w3.org/2000/svg">
<path d="M192 138L187 135.113V140.887L192 138ZM105 138V138.5C105.003 138.5 105.006 138.5 105.009 138.5C105.013 138.5 105.016 138.5 105.02 138.5C105.023 138.5 105.027 138.5 105.031 138.5C105.035 138.5 105.04 138.5 105.044 138.5C105.048 138.5 105.053 138.5 105.058 138.5C105.063 138.5 105.068 138.5 105.073 138.5C105.078 138.5 105.083 138.5 105.089 138.5C105.094 138.5 105.1 138.5 105.106 138.5C105.112 138.5 105.118 138.5 105.124 138.5C105.131 138.5 105.137 138.5 105.144 138.5C105.15 138.5 105.157 138.5 105.164 138.5C105.171 138.5 105.179 138.5 105.186 138.5C105.193 138.5 105.201 138.5 105.209 138.5C105.217 138.5 105.225 138.5 105.233 138.5C105.241 138.5 105.249 138.5 105.258 138.5C105.266 138.5 105.275 138.5 105.284 138.5C105.293 138.5 105.302 138.5 105.311 138.5C105.32 138.5 105.33 138.5 105.339 138.5C105.349 138.5 105.359 138.5 105.368 138.5C105.378 138.5 105.389 138.5 105.399 138.5C105.409 138.5 105.42 138.5 105.43 138.5C105.441 138.5 105.452 138.5 105.463 138.5C105.474 138.5 105.485 138.5 105.497 138.5C105.508 138.5 105.52 138.5 105.531 138.5C105.543 138.5 105.555 138.5 105.567 138.5C105.579 138.5 105.592 138.5 105.604 138.5C105.617 138.5 105.629 138.5 105.642 138.5C105.655 138.5 105.668 138.5 105.681 138.5C105.694 138.5 105.708 138.5 105.721 138.5C105.735 138.5 105.748 138.5 105.762 138.5C105.776 138.5 105.79 138.5 105.804 138.5C105.819 138.5 105.833 138.5 105.848 138.5C105.862 138.5 105.877 138.5 105.892 138.5C105.907 138.5 105.922 138.5 105.937 138.5C105.952 138.5 105.968 138.5 105.983 138.5C105.999 138.5 106.015 138.5 106.031 138.5C106.047 138.5 106.063 138.5 106.079 138.5C106.095 138.5 106.112 138.5 106.129 138.5C106.145 138.5 106.162 138.5 106.179 138.5C106.196 138.5 106.213 138.5 106.23 138.5C106.248 138.5 106.265 138.5 106.283 138.5C106.3 138.5 106.318 138.5 106.336 138.5C106.354 138.5 106.372 138.5 106.391 138.5C106.409 138.5 106.428 138.5 106.446 138.5C106.465 138.5 106.484 138.5 106.503 138.5C106.522 138.5 106.541 138.5 106.56 138.5C106.58 138.5 106.599 138.5 106.619 138.5C106.638 138.5 106.658 138.5 106.678 138.5C106.698 138.5 106.718 138.5 106.739 138.5C106.759 138.5 106.78 138.5 106.8 138.5C106.821 138.5 106.842 138.5 106.863 138.5C106.884 138.5 106.905 138.5 106.926 138.5C106.947 138.5 106.969 138.5 106.991 138.5C107.012 138.5 107.034 138.5 107.056 138.5C107.078 138.5 107.1 138.5 107.122 138.5C107.145 138.5 107.167 138.5 107.19 138.5C107.212 138.5 107.235 138.5 107.258 138.5C107.281 138.5 107.304 138.5 107.327 138.5C107.35 138.5 107.374 138.5 107.397 138.5C107.421 138.5 107.445 138.5 107.469 138.5C107.492 138.5 107.517 138.5 107.541 138.5C107.565 138.5 107.589 138.5 107.614 138.5C107.638 138.5 107.663 138.5 107.688 138.5C107.713 138.5 107.738 138.5 107.763 138.5C107.788 138.5 107.813 138.5 107.839 138.5C107.864 138.5 107.89 138.5 107.916 138.5C107.941 138.5 107.967 138.5 107.993 138.5C108.019 138.5 108.046 138.5 108.072 138.5C108.098 138.5 108.125 138.5 108.152 138.5C108.178 138.5 108.205 138.5 108.232 138.5C108.259 138.5 108.286 138.5 108.314 138.5C108.341 138.5 108.368 138.5 108.396 138.5C108.424 138.5 108.451 138.5 108.479 138.5C108.507 138.5 108.535 138.5 108.564 138.5C108.592 138.5 108.62 138.5 108.649 138.5C108.677 138.5 108.706 138.5 108.735 138.5C108.763 138.5 108.792 138.5 108.822 138.5C108.851 138.5 108.88 138.5 108.909 138.5C108.939 138.5 108.968 138.5 108.998 138.5C109.028 138.5 109.058 138.5 109.088 138.5C109.118 138.5 109.148 138.5 109.178 138.5C109.209 138.5 109.239 138.5 109.27 138.5C109.3 138.5 109.331 138.5 109.362 138.5C109.393 138.5 109.424 138.5 109.455 138.5C109.486 138.5 109.518 138.5 109.549 138.5C109.581 138.5 109.612 138.5 109.644 138.5C109.676 138.5 109.708 138.5 109.74 138.5C109.772 138.5 109.804 138.5 109.836 138.5C109.869 138.5 109.901 138.5 109.934 138.5C109.966 138.5 109.999 138.5 110.032 138.5C110.065 138.5 110.098 138.5 110.131 138.5C110.164 138.5 110.198 138.5 110.231 138.5C110.265 138.5 110.298 138.5 110.332 138.5C110.366 138.5 110.4 138.5 110.434 138.5C110.468 138.5 110.502 138.5 110.537 138.5C110.571 138.5 110.605 138.5 110.64 138.5C110.675 138.5 110.709 138.5 110.744 138.5C110.779 138.5 110.814 138.5 110.849 138.5C110.885 138.5 110.92 138.5 110.955 138.5C110.991 138.5 111.026 138.5 111.062 138.5C111.098 138.5 111.134 138.5 111.17 138.5C111.206 138.5 111.242 138.5 111.278 138.5C111.314 138.5 111.351 138.5 111.387 138.5C111.424 138.5 111.46 138.5 111.497 138.5C111.534 138.5 111.571 138.5 111.608 138.5C111.645 138.5 111.682 138.5 111.72 138.5C111.757 138.5 111.795 138.5 111.832 138.5C111.87 138.5 111.908 138.5 111.945 138.5C111.983 138.5 112.021 138.5 112.059 138.5C112.098 138.5 112.136 138.5 112.174 138.5C112.213 138.5 112.251 138.5 112.29 138.5C112.329 138.5 112.367 138.5 112.406 138.5C112.445 138.5 112.484 138.5 112.524 138.5C112.563 138.5 112.602 138.5 112.642 138.5C112.681 138.5 112.721 138.5 112.76 138.5C112.8 138.5 112.84 138.5 112.88 138.5C112.92 138.5 112.96 138.5 113 138.5C113.04 138.5 113.081 138.5 113.121 138.5C113.162 138.5 113.202 138.5 113.243 138.5C113.284 138.5 113.325 138.5 113.366 138.5C113.407 138.5 113.448 138.5 113.489 138.5C113.53 138.5 113.572 138.5 113.613 138.5C113.655 138.5 113.696 138.5 113.738 138.5C113.78 138.5 113.822 138.5 113.864 138.5C113.906 138.5 113.948 138.5 113.99 138.5C114.032 138.5 114.075 138.5 114.117 138.5C114.16 138.5 114.202 138.5 114.245 138.5C114.288 138.5 114.331 138.5 114.374 138.5C114.417 138.5 114.46 138.5 114.503 138.5C114.546 138.5 114.589 138.5 114.633 138.5C114.676 138.5 114.72 138.5 114.764 138.5C114.807 138.5 114.851 138.5 114.895 138.5C114.939 138.5 114.983 138.5 115.027 138.5C115.072 138.5 115.116 138.5 115.16 138.5C115.205 138.5 115.249 138.5 115.294 138.5C115.339 138.5 115.383 138.5 115.428 138.5C115.473 138.5 115.518 138.5 115.563 138.5C115.609 138.5 115.654 138.5 115.699 138.5C115.745 138.5 115.79 138.5 115.836 138.5C115.881 138.5 115.927 138.5 115.973 138.5C116.019 138.5 116.065 138.5 116.111 138.5C116.157 138.5 116.203 138.5 116.249 138.5C116.296 138.5 116.342 138.5 116.388 138.5C116.435 138.5 116.482 138.5 116.528 138.5C116.575 138.5 116.622 138.5 116.669 138.5C116.716 138.5 116.763 138.5 116.81 138.5C116.858 138.5 116.905 138.5 116.952 138.5C117 138.5 117.047 138.5 117.095 138.5C117.143 138.5 117.19 138.5 117.238 138.5C117.286 138.5 117.334 138.5 117.382 138.5C117.43 138.5 117.478 138.5 117.527 138.5C117.575 138.5 117.624 138.5 117.672 138.5C117.721 138.5 117.769 138.5 117.818 138.5C117.867 138.5 117.916 138.5 117.965 138.5C118.014 138.5 118.063 138.5 118.112 138.5C118.161 138.5 118.21 138.5 118.26 138.5C118.309 138.5 118.359 138.5 118.408 138.5C118.458 138.5 118.508 138.5 118.557 138.5C118.607 138.5 118.657 138.5 118.707 138.5C118.757 138.5 118.807 138.5 118.858 138.5C118.908 138.5 118.958 138.5 119.009 138.5C119.059 138.5 119.11 138.5 119.161 138.5C119.211 138.5 119.262 138.5 119.313 138.5C119.364 138.5 119.415 138.5 119.466 138.5C119.517 138.5 119.568 138.5 119.619 138.5C119.671 138.5 119.722 138.5 119.774 138.5C119.825 138.5 119.877 138.5 119.928 138.5C119.98 138.5 120.032 138.5 120.084 138.5C120.136 138.5 120.188 138.5 120.24 138.5C120.292 138.5 120.344 138.5 120.396 138.5C120.449 138.5 120.501 138.5 120.553 138.5C120.606 138.5 120.659 138.5 120.711 138.5C120.764 138.5 120.817 138.5 120.87 138.5C120.923 138.5 120.976 138.5 121.029 138.5C121.082 138.5 121.135 138.5 121.188 138.5C121.241 138.5 121.295 138.5 121.348 138.5C121.402 138.5 121.455 138.5 121.509 138.5C121.563 138.5 121.616 138.5 121.67 138.5C121.724 138.5 121.778 138.5 121.832 138.5C121.886 138.5 121.94 138.5 121.995 138.5C122.049 138.5 122.103 138.5 122.158 138.5C122.212 138.5 122.267 138.5 122.321 138.5C122.376 138.5 122.43 138.5 122.485 138.5C122.54 138.5 122.595 138.5 122.65 138.5C122.705 138.5 122.76 138.5 122.815 138.5C122.87 138.5 122.926 138.5 122.981 138.5C123.036 138.5 123.092 138.5 123.147 138.5C123.203 138.5 123.258 138.5 123.314 138.5C123.37 138.5 123.426 138.5 123.482 138.5C123.537 138.5 123.593 138.5 123.649 138.5C123.706 138.5 123.762 138.5 123.818 138.5C123.874 138.5 123.93 138.5 123.987 138.5C124.043 138.5 124.1 138.5 124.156 138.5C124.213 138.5 124.27 138.5 124.326 138.5C124.383 138.5 124.44 138.5 124.497 138.5C124.554 138.5 124.611 138.5 124.668 138.5C124.725 138.5 124.782 138.5 124.84 138.5C124.897 138.5 124.954 138.5 125.012 138.5C125.069 138.5 125.127 138.5 125.184 138.5C125.242 138.5 125.3 138.5 125.358 138.5C125.415 138.5 125.473 138.5 125.531 138.5C125.589 138.5 125.647 138.5 125.705 138.5C125.763 138.5 125.822 138.5 125.88 138.5C125.938 138.5 125.997 138.5 126.055 138.5C126.114 138.5 126.172 138.5 126.231 138.5C126.289 138.5 126.348 138.5 126.407 138.5C126.466 138.5 126.524 138.5 126.583 138.5C126.642 138.5 126.701 138.5 126.76 138.5C126.819 138.5 126.879 138.5 126.938 138.5C126.997 138.5 127.056 138.5 127.116 138.5C127.175 138.5 127.235 138.5 127.294 138.5C127.354 138.5 127.413 138.5 127.473 138.5C127.533 138.5 127.593 138.5 127.653 138.5C127.712 138.5 127.772 138.5 127.832 138.5C127.892 138.5 127.953 138.5 128.013 138.5C128.073 138.5 128.133 138.5 128.193 138.5C128.254 138.5 128.314 138.5 128.375 138.5C128.435 138.5 128.496 138.5 128.556 138.5C128.617 138.5 128.678 138.5 128.738 138.5C128.799 138.5 128.86 138.5 128.921 138.5C128.982 138.5 129.043 138.5 129.104 138.5C129.165 138.5 129.226 138.5 129.287 138.5C129.348 138.5 129.41 138.5 129.471 138.5C129.532 138.5 129.594 138.5 129.655 138.5C129.717 138.5 129.778 138.5 129.84 138.5C129.902 138.5 129.963 138.5 130.025 138.5C130.087 138.5 130.149 138.5 130.211 138.5C130.273 138.5 130.335 138.5 130.397 138.5C130.459 138.5 130.521 138.5 130.583 138.5C130.645 138.5 130.707 138.5 130.77 138.5C130.832 138.5 130.894 138.5 130.957 138.5C131.019 138.5 131.082 138.5 131.144 138.5C131.207 138.5 131.27 138.5 131.332 138.5C131.395 138.5 131.458 138.5 131.521 138.5C131.583 138.5 131.646 138.5 131.709 138.5C131.772 138.5 131.835 138.5 131.898 138.5C131.962 138.5 132.025 138.5 132.088 138.5C132.151 138.5 132.215 138.5 132.278 138.5C132.341 138.5 132.405 138.5 132.468 138.5C132.532 138.5 132.595 138.5 132.659 138.5C132.722 138.5 132.786 138.5 132.85 138.5C132.914 138.5 132.977 138.5 133.041 138.5C133.105 138.5 133.169 138.5 133.233 138.5C133.297 138.5 133.361 138.5 133.425 138.5C133.489 138.5 133.553 138.5 133.618 138.5C133.682 138.5 133.746 138.5 133.81 138.5C133.875 138.5 133.939 138.5 134.004 138.5C134.068 138.5 134.132 138.5 134.197 138.5C134.262 138.5 134.326 138.5 134.391 138.5C134.456 138.5 134.52 138.5 134.585 138.5C134.65 138.5 134.715 138.5 134.78 138.5C134.845 138.5 134.91 138.5 134.975 138.5C135.04 138.5 135.105 138.5 135.17 138.5C135.235 138.5 135.3 138.5 135.365 138.5C135.431 138.5 135.496 138.5 135.561 138.5C135.627 138.5 135.692 138.5 135.757 138.5C135.823 138.5 135.888 138.5 135.954 138.5C136.019 138.5 136.085 138.5 136.151 138.5C136.216 138.5 136.282 138.5 136.348 138.5C136.414 138.5 136.48 138.5 136.545 138.5C136.611 138.5 136.677 138.5 136.743 138.5C136.809 138.5 136.875 138.5 136.941 138.5C137.007 138.5 137.073 138.5 137.14 138.5C137.206 138.5 137.272 138.5 137.338 138.5C137.405 138.5 137.471 138.5 137.537 138.5C137.604 138.5 137.67 138.5 137.737 138.5C137.803 138.5 137.87 138.5 137.936 138.5C138.003 138.5 138.069 138.5 138.136 138.5C138.203 138.5 138.269 138.5 138.336 138.5C138.403 138.5 138.47 138.5 138.536 138.5C138.603 138.5 138.67 138.5 138.737 138.5C138.804 138.5 138.871 138.5 138.938 138.5C139.005 138.5 139.072 138.5 139.139 138.5C139.206 138.5 139.273 138.5 139.341 138.5C139.408 138.5 139.475 138.5 139.542 138.5C139.61 138.5 139.677 138.5 139.744 138.5C139.812 138.5 139.879 138.5 139.947 138.5C140.014 138.5 140.082 138.5 140.149 138.5C140.217 138.5 140.284 138.5 140.352 138.5C140.42 138.5 140.487 138.5 140.555 138.5C140.623 138.5 140.69 138.5 140.758 138.5C140.826 138.5 140.894 138.5 140.962 138.5C141.03 138.5 141.097 138.5 141.165 138.5C141.233 138.5 141.301 138.5 141.369 138.5C141.437 138.5 141.505 138.5 141.574 138.5C141.642 138.5 141.71 138.5 141.778 138.5C141.846 138.5 141.914 138.5 141.983 138.5C142.051 138.5 142.119 138.5 142.187 138.5C142.256 138.5 142.324 138.5 142.392 138.5C142.461 138.5 142.529 138.5 142.598 138.5C142.666 138.5 142.735 138.5 142.803 138.5C142.872 138.5 142.94 138.5 143.009 138.5C143.078 138.5 143.146 138.5 143.215 138.5C143.284 138.5 143.352 138.5 143.421 138.5C143.49 138.5 143.558 138.5 143.627 138.5C143.696 138.5 143.765 138.5 143.834 138.5C143.903 138.5 143.971 138.5 144.04 138.5C144.109 138.5 144.178 138.5 144.247 138.5C144.316 138.5 144.385 138.5 144.454 138.5C144.523 138.5 144.592 138.5 144.662 138.5C144.731 138.5 144.8 138.5 144.869 138.5C144.938 138.5 145.007 138.5 145.077 138.5C145.146 138.5 145.215 138.5 145.284 138.5C145.354 138.5 145.423 138.5 145.492 138.5C145.562 138.5 145.631 138.5 145.7 138.5C145.77 138.5 145.839 138.5 145.909 138.5C145.978 138.5 146.048 138.5 146.117 138.5C146.187 138.5 146.256 138.5 146.326 138.5C146.395 138.5 146.465 138.5 146.534 138.5C146.604 138.5 146.674 138.5 146.743 138.5C146.813 138.5 146.883 138.5 146.952 138.5C147.022 138.5 147.092 138.5 147.161 138.5C147.231 138.5 147.301 138.5 147.371 138.5C147.441 138.5 147.51 138.5 147.58 138.5C147.65 138.5 147.72 138.5 147.79 138.5C147.86 138.5 147.93 138.5 148 138.5C148.069 138.5 148.139 138.5 148.209 138.5C148.279 138.5 148.349 138.5 148.419 138.5C148.489 138.5 148.559 138.5 148.629 138.5C148.699 138.5 148.77 138.5 148.84 138.5C148.91 138.5 148.98 138.5 149.05 138.5C149.12 138.5 149.19 138.5 149.26 138.5C149.33 138.5 149.401 138.5 149.471 138.5C149.541 138.5 149.611 138.5 149.681 138.5C149.752 138.5 149.822 138.5 149.892 138.5C149.962 138.5 150.033 138.5 150.103 138.5C150.173 138.5 150.244 138.5 150.314 138.5C150.384 138.5 150.455 138.5 150.525 138.5C150.595 138.5 150.666 138.5 150.736 138.5C150.806 138.5 150.877 138.5 150.947 138.5C151.018 138.5 151.088 138.5 151.159 138.5C151.229 138.5 151.299 138.5 151.37 138.5C151.44 138.5 151.511 138.5 151.581 138.5C151.652 138.5 151.722 138.5 151.793 138.5C151.863 138.5 151.934 138.5 152.004 138.5C152.075 138.5 152.145 138.5 152.216 138.5C152.287 138.5 152.357 138.5 152.428 138.5C152.498 138.5 152.569 138.5 152.639 138.5C152.71 138.5 152.781 138.5 152.851 138.5C152.922 138.5 152.993 138.5 153.063 138.5C153.134 138.5 153.204 138.5 153.275 138.5C153.346 138.5 153.416 138.5 153.487 138.5C153.558 138.5 153.628 138.5 153.699 138.5C153.77 138.5 153.84 138.5 153.911 138.5C153.982 138.5 154.052 138.5 154.123 138.5C154.194 138.5 154.265 138.5 154.335 138.5C154.406 138.5 154.477 138.5 154.547 138.5C154.618 138.5 154.689 138.5 154.76 138.5C154.83 138.5 154.901 138.5 154.972 138.5C155.042 138.5 155.113 138.5 155.184 138.5C155.255 138.5 155.325 138.5 155.396 138.5C155.467 138.5 155.538 138.5 155.608 138.5C155.679 138.5 155.75 138.5 155.821 138.5C155.891 138.5 155.962 138.5 156.033 138.5C156.104 138.5 156.174 138.5 156.245 138.5C156.316 138.5 156.387 138.5 156.457 138.5C156.528 138.5 156.599 138.5 156.67 138.5C156.74 138.5 156.811 138.5 156.882 138.5C156.953 138.5 157.023 138.5 157.094 138.5C157.165 138.5 157.236 138.5 157.306 138.5C157.377 138.5 157.448 138.5 157.519 138.5C157.589 138.5 157.66 138.5 157.731 138.5C157.802 138.5 157.872 138.5 157.943 138.5C158.014 138.5 158.084 138.5 158.155 138.5C158.226 138.5 158.297 138.5 158.367 138.5C158.438 138.5 158.509 138.5 158.579 138.5C158.65 138.5 158.721 138.5 158.791 138.5C158.862 138.5 158.933 138.5 159.003 138.5C159.074 138.5 159.145 138.5 159.215 138.5C159.286 138.5 159.357 138.5 159.427 138.5C159.498 138.5 159.569 138.5 159.639 138.5C159.71 138.5 159.78 138.5 159.851 138.5C159.922 138.5 159.992 138.5 160.063 138.5C160.133 138.5 160.204 138.5 160.275 138.5C160.345 138.5 160.416 138.5 160.486 138.5C160.557 138.5 160.627 138.5 160.698 138.5C160.768 138.5 160.839 138.5 160.909 138.5C160.98 138.5 161.05 138.5 161.121 138.5C161.191 138.5 161.262 138.5 161.332 138.5C161.403 138.5 161.473 138.5 161.544 138.5C161.614 138.5 161.684 138.5 161.755 138.5C161.825 138.5 161.896 138.5 161.966 138.5C162.036 138.5 162.107 138.5 162.177 138.5C162.247 138.5 162.318 138.5 162.388 138.5C162.458 138.5 162.529 138.5 162.599 138.5C162.669 138.5 162.739 138.5 162.81 138.5C162.88 138.5 162.95 138.5 163.02 138.5C163.091 138.5 163.161 138.5 163.231 138.5C163.301 138.5 163.371 138.5 163.441 138.5C163.512 138.5 163.582 138.5 163.652 138.5C163.722 138.5 163.792 138.5 163.862 138.5C163.932 138.5 164.002 138.5 164.072 138.5C164.142 138.5 164.212 138.5 164.282 138.5C164.352 138.5 164.422 138.5 164.492 138.5C164.562 138.5 164.632 138.5 164.702 138.5C164.772 138.5 164.842 138.5 164.912 138.5C164.982 138.5 165.051 138.5 165.121 138.5C165.191 138.5 165.261 138.5 165.331 138.5C165.4 138.5 165.47 138.5 165.54 138.5C165.61 138.5 165.679 138.5 165.749 138.5C165.819 138.5 165.888 138.5 165.958 138.5C166.028 138.5 166.097 138.5 166.167 138.5C166.236 138.5 166.306 138.5 166.375 138.5C166.445 138.5 166.514 138.5 166.584 138.5C166.653 138.5 166.723 138.5 166.792 138.5C166.862 138.5 166.931 138.5 167 138.5C167.07 138.5 167.139 138.5 167.208 138.5C167.278 138.5 167.347 138.5 167.416 138.5C167.486 138.5 167.555 138.5 167.624 138.5C167.693 138.5 167.762 138.5 167.832 138.5C167.901 138.5 167.97 138.5 168.039 138.5C168.108 138.5 168.177 138.5 168.246 138.5C168.315 138.5 168.384 138.5 168.453 138.5C168.522 138.5 168.591 138.5 168.66 138.5C168.729 138.5 168.798 138.5 168.866 138.5C168.935 138.5 169.004 138.5 169.073 138.5C169.142 138.5 169.21 138.5 169.279 138.5C169.348 138.5 169.416 138.5 169.485 138.5C169.554 138.5 169.622 138.5 169.691 138.5C169.76 138.5 169.828 138.5 169.897 138.5C169.965 138.5 170.034 138.5 170.102 138.5C170.17 138.5 170.239 138.5 170.307 138.5C170.376 138.5 170.444 138.5 170.512 138.5C170.58 138.5 170.649 138.5 170.717 138.5C170.785 138.5 170.853 138.5 170.921 138.5C170.99 138.5 171.058 138.5 171.126 138.5C171.194 138.5 171.262 138.5 171.33 138.5C171.398 138.5 171.466 138.5 171.534 138.5C171.602 138.5 171.669 138.5 171.737 138.5C171.805 138.5 171.873 138.5 171.941 138.5C172.008 138.5 172.076 138.5 172.144 138.5C172.212 138.5 172.279 138.5 172.347 138.5C172.414 138.5 172.482 138.5 172.549 138.5C172.617 138.5 172.684 138.5 172.752 138.5C172.819 138.5 172.887 138.5 172.954 138.5C173.021 138.5 173.089 138.5 173.156 138.5C173.223 138.5 173.29 138.5 173.357 138.5C173.425 138.5 173.492 138.5 173.559 138.5C173.626 138.5 173.693 138.5 173.76 138.5C173.827 138.5 173.894 138.5 173.961 138.5C174.028 138.5 174.094 138.5 174.161 138.5C174.228 138.5 174.295 138.5 174.362 138.5C174.428 138.5 174.495 138.5 174.562 138.5C174.628 138.5 174.695 138.5 174.761 138.5C174.828 138.5 174.894 138.5 174.961 138.5C175.027 138.5 175.094 138.5 175.16 138.5C175.226 138.5 175.292 138.5 175.359 138.5C175.425 138.5 175.491 138.5 175.557 138.5C175.623 138.5 175.689 138.5 175.756 138.5C175.822 138.5 175.888 138.5 175.953 138.5C176.019 138.5 176.085 138.5 176.151 138.5C176.217 138.5 176.283 138.5 176.348 138.5C176.414 138.5 176.48 138.5 176.545 138.5C176.611 138.5 176.677 138.5 176.742 138.5C176.808 138.5 176.873 138.5 176.939 138.5C177.004 138.5 177.069 138.5 177.135 138.5C177.2 138.5 177.265 138.5 177.33 138.5C177.396 138.5 177.461 138.5 177.526 138.5C177.591 138.5 177.656 138.5 177.721 138.5C177.786 138.5 177.851 138.5 177.916 138.5C177.981 138.5 178.045 138.5 178.11 138.5C178.175 138.5 178.24 138.5 178.304 138.5C178.369 138.5 178.433 138.5 178.498 138.5C178.562 138.5 178.627 138.5 178.691 138.5C178.756 138.5 178.82 138.5 178.884 138.5C178.949 138.5 179.013 138.5 179.077 138.5C179.141 138.5 179.205 138.5 179.269 138.5C179.333 138.5 179.397 138.5 179.461 138.5C179.525 138.5 179.589 138.5 179.653 138.5C179.717 138.5 179.78 138.5 179.844 138.5C179.908 138.5 179.971 138.5 180.035 138.5C180.098 138.5 180.162 138.5 180.225 138.5C180.289 138.5 180.352 138.5 180.416 138.5C180.479 138.5 180.542 138.5 180.605 138.5C180.668 138.5 180.732 138.5 180.795 138.5C180.858 138.5 180.921 138.5 180.984 138.5C181.046 138.5 181.109 138.5 181.172 138.5C181.235 138.5 181.298 138.5 181.36 138.5C181.423 138.5 181.486 138.5 181.548 138.5C181.611 138.5 181.673 138.5 181.735 138.5C181.798 138.5 181.86 138.5 181.922 138.5C181.985 138.5 182.047 138.5 182.109 138.5C182.171 138.5 182.233 138.5 182.295 138.5C182.357 138.5 182.419 138.5 182.481 138.5C182.543 138.5 182.605 138.5 182.666 138.5C182.728 138.5 182.79 138.5 182.851 138.5C182.913 138.5 182.974 138.5 183.036 138.5C183.097 138.5 183.159 138.5 183.22 138.5C183.281 138.5 183.342 138.5 183.403 138.5C183.465 138.5 183.526 138.5 183.587 138.5C183.648 138.5 183.709 138.5 183.769 138.5C183.83 138.5 183.891 138.5 183.952 138.5C184.013 138.5 184.073 138.5 184.134 138.5C184.194 138.5 184.255 138.5 184.315 138.5C184.376 138.5 184.436 138.5 184.496 138.5C184.556 138.5 184.617 138.5 184.677 138.5C184.737 138.5 184.797 138.5 184.857 138.5C184.917 138.5 184.977 138.5 185.037 138.5C185.096 138.5 185.156 138.5 185.216 138.5C185.275 138.5 185.335 138.5 185.394 138.5C185.454 138.5 185.513 138.5 185.573 138.5C185.632 138.5 185.691 138.5 185.75 138.5C185.81 138.5 185.869 138.5 185.928 138.5C185.987 138.5 186.046 138.5 186.105 138.5C186.164 138.5 186.222 138.5 186.281 138.5C186.34 138.5 186.398 138.5 186.457 138.5C186.515 138.5 186.574 138.5 186.632 138.5C186.691 138.5 186.749 138.5 186.807 138.5C186.865 138.5 186.924 138.5 186.982 138.5C187.04 138.5 187.098 138.5 187.156 138.5C187.213 138.5 187.271 138.5 187.329 138.5C187.387 138.5 187.444 138.5 187.502 138.5V138V137.5C187.444 137.5 187.387 137.5 187.329 137.5C187.271 137.5 187.213 137.5 187.156 137.5C187.098 137.5 187.04 137.5 186.982 137.5C186.924 137.5 186.865 137.5 186.807 137.5C186.749 137.5 186.691 137.5 186.632 137.5C186.574 137.5 186.515 137.5 186.457 137.5C186.398 137.5 186.34 137.5 186.281 137.5C186.222 137.5 186.164 137.5 186.105 137.5C186.046 137.5 185.987 137.5 185.928 137.5C185.869 137.5 185.81 137.5 185.75 137.5C185.691 137.5 185.632 137.5 185.573 137.5C185.513 137.5 185.454 137.5 185.394 137.5C185.335 137.5 185.275 137.5 185.216 137.5C185.156 137.5 185.096 137.5 185.037 137.5C184.977 137.5 184.917 137.5 184.857 137.5C184.797 137.5 184.737 137.5 184.677 137.5C184.617 137.5 184.556 137.5 184.496 137.5C184.436 137.5 184.376 137.5 184.315 137.5C184.255 137.5 184.194 137.5 184.134 137.5C184.073 137.5 184.013 137.5 183.952 137.5C183.891 137.5 183.83 137.5 183.769 137.5C183.709 137.5 183.648 137.5 183.587 137.5C183.526 137.5 183.465 137.5 183.403 137.5C183.342 137.5 183.281 137.5 183.22 137.5C183.159 137.5 183.097 137.5 183.036 137.5C182.974 137.5 182.913 137.5 182.851 137.5C182.79 137.5 182.728 137.5 182.666 137.5C182.605 137.5 182.543 137.5 182.481 137.5C182.419 137.5 182.357 137.5 182.295 137.5C182.233 137.5 182.171 137.5 182.109 137.5C182.047 137.5 181.985 137.5 181.922 137.5C181.86 137.5 181.798 137.5 181.735 137.5C181.673 137.5 181.611 137.5 181.548 137.5C181.486 137.5 181.423 137.5 181.36 137.5C181.298 137.5 181.235 137.5 181.172 137.5C181.109 137.5 181.046 137.5 180.984 137.5C180.921 137.5 180.858 137.5 180.795 137.5C180.732 137.5 180.668 137.5 180.605 137.5C180.542 137.5 180.479 137.5 180.416 137.5C180.352 137.5 180.289 137.5 180.225 137.5C180.162 137.5 180.098 137.5 180.035 137.5C179.971 137.5 179.908 137.5 179.844 137.5C179.78 137.5 179.717 137.5 179.653 137.5C179.589 137.5 179.525 137.5 179.461 137.5C179.397 137.5 179.333 137.5 179.269 137.5C179.205 137.5 179.141 137.5 179.077 137.5C179.013 137.5 178.949 137.5 178.884 137.5C178.82 137.5 178.756 137.5 178.691 137.5C178.627 137.5 178.562 137.5 178.498 137.5C178.433 137.5 178.369 137.5 178.304 137.5C178.24 137.5 178.175 137.5 178.11 137.5C178.045 137.5 177.981 137.5 177.916 137.5C177.851 137.5 177.786 137.5 177.721 137.5C177.656 137.5 177.591 137.5 177.526 137.5C177.461 137.5 177.396 137.5 177.33 137.5C177.265 137.5 177.2 137.5 177.135 137.5C177.069 137.5 177.004 137.5 176.939 137.5C176.873 137.5 176.808 137.5 176.742 137.5C176.677 137.5 176.611 137.5 176.545 137.5C176.48 137.5 176.414 137.5 176.348 137.5C176.283 137.5 176.217 137.5 176.151 137.5C176.085 137.5 176.019 137.5 175.953 137.5C175.888 137.5 175.822 137.5 175.756 137.5C175.689 137.5 175.623 137.5 175.557 137.5C175.491 137.5 175.425 137.5 175.359 137.5C175.292 137.5 175.226 137.5 175.16 137.5C175.094 137.5 175.027 137.5 174.961 137.5C174.894 137.5 174.828 137.5 174.761 137.5C174.695 137.5 174.628 137.5 174.562 137.5C174.495 137.5 174.428 137.5 174.362 137.5C174.295 137.5 174.228 137.5 174.161 137.5C174.094 137.5 174.028 137.5 173.961 137.5C173.894 137.5 173.827 137.5 173.76 137.5C173.693 137.5 173.626 137.5 173.559 137.5C173.492 137.5 173.425 137.5 173.357 137.5C173.29 137.5 173.223 137.5 173.156 137.5C173.089 137.5 173.021 137.5 172.954 137.5C172.887 137.5 172.819 137.5 172.752 137.5C172.684 137.5 172.617 137.5 172.549 137.5C172.482 137.5 172.414 137.5 172.347 137.5C172.279 137.5 172.212 137.5 172.144 137.5C172.076 137.5 172.008 137.5 171.941 137.5C171.873 137.5 171.805 137.5 171.737 137.5C171.669 137.5 171.602 137.5 171.534 137.5C171.466 137.5 171.398 137.5 171.33 137.5C171.262 137.5 171.194 137.5 171.126 137.5C171.058 137.5 170.99 137.5 170.921 137.5C170.853 137.5 170.785 137.5 170.717 137.5C170.649 137.5 170.58 137.5 170.512 137.5C170.444 137.5 170.376 137.5 170.307 137.5C170.239 137.5 170.17 137.5 170.102 137.5C170.034 137.5 169.965 137.5 169.897 137.5C169.828 137.5 169.76 137.5 169.691 137.5C169.622 137.5 169.554 137.5 169.485 137.5C169.416 137.5 169.348 137.5 169.279 137.5C169.21 137.5 169.142 137.5 169.073 137.5C169.004 137.5 168.935 137.5 168.866 137.5C168.798 137.5 168.729 137.5 168.66 137.5C168.591 137.5 168.522 137.5 168.453 137.5C168.384 137.5 168.315 137.5 168.246 137.5C168.177 137.5 168.108 137.5 168.039 137.5C167.97 137.5 167.901 137.5 167.832 137.5C167.762 137.5 167.693 137.5 167.624 137.5C167.555 137.5 167.486 137.5 167.416 137.5C167.347 137.5 167.278 137.5 167.208 137.5C167.139 137.5 167.07 137.5 167 137.5C166.931 137.5 166.862 137.5 166.792 137.5C166.723 137.5 166.653 137.5 166.584 137.5C166.514 137.5 166.445 137.5 166.375 137.5C166.306 137.5 166.236 137.5 166.167 137.5C166.097 137.5 166.028 137.5 165.958 137.5C165.888 137.5 165.819 137.5 165.749 137.5C165.679 137.5 165.61 137.5 165.54 137.5C165.47 137.5 165.4 137.5 165.331 137.5C165.261 137.5 165.191 137.5 165.121 137.5C165.051 137.5 164.982 137.5 164.912 137.5C164.842 137.5 164.772 137.5 164.702 137.5C164.632 137.5 164.562 137.5 164.492 137.5C164.422 137.5 164.352 137.5 164.282 137.5C164.212 137.5 164.142 137.5 164.072 137.5C164.002 137.5 163.932 137.5 163.862 137.5C163.792 137.5 163.722 137.5 163.652 137.5C163.582 137.5 163.512 137.5 163.441 137.5C163.371 137.5 163.301 137.5 163.231 137.5C163.161 137.5 163.091 137.5 163.02 137.5C162.95 137.5 162.88 137.5 162.81 137.5C162.739 137.5 162.669 137.5 162.599 137.5C162.529 137.5 162.458 137.5 162.388 137.5C162.318 137.5 162.247 137.5 162.177 137.5C162.107 137.5 162.036 137.5 161.966 137.5C161.896 137.5 161.825 137.5 161.755 137.5C161.684 137.5 161.614 137.5 161.544 137.5C161.473 137.5 161.403 137.5 161.332 137.5C161.262 137.5 161.191 137.5 161.121 137.5C161.05 137.5 160.98 137.5 160.909 137.5C160.839 137.5 160.768 137.5 160.698 137.5C160.627 137.5 160.557 137.5 160.486 137.5C160.416 137.5 160.345 137.5 160.275 137.5C160.204 137.5 160.133 137.5 160.063 137.5C159.992 137.5 159.922 137.5 159.851 137.5C159.78 137.5 159.71 137.5 159.639 137.5C159.569 137.5 159.498 137.5 159.427 137.5C159.357 137.5 159.286 137.5 159.215 137.5C159.145 137.5 159.074 137.5 159.003 137.5C158.933 137.5 158.862 137.5 158.791 137.5C158.721 137.5 158.65 137.5 158.579 137.5C158.509 137.5 158.438 137.5 158.367 137.5C158.297 137.5 158.226 137.5 158.155 137.5C158.084 137.5 158.014 137.5 157.943 137.5C157.872 137.5 157.802 137.5 157.731 137.5C157.66 137.5 157.589 137.5 157.519 137.5C157.448 137.5 157.377 137.5 157.306 137.5C157.236 137.5 157.165 137.5 157.094 137.5C157.023 137.5 156.953 137.5 156.882 137.5C156.811 137.5 156.74 137.5 156.67 137.5C156.599 137.5 156.528 137.5 156.457 137.5C156.387 137.5 156.316 137.5 156.245 137.5C156.174 137.5 156.104 137.5 156.033 137.5C155.962 137.5 155.891 137.5 155.821 137.5C155.75 137.5 155.679 137.5 155.608 137.5C155.538 137.5 155.467 137.5 155.396 137.5C155.325 137.5 155.255 137.5 155.184 137.5C155.113 137.5 155.042 137.5 154.972 137.5C154.901 137.5 154.83 137.5 154.76 137.5C154.689 137.5 154.618 137.5 154.547 137.5C154.477 137.5 154.406 137.5 154.335 137.5C154.265 137.5 154.194 137.5 154.123 137.5C154.052 137.5 153.982 137.5 153.911 137.5C153.84 137.5 153.77 137.5 153.699 137.5C153.628 137.5 153.558 137.5 153.487 137.5C153.416 137.5 153.346 137.5 153.275 137.5C153.204 137.5 153.134 137.5 153.063 137.5C152.993 137.5 152.922 137.5 152.851 137.5C152.781 137.5 152.71 137.5 152.639 137.5C152.569 137.5 152.498 137.5 152.428 137.5C152.357 137.5 152.287 137.5 152.216 137.5C152.145 137.5 152.075 137.5 152.004 137.5C151.934 137.5 151.863 137.5 151.793 137.5C151.722 137.5 151.652 137.5 151.581 137.5C151.511 137.5 151.44 137.5 151.37 137.5C151.299 137.5 151.229 137.5 151.159 137.5C151.088 137.5 151.018 137.5 150.947 137.5C150.877 137.5 150.806 137.5 150.736 137.5C150.666 137.5 150.595 137.5 150.525 137.5C150.455 137.5 150.384 137.5 150.314 137.5C150.244 137.5 150.173 137.5 150.103 137.5C150.033 137.5 149.962 137.5 149.892 137.5C149.822 137.5 149.752 137.5 149.681 137.5C149.611 137.5 149.541 137.5 149.471 137.5C149.401 137.5 149.33 137.5 149.26 137.5C149.19 137.5 149.12 137.5 149.05 137.5C148.98 137.5 148.91 137.5 148.84 137.5C148.77 137.5 148.699 137.5 148.629 137.5C148.559 137.5 148.489 137.5 148.419 137.5C148.349 137.5 148.279 137.5 148.209 137.5C148.139 137.5 148.069 137.5 148 137.5C147.93 137.5 147.86 137.5 147.79 137.5C147.72 137.5 147.65 137.5 147.58 137.5C147.51 137.5 147.441 137.5 147.371 137.5C147.301 137.5 147.231 137.5 147.161 137.5C147.092 137.5 147.022 137.5 146.952 137.5C146.883 137.5 146.813 137.5 146.743 137.5C146.674 137.5 146.604 137.5 146.534 137.5C146.465 137.5 146.395 137.5 146.326 137.5C146.256 137.5 146.187 137.5 146.117 137.5C146.048 137.5 145.978 137.5 145.909 137.5C145.839 137.5 145.77 137.5 145.7 137.5C145.631 137.5 145.562 137.5 145.492 137.5C145.423 137.5 145.354 137.5 145.284 137.5C145.215 137.5 145.146 137.5 145.077 137.5C145.007 137.5 144.938 137.5 144.869 137.5C144.8 137.5 144.731 137.5 144.662 137.5C144.592 137.5 144.523 137.5 144.454 137.5C144.385 137.5 144.316 137.5 144.247 137.5C144.178 137.5 144.109 137.5 144.04 137.5C143.971 137.5 143.903 137.5 143.834 137.5C143.765 137.5 143.696 137.5 143.627 137.5C143.558 137.5 143.49 137.5 143.421 137.5C143.352 137.5 143.284 137.5 143.215 137.5C143.146 137.5 143.078 137.5 143.009 137.5C142.94 137.5 142.872 137.5 142.803 137.5C142.735 137.5 142.666 137.5 142.598 137.5C142.529 137.5 142.461 137.5 142.392 137.5C142.324 137.5 142.256 137.5 142.187 137.5C142.119 137.5 142.051 137.5 141.983 137.5C141.914 137.5 141.846 137.5 141.778 137.5C141.71 137.5 141.642 137.5 141.574 137.5C141.505 137.5 141.437 137.5 141.369 137.5C141.301 137.5 141.233 137.5 141.165 137.5C141.097 137.5 141.03 137.5 140.962 137.5C140.894 137.5 140.826 137.5 140.758 137.5C140.69 137.5 140.623 137.5 140.555 137.5C140.487 137.5 140.42 137.5 140.352 137.5C140.284 137.5 140.217 137.5 140.149 137.5C140.082 137.5 140.014 137.5 139.947 137.5C139.879 137.5 139.812 137.5 139.744 137.5C139.677 137.5 139.61 137.5 139.542 137.5C139.475 137.5 139.408 137.5 139.341 137.5C139.273 137.5 139.206 137.5 139.139 137.5C139.072 137.5 139.005 137.5 138.938 137.5C138.871 137.5 138.804 137.5 138.737 137.5C138.67 137.5 138.603 137.5 138.536 137.5C138.47 137.5 138.403 137.5 138.336 137.5C138.269 137.5 138.203 137.5 138.136 137.5C138.069 137.5 138.003 137.5 137.936 137.5C137.87 137.5 137.803 137.5 137.737 137.5C137.67 137.5 137.604 137.5 137.537 137.5C137.471 137.5 137.405 137.5 137.338 137.5C137.272 137.5 137.206 137.5 137.14 137.5C137.073 137.5 137.007 137.5 136.941 137.5C136.875 137.5 136.809 137.5 136.743 137.5C136.677 137.5 136.611 137.5 136.545 137.5C136.48 137.5 136.414 137.5 136.348 137.5C136.282 137.5 136.216 137.5 136.151 137.5C136.085 137.5 136.019 137.5 135.954 137.5C135.888 137.5 135.823 137.5 135.757 137.5C135.692 137.5 135.627 137.5 135.561 137.5C135.496 137.5 135.431 137.5 135.365 137.5C135.3 137.5 135.235 137.5 135.17 137.5C135.105 137.5 135.04 137.5 134.975 137.5C134.91 137.5 134.845 137.5 134.78 137.5C134.715 137.5 134.65 137.5 134.585 137.5C134.52 137.5 134.456 137.5 134.391 137.5C134.326 137.5 134.262 137.5 134.197 137.5C134.132 137.5 134.068 137.5 134.004 137.5C133.939 137.5 133.875 137.5 133.81 137.5C133.746 137.5 133.682 137.5 133.618 137.5C133.553 137.5 133.489 137.5 133.425 137.5C133.361 137.5 133.297 137.5 133.233 137.5C133.169 137.5 133.105 137.5 133.041 137.5C132.977 137.5 132.914 137.5 132.85 137.5C132.786 137.5 132.722 137.5 132.659 137.5C132.595 137.5 132.532 137.5 132.468 137.5C132.405 137.5 132.341 137.5 132.278 137.5C132.215 137.5 132.151 137.5 132.088 137.5C132.025 137.5 131.962 137.5 131.898 137.5C131.835 137.5 131.772 137.5 131.709 137.5C131.646 137.5 131.583 137.5 131.521 137.5C131.458 137.5 131.395 137.5 131.332 137.5C131.27 137.5 131.207 137.5 131.144 137.5C131.082 137.5 131.019 137.5 130.957 137.5C130.894 137.5 130.832 137.5 130.77 137.5C130.707 137.5 130.645 137.5 130.583 137.5C130.521 137.5 130.459 137.5 130.397 137.5C130.335 137.5 130.273 137.5 130.211 137.5C130.149 137.5 130.087 137.5 130.025 137.5C129.963 137.5 129.902 137.5 129.84 137.5C129.778 137.5 129.717 137.5 129.655 137.5C129.594 137.5 129.532 137.5 129.471 137.5C129.41 137.5 129.348 137.5 129.287 137.5C129.226 137.5 129.165 137.5 129.104 137.5C129.043 137.5 128.982 137.5 128.921 137.5C128.86 137.5 128.799 137.5 128.738 137.5C128.678 137.5 128.617 137.5 128.556 137.5C128.496 137.5 128.435 137.5 128.375 137.5C128.314 137.5 128.254 137.5 128.193 137.5C128.133 137.5 128.073 137.5 128.013 137.5C127.953 137.5 127.892 137.5 127.832 137.5C127.772 137.5 127.712 137.5 127.653 137.5C127.593 137.5 127.533 137.5 127.473 137.5C127.413 137.5 127.354 137.5 127.294 137.5C127.235 137.5 127.175 137.5 127.116 137.5C127.056 137.5 126.997 137.5 126.938 137.5C126.879 137.5 126.819 137.5 126.76 137.5C126.701 137.5 126.642 137.5 126.583 137.5C126.524 137.5 126.466 137.5 126.407 137.5C126.348 137.5 126.289 137.5 126.231 137.5C126.172 137.5 126.114 137.5 126.055 137.5C125.997 137.5 125.938 137.5 125.88 137.5C125.822 137.5 125.763 137.5 125.705 137.5C125.647 137.5 125.589 137.5 125.531 137.5C125.473 137.5 125.415 137.5 125.358 137.5C125.3 137.5 125.242 137.5 125.184 137.5C125.127 137.5 125.069 137.5 125.012 137.5C124.954 137.5 124.897 137.5 124.84 137.5C124.782 137.5 124.725 137.5 124.668 137.5C124.611 137.5 124.554 137.5 124.497 137.5C124.44 137.5 124.383 137.5 124.326 137.5C124.27 137.5 124.213 137.5 124.156 137.5C124.1 137.5 124.043 137.5 123.987 137.5C123.93 137.5 123.874 137.5 123.818 137.5C123.762 137.5 123.706 137.5 123.649 137.5C123.593 137.5 123.537 137.5 123.482 137.5C123.426 137.5 123.37 137.5 123.314 137.5C123.258 137.5 123.203 137.5 123.147 137.5C123.092 137.5 123.036 137.5 122.981 137.5C122.926 137.5 122.87 137.5 122.815 137.5C122.76 137.5 122.705 137.5 122.65 137.5C122.595 137.5 122.54 137.5 122.485 137.5C122.43 137.5 122.376 137.5 122.321 137.5C122.267 137.5 122.212 137.5 122.158 137.5C122.103 137.5 122.049 137.5 121.995 137.5C121.94 137.5 121.886 137.5 121.832 137.5C121.778 137.5 121.724 137.5 121.67 137.5C121.616 137.5 121.563 137.5 121.509 137.5C121.455 137.5 121.402 137.5 121.348 137.5C121.295 137.5 121.241 137.5 121.188 137.5C121.135 137.5 121.082 137.5 121.029 137.5C120.976 137.5 120.923 137.5 120.87 137.5C120.817 137.5 120.764 137.5 120.711 137.5C120.659 137.5 120.606 137.5 120.553 137.5C120.501 137.5 120.449 137.5 120.396 137.5C120.344 137.5 120.292 137.5 120.24 137.5C120.188 137.5 120.136 137.5 120.084 137.5C120.032 137.5 119.98 137.5 119.928 137.5C119.877 137.5 119.825 137.5 119.774 137.5C119.722 137.5 119.671 137.5 119.619 137.5C119.568 137.5 119.517 137.5 119.466 137.5C119.415 137.5 119.364 137.5 119.313 137.5C119.262 137.5 119.211 137.5 119.161 137.5C119.11 137.5 119.059 137.5 119.009 137.5C118.958 137.5 118.908 137.5 118.858 137.5C118.807 137.5 118.757 137.5 118.707 137.5C118.657 137.5 118.607 137.5 118.557 137.5C118.508 137.5 118.458 137.5 118.408 137.5C118.359 137.5 118.309 137.5 118.26 137.5C118.21 137.5 118.161 137.5 118.112 137.5C118.063 137.5 118.014 137.5 117.965 137.5C117.916 137.5 117.867 137.5 117.818 137.5C117.769 137.5 117.721 137.5 117.672 137.5C117.624 137.5 117.575 137.5 117.527 137.5C117.478 137.5 117.43 137.5 117.382 137.5C117.334 137.5 117.286 137.5 117.238 137.5C117.19 137.5 117.143 137.5 117.095 137.5C117.047 137.5 117 137.5 116.952 137.5C116.905 137.5 116.858 137.5 116.81 137.5C116.763 137.5 116.716 137.5 116.669 137.5C116.622 137.5 116.575 137.5 116.528 137.5C116.482 137.5 116.435 137.5 116.388 137.5C116.342 137.5 116.296 137.5 116.249 137.5C116.203 137.5 116.157 137.5 116.111 137.5C116.065 137.5 116.019 137.5 115.973 137.5C115.927 137.5 115.881 137.5 115.836 137.5C115.79 137.5 115.745 137.5 115.699 137.5C115.654 137.5 115.609 137.5 115.563 137.5C115.518 137.5 115.473 137.5 115.428 137.5C115.383 137.5 115.339 137.5 115.294 137.5C115.249 137.5 115.205 137.5 115.16 137.5C115.116 137.5 115.072 137.5 115.027 137.5C114.983 137.5 114.939 137.5 114.895 137.5C114.851 137.5 114.807 137.5 114.764 137.5C114.72 137.5 114.676 137.5 114.633 137.5C114.589 137.5 114.546 137.5 114.503 137.5C114.46 137.5 114.417 137.5 114.374 137.5C114.331 137.5 114.288 137.5 114.245 137.5C114.202 137.5 114.16 137.5 114.117 137.5C114.075 137.5 114.032 137.5 113.99 137.5C113.948 137.5 113.906 137.5 113.864 137.5C113.822 137.5 113.78 137.5 113.738 137.5C113.696 137.5 113.655 137.5 113.613 137.5C113.572 137.5 113.53 137.5 113.489 137.5C113.448 137.5 113.407 137.5 113.366 137.5C113.325 137.5 113.284 137.5 113.243 137.5C113.202 137.5 113.162 137.5 113.121 137.5C113.081 137.5 113.04 137.5 113 137.5C112.96 137.5 112.92 137.5 112.88 137.5C112.84 137.5 112.8 137.5 112.76 137.5C112.721 137.5 112.681 137.5 112.642 137.5C112.602 137.5 112.563 137.5 112.524 137.5C112.484 137.5 112.445 137.5 112.406 137.5C112.367 137.5 112.329 137.5 112.29 137.5C112.251 137.5 112.213 137.5 112.174 137.5C112.136 137.5 112.098 137.5 112.059 137.5C112.021 137.5 111.983 137.5 111.945 137.5C111.908 137.5 111.87 137.5 111.832 137.5C111.795 137.5 111.757 137.5 111.72 137.5C111.682 137.5 111.645 137.5 111.608 137.5C111.571 137.5 111.534 137.5 111.497 137.5C111.46 137.5 111.424 137.5 111.387 137.5C111.351 137.5 111.314 137.5 111.278 137.5C111.242 137.5 111.206 137.5 111.17 137.5C111.134 137.5 111.098 137.5 111.062 137.5C111.026 137.5 110.991 137.5 110.955 137.5C110.92 137.5 110.885 137.5 110.849 137.5C110.814 137.5 110.779 137.5 110.744 137.5C110.709 137.5 110.675 137.5 110.64 137.5C110.605 137.5 110.571 137.5 110.537 137.5C110.502 137.5 110.468 137.5 110.434 137.5C110.4 137.5 110.366 137.5 110.332 137.5C110.298 137.5 110.265 137.5 110.231 137.5C110.198 137.5 110.164 137.5 110.131 137.5C110.098 137.5 110.065 137.5 110.032 137.5C109.999 137.5 109.966 137.5 109.934 137.5C109.901 137.5 109.869 137.5 109.836 137.5C109.804 137.5 109.772 137.5 109.74 137.5C109.708 137.5 109.676 137.5 109.644 137.5C109.612 137.5 109.581 137.5 109.549 137.5C109.518 137.5 109.486 137.5 109.455 137.5C109.424 137.5 109.393 137.5 109.362 137.5C109.331 137.5 109.3 137.5 109.27 137.5C109.239 137.5 109.209 137.5 109.178 137.5C109.148 137.5 109.118 137.5 109.088 137.5C109.058 137.5 109.028 137.5 108.998 137.5C108.968 137.5 108.939 137.5 108.909 137.5C108.88 137.5 108.851 137.5 108.822 137.5C108.792 137.5 108.763 137.5 108.735 137.5C108.706 137.5 108.677 137.5 108.649 137.5C108.62 137.5 108.592 137.5 108.564 137.5C108.535 137.5 108.507 137.5 108.479 137.5C108.451 137.5 108.424 137.5 108.396 137.5C108.368 137.5 108.341 137.5 108.314 137.5C108.286 137.5 108.259 137.5 108.232 137.5C108.205 137.5 108.178 137.5 108.152 137.5C108.125 137.5 108.098 137.5 108.072 137.5C108.046 137.5 108.019 137.5 107.993 137.5C107.967 137.5 107.941 137.5 107.916 137.5C107.89 137.5 107.864 137.5 107.839 137.5C107.813 137.5 107.788 137.5 107.763 137.5C107.738 137.5 107.713 137.5 107.688 137.5C107.663 137.5 107.638 137.5 107.614 137.5C107.589 137.5 107.565 137.5 107.541 137.5C107.517 137.5 107.492 137.5 107.469 137.5C107.445 137.5 107.421 137.5 107.397 137.5C107.374 137.5 107.35 137.5 107.327 137.5C107.304 137.5 107.281 137.5 107.258 137.5C107.235 137.5 107.212 137.5 107.19 137.5C107.167 137.5 107.145 137.5 107.122 137.5C107.1 137.5 107.078 137.5 107.056 137.5C107.034 137.5 107.012 137.5 106.991 137.5C106.969 137.5 106.947 137.5 106.926 137.5C106.905 137.5 106.884 137.5 106.863 137.5C106.842 137.5 106.821 137.5 106.8 137.5C106.78 137.5 106.759 137.5 106.739 137.5C106.718 137.5 106.698 137.5 106.678 137.5C106.658 137.5 106.638 137.5 106.619 137.5C106.599 137.5 106.58 137.5 106.56 137.5C106.541 137.5 106.522 137.5 106.503 137.5C106.484 137.5 106.465 137.5 106.446 137.5C106.428 137.5 106.409 137.5 106.391 137.5C106.372 137.5 106.354 137.5 106.336 137.5C106.318 137.5 106.3 137.5 106.283 137.5C106.265 137.5 106.248 137.5 106.23 137.5C106.213 137.5 106.196 137.5 106.179 137.5C106.162 137.5 106.145 137.5 106.129 137.5C106.112 137.5 106.095 137.5 106.079 137.5C106.063 137.5 106.047 137.5 106.031 137.5C106.015 137.5 105.999 137.5 105.983 137.5C105.968 137.5 105.952 137.5 105.937 137.5C105.922 137.5 105.907 137.5 105.892 137.5C105.877 137.5 105.862 137.5 105.848 137.5C105.833 137.5 105.819 137.5 105.804 137.5C105.79 137.5 105.776 137.5 105.762 137.5C105.748 137.5 105.735 137.5 105.721 137.5C105.708 137.5 105.694 137.5 105.681 137.5C105.668 137.5 105.655 137.5 105.642 137.5C105.629 137.5 105.617 137.5 105.604 137.5C105.592 137.5 105.579 137.5 105.567 137.5C105.555 137.5 105.543 137.5 105.531 137.5C105.52 137.5 105.508 137.5 105.497 137.5C105.485 137.5 105.474 137.5 105.463 137.5C105.452 137.5 105.441 137.5 105.43 137.5C105.42 137.5 105.409 137.5 105.399 137.5C105.389 137.5 105.378 137.5 105.368 137.5C105.359 137.5 105.349 137.5 105.339 137.5C105.33 137.5 105.32 137.5 105.311 137.5C105.302 137.5 105.293 137.5 105.284 137.5C105.275 137.5 105.266 137.5 105.258 137.5C105.249 137.5 105.241 137.5 105.233 137.5C105.225 137.5 105.217 137.5 105.209 137.5C105.201 137.5 105.193 137.5 105.186 137.5C105.179 137.5 105.171 137.5 105.164 137.5C105.157 137.5 105.15 137.5 105.144 137.5C105.137 137.5 105.131 137.5 105.124 137.5C105.118 137.5 105.112 137.5 105.106 137.5C105.1 137.5 105.094 137.5 105.089 137.5C105.083 137.5 105.078 137.5 105.073 137.5C105.068 137.5 105.063 137.5 105.058 137.5C105.053 137.5 105.048 137.5 105.044 137.5C105.04 137.5 105.035 137.5 105.031 137.5C105.027 137.5 105.023 137.5 105.02 137.5C105.016 137.5 105.013 137.5 105.009 137.5C105.006 137.5 105.003 137.5 105 137.5V138Z" fill="black"/>
<path d="M92.3333 199C92.3333 200.473 93.5272 201.667 95 201.667C96.4728 201.667 97.6667 200.473 97.6667 199C97.6667 197.527 96.4728 196.333 95 196.333C93.5272 196.333 92.3333 197.527 92.3333 199ZM201.333 199C201.333 200.473 202.527 201.667 204 201.667C205.473 201.667 206.667 200.473 206.667 199C206.667 197.527 205.473 196.333 204 196.333C202.527 196.333 201.333 197.527 201.333 199ZM95 199V199.5C95.0831 199.5 95.1664 199.5 95.2497 199.5C95.333 199.5 95.4164 199.5 95.4999 199.5C95.5834 199.5 95.667 199.5 95.7507 199.5C95.8344 199.5 95.9181 199.5 96.002 199.5C96.0859 199.5 96.1698 199.5 96.2538 199.5C96.3379 199.5 96.422 199.5 96.5062 199.5C96.5904 199.5 96.6747 199.5 96.7591 199.5C96.8435 199.5 96.9279 199.5 97.0125 199.5C97.097 199.5 97.1817 199.5 97.2664 199.5C97.3511 199.5 97.4359 199.5 97.5208 199.5C97.6057 199.5 97.6907 199.5 97.7757 199.5C97.8608 199.5 97.9459 199.5 98.0312 199.5C98.1164 199.5 98.2017 199.5 98.2871 199.5C98.3725 199.5 98.458 199.5 98.5435 199.5C98.6291 199.5 98.7147 199.5 98.8004 199.5C98.8862 199.5 98.972 199.5 99.0578 199.5C99.1437 199.5 99.2297 199.5 99.3157 199.5C99.4018 199.5 99.4879 199.5 99.5741 199.5C99.6603 199.5 99.7465 199.5 99.8329 199.5C99.9193 199.5 100.006 199.5 100.092 199.5C100.179 199.5 100.265 199.5 100.352 199.5C100.439 199.5 100.525 199.5 100.612 199.5C100.699 199.5 100.786 199.5 100.873 199.5C100.96 199.5 101.047 199.5 101.134 199.5C101.221 199.5 101.308 199.5 101.396 199.5C101.483 199.5 101.57 199.5 101.658 199.5C101.745 199.5 101.833 199.5 101.92 199.5C102.008 199.5 102.095 199.5 102.183 199.5C102.271 199.5 102.359 199.5 102.446 199.5C102.534 199.5 102.622 199.5 102.71 199.5C102.798 199.5 102.886 199.5 102.974 199.5C103.062 199.5 103.151 199.5 103.239 199.5C103.327 199.5 103.416 199.5 103.504 199.5C103.592 199.5 103.681 199.5 103.769 199.5C103.858 199.5 103.947 199.5 104.035 199.5C104.124 199.5 104.213 199.5 104.302 199.5C104.39 199.5 104.479 199.5 104.568 199.5C104.657 199.5 104.746 199.5 104.835 199.5C104.924 199.5 105.014 199.5 105.103 199.5C105.192 199.5 105.281 199.5 105.371 199.5C105.46 199.5 105.549 199.5 105.639 199.5C105.728 199.5 105.818 199.5 105.907 199.5C105.997 199.5 106.087 199.5 106.176 199.5C106.266 199.5 106.356 199.5 106.446 199.5C106.536 199.5 106.626 199.5 106.716 199.5C106.805 199.5 106.896 199.5 106.986 199.5C107.076 199.5 107.166 199.5 107.256 199.5C107.346 199.5 107.437 199.5 107.527 199.5C107.617 199.5 107.708 199.5 107.798 199.5C107.888 199.5 107.979 199.5 108.07 199.5C108.16 199.5 108.251 199.5 108.341 199.5C108.432 199.5 108.523 199.5 108.614 199.5C108.704 199.5 108.795 199.5 108.886 199.5C108.977 199.5 109.068 199.5 109.159 199.5C109.25 199.5 109.341 199.5 109.432 199.5C109.523 199.5 109.614 199.5 109.706 199.5C109.797 199.5 109.888 199.5 109.98 199.5C110.071 199.5 110.162 199.5 110.254 199.5C110.345 199.5 110.437 199.5 110.528 199.5C110.62 199.5 110.711 199.5 110.803 199.5C110.895 199.5 110.986 199.5 111.078 199.5C111.17 199.5 111.262 199.5 111.353 199.5C111.445 199.5 111.537 199.5 111.629 199.5C111.721 199.5 111.813 199.5 111.905 199.5C111.997 199.5 112.089 199.5 112.181 199.5C112.273 199.5 112.366 199.5 112.458 199.5C112.55 199.5 112.642 199.5 112.735 199.5C112.827 199.5 112.919 199.5 113.012 199.5C113.104 199.5 113.197 199.5 113.289 199.5C113.382 199.5 113.474 199.5 113.567 199.5C113.659 199.5 113.752 199.5 113.845 199.5C113.937 199.5 114.03 199.5 114.123 199.5C114.216 199.5 114.308 199.5 114.401 199.5C114.494 199.5 114.587 199.5 114.68 199.5C114.773 199.5 114.866 199.5 114.959 199.5C115.052 199.5 115.145 199.5 115.238 199.5C115.331 199.5 115.424 199.5 115.517 199.5C115.61 199.5 115.704 199.5 115.797 199.5C115.89 199.5 115.983 199.5 116.077 199.5C116.17 199.5 116.263 199.5 116.357 199.5C116.45 199.5 116.544 199.5 116.637 199.5C116.731 199.5 116.824 199.5 116.918 199.5C117.011 199.5 117.105 199.5 117.198 199.5C117.292 199.5 117.386 199.5 117.479 199.5C117.573 199.5 117.667 199.5 117.761 199.5C117.854 199.5 117.948 199.5 118.042 199.5C118.136 199.5 118.23 199.5 118.323 199.5C118.417 199.5 118.511 199.5 118.605 199.5C118.699 199.5 118.793 199.5 118.887 199.5C118.981 199.5 119.075 199.5 119.169 199.5C119.263 199.5 119.358 199.5 119.452 199.5C119.546 199.5 119.64 199.5 119.734 199.5C119.828 199.5 119.923 199.5 120.017 199.5C120.111 199.5 120.205 199.5 120.3 199.5C120.394 199.5 120.488 199.5 120.583 199.5C120.677 199.5 120.771 199.5 120.866 199.5C120.96 199.5 121.055 199.5 121.149 199.5C121.244 199.5 121.338 199.5 121.433 199.5C121.527 199.5 121.622 199.5 121.716 199.5C121.811 199.5 121.906 199.5 122 199.5C122.095 199.5 122.189 199.5 122.284 199.5C122.379 199.5 122.473 199.5 122.568 199.5C122.663 199.5 122.758 199.5 122.852 199.5C122.947 199.5 123.042 199.5 123.137 199.5C123.231 199.5 123.326 199.5 123.421 199.5C123.516 199.5 123.611 199.5 123.706 199.5C123.801 199.5 123.895 199.5 123.99 199.5C124.085 199.5 124.18 199.5 124.275 199.5C124.37 199.5 124.465 199.5 124.56 199.5C124.655 199.5 124.75 199.5 124.845 199.5C124.94 199.5 125.035 199.5 125.13 199.5C125.225 199.5 125.32 199.5 125.416 199.5C125.511 199.5 125.606 199.5 125.701 199.5C125.796 199.5 125.891 199.5 125.986 199.5C126.081 199.5 126.177 199.5 126.272 199.5C126.367 199.5 126.462 199.5 126.557 199.5C126.653 199.5 126.748 199.5 126.843 199.5C126.938 199.5 127.033 199.5 127.129 199.5C127.224 199.5 127.319 199.5 127.415 199.5C127.51 199.5 127.605 199.5 127.7 199.5C127.796 199.5 127.891 199.5 127.986 199.5C128.082 199.5 128.177 199.5 128.272 199.5C128.368 199.5 128.463 199.5 128.558 199.5C128.654 199.5 128.749 199.5 128.844 199.5C128.94 199.5 129.035 199.5 129.131 199.5C129.226 199.5 129.321 199.5 129.417 199.5C129.512 199.5 129.608 199.5 129.703 199.5C129.798 199.5 129.894 199.5 129.989 199.5C130.085 199.5 130.18 199.5 130.276 199.5C130.371 199.5 130.466 199.5 130.562 199.5C130.657 199.5 130.753 199.5 130.848 199.5C130.944 199.5 131.039 199.5 131.135 199.5C131.23 199.5 131.325 199.5 131.421 199.5C131.516 199.5 131.612 199.5 131.707 199.5C131.803 199.5 131.898 199.5 131.994 199.5C132.089 199.5 132.185 199.5 132.28 199.5C132.375 199.5 132.471 199.5 132.566 199.5C132.662 199.5 132.757 199.5 132.853 199.5C132.948 199.5 133.044 199.5 133.139 199.5C133.235 199.5 133.33 199.5 133.425 199.5C133.521 199.5 133.616 199.5 133.712 199.5C133.807 199.5 133.903 199.5 133.998 199.5C134.093 199.5 134.189 199.5 134.284 199.5C134.38 199.5 134.475 199.5 134.571 199.5C134.666 199.5 134.761 199.5 134.857 199.5C134.952 199.5 135.048 199.5 135.143 199.5C135.238 199.5 135.334 199.5 135.429 199.5C135.524 199.5 135.62 199.5 135.715 199.5C135.81 199.5 135.906 199.5 136.001 199.5C136.097 199.5 136.192 199.5 136.287 199.5C136.382 199.5 136.478 199.5 136.573 199.5C136.668 199.5 136.764 199.5 136.859 199.5C136.954 199.5 137.049 199.5 137.145 199.5C137.24 199.5 137.335 199.5 137.43 199.5C137.526 199.5 137.621 199.5 137.716 199.5C137.811 199.5 137.906 199.5 138.002 199.5C138.097 199.5 138.192 199.5 138.287 199.5C138.382 199.5 138.477 199.5 138.572 199.5C138.668 199.5 138.763 199.5 138.858 199.5C138.953 199.5 139.048 199.5 139.143 199.5C139.238 199.5 139.333 199.5 139.428 199.5C139.523 199.5 139.618 199.5 139.713 199.5C139.808 199.5 139.903 199.5 139.998 199.5C140.093 199.5 140.188 199.5 140.283 199.5C140.378 199.5 140.472 199.5 140.567 199.5C140.662 199.5 140.757 199.5 140.852 199.5C140.947 199.5 141.041 199.5 141.136 199.5C141.231 199.5 141.326 199.5 141.421 199.5C141.515 199.5 141.61 199.5 141.705 199.5C141.799 199.5 141.894 199.5 141.989 199.5C142.083 199.5 142.178 199.5 142.273 199.5C142.367 199.5 142.462 199.5 142.556 199.5C142.651 199.5 142.745 199.5 142.84 199.5C142.934 199.5 143.029 199.5 143.123 199.5C143.218 199.5 143.312 199.5 143.407 199.5C143.501 199.5 143.595 199.5 143.69 199.5C143.784 199.5 143.878 199.5 143.973 199.5C144.067 199.5 144.161 199.5 144.255 199.5C144.35 199.5 144.444 199.5 144.538 199.5C144.632 199.5 144.726 199.5 144.821 199.5C144.915 199.5 145.009 199.5 145.103 199.5C145.197 199.5 145.291 199.5 145.385 199.5C145.479 199.5 145.573 199.5 145.667 199.5C145.761 199.5 145.855 199.5 145.948 199.5C146.042 199.5 146.136 199.5 146.23 199.5C146.324 199.5 146.417 199.5 146.511 199.5C146.605 199.5 146.699 199.5 146.792 199.5C146.886 199.5 146.98 199.5 147.073 199.5C147.167 199.5 147.26 199.5 147.354 199.5C147.447 199.5 147.541 199.5 147.634 199.5C147.728 199.5 147.821 199.5 147.915 199.5C148.008 199.5 148.101 199.5 148.195 199.5C148.288 199.5 148.381 199.5 148.474 199.5C148.568 199.5 148.661 199.5 148.754 199.5C148.847 199.5 148.94 199.5 149.033 199.5C149.126 199.5 149.219 199.5 149.312 199.5C149.405 199.5 149.498 199.5 149.591 199.5C149.684 199.5 149.777 199.5 149.87 199.5C149.962 199.5 150.055 199.5 150.148 199.5C150.241 199.5 150.333 199.5 150.426 199.5C150.519 199.5 150.611 199.5 150.704 199.5C150.796 199.5 150.889 199.5 150.981 199.5C151.074 199.5 151.166 199.5 151.259 199.5C151.351 199.5 151.443 199.5 151.536 199.5C151.628 199.5 151.72 199.5 151.812 199.5C151.905 199.5 151.997 199.5 152.089 199.5C152.181 199.5 152.273 199.5 152.365 199.5C152.457 199.5 152.549 199.5 152.641 199.5C152.733 199.5 152.825 199.5 152.916 199.5C153.008 199.5 153.1 199.5 153.192 199.5C153.283 199.5 153.375 199.5 153.467 199.5C153.558 199.5 153.65 199.5 153.741 199.5C153.833 199.5 153.924 199.5 154.016 199.5C154.107 199.5 154.198 199.5 154.29 199.5C154.381 199.5 154.472 199.5 154.563 199.5C154.655 199.5 154.746 199.5 154.837 199.5C154.928 199.5 155.019 199.5 155.11 199.5C155.201 199.5 155.292 199.5 155.383 199.5C155.473 199.5 155.564 199.5 155.655 199.5C155.746 199.5 155.836 199.5 155.927 199.5C156.018 199.5 156.108 199.5 156.199 199.5C156.289 199.5 156.38 199.5 156.47 199.5C156.561 199.5 156.651 199.5 156.741 199.5C156.832 199.5 156.922 199.5 157.012 199.5C157.102 199.5 157.192 199.5 157.282 199.5C157.372 199.5 157.462 199.5 157.552 199.5C157.642 199.5 157.732 199.5 157.822 199.5C157.912 199.5 158.001 199.5 158.091 199.5C158.181 199.5 158.27 199.5 158.36 199.5C158.449 199.5 158.539 199.5 158.628 199.5C158.718 199.5 158.807 199.5 158.896 199.5C158.986 199.5 159.075 199.5 159.164 199.5C159.253 199.5 159.342 199.5 159.431 199.5C159.52 199.5 159.609 199.5 159.698 199.5C159.787 199.5 159.876 199.5 159.965 199.5C160.054 199.5 160.142 199.5 160.231 199.5C160.32 199.5 160.408 199.5 160.497 199.5C160.585 199.5 160.674 199.5 160.762 199.5C160.85 199.5 160.939 199.5 161.027 199.5C161.115 199.5 161.203 199.5 161.291 199.5C161.379 199.5 161.467 199.5 161.555 199.5C161.643 199.5 161.731 199.5 161.819 199.5C161.907 199.5 161.995 199.5 162.082 199.5C162.17 199.5 162.257 199.5 162.345 199.5C162.433 199.5 162.52 199.5 162.607 199.5C162.695 199.5 162.782 199.5 162.869 199.5C162.956 199.5 163.044 199.5 163.131 199.5C163.218 199.5 163.305 199.5 163.392 199.5C163.479 199.5 163.565 199.5 163.652 199.5C163.739 199.5 163.826 199.5 163.912 199.5C163.999 199.5 164.085 199.5 164.172 199.5C164.258 199.5 164.345 199.5 164.431 199.5C164.517 199.5 164.603 199.5 164.69 199.5C164.776 199.5 164.862 199.5 164.948 199.5C165.034 199.5 165.12 199.5 165.205 199.5C165.291 199.5 165.377 199.5 165.463 199.5C165.548 199.5 165.634 199.5 165.719 199.5C165.805 199.5 165.89 199.5 165.976 199.5C166.061 199.5 166.146 199.5 166.231 199.5C166.317 199.5 166.402 199.5 166.487 199.5C166.572 199.5 166.657 199.5 166.741 199.5C166.826 199.5 166.911 199.5 166.996 199.5C167.08 199.5 167.165 199.5 167.249 199.5C167.334 199.5 167.418 199.5 167.503 199.5C167.587 199.5 167.671 199.5 167.755 199.5C167.839 199.5 167.924 199.5 168.007 199.5C168.091 199.5 168.175 199.5 168.259 199.5C168.343 199.5 168.427 199.5 168.51 199.5C168.594 199.5 168.677 199.5 168.761 199.5C168.844 199.5 168.928 199.5 169.011 199.5C169.094 199.5 169.177 199.5 169.26 199.5C169.343 199.5 169.426 199.5 169.509 199.5C169.592 199.5 169.675 199.5 169.758 199.5C169.84 199.5 169.923 199.5 170.006 199.5C170.088 199.5 170.17 199.5 170.253 199.5C170.335 199.5 170.417 199.5 170.5 199.5C170.582 199.5 170.664 199.5 170.746 199.5C170.828 199.5 170.909 199.5 170.991 199.5C171.073 199.5 171.155 199.5 171.236 199.5C171.318 199.5 171.399 199.5 171.481 199.5C171.562 199.5 171.643 199.5 171.724 199.5C171.806 199.5 171.887 199.5 171.968 199.5C172.049 199.5 172.13 199.5 172.21 199.5C172.291 199.5 172.372 199.5 172.452 199.5C172.533 199.5 172.614 199.5 172.694 199.5C172.774 199.5 172.855 199.5 172.935 199.5C173.015 199.5 173.095 199.5 173.175 199.5C173.255 199.5 173.335 199.5 173.415 199.5C173.494 199.5 173.574 199.5 173.654 199.5C173.733 199.5 173.813 199.5 173.892 199.5C173.971 199.5 174.051 199.5 174.13 199.5C174.209 199.5 174.288 199.5 174.367 199.5C174.446 199.5 174.525 199.5 174.603 199.5C174.682 199.5 174.761 199.5 174.839 199.5C174.918 199.5 174.996 199.5 175.075 199.5C175.153 199.5 175.231 199.5 175.309 199.5C175.387 199.5 175.465 199.5 175.543 199.5C175.621 199.5 175.699 199.5 175.776 199.5C175.854 199.5 175.932 199.5 176.009 199.5C176.086 199.5 176.164 199.5 176.241 199.5C176.318 199.5 176.395 199.5 176.472 199.5C176.549 199.5 176.626 199.5 176.703 199.5C176.78 199.5 176.856 199.5 176.933 199.5C177.009 199.5 177.086 199.5 177.162 199.5C177.239 199.5 177.315 199.5 177.391 199.5C177.467 199.5 177.543 199.5 177.619 199.5C177.695 199.5 177.77 199.5 177.846 199.5C177.922 199.5 177.997 199.5 178.073 199.5C178.148 199.5 178.223 199.5 178.298 199.5C178.374 199.5 178.449 199.5 178.524 199.5C178.598 199.5 178.673 199.5 178.748 199.5C178.823 199.5 178.897 199.5 178.972 199.5C179.046 199.5 179.12 199.5 179.195 199.5C179.269 199.5 179.343 199.5 179.417 199.5C179.491 199.5 179.565 199.5 179.639 199.5C179.712 199.5 179.786 199.5 179.859 199.5C179.933 199.5 180.006 199.5 180.08 199.5C180.153 199.5 180.226 199.5 180.299 199.5C180.372 199.5 180.445 199.5 180.518 199.5C180.59 199.5 180.663 199.5 180.735 199.5C180.808 199.5 180.88 199.5 180.953 199.5C181.025 199.5 181.097 199.5 181.169 199.5C181.241 199.5 181.313 199.5 181.385 199.5C181.456 199.5 181.528 199.5 181.6 199.5C181.671 199.5 181.743 199.5 181.814 199.5C181.885 199.5 181.956 199.5 182.027 199.5C182.098 199.5 182.169 199.5 182.24 199.5C182.31 199.5 182.381 199.5 182.452 199.5C182.522 199.5 182.592 199.5 182.663 199.5C182.733 199.5 182.803 199.5 182.873 199.5C182.943 199.5 183.013 199.5 183.082 199.5C183.152 199.5 183.222 199.5 183.291 199.5C183.361 199.5 183.43 199.5 183.499 199.5C183.568 199.5 183.637 199.5 183.706 199.5C183.775 199.5 183.844 199.5 183.912 199.5C183.981 199.5 184.05 199.5 184.118 199.5C184.186 199.5 184.254 199.5 184.323 199.5C184.391 199.5 184.459 199.5 184.526 199.5C184.594 199.5 184.662 199.5 184.73 199.5C184.797 199.5 184.864 199.5 184.932 199.5C184.999 199.5 185.066 199.5 185.133 199.5C185.2 199.5 185.267 199.5 185.334 199.5C185.4 199.5 185.467 199.5 185.533 199.5C185.6 199.5 185.666 199.5 185.732 199.5C185.799 199.5 185.865 199.5 185.93 199.5C185.996 199.5 186.062 199.5 186.128 199.5C186.193 199.5 186.259 199.5 186.324 199.5C186.389 199.5 186.455 199.5 186.52 199.5C186.585 199.5 186.649 199.5 186.714 199.5C186.779 199.5 186.844 199.5 186.908 199.5C186.972 199.5 187.037 199.5 187.101 199.5C187.165 199.5 187.229 199.5 187.293 199.5C187.357 199.5 187.421 199.5 187.484 199.5C187.548 199.5 187.611 199.5 187.674 199.5C187.738 199.5 187.801 199.5 187.864 199.5C187.927 199.5 187.99 199.5 188.052 199.5C188.115 199.5 188.178 199.5 188.24 199.5C188.302 199.5 188.365 199.5 188.427 199.5C188.489 199.5 188.551 199.5 188.613 199.5C188.674 199.5 188.736 199.5 188.798 199.5C188.859 199.5 188.92 199.5 188.982 199.5C189.043 199.5 189.104 199.5 189.165 199.5C189.226 199.5 189.286 199.5 189.347 199.5C189.407 199.5 189.468 199.5 189.528 199.5C189.588 199.5 189.649 199.5 189.709 199.5C189.769 199.5 189.828 199.5 189.888 199.5C189.948 199.5 190.007 199.5 190.067 199.5C190.126 199.5 190.185 199.5 190.244 199.5C190.303 199.5 190.362 199.5 190.421 199.5C190.479 199.5 190.538 199.5 190.596 199.5C190.655 199.5 190.713 199.5 190.771 199.5C190.829 199.5 190.887 199.5 190.945 199.5C191.003 199.5 191.06 199.5 191.118 199.5C191.175 199.5 191.233 199.5 191.29 199.5C191.347 199.5 191.404 199.5 191.461 199.5C191.517 199.5 191.574 199.5 191.631 199.5C191.687 199.5 191.743 199.5 191.799 199.5C191.856 199.5 191.912 199.5 191.967 199.5C192.023 199.5 192.079 199.5 192.134 199.5C192.19 199.5 192.245 199.5 192.301 199.5C192.356 199.5 192.411 199.5 192.466 199.5C192.52 199.5 192.575 199.5 192.63 199.5C192.684 199.5 192.739 199.5 192.793 199.5C192.847 199.5 192.901 199.5 192.955 199.5C193.009 199.5 193.062 199.5 193.116 199.5C193.169 199.5 193.223 199.5 193.276 199.5C193.329 199.5 193.382 199.5 193.435 199.5C193.488 199.5 193.54 199.5 193.593 199.5C193.645 199.5 193.698 199.5 193.75 199.5C193.802 199.5 193.854 199.5 193.906 199.5C193.958 199.5 194.009 199.5 194.061 199.5C194.112 199.5 194.164 199.5 194.215 199.5C194.266 199.5 194.317 199.5 194.368 199.5C194.418 199.5 194.469 199.5 194.519 199.5C194.57 199.5 194.62 199.5 194.67 199.5C194.72 199.5 194.77 199.5 194.82 199.5C194.87 199.5 194.919 199.5 194.969 199.5C195.018 199.5 195.067 199.5 195.116 199.5C195.165 199.5 195.214 199.5 195.263 199.5C195.312 199.5 195.36 199.5 195.408 199.5C195.457 199.5 195.505 199.5 195.553 199.5C195.601 199.5 195.649 199.5 195.696 199.5C195.744 199.5 195.791 199.5 195.839 199.5C195.886 199.5 195.933 199.5 195.98 199.5C196.027 199.5 196.073 199.5 196.12 199.5C196.166 199.5 196.213 199.5 196.259 199.5C196.305 199.5 196.351 199.5 196.397 199.5C196.443 199.5 196.488 199.5 196.534 199.5C196.579 199.5 196.624 199.5 196.67 199.5C196.715 199.5 196.759 199.5 196.804 199.5C196.849 199.5 196.893 199.5 196.938 199.5C196.982 199.5 197.026 199.5 197.07 199.5C197.114 199.5 197.158 199.5 197.201 199.5C197.245 199.5 197.288 199.5 197.332 199.5C197.375 199.5 197.418 199.5 197.461 199.5C197.504 199.5 197.546 199.5 197.589 199.5C197.631 199.5 197.673 199.5 197.715 199.5C197.758 199.5 197.799 199.5 197.841 199.5C197.883 199.5 197.924 199.5 197.966 199.5C198.007 199.5 198.048 199.5 198.089 199.5C198.13 199.5 198.171 199.5 198.211 199.5C198.252 199.5 198.292 199.5 198.332 199.5C198.372 199.5 198.412 199.5 198.452 199.5C198.492 199.5 198.532 199.5 198.571 199.5C198.61 199.5 198.65 199.5 198.689 199.5C198.728 199.5 198.766 199.5 198.805 199.5C198.844 199.5 198.882 199.5 198.92 199.5C198.958 199.5 198.997 199.5 199.034 199.5C199.072 199.5 199.11 199.5 199.147 199.5C199.185 199.5 199.222 199.5 199.259 199.5C199.296 199.5 199.333 199.5 199.369 199.5C199.406 199.5 199.443 199.5 199.479 199.5C199.515 199.5 199.551 199.5 199.587 199.5C199.623 199.5 199.658 199.5 199.694 199.5C199.729 199.5 199.765 199.5 199.8 199.5C199.835 199.5 199.869 199.5 199.904 199.5C199.939 199.5 199.973 199.5 200.007 199.5C200.042 199.5 200.076 199.5 200.109 199.5C200.143 199.5 200.177 199.5 200.21 199.5C200.244 199.5 200.277 199.5 200.31 199.5C200.343 199.5 200.376 199.5 200.408 199.5C200.441 199.5 200.473 199.5 200.505 199.5C200.538 199.5 200.57 199.5 200.601 199.5C200.633 199.5 200.665 199.5 200.696 199.5C200.727 199.5 200.759 199.5 200.79 199.5C200.82 199.5 200.851 199.5 200.882 199.5C200.912 199.5 200.943 199.5 200.973 199.5C201.003 199.5 201.033 199.5 201.062 199.5C201.092 199.5 201.121 199.5 201.151 199.5C201.18 199.5 201.209 199.5 201.238 199.5C201.267 199.5 201.295 199.5 201.324 199.5C201.352 199.5 201.38 199.5 201.408 199.5C201.436 199.5 201.464 199.5 201.492 199.5C201.519 199.5 201.547 199.5 201.574 199.5C201.601 199.5 201.628 199.5 201.654 199.5C201.681 199.5 201.708 199.5 201.734 199.5C201.76 199.5 201.786 199.5 201.812 199.5C201.838 199.5 201.864 199.5 201.889 199.5C201.914 199.5 201.94 199.5 201.965 199.5C201.99 199.5 202.014 199.5 202.039 199.5C202.063 199.5 202.088 199.5 202.112 199.5C202.136 199.5 202.16 199.5 202.183 199.5C202.207 199.5 202.231 199.5 202.254 199.5C202.277 199.5 202.3 199.5 202.323 199.5C202.346 199.5 202.368 199.5 202.39 199.5C202.413 199.5 202.435 199.5 202.457 199.5C202.479 199.5 202.5 199.5 202.522 199.5C202.543 199.5 202.564 199.5 202.585 199.5C202.606 199.5 202.627 199.5 202.648 199.5C202.668 199.5 202.689 199.5 202.709 199.5C202.729 199.5 202.749 199.5 202.768 199.5C202.788 199.5 202.807 199.5 202.827 199.5C202.846 199.5 202.865 199.5 202.884 199.5C202.902 199.5 202.921 199.5 202.939 199.5C202.957 199.5 202.975 199.5 202.993 199.5C203.011 199.5 203.029 199.5 203.046 199.5C203.063 199.5 203.081 199.5 203.098 199.5C203.114 199.5 203.131 199.5 203.148 199.5C203.164 199.5 203.18 199.5 203.196 199.5C203.212 199.5 203.228 199.5 203.244 199.5C203.259 199.5 203.274 199.5 203.289 199.5C203.304 199.5 203.319 199.5 203.334 199.5C203.349 199.5 203.363 199.5 203.377 199.5C203.391 199.5 203.405 199.5 203.419 199.5C203.432 199.5 203.446 199.5 203.459 199.5C203.472 199.5 203.485 199.5 203.498 199.5C203.511 199.5 203.523 199.5 203.535 199.5C203.548 199.5 203.56 199.5 203.571 199.5C203.583 199.5 203.595 199.5 203.606 199.5C203.617 199.5 203.628 199.5 203.639 199.5C203.65 199.5 203.661 199.5 203.671 199.5C203.681 199.5 203.691 199.5 203.701 199.5C203.711 199.5 203.721 199.5 203.73 199.5C203.74 199.5 203.749 199.5 203.758 199.5C203.767 199.5 203.775 199.5 203.784 199.5C203.792 199.5 203.8 199.5 203.808 199.5C203.816 199.5 203.824 199.5 203.831 199.5C203.839 199.5 203.846 199.5 203.853 199.5C203.86 199.5 203.867 199.5 203.873 199.5C203.879 199.5 203.886 199.5 203.892 199.5C203.898 199.5 203.903 199.5 203.909 199.5C203.914 199.5 203.92 199.5 203.925 199.5C203.93 199.5 203.934 199.5 203.939 199.5C203.943 199.5 203.948 199.5 203.952 199.5C203.956 199.5 203.959 199.5 203.963 199.5C203.966 199.5 203.97 199.5 203.973 199.5C203.976 199.5 203.979 199.5 203.981 199.5C203.984 199.5 203.986 199.5 203.988 199.5C203.99 199.5 203.992 199.5 203.993 199.5C203.995 199.5 203.996 199.5 203.997 199.5C203.998 199.5 203.999 199.5 203.999 199.5C204 199.5 204 199.5 204 199C204 198.5 204 198.5 203.999 198.5C203.999 198.5 203.998 198.5 203.997 198.5C203.996 198.5 203.995 198.5 203.993 198.5C203.992 198.5 203.99 198.5 203.988 198.5C203.986 198.5 203.984 198.5 203.981 198.5C203.979 198.5 203.976 198.5 203.973 198.5C203.97 198.5 203.966 198.5 203.963 198.5C203.959 198.5 203.956 198.5 203.952 198.5C203.948 198.5 203.943 198.5 203.939 198.5C203.934 198.5 203.93 198.5 203.925 198.5C203.92 198.5 203.914 198.5 203.909 198.5C203.903 198.5 203.898 198.5 203.892 198.5C203.886 198.5 203.879 198.5 203.873 198.5C203.867 198.5 203.86 198.5 203.853 198.5C203.846 198.5 203.839 198.5 203.831 198.5C203.824 198.5 203.816 198.5 203.808 198.5C203.8 198.5 203.792 198.5 203.784 198.5C203.775 198.5 203.767 198.5 203.758 198.5C203.749 198.5 203.74 198.5 203.73 198.5C203.721 198.5 203.711 198.5 203.701 198.5C203.691 198.5 203.681 198.5 203.671 198.5C203.661 198.5 203.65 198.5 203.639 198.5C203.628 198.5 203.617 198.5 203.606 198.5C203.595 198.5 203.583 198.5 203.571 198.5C203.56 198.5 203.548 198.5 203.535 198.5C203.523 198.5 203.511 198.5 203.498 198.5C203.485 198.5 203.472 198.5 203.459 198.5C203.446 198.5 203.432 198.5 203.419 198.5C203.405 198.5 203.391 198.5 203.377 198.5C203.363 198.5 203.349 198.5 203.334 198.5C203.319 198.5 203.304 198.5 203.289 198.5C203.274 198.5 203.259 198.5 203.244 198.5C203.228 198.5 203.212 198.5 203.196 198.5C203.18 198.5 203.164 198.5 203.148 198.5C203.131 198.5 203.114 198.5 203.098 198.5C203.081 198.5 203.063 198.5 203.046 198.5C203.029 198.5 203.011 198.5 202.993 198.5C202.975 198.5 202.957 198.5 202.939 198.5C202.921 198.5 202.902 198.5 202.884 198.5C202.865 198.5 202.846 198.5 202.827 198.5C202.807 198.5 202.788 198.5 202.768 198.5C202.749 198.5 202.729 198.5 202.709 198.5C202.689 198.5 202.668 198.5 202.648 198.5C202.627 198.5 202.606 198.5 202.585 198.5C202.564 198.5 202.543 198.5 202.522 198.5C202.5 198.5 202.479 198.5 202.457 198.5C202.435 198.5 202.413 198.5 202.39 198.5C202.368 198.5 202.346 198.5 202.323 198.5C202.3 198.5 202.277 198.5 202.254 198.5C202.231 198.5 202.207 198.5 202.183 198.5C202.16 198.5 202.136 198.5 202.112 198.5C202.088 198.5 202.063 198.5 202.039 198.5C202.014 198.5 201.99 198.5 201.965 198.5C201.94 198.5 201.914 198.5 201.889 198.5C201.864 198.5 201.838 198.5 201.812 198.5C201.786 198.5 201.76 198.5 201.734 198.5C201.708 198.5 201.681 198.5 201.654 198.5C201.628 198.5 201.601 198.5 201.574 198.5C201.547 198.5 201.519 198.5 201.492 198.5C201.464 198.5 201.436 198.5 201.408 198.5C201.38 198.5 201.352 198.5 201.324 198.5C201.295 198.5 201.267 198.5 201.238 198.5C201.209 198.5 201.18 198.5 201.151 198.5C201.121 198.5 201.092 198.5 201.062 198.5C201.033 198.5 201.003 198.5 200.973 198.5C200.943 198.5 200.912 198.5 200.882 198.5C200.851 198.5 200.82 198.5 200.79 198.5C200.759 198.5 200.727 198.5 200.696 198.5C200.665 198.5 200.633 198.5 200.601 198.5C200.57 198.5 200.538 198.5 200.505 198.5C200.473 198.5 200.441 198.5 200.408 198.5C200.376 198.5 200.343 198.5 200.31 198.5C200.277 198.5 200.244 198.5 200.21 198.5C200.177 198.5 200.143 198.5 200.109 198.5C200.076 198.5 200.042 198.5 200.007 198.5C199.973 198.5 199.939 198.5 199.904 198.5C199.869 198.5 199.835 198.5 199.8 198.5C199.765 198.5 199.729 198.5 199.694 198.5C199.658 198.5 199.623 198.5 199.587 198.5C199.551 198.5 199.515 198.5 199.479 198.5C199.443 198.5 199.406 198.5 199.369 198.5C199.333 198.5 199.296 198.5 199.259 198.5C199.222 198.5 199.185 198.5 199.147 198.5C199.11 198.5 199.072 198.5 199.034 198.5C198.997 198.5 198.958 198.5 198.92 198.5C198.882 198.5 198.844 198.5 198.805 198.5C198.766 198.5 198.728 198.5 198.689 198.5C198.65 198.5 198.61 198.5 198.571 198.5C198.532 198.5 198.492 198.5 198.452 198.5C198.412 198.5 198.372 198.5 198.332 198.5C198.292 198.5 198.252 198.5 198.211 198.5C198.171 198.5 198.13 198.5 198.089 198.5C198.048 198.5 198.007 198.5 197.966 198.5C197.924 198.5 197.883 198.5 197.841 198.5C197.799 198.5 197.758 198.5 197.715 198.5C197.673 198.5 197.631 198.5 197.589 198.5C197.546 198.5 197.504 198.5 197.461 198.5C197.418 198.5 197.375 198.5 197.332 198.5C197.288 198.5 197.245 198.5 197.201 198.5C197.158 198.5 197.114 198.5 197.07 198.5C197.026 198.5 196.982 198.5 196.938 198.5C196.893 198.5 196.849 198.5 196.804 198.5C196.759 198.5 196.715 198.5 196.67 198.5C196.624 198.5 196.579 198.5 196.534 198.5C196.488 198.5 196.443 198.5 196.397 198.5C196.351 198.5 196.305 198.5 196.259 198.5C196.213 198.5 196.166 198.5 196.12 198.5C196.073 198.5 196.027 198.5 195.98 198.5C195.933 198.5 195.886 198.5 195.839 198.5C195.791 198.5 195.744 198.5 195.696 198.5C195.649 198.5 195.601 198.5 195.553 198.5C195.505 198.5 195.457 198.5 195.408 198.5C195.36 198.5 195.312 198.5 195.263 198.5C195.214 198.5 195.165 198.5 195.116 198.5C195.067 198.5 195.018 198.5 194.969 198.5C194.919 198.5 194.87 198.5 194.82 198.5C194.77 198.5 194.72 198.5 194.67 198.5C194.62 198.5 194.57 198.5 194.519 198.5C194.469 198.5 194.418 198.5 194.368 198.5C194.317 198.5 194.266 198.5 194.215 198.5C194.164 198.5 194.112 198.5 194.061 198.5C194.009 198.5 193.958 198.5 193.906 198.5C193.854 198.5 193.802 198.5 193.75 198.5C193.698 198.5 193.645 198.5 193.593 198.5C193.54 198.5 193.488 198.5 193.435 198.5C193.382 198.5 193.329 198.5 193.276 198.5C193.223 198.5 193.169 198.5 193.116 198.5C193.062 198.5 193.009 198.5 192.955 198.5C192.901 198.5 192.847 198.5 192.793 198.5C192.739 198.5 192.684 198.5 192.63 198.5C192.575 198.5 192.52 198.5 192.466 198.5C192.411 198.5 192.356 198.5 192.301 198.5C192.245 198.5 192.19 198.5 192.134 198.5C192.079 198.5 192.023 198.5 191.967 198.5C191.912 198.5 191.856 198.5 191.799 198.5C191.743 198.5 191.687 198.5 191.631 198.5C191.574 198.5 191.517 198.5 191.461 198.5C191.404 198.5 191.347 198.5 191.29 198.5C191.233 198.5 191.175 198.5 191.118 198.5C191.06 198.5 191.003 198.5 190.945 198.5C190.887 198.5 190.829 198.5 190.771 198.5C190.713 198.5 190.655 198.5 190.596 198.5C190.538 198.5 190.479 198.5 190.421 198.5C190.362 198.5 190.303 198.5 190.244 198.5C190.185 198.5 190.126 198.5 190.067 198.5C190.007 198.5 189.948 198.5 189.888 198.5C189.828 198.5 189.769 198.5 189.709 198.5C189.649 198.5 189.588 198.5 189.528 198.5C189.468 198.5 189.407 198.5 189.347 198.5C189.286 198.5 189.226 198.5 189.165 198.5C189.104 198.5 189.043 198.5 188.982 198.5C188.92 198.5 188.859 198.5 188.798 198.5C188.736 198.5 188.674 198.5 188.613 198.5C188.551 198.5 188.489 198.5 188.427 198.5C188.365 198.5 188.302 198.5 188.24 198.5C188.178 198.5 188.115 198.5 188.052 198.5C187.99 198.5 187.927 198.5 187.864 198.5C187.801 198.5 187.738 198.5 187.674 198.5C187.611 198.5 187.548 198.5 187.484 198.5C187.421 198.5 187.357 198.5 187.293 198.5C187.229 198.5 187.165 198.5 187.101 198.5C187.037 198.5 186.972 198.5 186.908 198.5C186.844 198.5 186.779 198.5 186.714 198.5C186.649 198.5 186.585 198.5 186.52 198.5C186.455 198.5 186.389 198.5 186.324 198.5C186.259 198.5 186.193 198.5 186.128 198.5C186.062 198.5 185.996 198.5 185.93 198.5C185.865 198.5 185.799 198.5 185.732 198.5C185.666 198.5 185.6 198.5 185.533 198.5C185.467 198.5 185.4 198.5 185.334 198.5C185.267 198.5 185.2 198.5 185.133 198.5C185.066 198.5 184.999 198.5 184.932 198.5C184.864 198.5 184.797 198.5 184.73 198.5C184.662 198.5 184.594 198.5 184.526 198.5C184.459 198.5 184.391 198.5 184.323 198.5C184.254 198.5 184.186 198.5 184.118 198.5C184.05 198.5 183.981 198.5 183.912 198.5C183.844 198.5 183.775 198.5 183.706 198.5C183.637 198.5 183.568 198.5 183.499 198.5C183.43 198.5 183.361 198.5 183.291 198.5C183.222 198.5 183.152 198.5 183.082 198.5C183.013 198.5 182.943 198.5 182.873 198.5C182.803 198.5 182.733 198.5 182.663 198.5C182.592 198.5 182.522 198.5 182.452 198.5C182.381 198.5 182.31 198.5 182.24 198.5C182.169 198.5 182.098 198.5 182.027 198.5C181.956 198.5 181.885 198.5 181.814 198.5C181.743 198.5 181.671 198.5 181.6 198.5C181.528 198.5 181.456 198.5 181.385 198.5C181.313 198.5 181.241 198.5 181.169 198.5C181.097 198.5 181.025 198.5 180.953 198.5C180.88 198.5 180.808 198.5 180.735 198.5C180.663 198.5 180.59 198.5 180.518 198.5C180.445 198.5 180.372 198.5 180.299 198.5C180.226 198.5 180.153 198.5 180.08 198.5C180.006 198.5 179.933 198.5 179.859 198.5C179.786 198.5 179.712 198.5 179.639 198.5C179.565 198.5 179.491 198.5 179.417 198.5C179.343 198.5 179.269 198.5 179.195 198.5C179.12 198.5 179.046 198.5 178.972 198.5C178.897 198.5 178.823 198.5 178.748 198.5C178.673 198.5 178.598 198.5 178.524 198.5C178.449 198.5 178.374 198.5 178.298 198.5C178.223 198.5 178.148 198.5 178.073 198.5C177.997 198.5 177.922 198.5 177.846 198.5C177.77 198.5 177.695 198.5 177.619 198.5C177.543 198.5 177.467 198.5 177.391 198.5C177.315 198.5 177.239 198.5 177.162 198.5C177.086 198.5 177.009 198.5 176.933 198.5C176.856 198.5 176.78 198.5 176.703 198.5C176.626 198.5 176.549 198.5 176.472 198.5C176.395 198.5 176.318 198.5 176.241 198.5C176.164 198.5 176.086 198.5 176.009 198.5C175.932 198.5 175.854 198.5 175.776 198.5C175.699 198.5 175.621 198.5 175.543 198.5C175.465 198.5 175.387 198.5 175.309 198.5C175.231 198.5 175.153 198.5 175.075 198.5C174.996 198.5 174.918 198.5 174.839 198.5C174.761 198.5 174.682 198.5 174.603 198.5C174.525 198.5 174.446 198.5 174.367 198.5C174.288 198.5 174.209 198.5 174.13 198.5C174.051 198.5 173.971 198.5 173.892 198.5C173.813 198.5 173.733 198.5 173.654 198.5C173.574 198.5 173.494 198.5 173.415 198.5C173.335 198.5 173.255 198.5 173.175 198.5C173.095 198.5 173.015 198.5 172.935 198.5C172.855 198.5 172.774 198.5 172.694 198.5C172.614 198.5 172.533 198.5 172.452 198.5C172.372 198.5 172.291 198.5 172.21 198.5C172.13 198.5 172.049 198.5 171.968 198.5C171.887 198.5 171.806 198.5 171.724 198.5C171.643 198.5 171.562 198.5 171.481 198.5C171.399 198.5 171.318 198.5 171.236 198.5C171.155 198.5 171.073 198.5 170.991 198.5C170.909 198.5 170.828 198.5 170.746 198.5C170.664 198.5 170.582 198.5 170.5 198.5C170.417 198.5 170.335 198.5 170.253 198.5C170.17 198.5 170.088 198.5 170.006 198.5C169.923 198.5 169.84 198.5 169.758 198.5C169.675 198.5 169.592 198.5 169.509 198.5C169.426 198.5 169.343 198.5 169.26 198.5C169.177 198.5 169.094 198.5 169.011 198.5C168.928 198.5 168.844 198.5 168.761 198.5C168.677 198.5 168.594 198.5 168.51 198.5C168.427 198.5 168.343 198.5 168.259 198.5C168.175 198.5 168.091 198.5 168.007 198.5C167.924 198.5 167.839 198.5 167.755 198.5C167.671 198.5 167.587 198.5 167.503 198.5C167.418 198.5 167.334 198.5 167.249 198.5C167.165 198.5 167.08 198.5 166.996 198.5C166.911 198.5 166.826 198.5 166.741 198.5C166.657 198.5 166.572 198.5 166.487 198.5C166.402 198.5 166.317 198.5 166.231 198.5C166.146 198.5 166.061 198.5 165.976 198.5C165.89 198.5 165.805 198.5 165.719 198.5C165.634 198.5 165.548 198.5 165.463 198.5C165.377 198.5 165.291 198.5 165.205 198.5C165.12 198.5 165.034 198.5 164.948 198.5C164.862 198.5 164.776 198.5 164.69 198.5C164.603 198.5 164.517 198.5 164.431 198.5C164.345 198.5 164.258 198.5 164.172 198.5C164.085 198.5 163.999 198.5 163.912 198.5C163.826 198.5 163.739 198.5 163.652 198.5C163.565 198.5 163.479 198.5 163.392 198.5C163.305 198.5 163.218 198.5 163.131 198.5C163.044 198.5 162.956 198.5 162.869 198.5C162.782 198.5 162.695 198.5 162.607 198.5C162.52 198.5 162.433 198.5 162.345 198.5C162.257 198.5 162.17 198.5 162.082 198.5C161.995 198.5 161.907 198.5 161.819 198.5C161.731 198.5 161.643 198.5 161.555 198.5C161.467 198.5 161.379 198.5 161.291 198.5C161.203 198.5 161.115 198.5 161.027 198.5C160.939 198.5 160.85 198.5 160.762 198.5C160.674 198.5 160.585 198.5 160.497 198.5C160.408 198.5 160.32 198.5 160.231 198.5C160.142 198.5 160.054 198.5 159.965 198.5C159.876 198.5 159.787 198.5 159.698 198.5C159.609 198.5 159.52 198.5 159.431 198.5C159.342 198.5 159.253 198.5 159.164 198.5C159.075 198.5 158.986 198.5 158.896 198.5C158.807 198.5 158.718 198.5 158.628 198.5C158.539 198.5 158.449 198.5 158.36 198.5C158.27 198.5 158.181 198.5 158.091 198.5C158.001 198.5 157.912 198.5 157.822 198.5C157.732 198.5 157.642 198.5 157.552 198.5C157.462 198.5 157.372 198.5 157.282 198.5C157.192 198.5 157.102 198.5 157.012 198.5C156.922 198.5 156.832 198.5 156.741 198.5C156.651 198.5 156.561 198.5 156.47 198.5C156.38 198.5 156.289 198.5 156.199 198.5C156.108 198.5 156.018 198.5 155.927 198.5C155.836 198.5 155.746 198.5 155.655 198.5C155.564 198.5 155.473 198.5 155.383 198.5C155.292 198.5 155.201 198.5 155.11 198.5C155.019 198.5 154.928 198.5 154.837 198.5C154.746 198.5 154.655 198.5 154.563 198.5C154.472 198.5 154.381 198.5 154.29 198.5C154.198 198.5 154.107 198.5 154.016 198.5C153.924 198.5 153.833 198.5 153.741 198.5C153.65 198.5 153.558 198.5 153.467 198.5C153.375 198.5 153.283 198.5 153.192 198.5C153.1 198.5 153.008 198.5 152.916 198.5C152.825 198.5 152.733 198.5 152.641 198.5C152.549 198.5 152.457 198.5 152.365 198.5C152.273 198.5 152.181 198.5 152.089 198.5C151.997 198.5 151.905 198.5 151.812 198.5C151.72 198.5 151.628 198.5 151.536 198.5C151.443 198.5 151.351 198.5 151.259 198.5C151.166 198.5 151.074 198.5 150.981 198.5C150.889 198.5 150.796 198.5 150.704 198.5C150.611 198.5 150.519 198.5 150.426 198.5C150.333 198.5 150.241 198.5 150.148 198.5C150.055 198.5 149.962 198.5 149.87 198.5C149.777 198.5 149.684 198.5 149.591 198.5C149.498 198.5 149.405 198.5 149.312 198.5C149.219 198.5 149.126 198.5 149.033 198.5C148.94 198.5 148.847 198.5 148.754 198.5C148.661 198.5 148.568 198.5 148.474 198.5C148.381 198.5 148.288 198.5 148.195 198.5C148.101 198.5 148.008 198.5 147.915 198.5C147.821 198.5 147.728 198.5 147.634 198.5C147.541 198.5 147.447 198.5 147.354 198.5C147.26 198.5 147.167 198.5 147.073 198.5C146.98 198.5 146.886 198.5 146.792 198.5C146.699 198.5 146.605 198.5 146.511 198.5C146.417 198.5 146.324 198.5 146.23 198.5C146.136 198.5 146.042 198.5 145.948 198.5C145.855 198.5 145.761 198.5 145.667 198.5C145.573 198.5 145.479 198.5 145.385 198.5C145.291 198.5 145.197 198.5 145.103 198.5C145.009 198.5 144.915 198.5 144.821 198.5C144.726 198.5 144.632 198.5 144.538 198.5C144.444 198.5 144.35 198.5 144.255 198.5C144.161 198.5 144.067 198.5 143.973 198.5C143.878 198.5 143.784 198.5 143.69 198.5C143.595 198.5 143.501 198.5 143.407 198.5C143.312 198.5 143.218 198.5 143.123 198.5C143.029 198.5 142.934 198.5 142.84 198.5C142.745 198.5 142.651 198.5 142.556 198.5C142.462 198.5 142.367 198.5 142.273 198.5C142.178 198.5 142.083 198.5 141.989 198.5C141.894 198.5 141.799 198.5 141.705 198.5C141.61 198.5 141.515 198.5 141.421 198.5C141.326 198.5 141.231 198.5 141.136 198.5C141.041 198.5 140.947 198.5 140.852 198.5C140.757 198.5 140.662 198.5 140.567 198.5C140.472 198.5 140.378 198.5 140.283 198.5C140.188 198.5 140.093 198.5 139.998 198.5C139.903 198.5 139.808 198.5 139.713 198.5C139.618 198.5 139.523 198.5 139.428 198.5C139.333 198.5 139.238 198.5 139.143 198.5C139.048 198.5 138.953 198.5 138.858 198.5C138.763 198.5 138.668 198.5 138.572 198.5C138.477 198.5 138.382 198.5 138.287 198.5C138.192 198.5 138.097 198.5 138.002 198.5C137.906 198.5 137.811 198.5 137.716 198.5C137.621 198.5 137.526 198.5 137.43 198.5C137.335 198.5 137.24 198.5 137.145 198.5C137.049 198.5 136.954 198.5 136.859 198.5C136.764 198.5 136.668 198.5 136.573 198.5C136.478 198.5 136.382 198.5 136.287 198.5C136.192 198.5 136.097 198.5 136.001 198.5C135.906 198.5 135.81 198.5 135.715 198.5C135.62 198.5 135.524 198.5 135.429 198.5C135.334 198.5 135.238 198.5 135.143 198.5C135.048 198.5 134.952 198.5 134.857 198.5C134.761 198.5 134.666 198.5 134.571 198.5C134.475 198.5 134.38 198.5 134.284 198.5C134.189 198.5 134.093 198.5 133.998 198.5C133.903 198.5 133.807 198.5 133.712 198.5C133.616 198.5 133.521 198.5 133.425 198.5C133.33 198.5 133.235 198.5 133.139 198.5C133.044 198.5 132.948 198.5 132.853 198.5C132.757 198.5 132.662 198.5 132.566 198.5C132.471 198.5 132.375 198.5 132.28 198.5C132.185 198.5 132.089 198.5 131.994 198.5C131.898 198.5 131.803 198.5 131.707 198.5C131.612 198.5 131.516 198.5 131.421 198.5C131.325 198.5 131.23 198.5 131.135 198.5C131.039 198.5 130.944 198.5 130.848 198.5C130.753 198.5 130.657 198.5 130.562 198.5C130.466 198.5 130.371 198.5 130.276 198.5C130.18 198.5 130.085 198.5 129.989 198.5C129.894 198.5 129.798 198.5 129.703 198.5C129.608 198.5 129.512 198.5 129.417 198.5C129.321 198.5 129.226 198.5 129.131 198.5C129.035 198.5 128.94 198.5 128.844 198.5C128.749 198.5 128.654 198.5 128.558 198.5C128.463 198.5 128.368 198.5 128.272 198.5C128.177 198.5 128.082 198.5 127.986 198.5C127.891 198.5 127.796 198.5 127.7 198.5C127.605 198.5 127.51 198.5 127.415 198.5C127.319 198.5 127.224 198.5 127.129 198.5C127.033 198.5 126.938 198.5 126.843 198.5C126.748 198.5 126.653 198.5 126.557 198.5C126.462 198.5 126.367 198.5 126.272 198.5C126.177 198.5 126.081 198.5 125.986 198.5C125.891 198.5 125.796 198.5 125.701 198.5C125.606 198.5 125.511 198.5 125.416 198.5C125.32 198.5 125.225 198.5 125.13 198.5C125.035 198.5 124.94 198.5 124.845 198.5C124.75 198.5 124.655 198.5 124.56 198.5C124.465 198.5 124.37 198.5 124.275 198.5C124.18 198.5 124.085 198.5 123.99 198.5C123.895 198.5 123.801 198.5 123.706 198.5C123.611 198.5 123.516 198.5 123.421 198.5C123.326 198.5 123.231 198.5 123.137 198.5C123.042 198.5 122.947 198.5 122.852 198.5C122.758 198.5 122.663 198.5 122.568 198.5C122.473 198.5 122.379 198.5 122.284 198.5C122.189 198.5 122.095 198.5 122 198.5C121.906 198.5 121.811 198.5 121.716 198.5C121.622 198.5 121.527 198.5 121.433 198.5C121.338 198.5 121.244 198.5 121.149 198.5C121.055 198.5 120.96 198.5 120.866 198.5C120.771 198.5 120.677 198.5 120.583 198.5C120.488 198.5 120.394 198.5 120.3 198.5C120.205 198.5 120.111 198.5 120.017 198.5C119.923 198.5 119.828 198.5 119.734 198.5C119.64 198.5 119.546 198.5 119.452 198.5C119.358 198.5 119.263 198.5 119.169 198.5C119.075 198.5 118.981 198.5 118.887 198.5C118.793 198.5 118.699 198.5 118.605 198.5C118.511 198.5 118.417 198.5 118.323 198.5C118.23 198.5 118.136 198.5 118.042 198.5C117.948 198.5 117.854 198.5 117.761 198.5C117.667 198.5 117.573 198.5 117.479 198.5C117.386 198.5 117.292 198.5 117.198 198.5C117.105 198.5 117.011 198.5 116.918 198.5C116.824 198.5 116.731 198.5 116.637 198.5C116.544 198.5 116.45 198.5 116.357 198.5C116.263 198.5 116.17 198.5 116.077 198.5C115.983 198.5 115.89 198.5 115.797 198.5C115.704 198.5 115.61 198.5 115.517 198.5C115.424 198.5 115.331 198.5 115.238 198.5C115.145 198.5 115.052 198.5 114.959 198.5C114.866 198.5 114.773 198.5 114.68 198.5C114.587 198.5 114.494 198.5 114.401 198.5C114.308 198.5 114.216 198.5 114.123 198.5C114.03 198.5 113.937 198.5 113.845 198.5C113.752 198.5 113.659 198.5 113.567 198.5C113.474 198.5 113.382 198.5 113.289 198.5C113.197 198.5 113.104 198.5 113.012 198.5C112.919 198.5 112.827 198.5 112.735 198.5C112.642 198.5 112.55 198.5 112.458 198.5C112.366 198.5 112.273 198.5 112.181 198.5C112.089 198.5 111.997 198.5 111.905 198.5C111.813 198.5 111.721 198.5 111.629 198.5C111.537 198.5 111.445 198.5 111.353 198.5C111.262 198.5 111.17 198.5 111.078 198.5C110.986 198.5 110.895 198.5 110.803 198.5C110.711 198.5 110.62 198.5 110.528 198.5C110.437 198.5 110.345 198.5 110.254 198.5C110.162 198.5 110.071 198.5 109.98 198.5C109.888 198.5 109.797 198.5 109.706 198.5C109.614 198.5 109.523 198.5 109.432 198.5C109.341 198.5 109.25 198.5 109.159 198.5C109.068 198.5 108.977 198.5 108.886 198.5C108.795 198.5 108.704 198.5 108.614 198.5C108.523 198.5 108.432 198.5 108.341 198.5C108.251 198.5 108.16 198.5 108.07 198.5C107.979 198.5 107.888 198.5 107.798 198.5C107.708 198.5 107.617 198.5 107.527 198.5C107.437 198.5 107.346 198.5 107.256 198.5C107.166 198.5 107.076 198.5 106.986 198.5C106.896 198.5 106.805 198.5 106.716 198.5C106.626 198.5 106.536 198.5 106.446 198.5C106.356 198.5 106.266 198.5 106.176 198.5C106.087 198.5 105.997 198.5 105.907 198.5C105.818 198.5 105.728 198.5 105.639 198.5C105.549 198.5 105.46 198.5 105.371 198.5C105.281 198.5 105.192 198.5 105.103 198.5C105.014 198.5 104.924 198.5 104.835 198.5C104.746 198.5 104.657 198.5 104.568 198.5C104.479 198.5 104.39 198.5 104.302 198.5C104.213 198.5 104.124 198.5 104.035 198.5C103.947 198.5 103.858 198.5 103.769 198.5C103.681 198.5 103.592 198.5 103.504 198.5C103.416 198.5 103.327 198.5 103.239 198.5C103.151 198.5 103.062 198.5 102.974 198.5C102.886 198.5 102.798 198.5 102.71 198.5C102.622 198.5 102.534 198.5 102.446 198.5C102.359 198.5 102.271 198.5 102.183 198.5C102.095 198.5 102.008 198.5 101.92 198.5C101.833 198.5 101.745 198.5 101.658 198.5C101.57 198.5 101.483 198.5 101.396 198.5C101.308 198.5 101.221 198.5 101.134 198.5C101.047 198.5 100.96 198.5 100.873 198.5C100.786 198.5 100.699 198.5 100.612 198.5C100.525 198.5 100.439 198.5 100.352 198.5C100.265 198.5 100.179 198.5 100.092 198.5C100.006 198.5 99.9193 198.5 99.8329 198.5C99.7465 198.5 99.6603 198.5 99.5741 198.5C99.4879 198.5 99.4018 198.5 99.3157 198.5C99.2297 198.5 99.1437 198.5 99.0578 198.5C98.972 198.5 98.8862 198.5 98.8004 198.5C98.7147 198.5 98.6291 198.5 98.5435 198.5C98.458 198.5 98.3725 198.5 98.2871 198.5C98.2017 198.5 98.1164 198.5 98.0312 198.5C97.9459 198.5 97.8608 198.5 97.7757 198.5C97.6907 198.5 97.6057 198.5 97.5208 198.5C97.4359 198.5 97.3511 198.5 97.2664 198.5C97.1817 198.5 97.097 198.5 97.0125 198.5C96.9279 198.5 96.8435 198.5 96.7591 198.5C96.6747 198.5 96.5904 198.5 96.5062 198.5C96.422 198.5 96.3379 198.5 96.2538 198.5C96.1698 198.5 96.0859 198.5 96.002 198.5C95.9181 198.5 95.8344 198.5 95.7507 198.5C95.667 198.5 95.5834 198.5 95.4999 198.5C95.4164 198.5 95.333 198.5 95.2497 198.5C95.1664 198.5 95.0831 198.5 95 198.5V199Z" fill="black"/>
<path d="M179.333 199C179.333 200.473 180.527 201.667 182 201.667C183.473 201.667 184.667 200.473 184.667 199C184.667 197.527 183.473 196.333 182 196.333C180.527 196.333 179.333 197.527 179.333 199ZM193 183L193.406 182.708L192.991 182.131L192.588 182.717L193 183ZM182 199L182.412 199.283L193.412 183.283L193 183L192.588 182.717L181.588 198.717L182 199ZM193 183L192.594 183.292L204.094 199.292L204.5 199L204.906 198.708L193.406 182.708L193 183Z" fill="black"/>
<path d="M167.833 183.5C167.833 184.973 169.027 186.167 170.5 186.167C171.973 186.167 173.167 184.973 173.167 183.5C173.167 182.027 171.973 180.833 170.5 180.833C169.027 180.833 167.833 182.027 167.833 183.5ZM170.5 183.5L170.094 183.792L181.594 199.792L182 199.5L182.406 199.208L170.906 183.208L170.5 183.5Z" fill="black"/>
<rect x="95.5" y="100.5" width="36" height="76" stroke="black"/>
<rect x="131.5" y="100.5" width="36" height="76" stroke="black"/>
<rect x="167.5" y="100.5" width="36" height="76" stroke="black"/>
<path d="M131.5 100.5L95.5 138L131.5 176.5" stroke="black" stroke-linejoin="bevel" stroke-dasharray="2 2"/>
</svg>
