<svg width="300" height="300" viewBox="0 0 300 300" fill="none" xmlns="http://www.w3.org/2000/svg">
<path d="M169 138L164 135.113V140.887L169 138ZM124.5 138V138.5C124.501 138.5 124.503 138.5 124.505 138.5C124.506 138.5 124.508 138.5 124.51 138.5C124.511 138.5 124.513 138.5 124.515 138.5C124.517 138.5 124.519 138.5 124.521 138.5C124.523 138.5 124.526 138.5 124.528 138.5C124.53 138.5 124.533 138.5 124.535 138.5C124.537 138.5 124.54 138.5 124.543 138.5C124.545 138.5 124.548 138.5 124.551 138.5C124.554 138.5 124.557 138.5 124.56 138.5C124.563 138.5 124.566 138.5 124.569 138.5C124.572 138.5 124.575 138.5 124.579 138.5C124.582 138.5 124.585 138.5 124.589 138.5C124.592 138.5 124.596 138.5 124.6 138.5C124.603 138.5 124.607 138.5 124.611 138.5C124.615 138.5 124.619 138.5 124.623 138.5C124.627 138.5 124.631 138.5 124.635 138.5C124.639 138.5 124.643 138.5 124.648 138.5C124.652 138.5 124.657 138.5 124.661 138.5C124.666 138.5 124.67 138.5 124.675 138.5C124.68 138.5 124.684 138.5 124.689 138.5C124.694 138.5 124.699 138.5 124.704 138.5C124.709 138.5 124.714 138.5 124.72 138.5C124.725 138.5 124.73 138.5 124.735 138.5C124.741 138.5 124.746 138.5 124.752 138.5C124.757 138.5 124.763 138.5 124.769 138.5C124.774 138.5 124.78 138.5 124.786 138.5C124.792 138.5 124.798 138.5 124.804 138.5C124.81 138.5 124.816 138.5 124.822 138.5C124.828 138.5 124.835 138.5 124.841 138.5C124.847 138.5 124.854 138.5 124.86 138.5C124.867 138.5 124.873 138.5 124.88 138.5C124.887 138.5 124.894 138.5 124.9 138.5C124.907 138.5 124.914 138.5 124.921 138.5C124.928 138.5 124.935 138.5 124.942 138.5C124.95 138.5 124.957 138.5 124.964 138.5C124.972 138.5 124.979 138.5 124.986 138.5C124.994 138.5 125.002 138.5 125.009 138.5C125.017 138.5 125.025 138.5 125.032 138.5C125.04 138.5 125.048 138.5 125.056 138.5C125.064 138.5 125.072 138.5 125.08 138.5C125.088 138.5 125.097 138.5 125.105 138.5C125.113 138.5 125.121 138.5 125.13 138.5C125.138 138.5 125.147 138.5 125.155 138.5C125.164 138.5 125.173 138.5 125.182 138.5C125.19 138.5 125.199 138.5 125.208 138.5C125.217 138.5 125.226 138.5 125.235 138.5C125.244 138.5 125.253 138.5 125.262 138.5C125.272 138.5 125.281 138.5 125.29 138.5C125.3 138.5 125.309 138.5 125.319 138.5C125.328 138.5 125.338 138.5 125.348 138.5C125.357 138.5 125.367 138.5 125.377 138.5C125.387 138.5 125.397 138.5 125.407 138.5C125.417 138.5 125.427 138.5 125.437 138.5C125.447 138.5 125.457 138.5 125.468 138.5C125.478 138.5 125.488 138.5 125.499 138.5C125.509 138.5 125.52 138.5 125.53 138.5C125.541 138.5 125.551 138.5 125.562 138.5C125.573 138.5 125.584 138.5 125.595 138.5C125.606 138.5 125.617 138.5 125.628 138.5C125.639 138.5 125.65 138.5 125.661 138.5C125.672 138.5 125.684 138.5 125.695 138.5C125.706 138.5 125.718 138.5 125.729 138.5C125.741 138.5 125.752 138.5 125.764 138.5C125.776 138.5 125.787 138.5 125.799 138.5C125.811 138.5 125.823 138.5 125.835 138.5C125.847 138.5 125.859 138.5 125.871 138.5C125.883 138.5 125.895 138.5 125.907 138.5C125.919 138.5 125.932 138.5 125.944 138.5C125.956 138.5 125.969 138.5 125.981 138.5C125.994 138.5 126.007 138.5 126.019 138.5C126.032 138.5 126.045 138.5 126.057 138.5C126.07 138.5 126.083 138.5 126.096 138.5C126.109 138.5 126.122 138.5 126.135 138.5C126.148 138.5 126.161 138.5 126.175 138.5C126.188 138.5 126.201 138.5 126.215 138.5C126.228 138.5 126.241 138.5 126.255 138.5C126.268 138.5 126.282 138.5 126.296 138.5C126.309 138.5 126.323 138.5 126.337 138.5C126.351 138.5 126.365 138.5 126.378 138.5C126.392 138.5 126.406 138.5 126.421 138.5C126.435 138.5 126.449 138.5 126.463 138.5C126.477 138.5 126.491 138.5 126.506 138.5C126.52 138.5 126.535 138.5 126.549 138.5C126.564 138.5 126.578 138.5 126.593 138.5C126.607 138.5 126.622 138.5 126.637 138.5C126.652 138.5 126.667 138.5 126.681 138.5C126.696 138.5 126.711 138.5 126.726 138.5C126.741 138.5 126.757 138.5 126.772 138.5C126.787 138.5 126.802 138.5 126.818 138.5C126.833 138.5 126.848 138.5 126.864 138.5C126.879 138.5 126.895 138.5 126.91 138.5C126.926 138.5 126.941 138.5 126.957 138.5C126.973 138.5 126.989 138.5 127.005 138.5C127.02 138.5 127.036 138.5 127.052 138.5C127.068 138.5 127.084 138.5 127.1 138.5C127.117 138.5 127.133 138.5 127.149 138.5C127.165 138.5 127.182 138.5 127.198 138.5C127.214 138.5 127.231 138.5 127.247 138.5C127.264 138.5 127.28 138.5 127.297 138.5C127.314 138.5 127.33 138.5 127.347 138.5C127.364 138.5 127.381 138.5 127.398 138.5C127.415 138.5 127.432 138.5 127.449 138.5C127.466 138.5 127.483 138.5 127.5 138.5C127.517 138.5 127.534 138.5 127.552 138.5C127.569 138.5 127.586 138.5 127.604 138.5C127.621 138.5 127.639 138.5 127.656 138.5C127.674 138.5 127.691 138.5 127.709 138.5C127.727 138.5 127.744 138.5 127.762 138.5C127.78 138.5 127.798 138.5 127.816 138.5C127.834 138.5 127.852 138.5 127.87 138.5C127.888 138.5 127.906 138.5 127.924 138.5C127.942 138.5 127.96 138.5 127.979 138.5C127.997 138.5 128.015 138.5 128.034 138.5C128.052 138.5 128.071 138.5 128.089 138.5C128.108 138.5 128.126 138.5 128.145 138.5C128.164 138.5 128.182 138.5 128.201 138.5C128.22 138.5 128.239 138.5 128.258 138.5C128.277 138.5 128.296 138.5 128.315 138.5C128.334 138.5 128.353 138.5 128.372 138.5C128.391 138.5 128.41 138.5 128.43 138.5C128.449 138.5 128.468 138.5 128.488 138.5C128.507 138.5 128.527 138.5 128.546 138.5C128.566 138.5 128.585 138.5 128.605 138.5C128.624 138.5 128.644 138.5 128.664 138.5C128.684 138.5 128.703 138.5 128.723 138.5C128.743 138.5 128.763 138.5 128.783 138.5C128.803 138.5 128.823 138.5 128.843 138.5C128.863 138.5 128.883 138.5 128.904 138.5C128.924 138.5 128.944 138.5 128.965 138.5C128.985 138.5 129.005 138.5 129.026 138.5C129.046 138.5 129.067 138.5 129.087 138.5C129.108 138.5 129.128 138.5 129.149 138.5C129.17 138.5 129.191 138.5 129.211 138.5C129.232 138.5 129.253 138.5 129.274 138.5C129.295 138.5 129.316 138.5 129.337 138.5C129.358 138.5 129.379 138.5 129.4 138.5C129.421 138.5 129.442 138.5 129.464 138.5C129.485 138.5 129.506 138.5 129.528 138.5C129.549 138.5 129.57 138.5 129.592 138.5C129.613 138.5 129.635 138.5 129.657 138.5C129.678 138.5 129.7 138.5 129.721 138.5C129.743 138.5 129.765 138.5 129.787 138.5C129.808 138.5 129.83 138.5 129.852 138.5C129.874 138.5 129.896 138.5 129.918 138.5C129.94 138.5 129.962 138.5 129.984 138.5C130.007 138.5 130.029 138.5 130.051 138.5C130.073 138.5 130.096 138.5 130.118 138.5C130.14 138.5 130.163 138.5 130.185 138.5C130.208 138.5 130.23 138.5 130.253 138.5C130.275 138.5 130.298 138.5 130.32 138.5C130.343 138.5 130.366 138.5 130.389 138.5C130.411 138.5 130.434 138.5 130.457 138.5C130.48 138.5 130.503 138.5 130.526 138.5C130.549 138.5 130.572 138.5 130.595 138.5C130.618 138.5 130.641 138.5 130.664 138.5C130.688 138.5 130.711 138.5 130.734 138.5C130.758 138.5 130.781 138.5 130.804 138.5C130.828 138.5 130.851 138.5 130.875 138.5C130.898 138.5 130.922 138.5 130.945 138.5C130.969 138.5 130.993 138.5 131.016 138.5C131.04 138.5 131.064 138.5 131.088 138.5C131.111 138.5 131.135 138.5 131.159 138.5C131.183 138.5 131.207 138.5 131.231 138.5C131.255 138.5 131.279 138.5 131.303 138.5C131.327 138.5 131.351 138.5 131.376 138.5C131.4 138.5 131.424 138.5 131.448 138.5C131.473 138.5 131.497 138.5 131.521 138.5C131.546 138.5 131.57 138.5 131.595 138.5C131.619 138.5 131.644 138.5 131.669 138.5C131.693 138.5 131.718 138.5 131.742 138.5C131.767 138.5 131.792 138.5 131.817 138.5C131.841 138.5 131.866 138.5 131.891 138.5C131.916 138.5 131.941 138.5 131.966 138.5C131.991 138.5 132.016 138.5 132.041 138.5C132.066 138.5 132.091 138.5 132.116 138.5C132.142 138.5 132.167 138.5 132.192 138.5C132.217 138.5 132.243 138.5 132.268 138.5C132.293 138.5 132.319 138.5 132.344 138.5C132.37 138.5 132.395 138.5 132.421 138.5C132.446 138.5 132.472 138.5 132.498 138.5C132.523 138.5 132.549 138.5 132.575 138.5C132.6 138.5 132.626 138.5 132.652 138.5C132.678 138.5 132.704 138.5 132.73 138.5C132.755 138.5 132.781 138.5 132.807 138.5C132.833 138.5 132.859 138.5 132.886 138.5C132.912 138.5 132.938 138.5 132.964 138.5C132.99 138.5 133.016 138.5 133.043 138.5C133.069 138.5 133.095 138.5 133.122 138.5C133.148 138.5 133.174 138.5 133.201 138.5C133.227 138.5 133.254 138.5 133.28 138.5C133.307 138.5 133.333 138.5 133.36 138.5C133.387 138.5 133.413 138.5 133.44 138.5C133.467 138.5 133.493 138.5 133.52 138.5C133.547 138.5 133.574 138.5 133.601 138.5C133.628 138.5 133.654 138.5 133.681 138.5C133.708 138.5 133.735 138.5 133.762 138.5C133.789 138.5 133.817 138.5 133.844 138.5C133.871 138.5 133.898 138.5 133.925 138.5C133.952 138.5 133.98 138.5 134.007 138.5C134.034 138.5 134.062 138.5 134.089 138.5C134.116 138.5 134.144 138.5 134.171 138.5C134.199 138.5 134.226 138.5 134.254 138.5C134.281 138.5 134.309 138.5 134.336 138.5C134.364 138.5 134.392 138.5 134.419 138.5C134.447 138.5 134.475 138.5 134.503 138.5C134.53 138.5 134.558 138.5 134.586 138.5C134.614 138.5 134.642 138.5 134.67 138.5C134.698 138.5 134.726 138.5 134.754 138.5C134.782 138.5 134.81 138.5 134.838 138.5C134.866 138.5 134.894 138.5 134.922 138.5C134.951 138.5 134.979 138.5 135.007 138.5C135.035 138.5 135.064 138.5 135.092 138.5C135.12 138.5 135.149 138.5 135.177 138.5C135.205 138.5 135.234 138.5 135.262 138.5C135.291 138.5 135.319 138.5 135.348 138.5C135.376 138.5 135.405 138.5 135.434 138.5C135.462 138.5 135.491 138.5 135.52 138.5C135.548 138.5 135.577 138.5 135.606 138.5C135.635 138.5 135.664 138.5 135.692 138.5C135.721 138.5 135.75 138.5 135.779 138.5C135.808 138.5 135.837 138.5 135.866 138.5C135.895 138.5 135.924 138.5 135.953 138.5C135.982 138.5 136.011 138.5 136.04 138.5C136.07 138.5 136.099 138.5 136.128 138.5C136.157 138.5 136.186 138.5 136.216 138.5C136.245 138.5 136.274 138.5 136.304 138.5C136.333 138.5 136.362 138.5 136.392 138.5C136.421 138.5 136.451 138.5 136.48 138.5C136.51 138.5 136.539 138.5 136.569 138.5C136.598 138.5 136.628 138.5 136.658 138.5C136.687 138.5 136.717 138.5 136.747 138.5C136.776 138.5 136.806 138.5 136.836 138.5C136.866 138.5 136.895 138.5 136.925 138.5C136.955 138.5 136.985 138.5 137.015 138.5C137.045 138.5 137.075 138.5 137.105 138.5C137.135 138.5 137.165 138.5 137.195 138.5C137.225 138.5 137.255 138.5 137.285 138.5C137.315 138.5 137.345 138.5 137.375 138.5C137.405 138.5 137.435 138.5 137.466 138.5C137.496 138.5 137.526 138.5 137.556 138.5C137.587 138.5 137.617 138.5 137.647 138.5C137.678 138.5 137.708 138.5 137.739 138.5C137.769 138.5 137.799 138.5 137.83 138.5C137.86 138.5 137.891 138.5 137.921 138.5C137.952 138.5 137.983 138.5 138.013 138.5C138.044 138.5 138.074 138.5 138.105 138.5C138.136 138.5 138.166 138.5 138.197 138.5C138.228 138.5 138.259 138.5 138.289 138.5C138.32 138.5 138.351 138.5 138.382 138.5C138.413 138.5 138.443 138.5 138.474 138.5C138.505 138.5 138.536 138.5 138.567 138.5C138.598 138.5 138.629 138.5 138.66 138.5C138.691 138.5 138.722 138.5 138.753 138.5C138.784 138.5 138.815 138.5 138.846 138.5C138.878 138.5 138.909 138.5 138.94 138.5C138.971 138.5 139.002 138.5 139.034 138.5C139.065 138.5 139.096 138.5 139.127 138.5C139.159 138.5 139.19 138.5 139.221 138.5C139.253 138.5 139.284 138.5 139.315 138.5C139.347 138.5 139.378 138.5 139.41 138.5C139.441 138.5 139.473 138.5 139.504 138.5C139.536 138.5 139.567 138.5 139.599 138.5C139.63 138.5 139.662 138.5 139.694 138.5C139.725 138.5 139.757 138.5 139.788 138.5C139.82 138.5 139.852 138.5 139.884 138.5C139.915 138.5 139.947 138.5 139.979 138.5C140.011 138.5 140.042 138.5 140.074 138.5C140.106 138.5 140.138 138.5 140.17 138.5C140.202 138.5 140.233 138.5 140.265 138.5C140.297 138.5 140.329 138.5 140.361 138.5C140.393 138.5 140.425 138.5 140.457 138.5C140.489 138.5 140.521 138.5 140.553 138.5C140.585 138.5 140.617 138.5 140.65 138.5C140.682 138.5 140.714 138.5 140.746 138.5C140.778 138.5 140.81 138.5 140.843 138.5C140.875 138.5 140.907 138.5 140.939 138.5C140.971 138.5 141.004 138.5 141.036 138.5C141.068 138.5 141.101 138.5 141.133 138.5C141.165 138.5 141.198 138.5 141.23 138.5C141.262 138.5 141.295 138.5 141.327 138.5C141.36 138.5 141.392 138.5 141.425 138.5C141.457 138.5 141.49 138.5 141.522 138.5C141.555 138.5 141.587 138.5 141.62 138.5C141.652 138.5 141.685 138.5 141.718 138.5C141.75 138.5 141.783 138.5 141.815 138.5C141.848 138.5 141.881 138.5 141.913 138.5C141.946 138.5 141.979 138.5 142.012 138.5C142.044 138.5 142.077 138.5 142.11 138.5C142.143 138.5 142.175 138.5 142.208 138.5C142.241 138.5 142.274 138.5 142.307 138.5C142.34 138.5 142.372 138.5 142.405 138.5C142.438 138.5 142.471 138.5 142.504 138.5C142.537 138.5 142.57 138.5 142.603 138.5C142.636 138.5 142.669 138.5 142.702 138.5C142.735 138.5 142.768 138.5 142.801 138.5C142.834 138.5 142.867 138.5 142.9 138.5C142.933 138.5 142.966 138.5 142.999 138.5C143.033 138.5 143.066 138.5 143.099 138.5C143.132 138.5 143.165 138.5 143.198 138.5C143.232 138.5 143.265 138.5 143.298 138.5C143.331 138.5 143.364 138.5 143.398 138.5C143.431 138.5 143.464 138.5 143.498 138.5C143.531 138.5 143.564 138.5 143.597 138.5C143.631 138.5 143.664 138.5 143.698 138.5C143.731 138.5 143.764 138.5 143.798 138.5C143.831 138.5 143.864 138.5 143.898 138.5C143.931 138.5 143.965 138.5 143.998 138.5C144.032 138.5 144.065 138.5 144.099 138.5C144.132 138.5 144.166 138.5 144.199 138.5C144.233 138.5 144.266 138.5 144.3 138.5C144.333 138.5 144.367 138.5 144.4 138.5C144.434 138.5 144.468 138.5 144.501 138.5C144.535 138.5 144.568 138.5 144.602 138.5C144.636 138.5 144.669 138.5 144.703 138.5C144.737 138.5 144.77 138.5 144.804 138.5C144.838 138.5 144.871 138.5 144.905 138.5C144.939 138.5 144.972 138.5 145.006 138.5C145.04 138.5 145.074 138.5 145.108 138.5C145.141 138.5 145.175 138.5 145.209 138.5C145.243 138.5 145.276 138.5 145.31 138.5C145.344 138.5 145.378 138.5 145.412 138.5C145.446 138.5 145.479 138.5 145.513 138.5C145.547 138.5 145.581 138.5 145.615 138.5C145.649 138.5 145.683 138.5 145.717 138.5C145.751 138.5 145.785 138.5 145.819 138.5C145.852 138.5 145.886 138.5 145.92 138.5C145.954 138.5 145.988 138.5 146.022 138.5C146.056 138.5 146.09 138.5 146.124 138.5C146.158 138.5 146.192 138.5 146.226 138.5C146.26 138.5 146.294 138.5 146.328 138.5C146.362 138.5 146.397 138.5 146.431 138.5C146.465 138.5 146.499 138.5 146.533 138.5C146.567 138.5 146.601 138.5 146.635 138.5C146.669 138.5 146.703 138.5 146.738 138.5C146.772 138.5 146.806 138.5 146.84 138.5C146.874 138.5 146.908 138.5 146.942 138.5C146.977 138.5 147.011 138.5 147.045 138.5C147.079 138.5 147.113 138.5 147.147 138.5C147.182 138.5 147.216 138.5 147.25 138.5C147.284 138.5 147.319 138.5 147.353 138.5C147.387 138.5 147.421 138.5 147.455 138.5C147.49 138.5 147.524 138.5 147.558 138.5C147.592 138.5 147.627 138.5 147.661 138.5C147.695 138.5 147.73 138.5 147.764 138.5C147.798 138.5 147.832 138.5 147.867 138.5C147.901 138.5 147.935 138.5 147.97 138.5C148.004 138.5 148.038 138.5 148.073 138.5C148.107 138.5 148.141 138.5 148.176 138.5C148.21 138.5 148.244 138.5 148.279 138.5C148.313 138.5 148.347 138.5 148.382 138.5C148.416 138.5 148.45 138.5 148.485 138.5C148.519 138.5 148.554 138.5 148.588 138.5C148.622 138.5 148.657 138.5 148.691 138.5C148.725 138.5 148.76 138.5 148.794 138.5C148.829 138.5 148.863 138.5 148.898 138.5C148.932 138.5 148.966 138.5 149.001 138.5C149.035 138.5 149.07 138.5 149.104 138.5C149.138 138.5 149.173 138.5 149.207 138.5C149.242 138.5 149.276 138.5 149.311 138.5C149.345 138.5 149.379 138.5 149.414 138.5C149.448 138.5 149.483 138.5 149.517 138.5C149.552 138.5 149.586 138.5 149.621 138.5C149.655 138.5 149.69 138.5 149.724 138.5C149.758 138.5 149.793 138.5 149.827 138.5C149.862 138.5 149.896 138.5 149.931 138.5C149.965 138.5 150 138.5 150.034 138.5C150.069 138.5 150.103 138.5 150.138 138.5C150.172 138.5 150.207 138.5 150.241 138.5C150.276 138.5 150.31 138.5 150.345 138.5C150.379 138.5 150.414 138.5 150.448 138.5C150.482 138.5 150.517 138.5 150.551 138.5C150.586 138.5 150.62 138.5 150.655 138.5C150.689 138.5 150.724 138.5 150.758 138.5C150.793 138.5 150.827 138.5 150.862 138.5C150.896 138.5 150.931 138.5 150.965 138.5C151 138.5 151.034 138.5 151.069 138.5C151.103 138.5 151.138 138.5 151.172 138.5C151.207 138.5 151.241 138.5 151.276 138.5C151.31 138.5 151.345 138.5 151.379 138.5C151.414 138.5 151.448 138.5 151.482 138.5C151.517 138.5 151.551 138.5 151.586 138.5C151.62 138.5 151.655 138.5 151.689 138.5C151.724 138.5 151.758 138.5 151.793 138.5C151.827 138.5 151.862 138.5 151.896 138.5C151.931 138.5 151.965 138.5 151.999 138.5C152.034 138.5 152.068 138.5 152.103 138.5C152.137 138.5 152.172 138.5 152.206 138.5C152.241 138.5 152.275 138.5 152.309 138.5C152.344 138.5 152.378 138.5 152.413 138.5C152.447 138.5 152.482 138.5 152.516 138.5C152.55 138.5 152.585 138.5 152.619 138.5C152.654 138.5 152.688 138.5 152.722 138.5C152.757 138.5 152.791 138.5 152.826 138.5C152.86 138.5 152.894 138.5 152.929 138.5C152.963 138.5 152.997 138.5 153.032 138.5C153.066 138.5 153.101 138.5 153.135 138.5C153.169 138.5 153.204 138.5 153.238 138.5C153.272 138.5 153.307 138.5 153.341 138.5C153.375 138.5 153.41 138.5 153.444 138.5C153.478 138.5 153.513 138.5 153.547 138.5C153.581 138.5 153.616 138.5 153.65 138.5C153.684 138.5 153.718 138.5 153.753 138.5C153.787 138.5 153.821 138.5 153.856 138.5C153.89 138.5 153.924 138.5 153.958 138.5C153.993 138.5 154.027 138.5 154.061 138.5C154.095 138.5 154.13 138.5 154.164 138.5C154.198 138.5 154.232 138.5 154.266 138.5C154.301 138.5 154.335 138.5 154.369 138.5C154.403 138.5 154.437 138.5 154.472 138.5C154.506 138.5 154.54 138.5 154.574 138.5C154.608 138.5 154.642 138.5 154.677 138.5C154.711 138.5 154.745 138.5 154.779 138.5C154.813 138.5 154.847 138.5 154.881 138.5C154.915 138.5 154.949 138.5 154.984 138.5C155.018 138.5 155.052 138.5 155.086 138.5C155.12 138.5 155.154 138.5 155.188 138.5C155.222 138.5 155.256 138.5 155.29 138.5C155.324 138.5 155.358 138.5 155.392 138.5C155.426 138.5 155.46 138.5 155.494 138.5C155.528 138.5 155.562 138.5 155.596 138.5C155.63 138.5 155.664 138.5 155.698 138.5C155.732 138.5 155.766 138.5 155.8 138.5C155.833 138.5 155.867 138.5 155.901 138.5C155.935 138.5 155.969 138.5 156.003 138.5C156.037 138.5 156.071 138.5 156.104 138.5C156.138 138.5 156.172 138.5 156.206 138.5C156.24 138.5 156.274 138.5 156.307 138.5C156.341 138.5 156.375 138.5 156.409 138.5C156.442 138.5 156.476 138.5 156.51 138.5C156.544 138.5 156.577 138.5 156.611 138.5C156.645 138.5 156.678 138.5 156.712 138.5C156.746 138.5 156.779 138.5 156.813 138.5C156.847 138.5 156.88 138.5 156.914 138.5C156.948 138.5 156.981 138.5 157.015 138.5C157.048 138.5 157.082 138.5 157.116 138.5C157.149 138.5 157.183 138.5 157.216 138.5C157.25 138.5 157.283 138.5 157.317 138.5C157.35 138.5 157.384 138.5 157.417 138.5C157.451 138.5 157.484 138.5 157.518 138.5C157.551 138.5 157.585 138.5 157.618 138.5C157.651 138.5 157.685 138.5 157.718 138.5C157.752 138.5 157.785 138.5 157.818 138.5C157.852 138.5 157.885 138.5 157.918 138.5C157.952 138.5 157.985 138.5 158.018 138.5C158.051 138.5 158.085 138.5 158.118 138.5C158.151 138.5 158.184 138.5 158.218 138.5C158.251 138.5 158.284 138.5 158.317 138.5C158.35 138.5 158.384 138.5 158.417 138.5C158.45 138.5 158.483 138.5 158.516 138.5C158.549 138.5 158.582 138.5 158.615 138.5C158.648 138.5 158.681 138.5 158.715 138.5C158.748 138.5 158.781 138.5 158.814 138.5C158.847 138.5 158.88 138.5 158.912 138.5C158.945 138.5 158.978 138.5 159.011 138.5C159.044 138.5 159.077 138.5 159.11 138.5C159.143 138.5 159.176 138.5 159.209 138.5C159.241 138.5 159.274 138.5 159.307 138.5C159.34 138.5 159.373 138.5 159.405 138.5C159.438 138.5 159.471 138.5 159.504 138.5C159.536 138.5 159.569 138.5 159.602 138.5C159.634 138.5 159.667 138.5 159.7 138.5C159.732 138.5 159.765 138.5 159.798 138.5C159.83 138.5 159.863 138.5 159.895 138.5C159.928 138.5 159.96 138.5 159.993 138.5C160.025 138.5 160.058 138.5 160.09 138.5C160.123 138.5 160.155 138.5 160.188 138.5C160.22 138.5 160.252 138.5 160.285 138.5C160.317 138.5 160.35 138.5 160.382 138.5C160.414 138.5 160.447 138.5 160.479 138.5C160.511 138.5 160.543 138.5 160.576 138.5C160.608 138.5 160.64 138.5 160.672 138.5C160.704 138.5 160.737 138.5 160.769 138.5C160.801 138.5 160.833 138.5 160.865 138.5C160.897 138.5 160.929 138.5 160.961 138.5C160.993 138.5 161.025 138.5 161.057 138.5C161.089 138.5 161.121 138.5 161.153 138.5C161.185 138.5 161.217 138.5 161.249 138.5C161.281 138.5 161.313 138.5 161.345 138.5C161.377 138.5 161.409 138.5 161.44 138.5C161.472 138.5 161.504 138.5 161.536 138.5C161.567 138.5 161.599 138.5 161.631 138.5C161.663 138.5 161.694 138.5 161.726 138.5C161.758 138.5 161.789 138.5 161.821 138.5C161.852 138.5 161.884 138.5 161.915 138.5C161.947 138.5 161.979 138.5 162.01 138.5C162.042 138.5 162.073 138.5 162.104 138.5C162.136 138.5 162.167 138.5 162.199 138.5C162.23 138.5 162.261 138.5 162.293 138.5C162.324 138.5 162.355 138.5 162.387 138.5C162.418 138.5 162.449 138.5 162.48 138.5C162.512 138.5 162.543 138.5 162.574 138.5C162.605 138.5 162.636 138.5 162.667 138.5C162.699 138.5 162.73 138.5 162.761 138.5C162.792 138.5 162.823 138.5 162.854 138.5C162.885 138.5 162.916 138.5 162.947 138.5C162.978 138.5 163.008 138.5 163.039 138.5C163.07 138.5 163.101 138.5 163.132 138.5C163.163 138.5 163.194 138.5 163.224 138.5C163.255 138.5 163.286 138.5 163.316 138.5C163.347 138.5 163.378 138.5 163.408 138.5C163.439 138.5 163.47 138.5 163.5 138.5C163.531 138.5 163.561 138.5 163.592 138.5C163.622 138.5 163.653 138.5 163.683 138.5C163.714 138.5 163.744 138.5 163.775 138.5C163.805 138.5 163.835 138.5 163.866 138.5C163.896 138.5 163.926 138.5 163.957 138.5C163.987 138.5 164.017 138.5 164.047 138.5C164.078 138.5 164.108 138.5 164.138 138.5C164.168 138.5 164.198 138.5 164.228 138.5C164.258 138.5 164.288 138.5 164.318 138.5C164.348 138.5 164.378 138.5 164.408 138.5C164.438 138.5 164.468 138.5 164.498 138.5V138V137.5C164.468 137.5 164.438 137.5 164.408 137.5C164.378 137.5 164.348 137.5 164.318 137.5C164.288 137.5 164.258 137.5 164.228 137.5C164.198 137.5 164.168 137.5 164.138 137.5C164.108 137.5 164.078 137.5 164.047 137.5C164.017 137.5 163.987 137.5 163.957 137.5C163.926 137.5 163.896 137.5 163.866 137.5C163.835 137.5 163.805 137.5 163.775 137.5C163.744 137.5 163.714 137.5 163.683 137.5C163.653 137.5 163.622 137.5 163.592 137.5C163.561 137.5 163.531 137.5 163.5 137.5C163.47 137.5 163.439 137.5 163.408 137.5C163.378 137.5 163.347 137.5 163.316 137.5C163.286 137.5 163.255 137.5 163.224 137.5C163.194 137.5 163.163 137.5 163.132 137.5C163.101 137.5 163.07 137.5 163.039 137.5C163.008 137.5 162.978 137.5 162.947 137.5C162.916 137.5 162.885 137.5 162.854 137.5C162.823 137.5 162.792 137.5 162.761 137.5C162.73 137.5 162.699 137.5 162.667 137.5C162.636 137.5 162.605 137.5 162.574 137.5C162.543 137.5 162.512 137.5 162.48 137.5C162.449 137.5 162.418 137.5 162.387 137.5C162.355 137.5 162.324 137.5 162.293 137.5C162.261 137.5 162.23 137.5 162.199 137.5C162.167 137.5 162.136 137.5 162.104 137.5C162.073 137.5 162.042 137.5 162.01 137.5C161.979 137.5 161.947 137.5 161.915 137.5C161.884 137.5 161.852 137.5 161.821 137.5C161.789 137.5 161.758 137.5 161.726 137.5C161.694 137.5 161.663 137.5 161.631 137.5C161.599 137.5 161.567 137.5 161.536 137.5C161.504 137.5 161.472 137.5 161.44 137.5C161.409 137.5 161.377 137.5 161.345 137.5C161.313 137.5 161.281 137.5 161.249 137.5C161.217 137.5 161.185 137.5 161.153 137.5C161.121 137.5 161.089 137.5 161.057 137.5C161.025 137.5 160.993 137.5 160.961 137.5C160.929 137.5 160.897 137.5 160.865 137.5C160.833 137.5 160.801 137.5 160.769 137.5C160.737 137.5 160.704 137.5 160.672 137.5C160.64 137.5 160.608 137.5 160.576 137.5C160.543 137.5 160.511 137.5 160.479 137.5C160.447 137.5 160.414 137.5 160.382 137.5C160.35 137.5 160.317 137.5 160.285 137.5C160.252 137.5 160.22 137.5 160.188 137.5C160.155 137.5 160.123 137.5 160.09 137.5C160.058 137.5 160.025 137.5 159.993 137.5C159.96 137.5 159.928 137.5 159.895 137.5C159.863 137.5 159.83 137.5 159.798 137.5C159.765 137.5 159.732 137.5 159.7 137.5C159.667 137.5 159.634 137.5 159.602 137.5C159.569 137.5 159.536 137.5 159.504 137.5C159.471 137.5 159.438 137.5 159.405 137.5C159.373 137.5 159.34 137.5 159.307 137.5C159.274 137.5 159.241 137.5 159.209 137.5C159.176 137.5 159.143 137.5 159.11 137.5C159.077 137.5 159.044 137.5 159.011 137.5C158.978 137.5 158.945 137.5 158.912 137.5C158.88 137.5 158.847 137.5 158.814 137.5C158.781 137.5 158.748 137.5 158.715 137.5C158.681 137.5 158.648 137.5 158.615 137.5C158.582 137.5 158.549 137.5 158.516 137.5C158.483 137.5 158.45 137.5 158.417 137.5C158.384 137.5 158.35 137.5 158.317 137.5C158.284 137.5 158.251 137.5 158.218 137.5C158.184 137.5 158.151 137.5 158.118 137.5C158.085 137.5 158.051 137.5 158.018 137.5C157.985 137.5 157.952 137.5 157.918 137.5C157.885 137.5 157.852 137.5 157.818 137.5C157.785 137.5 157.752 137.5 157.718 137.5C157.685 137.5 157.651 137.5 157.618 137.5C157.585 137.5 157.551 137.5 157.518 137.5C157.484 137.5 157.451 137.5 157.417 137.5C157.384 137.5 157.35 137.5 157.317 137.5C157.283 137.5 157.25 137.5 157.216 137.5C157.183 137.5 157.149 137.5 157.116 137.5C157.082 137.5 157.048 137.5 157.015 137.5C156.981 137.5 156.948 137.5 156.914 137.5C156.88 137.5 156.847 137.5 156.813 137.5C156.779 137.5 156.746 137.5 156.712 137.5C156.678 137.5 156.645 137.5 156.611 137.5C156.577 137.5 156.544 137.5 156.51 137.5C156.476 137.5 156.442 137.5 156.409 137.5C156.375 137.5 156.341 137.5 156.307 137.5C156.274 137.5 156.24 137.5 156.206 137.5C156.172 137.5 156.138 137.5 156.104 137.5C156.071 137.5 156.037 137.5 156.003 137.5C155.969 137.5 155.935 137.5 155.901 137.5C155.867 137.5 155.833 137.5 155.8 137.5C155.766 137.5 155.732 137.5 155.698 137.5C155.664 137.5 155.63 137.5 155.596 137.5C155.562 137.5 155.528 137.5 155.494 137.5C155.46 137.5 155.426 137.5 155.392 137.5C155.358 137.5 155.324 137.5 155.29 137.5C155.256 137.5 155.222 137.5 155.188 137.5C155.154 137.5 155.12 137.5 155.086 137.5C155.052 137.5 155.018 137.5 154.984 137.5C154.949 137.5 154.915 137.5 154.881 137.5C154.847 137.5 154.813 137.5 154.779 137.5C154.745 137.5 154.711 137.5 154.677 137.5C154.642 137.5 154.608 137.5 154.574 137.5C154.54 137.5 154.506 137.5 154.472 137.5C154.437 137.5 154.403 137.5 154.369 137.5C154.335 137.5 154.301 137.5 154.266 137.5C154.232 137.5 154.198 137.5 154.164 137.5C154.13 137.5 154.095 137.5 154.061 137.5C154.027 137.5 153.993 137.5 153.958 137.5C153.924 137.5 153.89 137.5 153.856 137.5C153.821 137.5 153.787 137.5 153.753 137.5C153.718 137.5 153.684 137.5 153.65 137.5C153.616 137.5 153.581 137.5 153.547 137.5C153.513 137.5 153.478 137.5 153.444 137.5C153.41 137.5 153.375 137.5 153.341 137.5C153.307 137.5 153.272 137.5 153.238 137.5C153.204 137.5 153.169 137.5 153.135 137.5C153.101 137.5 153.066 137.5 153.032 137.5C152.997 137.5 152.963 137.5 152.929 137.5C152.894 137.5 152.86 137.5 152.826 137.5C152.791 137.5 152.757 137.5 152.722 137.5C152.688 137.5 152.654 137.5 152.619 137.5C152.585 137.5 152.55 137.5 152.516 137.5C152.482 137.5 152.447 137.5 152.413 137.5C152.378 137.5 152.344 137.5 152.309 137.5C152.275 137.5 152.241 137.5 152.206 137.5C152.172 137.5 152.137 137.5 152.103 137.5C152.068 137.5 152.034 137.5 151.999 137.5C151.965 137.5 151.931 137.5 151.896 137.5C151.862 137.5 151.827 137.5 151.793 137.5C151.758 137.5 151.724 137.5 151.689 137.5C151.655 137.5 151.62 137.5 151.586 137.5C151.551 137.5 151.517 137.5 151.482 137.5C151.448 137.5 151.414 137.5 151.379 137.5C151.345 137.5 151.31 137.5 151.276 137.5C151.241 137.5 151.207 137.5 151.172 137.5C151.138 137.5 151.103 137.5 151.069 137.5C151.034 137.5 151 137.5 150.965 137.5C150.931 137.5 150.896 137.5 150.862 137.5C150.827 137.5 150.793 137.5 150.758 137.5C150.724 137.5 150.689 137.5 150.655 137.5C150.62 137.5 150.586 137.5 150.551 137.5C150.517 137.5 150.482 137.5 150.448 137.5C150.414 137.5 150.379 137.5 150.345 137.5C150.31 137.5 150.276 137.5 150.241 137.5C150.207 137.5 150.172 137.5 150.138 137.5C150.103 137.5 150.069 137.5 150.034 137.5C150 137.5 149.965 137.5 149.931 137.5C149.896 137.5 149.862 137.5 149.827 137.5C149.793 137.5 149.758 137.5 149.724 137.5C149.69 137.5 149.655 137.5 149.621 137.5C149.586 137.5 149.552 137.5 149.517 137.5C149.483 137.5 149.448 137.5 149.414 137.5C149.379 137.5 149.345 137.5 149.311 137.5C149.276 137.5 149.242 137.5 149.207 137.5C149.173 137.5 149.138 137.5 149.104 137.5C149.07 137.5 149.035 137.5 149.001 137.5C148.966 137.5 148.932 137.5 148.898 137.5C148.863 137.5 148.829 137.5 148.794 137.5C148.76 137.5 148.725 137.5 148.691 137.5C148.657 137.5 148.622 137.5 148.588 137.5C148.554 137.5 148.519 137.5 148.485 137.5C148.45 137.5 148.416 137.5 148.382 137.5C148.347 137.5 148.313 137.5 148.279 137.5C148.244 137.5 148.21 137.5 148.176 137.5C148.141 137.5 148.107 137.5 148.073 137.5C148.038 137.5 148.004 137.5 147.97 137.5C147.935 137.5 147.901 137.5 147.867 137.5C147.832 137.5 147.798 137.5 147.764 137.5C147.73 137.5 147.695 137.5 147.661 137.5C147.627 137.5 147.592 137.5 147.558 137.5C147.524 137.5 147.49 137.5 147.455 137.5C147.421 137.5 147.387 137.5 147.353 137.5C147.319 137.5 147.284 137.5 147.25 137.5C147.216 137.5 147.182 137.5 147.147 137.5C147.113 137.5 147.079 137.5 147.045 137.5C147.011 137.5 146.977 137.5 146.942 137.5C146.908 137.5 146.874 137.5 146.84 137.5C146.806 137.5 146.772 137.5 146.738 137.5C146.703 137.5 146.669 137.5 146.635 137.5C146.601 137.5 146.567 137.5 146.533 137.5C146.499 137.5 146.465 137.5 146.431 137.5C146.397 137.5 146.362 137.5 146.328 137.5C146.294 137.5 146.26 137.5 146.226 137.5C146.192 137.5 146.158 137.5 146.124 137.5C146.09 137.5 146.056 137.5 146.022 137.5C145.988 137.5 145.954 137.5 145.92 137.5C145.886 137.5 145.852 137.5 145.819 137.5C145.785 137.5 145.751 137.5 145.717 137.5C145.683 137.5 145.649 137.5 145.615 137.5C145.581 137.5 145.547 137.5 145.513 137.5C145.479 137.5 145.446 137.5 145.412 137.5C145.378 137.5 145.344 137.5 145.31 137.5C145.276 137.5 145.243 137.5 145.209 137.5C145.175 137.5 145.141 137.5 145.108 137.5C145.074 137.5 145.04 137.5 145.006 137.5C144.972 137.5 144.939 137.5 144.905 137.5C144.871 137.5 144.838 137.5 144.804 137.5C144.77 137.5 144.737 137.5 144.703 137.5C144.669 137.5 144.636 137.5 144.602 137.5C144.568 137.5 144.535 137.5 144.501 137.5C144.468 137.5 144.434 137.5 144.4 137.5C144.367 137.5 144.333 137.5 144.3 137.5C144.266 137.5 144.233 137.5 144.199 137.5C144.166 137.5 144.132 137.5 144.099 137.5C144.065 137.5 144.032 137.5 143.998 137.5C143.965 137.5 143.931 137.5 143.898 137.5C143.864 137.5 143.831 137.5 143.798 137.5C143.764 137.5 143.731 137.5 143.698 137.5C143.664 137.5 143.631 137.5 143.597 137.5C143.564 137.5 143.531 137.5 143.498 137.5C143.464 137.5 143.431 137.5 143.398 137.5C143.364 137.5 143.331 137.5 143.298 137.5C143.265 137.5 143.232 137.5 143.198 137.5C143.165 137.5 143.132 137.5 143.099 137.5C143.066 137.5 143.033 137.5 142.999 137.5C142.966 137.5 142.933 137.5 142.9 137.5C142.867 137.5 142.834 137.5 142.801 137.5C142.768 137.5 142.735 137.5 142.702 137.5C142.669 137.5 142.636 137.5 142.603 137.5C142.57 137.5 142.537 137.5 142.504 137.5C142.471 137.5 142.438 137.5 142.405 137.5C142.372 137.5 142.34 137.5 142.307 137.5C142.274 137.5 142.241 137.5 142.208 137.5C142.175 137.5 142.143 137.5 142.11 137.5C142.077 137.5 142.044 137.5 142.012 137.5C141.979 137.5 141.946 137.5 141.913 137.5C141.881 137.5 141.848 137.5 141.815 137.5C141.783 137.5 141.75 137.5 141.718 137.5C141.685 137.5 141.652 137.5 141.62 137.5C141.587 137.5 141.555 137.5 141.522 137.5C141.49 137.5 141.457 137.5 141.425 137.5C141.392 137.5 141.36 137.5 141.327 137.5C141.295 137.5 141.262 137.5 141.23 137.5C141.198 137.5 141.165 137.5 141.133 137.5C141.101 137.5 141.068 137.5 141.036 137.5C141.004 137.5 140.971 137.5 140.939 137.5C140.907 137.5 140.875 137.5 140.843 137.5C140.81 137.5 140.778 137.5 140.746 137.5C140.714 137.5 140.682 137.5 140.65 137.5C140.617 137.5 140.585 137.5 140.553 137.5C140.521 137.5 140.489 137.5 140.457 137.5C140.425 137.5 140.393 137.5 140.361 137.5C140.329 137.5 140.297 137.5 140.265 137.5C140.233 137.5 140.202 137.5 140.17 137.5C140.138 137.5 140.106 137.5 140.074 137.5C140.042 137.5 140.011 137.5 139.979 137.5C139.947 137.5 139.915 137.5 139.884 137.5C139.852 137.5 139.82 137.5 139.788 137.5C139.757 137.5 139.725 137.5 139.694 137.5C139.662 137.5 139.63 137.5 139.599 137.5C139.567 137.5 139.536 137.5 139.504 137.5C139.473 137.5 139.441 137.5 139.41 137.5C139.378 137.5 139.347 137.5 139.315 137.5C139.284 137.5 139.253 137.5 139.221 137.5C139.19 137.5 139.159 137.5 139.127 137.5C139.096 137.5 139.065 137.5 139.034 137.5C139.002 137.5 138.971 137.5 138.94 137.5C138.909 137.5 138.878 137.5 138.846 137.5C138.815 137.5 138.784 137.5 138.753 137.5C138.722 137.5 138.691 137.5 138.66 137.5C138.629 137.5 138.598 137.5 138.567 137.5C138.536 137.5 138.505 137.5 138.474 137.5C138.443 137.5 138.413 137.5 138.382 137.5C138.351 137.5 138.32 137.5 138.289 137.5C138.259 137.5 138.228 137.5 138.197 137.5C138.166 137.5 138.136 137.5 138.105 137.5C138.074 137.5 138.044 137.5 138.013 137.5C137.983 137.5 137.952 137.5 137.921 137.5C137.891 137.5 137.86 137.5 137.83 137.5C137.799 137.5 137.769 137.5 137.739 137.5C137.708 137.5 137.678 137.5 137.647 137.5C137.617 137.5 137.587 137.5 137.556 137.5C137.526 137.5 137.496 137.5 137.466 137.5C137.435 137.5 137.405 137.5 137.375 137.5C137.345 137.5 137.315 137.5 137.285 137.5C137.255 137.5 137.225 137.5 137.195 137.5C137.165 137.5 137.135 137.5 137.105 137.5C137.075 137.5 137.045 137.5 137.015 137.5C136.985 137.5 136.955 137.5 136.925 137.5C136.895 137.5 136.866 137.5 136.836 137.5C136.806 137.5 136.776 137.5 136.747 137.5C136.717 137.5 136.687 137.5 136.658 137.5C136.628 137.5 136.598 137.5 136.569 137.5C136.539 137.5 136.51 137.5 136.48 137.5C136.451 137.5 136.421 137.5 136.392 137.5C136.362 137.5 136.333 137.5 136.304 137.5C136.274 137.5 136.245 137.5 136.216 137.5C136.186 137.5 136.157 137.5 136.128 137.5C136.099 137.5 136.07 137.5 136.04 137.5C136.011 137.5 135.982 137.5 135.953 137.5C135.924 137.5 135.895 137.5 135.866 137.5C135.837 137.5 135.808 137.5 135.779 137.5C135.75 137.5 135.721 137.5 135.692 137.5C135.664 137.5 135.635 137.5 135.606 137.5C135.577 137.5 135.548 137.5 135.52 137.5C135.491 137.5 135.462 137.5 135.434 137.5C135.405 137.5 135.376 137.5 135.348 137.5C135.319 137.5 135.291 137.5 135.262 137.5C135.234 137.5 135.205 137.5 135.177 137.5C135.149 137.5 135.12 137.5 135.092 137.5C135.064 137.5 135.035 137.5 135.007 137.5C134.979 137.5 134.951 137.5 134.922 137.5C134.894 137.5 134.866 137.5 134.838 137.5C134.81 137.5 134.782 137.5 134.754 137.5C134.726 137.5 134.698 137.5 134.67 137.5C134.642 137.5 134.614 137.5 134.586 137.5C134.558 137.5 134.53 137.5 134.503 137.5C134.475 137.5 134.447 137.5 134.419 137.5C134.392 137.5 134.364 137.5 134.336 137.5C134.309 137.5 134.281 137.5 134.254 137.5C134.226 137.5 134.199 137.5 134.171 137.5C134.144 137.5 134.116 137.5 134.089 137.5C134.062 137.5 134.034 137.5 134.007 137.5C133.98 137.5 133.952 137.5 133.925 137.5C133.898 137.5 133.871 137.5 133.844 137.5C133.817 137.5 133.789 137.5 133.762 137.5C133.735 137.5 133.708 137.5 133.681 137.5C133.654 137.5 133.628 137.5 133.601 137.5C133.574 137.5 133.547 137.5 133.52 137.5C133.493 137.5 133.467 137.5 133.44 137.5C133.413 137.5 133.387 137.5 133.36 137.5C133.333 137.5 133.307 137.5 133.28 137.5C133.254 137.5 133.227 137.5 133.201 137.5C133.174 137.5 133.148 137.5 133.122 137.5C133.095 137.5 133.069 137.5 133.043 137.5C133.016 137.5 132.99 137.5 132.964 137.5C132.938 137.5 132.912 137.5 132.886 137.5C132.859 137.5 132.833 137.5 132.807 137.5C132.781 137.5 132.755 137.5 132.73 137.5C132.704 137.5 132.678 137.5 132.652 137.5C132.626 137.5 132.6 137.5 132.575 137.5C132.549 137.5 132.523 137.5 132.498 137.5C132.472 137.5 132.446 137.5 132.421 137.5C132.395 137.5 132.37 137.5 132.344 137.5C132.319 137.5 132.293 137.5 132.268 137.5C132.243 137.5 132.217 137.5 132.192 137.5C132.167 137.5 132.142 137.5 132.116 137.5C132.091 137.5 132.066 137.5 132.041 137.5C132.016 137.5 131.991 137.5 131.966 137.5C131.941 137.5 131.916 137.5 131.891 137.5C131.866 137.5 131.841 137.5 131.817 137.5C131.792 137.5 131.767 137.5 131.742 137.5C131.718 137.5 131.693 137.5 131.669 137.5C131.644 137.5 131.619 137.5 131.595 137.5C131.57 137.5 131.546 137.5 131.521 137.5C131.497 137.5 131.473 137.5 131.448 137.5C131.424 137.5 131.4 137.5 131.376 137.5C131.351 137.5 131.327 137.5 131.303 137.5C131.279 137.5 131.255 137.5 131.231 137.5C131.207 137.5 131.183 137.5 131.159 137.5C131.135 137.5 131.111 137.5 131.088 137.5C131.064 137.5 131.04 137.5 131.016 137.5C130.993 137.5 130.969 137.5 130.945 137.5C130.922 137.5 130.898 137.5 130.875 137.5C130.851 137.5 130.828 137.5 130.804 137.5C130.781 137.5 130.758 137.5 130.734 137.5C130.711 137.5 130.688 137.5 130.664 137.5C130.641 137.5 130.618 137.5 130.595 137.5C130.572 137.5 130.549 137.5 130.526 137.5C130.503 137.5 130.48 137.5 130.457 137.5C130.434 137.5 130.411 137.5 130.389 137.5C130.366 137.5 130.343 137.5 130.32 137.5C130.298 137.5 130.275 137.5 130.253 137.5C130.23 137.5 130.208 137.5 130.185 137.5C130.163 137.5 130.14 137.5 130.118 137.5C130.096 137.5 130.073 137.5 130.051 137.5C130.029 137.5 130.007 137.5 129.984 137.5C129.962 137.5 129.94 137.5 129.918 137.5C129.896 137.5 129.874 137.5 129.852 137.5C129.83 137.5 129.808 137.5 129.787 137.5C129.765 137.5 129.743 137.5 129.721 137.5C129.7 137.5 129.678 137.5 129.657 137.5C129.635 137.5 129.613 137.5 129.592 137.5C129.57 137.5 129.549 137.5 129.528 137.5C129.506 137.5 129.485 137.5 129.464 137.5C129.442 137.5 129.421 137.5 129.4 137.5C129.379 137.5 129.358 137.5 129.337 137.5C129.316 137.5 129.295 137.5 129.274 137.5C129.253 137.5 129.232 137.5 129.211 137.5C129.191 137.5 129.17 137.5 129.149 137.5C129.128 137.5 129.108 137.5 129.087 137.5C129.067 137.5 129.046 137.5 129.026 137.5C129.005 137.5 128.985 137.5 128.965 137.5C128.944 137.5 128.924 137.5 128.904 137.5C128.883 137.5 128.863 137.5 128.843 137.5C128.823 137.5 128.803 137.5 128.783 137.5C128.763 137.5 128.743 137.5 128.723 137.5C128.703 137.5 128.684 137.5 128.664 137.5C128.644 137.5 128.624 137.5 128.605 137.5C128.585 137.5 128.566 137.5 128.546 137.5C128.527 137.5 128.507 137.5 128.488 137.5C128.468 137.5 128.449 137.5 128.43 137.5C128.41 137.5 128.391 137.5 128.372 137.5C128.353 137.5 128.334 137.5 128.315 137.5C128.296 137.5 128.277 137.5 128.258 137.5C128.239 137.5 128.22 137.5 128.201 137.5C128.182 137.5 128.164 137.5 128.145 137.5C128.126 137.5 128.108 137.5 128.089 137.5C128.071 137.5 128.052 137.5 128.034 137.5C128.015 137.5 127.997 137.5 127.979 137.5C127.96 137.5 127.942 137.5 127.924 137.5C127.906 137.5 127.888 137.5 127.87 137.5C127.852 137.5 127.834 137.5 127.816 137.5C127.798 137.5 127.78 137.5 127.762 137.5C127.744 137.5 127.727 137.5 127.709 137.5C127.691 137.5 127.674 137.5 127.656 137.5C127.639 137.5 127.621 137.5 127.604 137.5C127.586 137.5 127.569 137.5 127.552 137.5C127.534 137.5 127.517 137.5 127.5 137.5C127.483 137.5 127.466 137.5 127.449 137.5C127.432 137.5 127.415 137.5 127.398 137.5C127.381 137.5 127.364 137.5 127.347 137.5C127.33 137.5 127.314 137.5 127.297 137.5C127.28 137.5 127.264 137.5 127.247 137.5C127.231 137.5 127.214 137.5 127.198 137.5C127.182 137.5 127.165 137.5 127.149 137.5C127.133 137.5 127.117 137.5 127.1 137.5C127.084 137.5 127.068 137.5 127.052 137.5C127.036 137.5 127.02 137.5 127.005 137.5C126.989 137.5 126.973 137.5 126.957 137.5C126.941 137.5 126.926 137.5 126.91 137.5C126.895 137.5 126.879 137.5 126.864 137.5C126.848 137.5 126.833 137.5 126.818 137.5C126.802 137.5 126.787 137.5 126.772 137.5C126.757 137.5 126.741 137.5 126.726 137.5C126.711 137.5 126.696 137.5 126.681 137.5C126.667 137.5 126.652 137.5 126.637 137.5C126.622 137.5 126.607 137.5 126.593 137.5C126.578 137.5 126.564 137.5 126.549 137.5C126.535 137.5 126.52 137.5 126.506 137.5C126.491 137.5 126.477 137.5 126.463 137.5C126.449 137.5 126.435 137.5 126.421 137.5C126.406 137.5 126.392 137.5 126.378 137.5C126.365 137.5 126.351 137.5 126.337 137.5C126.323 137.5 126.309 137.5 126.296 137.5C126.282 137.5 126.268 137.5 126.255 137.5C126.241 137.5 126.228 137.5 126.215 137.5C126.201 137.5 126.188 137.5 126.175 137.5C126.161 137.5 126.148 137.5 126.135 137.5C126.122 137.5 126.109 137.5 126.096 137.5C126.083 137.5 126.07 137.5 126.057 137.5C126.045 137.5 126.032 137.5 126.019 137.5C126.007 137.5 125.994 137.5 125.981 137.5C125.969 137.5 125.956 137.5 125.944 137.5C125.932 137.5 125.919 137.5 125.907 137.5C125.895 137.5 125.883 137.5 125.871 137.5C125.859 137.5 125.847 137.5 125.835 137.5C125.823 137.5 125.811 137.5 125.799 137.5C125.787 137.5 125.776 137.5 125.764 137.5C125.752 137.5 125.741 137.5 125.729 137.5C125.718 137.5 125.706 137.5 125.695 137.5C125.684 137.5 125.672 137.5 125.661 137.5C125.65 137.5 125.639 137.5 125.628 137.5C125.617 137.5 125.606 137.5 125.595 137.5C125.584 137.5 125.573 137.5 125.562 137.5C125.551 137.5 125.541 137.5 125.53 137.5C125.52 137.5 125.509 137.5 125.499 137.5C125.488 137.5 125.478 137.5 125.468 137.5C125.457 137.5 125.447 137.5 125.437 137.5C125.427 137.5 125.417 137.5 125.407 137.5C125.397 137.5 125.387 137.5 125.377 137.5C125.367 137.5 125.357 137.5 125.348 137.5C125.338 137.5 125.328 137.5 125.319 137.5C125.309 137.5 125.3 137.5 125.29 137.5C125.281 137.5 125.272 137.5 125.262 137.5C125.253 137.5 125.244 137.5 125.235 137.5C125.226 137.5 125.217 137.5 125.208 137.5C125.199 137.5 125.19 137.5 125.182 137.5C125.173 137.5 125.164 137.5 125.155 137.5C125.147 137.5 125.138 137.5 125.13 137.5C125.121 137.5 125.113 137.5 125.105 137.5C125.097 137.5 125.088 137.5 125.08 137.5C125.072 137.5 125.064 137.5 125.056 137.5C125.048 137.5 125.04 137.5 125.032 137.5C125.025 137.5 125.017 137.5 125.009 137.5C125.002 137.5 124.994 137.5 124.986 137.5C124.979 137.5 124.972 137.5 124.964 137.5C124.957 137.5 124.95 137.5 124.942 137.5C124.935 137.5 124.928 137.5 124.921 137.5C124.914 137.5 124.907 137.5 124.9 137.5C124.894 137.5 124.887 137.5 124.88 137.5C124.873 137.5 124.867 137.5 124.86 137.5C124.854 137.5 124.847 137.5 124.841 137.5C124.835 137.5 124.828 137.5 124.822 137.5C124.816 137.5 124.81 137.5 124.804 137.5C124.798 137.5 124.792 137.5 124.786 137.5C124.78 137.5 124.774 137.5 124.769 137.5C124.763 137.5 124.757 137.5 124.752 137.5C124.746 137.5 124.741 137.5 124.735 137.5C124.73 137.5 124.725 137.5 124.72 137.5C124.714 137.5 124.709 137.5 124.704 137.5C124.699 137.5 124.694 137.5 124.689 137.5C124.684 137.5 124.68 137.5 124.675 137.5C124.67 137.5 124.666 137.5 124.661 137.5C124.657 137.5 124.652 137.5 124.648 137.5C124.643 137.5 124.639 137.5 124.635 137.5C124.631 137.5 124.627 137.5 124.623 137.5C124.619 137.5 124.615 137.5 124.611 137.5C124.607 137.5 124.603 137.5 124.6 137.5C124.596 137.5 124.592 137.5 124.589 137.5C124.585 137.5 124.582 137.5 124.579 137.5C124.575 137.5 124.572 137.5 124.569 137.5C124.566 137.5 124.563 137.5 124.56 137.5C124.557 137.5 124.554 137.5 124.551 137.5C124.548 137.5 124.545 137.5 124.543 137.5C124.54 137.5 124.537 137.5 124.535 137.5C124.533 137.5 124.53 137.5 124.528 137.5C124.526 137.5 124.523 137.5 124.521 137.5C124.519 137.5 124.517 137.5 124.515 137.5C124.513 137.5 124.511 137.5 124.51 137.5C124.508 137.5 124.506 137.5 124.505 137.5C124.503 137.5 124.501 137.5 124.5 137.5V138Z" fill="black"/>
<path d="M111.333 199C111.333 200.473 112.527 201.667 114 201.667C115.473 201.667 116.667 200.473 116.667 199C116.667 197.527 115.473 196.333 114 196.333C112.527 196.333 111.333 197.527 111.333 199ZM184.333 199C184.333 200.473 185.527 201.667 187 201.667C188.473 201.667 189.667 200.473 189.667 199C189.667 197.527 188.473 196.333 187 196.333C185.527 196.333 184.333 197.527 184.333 199ZM114 199V199.5C114.056 199.5 114.111 199.5 114.167 199.5C114.223 199.5 114.279 199.5 114.335 199.5C114.391 199.5 114.447 199.5 114.503 199.5C114.559 199.5 114.615 199.5 114.671 199.5C114.727 199.5 114.783 199.5 114.84 199.5C114.896 199.5 114.952 199.5 115.009 199.5C115.065 199.5 115.122 199.5 115.178 199.5C115.235 199.5 115.291 199.5 115.348 199.5C115.404 199.5 115.461 199.5 115.518 199.5C115.575 199.5 115.631 199.5 115.688 199.5C115.745 199.5 115.802 199.5 115.859 199.5C115.916 199.5 115.973 199.5 116.03 199.5C116.087 199.5 116.144 199.5 116.201 199.5C116.259 199.5 116.316 199.5 116.373 199.5C116.43 199.5 116.488 199.5 116.545 199.5C116.603 199.5 116.66 199.5 116.718 199.5C116.775 199.5 116.833 199.5 116.89 199.5C116.948 199.5 117.006 199.5 117.063 199.5C117.121 199.5 117.179 199.5 117.237 199.5C117.295 199.5 117.352 199.5 117.41 199.5C117.468 199.5 117.526 199.5 117.584 199.5C117.642 199.5 117.7 199.5 117.759 199.5C117.817 199.5 117.875 199.5 117.933 199.5C117.991 199.5 118.05 199.5 118.108 199.5C118.166 199.5 118.225 199.5 118.283 199.5C118.342 199.5 118.4 199.5 118.459 199.5C118.517 199.5 118.576 199.5 118.635 199.5C118.693 199.5 118.752 199.5 118.811 199.5C118.869 199.5 118.928 199.5 118.987 199.5C119.046 199.5 119.105 199.5 119.164 199.5C119.223 199.5 119.282 199.5 119.341 199.5C119.4 199.5 119.459 199.5 119.518 199.5C119.577 199.5 119.636 199.5 119.695 199.5C119.755 199.5 119.814 199.5 119.873 199.5C119.932 199.5 119.992 199.5 120.051 199.5C120.111 199.5 120.17 199.5 120.23 199.5C120.289 199.5 120.349 199.5 120.408 199.5C120.468 199.5 120.527 199.5 120.587 199.5C120.647 199.5 120.706 199.5 120.766 199.5C120.826 199.5 120.886 199.5 120.945 199.5C121.005 199.5 121.065 199.5 121.125 199.5C121.185 199.5 121.245 199.5 121.305 199.5C121.365 199.5 121.425 199.5 121.485 199.5C121.545 199.5 121.605 199.5 121.666 199.5C121.726 199.5 121.786 199.5 121.846 199.5C121.906 199.5 121.967 199.5 122.027 199.5C122.087 199.5 122.148 199.5 122.208 199.5C122.269 199.5 122.329 199.5 122.39 199.5C122.45 199.5 122.511 199.5 122.571 199.5C122.632 199.5 122.692 199.5 122.753 199.5C122.814 199.5 122.874 199.5 122.935 199.5C122.996 199.5 123.057 199.5 123.117 199.5C123.178 199.5 123.239 199.5 123.3 199.5C123.361 199.5 123.422 199.5 123.483 199.5C123.544 199.5 123.605 199.5 123.666 199.5C123.727 199.5 123.788 199.5 123.849 199.5C123.91 199.5 123.971 199.5 124.032 199.5C124.093 199.5 124.155 199.5 124.216 199.5C124.277 199.5 124.338 199.5 124.4 199.5C124.461 199.5 124.522 199.5 124.584 199.5C124.645 199.5 124.706 199.5 124.768 199.5C124.829 199.5 124.891 199.5 124.952 199.5C125.014 199.5 125.075 199.5 125.137 199.5C125.198 199.5 125.26 199.5 125.322 199.5C125.383 199.5 125.445 199.5 125.507 199.5C125.568 199.5 125.63 199.5 125.692 199.5C125.754 199.5 125.815 199.5 125.877 199.5C125.939 199.5 126.001 199.5 126.063 199.5C126.125 199.5 126.187 199.5 126.249 199.5C126.311 199.5 126.373 199.5 126.435 199.5C126.497 199.5 126.559 199.5 126.621 199.5C126.683 199.5 126.745 199.5 126.807 199.5C126.869 199.5 126.931 199.5 126.993 199.5C127.056 199.5 127.118 199.5 127.18 199.5C127.242 199.5 127.305 199.5 127.367 199.5C127.429 199.5 127.491 199.5 127.554 199.5C127.616 199.5 127.679 199.5 127.741 199.5C127.803 199.5 127.866 199.5 127.928 199.5C127.991 199.5 128.053 199.5 128.116 199.5C128.178 199.5 128.241 199.5 128.303 199.5C128.366 199.5 128.428 199.5 128.491 199.5C128.554 199.5 128.616 199.5 128.679 199.5C128.741 199.5 128.804 199.5 128.867 199.5C128.93 199.5 128.992 199.5 129.055 199.5C129.118 199.5 129.181 199.5 129.243 199.5C129.306 199.5 129.369 199.5 129.432 199.5C129.495 199.5 129.557 199.5 129.62 199.5C129.683 199.5 129.746 199.5 129.809 199.5C129.872 199.5 129.935 199.5 129.998 199.5C130.061 199.5 130.124 199.5 130.187 199.5C130.25 199.5 130.313 199.5 130.376 199.5C130.439 199.5 130.502 199.5 130.565 199.5C130.628 199.5 130.691 199.5 130.754 199.5C130.818 199.5 130.881 199.5 130.944 199.5C131.007 199.5 131.07 199.5 131.133 199.5C131.197 199.5 131.26 199.5 131.323 199.5C131.386 199.5 131.45 199.5 131.513 199.5C131.576 199.5 131.639 199.5 131.703 199.5C131.766 199.5 131.829 199.5 131.893 199.5C131.956 199.5 132.019 199.5 132.083 199.5C132.146 199.5 132.209 199.5 132.273 199.5C132.336 199.5 132.4 199.5 132.463 199.5C132.526 199.5 132.59 199.5 132.653 199.5C132.717 199.5 132.78 199.5 132.844 199.5C132.907 199.5 132.971 199.5 133.034 199.5C133.098 199.5 133.161 199.5 133.225 199.5C133.288 199.5 133.352 199.5 133.416 199.5C133.479 199.5 133.543 199.5 133.606 199.5C133.67 199.5 133.734 199.5 133.797 199.5C133.861 199.5 133.924 199.5 133.988 199.5C134.052 199.5 134.115 199.5 134.179 199.5C134.243 199.5 134.306 199.5 134.37 199.5C134.434 199.5 134.497 199.5 134.561 199.5C134.625 199.5 134.689 199.5 134.752 199.5C134.816 199.5 134.88 199.5 134.943 199.5C135.007 199.5 135.071 199.5 135.135 199.5C135.198 199.5 135.262 199.5 135.326 199.5C135.39 199.5 135.454 199.5 135.517 199.5C135.581 199.5 135.645 199.5 135.709 199.5C135.773 199.5 135.836 199.5 135.9 199.5C135.964 199.5 136.028 199.5 136.092 199.5C136.156 199.5 136.219 199.5 136.283 199.5C136.347 199.5 136.411 199.5 136.475 199.5C136.539 199.5 136.603 199.5 136.666 199.5C136.73 199.5 136.794 199.5 136.858 199.5C136.922 199.5 136.986 199.5 137.05 199.5C137.114 199.5 137.178 199.5 137.241 199.5C137.305 199.5 137.369 199.5 137.433 199.5C137.497 199.5 137.561 199.5 137.625 199.5C137.689 199.5 137.753 199.5 137.817 199.5C137.881 199.5 137.944 199.5 138.008 199.5C138.072 199.5 138.136 199.5 138.2 199.5C138.264 199.5 138.328 199.5 138.392 199.5C138.456 199.5 138.52 199.5 138.584 199.5C138.648 199.5 138.712 199.5 138.776 199.5C138.839 199.5 138.903 199.5 138.967 199.5C139.031 199.5 139.095 199.5 139.159 199.5C139.223 199.5 139.287 199.5 139.351 199.5C139.415 199.5 139.479 199.5 139.543 199.5C139.607 199.5 139.671 199.5 139.734 199.5C139.798 199.5 139.862 199.5 139.926 199.5C139.99 199.5 140.054 199.5 140.118 199.5C140.182 199.5 140.246 199.5 140.31 199.5C140.374 199.5 140.437 199.5 140.501 199.5C140.565 199.5 140.629 199.5 140.693 199.5C140.757 199.5 140.821 199.5 140.885 199.5C140.949 199.5 141.012 199.5 141.076 199.5C141.14 199.5 141.204 199.5 141.268 199.5C141.332 199.5 141.396 199.5 141.459 199.5C141.523 199.5 141.587 199.5 141.651 199.5C141.715 199.5 141.779 199.5 141.843 199.5C141.906 199.5 141.97 199.5 142.034 199.5C142.098 199.5 142.162 199.5 142.225 199.5C142.289 199.5 142.353 199.5 142.417 199.5C142.48 199.5 142.544 199.5 142.608 199.5C142.672 199.5 142.735 199.5 142.799 199.5C142.863 199.5 142.927 199.5 142.99 199.5C143.054 199.5 143.118 199.5 143.182 199.5C143.245 199.5 143.309 199.5 143.373 199.5C143.436 199.5 143.5 199.5 143.564 199.5C143.627 199.5 143.691 199.5 143.755 199.5C143.818 199.5 143.882 199.5 143.945 199.5C144.009 199.5 144.073 199.5 144.136 199.5C144.2 199.5 144.263 199.5 144.327 199.5C144.39 199.5 144.454 199.5 144.518 199.5C144.581 199.5 144.645 199.5 144.708 199.5C144.772 199.5 144.835 199.5 144.899 199.5C144.962 199.5 145.026 199.5 145.089 199.5C145.152 199.5 145.216 199.5 145.279 199.5C145.343 199.5 145.406 199.5 145.47 199.5C145.533 199.5 145.596 199.5 145.66 199.5C145.723 199.5 145.786 199.5 145.85 199.5C145.913 199.5 145.976 199.5 146.04 199.5C146.103 199.5 146.166 199.5 146.229 199.5C146.293 199.5 146.356 199.5 146.419 199.5C146.482 199.5 146.546 199.5 146.609 199.5C146.672 199.5 146.735 199.5 146.798 199.5C146.861 199.5 146.925 199.5 146.988 199.5C147.051 199.5 147.114 199.5 147.177 199.5C147.24 199.5 147.303 199.5 147.366 199.5C147.429 199.5 147.492 199.5 147.555 199.5C147.618 199.5 147.681 199.5 147.744 199.5C147.807 199.5 147.87 199.5 147.933 199.5C147.996 199.5 148.059 199.5 148.121 199.5C148.184 199.5 148.247 199.5 148.31 199.5C148.373 199.5 148.436 199.5 148.498 199.5C148.561 199.5 148.624 199.5 148.687 199.5C148.749 199.5 148.812 199.5 148.875 199.5C148.937 199.5 149 199.5 149.063 199.5C149.125 199.5 149.188 199.5 149.251 199.5C149.313 199.5 149.376 199.5 149.438 199.5C149.501 199.5 149.563 199.5 149.626 199.5C149.688 199.5 149.751 199.5 149.813 199.5C149.876 199.5 149.938 199.5 150 199.5C150.063 199.5 150.125 199.5 150.187 199.5C150.25 199.5 150.312 199.5 150.374 199.5C150.437 199.5 150.499 199.5 150.561 199.5C150.623 199.5 150.685 199.5 150.748 199.5C150.81 199.5 150.872 199.5 150.934 199.5C150.996 199.5 151.058 199.5 151.12 199.5C151.182 199.5 151.244 199.5 151.306 199.5C151.368 199.5 151.43 199.5 151.492 199.5C151.554 199.5 151.616 199.5 151.678 199.5C151.74 199.5 151.801 199.5 151.863 199.5C151.925 199.5 151.987 199.5 152.049 199.5C152.11 199.5 152.172 199.5 152.234 199.5C152.295 199.5 152.357 199.5 152.419 199.5C152.48 199.5 152.542 199.5 152.603 199.5C152.665 199.5 152.727 199.5 152.788 199.5C152.849 199.5 152.911 199.5 152.972 199.5C153.034 199.5 153.095 199.5 153.157 199.5C153.218 199.5 153.279 199.5 153.34 199.5C153.402 199.5 153.463 199.5 153.524 199.5C153.585 199.5 153.647 199.5 153.708 199.5C153.769 199.5 153.83 199.5 153.891 199.5C153.952 199.5 154.013 199.5 154.074 199.5C154.135 199.5 154.196 199.5 154.257 199.5C154.318 199.5 154.379 199.5 154.44 199.5C154.501 199.5 154.561 199.5 154.622 199.5C154.683 199.5 154.744 199.5 154.804 199.5C154.865 199.5 154.926 199.5 154.986 199.5C155.047 199.5 155.108 199.5 155.168 199.5C155.229 199.5 155.289 199.5 155.35 199.5C155.41 199.5 155.471 199.5 155.531 199.5C155.591 199.5 155.652 199.5 155.712 199.5C155.772 199.5 155.833 199.5 155.893 199.5C155.953 199.5 156.013 199.5 156.073 199.5C156.133 199.5 156.194 199.5 156.254 199.5C156.314 199.5 156.374 199.5 156.434 199.5C156.494 199.5 156.554 199.5 156.613 199.5C156.673 199.5 156.733 199.5 156.793 199.5C156.853 199.5 156.913 199.5 156.972 199.5C157.032 199.5 157.092 199.5 157.151 199.5C157.211 199.5 157.271 199.5 157.33 199.5C157.39 199.5 157.449 199.5 157.509 199.5C157.568 199.5 157.627 199.5 157.687 199.5C157.746 199.5 157.806 199.5 157.865 199.5C157.924 199.5 157.983 199.5 158.042 199.5C158.102 199.5 158.161 199.5 158.22 199.5C158.279 199.5 158.338 199.5 158.397 199.5C158.456 199.5 158.515 199.5 158.574 199.5C158.633 199.5 158.692 199.5 158.75 199.5C158.809 199.5 158.868 199.5 158.927 199.5C158.985 199.5 159.044 199.5 159.103 199.5C159.161 199.5 159.22 199.5 159.278 199.5C159.337 199.5 159.395 199.5 159.454 199.5C159.512 199.5 159.57 199.5 159.629 199.5C159.687 199.5 159.745 199.5 159.804 199.5C159.862 199.5 159.92 199.5 159.978 199.5C160.036 199.5 160.094 199.5 160.152 199.5C160.21 199.5 160.268 199.5 160.326 199.5C160.384 199.5 160.442 199.5 160.5 199.5C160.557 199.5 160.615 199.5 160.673 199.5C160.731 199.5 160.788 199.5 160.846 199.5C160.903 199.5 160.961 199.5 161.018 199.5C161.076 199.5 161.133 199.5 161.191 199.5C161.248 199.5 161.305 199.5 161.363 199.5C161.42 199.5 161.477 199.5 161.534 199.5C161.591 199.5 161.648 199.5 161.705 199.5C161.762 199.5 161.819 199.5 161.876 199.5C161.933 199.5 161.99 199.5 162.047 199.5C162.104 199.5 162.161 199.5 162.217 199.5C162.274 199.5 162.331 199.5 162.387 199.5C162.444 199.5 162.5 199.5 162.557 199.5C162.613 199.5 162.67 199.5 162.726 199.5C162.782 199.5 162.839 199.5 162.895 199.5C162.951 199.5 163.007 199.5 163.063 199.5C163.12 199.5 163.176 199.5 163.232 199.5C163.288 199.5 163.344 199.5 163.399 199.5C163.455 199.5 163.511 199.5 163.567 199.5C163.623 199.5 163.678 199.5 163.734 199.5C163.79 199.5 163.845 199.5 163.901 199.5C163.956 199.5 164.012 199.5 164.067 199.5C164.122 199.5 164.178 199.5 164.233 199.5C164.288 199.5 164.344 199.5 164.399 199.5C164.454 199.5 164.509 199.5 164.564 199.5C164.619 199.5 164.674 199.5 164.729 199.5C164.784 199.5 164.838 199.5 164.893 199.5C164.948 199.5 165.003 199.5 165.057 199.5C165.112 199.5 165.166 199.5 165.221 199.5C165.275 199.5 165.33 199.5 165.384 199.5C165.439 199.5 165.493 199.5 165.547 199.5C165.601 199.5 165.656 199.5 165.71 199.5C165.764 199.5 165.818 199.5 165.872 199.5C165.926 199.5 165.98 199.5 166.034 199.5C166.087 199.5 166.141 199.5 166.195 199.5C166.249 199.5 166.302 199.5 166.356 199.5C166.409 199.5 166.463 199.5 166.516 199.5C166.57 199.5 166.623 199.5 166.676 199.5C166.73 199.5 166.783 199.5 166.836 199.5C166.889 199.5 166.942 199.5 166.995 199.5C167.048 199.5 167.101 199.5 167.154 199.5C167.207 199.5 167.26 199.5 167.312 199.5C167.365 199.5 167.418 199.5 167.47 199.5C167.523 199.5 167.575 199.5 167.628 199.5C167.68 199.5 167.733 199.5 167.785 199.5C167.837 199.5 167.89 199.5 167.942 199.5C167.994 199.5 168.046 199.5 168.098 199.5C168.15 199.5 168.202 199.5 168.254 199.5C168.306 199.5 168.357 199.5 168.409 199.5C168.461 199.5 168.512 199.5 168.564 199.5C168.616 199.5 168.667 199.5 168.718 199.5C168.77 199.5 168.821 199.5 168.873 199.5C168.924 199.5 168.975 199.5 169.026 199.5C169.077 199.5 169.128 199.5 169.179 199.5C169.23 199.5 169.281 199.5 169.332 199.5C169.383 199.5 169.433 199.5 169.484 199.5C169.535 199.5 169.585 199.5 169.636 199.5C169.686 199.5 169.737 199.5 169.787 199.5C169.837 199.5 169.888 199.5 169.938 199.5C169.988 199.5 170.038 199.5 170.088 199.5C170.138 199.5 170.188 199.5 170.238 199.5C170.288 199.5 170.338 199.5 170.387 199.5C170.437 199.5 170.487 199.5 170.536 199.5C170.586 199.5 170.635 199.5 170.685 199.5C170.734 199.5 170.783 199.5 170.832 199.5C170.882 199.5 170.931 199.5 170.98 199.5C171.029 199.5 171.078 199.5 171.127 199.5C171.176 199.5 171.225 199.5 171.273 199.5C171.322 199.5 171.371 199.5 171.419 199.5C171.468 199.5 171.516 199.5 171.565 199.5C171.613 199.5 171.661 199.5 171.71 199.5C171.758 199.5 171.806 199.5 171.854 199.5C171.902 199.5 171.95 199.5 171.998 199.5C172.046 199.5 172.094 199.5 172.141 199.5C172.189 199.5 172.237 199.5 172.284 199.5C172.332 199.5 172.379 199.5 172.427 199.5C172.474 199.5 172.521 199.5 172.568 199.5C172.616 199.5 172.663 199.5 172.71 199.5C172.757 199.5 172.804 199.5 172.851 199.5C172.898 199.5 172.944 199.5 172.991 199.5C173.038 199.5 173.084 199.5 173.131 199.5C173.177 199.5 173.224 199.5 173.27 199.5C173.316 199.5 173.363 199.5 173.409 199.5C173.455 199.5 173.501 199.5 173.547 199.5C173.593 199.5 173.639 199.5 173.684 199.5C173.73 199.5 173.776 199.5 173.822 199.5C173.867 199.5 173.913 199.5 173.958 199.5C174.004 199.5 174.049 199.5 174.094 199.5C174.139 199.5 174.184 199.5 174.23 199.5C174.275 199.5 174.32 199.5 174.364 199.5C174.409 199.5 174.454 199.5 174.499 199.5C174.543 199.5 174.588 199.5 174.633 199.5C174.677 199.5 174.721 199.5 174.766 199.5C174.81 199.5 174.854 199.5 174.898 199.5C174.942 199.5 174.987 199.5 175.03 199.5C175.074 199.5 175.118 199.5 175.162 199.5C175.206 199.5 175.249 199.5 175.293 199.5C175.336 199.5 175.38 199.5 175.423 199.5C175.467 199.5 175.51 199.5 175.553 199.5C175.596 199.5 175.639 199.5 175.682 199.5C175.725 199.5 175.768 199.5 175.811 199.5C175.854 199.5 175.896 199.5 175.939 199.5C175.981 199.5 176.024 199.5 176.066 199.5C176.109 199.5 176.151 199.5 176.193 199.5C176.235 199.5 176.277 199.5 176.319 199.5C176.361 199.5 176.403 199.5 176.445 199.5C176.487 199.5 176.529 199.5 176.57 199.5C176.612 199.5 176.653 199.5 176.695 199.5C176.736 199.5 176.777 199.5 176.819 199.5C176.86 199.5 176.901 199.5 176.942 199.5C176.983 199.5 177.024 199.5 177.064 199.5C177.105 199.5 177.146 199.5 177.186 199.5C177.227 199.5 177.268 199.5 177.308 199.5C177.348 199.5 177.389 199.5 177.429 199.5C177.469 199.5 177.509 199.5 177.549 199.5C177.589 199.5 177.629 199.5 177.668 199.5C177.708 199.5 177.748 199.5 177.787 199.5C177.827 199.5 177.866 199.5 177.906 199.5C177.945 199.5 177.984 199.5 178.023 199.5C178.062 199.5 178.101 199.5 178.14 199.5C178.179 199.5 178.218 199.5 178.257 199.5C178.295 199.5 178.334 199.5 178.372 199.5C178.411 199.5 178.449 199.5 178.488 199.5C178.526 199.5 178.564 199.5 178.602 199.5C178.64 199.5 178.678 199.5 178.716 199.5C178.754 199.5 178.791 199.5 178.829 199.5C178.867 199.5 178.904 199.5 178.942 199.5C178.979 199.5 179.016 199.5 179.053 199.5C179.091 199.5 179.128 199.5 179.165 199.5C179.202 199.5 179.238 199.5 179.275 199.5C179.312 199.5 179.348 199.5 179.385 199.5C179.422 199.5 179.458 199.5 179.494 199.5C179.53 199.5 179.567 199.5 179.603 199.5C179.639 199.5 179.675 199.5 179.711 199.5C179.746 199.5 179.782 199.5 179.818 199.5C179.853 199.5 179.889 199.5 179.924 199.5C179.96 199.5 179.995 199.5 180.03 199.5C180.065 199.5 180.1 199.5 180.135 199.5C180.17 199.5 180.205 199.5 180.24 199.5C180.274 199.5 180.309 199.5 180.343 199.5C180.378 199.5 180.412 199.5 180.447 199.5C180.481 199.5 180.515 199.5 180.549 199.5C180.583 199.5 180.617 199.5 180.651 199.5C180.684 199.5 180.718 199.5 180.752 199.5C180.785 199.5 180.819 199.5 180.852 199.5C180.885 199.5 180.918 199.5 180.952 199.5C180.985 199.5 181.018 199.5 181.05 199.5C181.083 199.5 181.116 199.5 181.149 199.5C181.181 199.5 181.214 199.5 181.246 199.5C181.278 199.5 181.311 199.5 181.343 199.5C181.375 199.5 181.407 199.5 181.439 199.5C181.471 199.5 181.502 199.5 181.534 199.5C181.566 199.5 181.597 199.5 181.629 199.5C181.66 199.5 181.691 199.5 181.723 199.5C181.754 199.5 181.785 199.5 181.816 199.5C181.847 199.5 181.877 199.5 181.908 199.5C181.939 199.5 181.969 199.5 182 199.5C182.03 199.5 182.06 199.5 182.091 199.5C182.121 199.5 182.151 199.5 182.181 199.5C182.211 199.5 182.241 199.5 182.27 199.5C182.3 199.5 182.329 199.5 182.359 199.5C182.388 199.5 182.418 199.5 182.447 199.5C182.476 199.5 182.505 199.5 182.534 199.5C182.563 199.5 182.592 199.5 182.62 199.5C182.649 199.5 182.678 199.5 182.706 199.5C182.735 199.5 182.763 199.5 182.791 199.5C182.819 199.5 182.847 199.5 182.875 199.5C182.903 199.5 182.931 199.5 182.959 199.5C182.986 199.5 183.014 199.5 183.041 199.5C183.069 199.5 183.096 199.5 183.123 199.5C183.15 199.5 183.177 199.5 183.204 199.5C183.231 199.5 183.258 199.5 183.285 199.5C183.311 199.5 183.338 199.5 183.364 199.5C183.39 199.5 183.417 199.5 183.443 199.5C183.469 199.5 183.495 199.5 183.521 199.5C183.547 199.5 183.572 199.5 183.598 199.5C183.624 199.5 183.649 199.5 183.674 199.5C183.7 199.5 183.725 199.5 183.75 199.5C183.775 199.5 183.8 199.5 183.825 199.5C183.85 199.5 183.874 199.5 183.899 199.5C183.923 199.5 183.948 199.5 183.972 199.5C183.996 199.5 184.02 199.5 184.044 199.5C184.068 199.5 184.092 199.5 184.116 199.5C184.14 199.5 184.163 199.5 184.187 199.5C184.21 199.5 184.234 199.5 184.257 199.5C184.28 199.5 184.303 199.5 184.326 199.5C184.349 199.5 184.372 199.5 184.394 199.5C184.417 199.5 184.44 199.5 184.462 199.5C184.484 199.5 184.507 199.5 184.529 199.5C184.551 199.5 184.573 199.5 184.595 199.5C184.616 199.5 184.638 199.5 184.66 199.5C184.681 199.5 184.703 199.5 184.724 199.5C184.745 199.5 184.766 199.5 184.787 199.5C184.808 199.5 184.829 199.5 184.85 199.5C184.871 199.5 184.891 199.5 184.912 199.5C184.932 199.5 184.952 199.5 184.973 199.5C184.993 199.5 185.013 199.5 185.033 199.5C185.052 199.5 185.072 199.5 185.092 199.5C185.111 199.5 185.131 199.5 185.15 199.5C185.169 199.5 185.189 199.5 185.208 199.5C185.227 199.5 185.246 199.5 185.264 199.5C185.283 199.5 185.302 199.5 185.32 199.5C185.339 199.5 185.357 199.5 185.375 199.5C185.393 199.5 185.411 199.5 185.429 199.5C185.447 199.5 185.465 199.5 185.482 199.5C185.5 199.5 185.517 199.5 185.535 199.5C185.552 199.5 185.569 199.5 185.586 199.5C185.603 199.5 185.62 199.5 185.637 199.5C185.654 199.5 185.67 199.5 185.687 199.5C185.703 199.5 185.719 199.5 185.735 199.5C185.752 199.5 185.768 199.5 185.783 199.5C185.799 199.5 185.815 199.5 185.83 199.5C185.846 199.5 185.861 199.5 185.877 199.5C185.892 199.5 185.907 199.5 185.922 199.5C185.937 199.5 185.952 199.5 185.966 199.5C185.981 199.5 185.996 199.5 186.01 199.5C186.024 199.5 186.039 199.5 186.053 199.5C186.067 199.5 186.081 199.5 186.094 199.5C186.108 199.5 186.122 199.5 186.135 199.5C186.149 199.5 186.162 199.5 186.175 199.5C186.188 199.5 186.201 199.5 186.214 199.5C186.227 199.5 186.24 199.5 186.252 199.5C186.265 199.5 186.277 199.5 186.289 199.5C186.302 199.5 186.314 199.5 186.326 199.5C186.338 199.5 186.35 199.5 186.361 199.5C186.373 199.5 186.384 199.5 186.396 199.5C186.407 199.5 186.418 199.5 186.429 199.5C186.44 199.5 186.451 199.5 186.462 199.5C186.472 199.5 186.483 199.5 186.493 199.5C186.504 199.5 186.514 199.5 186.524 199.5C186.534 199.5 186.544 199.5 186.554 199.5C186.564 199.5 186.573 199.5 186.583 199.5C186.592 199.5 186.602 199.5 186.611 199.5C186.62 199.5 186.629 199.5 186.638 199.5C186.647 199.5 186.655 199.5 186.664 199.5C186.672 199.5 186.681 199.5 186.689 199.5C186.697 199.5 186.705 199.5 186.713 199.5C186.721 199.5 186.729 199.5 186.736 199.5C186.744 199.5 186.751 199.5 186.758 199.5C186.766 199.5 186.773 199.5 186.78 199.5C186.787 199.5 186.793 199.5 186.8 199.5C186.807 199.5 186.813 199.5 186.819 199.5C186.826 199.5 186.832 199.5 186.838 199.5C186.844 199.5 186.849 199.5 186.855 199.5C186.861 199.5 186.866 199.5 186.871 199.5C186.877 199.5 186.882 199.5 186.887 199.5C186.892 199.5 186.897 199.5 186.901 199.5C186.906 199.5 186.911 199.5 186.915 199.5C186.919 199.5 186.923 199.5 186.927 199.5C186.931 199.5 186.935 199.5 186.939 199.5C186.943 199.5 186.946 199.5 186.95 199.5C186.953 199.5 186.956 199.5 186.959 199.5C186.962 199.5 186.965 199.5 186.968 199.5C186.97 199.5 186.973 199.5 186.975 199.5C186.978 199.5 186.98 199.5 186.982 199.5C186.984 199.5 186.986 199.5 186.987 199.5C186.989 199.5 186.991 199.5 186.992 199.5C186.993 199.5 186.994 199.5 186.995 199.5C186.996 199.5 186.997 199.5 186.998 199.5C186.999 199.5 186.999 199.5 186.999 199.5C187 199.5 187 199.5 187 199C187 198.5 187 198.5 186.999 198.5C186.999 198.5 186.999 198.5 186.998 198.5C186.997 198.5 186.996 198.5 186.995 198.5C186.994 198.5 186.993 198.5 186.992 198.5C186.991 198.5 186.989 198.5 186.987 198.5C186.986 198.5 186.984 198.5 186.982 198.5C186.98 198.5 186.978 198.5 186.975 198.5C186.973 198.5 186.97 198.5 186.968 198.5C186.965 198.5 186.962 198.5 186.959 198.5C186.956 198.5 186.953 198.5 186.95 198.5C186.946 198.5 186.943 198.5 186.939 198.5C186.935 198.5 186.931 198.5 186.927 198.5C186.923 198.5 186.919 198.5 186.915 198.5C186.911 198.5 186.906 198.5 186.901 198.5C186.897 198.5 186.892 198.5 186.887 198.5C186.882 198.5 186.877 198.5 186.871 198.5C186.866 198.5 186.861 198.5 186.855 198.5C186.849 198.5 186.844 198.5 186.838 198.5C186.832 198.5 186.826 198.5 186.819 198.5C186.813 198.5 186.807 198.5 186.8 198.5C186.793 198.5 186.787 198.5 186.78 198.5C186.773 198.5 186.766 198.5 186.758 198.5C186.751 198.5 186.744 198.5 186.736 198.5C186.729 198.5 186.721 198.5 186.713 198.5C186.705 198.5 186.697 198.5 186.689 198.5C186.681 198.5 186.672 198.5 186.664 198.5C186.655 198.5 186.647 198.5 186.638 198.5C186.629 198.5 186.62 198.5 186.611 198.5C186.602 198.5 186.592 198.5 186.583 198.5C186.573 198.5 186.564 198.5 186.554 198.5C186.544 198.5 186.534 198.5 186.524 198.5C186.514 198.5 186.504 198.5 186.493 198.5C186.483 198.5 186.472 198.5 186.462 198.5C186.451 198.5 186.44 198.5 186.429 198.5C186.418 198.5 186.407 198.5 186.396 198.5C186.384 198.5 186.373 198.5 186.361 198.5C186.35 198.5 186.338 198.5 186.326 198.5C186.314 198.5 186.302 198.5 186.289 198.5C186.277 198.5 186.265 198.5 186.252 198.5C186.24 198.5 186.227 198.5 186.214 198.5C186.201 198.5 186.188 198.5 186.175 198.5C186.162 198.5 186.149 198.5 186.135 198.5C186.122 198.5 186.108 198.5 186.094 198.5C186.081 198.5 186.067 198.5 186.053 198.5C186.039 198.5 186.024 198.5 186.01 198.5C185.996 198.5 185.981 198.5 185.966 198.5C185.952 198.5 185.937 198.5 185.922 198.5C185.907 198.5 185.892 198.5 185.877 198.5C185.861 198.5 185.846 198.5 185.83 198.5C185.815 198.5 185.799 198.5 185.783 198.5C185.768 198.5 185.752 198.5 185.735 198.5C185.719 198.5 185.703 198.5 185.687 198.5C185.67 198.5 185.654 198.5 185.637 198.5C185.62 198.5 185.603 198.5 185.586 198.5C185.569 198.5 185.552 198.5 185.535 198.5C185.517 198.5 185.5 198.5 185.482 198.5C185.465 198.5 185.447 198.5 185.429 198.5C185.411 198.5 185.393 198.5 185.375 198.5C185.357 198.5 185.339 198.5 185.32 198.5C185.302 198.5 185.283 198.5 185.264 198.5C185.246 198.5 185.227 198.5 185.208 198.5C185.189 198.5 185.169 198.5 185.15 198.5C185.131 198.5 185.111 198.5 185.092 198.5C185.072 198.5 185.052 198.5 185.033 198.5C185.013 198.5 184.993 198.5 184.973 198.5C184.952 198.5 184.932 198.5 184.912 198.5C184.891 198.5 184.871 198.5 184.85 198.5C184.829 198.5 184.808 198.5 184.787 198.5C184.766 198.5 184.745 198.5 184.724 198.5C184.703 198.5 184.681 198.5 184.66 198.5C184.638 198.5 184.616 198.5 184.595 198.5C184.573 198.5 184.551 198.5 184.529 198.5C184.507 198.5 184.484 198.5 184.462 198.5C184.44 198.5 184.417 198.5 184.394 198.5C184.372 198.5 184.349 198.5 184.326 198.5C184.303 198.5 184.28 198.5 184.257 198.5C184.234 198.5 184.21 198.5 184.187 198.5C184.163 198.5 184.14 198.5 184.116 198.5C184.092 198.5 184.068 198.5 184.044 198.5C184.02 198.5 183.996 198.5 183.972 198.5C183.948 198.5 183.923 198.5 183.899 198.5C183.874 198.5 183.85 198.5 183.825 198.5C183.8 198.5 183.775 198.5 183.75 198.5C183.725 198.5 183.7 198.5 183.674 198.5C183.649 198.5 183.624 198.5 183.598 198.5C183.572 198.5 183.547 198.5 183.521 198.5C183.495 198.5 183.469 198.5 183.443 198.5C183.417 198.5 183.39 198.5 183.364 198.5C183.338 198.5 183.311 198.5 183.285 198.5C183.258 198.5 183.231 198.5 183.204 198.5C183.177 198.5 183.15 198.5 183.123 198.5C183.096 198.5 183.069 198.5 183.041 198.5C183.014 198.5 182.986 198.5 182.959 198.5C182.931 198.5 182.903 198.5 182.875 198.5C182.847 198.5 182.819 198.5 182.791 198.5C182.763 198.5 182.735 198.5 182.706 198.5C182.678 198.5 182.649 198.5 182.62 198.5C182.592 198.5 182.563 198.5 182.534 198.5C182.505 198.5 182.476 198.5 182.447 198.5C182.418 198.5 182.388 198.5 182.359 198.5C182.329 198.5 182.3 198.5 182.27 198.5C182.241 198.5 182.211 198.5 182.181 198.5C182.151 198.5 182.121 198.5 182.091 198.5C182.06 198.5 182.03 198.5 182 198.5C181.969 198.5 181.939 198.5 181.908 198.5C181.877 198.5 181.847 198.5 181.816 198.5C181.785 198.5 181.754 198.5 181.723 198.5C181.691 198.5 181.66 198.5 181.629 198.5C181.597 198.5 181.566 198.5 181.534 198.5C181.502 198.5 181.471 198.5 181.439 198.5C181.407 198.5 181.375 198.5 181.343 198.5C181.311 198.5 181.278 198.5 181.246 198.5C181.214 198.5 181.181 198.5 181.149 198.5C181.116 198.5 181.083 198.5 181.05 198.5C181.018 198.5 180.985 198.5 180.952 198.5C180.918 198.5 180.885 198.5 180.852 198.5C180.819 198.5 180.785 198.5 180.752 198.5C180.718 198.5 180.684 198.5 180.651 198.5C180.617 198.5 180.583 198.5 180.549 198.5C180.515 198.5 180.481 198.5 180.447 198.5C180.412 198.5 180.378 198.5 180.343 198.5C180.309 198.5 180.274 198.5 180.24 198.5C180.205 198.5 180.17 198.5 180.135 198.5C180.1 198.5 180.065 198.5 180.03 198.5C179.995 198.5 179.96 198.5 179.924 198.5C179.889 198.5 179.853 198.5 179.818 198.5C179.782 198.5 179.746 198.5 179.711 198.5C179.675 198.5 179.639 198.5 179.603 198.5C179.567 198.5 179.53 198.5 179.494 198.5C179.458 198.5 179.422 198.5 179.385 198.5C179.348 198.5 179.312 198.5 179.275 198.5C179.238 198.5 179.202 198.5 179.165 198.5C179.128 198.5 179.091 198.5 179.053 198.5C179.016 198.5 178.979 198.5 178.942 198.5C178.904 198.5 178.867 198.5 178.829 198.5C178.791 198.5 178.754 198.5 178.716 198.5C178.678 198.5 178.64 198.5 178.602 198.5C178.564 198.5 178.526 198.5 178.488 198.5C178.449 198.5 178.411 198.5 178.372 198.5C178.334 198.5 178.295 198.5 178.257 198.5C178.218 198.5 178.179 198.5 178.14 198.5C178.101 198.5 178.062 198.5 178.023 198.5C177.984 198.5 177.945 198.5 177.906 198.5C177.866 198.5 177.827 198.5 177.787 198.5C177.748 198.5 177.708 198.5 177.668 198.5C177.629 198.5 177.589 198.5 177.549 198.5C177.509 198.5 177.469 198.5 177.429 198.5C177.389 198.5 177.348 198.5 177.308 198.5C177.268 198.5 177.227 198.5 177.186 198.5C177.146 198.5 177.105 198.5 177.064 198.5C177.024 198.5 176.983 198.5 176.942 198.5C176.901 198.5 176.86 198.5 176.819 198.5C176.777 198.5 176.736 198.5 176.695 198.5C176.653 198.5 176.612 198.5 176.57 198.5C176.529 198.5 176.487 198.5 176.445 198.5C176.403 198.5 176.361 198.5 176.319 198.5C176.277 198.5 176.235 198.5 176.193 198.5C176.151 198.5 176.109 198.5 176.066 198.5C176.024 198.5 175.981 198.5 175.939 198.5C175.896 198.5 175.854 198.5 175.811 198.5C175.768 198.5 175.725 198.5 175.682 198.5C175.639 198.5 175.596 198.5 175.553 198.5C175.51 198.5 175.467 198.5 175.423 198.5C175.38 198.5 175.336 198.5 175.293 198.5C175.249 198.5 175.206 198.5 175.162 198.5C175.118 198.5 175.074 198.5 175.03 198.5C174.987 198.5 174.942 198.5 174.898 198.5C174.854 198.5 174.81 198.5 174.766 198.5C174.721 198.5 174.677 198.5 174.633 198.5C174.588 198.5 174.543 198.5 174.499 198.5C174.454 198.5 174.409 198.5 174.364 198.5C174.32 198.5 174.275 198.5 174.23 198.5C174.184 198.5 174.139 198.5 174.094 198.5C174.049 198.5 174.004 198.5 173.958 198.5C173.913 198.5 173.867 198.5 173.822 198.5C173.776 198.5 173.73 198.5 173.684 198.5C173.639 198.5 173.593 198.5 173.547 198.5C173.501 198.5 173.455 198.5 173.409 198.5C173.363 198.5 173.316 198.5 173.27 198.5C173.224 198.5 173.177 198.5 173.131 198.5C173.084 198.5 173.038 198.5 172.991 198.5C172.944 198.5 172.898 198.5 172.851 198.5C172.804 198.5 172.757 198.5 172.71 198.5C172.663 198.5 172.616 198.5 172.568 198.5C172.521 198.5 172.474 198.5 172.427 198.5C172.379 198.5 172.332 198.5 172.284 198.5C172.237 198.5 172.189 198.5 172.141 198.5C172.094 198.5 172.046 198.5 171.998 198.5C171.95 198.5 171.902 198.5 171.854 198.5C171.806 198.5 171.758 198.5 171.71 198.5C171.661 198.5 171.613 198.5 171.565 198.5C171.516 198.5 171.468 198.5 171.419 198.5C171.371 198.5 171.322 198.5 171.273 198.5C171.225 198.5 171.176 198.5 171.127 198.5C171.078 198.5 171.029 198.5 170.98 198.5C170.931 198.5 170.882 198.5 170.832 198.5C170.783 198.5 170.734 198.5 170.685 198.5C170.635 198.5 170.586 198.5 170.536 198.5C170.487 198.5 170.437 198.5 170.387 198.5C170.338 198.5 170.288 198.5 170.238 198.5C170.188 198.5 170.138 198.5 170.088 198.5C170.038 198.5 169.988 198.5 169.938 198.5C169.888 198.5 169.837 198.5 169.787 198.5C169.737 198.5 169.686 198.5 169.636 198.5C169.585 198.5 169.535 198.5 169.484 198.5C169.433 198.5 169.383 198.5 169.332 198.5C169.281 198.5 169.23 198.5 169.179 198.5C169.128 198.5 169.077 198.5 169.026 198.5C168.975 198.5 168.924 198.5 168.873 198.5C168.821 198.5 168.77 198.5 168.718 198.5C168.667 198.5 168.616 198.5 168.564 198.5C168.512 198.5 168.461 198.5 168.409 198.5C168.357 198.5 168.306 198.5 168.254 198.5C168.202 198.5 168.15 198.5 168.098 198.5C168.046 198.5 167.994 198.5 167.942 198.5C167.89 198.5 167.837 198.5 167.785 198.5C167.733 198.5 167.68 198.5 167.628 198.5C167.575 198.5 167.523 198.5 167.47 198.5C167.418 198.5 167.365 198.5 167.312 198.5C167.26 198.5 167.207 198.5 167.154 198.5C167.101 198.5 167.048 198.5 166.995 198.5C166.942 198.5 166.889 198.5 166.836 198.5C166.783 198.5 166.73 198.5 166.676 198.5C166.623 198.5 166.57 198.5 166.516 198.5C166.463 198.5 166.409 198.5 166.356 198.5C166.302 198.5 166.249 198.5 166.195 198.5C166.141 198.5 166.087 198.5 166.034 198.5C165.98 198.5 165.926 198.5 165.872 198.5C165.818 198.5 165.764 198.5 165.71 198.5C165.656 198.5 165.601 198.5 165.547 198.5C165.493 198.5 165.439 198.5 165.384 198.5C165.33 198.5 165.275 198.5 165.221 198.5C165.166 198.5 165.112 198.5 165.057 198.5C165.003 198.5 164.948 198.5 164.893 198.5C164.838 198.5 164.784 198.5 164.729 198.5C164.674 198.5 164.619 198.5 164.564 198.5C164.509 198.5 164.454 198.5 164.399 198.5C164.344 198.5 164.288 198.5 164.233 198.5C164.178 198.5 164.122 198.5 164.067 198.5C164.012 198.5 163.956 198.5 163.901 198.5C163.845 198.5 163.79 198.5 163.734 198.5C163.678 198.5 163.623 198.5 163.567 198.5C163.511 198.5 163.455 198.5 163.399 198.5C163.344 198.5 163.288 198.5 163.232 198.5C163.176 198.5 163.12 198.5 163.063 198.5C163.007 198.5 162.951 198.5 162.895 198.5C162.839 198.5 162.782 198.5 162.726 198.5C162.67 198.5 162.613 198.5 162.557 198.5C162.5 198.5 162.444 198.5 162.387 198.5C162.331 198.5 162.274 198.5 162.217 198.5C162.161 198.5 162.104 198.5 162.047 198.5C161.99 198.5 161.933 198.5 161.876 198.5C161.819 198.5 161.762 198.5 161.705 198.5C161.648 198.5 161.591 198.5 161.534 198.5C161.477 198.5 161.42 198.5 161.363 198.5C161.305 198.5 161.248 198.5 161.191 198.5C161.133 198.5 161.076 198.5 161.018 198.5C160.961 198.5 160.903 198.5 160.846 198.5C160.788 198.5 160.731 198.5 160.673 198.5C160.615 198.5 160.557 198.5 160.5 198.5C160.442 198.5 160.384 198.5 160.326 198.5C160.268 198.5 160.21 198.5 160.152 198.5C160.094 198.5 160.036 198.5 159.978 198.5C159.92 198.5 159.862 198.5 159.804 198.5C159.745 198.5 159.687 198.5 159.629 198.5C159.57 198.5 159.512 198.5 159.454 198.5C159.395 198.5 159.337 198.5 159.278 198.5C159.22 198.5 159.161 198.5 159.103 198.5C159.044 198.5 158.985 198.5 158.927 198.5C158.868 198.5 158.809 198.5 158.75 198.5C158.692 198.5 158.633 198.5 158.574 198.5C158.515 198.5 158.456 198.5 158.397 198.5C158.338 198.5 158.279 198.5 158.22 198.5C158.161 198.5 158.102 198.5 158.042 198.5C157.983 198.5 157.924 198.5 157.865 198.5C157.806 198.5 157.746 198.5 157.687 198.5C157.627 198.5 157.568 198.5 157.509 198.5C157.449 198.5 157.39 198.5 157.33 198.5C157.271 198.5 157.211 198.5 157.151 198.5C157.092 198.5 157.032 198.5 156.972 198.5C156.913 198.5 156.853 198.5 156.793 198.5C156.733 198.5 156.673 198.5 156.613 198.5C156.554 198.5 156.494 198.5 156.434 198.5C156.374 198.5 156.314 198.5 156.254 198.5C156.194 198.5 156.133 198.5 156.073 198.5C156.013 198.5 155.953 198.5 155.893 198.5C155.833 198.5 155.772 198.5 155.712 198.5C155.652 198.5 155.591 198.5 155.531 198.5C155.471 198.5 155.41 198.5 155.35 198.5C155.289 198.5 155.229 198.5 155.168 198.5C155.108 198.5 155.047 198.5 154.986 198.5C154.926 198.5 154.865 198.5 154.804 198.5C154.744 198.5 154.683 198.5 154.622 198.5C154.561 198.5 154.501 198.5 154.44 198.5C154.379 198.5 154.318 198.5 154.257 198.5C154.196 198.5 154.135 198.5 154.074 198.5C154.013 198.5 153.952 198.5 153.891 198.5C153.83 198.5 153.769 198.5 153.708 198.5C153.647 198.5 153.585 198.5 153.524 198.5C153.463 198.5 153.402 198.5 153.34 198.5C153.279 198.5 153.218 198.5 153.157 198.5C153.095 198.5 153.034 198.5 152.972 198.5C152.911 198.5 152.849 198.5 152.788 198.5C152.727 198.5 152.665 198.5 152.603 198.5C152.542 198.5 152.48 198.5 152.419 198.5C152.357 198.5 152.295 198.5 152.234 198.5C152.172 198.5 152.11 198.5 152.049 198.5C151.987 198.5 151.925 198.5 151.863 198.5C151.801 198.5 151.74 198.5 151.678 198.5C151.616 198.5 151.554 198.5 151.492 198.5C151.43 198.5 151.368 198.5 151.306 198.5C151.244 198.5 151.182 198.5 151.12 198.5C151.058 198.5 150.996 198.5 150.934 198.5C150.872 198.5 150.81 198.5 150.748 198.5C150.685 198.5 150.623 198.5 150.561 198.5C150.499 198.5 150.437 198.5 150.374 198.5C150.312 198.5 150.25 198.5 150.187 198.5C150.125 198.5 150.063 198.5 150 198.5C149.938 198.5 149.876 198.5 149.813 198.5C149.751 198.5 149.688 198.5 149.626 198.5C149.563 198.5 149.501 198.5 149.438 198.5C149.376 198.5 149.313 198.5 149.251 198.5C149.188 198.5 149.125 198.5 149.063 198.5C149 198.5 148.937 198.5 148.875 198.5C148.812 198.5 148.749 198.5 148.687 198.5C148.624 198.5 148.561 198.5 148.498 198.5C148.436 198.5 148.373 198.5 148.31 198.5C148.247 198.5 148.184 198.5 148.121 198.5C148.059 198.5 147.996 198.5 147.933 198.5C147.87 198.5 147.807 198.5 147.744 198.5C147.681 198.5 147.618 198.5 147.555 198.5C147.492 198.5 147.429 198.5 147.366 198.5C147.303 198.5 147.24 198.5 147.177 198.5C147.114 198.5 147.051 198.5 146.988 198.5C146.925 198.5 146.861 198.5 146.798 198.5C146.735 198.5 146.672 198.5 146.609 198.5C146.546 198.5 146.482 198.5 146.419 198.5C146.356 198.5 146.293 198.5 146.229 198.5C146.166 198.5 146.103 198.5 146.04 198.5C145.976 198.5 145.913 198.5 145.85 198.5C145.786 198.5 145.723 198.5 145.66 198.5C145.596 198.5 145.533 198.5 145.47 198.5C145.406 198.5 145.343 198.5 145.279 198.5C145.216 198.5 145.152 198.5 145.089 198.5C145.026 198.5 144.962 198.5 144.899 198.5C144.835 198.5 144.772 198.5 144.708 198.5C144.645 198.5 144.581 198.5 144.518 198.5C144.454 198.5 144.39 198.5 144.327 198.5C144.263 198.5 144.2 198.5 144.136 198.5C144.073 198.5 144.009 198.5 143.945 198.5C143.882 198.5 143.818 198.5 143.755 198.5C143.691 198.5 143.627 198.5 143.564 198.5C143.5 198.5 143.436 198.5 143.373 198.5C143.309 198.5 143.245 198.5 143.182 198.5C143.118 198.5 143.054 198.5 142.99 198.5C142.927 198.5 142.863 198.5 142.799 198.5C142.735 198.5 142.672 198.5 142.608 198.5C142.544 198.5 142.48 198.5 142.417 198.5C142.353 198.5 142.289 198.5 142.225 198.5C142.162 198.5 142.098 198.5 142.034 198.5C141.97 198.5 141.906 198.5 141.843 198.5C141.779 198.5 141.715 198.5 141.651 198.5C141.587 198.5 141.523 198.5 141.459 198.5C141.396 198.5 141.332 198.5 141.268 198.5C141.204 198.5 141.14 198.5 141.076 198.5C141.012 198.5 140.949 198.5 140.885 198.5C140.821 198.5 140.757 198.5 140.693 198.5C140.629 198.5 140.565 198.5 140.501 198.5C140.437 198.5 140.374 198.5 140.31 198.5C140.246 198.5 140.182 198.5 140.118 198.5C140.054 198.5 139.99 198.5 139.926 198.5C139.862 198.5 139.798 198.5 139.734 198.5C139.671 198.5 139.607 198.5 139.543 198.5C139.479 198.5 139.415 198.5 139.351 198.5C139.287 198.5 139.223 198.5 139.159 198.5C139.095 198.5 139.031 198.5 138.967 198.5C138.903 198.5 138.839 198.5 138.776 198.5C138.712 198.5 138.648 198.5 138.584 198.5C138.52 198.5 138.456 198.5 138.392 198.5C138.328 198.5 138.264 198.5 138.2 198.5C138.136 198.5 138.072 198.5 138.008 198.5C137.944 198.5 137.881 198.5 137.817 198.5C137.753 198.5 137.689 198.5 137.625 198.5C137.561 198.5 137.497 198.5 137.433 198.5C137.369 198.5 137.305 198.5 137.241 198.5C137.178 198.5 137.114 198.5 137.05 198.5C136.986 198.5 136.922 198.5 136.858 198.5C136.794 198.5 136.73 198.5 136.666 198.5C136.603 198.5 136.539 198.5 136.475 198.5C136.411 198.5 136.347 198.5 136.283 198.5C136.219 198.5 136.156 198.5 136.092 198.5C136.028 198.5 135.964 198.5 135.9 198.5C135.836 198.5 135.773 198.5 135.709 198.5C135.645 198.5 135.581 198.5 135.517 198.5C135.454 198.5 135.39 198.5 135.326 198.5C135.262 198.5 135.198 198.5 135.135 198.5C135.071 198.5 135.007 198.5 134.943 198.5C134.88 198.5 134.816 198.5 134.752 198.5C134.689 198.5 134.625 198.5 134.561 198.5C134.497 198.5 134.434 198.5 134.37 198.5C134.306 198.5 134.243 198.5 134.179 198.5C134.115 198.5 134.052 198.5 133.988 198.5C133.924 198.5 133.861 198.5 133.797 198.5C133.734 198.5 133.67 198.5 133.606 198.5C133.543 198.5 133.479 198.5 133.416 198.5C133.352 198.5 133.288 198.5 133.225 198.5C133.161 198.5 133.098 198.5 133.034 198.5C132.971 198.5 132.907 198.5 132.844 198.5C132.78 198.5 132.717 198.5 132.653 198.5C132.59 198.5 132.526 198.5 132.463 198.5C132.4 198.5 132.336 198.5 132.273 198.5C132.209 198.5 132.146 198.5 132.083 198.5C132.019 198.5 131.956 198.5 131.893 198.5C131.829 198.5 131.766 198.5 131.703 198.5C131.639 198.5 131.576 198.5 131.513 198.5C131.45 198.5 131.386 198.5 131.323 198.5C131.26 198.5 131.197 198.5 131.133 198.5C131.07 198.5 131.007 198.5 130.944 198.5C130.881 198.5 130.818 198.5 130.754 198.5C130.691 198.5 130.628 198.5 130.565 198.5C130.502 198.5 130.439 198.5 130.376 198.5C130.313 198.5 130.25 198.5 130.187 198.5C130.124 198.5 130.061 198.5 129.998 198.5C129.935 198.5 129.872 198.5 129.809 198.5C129.746 198.5 129.683 198.5 129.62 198.5C129.557 198.5 129.495 198.5 129.432 198.5C129.369 198.5 129.306 198.5 129.243 198.5C129.181 198.5 129.118 198.5 129.055 198.5C128.992 198.5 128.93 198.5 128.867 198.5C128.804 198.5 128.741 198.5 128.679 198.5C128.616 198.5 128.554 198.5 128.491 198.5C128.428 198.5 128.366 198.5 128.303 198.5C128.241 198.5 128.178 198.5 128.116 198.5C128.053 198.5 127.991 198.5 127.928 198.5C127.866 198.5 127.803 198.5 127.741 198.5C127.679 198.5 127.616 198.5 127.554 198.5C127.491 198.5 127.429 198.5 127.367 198.5C127.305 198.5 127.242 198.5 127.18 198.5C127.118 198.5 127.056 198.5 126.993 198.5C126.931 198.5 126.869 198.5 126.807 198.5C126.745 198.5 126.683 198.5 126.621 198.5C126.559 198.5 126.497 198.5 126.435 198.5C126.373 198.5 126.311 198.5 126.249 198.5C126.187 198.5 126.125 198.5 126.063 198.5C126.001 198.5 125.939 198.5 125.877 198.5C125.815 198.5 125.754 198.5 125.692 198.5C125.63 198.5 125.568 198.5 125.507 198.5C125.445 198.5 125.383 198.5 125.322 198.5C125.26 198.5 125.198 198.5 125.137 198.5C125.075 198.5 125.014 198.5 124.952 198.5C124.891 198.5 124.829 198.5 124.768 198.5C124.706 198.5 124.645 198.5 124.584 198.5C124.522 198.5 124.461 198.5 124.4 198.5C124.338 198.5 124.277 198.5 124.216 198.5C124.155 198.5 124.093 198.5 124.032 198.5C123.971 198.5 123.91 198.5 123.849 198.5C123.788 198.5 123.727 198.5 123.666 198.5C123.605 198.5 123.544 198.5 123.483 198.5C123.422 198.5 123.361 198.5 123.3 198.5C123.239 198.5 123.178 198.5 123.117 198.5C123.057 198.5 122.996 198.5 122.935 198.5C122.874 198.5 122.814 198.5 122.753 198.5C122.692 198.5 122.632 198.5 122.571 198.5C122.511 198.5 122.45 198.5 122.39 198.5C122.329 198.5 122.269 198.5 122.208 198.5C122.148 198.5 122.087 198.5 122.027 198.5C121.967 198.5 121.906 198.5 121.846 198.5C121.786 198.5 121.726 198.5 121.666 198.5C121.605 198.5 121.545 198.5 121.485 198.5C121.425 198.5 121.365 198.5 121.305 198.5C121.245 198.5 121.185 198.5 121.125 198.5C121.065 198.5 121.005 198.5 120.945 198.5C120.886 198.5 120.826 198.5 120.766 198.5C120.706 198.5 120.647 198.5 120.587 198.5C120.527 198.5 120.468 198.5 120.408 198.5C120.349 198.5 120.289 198.5 120.23 198.5C120.17 198.5 120.111 198.5 120.051 198.5C119.992 198.5 119.932 198.5 119.873 198.5C119.814 198.5 119.755 198.5 119.695 198.5C119.636 198.5 119.577 198.5 119.518 198.5C119.459 198.5 119.4 198.5 119.341 198.5C119.282 198.5 119.223 198.5 119.164 198.5C119.105 198.5 119.046 198.5 118.987 198.5C118.928 198.5 118.869 198.5 118.811 198.5C118.752 198.5 118.693 198.5 118.635 198.5C118.576 198.5 118.517 198.5 118.459 198.5C118.4 198.5 118.342 198.5 118.283 198.5C118.225 198.5 118.166 198.5 118.108 198.5C118.05 198.5 117.991 198.5 117.933 198.5C117.875 198.5 117.817 198.5 117.759 198.5C117.7 198.5 117.642 198.5 117.584 198.5C117.526 198.5 117.468 198.5 117.41 198.5C117.352 198.5 117.295 198.5 117.237 198.5C117.179 198.5 117.121 198.5 117.063 198.5C117.006 198.5 116.948 198.5 116.89 198.5C116.833 198.5 116.775 198.5 116.718 198.5C116.66 198.5 116.603 198.5 116.545 198.5C116.488 198.5 116.43 198.5 116.373 198.5C116.316 198.5 116.259 198.5 116.201 198.5C116.144 198.5 116.087 198.5 116.03 198.5C115.973 198.5 115.916 198.5 115.859 198.5C115.802 198.5 115.745 198.5 115.688 198.5C115.631 198.5 115.575 198.5 115.518 198.5C115.461 198.5 115.404 198.5 115.348 198.5C115.291 198.5 115.235 198.5 115.178 198.5C115.122 198.5 115.065 198.5 115.009 198.5C114.952 198.5 114.896 198.5 114.84 198.5C114.783 198.5 114.727 198.5 114.671 198.5C114.615 198.5 114.559 198.5 114.503 198.5C114.447 198.5 114.391 198.5 114.335 198.5C114.279 198.5 114.223 198.5 114.167 198.5C114.111 198.5 114.056 198.5 114 198.5V199Z" fill="black"/>
<path d="M161.833 199C161.833 200.473 163.027 201.667 164.5 201.667C165.973 201.667 167.167 200.473 167.167 199C167.167 197.527 165.973 196.333 164.5 196.333C163.027 196.333 161.833 197.527 161.833 199ZM175.5 183L175.906 182.708L175.491 182.131L175.088 182.717L175.5 183ZM164.5 199L164.912 199.283L175.912 183.283L175.5 183L175.088 182.717L164.088 198.717L164.5 199ZM175.5 183L175.094 183.292L186.594 199.292L187 199L187.406 198.708L175.906 182.708L175.5 183Z" fill="black"/>
<rect x="114.5" y="100.5" width="36" height="76" stroke="black"/>
<rect x="150.5" y="100.5" width="36" height="76" stroke="black"/>
</svg>
