<?xml version="1.0" encoding="UTF-8"?> <svg xmlns="http://www.w3.org/2000/svg" id="Layer_1" data-name="Layer 1" version="1.1" viewBox="0 0 108 108"><polyline points="74.8 81 90 81 90 28.6 18 28.6 18 81 33.5 81" fill="none" stroke="#ff5000" stroke-linecap="round" stroke-linejoin="round" stroke-width="4"></polyline><g><path d="M68.3,75.7c0-1.5-.4-3-1-4.4l4.6-4.6c-1.1-2-2.6-3.9-4.3-5.4l-5.5,3.4c-1.2-.9-2.6-1.5-4.1-2l-.7-6.5c-1.1-.2-2.3-.3-3.4-.3s-2.3,0-3.4.3l-.7,6.5c-1.5.4-2.8,1.1-4,1.9l-5.5-3.5c-1.7,1.5-3.2,3.3-4.3,5.4l4.6,4.6c-.5,1.4-.9,2.8-1,4.4h0s-6.1,2.1-6.1,2.1c.1,2.4.7,4.6,1.5,6.7l6.4-.7c.7,1.3,1.7,2.5,2.8,3.5l-2.2,6.1c1.9,1.3,3.9,2.4,6.2,3l3.4-5.5h0c.7.1,1.5.2,2.3.2s1.5,0,2.2-.2l3.4,5.5c2.2-.6,4.3-1.7,6.2-3l-2.2-6.1c1.1-1,2-2.2,2.8-3.5l6.4.8c.9-2.1,1.4-4.3,1.5-6.7l-6.1-2.1Z" fill="none" stroke="#ff5000" stroke-linecap="round" stroke-linejoin="round" stroke-width="3"></path><circle cx="54" cy="76.2" r="6.7" fill="none" stroke="#ff5000" stroke-linecap="round" stroke-linejoin="round" stroke-width="3"></circle></g><polyline points="70.9 27.9 70.9 19.8 37.1 19.8 37.1 27.9" fill="none" stroke="#ff5000" stroke-linecap="round" stroke-linejoin="round" stroke-width="4"></polyline><rect x="18" y="28.6" width="72" height="17.7" fill="none" stroke="#ff5000" stroke-linecap="round" stroke-linejoin="round" stroke-width="4"></rect><line x1="37.1" y1="41.9" x2="37.1" y2="50.7" fill="none" stroke="#ff5000" stroke-linecap="round" stroke-linejoin="round" stroke-width="4"></line><line x1="70.8" y1="41.9" x2="70.8" y2="50.7" fill="none" stroke="#ff5000" stroke-linecap="round" stroke-linejoin="round" stroke-width="4"></line></svg> 