<svg xmlns="http://www.w3.org/2000/svg" version="1.1" xmlns:xlink="http://www.w3.org/1999/xlink" width="512" height="512" x="0" y="0" viewBox="0 0 100 100" style="enable-background:new 0 0 512 512" xml:space="preserve" fill-rule="evenodd" class=""><g><path d="m29.097 50.855 14.326 16.219a9.373 9.373 0 0 0 14.053 0l14.303-16.193a3.127 3.127 0 0 0-.273-4.411 3.127 3.127 0 0 0-4.411.273L52.792 62.936a3.127 3.127 0 0 1-4.685 0L33.781 46.717a3.126 3.126 0 0 0-4.684 4.138z" fill="#fe4100" opacity="1" data-original="#000000" class=""></path><path d="M16.062 56.25V75a9.376 9.376 0 0 0 9.376 9.375h50A9.375 9.375 0 0 0 84.813 75V56.25a3.126 3.126 0 0 0-6.25 0V75a3.125 3.125 0 0 1-3.125 3.125h-50A3.126 3.126 0 0 1 22.312 75V56.25a3.126 3.126 0 0 0-6.25 0z" fill="#fe4100" opacity="1" data-original="#000000" class=""></path><path d="M47.313 17.187v50.001c0 1.724 1.4 3.125 3.125 3.125a3.128 3.128 0 0 0 3.125-3.126V17.188a3.126 3.126 0 0 0-6.25-.001z" fill="#fe4100" opacity="1" data-original="#000000" class=""></path></g></svg>